<svg xmlns="http://www.w3.org/2000/svg" viewBox="0 0 1115.86 386.08" height="50px" class="logo">
    <title>1Play</title>
    <g id="Layer_2" data-name="Layer 2">
        <g id="Layer_1-2" data-name="Layer 1">
            <path fill="#3760B7"
                d="M436.55,149.28c2.38-.73,3.23-2.61,4.31-4.21,16.18-23.92,39.19-29.14,65.85-23.81,40.12,8,68.87,39.53,74,80.19,4,31.39-2.78,59.78-24.05,83.5-21,23.46-48.08,32.56-79.21,28.94-10.54-1.22-19.31-6.87-26.72-14.44-2.31-2.35-4.54-4.78-6.85-7.21-3,2.2-1.79,5.07-1.81,7.46-.13,17.32,0,34.65-.11,52a51.07,51.07,0,0,1-.69,8.91c-1,5.23-4,8.18-9.64,8.15-12-.08-24,.21-36-.15-7.13-.21-10.74-4.34-11.2-11.42-.09-1.33,0-2.67,0-4q0-107.43,0-214.87c0-3.63-.59-7.36,1.8-10.6a11.94,11.94,0,0,1,10.17-5.33c7,.06,14,.17,21,0,6.26-.17,9.86,2.89,12,8.51C431.73,137,433.12,143.57,436.55,149.28Zm90.08,67.48c1.09-23.8-16.82-45.83-42.11-46.11-25.11-.28-46.94,21.29-47,45.93,0,25.81,21.25,47.33,46.77,47.08C509.14,263.43,527.93,242.32,526.63,216.76Z">
            </path>
            <path fill="#3760B7"
                d="M843.69,149.45c2.07-6,3.89-11.67,6-17.26,3.53-9.35,4.11-9.71,13.63-9.8,5.67-.06,11.33-.08,17,0,11.12.16,14.38,3.29,14.44,14.25.1,18.33,0,36.65,0,55q0,52,0,103.94c0,12.91-2.86,15.83-15.74,16.11-7.33.16-14.66,0-22,0s-12.8-2.42-14.85-10.38c-1-3.77-2.12-7.69-4.68-10.9-3,.35-4.55,2.77-6.27,4.67-18.3,20.15-40.73,23.31-65.74,16.26-41.14-11.59-65.26-46.55-69.87-81.39-6.72-50.81,27-99.43,77.79-108.84,25.88-4.8,47.38,1.39,64,22.37C839,145.54,840.08,148.22,843.69,149.45Zm-95,68.3c0,26.28,17.89,45.67,42.41,45.94A46.05,46.05,0,0,0,838,218c.16-25.66-21.33-47.51-46.65-47.41C767.17,170.69,748.66,191.15,748.65,217.75Z">
            </path>
            <path fill="#3760B7"
                d="M231.25,271.91c-7.26.13-9.4-3.07-9.43-9.5-.09-15.93-.27-31.87-.32-47.8,0-7.57,1.85-9.4,9.43-10.39,23.43-3.07,46.87-6,70.24-9.48,9.14-1.36,12.33,2.49,12.19,10.6-.35,19.43-.1,38.87-.12,58.31,0,1.55.23,3.13-.4,4.66-1.59,3.83-4.12,5.53-8.61,5.42-12.25-.31-24.5-.7-36.75-1.05">
            </path>
            <path fill="#3760B7"
                d="M313.25,135.8c0,10,0,20,0,30,0,6.52-3.43,10.66-9.62,11.71q-35.73,6.06-71.47,12.07c-1.55.27-3.11.57-4.68.69-3.37.26-5.23-1.19-5.85-4.58a20.28,20.28,0,0,1-.2-3.66c0-15.25.05-30.49.14-45.73,0-8,1.63-9.93,9.26-12.41q34.95-11.34,69.41-24.16c1.47-.55,2.94-1.14,4.43-1.64,5.24-1.75,8.53.56,8.58,6.22.09,10.51,0,21,0,31.53Z">
            </path>
            <path fill="#3760B7"
                d="M313.27,331.74v29.94c0,.88.06,1.76,0,2.63-.44,5.16-4.25,7.89-9.1,6.32-16-5.17-32.5-8.34-48.85-12.12-7.84-1.81-15.74-3.33-23.62-5-5.74-1.2-8-3.73-8.3-9.71-.28-6.3-.31-12.6-.45-18.9q-.31-14.45-.62-28.89a23.29,23.29,0,0,1,.13-4.18c.69-4,2.81-5.68,6.94-5.47,11.54.59,23.08,1.19,34.61,1.92,12.92.81,25.84,1.74,38.76,2.68,7.58.55,10.48,3.75,10.49,11.36q0,14.7,0,29.41Z">
            </path>
            <path fill="#3760B7"
                d="M1015.6,246.75c8.92-25.94,17.78-51.64,26.62-77.35,4.21-12.26,8.29-24.57,12.63-36.79,3.18-8.94,5-10.13,14.69-10.21,11.33-.09,22.66-.06,34,0a23.1,23.1,0,0,1,6.85.89c4.61,1.5,6.3,4.55,5.12,9.21a65.94,65.94,0,0,1-3.1,8.42c-31.51,78.38-63.37,156.63-93.58,235.53-2.47,6.47-6.11,9.78-13.22,9.6-10.65-.26-21.32.13-32-.11-10.08-.23-13.55-5.62-9.91-15.22,6.47-17.11,12.84-34.26,19.84-51.14,2.64-6.37,2.27-11.71-.3-18q-32.14-77.91-63.78-156c-1.38-3.38-2.82-6.76-3.87-10.25-2.08-6.95.93-12.39,8.12-12.71,13.3-.6,26.65-.52,40-.07,5.69.2,8.13,5.11,9.85,10Q980,151,986.41,169.34L1012,241.79C1012.5,243.33,1012.64,245.07,1015.6,246.75Z">
            </path>
            <path fill="#3760B7"
                d="M313.26,37.62c0,10,.06,20,0,29.93-.05,6.14-2.82,10.79-8.52,13.21-25,10.59-50.13,20.6-75.69,29.65-4.9,1.73-7.19.32-7.15-4.77q.19-23.62.8-47.24c.13-5,3-8.28,7.4-10.61C251,36.72,271,24.31,290.79,11.35c4.82-3.17,9.65-6.33,14.41-9.61,1.64-1.13,3.28-2.4,5.23-1.35,2.15,1.16,2.89,3.2,2.86,5.73-.1,10.5,0,21,0,31.5Z">
            </path>
            <path fill="#3760B7"
                d="M609.83,190.25q0-54.43,0-108.87c0-12.16,2.31-14.49,14.55-14.67,9.32-.13,18.65-.17,28,0,10.1.21,13.72,3.85,13.72,14.09q.1,108.87,0,217.74c0,9.8-3.4,13.22-13.16,13.42-10.31.21-20.64.19-31,0-9.62-.18-12.08-2.81-12.09-12.85Q609.75,244.69,609.83,190.25Z">
            </path>
            <path fill="#3760B7"
                d="M37.19,225.76c8.89-.73,17.78-1.53,26.67-2.19,6-.44,7.51,1,7.53,7.12q0,17.06,0,34.11c0,5.93-1.6,7.66-7.38,7.76q-28.6.48-57.2.74c-4.65.05-5.95-1.3-6-5.77q0-16.27,0-32.55c0-4.77,1.32-6.1,6.58-6.59,8.71-.8,17.42-1.53,26.14-2.29l3.66-.29Z">
            </path>
            <path fill="#3760B7"
                d="M71.73,144.65c-.14,5.71-2,7.95-7.46,9Q35.13,159.12,6,164.41c-4.68.85-5.93-.33-5.94-5.13q0-15.74,0-31.49c0-5.39,1.22-7,6.56-8.23,8.86-2.06,17.74-4,26.6-6.06,10.56-2.44,21.11-4.93,31.68-7.37a13.14,13.14,0,0,1,3.6-.54c2.82.15,4,1.65,4.08,5">
            </path>
            <path fill="#3760B7"
                d="M37.18,329.93c-8.38-.6-16.75-1.19-25.12-1.82a55.28,55.28,0,0,1-7.29-.79c-2.59-.53-4.09-1.94-4-5.08.18-11.36.05-22.73.09-34.1,0-3.47,1.05-4.61,4.45-5.14a16.2,16.2,0,0,1,2.61-.08l55.1.24a20.79,20.79,0,0,1,2.62.08c3.77.5,5.77,2.39,5.83,6.16q.28,18.63.26,37.25c0,4.52-1.91,6.05-6.81,5.69-9.24-.69-18.47-1.54-27.71-2.32Z">
            </path>
            <path fill="#3760B7"
                d="M71.49,204.52c-.07,5.7-1.74,7.73-7.21,8.32-15.49,1.67-31,3.21-46.5,4.81-3.48.35-7,.77-10.44,1.12-4.74.47-6.82-.54-6.64-5.83.36-10.49.1-21,.11-31.51,0-5.08,1.27-6.61,6.48-7.53,6.73-1.18,13.47-2.25,20.2-3.38q17.36-2.93,34.7-5.88c.69-.12,1.37-.27,2.07-.37,6-.83,7.59.52,7.6,6.63,0,5.61,0,11.21,0,16.81">
            </path>
            <path fill="#3760B7"
                d="M134.31,329.1a32.25,32.25,0,0,1,0,3.68c-.44,3.94-1.89,5.14-5.85,4.78-9.4-.84-18.81-1.76-28.21-2.6-3.66-.33-7.33-.54-11-.77-5.42-.34-6.63-1.52-6.77-7.07-.11-4.55,0-9.1-.08-13.65-.05-7.7-.16-15.4-.13-23.09,0-6.07,1.05-7.1,7-7.14q18.63-.12,37.27-.12c5.7,0,7,1.3,7.15,7.15.13,6.82,0,13.64,0,20.47">
            </path>
            <path fill="#3760B7"
                d="M133.38,243.76c0,6.82.05,13.64,0,20.46-.07,5.82-1.31,6.92-7.14,7-12.59.3-25.17.68-37.76,1-5,.12-6.22-.92-6.26-6q-.17-18.89,0-37.77c0-5.42,1.24-6.47,6.82-7.13q18.74-2.22,37.49-4.49c5.07-.61,6.68.68,6.76,5.93.11,7,0,14,0,21Z">
            </path>
            <path fill="#3760B7"
                d="M134.28,130.75c-.12,7-1.36,8.64-8,10.19q-18.63,4.4-37.29,8.64c-5,1.14-6.39.09-6.33-5.07q.23-18.09.73-36.19c.14-4.68,1.39-6.08,6-7.23,13.4-3.33,26.62-7.28,39.83-11.28,4.39-1.33,5.8-.36,5.87,4.23M93.66,138.5,94,139q13.63-3.27,27.26-6.54c5-1.2,5.37-1.5,5.53-6.6.24-7.5.3-15,.4-22.51,0-1,.41-2-.94-3.13Z">
            </path>
            <path fill="#3760B7"
                d="M210,108.25c-.07,6.88-1.89,9.32-8.42,11.47-17.28,5.68-34.77,10.67-52.32,15.42-4.25,1.15-6,0-5.95-4.5.19-13.31.59-26.61,1-39.9.13-4.09,2.25-6.62,6.28-8a558.22,558.22,0,0,0,52.92-21.58c5.65-2.65,7.41-1.34,7.37,5.12m-8.58-.31a3.05,3.05,0,0,0-3.46-.68C183.05,72.38,167.08,79,150.69,84.52c-3.11,1.06-4,3.12-4.07,5.93-.23,6.3-.49,12.59-.6,18.89-.08,4.78,0,9.56,0,14.43a2.29,2.29,0,0,0,2.68,2.25c2.41-.41,4.67-1.35,7-2,13.85-3.7,27.5-8,41.21-12.25,3.85-1.19,5.39-3.46,5.53-7.17,0-.87,0-1.75.05-2.62q.33-17,.65-33.91a3.07,3.07,0,0,0-.84-2.16Z">
            </path>
            <path fill="#3760B7"
                d="M209.35,182.51a42,42,0,0,1-.12,4.2c-.53,4.76-2.48,6.94-7.17,7.64-14.7,2.19-29.43,4.3-44.15,6.43-3.28.48-6.57,1-9.88,1.31-3.8.38-5.05-.69-5.52-4.47a25.44,25.44,0,0,1-.08-3.15q.15-18.9.31-37.81c0-.88,0-1.76.08-2.63.43-4.34,1.82-6,6.26-7.16l46.11-12.31c2.7-.73,5.37-1.58,8.08-2.27,3.75-.95,5.62.25,6.23,4a26.57,26.57,0,0,1,.12,4.19m-13.65,46c5.23-.81,5.68-1.39,5.76-6.74.1-6.64,0-13.23,0-19.88,0,0,0-.14,0-.14,0-.87,0-1.66.06-2.53,0-5.59.12-11.19.15-16.78.19-4.09,0-5.81-5.32-4.29-.17,0-.33.11-.5.16-15,4-30,8-45,11.94-5.62,1.47-5.9,1.63-6,7.32-.18,11-.29,22-.42,33,0,.7,0,1.4,0,2.1-.07,2.12.62,3.39,3.05,2.91">
            </path>
            <path fill="#3760B7"
                d="M175.55,284.08c8.57.29,17.14.54,25.71.89,7,.29,8.72,2,8.89,8.79.39,15.58.71,31.15,1,46.73a27.57,27.57,0,0,1,0,3.15c-.4,3.9-2.44,5.44-6.4,4.8-10-1.61-20-3.33-30.05-4.87-7.78-1.2-15.59-2.22-23.39-3.25-6.23-.83-7.79-2.37-7.92-8.79-.27-13.47-.43-26.95-.6-40.43a14.78,14.78,0,0,1,.39-4.15c.76-2.75,2.71-3.69,5.57-3.65m2.9,2.45c-6.06-.15-5.91,1.49-6,5.79-.25,9.43-.07,26.52.12,35.52.09,4.13.65,4.61,4.89,5.2,16.45,2.27,32.9,4.57,49.26,7.44,3.65.65,3.81.56,3.74-3.29q-.39-22-1-44.05c-.12-4.43-1-5.16-5.25-5.33">
            </path>
            <path fill="#3760B7"
                d="M149.77,271.09c-5.52,0-7.09-1.29-7.16-6.58q-.27-21.25-.22-42.51c0-5.8,1.52-7.14,7.47-7.86q24.21-2.92,48.42-5.89l.52-.05c9-1,10.57.38,10.65,9.3q.18,22,.37,44.08c0,1.05.08,2.11,0,3.15-.42,4.6-2.47,6.54-7,6.55-8.92,0-17.84,0-26.77,0m-3-7.86c7.69,0,15.39,0,23.08,0,5.58,0,6.22-.43,6.18-5.77q-.12-21.51-.46-43c-.06-4.56-.29-4.76-4.92-4.21q-23.7,2.82-47.38,5.8c-4.51.56-4.8.87-4.84,5.6-.06,7.87,0,15.74,0,23.61,0,4,0,8.05.1,12.07.15,5.44.33,6.11,5.64,6.12">
            </path>
            <path fill="#3760B7"
                d="M133.35,197c-.07,6.12-1.44,7.5-7.61,8.32-12.48,1.67-24.93,3.44-37.41,5-5,.63-6-.25-6.06-5.19q0-18.88.25-37.77c.07-4.68,1.33-6,6.06-7,13-2.86,25.92-5.67,38.88-8.51,4.74-1,6.13-.12,6.23,4.71m-13-1.9-31.7,7c-4.1.9-4.21.93-4.27,5.07-.08,6.82,0,13.64,0,20.45,0,4.7,0,6.26,0,11.05,0,2.56,1.25,3.32,3,3.12q16.62-2.28,33.23-4.61c4.53-.63,4.85-.9,4.91-5.63.1-7.87.08-15.73.13-23.6,0-3.67,0-7.34.12-11,.05-2-.69-2.91-2.8-2.28">
            </path>
        </g>
    </g>
</svg>