<svg viewBox="0 0 415.74 304.09" id="svg-771528328_4175">
    <path
        d="M400.39 28.96c-11.65-15.73-29.17-24.62-52.07-26.44C308.53-.64 238.12.05 235.13.08l-19.68.54-9.69 15.81c-1.84 3.01-36.75 60.92-50.66 142.01 0 0-49.32-.61-72.58-.69-22.02-.07-36.05-5.3-41.7-15.56-6.89-12.51-5.73-51.53 26.47-103.22L46.42 2.82l-.15-.1-9.89 15.7c-5.79 9.19-55.77 91.26-28.08 141.63 12.63 22.98 37.57 34.69 74.1 34.8 23.13.07 68.12.64 68.12.64-.68 9.04-1.08 18.27-1.08 27.68v18.55l37.11-.01v-18.55c-.02-95.54 43.62-174.82 50.06-186 9.05-.07 73.19-.49 108.77 2.34 11.9.95 20.14 4.73 25.2 11.55 15.64 21.1 4.92 69.95-1.48 99.13l-.9 4.1c-10.99 50.39-34.45 46.37-58.02 48.26-1.98.16-38.84 2.23-83.87 2.23H207.9l21.42 37.1c38.43-.02 82.05-2.2 83.83-2.34 24.39-1.96 74.44-.07 91.3-77.33l.89-4.05c8.25-37.66 20.74-94.53-4.95-129.19M197.74 291.12h12.92v-25.95c0-2.55-.39-4.71-1.16-6.48-.77-1.77-1.78-3.2-3.03-4.3-1.25-1.1-2.63-1.91-4.15-2.42-1.51-.52-3.01-.78-4.47-.78-2.53 0-4.81.61-6.86 1.82s-3.7 2.68-4.96 4.39c-.83-1.36-1.85-2.51-3.05-3.43-1.2-.92-2.48-1.62-3.84-2.08-1.36-.47-2.7-.7-4.02-.7-3.03 0-5.58.61-7.65 1.84-2.07 1.23-3.72 2.7-4.96 4.41v-5.49h-12.69v26.29l7.44 12.89h5.48v-24.55c0-1.09.28-2 .85-2.75s1.29-1.3 2.16-1.67c.87-.37 1.74-.55 2.6-.55s1.74.18 2.56.55c.82.37 1.5.9 2.05 1.61.54.71.81 1.58.81 2.61v24.74h12.88v-24.55c0-1.14.29-2.07.87-2.8s1.3-1.27 2.16-1.63c.86-.35 1.72-.53 2.58-.53.91 0 1.78.18 2.61.55s1.52.93 2.07 1.71c.54.77.81 1.77.81 3.01v24.24h-.01Zm43.64-13.18c-.02.76-.21 1.47-.57 2.12a6.42 6.42 0 0 1-1.44 1.8c-.61.54-1.3.97-2.08 1.27-.78.3-1.6.46-2.46.46-1.52 0-2.84-.47-3.98-1.4-1.14-.93-1.71-2.22-1.71-3.86 0-1.44.48-2.56 1.44-3.37s2.14-1.4 3.54-1.76c1.4-.37 2.76-.55 4.07-.55l3.18-.04v5.33Zm1.63 13.18h10.72v-27.66c0-2.47-.54-4.63-1.61-6.46s-2.86-3.26-5.36-4.28-5.9-1.54-10.19-1.54c-3.31 0-6.3.44-8.96 1.33-2.66.89-4.79 2.26-6.38 4.13s-2.46 4.28-2.61 7.24h10.57c.55-1.59 1.5-2.68 2.84-3.28 1.34-.59 2.67-.89 3.98-.89 1.84-.05 3.2.31 4.07 1.08s1.31 1.93 1.31 3.47v2.01l-3.98.04c-7.02.03-12.17 1.19-15.46 3.49-3.28 2.3-4.92 5.58-4.92 9.85 0 2.63.59 4.85 1.78 6.67s2.8 3.2 4.83 4.15 4.29 1.42 6.76 1.42c2.7 0 4.98-.52 6.84-1.55 1.86-1.04 3.41-2.93 4.68-5.68l1.09 6.46Zm43.08-27.13c0 1.74-.53 3.14-1.59 4.21-1.06 1.06-2.46 1.59-4.21 1.59s-3.22-.54-4.28-1.61-1.59-2.47-1.59-4.19.54-3.2 1.63-4.38 2.5-1.76 4.24-1.76 3.14.59 4.21 1.76c1.06 1.18 1.59 2.64 1.59 4.38m-12.56 26.03c.82-.35 1.86-.49 3.12-.42l8.03.53c1.74.1 3.08.47 4.02 1.12.93.64 1.4 1.46 1.4 2.44 0 1.06-.52 1.9-1.55 2.5-1.04.61-2.97.91-5.8.91-3.97 0-6.89-.28-8.77-.85s-2.82-1.57-2.82-3.01c0-.63.19-1.24.57-1.82s.98-1.04 1.8-1.4m24.32-37.94c-1.15.44-2.22.86-3.2 1.25-.99.39-1.81.71-2.46.97-1.46-.83-3.06-1.53-4.77-2.1-1.72-.57-3.94-.85-6.67-.85-3.56 0-6.79.47-9.7 1.42-2.9.95-5.22 2.34-6.95 4.17s-2.6 4.05-2.6 6.65c0 2.12.68 4.26 2.05 6.4 1.36 2.15 3.4 3.84 6.1 5.08-2.88.43-5.02 1.27-6.42 2.52-1.4 1.25-2.1 2.62-2.1 4.11 0 1.34.35 2.42 1.06 3.26.71.83 1.47 1.48 2.29 1.93s1.42.78 1.8.98c-.15.08-.63.23-1.44.47s-1.69.61-2.65 1.12-1.8 1.19-2.52 2.05-1.08 1.94-1.08 3.26c0 2.7 1.85 4.93 5.55 6.69 3.7 1.76 9.23 2.63 16.57 2.63s12.64-1.22 16.23-3.66c3.6-2.44 5.4-5.53 5.4-9.26 0-3.06-1.21-5.65-3.64-7.77-2.42-2.12-6.19-3.36-11.29-3.71-1.72-.13-3.29-.23-4.72-.3-1.43-.08-2.52-.13-3.28-.15-2.1-.15-3.71-.3-4.85-.43-1.14-.14-1.71-.5-1.71-1.08 0-.3.18-.55.53-.74s1-.32 1.93-.4c.58.05 1.35.09 2.31.13s1.7.06 2.24.06c4.01 0 7.39-.64 10.13-1.91 2.74-1.28 4.8-2.92 6.18-4.94s2.07-4.14 2.07-6.36c0-.38-.06-.91-.17-1.61-.11-.7-.27-1.36-.47-1.99l6.28-.92-4.39-7.6c-.54.19-1.09.42-1.64.63m11.88 39.04H322v-26.93l-7.07-12.24h-5.21v39.17h.01Zm44.77-24.02h9.45l-8.37-14.5c-2.13-.93-4.58-1.42-7.37-1.42-3.79 0-7.14.87-10.04 2.61-2.9 1.74-5.18 4.15-6.82 7.22s-2.46 6.64-2.46 10.7.84 7.61 2.52 10.65c1.68 3.03 3.98 5.37 6.9 7.03 2.92 1.65 6.22 2.48 9.91 2.48 3.38 0 6.31-.7 8.77-2.08 2.46-1.39 4.38-3.23 5.76-5.53 1.38-2.3 2.1-4.82 2.18-7.58h-10.3c-.1.73-.37 1.58-.82 2.54-.44.96-1.09 1.81-1.93 2.54-.85.73-1.95 1.1-3.32 1.1-2.35 0-4.22-1-5.63-2.99-1.4-1.99-2.1-4.76-2.1-8.3s.69-6.27 2.06-8.05c1.38-1.78 3.19-2.67 5.44-2.67 1.39 0 2.51.34 3.35 1 .85.67 1.5 1.48 1.95 2.44.46.97.75 1.9.87 2.81"
        style="stroke-width:0" />
</svg>