<svg width="2099" height="482" fill="none" id="svg1105208262_8607">
    <path fill-rule="evenodd" clip-rule="evenodd"
        d="M193.995 5.362a40 40 0 0 1 40.01 0l174 100.494A40 40 0 0 1 428 140.494v158.04c-11.622-10.796-27.187-17.402-44.3-17.402-6.402 0-12.758.92-18.824 2.748a95.476 95.476 0 0 0-32.853-24.564V195.92a40 40 0 0 0-19.995-34.638l-78.024-45.063a40 40 0 0 0-40.01 0l-78.024 45.063a39.998 39.998 0 0 0-19.995 34.638v90.149a39.998 39.998 0 0 0 19.995 34.638l59.837 34.56c-14.208 15.618-22.807 36.41-22.807 58.9 0 17.046 4.781 32.919 13.086 46.351L19.995 376.143A40 40 0 0 1 0 341.505V140.494a40 40 0 0 1 19.995-34.638l174-100.494ZM428 337.576v3.929a40 40 0 0 1-19.995 34.638l-174 100.494a39.975 39.975 0 0 1-8.474 3.665C195.313 473.463 173 446.608 173 414.167c0-18.938 7.912-36.291 20.658-48.59l.336.193a39.996 39.996 0 0 0 40.01 0l78.024-45.063a40 40 0 0 0 19.995-34.638v-4.163a75.54 75.54 0 0 1 15.609 12.702 74.607 74.607 0 0 1 10.671 14.53 39.904 39.904 0 0 1 8.313-4.67c5.257-2.183 11.075-3.337 17.084-3.337 21.93 0 40.22 15.677 44.3 36.445Z"
        fill="#87B53B" />
    <path
        d="M425.558 362.83c1.881-5.18 3.292-10.361 3.292-16.484 0-24.962-20.223-45.214-45.15-45.214-9.406 0-18.342 2.826-25.397 8.006-12.698-22.607-37.155-38.149-64.903-38.149-41.858 0-75.25 33.911-75.25 75.357v4.239c-26.338 8.949-45.15 34.382-45.15 63.583 0 37.678 30.1 67.821 67.725 67.821H413.8c32.922 0 60.2-26.846 60.2-60.286 0-28.73-20.694-53.221-48.442-58.873Z"
        fill="#C7D865" />
    <path
        d="m535.125 348 77.235-199.5h31.35L720.375 348H687.6L642 227.73c-.57-1.33-1.71-4.56-3.42-9.69-1.52-5.13-3.325-10.83-5.415-17.1l-5.7-17.1c-1.71-5.32-2.85-8.74-3.42-10.26l6.555-.285c-1.14 3.23-2.565 7.315-4.275 12.255a492.764 492.764 0 0 1-5.13 15.675 511.162 511.162 0 0 1-5.13 15.675c-1.71 4.75-3.135 8.74-4.275 11.97L566.475 348h-31.35Zm34.2-49.59 11.4-29.64h90.63l13.11 29.64h-115.14Zm236.739 52.44c-13.87 0-26.315-3.42-37.335-10.26-10.83-6.84-19.475-16.15-25.935-27.93-6.27-11.78-9.405-24.985-9.405-39.615 0-14.63 3.135-27.835 9.405-39.615 6.46-11.78 15.105-21.09 25.935-27.93 11.02-6.84 23.465-10.26 37.335-10.26 13.3 0 25.365 2.755 36.195 8.265 11.02 5.32 19.38 12.635 25.08 21.945l-16.245 19.95c-3.04-4.37-6.935-8.36-11.685-11.97-4.75-3.61-9.785-6.46-15.105-8.55-5.32-2.09-10.45-3.135-15.39-3.135-9.12 0-17.29 2.28-24.51 6.84-7.03 4.37-12.635 10.45-16.815 18.24-4.18 7.79-6.27 16.53-6.27 26.22 0 9.69 2.185 18.43 6.555 26.22 4.37 7.6 10.165 13.68 17.385 18.24 7.22 4.56 15.2 6.84 23.94 6.84 5.13 0 10.07-.855 14.82-2.565 4.94-1.71 9.69-4.275 14.25-7.695 4.56-3.42 8.835-7.6 12.825-12.54l16.245 19.95c-6.08 8.55-14.82 15.58-26.22 21.09-11.21 5.51-22.895 8.265-35.055 8.265Zm198.116 59.85v-98.325h5.7c0 4.56-1.52 9.12-4.56 13.68-3.04 4.37-7.121 8.455-12.251 12.255-5.13 3.8-10.83 6.84-17.1 9.12a56.285 56.285 0 0 1-19.38 3.42c-13.49 0-25.555-3.325-36.195-9.975-10.64-6.84-19.095-16.055-25.365-27.645-6.08-11.78-9.12-25.175-9.12-40.185 0-15.01 3.04-28.31 9.12-39.9 6.08-11.78 14.345-20.995 24.795-27.645 10.64-6.84 22.61-10.26 35.91-10.26 7.41 0 14.44 1.235 21.09 3.705 6.84 2.47 12.92 5.7 18.24 9.69 5.506 3.99 9.786 8.455 12.826 13.395 3.23 4.75 4.84 9.595 4.84 14.535l-8.55.57V198.09h29.36V410.7h-29.36Zm-44.456-86.925c8.93 0 16.815-2.185 23.655-6.555 6.84-4.37 12.16-10.355 15.96-17.955 3.991-7.6 5.981-16.34 5.981-26.22 0-9.88-1.99-18.62-5.981-26.22-3.8-7.79-9.12-13.87-15.96-18.24-6.84-4.37-14.725-6.555-23.655-6.555-8.93 0-16.815 2.28-23.655 6.84-6.84 4.37-12.255 10.45-16.245 18.24-3.8 7.6-5.7 16.245-5.7 25.935 0 9.69 1.9 18.43 5.7 26.22 3.99 7.6 9.405 13.585 16.245 17.955 6.84 4.37 14.725 6.555 23.655 6.555Zm167.266 27.075c-10.64 0-19.95-2.47-27.93-7.41-7.79-4.94-13.87-11.875-18.24-20.805-4.18-8.93-6.27-19.57-6.27-31.92v-92.34h29.35v84.36c0 8.74 1.33 16.34 3.99 22.8 2.85 6.27 6.84 11.115 11.97 14.535 5.32 3.42 11.69 5.13 19.1 5.13 5.51 0 10.54-.855 15.1-2.565 4.56-1.9 8.46-4.465 11.69-7.695 3.42-3.23 6.08-7.125 7.98-11.685 1.9-4.56 2.85-9.5 2.85-14.82v-90.06h29.35V348h-29.35v-31.35l5.13-3.42c-2.28 7.03-6.18 13.395-11.69 19.095-5.32 5.7-11.68 10.26-19.09 13.68-7.41 3.23-15.39 4.845-23.94 4.845Zm124.96-2.85V198.375h29.35V348h-29.35Zm14.25-182.685c-6.27 0-11.12-1.615-14.54-4.845-3.42-3.23-5.13-7.79-5.13-13.68 0-5.51 1.71-9.975 5.13-13.395 3.61-3.42 8.46-5.13 14.54-5.13 6.27 0 11.11 1.615 14.53 4.845 3.42 3.23 5.13 7.79 5.13 13.68 0 5.51-1.8 9.975-5.41 13.395-3.42 3.42-8.17 5.13-14.25 5.13ZM1326.43 348V198.375h29.64V245.4l-2.85-11.4c2.09-7.22 5.6-13.775 10.54-19.665 5.13-5.89 10.93-10.545 17.39-13.965 6.65-3.42 13.49-5.13 20.52-5.13 3.23 0 6.27.285 9.12.855 3.04.57 5.41 1.235 7.12 1.995l-7.69 31.92c-2.28-.95-4.85-1.71-7.7-2.28-2.66-.76-5.32-1.14-7.98-1.14-5.13 0-10.07 1.045-14.82 3.135-4.56 1.9-8.64 4.655-12.25 8.265-3.42 3.42-6.18 7.505-8.27 12.255-2.09 4.56-3.13 9.595-3.13 15.105V348h-29.64Zm178.37 2.85c-15.39 0-29.07-3.23-41.04-9.69-11.78-6.65-21.09-15.675-27.93-27.075-6.65-11.4-9.98-24.51-9.98-39.33 0-11.78 1.9-22.515 5.7-32.205 3.8-9.69 9.03-18.05 15.68-25.08 6.84-7.22 14.91-12.73 24.22-16.53 9.5-3.99 19.76-5.985 30.78-5.985 9.69 0 18.72 1.9 27.08 5.7 8.36 3.61 15.58 8.645 21.66 15.105 6.27 6.46 11.02 14.155 14.25 23.085 3.42 8.74 5.03 18.335 4.84 28.785l-.28 12.54h-122.27l-6.55-23.37h103.45l-4.27 4.845v-6.84c-.57-6.27-2.66-11.875-6.27-16.815-3.61-4.94-8.17-8.835-13.68-11.685-5.51-2.85-11.5-4.275-17.96-4.275-10.26 0-18.9 1.995-25.93 5.985-7.03 3.8-12.35 9.5-15.96 17.1-3.61 7.41-5.42 16.625-5.42 27.645 0 10.45 2.19 19.57 6.56 27.36 4.37 7.6 10.54 13.49 18.52 17.67 7.98 4.18 17.2 6.27 27.65 6.27 7.41 0 14.25-1.235 20.52-3.705 6.46-2.47 13.39-6.935 20.8-13.395l14.82 20.805c-4.56 4.56-10.16 8.55-16.81 11.97-6.46 3.42-13.4 6.175-20.81 8.265-7.22 1.9-14.34 2.85-21.37 2.85Zm103.15-2.85-9.41-23.37 60.99-68.685c3.23-3.42 6.56-7.315 9.98-11.685 3.61-4.56 7.03-9.215 10.26-13.965 3.23-4.75 5.79-9.405 7.69-13.965 2.09-4.75 3.14-9.215 3.14-13.395 0-6.08-1.24-11.21-3.71-15.39-2.28-4.37-5.7-7.695-10.26-9.975-4.37-2.28-9.69-3.42-15.96-3.42-5.51 0-10.92 1.615-16.24 4.845-5.32 3.23-10.17 7.79-14.54 13.68-4.37 5.89-7.79 12.73-10.26 20.52l-23.65-14.82c3.23-11.02 8.07-20.425 14.53-28.215 6.65-7.98 14.54-14.06 23.66-18.24 9.31-4.18 19.38-6.27 30.21-6.27 11.21 0 21.18 2.375 29.92 7.125 8.74 4.56 15.58 11.02 20.52 19.38 4.94 8.17 7.41 17.67 7.41 28.5 0 4.37-.47 8.835-1.42 13.395-.95 4.56-2.47 9.31-4.56 14.25-2.09 4.75-4.75 9.785-7.98 15.105-3.23 5.13-7.13 10.545-11.69 16.245-4.37 5.7-9.4 11.685-15.1 17.955l-45.32 49.305-5.7-8.55h98.04V348h-120.55Zm217.13 65.55c-10.64 0-21.28-1.71-31.92-5.13-10.45-3.23-18.91-7.505-25.37-12.825l10.83-22.8c3.8 2.85 8.27 5.32 13.4 7.41 5.13 2.28 10.54 3.99 16.24 5.13 5.7 1.33 11.31 1.995 16.82 1.995 10.45 0 19.19-1.71 26.22-5.13 7.03-3.42 12.35-8.455 15.96-15.105 3.61-6.65 5.41-14.915 5.41-24.795v-28.785l3.14 1.995c-.95 5.89-4.09 11.59-9.41 17.1-5.13 5.32-11.59 9.69-19.38 13.11-7.79 3.42-15.77 5.13-23.94 5.13-14.25 0-26.98-3.325-38.19-9.975-11.02-6.84-19.76-16.055-26.22-27.645-6.46-11.78-9.69-25.175-9.69-40.185 0-15.01 3.14-28.31 9.41-39.9 6.46-11.78 15.2-20.995 26.22-27.645 11.21-6.84 23.75-10.26 37.62-10.26 5.7 0 11.21.76 16.53 2.28 5.32 1.33 10.26 3.325 14.82 5.985 4.56 2.47 8.64 5.225 12.25 8.265 3.61 3.04 6.56 6.27 8.84 9.69 2.28 3.42 3.7 6.65 4.27 9.69l-6.27 2.28v-35.055h29.36V338.88c0 11.97-1.81 22.515-5.42 31.635-3.42 9.31-8.45 17.1-15.1 23.37-6.65 6.46-14.73 11.305-24.23 14.535-9.5 3.42-20.23 5.13-32.2 5.13Zm1.14-89.775c9.31 0 17.57-2.185 24.79-6.555 7.22-4.37 12.83-10.355 16.82-17.955 3.99-7.6 5.98-16.34 5.98-26.22 0-9.88-2.09-18.62-6.27-26.22-3.99-7.79-9.59-13.87-16.81-18.24-7.03-4.37-15.2-6.555-24.51-6.555-9.12 0-17.29 2.28-24.51 6.84-7.03 4.37-12.64 10.45-16.82 18.24-3.99 7.6-5.98 16.245-5.98 25.935 0 9.69 1.99 18.43 5.98 26.22 4.18 7.6 9.79 13.585 16.82 17.955 7.22 4.37 15.39 6.555 24.51 6.555Zm184.22 27.075c-14.63 0-27.74-3.325-39.33-9.975-11.4-6.84-20.42-16.055-27.07-27.645-6.65-11.78-9.98-25.175-9.98-40.185 0-15.01 3.33-28.31 9.98-39.9 6.65-11.78 15.67-20.995 27.07-27.645 11.59-6.84 24.7-10.26 39.33-10.26 14.44 0 27.36 3.42 38.76 10.26 11.59 6.65 20.71 15.865 27.36 27.645 6.65 11.59 9.98 24.89 9.98 39.9 0 15.01-3.33 28.405-9.98 40.185-6.65 11.59-15.77 20.805-27.36 27.645-11.4 6.65-24.32 9.975-38.76 9.975Zm0-26.79c8.93 0 16.91-2.185 23.94-6.555 7.03-4.56 12.54-10.64 16.53-18.24 3.99-7.79 5.89-16.53 5.7-26.22.19-9.88-1.71-18.62-5.7-26.22-3.99-7.79-9.5-13.87-16.53-18.24-7.03-4.37-15.01-6.555-23.94-6.555-8.93 0-17 2.28-24.22 6.84-7.03 4.37-12.54 10.45-16.53 18.24-3.99 7.6-5.89 16.245-5.7 25.935-.19 9.69 1.71 18.43 5.7 26.22 3.99 7.6 9.5 13.68 16.53 18.24 7.22 4.37 15.29 6.555 24.22 6.555Z"
        fill="#3F3F3F" />
</svg>