<svg xmlns="http://www.w3.org/2000/svg" viewBox="0 0 1040 360" class="fill-current w-20 text-gray-700 md:w-24">
    <title>AD+Sign Logo</title>
    <path d="M131.8,63.3H83.1L8,272.4H52l13.7-39.8h83.2l13.7,39.8h44.3ZM77.1,199.2l30.2-87.4,30.2,87.4Z"></path>
    <path
        d="M601.7,212a59.7,59.7,0,0,1-8.6,31.1c-5.8,9.6-14.3,17.2-25.5,22.9s-24.4,8.5-39.8,8.5-27.6-2.5-39.3-7.4-20.9-12.2-27.7-21.6a52.5,52.5,0,0,1-8.5-18.4,63.8,63.8,0,0,1-1.9-14.8h44.8c.7,8.6,3.7,15.4,9.1,20.3s13.1,7.5,22.6,7.5,17.5-2.3,23.1-7a22.8,22.8,0,0,0,8.4-18.4,21.5,21.5,0,0,0-5.7-15.3,41.9,41.9,0,0,0-14.2-9.4,245.2,245.2,0,0,0-23.5-7.6c-6.3-1.8-12.1-3.7-17.2-5.6V151.3H459a42.5,42.5,0,0,1-6.7-16.1,66,66,0,0,1-1.3-13.8,64.1,64.1,0,0,1,1.3-13.4,52.7,52.7,0,0,1,8-19c6.1-9.1,14.8-16.1,26-21s23.9-7.4,38.2-7.4c21.6,0,39.1,5.3,52.6,15.7s20.8,25.1,22.2,43.9h-46a23.9,23.9,0,0,0-9.2-17.8c-5.6-4.7-13.1-7-22.5-7s-14.7,2-19.6,6.2-7.4,10.3-7.4,18.3a19,19,0,0,0,5.6,13.9,41.1,41.1,0,0,0,13.7,8.9c5.5,2.3,13.3,5,23.2,8,13.6,4,24.7,7.9,33.2,12a58.6,58.6,0,0,1,22.2,17.9C598.7,188.6,601.7,199,601.7,212Z">
    </path>
    <path
        d="M619.2,106.7V272.4h41.9V106.7Zm39.7-61.8c-4.9-4.7-11-7-18.4-7s-13.6,2.3-18.4,7a23.4,23.4,0,0,0-7.4,17.5,23.1,23.1,0,0,0,7.4,17.5c4.8,4.7,11,7.1,18.4,7.1a25.5,25.5,0,0,0,18.4-7.1,23,23,0,0,0,7.3-17.5A23.3,23.3,0,0,0,658.9,44.9Z">
    </path>
    <path
        d="M809.6,106.7v23.6a61,61,0,0,0-22.2-19c-9.3-4.8-20.2-7.3-32.5-7.3a72.5,72.5,0,0,0-38.5,10.5c-11.4,7-20.5,16.9-27.2,29.9s-10,27.8-10,44.6,3.3,31.9,10,45,15.8,23.2,27.4,30.3a70.8,70.8,0,0,0,38.3,10.8q18.1,0,32.4-7.8a62.4,62.4,0,0,0,22.3-19.4v25.8q0,22.1-11.4,33c-7.6,7.2-17.4,10.9-29.6,10.9-10.3,0-19.2-2.3-26.5-6.7s-12-10.6-14.2-18.1H686.3c2,18.9,10.6,33.9,25.6,44.9s34.4,16.4,57.9,16.4c17.5,0,32.5-3.5,44.9-10.6a69.1,69.1,0,0,0,27.8-28.7q9.3-18.2,9.3-41.1v-167Zm-6,109a41.6,41.6,0,0,1-16.2,16.8,42.6,42.6,0,0,1-21.8,5.8,41.2,41.2,0,0,1-21.3-5.9,44.8,44.8,0,0,1-16.2-17.2c-4.1-7.5-6.2-16.3-6.2-26.2s2.1-18.6,6.2-25.9a42,42,0,0,1,16-16.6,43.6,43.6,0,0,1,43.3.1,41.6,41.6,0,0,1,16.2,16.8c4,7.3,6,16,6,26.2S807.6,208.5,803.6,215.7Z">
    </path>
    <path
        d="M1013.8,123c-12.2-12.5-28.1-18.7-47.9-18.7a67.6,67.6,0,0,0-28.6,6.1A57.6,57.6,0,0,0,916,127.3V106.7H874.1V272.4H916V180.9c0-13.2,3.3-23.3,10-30.4s15.8-10.6,27.4-10.6,20.3,3.6,26.9,10.6,9.8,17.2,9.8,30.4v91.5H1032V175.2Q1032,141.8,1013.8,123Z">
    </path>
    <polygon
        points="488.7 160.4 488.7 189.7 443.3 189.7 443.3 236.4 411.5 236.4 411.5 189.7 366.1 189.7 366.1 160.4 411.5 160.4 411.5 113.7 443.3 113.7 443.3 160.4 488.7 160.4">
    </polygon>
    <path
        d="M402,198.8a15.5,15.5,0,0,1-.7,2.3c-.6,2.3-1.3,4.5-2.1,6.7l-1.5,4a91,91,0,0,1-13.2,22.5,93.4,93.4,0,0,1-31.1,25.3q-24.9,12.8-57.8,12.8h-73V63.6h73a134.8,134.8,0,0,1,38,5.1l3.5,1,3.3,1.2,5,1.9,4.9,2.1,3.1,1.6,3.1,1.6,5.9,3.6,2.8,1.9c1.9,1.3,3.6,2.7,5.4,4.1l5,4.4a83.8,83.8,0,0,1,8.9,9.9,88.1,88.1,0,0,1,7.6,11.2,94,94,0,0,1,5.6,11.5l1.5,4.1c.4,1.1.8,2.2,1.1,3.3a62.3,62.3,0,0,1,2.2,7.7v.2a102.5,102.5,0,0,1,2.1,11.3H361.5c-.1-.2-.1-.4-.2-.6a25.3,25.3,0,0,0-.7-3.8,3.6,3.6,0,0,1-.2-1l-1.2-4.2-.3-.9c-.4-1.3-.9-2.5-1.4-3.7v-.3a37.3,37.3,0,0,0-1.6-3.5.3.3,0,0,0-.1-.2l-1-2a10.9,10.9,0,0,0-.8-1.5c-.3-.7-.8-1.4-1.2-2.2a52.3,52.3,0,0,0-4-5.6l-1.7-2.1-1.7-1.8c-.2-.2-.3-.4-.5-.5a61.3,61.3,0,0,0-7.2-6.3h-.1a48.6,48.6,0,0,0-5.3-3.5c-10.4-5.8-23.1-8.7-38.2-8.7H264.5V236.8h29.6c15.1,0,27.8-2.8,38.2-8.4,1.8-1.1,3.6-2.2,5.3-3.4h.1a46.6,46.6,0,0,0,4.9-3.9l2.3-2.2,2.1-2.2h.1a61.2,61.2,0,0,0,3.9-5,55.9,55.9,0,0,0,6.8-12.8Z">
    </path>
</svg>