<svg width="166" height="32" viewBox="0 0 166 32" fill="none" xmlns="http://www.w3.org/2000/svg">
<path d="M47.888 29.672C48.008 30.9213 47.0173 32 45.7627 32H37.3333C37.3333 24.636 31.364 18.6667 24 18.6667C16.636 18.6667 10.6667 24.636 10.6667 32H2.23733C0.982667 32 -0.00799999 30.9213 0.112 29.672C1.28133 17.5093 11.5307 8 24 8C36.4693 8 46.7187 17.5093 47.888 29.672ZM24 21.3333C18.1093 21.3333 13.3333 26.1093 13.3333 32H18.6667C18.6667 29.0547 21.0547 26.6667 24 26.6667C26.9453 26.6667 29.3333 29.0547 29.3333 32H34.6667C34.6667 26.1093 29.8907 21.3333 24 21.3333ZM26.6667 32C26.6667 30.5267 25.4733 29.3333 24 29.3333C22.5267 29.3333 21.3333 30.5267 21.3333 32H26.6667ZM45.8667 0H2.13333C0.954667 0 0 0.954667 0 2.13333V20.3667C4.32133 11.468 13.444 5.33333 24 5.33333C34.556 5.33333 43.6787 11.468 48 20.3667V2.13333C48 0.954667 47.0453 0 45.8667 0Z" fill="#262626"/>
<path d="M110.226 29C108.179 29 106.425 28.6462 104.959 27.9417C103.492 27.2156 102.294 26.2711 101.362 25.1082C100.433 23.9268 99.7397 22.6593 99.2844 21.3087C98.8505 19.9396 98.6335 18.6136 98.6335 17.3246V16.6385C98.6335 15.2295 98.8627 13.8389 99.3149 12.4698C99.7702 11.0792 100.464 9.824 101.393 8.70414C102.343 7.58429 103.532 6.69209 104.956 6.02756C106.401 5.34149 108.106 5 110.071 5C112.035 5 113.927 5.38457 115.494 6.1537C117.065 6.92283 118.315 7.99039 119.243 9.35944C120.102 10.5778 120.64 11.9868 120.857 13.5928C120.894 13.8696 120.68 14.1188 120.399 14.1188H116.182C115.968 14.1188 115.782 13.9712 115.736 13.765C115.568 13.0051 115.259 12.3437 114.81 11.7868C114.293 11.1438 113.621 10.6454 112.796 10.2947C111.99 9.94091 111.082 9.76555 110.071 9.76555C109.059 9.76555 108.161 9.94399 107.373 10.2947C106.587 10.6485 105.927 11.1469 105.389 11.7868C104.873 12.4298 104.47 13.1959 104.182 14.0881C103.914 14.9587 103.779 15.934 103.779 17.0138C103.779 18.0937 103.914 19.0474 104.182 19.9396C104.47 20.8103 104.885 21.5794 105.423 22.2409C105.979 22.8839 106.664 23.3823 107.47 23.733C108.277 24.0653 109.194 24.2314 110.226 24.2314C111.797 24.2314 113.12 23.8468 114.193 23.0777C115.192 22.3762 115.827 21.4348 116.105 20.2534C116.154 20.0473 116.341 19.9027 116.552 19.9027H120.729C121.016 19.9027 121.23 20.1611 121.184 20.4442C120.945 21.8963 120.414 23.2407 119.586 24.4806C118.675 25.8496 117.425 26.948 115.837 27.7817C114.266 28.5908 112.396 28.9939 110.226 28.9939V29Z" fill="#262626"/>
<path d="M146.426 28.9356C144.009 28.9356 142.118 28.4372 140.755 27.4435C139.523 26.5451 138.815 25.3145 138.628 23.7578C138.595 23.484 138.812 23.2409 139.087 23.2409H142.628C142.83 23.2409 143.001 23.3763 143.068 23.567C143.212 23.9793 143.505 24.3577 143.948 24.7054C144.525 25.1207 145.384 25.3268 146.521 25.3268C147.389 25.3268 148.101 25.1822 148.66 24.893C149.237 24.5823 149.527 24.1454 149.527 23.5855C149.527 23.0871 149.311 22.6933 148.877 22.4041C148.443 22.0934 147.67 21.875 146.551 21.7488L145.219 21.6258C143.172 21.4196 141.632 20.8474 140.602 19.9152C139.591 18.983 139.083 17.7863 139.083 16.3372C139.083 15.1343 139.383 14.1283 139.982 13.3161C140.584 12.5069 141.409 11.8947 142.46 11.4794C143.535 11.064 144.752 10.8579 146.114 10.8579C148.305 10.8579 150.071 11.3471 151.416 12.3223C152.632 13.1868 153.323 14.4051 153.488 15.9834C153.515 16.2541 153.301 16.4941 153.026 16.4941H149.485C149.28 16.4941 149.106 16.3557 149.042 16.1588C148.907 15.7465 148.644 15.3896 148.253 15.0912C147.758 14.6974 147.022 14.5005 146.053 14.5005C145.289 14.5005 144.678 14.6451 144.226 14.9343C143.771 15.2235 143.545 15.6204 143.545 16.1157C143.545 16.611 143.74 16.9556 144.134 17.2048C144.525 17.454 145.167 17.6294 146.056 17.734L147.389 17.857C149.476 18.0847 151.098 18.6661 152.256 19.6014C153.414 20.5336 153.992 21.7888 153.992 23.3671C153.992 24.5085 153.683 25.5053 153.063 26.3544C152.443 27.185 151.563 27.828 150.429 28.2864C149.292 28.7202 147.96 28.9417 146.432 28.9417V28.9356H146.426Z" fill="#262626"/>
<path d="M71.1759 5.68896H63.6256C63.4269 5.68896 63.2497 5.81818 63.1886 6.00585L56.0232 27.803C55.9255 28.1015 56.1485 28.4091 56.4602 28.4091H60.5669C60.7686 28.4091 60.9458 28.2799 61.0069 28.0892L62.6967 22.776H72.1476L73.8801 28.0922C73.9412 28.283 74.1184 28.4091 74.3171 28.4091H78.6071C78.9218 28.4091 79.1449 28.0984 79.0441 27.8L71.6098 6.00277C71.5456 5.8151 71.3715 5.68896 71.1729 5.68896H71.1759ZM64.0442 18.5427L66.8034 9.86074H67.937L70.7665 18.5427H64.0411H64.0442Z" fill="#262626"/>
<path d="M161.041 21.9365C161.041 22.7457 161.246 23.3702 161.661 23.804C162.095 24.2193 162.703 24.4254 163.488 24.4254H165.539C165.792 24.4254 166 24.6316 166 24.8869V28.1665C166 28.4219 165.792 28.628 165.539 28.628H163.614C161.899 28.628 160.515 28.4218 159.461 28.0065C158.407 27.5727 157.634 26.8559 157.136 25.8591C156.662 24.8408 156.424 23.4717 156.424 21.7489V14.9928H154.545C154.291 14.9928 154.083 14.7867 154.083 14.5313V11.8117C154.083 11.5563 154.291 11.3502 154.545 11.3502H156.424V7.20611C156.424 6.95076 156.632 6.74463 156.885 6.74463H160.579C160.833 6.74463 161.041 6.95076 161.041 7.20611V11.3502H164.616C164.869 11.3502 165.077 11.5563 165.077 11.8117V14.5313C165.077 14.7867 164.869 14.9928 164.616 14.9928H161.041V21.9334V21.9365Z" fill="#262626"/>
<path d="M96.9285 27.9446V6.15044C96.9285 5.89509 96.7207 5.68896 96.4671 5.68896H92.4001C92.1465 5.68896 91.9387 5.89509 91.9387 6.15044V13.6972C91.4254 12.8665 90.7746 12.2174 89.9862 11.7559C88.9932 11.156 87.8168 10.8544 86.454 10.8544C85.2562 10.8544 84.1714 11.0821 83.1998 11.5405C82.2281 11.9743 81.3909 12.5988 80.6881 13.408C80.0067 14.1956 79.4811 15.1185 79.1083 16.1768C78.7569 17.2352 78.5797 18.3766 78.5797 19.601V20.3148C78.5797 21.5392 78.7661 22.6806 79.1358 23.739C79.5269 24.7973 80.0861 25.7202 80.8103 26.5078C81.5345 27.277 82.3809 27.8769 83.3525 28.3107C84.3456 28.7445 85.4395 28.966 86.6373 28.966C87.9818 28.966 89.1673 28.6768 90.2001 28.0953C90.9304 27.6708 91.5476 27.1108 92.061 26.4186V27.9446C92.061 28.1999 92.2687 28.4061 92.5224 28.4061H96.4671C96.7207 28.4061 96.9285 28.1999 96.9285 27.9446ZM91.4743 22.776C91.1015 23.4405 90.5943 23.9482 89.9557 24.302C89.3354 24.6342 88.6448 24.8004 87.8779 24.8004C87.0529 24.8004 86.3103 24.6035 85.6442 24.2097C84.9842 23.8159 84.4678 23.2529 84.095 22.5299C83.7223 21.8038 83.5389 20.9424 83.5389 19.9487C83.5389 18.9549 83.7253 18.1212 84.095 17.3952C84.4678 16.6476 84.9751 16.0661 85.6137 15.6508C86.2737 15.217 87.0192 14.9955 87.8473 14.9955C88.5898 14.9955 89.2834 15.1616 89.9251 15.4939C90.5668 15.8261 91.0832 16.303 91.4743 16.9275C91.8654 17.549 92.064 18.3181 92.064 19.2288V20.3794C92.064 21.3116 91.8685 22.1145 91.4743 22.776Z" fill="#262626"/>
<path d="M136.914 28.4064C137.168 28.4064 137.375 28.2003 137.375 27.9449V17.9524C137.375 16.3741 137.067 15.0881 136.446 14.0944C135.826 13.0761 134.916 12.3162 133.721 11.8208C132.545 11.3224 131.087 11.0732 129.351 11.0732C128.753 11.0732 128.111 11.0825 127.429 11.104C126.748 11.1255 126.085 11.1563 125.446 11.1963C124.988 11.2271 124.569 11.2548 124.197 11.2855C123.958 11.304 123.775 11.504 123.775 11.747V15.0327C123.775 15.2973 123.998 15.5096 124.261 15.4942C124.771 15.4634 125.321 15.4327 125.911 15.4019C126.696 15.3619 127.46 15.3281 128.203 15.3096C128.945 15.2881 129.547 15.2789 129.999 15.2789C130.91 15.2789 131.57 15.4973 131.982 15.9342C132.395 16.3679 132.603 17.0232 132.603 17.8939V17.9585H129.535C128.025 17.9585 126.693 18.1554 125.538 18.5492C124.38 18.9245 123.482 19.5152 122.84 20.3244C122.198 21.1119 121.877 22.1272 121.877 23.3732C121.877 24.5146 122.137 25.5022 122.654 26.3297C123.17 27.1389 123.885 27.7634 124.792 28.1972C125.721 28.631 126.797 28.8525 128.016 28.8525C129.235 28.8525 130.186 28.6341 130.992 28.1972C131.646 27.8526 132.184 27.385 132.606 26.8066V27.9511C132.606 28.2064 132.813 28.4125 133.067 28.4125H136.917L136.914 28.4064ZM130.992 25.1084C130.558 25.2991 130.063 25.3914 129.504 25.3914C128.636 25.3914 127.964 25.1853 127.491 24.7699C127.035 24.3362 126.809 23.7731 126.809 23.0902C126.809 22.3641 127.038 21.7949 127.491 21.3796C127.964 20.9458 128.639 20.7243 129.504 20.7243H132.603V22.0934C132.563 22.9456 132.398 23.607 132.108 24.0839C131.817 24.5607 131.448 24.9022 130.992 25.1114V25.1084Z" fill="#262626"/>
</svg>
