<?xml version="1.0" encoding="UTF-8"?> <svg xmlns="http://www.w3.org/2000/svg" width="161" height="30" viewBox="0 0 161 30" fill="none"> <path fill-rule="evenodd" clip-rule="evenodd" d="M71.4056 10.8018C70.1449 9.73504 68.5931 9.05616 66.7505 9.05616C62.9681 9.15314 59.7677 12.2566 59.7677 16.1359C59.7677 20.0152 62.9681 23.2156 66.8475 23.2156C70.7268 23.2156 73.9272 20.0152 73.9272 16.1359V6.43762H71.4056V10.8018ZM66.8475 20.7911C64.3259 20.7911 62.1923 18.7544 62.1923 16.1359C62.1923 13.5174 64.2289 11.4807 66.8475 11.4807C69.466 11.4807 71.4056 13.6143 71.4056 16.1359C71.4056 18.6574 69.369 20.7911 66.8475 20.7911ZM143.352 6.43762H140.927V17.1057C140.927 20.4031 143.643 23.2156 147.037 23.2156V20.7911C145 20.7911 143.352 19.1424 143.352 17.1057V11.76H147.037V9.33547H143.352V6.43762ZM44.2505 16.136C44.2505 12.2567 47.4509 9.15321 51.3302 9.15321C55.1126 9.15321 58.313 12.2567 58.41 16.136V22.9248H55.9854V21.47C54.7246 22.5368 53.0759 23.2157 51.3302 23.2157C47.4509 23.2157 44.2505 20.0153 44.2505 16.136ZM46.6751 16.136C46.6751 18.7545 48.8087 20.7911 51.3302 20.7911C53.8518 20.7911 55.8884 18.6575 55.8884 16.136C55.8884 13.6144 53.9488 11.4808 51.3302 11.4808C48.7117 11.4808 46.6751 13.5174 46.6751 16.136ZM105.641 9.15321C101.761 9.15321 98.561 12.2567 98.561 16.136C98.561 20.0153 101.761 23.2157 105.641 23.2157C107.483 23.2157 109.229 22.5368 110.587 21.1791L108.841 19.4334C107.968 20.3062 106.805 20.7911 105.641 20.7911C103.507 20.7911 101.761 19.3364 101.18 17.3967H112.623V16.136C112.623 12.2567 109.423 9.15321 105.641 9.15321ZM101.18 14.9722C101.664 13.0325 103.507 11.5778 105.641 11.5778C107.774 11.5778 109.52 13.0325 110.102 14.9722H101.18ZM135.64 10.3169H138.065V22.9247H135.64V10.3169ZM138.065 6.43762H135.64V8.37728H138.065V6.43762ZM130.353 6.43762H132.778V22.9247H130.353V6.43762ZM158.428 9.34713V16.1359C158.428 18.1726 156.779 19.8213 154.742 19.8213C152.706 19.8213 151.057 18.1726 151.057 16.1359V9.34713H148.729V16.1359C148.729 19.4333 151.445 22.2458 154.839 22.2458C156.1 22.2458 157.264 21.8579 158.331 21.179C157.846 22.6338 156.488 23.7006 154.839 23.7006H152.9V26.1251H154.839C158.137 26.1251 160.949 23.4096 160.949 20.0152V16.1359V9.34713H158.428ZM91.3343 22.9248V15.1661C91.3343 11.8687 94.0498 9.15321 97.4442 9.15321V11.4808C95.4076 11.4808 93.7589 13.1295 93.7589 15.1661V22.9248H91.3343ZM86.9229 10.8018C85.6621 9.73504 84.1104 9.05616 82.2677 9.05616C78.4854 9.15314 75.2849 12.2566 75.2849 16.1359C75.2849 20.0152 78.4854 23.2156 82.3647 23.2156C86.244 23.2156 89.4444 20.0152 89.4444 16.1359V6.43762H86.9229V10.8018ZM82.3647 20.7911C79.8431 20.7911 77.7095 18.7544 77.7095 16.1359C77.7095 13.5174 79.7461 11.4807 82.3647 11.4807C84.9832 11.4807 86.9229 13.6143 86.9229 16.1359C86.9229 18.6574 84.8862 20.7911 82.3647 20.7911ZM113.867 16.136C113.867 12.2567 117.067 9.15321 120.946 9.15321C124.729 9.15321 127.929 12.2567 128.026 16.136V22.9248H125.602V21.47C124.341 22.5368 122.692 23.2157 120.946 23.2157C117.067 23.2157 113.867 20.0153 113.867 16.136ZM116.291 16.136C116.291 18.7545 118.425 20.7911 120.946 20.7911C123.468 20.7911 125.505 18.6575 125.505 16.136C125.505 13.6144 123.565 11.4808 120.946 11.4808C118.328 11.4808 116.291 13.5174 116.291 16.136Z" fill="black"></path> <path fill-rule="evenodd" clip-rule="evenodd" d="M3.29021 8.67692C4.61614 6.42574 5.2791 5.30016 5.85756 4.58569C10.8079 -1.52856 20.1296 -1.52856 25.0799 4.58569C25.6584 5.30016 26.3214 6.42575 27.6473 8.67693C29.0088 10.9886 29.6898 12.1447 30.037 13.0088C33.0141 20.4173 28.3031 28.6655 20.4122 29.8606C19.4918 30 18.1508 30 15.4688 30C12.7867 30 11.4457 30 10.5253 29.8606C2.63436 28.6655 -2.07657 20.4173 0.900486 13.0088C1.24772 12.1447 1.92857 10.9887 3.29021 8.67692Z" fill="#48E4B7"></path> <path d="M13.6492 14.0708C14.2463 13.0413 14.5448 12.5265 14.9345 12.3538C15.2745 12.2031 15.6627 12.2031 16.0026 12.3538C16.3924 12.5265 16.6909 13.0413 17.288 14.0708L17.8186 14.9858C18.4157 16.0153 18.7142 16.5301 18.6696 16.9525C18.6307 17.3209 18.4366 17.6556 18.1355 17.8734C17.7904 18.123 17.1933 18.123 15.9992 18.123H14.9379C13.7438 18.123 13.1468 18.123 12.8016 17.8734C12.5006 17.6556 12.3065 17.3209 12.2676 16.9525C12.223 16.5301 12.5215 16.0153 13.1186 14.9858L13.6492 14.0708Z" fill="white"></path> <path fill-rule="evenodd" clip-rule="evenodd" d="M9.69943 7.18976C9.10682 7.82423 8.48158 8.88897 7.23108 11.0185C5.96011 13.1828 5.32463 14.265 5.05934 15.0973C3.66306 19.4779 6.33231 24.1096 10.8357 25.1204C11.6913 25.3125 12.9505 25.3125 15.4688 25.3125C17.987 25.3125 19.2462 25.3125 20.1018 25.1204C24.6052 24.1096 27.2744 19.4779 25.8782 15.0973C25.6129 14.265 24.9774 13.1828 23.7064 11.0185C22.4559 8.88897 21.8307 7.82423 21.2381 7.18976C18.1219 3.85341 12.8156 3.85341 9.69943 7.18976ZM11.4133 22.5701C11.9053 22.6805 12.7732 22.6982 15.4688 22.6982C18.1643 22.6982 19.0322 22.6805 19.5242 22.5701C22.5265 21.8962 24.306 18.8084 23.3751 15.888C23.2226 15.4094 22.7998 14.6546 21.4394 12.3379C20.1008 10.0584 19.6559 9.33502 19.315 8.97002C17.2375 6.74579 13.7 6.74579 11.6225 8.97002C11.2816 9.33502 10.8367 10.0584 9.49813 12.3379C8.13768 14.6546 7.71492 15.4094 7.56238 15.888C6.63153 18.8084 8.41103 21.8962 11.4133 22.5701Z" fill="white"></path> </svg> 