<svg width="82" height="27" viewBox="0 0 82 27" fill="none" xmlns="http://www.w3.org/2000/svg">
<path d="M20.2915 0H6.81865C3.07147 0 0.033783 3.03291 0.033783 6.77419V20.2258C0.033783 23.9671 3.07147 27 6.81865 27H20.2915C24.0386 27 27.0763 23.9671 27.0763 20.2258V6.77419C27.0763 3.03291 24.0386 0 20.2915 0Z" fill="url(#paint0_linear)"/>
<path d="M7.57483 9.6592C7.67822 9.32371 7.86778 9.11297 8.1435 9.02697C8.51003 8.92973 8.88879 8.88627 9.26785 8.89797C9.65758 8.88578 10.0471 8.92922 10.4245 9.02697C10.7044 9.11297 10.8961 9.32371 10.9996 9.6592L13.5973 18.0722C13.5979 18.0837 13.5959 18.0952 13.5914 18.1058C13.5869 18.1164 13.58 18.1258 13.5712 18.1333C13.5625 18.1407 13.5521 18.1461 13.5409 18.149C13.5297 18.1518 13.518 18.152 13.5067 18.1496H11.8138C11.7767 18.1528 11.7395 18.1429 11.7089 18.1217C11.6782 18.1005 11.6559 18.0693 11.6458 18.0335L10.9609 15.8012C10.953 15.7631 10.9317 15.7292 10.9008 15.7055C10.87 15.6818 10.8316 15.67 10.7928 15.6722H7.7558C7.71525 15.6711 7.67574 15.685 7.64477 15.7112C7.6138 15.7373 7.59354 15.7739 7.58782 15.814L6.90284 18.0205C6.895 18.0585 6.87372 18.0925 6.84289 18.1162C6.81205 18.1399 6.77372 18.1517 6.73487 18.1496H5.05474C4.98573 18.1496 4.95142 18.1237 4.95142 18.0722L7.57483 9.6592ZM9.42294 10.8076C9.40785 10.7432 9.38619 10.6805 9.35828 10.6206C9.34896 10.6053 9.33554 10.593 9.31955 10.585C9.30357 10.577 9.28565 10.5737 9.26785 10.5754C9.22456 10.5754 9.17716 10.6528 9.12566 10.8076L8.22104 13.7495C8.22176 13.7628 8.21955 13.776 8.21455 13.7883C8.2104 13.7962 8.20821 13.8051 8.20815 13.8141C8.2072 13.8273 8.20934 13.8406 8.2144 13.8529C8.21946 13.8652 8.2273 13.8762 8.23732 13.8849C8.24733 13.8937 8.25924 13.9 8.2721 13.9034C8.28497 13.9067 8.29845 13.9071 8.31148 13.9044H10.2371C10.2502 13.9071 10.2636 13.9067 10.2765 13.9033C10.2894 13.9 10.3013 13.8937 10.3113 13.8849C10.3213 13.8762 10.3292 13.8652 10.3342 13.8529C10.3393 13.8406 10.3415 13.8274 10.3405 13.8141C10.3404 13.8051 10.3382 13.7963 10.334 13.7883C10.329 13.776 10.3267 13.7628 10.3276 13.7495L9.42294 10.8076ZM14.7215 18.0205V9.02707C14.719 9.00954 14.7207 8.99167 14.7263 8.97488C14.7319 8.95808 14.7413 8.94283 14.7539 8.93031C14.7664 8.9178 14.7817 8.90837 14.7986 8.90277C14.8154 8.89718 14.8333 8.89557 14.8508 8.89807H19.2578C19.6728 8.88462 20.085 8.97006 20.4603 9.14732C20.8356 9.32458 21.1632 9.58856 21.416 9.91739C21.6518 10.2251 21.8252 10.5757 21.9265 10.9497C22.0334 11.3319 22.0878 11.727 22.088 12.1238V15.2206C22.086 15.5687 22.0315 15.9145 21.9265 16.2464C21.8198 16.5927 21.6464 16.9149 21.416 17.1948C21.1756 17.4848 20.876 17.7201 20.5372 17.8851C20.1415 18.0707 19.7078 18.1613 19.2707 18.1497H14.8508C14.8333 18.1522 14.8154 18.1506 14.7985 18.145C14.7817 18.1394 14.7664 18.1299 14.7538 18.1174C14.7413 18.1049 14.7319 18.0896 14.7262 18.0728C14.7206 18.056 14.719 18.0381 14.7215 18.0206V18.0205ZM16.5955 16.3431C16.593 16.3606 16.5946 16.3785 16.6002 16.3953C16.6058 16.4121 16.6153 16.4273 16.6278 16.4399C16.6403 16.4524 16.6556 16.4618 16.6724 16.4674C16.6893 16.473 16.7072 16.4746 16.7247 16.4721H19.0381C19.1849 16.4698 19.3289 16.4322 19.458 16.3625C19.6 16.2896 19.7288 16.1937 19.8393 16.0786C19.9496 15.9647 20.0412 15.834 20.1107 15.6915C20.1778 15.5572 20.2132 15.4093 20.2141 15.2592V11.8269C20.2128 11.6671 20.1729 11.51 20.0978 11.3689C20.0214 11.2201 19.921 11.085 19.8005 10.9689C19.6806 10.8535 19.5432 10.7576 19.3934 10.685C19.2508 10.6139 19.0939 10.5764 18.9345 10.5754H16.7246C16.7071 10.5729 16.6892 10.5745 16.6724 10.5801C16.6556 10.5857 16.6403 10.5951 16.6277 10.6076C16.6152 10.6202 16.6058 10.6354 16.6002 10.6522C16.5945 10.669 16.5929 10.6868 16.5954 10.7044V16.3431H16.5955Z" fill="white"/>
<path d="M30.7256 10.3282C30.7169 10.0824 30.7703 9.83841 30.8807 9.61857C30.9782 9.43566 31.1204 9.28031 31.2942 9.16692C31.4739 9.05218 31.6732 8.97127 31.8822 8.92818C32.1052 8.88063 32.3327 8.85685 32.5607 8.85725C32.8636 8.85213 33.1663 8.87373 33.4654 8.92179C33.6825 8.95703 33.8834 9.05844 34.0405 9.21212C34.2139 9.40464 34.3361 9.63757 34.3958 9.88954C34.5039 10.2932 34.5902 10.7024 34.6543 11.1153L35.3522 15.3863C35.3607 15.4208 35.3715 15.4767 35.3846 15.554C35.3976 15.6323 35.4149 15.7098 35.4362 15.7863L35.5008 15.9927C35.5028 16.0112 35.5091 16.029 35.5192 16.0447C35.5293 16.0604 35.5429 16.0735 35.5589 16.0831C35.5755 16.0735 35.5899 16.0605 35.601 16.0449C35.6122 16.0293 35.6198 16.0115 35.6235 15.9927C35.6514 15.926 35.673 15.8569 35.6881 15.7863C35.7053 15.7089 35.7225 15.6336 35.7398 15.5605C35.7519 15.5161 35.7605 15.4708 35.7657 15.425L36.4377 11.0637C36.4946 10.6606 36.5788 10.2619 36.6897 9.87018C36.7529 9.622 36.8773 9.39355 37.0516 9.20563C37.2142 9.05361 37.4193 8.95461 37.6396 8.92179C37.9473 8.87386 38.2586 8.85227 38.5701 8.85725C39.1128 8.85725 39.5566 8.96476 39.9012 9.17979C40.2459 9.39483 40.4182 9.76473 40.4182 10.2895V17.9799C40.4207 17.9974 40.419 18.0152 40.4134 18.032C40.4078 18.0488 40.3984 18.0641 40.3858 18.0766C40.3733 18.0891 40.358 18.0985 40.3412 18.1041C40.3244 18.1097 40.3065 18.1113 40.289 18.1089H38.6736C38.656 18.1114 38.6381 18.1098 38.6213 18.1042C38.6045 18.0986 38.5892 18.0891 38.5767 18.0766C38.5641 18.0641 38.5547 18.0488 38.5491 18.032C38.5435 18.0152 38.5419 17.9974 38.5444 17.9799V10.9476C38.5421 10.9108 38.5378 10.8742 38.5314 10.8379C38.5319 10.8273 38.5303 10.8167 38.5267 10.8067C38.523 10.7967 38.5175 10.7875 38.5102 10.7797C38.503 10.7719 38.4943 10.7656 38.4846 10.7612C38.4749 10.7568 38.4645 10.7544 38.4538 10.754C38.4352 10.7528 38.4165 10.7563 38.3996 10.7642C38.3826 10.7721 38.3679 10.7841 38.3569 10.7992C38.335 10.8299 38.3156 10.8622 38.2988 10.896C38.2842 10.9335 38.2734 10.9724 38.2665 11.0121C38.2536 11.0724 38.2406 11.1369 38.2277 11.2057C38.2148 11.2744 38.2019 11.3432 38.1889 11.4121C38.176 11.4811 38.1652 11.5327 38.1566 11.5669C38.1049 11.7821 38.0553 12.0079 38.008 12.2443C37.9606 12.4808 37.8938 12.7948 37.8076 13.1862C37.7214 13.5779 37.6159 14.0768 37.4911 14.683C37.3662 15.2894 37.2004 16.0657 36.9935 17.0121C36.9674 17.1503 36.924 17.2847 36.8642 17.4121C36.8026 17.5428 36.7172 17.661 36.6122 17.7605C36.4873 17.8738 36.3398 17.9596 36.1794 18.0121C35.9581 18.0826 35.7265 18.1153 35.4944 18.1089C35.286 18.1154 35.0781 18.0848 34.8804 18.0186C34.7366 17.9674 34.6031 17.8909 34.4863 17.7926C34.3881 17.7092 34.3088 17.6058 34.2537 17.4894C34.205 17.3857 34.166 17.2778 34.1374 17.1669L32.8451 11.0249C32.8264 10.9766 32.8113 10.927 32.7998 10.8765C32.7979 10.8488 32.7892 10.822 32.7746 10.7984C32.76 10.7748 32.7398 10.7551 32.7158 10.7411H32.6511C32.6166 10.7411 32.5995 10.7712 32.5995 10.8313V17.9798C32.602 17.9973 32.6003 18.0151 32.5947 18.0319C32.5891 18.0487 32.5797 18.064 32.5671 18.0765C32.5546 18.089 32.5393 18.0984 32.5225 18.104C32.5057 18.1096 32.4878 18.1112 32.4703 18.1088H30.8548C30.8372 18.1113 30.8193 18.1097 30.8025 18.1041C30.7857 18.0985 30.7704 18.089 30.7579 18.0765C30.7453 18.064 30.7359 18.0487 30.7303 18.0319C30.7247 18.0151 30.7231 17.9973 30.7256 17.9798V10.3281V10.3282ZM44.1659 9.61857C44.2693 9.28308 44.4588 9.07231 44.7345 8.98625C45.101 8.88906 45.4798 8.8456 45.8589 8.85725C46.2486 8.84511 46.6381 8.88854 47.0156 8.98625C47.2954 9.07237 47.4871 9.28315 47.5906 9.61857L50.1883 18.0314C50.189 18.0429 50.187 18.0544 50.1825 18.065C50.1779 18.0756 50.171 18.085 50.1623 18.0925C50.1535 18.1 50.1432 18.1054 50.132 18.1082C50.1208 18.1111 50.1091 18.1113 50.0978 18.1089H48.4048C48.3677 18.1121 48.3305 18.1022 48.2999 18.081C48.2692 18.0598 48.2469 18.0286 48.2369 17.9927L47.5519 15.7604C47.544 15.7224 47.5227 15.6885 47.4919 15.6648C47.461 15.6412 47.4227 15.6293 47.3839 15.6314H44.3468C44.3063 15.6305 44.2668 15.6444 44.2358 15.6706C44.2048 15.6967 44.1846 15.7333 44.1788 15.7734L43.4938 17.9799C43.486 18.0179 43.4647 18.0518 43.4339 18.0755C43.403 18.0992 43.3647 18.111 43.3259 18.1089H41.6459C41.5768 18.1089 41.5425 18.083 41.5425 18.0314L44.1659 9.61857ZM46.0139 10.7669C45.9989 10.7025 45.9773 10.6398 45.9494 10.5798C45.94 10.5646 45.9266 10.5523 45.9106 10.5443C45.8946 10.5364 45.8767 10.533 45.8589 10.5346C45.8156 10.5346 45.7682 10.6121 45.7168 10.7669L44.812 13.7088C44.8127 13.722 44.8106 13.7352 44.8056 13.7475C44.8014 13.7555 44.7992 13.7644 44.7992 13.7734C44.7982 13.7866 44.8003 13.7999 44.8054 13.8122C44.8105 13.8245 44.8183 13.8355 44.8283 13.8442C44.8384 13.853 44.8503 13.8593 44.8632 13.8627C44.8761 13.866 44.8895 13.8664 44.9026 13.8637H46.8281C46.8412 13.8664 46.8546 13.866 46.8675 13.8627C46.8804 13.8593 46.8923 13.853 46.9024 13.8442C46.9124 13.8355 46.9202 13.8245 46.9253 13.8122C46.9304 13.7999 46.9325 13.7866 46.9315 13.7734C46.9314 13.7644 46.9292 13.7555 46.9251 13.7475C46.92 13.7353 46.9178 13.722 46.9187 13.7088L46.0139 10.7669ZM53.7293 14.2637C53.4399 14.2612 53.1516 14.2266 52.8699 14.1605C52.5651 14.0923 52.28 13.9555 52.0363 13.7605C51.889 13.6392 51.7643 13.4928 51.668 13.3282C51.5672 13.1567 51.4849 12.9751 51.4225 12.7863C51.3579 12.5929 51.3103 12.3944 51.2803 12.1928C51.2503 11.9942 51.2352 11.7936 51.2351 11.5928V11.3475C51.2351 11.2694 51.2437 11.1915 51.2609 11.1153C51.321 10.3669 51.601 9.78625 52.1009 9.37334C52.2693 9.23881 52.4512 9.12206 52.6437 9.02496C52.8381 8.91868 53.0554 8.86112 53.277 8.85725H57.5547C57.5723 8.85478 57.5901 8.85642 57.6069 8.86203C57.6237 8.86764 57.639 8.87707 57.6515 8.88958C57.6641 8.90208 57.6735 8.91733 57.6791 8.9341C57.6848 8.95088 57.6864 8.96873 57.6839 8.98625V10.4056C57.6864 10.4232 57.6848 10.441 57.6792 10.4578C57.6736 10.4746 57.6642 10.4899 57.6516 10.5024C57.6391 10.5149 57.6238 10.5243 57.607 10.5299C57.5902 10.5355 57.5723 10.5371 57.5547 10.5346H53.8197C53.7564 10.5364 53.6942 10.5517 53.6374 10.5795C53.5805 10.6073 53.5303 10.647 53.4902 10.696C53.4037 10.7853 53.3318 10.8876 53.277 10.9991C53.2355 11.0797 53.2092 11.1672 53.1994 11.2572C53.1908 11.3434 53.1865 11.4294 53.1865 11.5153C53.1868 11.6577 53.1954 11.7998 53.2124 11.9411C53.2291 12.0863 53.2925 12.2222 53.3933 12.3282C53.5009 12.4286 53.6404 12.488 53.7875 12.496C53.97 12.5139 54.1533 12.5226 54.3368 12.5218H55.7842C56.0676 12.524 56.3497 12.5608 56.6242 12.6314C56.9238 12.7081 57.2022 12.8514 57.4384 13.0508C57.5867 13.1736 57.7115 13.3223 57.8067 13.4895C57.9075 13.6655 57.9897 13.8515 58.0522 14.0443C58.1176 14.2459 58.1631 14.4533 58.1879 14.6637C58.2132 14.8692 58.2262 15.076 58.2267 15.283V15.554C58.2271 15.6279 58.2184 15.7016 58.2008 15.7734C58.1318 16.5562 57.8561 17.1584 57.3738 17.5798C57.2063 17.7143 57.0267 17.833 56.8375 17.9347C56.6552 18.0426 56.4484 18.1026 56.2365 18.1089H51.5323C51.5147 18.1114 51.4968 18.1098 51.48 18.1042C51.4632 18.0986 51.4479 18.0891 51.4354 18.0766C51.4228 18.0641 51.4134 18.0488 51.4078 18.032C51.4022 18.0152 51.4006 17.9974 51.4031 17.9799V16.5605C51.4006 16.5429 51.4022 16.5251 51.4078 16.5083C51.4134 16.4915 51.4228 16.4762 51.4354 16.4637C51.4479 16.4512 51.4632 16.4418 51.48 16.4362C51.4968 16.4306 51.5147 16.429 51.5323 16.4315H55.6937C55.7607 16.4297 55.8263 16.4118 55.8848 16.3792C55.9433 16.3466 55.993 16.3003 56.0297 16.2443C56.1126 16.1394 56.1821 16.0245 56.2365 15.9024C56.2769 15.8169 56.3031 15.7254 56.3141 15.6314L56.3269 15.3605C56.3265 15.216 56.3178 15.0717 56.3011 14.9282C56.2836 14.7775 56.2205 14.6357 56.1202 14.5217C56.0204 14.4196 55.892 14.3499 55.7519 14.3218C55.5674 14.2804 55.3787 14.2609 55.1897 14.2637H53.7293ZM63.4608 17.9799C63.4632 17.9974 63.4616 18.0152 63.456 18.032C63.4504 18.0488 63.441 18.0641 63.4284 18.0766C63.4159 18.0891 63.4006 18.0985 63.3838 18.1041C63.367 18.1097 63.3491 18.1113 63.3316 18.1089H61.716C61.6984 18.1114 61.6805 18.1098 61.6637 18.1042C61.6469 18.0986 61.6316 18.0891 61.6191 18.0766C61.6065 18.0641 61.5971 18.0488 61.5915 18.032C61.5859 18.0152 61.5843 17.9974 61.5868 17.9799V10.6637C61.5893 10.6462 61.5876 10.6283 61.582 10.6115C61.5764 10.5947 61.567 10.5795 61.5544 10.5669C61.5419 10.5544 61.5266 10.545 61.5098 10.5394C61.4929 10.5338 61.475 10.5321 61.4575 10.5346H59.351C59.3334 10.5371 59.3155 10.5355 59.2987 10.5299C59.2819 10.5243 59.2666 10.5149 59.2541 10.5024C59.2415 10.4899 59.2321 10.4746 59.2265 10.4578C59.2209 10.441 59.2192 10.4232 59.2218 10.4056V8.98625C59.2193 8.96873 59.2209 8.95087 59.2265 8.93408C59.2321 8.9173 59.2416 8.90204 59.2541 8.88953C59.2666 8.87702 59.2819 8.86759 59.2987 8.86198C59.3155 8.85638 59.3334 8.85476 59.351 8.85725H65.6965C65.714 8.85478 65.7319 8.85642 65.7487 8.86203C65.7655 8.86764 65.7808 8.87707 65.7933 8.88958C65.8058 8.90208 65.8153 8.91733 65.8209 8.9341C65.8265 8.95088 65.8281 8.96873 65.8257 8.98625V10.4056C65.8282 10.4232 65.8266 10.441 65.821 10.4578C65.8154 10.4746 65.8059 10.4899 65.7934 10.5024C65.7808 10.5149 65.7656 10.5243 65.7487 10.5299C65.7319 10.5355 65.714 10.5371 65.6965 10.5346H63.5899C63.5723 10.5321 63.5544 10.5338 63.5376 10.5394C63.5208 10.545 63.5055 10.5544 63.493 10.5669C63.4804 10.5795 63.471 10.5947 63.4654 10.6115C63.4598 10.6283 63.4581 10.6462 63.4607 10.6637V17.9799H63.4608ZM66.9114 10.8314C66.9114 10.2465 67.0707 9.77128 67.3895 9.40566C67.7083 9.04005 68.1692 8.85725 68.7723 8.85725H73.1534C73.2652 8.85725 73.3212 8.90025 73.3214 8.98625V10.4056C73.3239 10.4232 73.3223 10.441 73.3167 10.4578C73.3111 10.4746 73.3017 10.4899 73.2891 10.5024C73.2766 10.5149 73.2613 10.5243 73.2445 10.5299C73.2277 10.5355 73.2098 10.5371 73.1922 10.5346H68.9143C68.8958 10.5329 68.8771 10.5355 68.8597 10.5423C68.8424 10.549 68.8268 10.5597 68.8143 10.5735C68.8018 10.5872 68.7926 10.6037 68.7876 10.6216C68.7825 10.6395 68.7817 10.6583 68.7851 10.6766V12.4314C68.7826 12.4489 68.7842 12.4668 68.7898 12.4836C68.7954 12.5004 68.8049 12.5157 68.8174 12.5282C68.8299 12.5408 68.8452 12.5502 68.862 12.5558C68.8789 12.5614 68.8968 12.563 68.9143 12.5605H72.8819C72.8995 12.558 72.9174 12.5596 72.9342 12.5652C72.951 12.5708 72.9663 12.5803 72.9788 12.5928C72.9913 12.6053 73.0008 12.6206 73.0064 12.6373C73.012 12.6541 73.0136 12.672 73.0111 12.6895V14.1733C73.0137 14.1909 73.012 14.2087 73.0064 14.2255C73.0008 14.2423 72.9914 14.2576 72.9789 14.2701C72.9663 14.2826 72.951 14.2921 72.9342 14.2977C72.9174 14.3033 72.8995 14.3049 72.8819 14.3024H68.9143C68.8968 14.2999 68.8789 14.3015 68.8621 14.3071C68.8453 14.3127 68.83 14.3222 68.8174 14.3347C68.8049 14.3472 68.7954 14.3625 68.7898 14.3792C68.7842 14.396 68.7826 14.4139 68.7851 14.4314V16.3024C68.7826 16.3199 68.7842 16.3378 68.7898 16.3546C68.7954 16.3714 68.8049 16.3867 68.8174 16.3992C68.8299 16.4117 68.8452 16.4212 68.862 16.4268C68.8789 16.4324 68.8968 16.434 68.9143 16.4315H73.1921C73.2097 16.429 73.2275 16.4306 73.2444 16.4362C73.2612 16.4418 73.2764 16.4512 73.289 16.4638C73.3015 16.4763 73.311 16.4915 73.3166 16.5083C73.3222 16.5251 73.3238 16.5429 73.3213 16.5605V17.9799C73.3238 17.9974 73.3222 18.0152 73.3166 18.032C73.311 18.0488 73.3015 18.0641 73.289 18.0766C73.2764 18.0891 73.2612 18.0985 73.2444 18.1041C73.2275 18.1097 73.2097 18.1113 73.1921 18.1089H68.1907C68.0279 18.1069 67.868 18.0648 67.7254 17.9862C67.5707 17.9049 67.4309 17.798 67.3119 17.6702C67.1921 17.5427 67.0939 17.3967 67.0211 17.2379C66.9496 17.0865 66.9121 16.9214 66.9113 16.754V10.8314H66.9114ZM74.8334 8.85725H79.6409C79.8849 8.85784 80.1264 8.90606 80.3518 8.99921C80.6118 9.11322 80.8451 9.2802 81.0367 9.48947C81.4244 9.89386 81.6312 10.5046 81.657 11.3218V11.6185C81.657 12.3756 81.5666 12.9261 81.3856 13.2701C81.2708 13.4349 81.1457 13.5922 81.0109 13.7411C80.8577 13.9011 80.6785 14.0341 80.481 14.1346C80.4694 14.1468 80.4586 14.1597 80.4487 14.1733C80.4353 14.1921 80.4285 14.2148 80.4293 14.2379C80.4294 14.2559 80.4339 14.2736 80.4422 14.2895C80.6096 14.4972 80.7506 14.7247 80.8622 14.9669C80.944 15.1604 81.0194 15.3604 81.0884 15.5669L81.7992 17.7476C81.8164 17.8167 81.8496 17.8807 81.8961 17.9347C81.9282 17.965 81.9526 18.0026 81.9672 18.0443C81.9676 18.0541 81.9658 18.0638 81.9619 18.0727C81.9579 18.0816 81.952 18.0895 81.9445 18.0958C81.9369 18.102 81.9281 18.1065 81.9186 18.1087C81.9091 18.111 81.8992 18.111 81.8896 18.1089H80.1062C80.0696 18.1009 80.0353 18.0845 80.0061 18.0609C79.977 18.0374 79.9537 18.0074 79.9382 17.9734C79.8885 17.9043 79.8493 17.8282 79.8219 17.7476L79.0206 15.4895C78.9 15.0078 78.6544 14.7411 78.284 14.6895H76.7073C76.6897 14.687 76.6718 14.6886 76.655 14.6942C76.6382 14.6998 76.6229 14.7093 76.6103 14.7218C76.5978 14.7343 76.5883 14.7495 76.5827 14.7663C76.5771 14.7831 76.5755 14.801 76.578 14.8185V17.9799C76.5805 17.9974 76.5789 18.0152 76.5733 18.032C76.5676 18.0488 76.5582 18.0641 76.5457 18.0766C76.5331 18.0891 76.5178 18.0986 76.501 18.1042C76.4842 18.1098 76.4663 18.1114 76.4488 18.1089H74.8333C74.8157 18.1114 74.7978 18.1098 74.781 18.1042C74.7642 18.0986 74.7489 18.0891 74.7364 18.0766C74.7238 18.0641 74.7144 18.0488 74.7088 18.032C74.7032 18.0152 74.7016 17.9974 74.7041 17.9799V8.98625C74.7016 8.96873 74.7032 8.95087 74.7088 8.93408C74.7144 8.9173 74.7239 8.90204 74.7364 8.88953C74.7489 8.87702 74.7642 8.86759 74.781 8.86198C74.7978 8.85638 74.8157 8.85476 74.8333 8.85725H74.8334ZM76.7074 10.5346C76.6898 10.5321 76.6719 10.5337 76.655 10.5393C76.6382 10.5449 76.6229 10.5544 76.6104 10.5669C76.5978 10.5794 76.5884 10.5947 76.5828 10.6115C76.5772 10.6283 76.5755 10.6462 76.5781 10.6637V12.7669C76.5763 12.7854 76.5789 12.8041 76.5857 12.8215C76.5924 12.8388 76.6031 12.8543 76.6169 12.8669C76.6307 12.8794 76.6472 12.8885 76.6651 12.8936C76.6831 12.8986 76.7019 12.8994 76.7202 12.8959H79.0594C79.2097 12.8834 79.3512 12.8197 79.4601 12.7153C79.5926 12.5932 79.6887 12.4369 79.7379 12.2637C79.8048 12.0508 79.8375 11.8287 79.8348 11.6056C79.8355 11.4957 79.829 11.3857 79.8154 11.2766C79.8031 11.1801 79.7748 11.0863 79.7315 10.9991C79.5935 10.7153 79.4298 10.5604 79.2403 10.5346H76.7073H76.7074Z" fill="#444A50"/>
<defs>
<linearGradient id="paint0_linear" x1="0.0337827" y1="4.04719" x2="27.0483" y2="22.9928" gradientUnits="userSpaceOnUse">
<stop stop-color="#2B85E4"/>
<stop offset="1" stop-color="#5CADFF"/>
</linearGradient>
</defs>
</svg>
