<svg width="145" height="38" viewBox="0 0 145 38" fill="none" xmlns="http://www.w3.org/2000/svg">
<g clip-path="url(#clip0_592_2153)">
<path d="M47.1795 0H2.28682C1.02384 0 0 1.03931 0 2.32137V35.5824C0 36.8644 1.02384 37.9038 2.28682 37.9038H47.1795C48.4425 37.9038 49.4663 36.8644 49.4663 35.5824V2.32137C49.4663 1.03931 48.4425 0 47.1795 0Z" fill="#E7246E"/>
<path d="M26.8022 26.6608V11.1225C26.8022 8.56944 27.331 7.56128 29.5969 7.56128H35.5574C42.3873 7.56128 45.7412 11.2481 45.7412 18.9071C45.7412 23.1306 44.4379 26.315 42.1093 28.204C39.9366 29.9691 37.5148 30.2203 34.3168 30.2203H29.5969C27.331 30.2203 26.8022 29.2122 26.8022 26.6592V26.6608ZM31.3052 26.1257H34.9998C39.2536 26.1257 41.0535 24.0148 41.0535 18.9071C41.0535 13.7995 39.3468 11.5319 35.5574 11.5319H31.3036V26.1241L31.3052 26.1257Z" fill="white"/>
<path d="M76.4034 7.69663C80.6395 7.69663 83.3554 10.3328 83.3554 14.7537V27.124C83.3554 29.2725 82.4362 30.328 80.5576 30.328C78.679 30.328 77.7613 29.2333 77.7613 27.124V15.9299C77.7613 13.8206 76.5625 12.6444 74.6051 12.6444C72.4469 12.6444 71.0086 14.1452 71.0086 16.7407V27.1224C71.0086 29.2709 70.0492 30.3263 68.2107 30.3263C66.3722 30.3263 65.4546 29.2725 65.4546 27.1224V15.9691C65.4546 13.819 64.2959 12.6836 62.3787 12.6836C60.2205 12.6836 58.7822 14.1844 58.7822 16.7798V27.1208C58.7822 29.2692 57.8228 30.3247 55.9859 30.3247C54.1491 30.3247 53.1897 29.2709 53.1897 27.1208V11.2627C53.1897 9.1534 54.1491 8.018 55.867 8.018C57.4644 8.018 58.3836 8.95112 58.5829 10.7749C60.0614 8.70642 62.0188 7.65259 64.4567 7.65259C67.134 7.65259 68.9724 8.62649 70.369 10.8157C71.8474 8.74721 73.8852 7.69337 76.4018 7.69337L76.4034 7.69663Z" fill="#BBBBBB"/>
<path d="M97.332 25.6249C98.669 25.6249 99.7313 25.2253 100.519 24.5466C101.502 23.669 102.171 22.8696 103.391 22.8696C104.61 22.8696 105.594 23.7881 105.594 25.0246C105.594 25.9039 105.121 26.7832 104.217 27.6608C102.446 29.3786 99.8502 30.3362 96.8595 30.3362C90.9199 30.3362 87.0244 26.023 87.0244 18.8745C87.0244 11.7261 90.7608 7.6543 96.7791 7.6543C102.798 7.6543 106.77 11.7669 106.77 18.0768C106.77 20.4324 105.865 20.5124 103.781 20.5124H92.8065C92.9255 23.8272 94.5373 25.6233 97.3304 25.6233L97.332 25.6249ZM96.8997 12.408C94.4618 12.408 93.0444 13.9251 92.8081 16.7995H101.03C100.911 13.9251 99.495 12.408 96.8997 12.408Z" fill="#BBBBBB"/>
<path d="M118.805 27.16C118.805 29.2921 117.854 30.3378 116.031 30.3378C114.209 30.3378 113.298 29.2921 113.298 27.16V12.6379H112.07C110.563 12.6379 109.811 11.9528 109.811 10.6265C109.811 9.30024 110.563 8.61509 112.07 8.61509H113.298V5.79453C113.298 1.77169 115.239 0.00170898 119.559 0.00170898C121.977 0.00170898 123.125 0.807582 123.125 2.6575C123.125 3.86468 122.452 4.62814 121.421 4.62814C120.946 4.62814 120.51 4.5482 120.073 4.5482C119.043 4.5482 118.765 4.99029 118.765 6.2774V8.61509H120.51C122.016 8.61509 122.768 9.25783 122.768 10.6265C122.768 11.9952 122.016 12.6379 120.51 12.6379H118.805V27.16Z" fill="#BBBBBB"/>
<path d="M126.244 10.4616C126.244 8.89883 127.467 7.69654 129.047 7.69654C130.626 7.69654 131.417 8.53831 131.93 10.3018L135.761 23.4502L139.512 10.2218C139.986 8.49915 140.855 7.65576 142.236 7.65576C143.894 7.65576 145 8.61824 145 10.1419C145 10.5416 144.882 11.1044 144.645 11.7846L137.341 33.1908C136.235 36.4779 134.379 38.0016 131.338 38.0016C128.929 38.0016 127.745 37.3197 127.745 35.6362C127.745 34.1533 128.494 33.5921 130.114 33.3507C131.615 33.1501 132.325 32.7096 132.72 31.1468L132.957 30.3442L126.519 11.9445C126.321 11.4241 126.242 10.9021 126.242 10.4616H126.244Z" fill="#BBBBBB"/>
<path d="M8.22479 28.5694C8.04641 29.1322 7.77964 29.5481 7.42448 29.8189C7.06933 30.0897 6.60971 30.2252 6.04564 30.2252C5.40283 30.2252 4.88215 30.0424 4.48199 29.6754C4.08184 29.31 3.88257 28.8255 3.88257 28.2235C3.88257 28.0229 3.90025 27.8271 3.93399 27.6362C3.96774 27.4454 4.0256 27.2496 4.10434 27.049L10.1372 9.83526C10.4827 8.84179 10.8684 8.20231 11.2942 7.91683C11.7185 7.63135 12.4352 7.48779 13.4428 7.48779C14.4505 7.48779 15.0965 7.62319 15.5256 7.89399C15.9563 8.16479 16.3484 8.79122 16.7035 9.7749L22.8553 27.049C22.934 27.2496 22.9903 27.4454 23.0256 27.6362C23.0594 27.8271 23.0771 28.0229 23.0771 28.2235C23.0771 28.8157 22.8746 29.2969 22.4696 29.6689C22.0646 30.0408 21.5359 30.2252 20.8834 30.2252C20.3306 30.2252 19.8774 30.0914 19.5271 29.8271C19.1768 29.5612 18.9116 29.142 18.7348 28.571L13.4428 12.23L8.22479 28.571V28.5694Z" fill="white"/>
</g>
<defs>
<clipPath id="clip0_592_2153">
<rect width="145" height="38" fill="white"/>
</clipPath>
</defs>
</svg>
