<svg xmlns="http://www.w3.org/2000/svg" id="Capa_1" data-name="Capa 1" viewBox="0 0 800 200"><defs><style>.cls-1{fill:#689840;}</style></defs><title>admira-logo_green</title><path class="cls-1" d="M357.29,75.26a39.51,39.51,0,1,0,22.87,71.66v3.19h16.63V114.77A39.55,39.55,0,0,0,357.29,75.26Zm0,62.38a22.88,22.88,0,1,1,22.87-22.87A22.9,22.9,0,0,1,357.29,137.64Z"></path><path class="cls-1" d="M796,114.93a39.63,39.63,0,1,0-16.64,32.15v3H796V114.93Zm-39.59,22.71a22.79,22.79,0,1,1,22.79-22.79A22.82,22.82,0,0,1,756.43,137.64Z"></path><path class="cls-1" d="M471.65,82.61a39.51,39.51,0,1,0,0,64.31v3.19h16.63v-104H471.65Zm-22.88,55a22.88,22.88,0,1,1,22.88-22.87A22.9,22.9,0,0,1,448.77,137.64Z"></path><path class="cls-1" d="M662.94,113.2v36.91h16.57V113.2A21.49,21.49,0,0,1,701,91.74h7.77V75.17H701A38.07,38.07,0,0,0,662.94,113.2Z"></path><path class="cls-1" d="M581.82,75.26a32.83,32.83,0,0,0-22.87,9,32.83,32.83,0,0,0-22.87-9c-17.2,0-31.19,12.54-31.19,27.95v46.9h16.66v-46.9c0-5.75,6.92-10.61,14.53-10.61s14.58,4.86,14.58,10.61v46.9H567.3v-46.9c0-5.75,6.91-10.61,14.52-10.61s14.59,4.86,14.59,10.61v46.9H613v-46.9C613,87.8,599,75.26,581.82,75.26Z"></path><rect class="cls-1" x="629.67" y="83.58" width="16.63" height="66.54"></rect><circle class="cls-1" cx="637.99" cy="60.7" r="10.4"></circle><path class="cls-1" d="M213.31,59.13c-1,0-1.9.1-2.85.15a83,83,0,0,0-144,0c-1-.05-1.89-.15-2.85-.15A58.22,58.22,0,1,0,90.81,168.79a82.72,82.72,0,0,0,95.29,0A58.21,58.21,0,1,0,213.31,59.13Zm0,99.81a41.75,41.75,0,0,1-28.06-11,67.09,67.09,0,0,1-13.39,10.21,65.93,65.93,0,0,1-66.81,0A67.09,67.09,0,0,1,91.66,148,41.56,41.56,0,1,1,59,76a43.33,43.33,0,0,1,4.58-.26A41.39,41.39,0,0,1,76.11,77.7a66.43,66.43,0,0,1,124.69,0,41.39,41.39,0,0,1,12.51-1.93,43.33,43.33,0,0,1,4.58.26,41.58,41.58,0,0,1-4.58,82.91Z"></path></svg>