<svg xmlns="http://www.w3.org/2000/svg" viewBox="0 0 122.79 44.42"><defs><style>.f7f922c3-9957-41f0-8353-78569b701fdb{fill:#1d1d1b;}.eaf7d9af-55d9-43d6-a6d1-0769760bdf5d{fill:#e30613;}</style></defs><title>Aquaji-BLack-logo</title><g id="bb933c75-333a-4c4e-8026-6759775efe11" data-name="Calque 2"><g id="b41a5d34-9a41-45f8-b8f5-370240409cae" data-name="Calque 1"><path class="f7f922c3-9957-41f0-8353-78569b701fdb" d="M5.28,24.91C8.6,23.59,13,23.3,16.86,23v-.8c0-2.29-.35-3.67-1.32-4.82a6,6,0,0,0-4.65-1.66,13.21,13.21,0,0,0-5.16,1c-1.49.57-2.18,1.14-2.86,1.14a1.61,1.61,0,0,1-1.61-1.66c0-1.09,1.32-1.83,2.81-2.47a18.35,18.35,0,0,1,7.28-1.37c2.47,0,5.56.46,7.57,2.75,1.32,1.55,2.18,3.73,2.18,7V37.29a2.1,2.1,0,0,1-2.12,2,2.07,2.07,0,0,1-2.12-1.84A15.25,15.25,0,0,1,9.29,39.3C4.7,39.3,0,36.89,0,31.67c0-3.55,2.12-5.56,5.28-6.76m11.58,9.4V26.22a39.21,39.21,0,0,0-8.55,1c-2.49.63-4.4,1.92-4.35,4.27A4.23,4.23,0,0,0,6.75,35.3a12.47,12.47,0,0,0,10.11-1"/><path class="f7f922c3-9957-41f0-8353-78569b701fdb" d="M35.61,39a13.38,13.38,0,0,1,2.27-26.66A13.37,13.37,0,0,1,38.63,39c.19.3.88.5,1.72.76,3.36,1,6.46,2,8.83,2.6,1.45.38,2.4.5,2.4,1.26,0,.5-.34.77-1.07.77-1.75,0-8-2.26-14.33-4.36a.8.8,0,0,1-.61-.76.53.53,0,0,1,0-.27m1.56-25A11.68,11.68,0,1,0,48.68,25.76,11.66,11.66,0,0,0,37.17,14.07"/><path class="f7f922c3-9957-41f0-8353-78569b701fdb" d="M70.6,34.9a9.6,9.6,0,0,0,2.26-6.73V13.23a.92.92,0,0,1,.92-.88.89.89,0,0,1,.91.88V28.44a10.78,10.78,0,0,1-2.56,7.49c-1.87,2-4.7,3.18-8.29,3.18a10.86,10.86,0,0,1-8.26-3.18A10.78,10.78,0,0,1,53,28.44V13.23a.9.9,0,0,1,.92-.88.93.93,0,0,1,.92.88V28.17a9.6,9.6,0,0,0,2.25,6.73,8.94,8.94,0,0,0,6.73,2.56A9,9,0,0,0,70.6,34.9"/><path class="f7f922c3-9957-41f0-8353-78569b701fdb" d="M110.82,12.35a.9.9,0,0,0-.92.88V29.28a8.45,8.45,0,0,1-2,6,7.55,7.55,0,0,1-5.7,2.26c-1.64,0-4.46-.21-5.52-2l-.06-.09-9.11-22.2a1.22,1.22,0,0,0-1.22-.91,1.24,1.24,0,0,0-1.23.91L75,37.65a2.39,2.39,0,0,0-.16.61.78.78,0,0,0,.84.84c.54,0,.77-.27,1-.76l2.79-6.61h13.8s1.53,4.15,2.36,5.12c1.48,1.72,4.55,2.26,6.71,2.25,2.46,0,5-.54,6.84-2.52a10.06,10.06,0,0,0,2.6-7.22V13.23a.89.89,0,0,0-.91-.88M79.92,30.24,86.3,14.83l6.42,15.41Z"/><path class="f7f922c3-9957-41f0-8353-78569b701fdb" d="M119.74,12.36a2.25,2.25,0,0,1,1.94,2.21V37.29a2.13,2.13,0,0,1-4.25,0V14.36a2.07,2.07,0,0,1,2.31-2"/><rect class="eaf7d9af-55d9-43d6-a6d1-0769760bdf5d" x="116.2" width="6.59" height="6.8"/></g></g></svg>