<svg xmlns="http://www.w3.org/2000/svg" xmlns:xlink="http://www.w3.org/1999/xlink" id="b" viewBox="0 0 477.47 75"><defs><style>.e{fill:#3cc;}.e,.f,.g,.h{stroke-width:0px;}.f{fill:#000;}.g{fill:url(#d);}.h{fill:#338fcd;}</style><linearGradient id="d" x1="3.57" y1="3.66" x2="42.11" y2="44.32" gradientUnits="userSpaceOnUse"><stop offset=".2" stop-color="#134f8f"></stop><stop offset=".34" stop-color="#1f6da7"></stop><stop offset=".48" stop-color="#2e91c3"></stop><stop offset=".75" stop-color="#3cc"></stop></linearGradient></defs><g id="c"><path class="f" d="M83.22,28.6c0,9.87-5.11,16.25-13.54,16.25-4.4,0-7.41-1.86-9.39-4.87v4.15h-9.15V1.27h9.39v15.58c1.98-2.83,4.94-4.52,9.15-4.52,8.43,0,13.54,6.38,13.54,16.25h0ZM73.71,28.36c0-5.9-2.47-8.49-6.62-8.49s-6.68,2.83-6.68,8.73,2.47,8.73,6.68,8.73,6.62-3.07,6.62-8.97Z"></path><path class="f" d="M106.87,12.71v8.54h-2.4c-5.24,0-8.24,2.59-8.24,8.43v14.45h-9.39V13.07h9.15v5.78c1.32-3.85,4.21-6.26,8.85-6.26.72,0,1.39.06,2.05.12h0Z"></path><path class="f" d="M129.75,44.13c-.42-.78-.72-2.11-.78-3.49-1.98,2.65-5.36,4.21-9.93,4.21-6.5,0-11.32-3.31-11.32-9.51,0-5.36,3.19-8.9,12.16-9.69l4.87-.42c2.65-.3,4.03-1.08,4.03-3.07,0-1.86-1.02-3.13-4.75-3.13s-5.18.9-5.48,4.09h-9.33c.49-6.86,4.87-10.77,14.87-10.77s13.84,3.67,13.84,9.57v16.49c0,2.29.42,4.52,1.27,5.72h-9.45ZM128.79,31.91v-2.29c-.66.72-1.69,1.02-3.13,1.2l-3.85.42c-3.19.36-4.52,1.57-4.52,3.73s1.62,3.55,4.57,3.55c3.61,0,6.92-1.74,6.92-6.62h0Z"></path><path class="f" d="M172.51,23.78v20.34h-9.39v-18.48c0-3.43-1.51-5.3-4.99-5.3-2.89,0-5.9,1.86-5.9,6.44v17.34h-9.39V13.07h9.15v4.4c2.05-2.89,5.23-5.11,9.75-5.11,6.14,0,10.77,3.73,10.77,11.44h0Z"></path><path class="f" d="M208.08,1.27v42.85h-9.15v-4.03c-1.98,2.95-4.99,4.75-9.33,4.75-8.43,0-13.54-6.38-13.54-16.25s5.11-16.25,13.54-16.25c4.15,0,7.1,1.69,9.09,4.45V1.27h9.39ZM198.87,28.6c0-5.9-2.47-8.73-6.68-8.73s-6.62,3.07-6.62,8.97,2.47,8.49,6.62,8.49,6.68-2.83,6.68-8.73Z"></path><path class="f" d="M244.21,13.07l-11.08,31.06h-11.2l-11.07-31.06h10.11l1.62,4.69c1.69,5.96,3.49,12.28,5.18,18.36,1.69-6.08,3.49-12.4,5.18-18.36l1.62-4.69h9.63,0Z"></path><path class="f" d="M247.29,13.07h9.39v31.06h-9.39V13.07Z"></path><path class="f" d="M260.2,34.25h9.15c.36,3.37,2.05,4.52,5.96,4.52s5.23-1.15,5.23-3.01-1.15-2.77-5.36-3.43l-4.03-.66c-6.56-1.02-10.47-3.97-10.47-9.51,0-6.2,4.87-9.81,13.96-9.81,10.47,0,14.14,4.57,14.45,10.66h-8.73c-.12-3.37-2.35-4.4-5.72-4.4s-4.75,1.15-4.75,2.95,1.51,2.64,4.52,3.13l4.63.66c7.34,1.15,10.89,4.09,10.89,9.63,0,6.44-5.48,10.05-14.8,10.05s-14.38-3.07-14.92-10.77h0Z"></path><path class="f" d="M293.29,13.07h9.39v31.06h-9.39V13.07Z"></path><path class="f" d="M306.29,28.6c0-9.87,6.38-16.25,16.31-16.25s16.25,6.38,16.25,16.25-6.38,16.25-16.25,16.25-16.31-6.38-16.31-16.25ZM329.34,28.6c0-5.9-2.59-8.73-6.74-8.73s-6.8,2.83-6.8,8.73,2.59,8.73,6.8,8.73,6.74-2.83,6.74-8.73Z"></path><path class="f" d="M372.07,23.78v20.34h-9.39v-18.48c0-3.43-1.51-5.3-4.99-5.3-2.89,0-5.9,1.86-5.9,6.44v17.34h-9.39V13.07h9.15v4.4c2.05-2.89,5.23-5.11,9.75-5.11,6.14,0,10.77,3.73,10.77,11.44h0Z"></path><path class="f" d="M24.38,1.2C12.94,5.02,3.89,14.02,0,25.41V1.2h24.38Z"></path><path class="g" d="M43,5.65C21.71,5.65,4.45,22.92,4.45,44.21h38.55V5.65h0ZM27.58,35.1c-3.76,0-6.81-3.05-6.81-6.81s3.05-6.81,6.81-6.81,6.81,3.05,6.81,6.81-3.05,6.81-6.81,6.81Z"></path><circle class="h" cx="252" cy="4.99" r="4.99"></circle><circle class="e" cx="297.83" cy="5.07" r="5.07"></circle><path class="f" d="M414.08,1.6v42.52h-10.09v-17.2h-17.08v17.2h-10.09V1.6h10.09v16.25h17.08V1.6h10.09Z"></path><path class="f" d="M458.55,22.86c0,12.72-7.17,21.26-21.74,21.26h-17.44V1.6h17.44c14.57,0,21.74,8.54,21.74,21.26ZM448.04,22.86c0-8.84-4.48-12.72-11.4-12.72h-7.17v25.44h7.17c6.93,0,11.4-3.88,11.4-12.72h0Z"></path><path class="f" d="M294.71,54.84v6.6h.05c.15-.41.36-.78.64-1.09.28-.31.59-.57.95-.79s.74-.37,1.16-.48c.41-.1.84-.16,1.25-.16.88,0,1.64.17,2.29.49s1.19.77,1.62,1.33.75,1.2.96,1.94c.21.73.31,1.51.31,2.33s-.1,1.59-.31,2.33c-.21.73-.53,1.39-.96,1.94-.43.56-.97,1-1.62,1.31s-1.41.48-2.29.48c-.94,0-1.78-.22-2.51-.65-.73-.43-1.27-1.05-1.59-1.85h-.05v2.18h-1.29v-15.92h1.4v-.02ZM302.3,63.23c-.14-.59-.37-1.11-.67-1.57-.3-.46-.69-.84-1.17-1.12s-1.05-.44-1.72-.44c-.74,0-1.37.14-1.89.44-.51.29-.93.67-1.25,1.12-.32.46-.55.99-.69,1.57-.14.59-.22,1.18-.22,1.78s.07,1.19.22,1.78c.14.59.37,1.11.69,1.57.32.46.73.84,1.25,1.12.51.29,1.14.44,1.89.44.67,0,1.24-.14,1.72-.44.48-.29.87-.67,1.17-1.12.3-.46.53-.99.67-1.57.14-.59.22-1.18.22-1.78s-.07-1.19-.22-1.78Z"></path><path class="f" d="M306.31,59.26l3.79,9.81,3.54-9.81h1.4l-4.99,13.24c-.21.49-.4.89-.58,1.22-.18.32-.37.57-.59.76-.22.18-.47.32-.76.4-.29.08-.66.12-1.11.12-.28-.02-.5-.02-.66-.03-.16,0-.29-.03-.41-.08v-1.18c.17.03.33.06.48.08.16.02.32.03.48.03.31,0,.57-.05.77-.14s.37-.22.53-.37c.15-.16.28-.34.38-.57s.22-.47.33-.73l.49-1.29-4.59-11.46h1.5,0Z"></path><path class="f" d="M329.97,54.84c.72,0,1.36.1,1.94.3s1.08.5,1.5.89c.41.4.73.88.96,1.44s.33,1.2.33,1.92-.11,1.35-.33,1.92c-.22.57-.54,1.04-.96,1.44-.41.39-.92.69-1.5.89s-1.23.3-1.94.3h-5.55v6.82h-1.51v-15.92h7.07v-.02ZM329.63,62.64c1.06,0,1.91-.27,2.56-.8.65-.53.98-1.35.98-2.45s-.33-1.92-.98-2.45-1.51-.8-2.56-.8h-5.22v6.51h5.22Z"></path><path class="f" d="M336.97,54.84l3.62,13.94h.05l3.88-13.94h1.9l3.9,13.94h.05l3.63-13.94h1.51l-4.4,15.92h-1.61l-4.04-14.25h-.05l-4.01,14.25h-1.65l-4.41-15.92h1.63Z"></path><path class="f" d="M368.15,58.01c-.3-.49-.68-.89-1.11-1.22s-.92-.57-1.45-.75c-.53-.17-1.08-.25-1.66-.25-1.06,0-1.96.2-2.72.61-.76.4-1.38.93-1.86,1.59s-.84,1.41-1.07,2.24-.34,1.69-.34,2.56.11,1.71.34,2.56c.23.84.59,1.59,1.07,2.25.49.66,1.11,1.19,1.86,1.59s1.66.61,2.72.61c.74,0,1.41-.14,2.01-.4.6-.27,1.11-.63,1.54-1.09.43-.46.78-1,1.05-1.62.27-.61.44-1.28.51-2h1.51c-.1.98-.33,1.86-.69,2.65-.36.79-.82,1.46-1.39,2.01-.57.55-1.23.97-2,1.27-.76.29-1.62.45-2.56.45-1.25,0-2.34-.22-3.29-.68s-1.73-1.06-2.35-1.82-1.09-1.63-1.4-2.63-.47-2.05-.47-3.15.16-2.15.47-3.15.78-1.88,1.4-2.64,1.41-1.38,2.35-1.83c.95-.45,2.04-.68,3.29-.68.76,0,1.5.11,2.22.33s1.38.56,1.96,1c.59.44,1.08.98,1.47,1.62.39.64.65,1.38.75,2.21h-1.51c-.14-.61-.35-1.15-.66-1.64h.02Z"></path><path class="f" d="M372.89,61.04c.24-.49.56-.89.97-1.2.41-.31.88-.54,1.44-.69.55-.15,1.16-.22,1.83-.22.5,0,1.01.05,1.51.14s.96.28,1.36.55.72.65.98,1.12c.25.49.38,1.11.38,1.89v6.11c0,.57.28.84.83.84.17,0,.31-.03.45-.09v1.18c-.17.03-.31.06-.44.06s-.29.02-.48.02c-.36,0-.65-.05-.86-.14s-.38-.23-.5-.41c-.12-.18-.2-.39-.23-.64-.04-.25-.06-.52-.06-.81h-.05c-.25.37-.51.7-.77,1-.26.29-.55.53-.87.72s-.68.34-1.09.45-.89.16-1.46.16c-.53,0-1.04-.06-1.51-.19-.47-.13-.88-.33-1.23-.61s-.62-.62-.83-1.05c-.2-.42-.3-.92-.3-1.51,0-.8.18-1.43.53-1.89s.83-.8,1.42-1.04,1.25-.41,1.98-.5c.73-.1,1.48-.19,2.24-.28.29-.03.56-.06.78-.11s.41-.12.56-.23.26-.26.34-.45.12-.45.12-.76c0-.48-.08-.87-.23-1.17-.16-.3-.37-.55-.65-.72-.28-.18-.6-.3-.96-.37s-.76-.1-1.17-.1c-.89,0-1.62.22-2.18.64-.57.42-.86,1.11-.89,2.04h-1.4c.05-.67.18-1.25.42-1.74h0ZM379.91,64.47c-.09.17-.26.28-.51.36-.25.07-.48.13-.67.16-.6.1-1.21.2-1.84.28s-1.21.21-1.73.37c-.52.17-.95.4-1.28.7-.33.3-.5.74-.5,1.31,0,.36.07.67.22.95.14.28.33.51.57.72.24.2.51.35.83.45.31.1.63.16.96.16.53,0,1.05-.08,1.54-.25.49-.17.92-.4,1.28-.72s.65-.69.87-1.14.33-.95.33-1.51v-1.83h-.05,0Z"></path><path class="f" d="M385.46,59.26v1.94h.06c.37-.72.86-1.27,1.46-1.67.61-.4,1.37-.61,2.31-.61.76,0,1.44.18,2.06.56.61.37,1.03.94,1.23,1.7.34-.76.84-1.32,1.51-1.7.67-.37,1.39-.56,2.14-.56,2.54,0,3.81,1.35,3.81,4.04v7.8h-1.4v-7.74c0-.95-.2-1.67-.61-2.17s-1.11-.75-2.12-.75c-.61,0-1.11.11-1.51.34s-.72.54-.96.92c-.24.39-.41.83-.5,1.33s-.14,1.01-.14,1.55v6.51h-1.4v-7.8c0-.39-.04-.76-.12-1.11s-.22-.65-.4-.92-.44-.46-.75-.61c-.31-.15-.69-.22-1.14-.22-.6,0-1.11.11-1.55.33-.44.22-.8.51-1.07.89s-.48.83-.61,1.34c-.14.51-.2,1.08-.2,1.68v6.42h-1.4v-11.51h1.29,0Z"></path><path class="f" d="M404.03,59.26v2.18h.05c.33-.8.86-1.43,1.59-1.86.73-.44,1.57-.66,2.51-.66.88,0,1.64.17,2.29.49s1.19.77,1.62,1.33c.43.56.75,1.2.96,1.94.21.73.31,1.51.31,2.33s-.1,1.59-.31,2.33c-.21.73-.53,1.39-.96,1.94-.43.56-.97,1-1.62,1.31s-1.41.48-2.29.48c-.41,0-.84-.06-1.25-.16s-.8-.26-1.16-.47c-.36-.21-.67-.47-.95-.78-.28-.31-.49-.68-.64-1.09h-.05v6.42h-1.4v-15.74h1.3ZM411.74,63.24c-.14-.59-.37-1.11-.67-1.57-.3-.46-.69-.84-1.17-1.12s-1.05-.44-1.72-.44c-.77,0-1.42.14-1.94.4-.52.27-.94.62-1.25,1.07s-.53.96-.66,1.56c-.13.6-.19,1.22-.19,1.87,0,.6.07,1.19.22,1.78.14.59.37,1.11.69,1.57.32.46.73.84,1.25,1.12.51.29,1.14.44,1.89.44.67,0,1.24-.14,1.72-.44.48-.29.87-.67,1.17-1.12.3-.46.53-.99.67-1.57.14-.59.22-1.18.22-1.78s-.07-1.19-.22-1.78h0Z"></path><path class="f" d="M416.95,54.84v6.6h.05c.15-.41.36-.78.64-1.09s.59-.57.95-.79.74-.37,1.16-.48c.41-.1.84-.16,1.25-.16.88,0,1.64.17,2.29.49s1.19.77,1.62,1.33c.43.56.75,1.2.96,1.94.21.73.31,1.51.31,2.33s-.1,1.59-.31,2.33c-.21.73-.53,1.39-.96,1.94-.43.56-.97,1-1.62,1.31s-1.41.48-2.29.48c-.94,0-1.78-.22-2.51-.65-.73-.43-1.27-1.05-1.59-1.85h-.05v2.18h-1.29v-15.92h1.4v-.02ZM424.54,63.23c-.14-.59-.37-1.11-.67-1.57-.3-.46-.69-.84-1.17-1.12s-1.05-.44-1.72-.44c-.74,0-1.37.14-1.89.44-.51.29-.93.67-1.25,1.12-.32.46-.55.99-.69,1.57-.14.59-.22,1.18-.22,1.78s.07,1.19.22,1.78c.14.59.37,1.11.69,1.57.32.46.73.84,1.25,1.12.51.29,1.14.44,1.89.44.67,0,1.24-.14,1.72-.44.48-.29.87-.67,1.17-1.12.3-.46.53-.99.67-1.57.14-.59.22-1.18.22-1.78s-.07-1.19-.22-1.78Z"></path><path class="f" d="M429.38,66.96c.14.54.37,1.03.68,1.46.31.43.71.79,1.18,1.07.48.28,1.05.42,1.72.42,1.03,0,1.83-.27,2.4-.8.58-.53.98-1.25,1.2-2.14h1.4c-.29,1.31-.84,2.32-1.64,3.03s-1.92,1.07-3.38,1.07c-.91,0-1.69-.16-2.35-.48s-1.2-.76-1.62-1.31c-.41-.56-.72-1.2-.92-1.94-.2-.73-.3-1.51-.3-2.33,0-.76.1-1.51.3-2.23s.51-1.38.92-1.95c.41-.57.96-1.04,1.62-1.39.66-.35,1.45-.53,2.35-.53s1.71.18,2.37.56c.65.37,1.19.86,1.59,1.46s.7,1.29.88,2.07c.18.78.25,1.57.22,2.37h-8.86c0,.5.07,1.03.22,1.57v.03ZM436.34,62.66c-.17-.49-.41-.92-.72-1.31-.31-.38-.69-.68-1.14-.92s-.95-.34-1.51-.34-1.09.11-1.54.34-.83.53-1.14.92-.57.82-.75,1.31c-.18.5-.31,1-.37,1.53h7.45c-.02-.53-.11-1.05-.28-1.54Z"></path><path class="f" d="M441.34,54.84v15.92h-1.4v-15.92h1.4Z"></path><path class="f" d="M445.47,54.84v15.92h-1.4v-15.92h1.4Z"></path><path class="f" d="M477.47,10.53c0,4.47-3.51,7.98-8.07,7.98s-8.12-3.51-8.12-7.98,3.6-7.88,8.12-7.88,8.07,3.51,8.07,7.88ZM463.29,10.53c0,3.51,2.59,6.29,6.15,6.29s6.01-2.79,6.01-6.25-2.55-6.34-6.05-6.34-6.1,2.84-6.1,6.29ZM468.14,14.66h-1.83v-7.88c.72-.14,1.73-.24,3.03-.24,1.49,0,2.16.24,2.74.58.43.34.77.96.77,1.73,0,.87-.67,1.54-1.63,1.83v.1c.77.29,1.2.87,1.44,1.92.24,1.2.38,1.68.58,1.97h-1.97c-.24-.29-.38-1.01-.62-1.92-.14-.87-.62-1.25-1.63-1.25h-.87v3.17ZM468.19,10.2h.87c1.01,0,1.83-.34,1.83-1.15,0-.72-.53-1.2-1.68-1.2-.48,0-.82.05-1.01.1v2.26Z"></path></g></svg>