<?xml version="1.0" encoding="UTF-8"?>
<svg id="Canvas_Pro" xmlns="http://www.w3.org/2000/svg" version="1.1" viewBox="0 0 100 100">
  <!-- Generator: Adobe Illustrator 29.5.0, SVG Export Plug-In . SVG Version: 2.1.0 Build 137)  -->
  <g>
    <path d="M23.9486689.7141326l-22.4799277-.000114c-.2084329,0-.3971624.084513-.5337511.2211017s-.2210366.325253-.2209063.5335557v22.4802371c0,.3012832.1196861.5902559.3327273.8032971l21.8859591,21.8859591c.215728.215728.5403623.2803422.8223981.1634896.0931435-.0386252.1756861-.0946253.2444364-.1633756.1388359-.1388359.2213785-.3295682.2212808-.5337022l-.0001303-21.502068c0-.1053889.0427125-.2008284.1117884-.2699043s.1645154-.1117884.2699206-.1118047l21.5020517.0001466c.2042642,0,.3947198-.0820705.5335882-.2209389.0687829-.0687829.1247992-.1513744.1636198-.2449087.1167224-.2819055.0521082-.6065397-.1636198-.8222678L24.7522917,1.0470228c-.2131389-.2131389-.5022093-.3328901-.8036228-.3328901Z"/>
    <path d="M99.2858023,76.051266l.000114,22.4799277c0,.2084329-.084513.3971624-.2211017.5337511s-.325253.2210366-.5335557.2209063h-22.4802371c-.3012832,0-.5902559-.1196861-.8032971-.3327273l-21.8859591-21.8859591c-.215728-.215728-.2803422-.5403623-.1634896-.8223981.0386252-.0931435.0946253-.1756861.1633756-.2444364.1388359-.1388359.3295682-.2213785.5337022-.2212808l21.502068.0001303c.1053889,0,.2008284-.0427125.2699043-.1117884s.1117884-.1645154.1118047-.2699206l-.0001466-21.5020517c0-.2042642.0820705-.3947198.2209389-.5335882.0687829-.0687829.1513744-.1247992.2449087-.1636198.2819055-.1167224.6065397-.0521082.8222678.1636198l21.8858125,21.8858125c.2131389.2131389.3328901.5022093.3328901.8036228Z"/>
  </g>
  <g>
    <path d="M99.2858023,23.948734l.000114-22.4799277c0-.2084329-.084513-.3971624-.2211017-.5337511s-.325253-.2210366-.5335557-.2209063h-22.4802371c-.3012832,0-.5902559.1196861-.8032971.3327273l-21.8859591,21.8859591c-.215728.215728-.2803422.5403623-.1634896.8223981.0386252.0931435.0946253.1756861.1633756.2444364.1388359.1388359.3295682.2213785.5337022.2212808l21.502068-.0001303c.1053889,0,.2008284.0427125.2699043.1117884s.1117884.1645154.1118047.2699206l-.0001466,21.5020517c0,.2042642.0820705.3947198.2209389.5335882.0687829.0687829.1513744.1247992.2449087.1636198.2819055.1167224.6065397.0521082.8222678-.1636198l21.8858125-21.8858125c.2131389-.2131389.3328901-.5022093.3328901-.8036228Z"/>
    <path d="M23.9486689,99.2858674l-22.4799277.000114c-.2084329,0-.3971624-.084513-.5337511-.2211017s-.2210366-.325253-.2209063-.5335557v-22.4802371c0-.3012832.1196861-.5902559.3327273-.8032971l21.8859591-21.8859591c.215728-.215728.5403623-.2803422.8223981-.1634896.0931435.0386252.1756861.0946253.2444364.1633756.1388359.1388359.2213785.3295682.2212808.5337022l-.0001303,21.502068c0,.1053889.0427125.2008284.1117884.2699043s.1645154.1117884.2699206.1118047l21.5020517-.0001466c.2042642,0,.3947198.0820705.5335882.2209389.0687829.0687829.1247992.1513744.1636198.2449087.1167224.2819055.0521082.6065397-.1636198.8222678l-21.8858125,21.8858125c-.2131389.2131389-.5022093.3328901-.8036228.3328901Z"/>
  </g>
  <circle cx="49.9999349" cy="50" r="21.3090724"/>
</svg>