<?xml version="1.0" encoding="UTF-8"?><svg id="Layer_1" xmlns="http://www.w3.org/2000/svg" viewBox="0 0 500 175"><defs><style>.cls-1{fill:#555d70;}.cls-1,.cls-2,.cls-3,.cls-4{stroke-width:0px;}.cls-2{fill:#fff;}.cls-3{fill:#f04c23;}.cls-4{fill:#f5f5f5;}</style></defs><rect class="cls-1" x="191.13" y="16.37" width="278.92" height="141.83"/><rect class="cls-3" x="28.05" y="16.37" width="163.08" height="141.83"/><path class="cls-4" d="M143.22,86.68c-3.3-3.17-7.02-5.82-10.97-8.04-3.92-2.25-8.04-4.13-12.26-5.73-4.22-1.58-8.52-2.94-12.89-4l-1.63-.38c-.51-.11-1.04-.21-1.57-.3-1.07-.18-2.15-.31-3.23-.39-2.15-.17-4.31-.17-6.33.12-2,.29-3.91.87-5.14,1.85-.3.24-.58.51-.79.77-.23.27-.23.29-.37.49-.11.16-.2.31-.27.47-.31.62-.41,1.18-.36,1.8.1,1.23,1.02,2.82,2.33,4.23,1.3,1.42,2.93,2.74,4.65,3.87,3.72,2.37,7.6,4.79,11.47,6.94,3.89,2.16,7.86,4.09,11.94,5.74,4.08,1.66,8.28,3.06,12.57,4.29,2.12.6,4.35,1.24,6.42,1.76,2.05.5,4.15.89,6.24,1.15,4.16.52,8.42.55,11.85-.37,1.7-.46,3.09-1.19,3.97-2.07.89-.88,1.41-1.94,1.67-3.43.12-.76.16-1.52.12-2.46-.03-.23-.06-.65-.13-1.03-.07-.38-.15-.77-.27-1.16-.45-1.57-1.27-3.2-2.34-4.78-2.14-3.18-5.16-6.13-8.45-8.78-3.3-2.65-6.91-5.07-10.65-7.17-1.89-1.06-3.73-2-5.71-2.85-2.05-.91-4.09-1.77-6.15-2.6-8.21-3.37-16.59-5.85-25.31-7.54-2.18-.44-4.37-.83-6.57-1.2-2.08-.35-4.19-.58-6.33-.72-4.27-.28-8.58-.18-12.75.33-4.15.52-8.19,1.52-11.56,3.25-1.68.86-3.15,1.91-4.34,3.12-.15.15-.3.3-.43.46l-.11.12-.02.02-.07.08-.2.25c-.19.24-.43.58-.61.89-.38.64-.68,1.35-.9,2.11-.9,3.04-.33,6.99,1.22,10.36.38.84.83,1.66,1.33,2.4.12.19.25.37.38.54l.51.67.97,1.24c1.35,1.67,2.81,3.29,4.32,4.87,3.04,3.15,6.33,6.13,9.78,8.87,1.72,1.37,3.49,2.68,5.3,3.9l1.36.89,1.43.92,2.84,1.79c7.66,4.72,15.67,8.96,23.84,12.89,16.28,8.02,33.37,14.34,51.18,18.63-18.2-2.09-36.09-7.27-53.16-14.14-8.54-3.46-16.94-7.32-25.12-11.71l-3.06-1.68-1.5-.85-1.54-.93c-2.03-1.25-4-2.58-5.91-3.97-3.83-2.78-7.46-5.8-10.92-9.08-1.72-1.64-3.4-3.35-5-5.17-.4-.45-.8-.92-1.21-1.41l-.55-.67c-.22-.27-.44-.55-.64-.83-.83-1.12-1.53-2.29-2.15-3.5-1.22-2.42-2.07-5.01-2.51-7.74-.43-2.73-.42-5.64.31-8.54.37-1.45.92-2.88,1.65-4.23.38-.69.77-1.3,1.26-1.97l.32-.42.36-.44c.23-.28.47-.55.71-.81,1.95-2.12,4.24-3.76,6.59-5.04,4.74-2.55,9.7-3.8,14.58-4.54,4.89-.72,9.76-.85,14.6-.61,2.42.13,4.86.36,7.29.73,2.31.35,4.62.74,6.92,1.17,9.23,1.72,18.47,4.41,27.18,7.96,2.17.88,4.34,1.81,6.46,2.76,2.22.97,4.44,2.12,6.53,3.3,4.21,2.39,8.22,5.07,12.01,8.19,3.76,3.13,7.36,6.64,10.29,11.08,1.45,2.23,2.73,4.71,3.5,7.55.2.7.35,1.44.47,2.18.12.75.19,1.47.22,2.38.03,1.34-.07,2.86-.35,4.36-.29,1.51-.78,3.06-1.55,4.53-.76,1.47-1.81,2.85-3.02,3.97-2.45,2.28-5.36,3.5-8.07,4.17-2.73.68-5.37.87-7.92.85-2.55-.03-5.03-.27-7.46-.65-2.43-.38-4.81-.9-7.18-1.55-2.34-.67-4.49-1.33-6.73-2.09-4.43-1.49-8.85-3.17-13.16-5.13-4.31-1.96-8.48-4.22-12.48-6.66-4.02-2.46-7.81-5.03-11.62-7.82-2-1.51-3.87-3.18-5.55-5.23-.83-1.03-1.61-2.16-2.23-3.47-.62-1.3-1.11-2.82-1.14-4.49-.05-1.67.44-3.41,1.28-4.76.21-.34.43-.66.66-.97.2-.27.57-.69.72-.84.55-.59,1.14-1.08,1.76-1.51,2.52-1.68,5.23-2.2,7.73-2.39,2.53-.17,4.96.03,7.35.4,1.19.19,2.37.42,3.54.71.59.14,1.16.3,1.76.48l1.67.53c4.42,1.45,8.75,3.14,12.92,5.18,4.17,2.03,8.21,4.32,11.98,6.99,3.75,2.69,7.28,5.74,10.16,9.31Z"/><path class="cls-4" d="M143.22,86.68c-3.3-3.17-7.02-5.82-10.97-8.04-3.92-2.25-8.04-4.13-12.26-5.73-4.22-1.58-8.52-2.94-12.89-4l-1.63-.38c-.51-.11-1.04-.21-1.57-.3-1.07-.18-2.15-.31-3.23-.39-2.15-.17-4.31-.17-6.33.12-2,.29-3.91.87-5.14,1.85-.3.24-.58.51-.79.77-.23.27-.23.29-.37.49-.11.16-.2.31-.27.47-.31.62-.41,1.18-.36,1.8.1,1.23,1.02,2.82,2.33,4.23,1.3,1.42,2.93,2.74,4.65,3.87,3.72,2.37,7.6,4.79,11.47,6.94,3.89,2.16,7.86,4.09,11.94,5.74,4.08,1.66,8.28,3.06,12.57,4.29,2.12.6,4.35,1.24,6.42,1.76,2.05.5,4.15.89,6.24,1.15,4.16.52,8.42.55,11.85-.37,1.7-.46,3.09-1.19,3.97-2.07.89-.88,1.41-1.94,1.67-3.43.12-.76.16-1.52.12-2.46-.03-.23-.06-.65-.13-1.03-.07-.38-.15-.77-.27-1.16-.45-1.57-1.27-3.2-2.34-4.78-2.14-3.18-5.16-6.13-8.45-8.78-3.3-2.65-6.91-5.07-10.65-7.17-1.89-1.06-3.73-2-5.71-2.85-2.05-.91-4.09-1.77-6.15-2.6-8.21-3.37-16.59-5.85-25.31-7.54-2.18-.44-4.37-.83-6.57-1.2-2.08-.35-4.19-.58-6.33-.72-4.27-.28-8.58-.18-12.75.33-4.15.52-8.19,1.52-11.56,3.25-1.68.86-3.15,1.91-4.34,3.12-.15.15-.3.3-.43.46l-.11.12-.02.02-.07.08-.2.25c-.19.24-.43.58-.61.89-.38.64-.68,1.35-.9,2.11-.9,3.04-.33,6.99,1.22,10.36.38.84.83,1.66,1.33,2.4.12.19.25.37.38.54l.51.67.97,1.24c1.35,1.67,2.81,3.29,4.32,4.87,3.04,3.15,6.33,6.13,9.78,8.87,1.72,1.37,3.49,2.68,5.3,3.9l1.36.89,1.43.92,2.84,1.79c7.66,4.72,15.67,8.96,23.84,12.89,16.28,8.02,33.37,14.34,51.18,18.63-18.2-2.09-36.09-7.27-53.16-14.14-8.54-3.46-16.94-7.32-25.12-11.71l-3.06-1.68-1.5-.85-1.54-.93c-2.03-1.25-4-2.58-5.91-3.97-3.83-2.78-7.46-5.8-10.92-9.08-1.72-1.64-3.4-3.35-5-5.17-.4-.45-.8-.92-1.21-1.41l-.55-.67c-.22-.27-.44-.55-.64-.83-.83-1.12-1.53-2.29-2.15-3.5-1.22-2.42-2.07-5.01-2.51-7.74-.43-2.73-.42-5.64.31-8.54.37-1.45.92-2.88,1.65-4.23.38-.69.77-1.3,1.26-1.97l.32-.42.36-.44c.23-.28.47-.55.71-.81,1.95-2.12,4.24-3.76,6.59-5.04,4.74-2.55,9.7-3.8,14.58-4.54,4.89-.72,9.76-.85,14.6-.61,2.42.13,4.86.36,7.29.73,2.31.35,4.62.74,6.92,1.17,9.23,1.72,18.47,4.41,27.18,7.96,2.17.88,4.34,1.81,6.46,2.76,2.22.97,4.44,2.12,6.53,3.3,4.21,2.39,8.22,5.07,12.01,8.19,3.76,3.13,7.36,6.64,10.29,11.08,1.45,2.23,2.73,4.71,3.5,7.55.2.7.35,1.44.47,2.18.12.75.19,1.47.22,2.38.03,1.34-.07,2.86-.35,4.36-.29,1.51-.78,3.06-1.55,4.53-.76,1.47-1.81,2.85-3.02,3.97-2.45,2.28-5.36,3.5-8.07,4.17-2.73.68-5.37.87-7.92.85-2.55-.03-5.03-.27-7.46-.65-2.43-.38-4.81-.9-7.18-1.55-2.34-.67-4.49-1.33-6.73-2.09-4.43-1.49-8.85-3.17-13.16-5.13-4.31-1.96-8.48-4.22-12.48-6.66-4.02-2.46-7.81-5.03-11.62-7.82-2-1.51-3.87-3.18-5.55-5.23-.83-1.03-1.61-2.16-2.23-3.47-.62-1.3-1.11-2.82-1.14-4.49-.05-1.67.44-3.41,1.28-4.76.21-.34.43-.66.66-.97.2-.27.57-.69.72-.84.55-.59,1.14-1.08,1.76-1.51,2.52-1.68,5.23-2.2,7.73-2.39,2.53-.17,4.96.03,7.35.4,1.19.19,2.37.42,3.54.71.59.14,1.16.3,1.76.48l1.67.53c4.42,1.45,8.75,3.14,12.92,5.18,4.17,2.03,8.21,4.32,11.98,6.99,3.75,2.69,7.28,5.74,10.16,9.31Z"/><path class="cls-2" d="M224.95,131.92c-6.57,0-12.57-5.09-12.57-14.04v-41.21c0-8.95,6-14.04,12.57-14.04s12.68,5.21,12.68,14.04v11.89h-6.57v-12.11c0-4.64-2.94-7.02-6.11-7.02-2.94,0-6,2.38-6,7.02v41.67c0,4.64,3.06,7.02,6,7.02,3.17,0,6.11-2.38,6.11-7.02v-12.11h6.57v11.89c0,8.83-6.11,14.04-12.68,14.04Z"/><path class="cls-2" d="M266.61,130.45l-1.58-2.15c-2.26,2.49-5.21,3.62-8.15,3.62-6.23,0-11.89-4.64-11.89-12.57v-3.85c0-6.45,2.83-10.98,6.68-15.96l8.83-11.43c2.04-2.72,3.17-5.78,3.17-8.72v-2.72c0-4.76-2.94-7.13-6.11-7.13-2.94,0-6,2.38-6,7.13v11.1h-6.57v-11.1c0-9.4,6.34-14.04,12.68-14.04s12.57,4.75,12.57,14.04v53.78h-3.62ZM263.67,92.29s-.79,2.38-2.49,4.53l-6,7.81c-2.6,3.4-3.62,6.68-3.62,10.76v3.62c0,4.08,3.17,6.11,6.11,6.11s6-2.04,6-6.57v-26.27Z"/><path class="cls-2" d="M296.27,87.76v-12.12c0-4.08-3.17-6.11-6.11-6.11s-6,1.92-6,6.34v54.57h-6.57v-66.35h3.51l1.7,2.15c2.26-2.49,5.32-3.62,8.27-3.62,6.34,0,11.77,4.64,11.77,13.02v12.12h-6.57Z"/><path class="cls-2" d="M322.76,131.92c-6.57,0-12.57-5.09-12.57-14.04v-41.21c0-8.83,6.11-14.04,12.68-14.04s12.57,5.09,12.57,14.04v41.21c0,8.83-6.11,14.04-12.68,14.04ZM328.88,76.44c0-4.64-2.94-6.91-6.11-6.91-2.94,0-6,2.26-6,6.91v41.67c0,4.64,3.06,7.02,6,7.02,3.17,0,6.11-2.38,6.11-7.02v-41.67Z"/><path class="cls-2" d="M364.54,130.45l-1.7-2.15c-2.26,2.49-5.32,3.62-8.26,3.62-6.34,0-11.78-4.64-11.78-13.02v-54.8h6.57v54.8c0,4.08,3.17,6.11,6.11,6.11s6-1.92,6-6.34v-54.57h6.57v66.35h-3.51Z"/><path class="cls-2" d="M388.2,131.92c-6.45,0-12.79-4.53-12.79-13.47v-11.32h6.57v10.98c0,3.74,2.26,7.02,6.23,7.02,4.3,0,5.89-3.62,5.89-7.02,0-3.17-1.47-5.66-3.17-8.83l-11.44-20.49c-2.49-4.53-4.08-8.26-4.08-12.57,0-9.4,6.34-13.59,12.45-13.59s12.79,4.64,12.79,13.7v10.53h-6.57v-10.53c0-3.74-2.26-7.02-6.23-7.02-4.41,0-6,3.62-6,7.13,0,3.17,1.81,6.23,3.4,9.17l11.43,20.49c2.49,4.42,3.96,7.92,3.96,12.45,0,9.17-6.23,13.36-12.45,13.36Z"/><path class="cls-2" d="M420.58,131.92c-6.57,0-12.57-5.09-12.57-14.04v-41.21c0-8.83,6.11-14.04,12.68-14.04s12.57,5.09,12.57,14.04v21.62h-18.68v19.81c0,4.64,3.06,7.02,6,7.02,3.17,0,6.11-2.38,6.11-7.02v-12h6.57v11.77c0,8.83-6.11,14.04-12.68,14.04ZM426.7,76.44c0-4.64-2.94-7.02-6.11-7.02-2.94,0-6,2.38-6,7.02v15.85h12.11v-15.85Z"/><path class="cls-2" d="M440.62,130.45V39.87h6.57v90.58h-6.57Z"/></svg>