<svg xmlns="http://www.w3.org/2000/svg" viewBox="0 0 74 40">
    <title>Castit-logo</title>
    <path d="M50.037 10.732a5.367 5.367 0 1 0-5.442-5.36 5.357 5.357 0 0 0 5.442 5.36Z" style="fill:#303030"></path>
    <path
        d="M58.598 26.857a8.562 8.562 0 0 1-2.823-6.651h-9.802a8.6 8.6 0 0 1-2.823 6.651c-2.304 2.045-4.908 2.64-15.403 2.64-10.494 0-13.103-.595-15.403-2.64a8.609 8.609 0 0 1-2.834-6.72c0-5.291 3.37-8.011 7.74-9.063a83.945 83.945 0 0 1 10.497-.571h12.83V.001h-12.83c-3.654 0-7.547.137-10.496.423C5.83 2.31.004 10.242.004 20.207A19.63 19.63 0 0 0 5.98 34.708C11.502 40.148 18.32 40 27.747 40s16.245.148 21.766-5.292q.717-.703 1.367-1.474a18.39 18.39 0 0 0 1.354 1.474C57.755 40.148 64.574 40 74 40V29.498c-10.495 0-13.103-.595-15.402-2.64Z"
        style="fill:#303030"></path>
</svg>