<?xml version="1.0" encoding="utf-8"?>
<!-- Generator: Adobe Illustrator 19.2.1, SVG Export Plug-In . SVG Version: 6.00 Build 0)  -->
<svg version="1.1" id="圖層_1" xmlns="http://www.w3.org/2000/svg" xmlns:xlink="http://www.w3.org/1999/xlink" x="0px" y="0px"
	 viewBox="0 0 140 60" style="enable-background:new 0 0 140 60;" xml:space="preserve">
<style type="text/css">
	.st0{fill:#F9BE00;}
	.st1{fill:#009FE8;}
</style>
<g>
	<path class="st0" d="M135.2,15.5c-2.8-1.3-6.7-2-11.9-2c-5.3,0-9.2,0.6-11.9,1.8c-3.2,1.5-4.8,4-4.8,7.5v23.6h8.3V23.6
		c0-1,0.6-1.7,1.9-2.1c1.3-0.4,3.4-0.7,6.5-0.7c3.1,0,5.2,0.2,6.5,0.7c1.3,0.5,1.9,1.1,1.9,2.1v22.9h8.3V22.8
		C140.1,19.5,138.4,17,135.2,15.5z"/>
	<path class="st1" d="M52.9,16.9c-1.2-2.2-3.1-3.2-5.7-3.2c-2.7,0-4.6,1.1-5.8,3.2L29.2,39.3H11.3c-1,0-1.7-0.8-2.1-2.3
		c-0.4-1.6-0.7-3.8-0.7-6.7c0-2.9,0.2-5.1,0.7-6.6c0.4-1.6,1.1-2.3,2.1-2.3h22.2v-7.1h-23c-2.8,0-5,0.8-6.7,2.4
		c-1.4,1.4-2.4,3.4-3,6c-0.5,2.1-0.7,4.7-0.7,7.8c0,4.7,0.7,8.4,2.1,11.1c1.7,3.4,4.5,5,8.4,5h14.9h8.2h1l11.9-21.8
		c0.1-0.3,0.4-0.4,0.8-0.4c0.3,0,0.6,0.1,0.7,0.4l11.9,21.8H69L52.9,16.9z"/>
	<circle class="st0" cx="47.1" cy="41.6" r="4.9"/>
	<g>
		<polygon class="st0" points="95,46.5 103.3,46.5 103.3,14.2 99.1,14.2 95,22 		"/>
	</g>
	<path class="st0" d="M87.1,14.2c0,0-4.1,7.9-8.2,16c-0.1,0.3-0.4,0.4-0.7,0.4c-0.3,0-0.5-0.1-0.7-0.4l-8.2-16h-8.7l12.1,23.7
		c0.4,0.7,0.8,1.3,1.3,1.8c-1.8,3.5-3.2,6.2-3.5,6.8h8.7c9.6-18.8,16.6-32.3,16.6-32.3H87.1z"/>
</g>
</svg>
