<svg width="38" height="43" viewBox="0 0 38 43" fill="none" xmlns="http://www.w3.org/2000/svg">
    <path
        d="M0.429688 14.0478V21.4318C0.429688 21.5568 0.56551 21.6344 0.673305 21.5719L16.9568 12.0623C17.0064 12.0342 17.0365 11.9803 17.0365 11.9221V4.53819C17.0365 4.41315 16.9007 4.33554 16.7929 4.39806L0.509455 13.9077C0.459869 13.9357 0.429688 13.9896 0.429688 14.0478Z"
        fill="#0D7BFE"></path>
    <path
        d="M0.429688 32.9182V25.5343C0.429688 25.4092 0.56551 25.3316 0.673305 25.3942L16.9568 34.9038C17.0064 34.9318 17.0365 34.9857 17.0365 35.0439V42.4279C17.0365 42.5529 16.9007 42.6305 16.7929 42.568L0.509455 33.0584C0.459869 33.0303 0.429688 32.9764 0.429688 32.9182Z"
        fill="#F3483F"></path>
    <path
        d="M37.3901 10.2617V17.6456C37.3901 17.7707 37.2542 17.8483 37.1464 17.7858L20.863 8.27613C20.8134 8.2481 20.7832 8.19421 20.7832 8.136V0.752061C20.7832 0.627019 20.919 0.549407 21.0268 0.611928L37.3103 10.1216C37.3599 10.1496 37.3901 10.2035 37.3901 10.2617Z"
        fill="#5CF9CD"></path>
    <path
        d="M37.3901 29.1409V21.7569C37.3901 21.6319 37.2542 21.5543 37.1464 21.6168L20.863 31.1265C20.8134 31.1545 20.7832 31.2084 20.7832 31.2666V38.6505C20.7832 38.7756 20.919 38.8532 21.0268 38.7907L37.3103 29.281C37.3599 29.253 37.3901 29.1991 37.3901 29.1409Z"
        fill="#FDCB4C"></path>
    <path
        d="M24.6474 21.9766C24.7357 22.0305 24.7357 22.1577 24.6474 22.2116L21.5536 24.0635C21.4631 24.1174 21.3467 24.0527 21.3467 23.9471V20.2432C21.3467 20.1376 21.4631 20.0729 21.5536 20.1268L24.6474 21.9787V21.9766Z"
        fill="currentcolor"></path>
    <path
        d="M17.2479 21.9765C17.1595 22.0304 17.1595 22.1576 17.2479 22.2115L20.3416 24.0634C20.4322 24.1173 20.5486 24.0526 20.5486 23.947V20.2432C20.5486 20.1375 20.4322 20.0707 20.3416 20.1268L17.2479 21.9787V21.9765Z"
        fill="currentcolor"></path>
    <path
        d="M19.9169 24.7432C20.0053 24.7971 20.0053 24.9243 19.9169 24.9782L16.8232 26.8301C16.7326 26.884 16.6162 26.8193 16.6162 26.7137V23.0098C16.6162 22.9042 16.7326 22.8395 16.8232 22.8934L19.9169 24.7453V24.7432Z"
        fill="currentcolor"></path>
    <path
        d="M19.9169 19.211C20.0053 19.2649 20.0053 19.3921 19.9169 19.446L16.8232 21.2979C16.7326 21.3518 16.6162 21.2871 16.6162 21.1814V17.4776C16.6162 17.372 16.7326 17.3073 16.8232 17.3612L19.9169 19.2131V19.211Z"
        fill="currentcolor"></path>
</svg>