<!-- Generated by IcoMoon.io -->
<svg version="1.1" xmlns="http://www.w3.org/2000/svg" width="13505" height="1024" viewBox="0 0 13505 1024">
<g id="icomoon-ignore">
</g>
<path fill="#00b7f1" d="M13074.082 992.975h179.54v-688.97h251.135v-154.389h-681.626v154.389h251.135v688.97z"></path>
<path fill="#00b7f1" d="M8742.184 1024c-121.712 0-235.898-44.242-313.001-121.529-69.209-69.209-111.799-151.819-126.118-245.077-36.716 65.537-90.871 131.075-151.819 190.187-116.572 113.819-262.701 176.419-410.848 176.419-288.952 0-524.116-229.657-524.116-512s235.164-512 524.116-512c58.194 0 115.654 11.382 171.095 33.778 96.562 37.634 159.162 95.644 175.868 112.166l-118.041 124.099c-62.233-57.644-142.273-88.301-235.164-88.301-180.458 0-326.769 147.964-326.769 330.074 0 157.877 127.403 328.422 333.011 328.422 111.432 0 214.052-47.18 313.001-144.476 78.939-77.654 165.221-191.839 234.062-283.629 44.059-58.561 81.692-108.311 106.659-134.379 133.645-140.254 250.768-158.979 347.881-158.979 252.237 0 457.294 202.854 457.294 452.521s-204.873 452.704-457.11 452.704zM8745.856 296.112c-148.515 0-268.942 123.365-268.942 274.633s120.427 274.633 268.942 274.633c148.148 0 268.575-123.365 268.575-274.633s-120.427-274.633-268.575-274.633z"></path>
<path fill="#00b7f1" d="M12424.215 1024c-116.939 0-227.454-46.445-311.532-130.524-86.098-86.282-133.645-201.202-133.645-323.281 0-248.749 200.1-451.236 445.728-451.236 115.104 0.184 233.695 51.218 317.591 136.766l-105.925 112.166c-58.378-50.851-123.365-75.818-202.487-75.818-72.697 0-142.273 29.005-195.511 81.325-53.605 52.871-83.161 122.814-83.161 196.796 0 155.124 125.017 281.242 278.488 281.242 89.219 0 158.612-30.474 218.825-95.644l109.046 109.229c-68.108 76.001-168.341 158.979-337.417 158.979z"></path>
<path fill="#00b7f1" d="M10928.602 992.975c-2.019-0.918-150.901-189.269-234.98-301.436-144.109-192.023-213.685-293.358-213.685-293.358v594.794h-179.723v-843.175h187.433c2.019 1.101 153.471 204.139 229.84 308.962 138.602 190.371 211.115 286.749 211.115 286.933v-595.895h179.356v843.175h-179.356z"></path>
<path fill="#00b7f1" d="M9940.584 992.975c-2.019-0.918-150.901-189.269-234.98-301.436-144.293-192.023-213.869-293.175-213.869-293.175v594.794h-179.723v-843.359h187.433c2.019 1.101 153.471 204.139 229.84 308.962 138.602 190.371 211.115 286.749 211.115 286.933v-595.895h179.356v843.175h-179.172z"></path>
<path fill="#00b7f1" d="M11288.416 992.975h622.698v-154.389h-446.095v-207.26h351.553v-148.882h-351.553v-179.356h431.593v-153.288h-608.195v843.175z"></path>
<path fill="#000" d="M6755.316 902.471c-52.687 55.441-112.166 88.301-187.066 103.355-50.484 10.097-94.726 12.3-146.128 6.976-67.924-6.976-124.099-29.005-178.989-69.76-44.793-33.411-76.919-69.576-104.823-117.857-21.662-37.634-34.329-72.513-41.305-115.287-9.73-59.296-7.16-111.248 8.445-169.259 35.614-131.626 134.563-225.067 268.208-252.787 76.369-15.788 144.109-14.136 219.376 5.324 53.788 13.768 96.379 37.083 137.133 75.084 25.517 23.682 43.692 47.547 60.030 78.572 18.909 36.532 26.802 71.963 24.599 113.268h-238.285c-5.14-31.759-20.561-57.276-46.078-76.919-33.411-25.334-76.185-27.537-111.799-5.324-24.232 15.053-40.387 35.614-49.015 62.967-20.561 64.987-21.479 125.568-2.937 191.289 7.71 27.72 20.928 49.383 41.672 69.025 23.682 22.58 53.421 31.943 86.098 27.17 20.377-2.937 36.716-11.749 50.3-27.17 14.136-15.788 22.397-32.677 26.068-53.605 2.57-14.686 4.039-27.353 4.773-42.039h251.135c4.957 75.634-19.276 142.090-71.412 196.98z"></path>
<path fill="#000" d="M5760.688 17.807h260.498v184.129h-260.498v-184.129z"></path>
<path fill="#000" d="M5760.688 296.663h260.498v696.496h-260.498v-696.496z"></path>
<path fill="#000" d="M5183.518 370.094c34.146-29.923 66.823-51.035 108.311-70.127 67.19-31.208 134.563-36.165 205.791-15.421 76.369 22.213 131.442 76.001 155.491 151.819 11.565 36.532 16.522 68.842 16.522 107.21v449.583h-276.653v-404.24c0-13.585-1.652-24.967-5.691-38.001-7.16-23.131-22.58-40.387-44.977-49.933-49.015-20.744-104.64-2.387-131.626 43.692-11.198 19.092-16.338 38.001-16.338 60.214v388.268h-267.841v-696.68h251.319l5.691 73.615z"></path>
<path fill="#000" d="M1951.621 370.094c34.329-29.923 67.006-51.035 108.311-70.127 67.373-31.208 134.563-36.165 205.791-15.421 76.369 22.213 131.442 76.001 155.491 151.819 11.565 36.532 16.522 68.842 16.522 107.21v449.583h-276.653v-404.24c0-13.585-1.652-24.967-5.691-38.001-7.16-23.131-22.397-40.387-44.793-49.933-49.015-20.744-104.823-2.387-131.626 43.692-11.382 19.092-16.338 38.001-16.338 60.214v388.268h-268.024v-696.68h251.319l5.691 73.615z"></path>
<path fill="#000" d="M3669.364 736.7c20.010 3.488 36.532 7.527 55.808 13.952 15.971 5.324 26.986 17.624 30.658 34.146 3.672 17.991-1.285 34.88-14.136 47.914-13.034 13.218-27.904 20.928-46.262 23.682-24.416 3.855-46.262 1.836-69.76-6.609-11.382-4.039-20.377-9.179-29.74-16.889-11.933-10.097-19.643-21.662-24.416-36.532-3.855-12.667-5.507-23.865-5.14-37.083h-255.174v14.87c0 24.049 3.672 44.242 12.116 66.823 12.667 33.778 30.29 59.847 56.726 84.63 34.513 32.31 70.678 52.503 116.022 65.354 94.359 26.802 179.172 32.31 276.102 17.44 45.527-6.976 82.977-19.276 123.732-40.387 18.174-9.362 32.493-18.909 48.098-32.126 69.025-57.827 94.359-146.128 66.823-231.859-10.28-32.31-26.802-57.276-52.503-79.306-35.247-30.474-70.678-49.933-115.471-62.967-9.73-2.937-17.991-5.324-27.904-7.894-54.523-15.237-101.519-25.334-157.694-33.595-15.053-2.203-27.72-4.773-42.59-8.077-6.976-1.652-12.483-3.488-18.909-6.425-15.604-7.16-22.58-25.517-15.604-41.122 0.551-0.918 0.734-1.469 1.285-2.387 8.445-15.053 20.928-24.967 37.45-29.74 29.005-8.445 55.991-7.71 84.446 2.019 27.537 9.179 44.793 34.513 43.508 63.518h245.811c-0.184-30.29-4.773-55.808-15.053-84.079-10.464-28.822-26.068-50.851-50.117-69.76-21.112-16.522-40.938-27.904-65.721-37.634-24.232-9.362-45.527-15.421-71.228-19.826-60.764-10.464-113.268-13.401-174.95-9.913-35.247 2.019-64.987 6.425-99.316 14.503-46.445 11.015-83.895 28.822-121.345 58.378-31.943 24.967-52.871 54.156-66.272 92.34-6.058 17.256-8.995 32.677-9.73 51.035-1.285 30.474 2.937 56.542 14.319 84.997 20.194 50.851 56.175 87.016 107.21 107.21 25.885 10.464 48.465 17.256 75.634 22.764 53.788 10.831 99.316 19.459 153.288 28.638z"></path>
<path fill="#000" d="M295.928 692.825v-228.739h116.022c22.213 0 40.754-0.551 62.967-1.652 30.474-1.652 55.991-15.421 74.166-40.020 9.546-13.218 15.053-26.252 17.44-42.407 1.836-13.585 2.203-25.15 0.918-38.735-4.957-50.851-47.18-89.035-98.214-89.035h-173.114v740.739h-296.112v-975.168h483.729c19.276 0 35.431 0.367 54.706 1.469 128.321 6.792 234.062 78.204 288.402 194.593 28.271 60.581 37.817 118.775 30.658 185.414-15.421 140.070-113.268 248.932-250.952 279.223-45.711 10.097-85.18 14.319-131.809 14.319h-178.805z"></path>
<path fill="#000" d="M4092.696 751.019c21.846 78.572 62.784 139.336 127.587 188.902 42.774 32.677 85.18 52.32 137.684 63.885 37.266 8.077 69.576 11.565 107.76 11.565s70.494-3.488 107.76-11.565c52.687-11.382 95.094-31.025 137.684-63.885l-149.616-163.201c-23.865 52.871-85.915 76.369-138.785 52.687-24.416-11.015-41.672-28.271-52.687-52.687-10.097-22.58-15.971-42.774-19.643-67.19-7.343-49.015-6.425-91.422 2.937-140.070 4.957-25.334 13.401-45.895 27.537-67.19 30.658-46.996 93.625-60.030 140.621-29.373 12.3 8.077 21.112 17.073 29.189 29.373 14.136 21.479 22.58 42.039 27.537 67.19 9.362 48.648 10.28 91.238 2.937 140.070-3.672 24.416-9.546 44.61-19.643 67.19l149.616 163.201c64.803-49.566 105.741-110.331 127.771-188.902 14.136-51.218 18.358-96.929 13.585-149.984-7.894-86.282-42.039-157.327-104.456-217.357-58.378-56.175-123.181-88.301-203.038-100.785-27.72-4.222-51.218-6.058-79.122-6.058-27.72 0-51.402 1.836-78.939 6.058-80.040 12.483-144.843 44.61-203.038 100.785-62.417 60.030-96.746 131.259-104.456 217.357-5.14 53.238-0.918 98.765 13.218 149.984z"></path>
<path fill="#000" d="M3245.114 938.269c-3.855-57.644-6.058-106.108-7.16-163.752-1.652-75.634-2.57-139.52-2.937-215.154-0.367-40.754-4.773-75.267-15.053-114.736-13.401-51.769-43.692-91.055-90.504-117.307-28.087-15.788-53.972-25.517-85.731-32.31-100.601-21.479-189.086-23.314-290.421-5.691-28.455 4.957-51.953 11.749-78.572 22.764-61.682 25.517-104.089 71.963-124.099 135.848-7.527 24.416-9.546 46.445-6.609 71.779 0.551 4.773 1.836 8.628 3.855 12.85l234.246 5.691c-0.551-14.87 1.469-27.537 6.425-41.672 7.71-21.479 22.947-36.532 44.242-44.426 31.392-11.382 61.682-11.933 93.625-1.469 20.928 6.792 35.798 22.029 42.407 43.141 4.222 13.218 2.019 26.068-5.875 37.266-6.976 9.913-15.421 16.706-26.802 20.928-6.976 2.57-12.85 4.589-20.010 6.425-32.677 8.812-60.397 14.87-93.625 20.377-26.435 4.222-48.465 8.261-74.716 13.585-35.614 7.16-65.17 14.87-99.499 26.068-31.392 10.28-56.175 24.599-80.591 46.996-31.575 29.005-49.566 63.335-55.808 105.925-4.039 28.271-2.937 53.054 3.304 80.958 16.338 72.697 66.823 126.485 138.234 147.046 79.489 23.131 153.839 19.276 230.391-11.565 37.266-15.053 65.721-35.798 91.422-66.639l-16.522-119.693c-11.749 18.174-26.435 30.841-46.262 39.469-18.541 8.261-35.431 12.667-55.624 14.503-16.706 1.652-31.392 0.367-47.73-4.222-13.218-3.488-23.682-9.913-33.044-19.826-7.894-8.628-12.667-17.807-15.053-29.189-3.488-17.624 2.019-34.513 15.788-46.078 9.179-7.71 18.174-13.034 29.556-17.073 27.17-10.097 50.484-17.624 78.388-25.517 33.778-9.546 61.682-19.643 93.441-34.329 3.121 25.517 2.937 47.363-0.551 72.697-2.57 18.541-8.261 33.962-18.358 49.566l16.522 119.693c5.14 17.073 9.73 31.208 15.604 47.914 3.304 9.362 7.527 16.706 14.136 23.865h258.295c-11.565-17.073-17.256-34.146-18.725-54.706z"></path>
<path fill="#000" d="M1606.861 938.269c-3.855-57.644-6.058-106.108-7.16-163.752-1.469-75.634-2.387-139.52-2.937-215.154-0.184-40.754-4.773-75.267-15.053-114.736-13.401-51.769-43.692-91.055-90.504-117.307-28.271-15.788-54.156-25.517-85.731-32.31-100.417-21.479-189.086-23.314-290.421-5.691-28.455 4.957-51.953 11.749-78.572 22.764-61.866 25.517-104.089 71.963-124.099 135.848-7.527 24.416-9.73 46.445-6.609 71.779 0.551 4.773 1.836 8.628 3.855 12.85l234.43 5.691c-0.551-14.87 1.285-27.537 6.425-41.672 7.71-21.479 22.764-36.532 44.059-44.426 31.575-11.382 61.682-11.933 93.625-1.469 21.112 6.792 35.798 22.029 42.407 43.141 4.039 13.218 2.019 26.068-5.875 37.266-6.976 9.913-15.421 16.706-26.802 20.928-6.976 2.57-13.034 4.589-20.194 6.425-32.493 8.812-60.397 14.87-93.625 20.377-26.435 4.222-48.465 8.261-74.716 13.585-35.431 7.16-65.17 14.87-99.499 26.068-31.392 10.28-56.175 24.599-80.591 46.996-31.575 29.005-49.566 63.335-55.808 105.925-4.039 28.271-2.937 53.054 3.304 80.958 16.338 72.697 66.823 126.485 138.234 147.046 79.489 23.131 153.839 19.276 230.574-11.565 37.266-15.053 65.537-35.798 91.238-66.639l-16.522-119.693c-11.749 18.174-26.435 30.841-46.262 39.469-18.541 8.261-35.431 12.667-55.624 14.503-16.889 1.652-31.575 0.367-47.914-4.222-13.218-3.488-23.682-9.913-33.044-19.826-8.077-8.628-12.667-17.807-15.053-29.189-3.672-17.624 2.019-34.513 15.788-46.078 9.179-7.71 18.174-13.034 29.373-17.073 27.17-10.097 50.484-17.624 78.388-25.517 33.778-9.546 61.682-19.643 93.441-34.329 3.121 25.517 2.937 47.363-0.551 72.697-2.57 18.541-8.261 33.962-18.541 49.566l16.522 119.693c5.14 17.073 9.913 31.208 15.604 47.914 3.304 9.362 7.527 16.706 14.136 23.865h258.295c-10.831-17.073-16.522-34.146-17.991-54.706z"></path>
</svg>
