<svg xmlns="http://www.w3.org/2000/svg" xmlns:xlink="http://www.w3.org/1999/xlink" xmlns:serif="http://www.serif.com/" width="100%" height="100%" viewBox="0 0 845 224" xml:space="preserve" style="fill-rule:evenodd;clip-rule:evenodd;stroke-linejoin:round;stroke-miterlimit:2;"> <g id="ArtBoard1" transform="matrix(1.12004,0,0,1.59978,0,0)"> <rect x="0" y="0" width="753.815" height="139.93" style="fill:none;"></rect> <g transform="matrix(12.0517,0,0,8.43771,140.077,107.855)"> <path d="M0.516,-3.3C0.516,-3.98 0.652,-4.574 0.924,-5.082C1.196,-5.59 1.574,-5.984 2.058,-6.264C2.542,-6.544 3.096,-6.684 3.72,-6.684C4.528,-6.684 5.194,-6.488 5.718,-6.096C6.242,-5.704 6.588,-5.16 6.756,-4.464L5.58,-4.464C5.468,-4.864 5.25,-5.18 4.926,-5.412C4.602,-5.644 4.2,-5.76 3.72,-5.76C3.096,-5.76 2.592,-5.546 2.208,-5.118C1.824,-4.69 1.632,-4.084 1.632,-3.3C1.632,-2.508 1.824,-1.896 2.208,-1.464C2.592,-1.032 3.096,-0.816 3.72,-0.816C4.2,-0.816 4.6,-0.928 4.92,-1.152C5.24,-1.376 5.46,-1.696 5.58,-2.112L6.756,-2.112C6.58,-1.44 6.228,-0.902 5.7,-0.498C5.172,-0.094 4.512,0.108 3.72,0.108C3.096,0.108 2.542,-0.032 2.058,-0.312C1.574,-0.592 1.196,-0.988 0.924,-1.5C0.652,-2.012 0.516,-2.612 0.516,-3.3Z" style="fill-rule:nonzero;"></path> </g> <g transform="matrix(12.0517,0,0,8.43771,139.957,108.766)"> <rect x="8.208" y="-8.88" width="1.092" height="8.88"></rect> </g> <g transform="matrix(12.0517,0,0,8.43771,139.857,107.855)"> <path d="M17.16,-3.54C17.16,-3.332 17.148,-3.112 17.124,-2.88L11.868,-2.88C11.908,-2.232 12.13,-1.726 12.534,-1.362C12.938,-0.998 13.428,-0.816 14.004,-0.816C14.476,-0.816 14.87,-0.926 15.186,-1.146C15.502,-1.366 15.724,-1.66 15.852,-2.028L17.028,-2.028C16.852,-1.396 16.5,-0.882 15.972,-0.486C15.444,-0.09 14.788,0.108 14.004,0.108C13.38,0.108 12.822,-0.032 12.33,-0.312C11.838,-0.592 11.452,-0.99 11.172,-1.506C10.892,-2.022 10.752,-2.62 10.752,-3.3C10.752,-3.98 10.888,-4.576 11.16,-5.088C11.432,-5.6 11.814,-5.994 12.306,-6.27C12.798,-6.546 13.364,-6.684 14.004,-6.684C14.628,-6.684 15.18,-6.548 15.66,-6.276C16.14,-6.004 16.51,-5.63 16.77,-5.154C17.03,-4.678 17.16,-4.14 17.16,-3.54ZM16.032,-3.768C16.032,-4.184 15.94,-4.542 15.756,-4.842C15.572,-5.142 15.322,-5.37 15.006,-5.526C14.69,-5.682 14.34,-5.76 13.956,-5.76C13.404,-5.76 12.934,-5.584 12.546,-5.232C12.158,-4.88 11.936,-4.392 11.88,-3.768L16.032,-3.768Z" style="fill-rule:nonzero;"></path> </g> <g transform="matrix(12.4476,0,0,8.71486,133.023,108.766)"> <path d="M21.048,-1.008L23.088,-6.576L24.252,-6.576L21.672,0L20.4,0L17.82,-6.576L18.996,-6.576L21.048,-1.008Z" style="fill-rule:nonzero;"></path> </g> <g transform="matrix(12.0517,0,0,8.43771,140.035,107.855)"> <path d="M31.332,-3.54C31.332,-3.332 31.32,-3.112 31.296,-2.88L26.04,-2.88C26.08,-2.232 26.302,-1.726 26.706,-1.362C27.11,-0.998 27.6,-0.816 28.176,-0.816C28.648,-0.816 29.042,-0.926 29.358,-1.146C29.674,-1.366 29.896,-1.66 30.024,-2.028L31.2,-2.028C31.024,-1.396 30.672,-0.882 30.144,-0.486C29.616,-0.09 28.96,0.108 28.176,0.108C27.552,0.108 26.994,-0.032 26.502,-0.312C26.01,-0.592 25.624,-0.99 25.344,-1.506C25.064,-2.022 24.924,-2.62 24.924,-3.3C24.924,-3.98 25.06,-4.576 25.332,-5.088C25.604,-5.6 25.986,-5.994 26.478,-6.27C26.97,-6.546 27.536,-6.684 28.176,-6.684C28.8,-6.684 29.352,-6.548 29.832,-6.276C30.312,-6.004 30.682,-5.63 30.942,-5.154C31.202,-4.678 31.332,-4.14 31.332,-3.54ZM30.204,-3.768C30.204,-4.184 30.112,-4.542 29.928,-4.842C29.744,-5.142 29.494,-5.37 29.178,-5.526C28.862,-5.682 28.512,-5.76 28.128,-5.76C27.576,-5.76 27.106,-5.584 26.718,-5.232C26.33,-4.88 26.108,-4.392 26.052,-3.768L30.204,-3.768Z" style="fill-rule:nonzero;"></path> </g> <g transform="matrix(12.227,0,0,8.56039,134.349,108.778)"> <path d="M33.864,-5.508C34.056,-5.884 34.33,-6.176 34.686,-6.384C35.042,-6.592 35.476,-6.696 35.988,-6.696L35.988,-5.568L35.7,-5.568C34.476,-5.568 33.864,-4.904 33.864,-3.576L33.864,0L32.772,0L32.772,-6.693L33.864,-6.697L33.864,-5.508Z" style="fill-rule:nonzero;"></path> </g> <g transform="matrix(12.5434,0,0,8.78196,577.626,108.029)"> <path d="M7.356,1.512L5.892,-0.072C5.532,0.032 5.136,0.084 4.704,0.084C3.928,0.084 3.214,-0.098 2.562,-0.462C1.91,-0.826 1.394,-1.334 1.014,-1.986C0.634,-2.638 0.444,-3.372 0.444,-4.188C0.444,-5.004 0.634,-5.736 1.014,-6.384C1.394,-7.032 1.91,-7.538 2.562,-7.902C3.214,-8.266 3.928,-8.448 4.704,-8.448C5.488,-8.448 6.206,-8.266 6.858,-7.902C7.51,-7.538 8.024,-7.032 8.4,-6.384C8.776,-5.736 8.964,-5.004 8.964,-4.188C8.964,-3.42 8.798,-2.726 8.466,-2.106C8.134,-1.486 7.676,-0.988 7.092,-0.612L9.096,1.512L7.356,1.512ZM1.848,-4.188C1.848,-3.572 1.97,-3.03 2.214,-2.562C2.458,-2.094 2.796,-1.734 3.228,-1.482C3.66,-1.23 4.152,-1.104 4.704,-1.104C5.256,-1.104 5.748,-1.23 6.18,-1.482C6.612,-1.734 6.95,-2.094 7.194,-2.562C7.438,-3.03 7.56,-3.572 7.56,-4.188C7.56,-4.804 7.438,-5.344 7.194,-5.808C6.95,-6.272 6.612,-6.628 6.18,-6.876C5.748,-7.124 5.256,-7.248 4.704,-7.248C4.152,-7.248 3.66,-7.124 3.228,-6.876C2.796,-6.628 2.458,-6.272 2.214,-5.808C1.97,-5.344 1.848,-4.804 1.848,-4.188Z" style="fill:rgb(4,66,113);fill-rule:nonzero;"></path> </g> <g transform="matrix(0.0726696,0,0,0.312456,687.325,10.6441)"> <path d="M266.842,5.453C306.454,5.453 341.925,6.949 373.255,9.939C404.584,12.93 429.072,17.034 446.717,22.253C464.363,27.472 473.185,33.306 473.185,39.756C473.185,46.206 464.363,52.07 446.717,57.347C429.072,62.625 404.584,66.759 373.255,69.749C341.925,72.74 306.454,74.235 266.842,74.235C227.23,74.235 191.759,72.74 160.429,69.749C129.1,66.759 104.612,62.625 86.967,57.347C69.321,52.07 60.499,46.206 60.499,39.756C60.499,33.306 69.321,27.472 86.967,22.253C104.612,17.034 129.1,12.93 160.429,9.939C191.759,6.949 227.23,5.453 266.842,5.453ZM266.842,69.661C301.413,69.661 332.202,68.371 359.21,65.791C386.219,63.211 407.105,59.634 421.87,55.061C436.634,50.487 444.016,45.385 444.016,39.756C444.016,34.127 436.634,29.055 421.87,24.54C407.105,20.025 386.219,16.477 359.21,13.897C332.202,11.317 301.413,10.027 266.842,10.027C214.266,10.027 171.773,12.812 139.363,18.383C106.953,23.953 90.748,31.078 90.748,39.756C90.748,45.385 98.13,50.487 112.895,55.061C127.659,59.634 148.366,63.211 175.014,65.791C201.662,68.371 232.271,69.661 266.842,69.661ZM358.67,31.84C358.67,34.889 352.908,37.381 341.385,39.316C329.861,41.251 314.377,42.395 294.931,42.747L364.072,58.403L324.1,58.579L257.119,42.747L223.629,42.747L223.629,58.579L189.058,58.579L189.058,20.934L284.127,20.934C307.174,20.934 325.36,21.872 338.684,23.748C352.008,25.625 358.67,28.322 358.67,31.84ZM223.629,37.997L280.886,37.997C310.415,37.997 325.18,35.945 325.18,31.84C325.18,29.846 321.219,28.351 313.296,27.354C305.374,26.358 294.57,25.859 280.886,25.859L223.629,25.859L223.629,37.997Z" style="fill-rule:nonzero;"></path> </g> <g transform="matrix(0.756032,0,0,0.529316,39.5402,37.5423)"> <path d="M0,37.813C0,23.157 8.348,10.481 20.535,4.204C15.563,-3.953 6.613,-9.414 -3.633,-9.414C-19.273,-9.414 -31.949,3.266 -31.949,18.911C-31.949,34.547 -19.273,47.227 -3.633,47.227C-2.012,47.227 -0.43,47.059 1.117,46.797C0.414,43.911 0,40.911 0,37.813" style="fill:rgb(4,66,113);fill-rule:nonzero;"></path> </g> <g transform="matrix(0.756032,0,0,0.529316,86.3942,55.9774)"> <path d="M0,-11.719C-4.973,-19.871 -13.922,-25.332 -24.168,-25.332C-39.809,-25.332 -52.484,-12.653 -52.484,2.988C-52.484,6.746 -51.734,10.328 -50.406,13.613C-43.602,7.047 -34.371,2.988 -24.168,2.988C-21.352,2.988 -18.625,3.328 -15.992,3.91C-12.367,-2.781 -6.77,-8.227 0,-11.719" style="fill:rgb(4,66,113);fill-rule:nonzero;"></path> </g> <g transform="matrix(0.756032,0,0,0.529316,99.4536,82.5563)"> <path d="M0,-56.642C-10.242,-56.642 -19.191,-51.177 -24.164,-43.025C-11.977,-36.747 -3.629,-24.064 -3.629,-9.415C-3.629,-6.318 -4.047,-3.314 -4.746,-0.43C-3.203,-0.172 -1.617,0 0,0C15.645,0 28.32,-12.681 28.32,-28.322C28.32,-43.966 15.645,-56.642 0,-56.642" style="fill:rgb(4,66,113);fill-rule:nonzero;"></path> </g> <g transform="matrix(0.756032,0,0,0.529316,68.1241,83.1942)"> <path d="M0,-38.939C-10.246,-38.939 -19.195,-33.474 -24.168,-25.322C-17.398,-21.834 -11.801,-16.388 -8.18,-9.701C-5.543,-10.283 -2.816,-10.619 0,-10.619C10.199,-10.619 19.434,-6.561 26.238,0C27.57,-3.273 28.316,-6.857 28.316,-10.619C28.316,-26.263 15.641,-38.939 0,-38.939" style="fill:rgb(4,66,113);fill-rule:nonzero;"></path> </g> <g transform="matrix(0.756032,0,0,0.529316,39.5402,77.5723)"> <path d="M0,37.806C0,23.158 8.348,10.478 20.535,4.206C15.563,-3.949 6.613,-9.414 -3.633,-9.414C-19.273,-9.414 -31.949,3.261 -31.949,18.9C-31.949,34.548 -19.273,47.22 -3.633,47.22C-2.012,47.22 -0.43,47.064 1.117,46.798C0.414,43.908 0,40.908 0,37.806" style="fill:rgb(4,66,113);fill-rule:nonzero;"></path> </g> <g transform="matrix(0.756032,0,0,0.529316,70.8693,87.5811)"> <path d="M0,37.813C0,23.157 8.348,10.485 20.535,4.204C15.563,-3.953 6.613,-9.414 -3.633,-9.414C-19.273,-9.414 -31.949,3.266 -31.949,18.899C-31.949,34.547 -19.273,47.227 -3.633,47.227C-2.012,47.227 -0.43,47.063 1.117,46.797C0.414,43.915 0,40.915 0,37.813" style="fill:rgb(4,66,113);fill-rule:nonzero;"></path> </g> <g transform="matrix(0,0.529316,0.756032,0,99.4576,92.6086)"> <path d="M28.317,-28.317C12.676,-28.317 -0.003,-15.641 -0.003,-0.005C-0.003,15.64 12.676,28.317 28.317,28.317C43.957,28.317 56.637,15.64 56.637,-0.005C56.637,-15.641 43.957,-28.317 28.317,-28.317" style="fill:rgb(4,66,113);fill-rule:nonzero;"></path> </g> </g> </svg>