<svg width="236" height="71" viewBox="0 0 236 71" fill="none" class="h-10 w-36 xsm:h-[3.375rem] xsm:w-[10.9375rem]">
    <path
        d="M66.0498 14.1132C66.4044 11.6382 66.0054 9.11819 64.7198 6.95819C63.5671 5.02319 61.8381 3.44819 59.7988 2.54819C57.0501 1.33319 54.1241 1.46819 51.3754 2.59319C47.3854 4.21319 43.3954 5.83319 39.3611 7.45319C33.1544 9.97319 26.9478 12.4482 20.7854 14.9682C16.6181 16.6332 12.4951 18.2982 8.32777 20.0082C8.10611 20.0982 7.88444 20.1882 7.61844 20.2782C5.57911 21.0882 3.89444 22.4382 2.65311 24.2832C0.303441 27.7482 0.259107 32.6082 2.56444 36.1182C3.18511 37.0632 3.89444 37.8732 4.78111 38.5482C5.22444 38.9082 5.88944 38.9982 6.33277 38.5482C6.73177 38.1432 6.82044 37.3332 6.33277 36.9732C3.31811 34.4982 2.29844 30.5832 3.67277 27.0282C4.51511 24.8682 6.33277 23.1582 8.59377 22.2582C12.2734 20.7732 15.9088 19.2882 19.5884 17.8032C25.5734 15.3732 31.5584 12.9432 37.5434 10.5582C41.9768 8.75819 46.4544 6.95819 50.8878 5.15819C52.1734 4.61819 53.5034 4.03319 54.9221 3.89819C58.9564 3.58319 62.8134 6.32819 63.7444 10.4232C63.9661 11.4132 64.0104 12.4482 63.8774 13.4382C63.7888 14.0232 64.0104 14.6532 64.6754 14.8332C65.2074 15.0132 65.9611 14.6982 66.0498 14.1132Z"
        fill="url(#paint0_linear_491_769)"></path>
    <path
        d="M42.1097 68.5184C44.5037 70.4084 47.3854 71.2634 50.4001 70.7684C53.1931 70.3184 55.6757 68.7434 57.3161 66.4484C58.2914 65.0984 58.9121 63.5234 59.1337 61.9034C59.2224 61.3184 59.0007 60.6884 58.3357 60.5084C57.8037 60.3734 57.0501 60.6884 56.9614 61.3184C56.6067 63.7034 55.4097 65.8184 53.5034 67.1234C52.5281 67.7984 51.5971 68.2034 50.4444 68.4734C49.8681 68.6084 49.4691 68.6534 48.8484 68.6534C48.2721 68.6534 47.6957 68.6084 47.2081 68.5184C45.8781 68.2484 44.6811 67.7534 43.6171 66.8984C43.1294 66.5384 42.5087 66.4484 42.0654 66.8984C41.7107 67.3484 41.6221 68.1584 42.1097 68.5184Z"
        fill="url(#paint1_linear_491_769)"></path>
    <path d="M42.8632 67.7533L21.8936 50.9683" stroke="url(#paint2_linear_491_769)" stroke-width="2"
        stroke-miterlimit="10"></path>
    <path d="M64.9856 13.7983L61.439 37.4683" stroke="url(#paint3_linear_491_769)" stroke-width="2"
        stroke-miterlimit="10"></path>
    <path
        d="M12.8496 22.1235C10.9876 24.5535 9.87923 27.5235 9.87923 30.8085C9.87923 31.8885 10.0122 32.9235 10.2339 33.9585C7.35223 35.0385 5.1799 37.4685 4.55923 40.4835C0.613566 36.1635 1.36723 28.8735 6.7759 25.6785L12.8496 22.1235Z"
        fill="url(#paint4_linear_491_769)"></path>
    <path
        d="M62.2373 9.83829V38.9083C60.9073 35.6683 57.6267 33.3733 53.814 33.3733H53.7696C53.7696 33.2383 53.7696 33.0583 53.7696 32.9233C53.7696 27.2083 49.026 22.6183 43.1297 22.6183C41.2676 22.6183 39.5387 23.0683 37.987 23.8783C35.46 19.3333 30.4947 16.2733 24.82 16.2733C24.022 16.2733 23.2683 16.3183 22.5146 16.4533L48.0063 1.51329C54.346 -2.17671 62.2373 2.41329 62.2373 9.83829Z"
        fill="url(#paint5_linear_491_769)"></path>
    <path
        d="M62.2373 45.3882V58.0782C62.2373 65.4582 54.3459 70.0932 48.0506 66.4032L21.6279 50.9232H53.7696C57.6266 50.9682 60.9073 48.6732 62.2373 45.3882Z"
        fill="url(#paint6_linear_491_769)"></path>
    <path
        d="M61.7494 42.1487C61.705 46.2437 58.38 49.5737 54.39 49.7987C53.5477 49.8437 52.7054 49.7987 51.863 49.7987H23.0464C19.943 49.7987 16.7954 49.7987 13.6477 49.7987C11.0764 49.7987 8.63803 48.7637 7.04203 46.6937C4.6037 43.4987 5.18003 38.9987 8.15036 36.3887C8.81536 35.8037 9.6577 35.3087 10.5 34.9937C11.0764 34.7687 11.431 34.2287 11.298 33.5987C10.101 28.2437 12.4507 22.7087 16.9727 19.7387C21.273 16.9037 26.9477 16.5887 31.514 19.0187C33.8194 20.2787 35.77 22.1237 37.1 24.4187C37.4104 24.9587 38.0754 25.0937 38.6074 24.8237C43.3954 22.3037 49.6907 24.2387 51.9517 29.3237C52.528 30.5837 52.7497 31.9787 52.661 33.3737C52.661 34.0037 53.193 34.4987 53.7694 34.4987C57.981 34.4987 61.705 37.7837 61.7494 42.1487Z"
        fill="white"></path>
    <path
        d="M63.9661 42.0134C63.9218 40.0334 63.2568 38.1884 62.2371 36.7034C62.0598 36.4784 61.8824 36.2084 61.7051 35.9834C60.0204 33.9584 57.5821 32.6084 54.8778 32.2934C54.7004 29.6384 53.6364 27.0734 51.7744 25.1384C49.6464 22.8884 46.6761 21.6284 43.6614 21.4934C41.8881 21.4034 40.1148 21.7634 38.4744 22.4384C35.7258 18.2534 31.1151 15.5984 26.1498 15.1934C25.9281 15.1934 25.6621 15.1484 25.3961 15.1484C25.1744 15.1484 24.9528 15.1484 24.7754 15.1484C20.1648 15.1934 15.6871 17.2184 12.6724 20.6384C11.9188 21.4934 11.2981 22.3934 10.7661 23.3834C10.7218 23.4284 10.7218 23.4734 10.6774 23.5184C9.08142 26.5334 8.50509 29.9534 9.03709 33.2834C7.61842 34.0034 6.42142 34.9934 5.49042 36.1634C5.00276 36.7934 4.60375 37.4234 4.29342 38.1434C4.11609 38.5484 3.93876 38.9984 3.80576 39.4484C3.40676 40.8434 3.27376 42.3284 3.53976 43.8584C4.20476 47.9534 7.66276 51.2384 11.6528 51.9134C12.8498 52.1384 14.0468 52.0934 15.2438 52.0934H51.1981C52.0848 52.0934 52.9714 52.0934 53.8581 52.0934C57.1831 52.0484 60.4194 50.4734 62.3258 47.7284C62.6804 47.1884 63.0351 46.6034 63.2568 46.0184C63.7444 44.8484 64.0104 43.6334 64.0548 42.3734C64.0548 42.3284 64.0548 42.2834 64.0548 42.1934C63.9661 42.1034 63.9661 42.0584 63.9661 42.0134ZM13.6921 49.8434C11.1208 49.8434 8.68242 48.8084 7.08642 46.7384C4.64809 43.5434 5.22442 39.0434 8.19476 36.4334C8.85976 35.8484 9.70209 35.3534 10.5444 35.0384C11.1208 34.8134 11.4754 34.2734 11.3424 33.6434C10.1454 28.2884 12.4951 22.7534 17.0171 19.7834C21.3174 16.9484 26.9921 16.6334 31.5584 19.0634C33.8638 20.3234 35.8144 22.1684 37.1444 24.4634C37.4548 25.0034 38.1198 25.1384 38.6518 24.8684C43.4398 22.3484 49.7351 24.2834 51.9961 29.3684C52.5724 30.6284 52.7941 32.0234 52.7054 33.4184C52.7054 34.0484 53.2374 34.5434 53.8138 34.5434C58.0254 34.5434 61.7494 37.8284 61.7938 42.2384C61.7494 46.3334 58.4244 49.6634 54.4344 49.8884C53.5921 49.9334 52.7498 49.8884 51.9074 49.8884H23.0908C19.9431 49.8434 16.7954 49.8434 13.6921 49.8434Z"
        fill="url(#paint7_linear_491_769)"></path>
    <path
        d="M89.9013 29.1432C91.3643 29.1432 92.6056 28.7832 93.6696 28.0182C94.7336 27.2982 95.4873 26.2182 95.9306 24.8232L100.674 25.5432C100.054 28.0632 98.768 29.9982 96.8173 31.4382C94.8666 32.8782 92.5613 33.5982 89.9456 33.5982C88.3496 33.5982 86.8866 33.3282 85.5123 32.7882C84.138 32.2482 82.941 31.4832 81.9213 30.4932C80.9016 29.5032 80.1036 28.2882 79.5273 26.8032C78.951 25.3182 78.6406 23.6982 78.6406 21.8982C78.6406 20.0982 78.9066 18.4782 79.5273 16.9932C80.1036 15.5082 80.9016 14.2932 81.9213 13.3032C82.941 12.3132 84.138 11.5482 85.5123 11.0082C86.8866 10.4682 88.3496 10.1982 89.9456 10.1982C92.5613 10.1982 94.8666 10.9182 96.8173 12.3582C98.768 13.7982 100.054 15.7332 100.674 18.2532L95.9306 18.9732C95.4873 17.5782 94.7336 16.4982 93.6696 15.7782C92.6056 15.0582 91.3643 14.6532 89.9013 14.6532C87.9506 14.6532 86.399 15.2832 85.202 16.5432C84.005 17.8032 83.3843 19.6032 83.3843 21.8532C83.3843 24.1032 84.005 25.9032 85.202 27.1632C86.399 28.5132 87.9506 29.1432 89.9013 29.1432Z"
        fill="#1D76BB"></path>
    <path d="M109.097 9.8833V33.3283H104.708V9.8833H109.097Z" fill="#1D76BB"></path>
    <path
        d="M126.255 32.5184C124.88 33.2384 123.373 33.5984 121.644 33.5984C119.915 33.5984 118.408 33.2384 117.078 32.5184C115.703 31.7984 114.639 30.7184 113.797 29.3234C112.955 27.9284 112.556 26.2634 112.556 24.3734C112.556 22.5284 112.955 20.8634 113.797 19.4684C114.639 18.0284 115.703 16.9934 117.078 16.2284C118.452 15.5084 119.959 15.1484 121.644 15.1484C123.329 15.1484 124.88 15.5084 126.255 16.2284C127.629 16.9484 128.693 18.0284 129.535 19.4684C130.378 20.9084 130.777 22.5284 130.777 24.3734C130.777 26.2634 130.378 27.8834 129.535 29.3234C128.693 30.7634 127.629 31.7984 126.255 32.5184ZM121.688 29.4134C123.107 29.4134 124.215 28.9634 125.102 28.0184C125.989 27.1184 126.432 25.8584 126.432 24.3734C126.432 22.8884 125.989 21.6734 125.102 20.7284C124.215 19.7834 123.063 19.3334 121.688 19.3334C120.314 19.3334 119.161 19.7834 118.275 20.7284C117.388 21.6734 116.945 22.8884 116.945 24.3734C116.945 25.9034 117.388 27.1184 118.275 28.0184C119.161 28.9634 120.314 29.4134 121.688 29.4134Z"
        fill="#1D76BB"></path>
    <path
        d="M139.156 15.4185V25.4985C139.156 28.3335 140.353 29.7735 142.791 29.7735C143.944 29.7735 144.919 29.3235 145.628 28.4685C146.338 27.6135 146.737 26.4885 146.737 25.1835V15.4185H151.126V33.3735H146.87L146.781 30.5835C145.894 32.6085 144.165 33.5985 141.594 33.5985C139.466 33.5985 137.781 32.9235 136.584 31.5735C135.387 30.2235 134.811 28.3785 134.811 26.0385V15.4185H139.156Z"
        fill="#1D76BB"></path>
    <path
        d="M169.347 9.8833H173.736V33.3283H169.391L169.302 30.0883C168.815 31.2133 168.061 32.0683 167.086 32.6983C166.11 33.3283 164.869 33.6433 163.45 33.6433C160.879 33.6433 158.795 32.7883 157.111 31.0783C155.426 29.3683 154.628 27.1633 154.628 24.4183C154.628 21.6733 155.47 19.4683 157.111 17.7583C158.795 16.0483 160.879 15.1933 163.45 15.1933C164.869 15.1933 166.11 15.5083 167.086 16.1383C168.061 16.7683 168.859 17.6233 169.347 18.7483V9.8833ZM160.48 28.0633C161.367 28.9633 162.475 29.4133 163.894 29.4133C165.312 29.4133 166.465 28.9633 167.307 28.0183C168.15 27.0733 168.637 25.8583 168.637 24.3733C168.637 22.8883 168.194 21.6733 167.307 20.7283C166.421 19.7833 165.268 19.3333 163.849 19.3333C162.431 19.3333 161.278 19.7833 160.391 20.6833C159.505 21.5833 159.106 22.7983 159.106 24.4183C159.15 25.9483 159.593 27.1633 160.48 28.0633Z"
        fill="#1D76BB"></path>
    <path
        d="M195.238 15.4182L187.834 35.1732C187.08 37.1982 185.839 38.5932 184.154 39.3132C182.47 40.0332 180.563 39.9432 178.435 39.1332L179.411 35.4882C179.81 35.6232 180.164 35.6682 180.475 35.7132C180.829 35.7582 181.184 35.7132 181.539 35.6682C181.893 35.6232 182.204 35.4432 182.47 35.2632C182.736 35.0832 182.957 34.7232 183.179 34.3182C183.401 33.9132 183.489 33.4182 183.578 32.8332L177.194 15.4632H181.982L186.194 28.7382L190.45 15.4632C190.45 15.3732 195.238 15.3732 195.238 15.4182Z"
        fill="#1D76BB"></path>
    <path d="M214.257 14.7432H203.572V19.9182H212.35V23.9232H203.572V33.3282H198.784V10.5132H214.257V14.7432Z"
        fill="#1D76BB"></path>
    <path
        d="M235.137 15.4182L227.733 35.1732C226.979 37.1982 225.738 38.5932 224.053 39.3132C222.369 40.0332 220.463 39.9432 218.335 39.1332L219.31 35.4882C219.664 35.6232 220.063 35.6682 220.374 35.7132C220.728 35.7582 221.083 35.7132 221.438 35.6682C221.793 35.6232 222.103 35.4432 222.369 35.2632C222.635 35.0832 222.856 34.7232 223.078 34.3182C223.3 33.9132 223.389 33.4182 223.433 32.8332L217.049 15.4632H221.837L226.048 28.7382L230.305 15.4632C230.349 15.3732 235.137 15.3732 235.137 15.4182Z"
        fill="#1D76BB"></path>
    <path
        d="M95.31 41.5181V44.1731H88.8373V62.4881H85.8227V44.1731H79.3057V41.5181C79.35 41.5181 95.31 41.5181 95.31 41.5181Z"
        fill="#F06724"></path>
    <path d="M97.3491 41.5181H100.364L106.526 58.5731L112.733 41.5181H115.792L108.211 62.4881H104.974L97.3491 41.5181Z"
        fill="#F06724"></path>
    <defs>
        <linearGradient id="paint0_linear_491_769" x1="1.72282" y1="20.3122" x2="65.3011" y2="20.3122"
            gradientUnits="userSpaceOnUse">
            <stop offset="0.014" stop-color="#1D76BB"></stop>
            <stop offset="1" stop-color="#14B1E7"></stop>
        </linearGradient>
        <linearGradient id="paint1_linear_491_769" x1="42.7407" y1="65.7013" x2="58.312" y2="65.7013"
            gradientUnits="userSpaceOnUse">
            <stop offset="0.014" stop-color="#1D76BB"></stop>
            <stop offset="1" stop-color="#14B1E7"></stop>
        </linearGradient>
        <linearGradient id="paint2_linear_491_769" x1="23.5153" y1="52.4142" x2="41.4765" y2="65.9795"
            gradientUnits="userSpaceOnUse">
            <stop offset="0.014" stop-color="#1D76BB"></stop>
            <stop offset="1" stop-color="#1D78BC"></stop>
        </linearGradient>
        <linearGradient id="paint3_linear_491_769" x1="60.3608" y1="25.6288" x2="65.1279" y2="13.8559"
            gradientUnits="userSpaceOnUse">
            <stop offset="0.014" stop-color="#1D76BB"></stop>
            <stop offset="1" stop-color="#14B1E7"></stop>
        </linearGradient>
        <linearGradient id="paint4_linear_491_769" x1="2.09647" y1="31.3035" x2="12.854" y2="31.3035"
            gradientUnits="userSpaceOnUse">
            <stop offset="0.014" stop-color="#1D76BB"></stop>
            <stop offset="1" stop-color="#14B1E7"></stop>
        </linearGradient>
        <linearGradient id="paint5_linear_491_769" x1="22.5412" y1="19.5583" x2="62.2196" y2="19.5583"
            gradientUnits="userSpaceOnUse">
            <stop offset="0.014" stop-color="#1D76BB"></stop>
            <stop offset="1" stop-color="#14B1E7"></stop>
        </linearGradient>
        <linearGradient id="paint6_linear_491_769" x1="21.6368" y1="56.5726" x2="62.2195" y2="56.5726"
            gradientUnits="userSpaceOnUse">
            <stop offset="0.014" stop-color="#1D76BB"></stop>
            <stop offset="1" stop-color="#14B1E7"></stop>
        </linearGradient>
        <linearGradient id="paint7_linear_491_769" x1="4.20263" y1="33.6174" x2="63.0811" y2="33.6174"
            gradientUnits="userSpaceOnUse">
            <stop offset="0.014" stop-color="#1D76BB"></stop>
            <stop offset="1" stop-color="#14B1E7"></stop>
        </linearGradient>
    </defs>
</svg>