<svg xmlns="http://www.w3.org/2000/svg" viewBox="0 0 128.57 54.1"><defs><style>.cls-1{fill:#8f82bc;}.cls-2{fill:#4d4586;}.cls-3{fill:#231815;}.cls-4{fill:#f6ab00;}</style></defs><title>exa_logo</title><g id="レイヤー_2" data-name="レイヤー 2"><g id="レイヤー_1-2" data-name="レイヤー 1"><path class="cls-1" d="M9.23,54.05c3.73,0,5.93-1.42,6.85-2.53l-2.59-3.34A4.86,4.86,0,0,1,9.63,50c-3.24,0-4.78-2.69-4.78-7.17,0-4.84,1.48-7,4.38-7a4.7,4.7,0,0,1,4,2l3.09-3.43c-.59-.64-2.5-2.53-6.76-2.53C3.24,31.82,0,36.33,0,43.15c0,6.45,2.59,10.9,9.23,10.9"/><path class="cls-2" d="M22.51,54a5.05,5.05,0,0,0,2-.38V50.37a3.13,3.13,0,0,1-.58.05c-.77,0-1.29-.38-1.29-1.54v-17l-4.16,1V50A3.72,3.72,0,0,0,22.51,54"/><path class="cls-2" d="M33.45,37.94c-5.16,0-7.17,3.33-7.17,8.13s1.68,8,7,8c5.15,0,7.19-3.34,7.19-8.13s-1.68-8-7-8m0,12.9c-2.1,0-2.9-1.71-2.9-4.94s.83-4.71,2.73-4.71c2.15,0,2.95,1.71,2.95,4.93s-.66,4.72-2.78,4.72"/><path class="cls-2" d="M42.68,38.22V48.66c0,3.69,1.59,5.43,4.93,5.43a4.89,4.89,0,0,0,4.1-1.74h.11l.58,1.43h3.53V38.22H51.77V49a2.84,2.84,0,0,1-2.7,1.87c-1.41,0-2.23-.88-2.23-2.59V38.22Z"/><path class="cls-2" d="M67.53,32.9v5.56A8.17,8.17,0,0,0,65,38.13c-3.28,0-6.81,2.13-6.81,8.68,0,5.07,2.4,7.22,5.68,7.22a5.34,5.34,0,0,0,3.8-1.51h.11l.66,1.26h3.26V31.88Zm.11,16.53a3,3,0,0,1-2.56,1.32c-1.6,0-2.7-1.26-2.7-4.3,0-4.21,1.49-5,3.2-5a3.82,3.82,0,0,1,2.06.55Z"/><path class="cls-3" d="M22.62,25.65h0a10.58,10.58,0,0,1,8.43-10.31l.14,0A10.91,10.91,0,0,1,33,15.12a2.46,2.46,0,0,1,.56.06c0-.14,0-.28,0-.42A10.54,10.54,0,0,1,53.84,10.7a6.33,6.33,0,0,1,1-.24v0c.32-.06.65-.11,1-.15l.31,0,.6,0h.41c.36,0,.71,0,1.06.07A10.54,10.54,0,1,1,46.42,20.8v-1l-4.22,1A14.76,14.76,0,1,0,57,6.05c-.31,0-.61,0-.91,0a14.75,14.75,0,0,0-26.28,5.22A14.75,14.75,0,0,0,18.46,25.65v4.81l4.16-1Z"/><polygon class="cls-4" points="118.33 19.88 113.51 30.25 108.54 22.13 101.68 23.71 93.71 32.58 96.36 32.8 104.02 26.09 111.79 34.04 115.85 34.36 128.57 17.53 118.33 19.88"/><polygon class="cls-4" points="84.08 22.71 87.07 28.1 90.53 27.25 119.11 5.11 105.36 4.2 89.63 24.84 86.95 17.62 81.08 17.31 75.7 30.88 77.58 30.42 84.08 22.71"/><polygon class="cls-2" points="97.54 53.8 99.8 48.89 99.91 48.89 102.5 53.8 107.14 53.8 102.39 45.8 106.92 38.21 102.03 38.21 100.21 42.79 100.1 42.79 97.62 38.21 92.98 38.21 97.62 45.74 92.71 53.8 97.54 53.8"/><path class="cls-2" d="M121,50.6c-.75,0-1.08-1-1.08-1.9V43.1c0-3.78-2.2-5.16-6.18-5.16a6.48,6.48,0,0,0-5.6,2.92l3,2.18a2.72,2.72,0,0,1,2.67-1.76A2,2,0,0,1,116,43.54v.58c-4.91-.25-8.14,1.4-8.14,5a4.75,4.75,0,0,0,4.61,4.94,4.66,4.66,0,0,0,4-1.74h.11A2.87,2.87,0,0,0,119.34,54a3.82,3.82,0,0,0,2.07-.52V50.6Zm-5-1.46a3,3,0,0,1-2.4,1.1,1.5,1.5,0,0,1-1.69-1.52c0-1.35,1.36-2,4.09-1.79Z"/><path class="cls-1" d="M85,35.86a4.68,4.68,0,0,1,4,2l3.09-3.43c-.59-.65-2.5-2.53-6.77-2.53-6.32,0-9.56,4.5-9.56,11.33,0,6.45,2.59,10.89,9.23,10.89,3.73,0,5.92-1.42,6.85-2.53l-2.59-3.33a4.9,4.9,0,0,1-3.86,1.82c-2.82,0-4.35-2-4.7-5.48,3.66,0,8.37.13,8.42.35a38,38,0,0,0,0-3.93c-.14.24-4.79.34-8.41.38.29-3.79,1.75-5.52,4.33-5.52"/></g></g></svg>