<svg width="224" height="50" viewBox="0 0 224 50" fill="none" xmlns="http://www.w3.org/2000/svg">
<path d="M71.23 36.42C73.918 36.42 76.144 35.748 78.454 34.53V27.768C76.018 29.784 74.002 30.456 71.818 30.456C68.248 30.456 66.022 28.44 66.022 25.542C66.022 22.56 68.248 20.586 71.692 20.586C73.666 20.586 75.808 21.342 78.454 23.358V16.47C76.144 15.252 73.834 14.622 71.104 14.622C64.09 14.622 59.302 19.368 59.302 25.584C59.302 31.8 64.216 36.42 71.23 36.42ZM93.2344 36.42C99.7864 36.42 104.91 31.842 104.91 25.584C104.91 19.284 99.7864 14.622 93.2344 14.622C86.7664 14.622 81.6004 19.284 81.6004 25.584C81.6004 31.842 86.7664 36.42 93.2344 36.42ZM93.2344 30.456C90.3364 30.456 88.3624 28.524 88.3624 25.584C88.3624 22.56 90.3364 20.586 93.2344 20.586C96.1744 20.586 98.1484 22.56 98.1484 25.584C98.1484 28.524 96.1744 30.456 93.2344 30.456ZM135.518 14.622C132.62 14.622 129.974 15.798 128.21 17.898C126.782 15.798 124.346 14.622 121.532 14.622C118.886 14.622 116.786 15.546 115.358 17.184V15.042H108.806V36H115.358V25.038C115.358 22.014 117.08 20.67 119.432 20.67C121.532 20.67 122.96 22.014 122.96 24.156V36H129.512V25.038C129.512 22.014 131.192 20.67 133.544 20.67C135.686 20.67 137.072 22.014 137.072 24.156V36H143.624V22.392C143.624 17.478 140.18 14.622 135.518 14.622ZM158.449 14.622C152.191 14.622 147.361 19.2 147.361 25.458C147.361 31.968 152.821 36.42 160.171 36.42C162.691 36.42 165.883 36 168.361 34.614V28.524C164.749 30.708 162.229 30.876 160.633 30.876C157.441 30.876 155.173 29.994 154.291 27.474H168.823C169.999 19.284 165.085 14.622 158.449 14.622ZM158.617 19.746C161.011 19.746 162.187 21.342 162.355 23.358H153.997C154.459 20.922 156.265 19.746 158.617 19.746ZM183.168 14.622C176.91 14.622 172.08 19.2 172.08 25.458C172.08 31.968 177.54 36.42 184.89 36.42C187.41 36.42 190.602 36 193.08 34.614V28.524C189.468 30.708 186.948 30.876 185.352 30.876C182.16 30.876 179.892 29.994 179.01 27.474H193.542C194.718 19.284 189.804 14.622 183.168 14.622ZM183.336 19.746C185.73 19.746 186.906 21.342 187.074 23.358H178.716C179.178 20.922 180.984 19.746 183.336 19.746ZM210.658 14.622C208.012 14.622 205.912 15.546 204.484 17.184V15.042H197.932V36H204.484V25.038C204.484 22.014 206.206 20.67 208.558 20.67C210.658 20.67 212.086 22.014 212.086 24.156V36H218.638V22.434C218.638 17.52 215.068 14.622 210.658 14.622Z" fill="#1D1D1B"/>
<path d="M26.4784 42.9872C21.3515 42.9872 16.4487 41.6148 12.3025 39.0182L8.86285 44.4992C14.0419 47.7415 20.1332 49.4548 26.4784 49.4548C32.8436 49.4548 38.9501 47.7319 44.1371 44.4721L40.6888 38.9966C36.5353 41.6075 31.622 42.9872 26.4784 42.9872Z" fill="#3F92CD"/>
<path d="M40.286 6.80275C43.1353 6.80275 45.5392 8.84955 46.003 11.6706C46.0632 12.0358 46.0921 12.3482 46.0921 12.625C46.0921 12.9035 46.0632 13.2159 46.003 13.5804L45.9677 13.8983C45.6525 18.544 43.6039 22.8234 40.2844 25.9962C36.9512 22.8122 34.9018 18.515 34.5977 13.8508L34.564 13.5435C34.508 13.191 34.4814 12.8898 34.4814 12.625C34.4814 12.3611 34.508 12.0609 34.564 11.7082H34.5632C35.0127 8.86558 37.4189 6.80275 40.286 6.80275V6.80275ZM6.92636 11.9087C7.28166 8.99751 9.75471 6.80275 12.6803 6.80275C15.6315 6.80275 18.1092 9.01857 18.4431 11.957C18.468 12.1768 18.4857 12.399 18.4857 12.625C18.4857 12.8529 18.468 13.0749 18.4431 13.2962L18.4246 13.5194C18.1976 18.3331 16.1274 22.7639 12.6851 26.03C9.25883 22.7784 7.18941 18.3709 6.94638 13.5837L6.92636 13.347C6.89824 13.1096 6.87571 12.8705 6.87571 12.625C6.87571 12.382 6.89824 12.1438 6.92636 11.9087V11.9087ZM46.1033 29.7919C49.9452 25.6284 52.2971 20.2736 52.7231 14.5157C52.8242 13.846 52.8731 13.2263 52.8731 12.625C52.8731 11.9763 52.8163 11.3059 52.6967 10.5751L52.6959 10.571C51.6913 4.44515 46.4725 0 40.286 0C34.061 0 28.8366 4.47818 27.8656 10.6475L27.8641 10.6499C27.7541 11.3574 27.6996 12.0028 27.6996 12.625C27.6996 13.2022 27.7461 13.7985 27.8408 14.4448C28.2485 20.1819 30.5673 25.5206 34.3676 29.6864C31.9105 30.592 29.0829 31.1296 26.4695 31.1296C23.8738 31.1296 21.0654 30.5992 18.6205 29.7058C22.5498 25.4151 24.888 19.8937 25.1937 13.9499C25.2426 13.4846 25.2666 13.05 25.2666 12.625C25.2666 12.1662 25.2385 11.6955 25.1808 11.1867C24.4563 4.80908 19.0827 0 12.6803 0C6.33419 0 0.96615 4.76388 0.194116 11.0814V11.0853C0.126715 11.6406 0.0947471 12.1454 0.0947471 12.625C0.0947471 13.071 0.122863 13.5362 0.179673 14.0455C0.508784 19.9991 2.88227 25.5293 6.84856 29.8112C4.68921 30.6805 2.37503 31.1296 0 31.1296V37.9331C4.51743 37.9331 8.86886 36.7339 12.7229 34.4658C16.6233 36.6277 21.6736 37.9331 26.4695 37.9331C31.2775 37.9331 36.339 36.6211 40.2459 34.448C44.1078 36.7281 48.4697 37.9331 53 37.9331V31.1296C50.6065 31.1296 48.2763 30.6741 46.1033 29.7919" fill="#1D1D1B"/>
</svg>
