<?xml version="1.0" encoding="UTF-8"?>
<svg xmlns="http://www.w3.org/2000/svg" viewBox="0 0 329 54">
  <g fill="none" fill-rule="nonzero">
    <path fill="#FFF" d="M9 .42h48.98v53.03H9z"></path>
    <path fill="#0099DA" d="M70.66.42H46.33C41.11 1.67 35 4.73 31.58 12c-6.53 13.77 6.22 24 6.77 24.39a3.642 3.642 0 01-4.46 5.76c-6.25-4.82-16.14-18-8.89-33.27a27.64 27.64 0 016-8.41H5.11A4.09 4.09 0 00.86 4.38v45.16a4.1 4.1 0 004.25 3.92H40a20.39 20.39 0 004.59-6.33c6.49-13.79-6.29-24-6.83-24.38A3.64 3.64 0 0142.21 17c6.26 4.81 16.19 17.94 9 33.25a30 30 0 01-1.77 3.23h21.22a4.11 4.11 0 004.26-3.92V4.33A4.1 4.1 0 0070.66.42z"></path>
    <path fill="#231F20" stroke="#231F20" stroke-width=".56" d="M101.29 13.17a13.88 13.88 0 00-6.21-1.54c-4.35 0-7.62 3-7.62 7s3.25 7 7.8 7a13.89 13.89 0 006.21-1.63v1.28a14.35 14.35 0 01-6.19 1.49C90 26.76 86 23.29 86 18.65c0-4.86 4.38-8.16 9.15-8.16a15.91 15.91 0 016.14 1.33v1.35zM113.22 26.76c-5.17 0-9.2-3.58-9.2-8.14 0-4.56 4-8.13 9.2-8.13 5.2 0 9.25 3.58 9.25 8.13 0 4.55-4.06 8.14-9.25 8.14zm0-15.13c-4.37 0-7.8 3-7.8 7s3.43 7 7.8 7c4.37 0 7.74-3 7.74-7s-3.32-7-7.69-7h-.05zM142.12 26.55H141L127.75 12.7v13.85h-1.35V10.7h1.15l13.21 13.85V10.7h1.36zM162 26.55h-1.13L147.63 12.7v13.85h-1.35V10.7h1.15l13.21 13.85V10.7H162zM176.2 11.72h-8.15v6.35H176v1h-7.95v6.43h8.35v1h-9.71V10.7h9.51zM194.37 13.17a13.88 13.88 0 00-6.21-1.54c-4.34 0-7.62 3-7.62 7s3.25 7 7.8 7a13.83 13.83 0 006.21-1.63v1.28a14.31 14.31 0 01-6.18 1.49c-5.32 0-9.29-3.47-9.29-8.11 0-4.86 4.38-8.16 9.16-8.16a15.9 15.9 0 016.13 1.33v1.34zM210.58 11.72H204v14.83h-1.35V11.72h-6.55v-1h14.44zM222.89 11.72h-8.15v6.35h7.95v1h-7.95v6.43h8.36v1h-9.71V10.7h9.5zM232.65 10.7c7.41 0 9.51 4.44 9.51 7.92 0 3.67-2.38 7.93-9.28 7.93h-6.34V10.7h6.11zm-4.75 14.82h4.9c4.2 0 7.9-2.44 7.9-6.9 0-4.06-3.24-6.9-8-6.9h-4.8v13.8z"></path>
    <path fill="#231F20" stroke="#231F20" stroke-width=".84" d="M258.61 14.82a14.45 14.45 0 00-5.52-1.42c-1.56 0-2.56.51-2.56 1.3 0 2.39 8.87 1.72 8.87 7.25 0 3-2.81 4.81-6.7 4.81a12.59 12.59 0 01-6.28-1.54v-3.41c2.5 1.51 4 2 5.95 2 1.66 0 2.56-.53 2.56-1.46 0-2.6-8.87-1.65-8.87-7.34 0-2.75 2.61-4.56 6.64-4.56a15.46 15.46 0 015.91 1.23v3.14zM268.68 26.55h-4.35V10.7h4.35zM290 15.26a16 16 0 00-6.52-1.47c-4.73 0-6.39 2.65-6.39 5 0 2.81 2.43 4.67 6 4.67a7.06 7.06 0 002.91-.56V21h-2.53v-2.9h6.87v6.48c-1.3 1.23-4.52 2.14-7.33 2.14-6.08 0-10.4-3.37-10.4-8.11 0-4.74 4.29-8.16 10.5-8.16a18.06 18.06 0 016.88 1.3l.01 3.51zM312.44 26.55h-3.65l-9.64-10.16v10.16h-4.34V10.7h4l9.3 9.69V10.7h4.34z"></path>
    <path fill="#939598" d="M88.23 43.47v-9h8.76c.377.014.751.06 1.12.14a2.19 2.19 0 011.76 1.53c.103.325.17.66.2 1 0 .37.06.91.06 1.65 0 .74 0 1.41-.07 1.83a5.15 5.15 0 01-.23 1.12 2.1 2.1 0 01-1.66 1.47 7 7 0 01-1.25.17h-2.19l-6.5.09zm2.7-2.3h3.82a11.75 11.75 0 001.56-.07 1.32 1.32 0 00.7-.24 1.08 1.08 0 00.32-.61 6.32 6.32 0 00.09-1.25 7.66 7.66 0 00-.08-1.26 1.26 1.26 0 00-.28-.65 1.11 1.11 0 00-.65-.31 12.08 12.08 0 00-1.68-.07h-3.8v4.46zM106.61 34.46h2.89v9h-2.89zM121.63 38.36h6.27v.24c0 1.28 0 2.23-.1 2.87a2 2 0 01-1.77 1.89 11.19 11.19 0 01-1.59.19c-.59 0-1.5.05-2.72.05a27.52 27.52 0 01-3.29-.13 3.49 3.49 0 01-1.52-.5 1.63 1.63 0 01-.59-.66 3.29 3.29 0 01-.29-1.06c-.03-.41-.03-1.25-.03-2.43 0-.82.02-1.44.06-1.86a4.49 4.49 0 01.26-1.12 2 2 0 011.68-1.27 27.23 27.23 0 014.25-.24c1.13 0 2 0 2.69.09a7.58 7.58 0 011.63.28 1.74 1.74 0 011.26 1.4c.078.486.114.978.11 1.47h-2.75a2.6 2.6 0 000-.52.46.46 0 00-.17-.23 2 2 0 00-1-.2h-2c-.87 0-1.63 0-2 .06a1.77 1.77 0 00-.84.25 1 1 0 00-.3.6 9.22 9.22 0 00-.08 1.44 11 11 0 00.08 1.59 1 1 0 00.3.64c.171.127.377.2.59.21.24 0 1 .05 2.27.07 1.27.02 2 0 2.28 0a2.43 2.43 0 00.64-.12.51.51 0 00.28-.28c.07-.189.1-.39.09-.59v-.25h-3.61l-.09-1.88zM134.41 34.46h2.88v9h-2.88zM143.32 34.46h10.9v2.3h-4v6.71h-2.88v-6.71h-4zM168.81 43.47l-.81-1.53h-6l-.77 1.53h-3.14l4.78-9h4.26l4.71 9h-3.03zM167.07 40l-1.73-3.41h-.55L163.05 40h4.02zM177.74 34.46h2.88v6.71H187v2.3h-9.29zM201.52 40.49h2.66c0 .44.09.72.27.85a1 1 0 00.52.15h4.09c.191 0 .38-.034.56-.1.2-.08.3-.31.3-.68a.6.6 0 00-.21-.54 1.89 1.89 0 00-.88-.14c-.34 0-1.05 0-2.15-.08l-2.19-.1a6.62 6.62 0 01-1.52-.18 1.7 1.7 0 01-.83-.51 2.93 2.93 0 01-.51-1.94 3.2 3.2 0 01.58-2.15 2.25 2.25 0 011.36-.62 31.85 31.85 0 013.73-.14 24.46 24.46 0 012.79.11 2.79 2.79 0 011.7.69c.36.509.526 1.13.47 1.75v.42h-2.66c0-.172-.02-.343-.06-.51a.41.41 0 00-.2-.23 1.51 1.51 0 00-.62-.13h-1.9a10.71 10.71 0 00-2.13.11.54.54 0 00-.39.6.52.52 0 00.39.58 27.1 27.1 0 002.91.17c1.45 0 2.42.09 2.92.15.409.034.807.15 1.17.34.319.187.565.476.7.82.151.478.22.979.2 1.48a4.08 4.08 0 01-.34 1.9 1.63 1.63 0 01-.72.68 3.71 3.71 0 01-1.29.3c-.59 0-1.7.08-3.32.08-1.35 0-2.35 0-3-.11a4 4 0 01-1.46-.37 1.57 1.57 0 01-.7-.77 4 4 0 01-.2-1.44l-.04-.44zM218.91 34.46h2.88v9h-2.88zM233.92 38.36h6.28v.24c0 1.28 0 2.23-.1 2.87a2 2 0 01-1.77 1.89c-.522.1-1.05.164-1.58.19-.6 0-1.51.05-2.73.05a27.52 27.52 0 01-3.29-.13 3.49 3.49 0 01-1.52-.5 1.7 1.7 0 01-.59-.66 3.31 3.31 0 01-.28-1.06 21.47 21.47 0 01-.08-2.43c-.01-.62.013-1.242.07-1.86a4.1 4.1 0 01.25-1.12 2 2 0 011.66-1.27 27.23 27.23 0 014.25-.24c1.14 0 2.04.03 2.7.09a7.69 7.69 0 011.63.28 1.73 1.73 0 011.25 1.4c.083.485.12.978.11 1.47h-2.74a2.38 2.38 0 000-.52.51.51 0 00-.16-.23 2 2 0 00-1-.2h-2c-.87 0-1.63 0-2 .06a1.68 1.68 0 00-.83.25 1 1 0 00-.31.6 9.22 9.22 0 00-.08 1.44 11 11 0 00.08 1.59 1.1 1.1 0 00.31.64 1 1 0 00.58.21c.24 0 1 .05 2.27.07 1.27.02 2 0 2.28 0a2.52 2.52 0 00.65-.12.55.55 0 00.28-.28c.06-.19.088-.39.08-.59v-.25h-3.61l-.06-1.88zM246.7 34.46h4.81l4.72 6.72h.28l-.07-6.72h2.79v9h-4.77l-4.73-6.72h-.3l.06 6.72h-2.79zM275.9 43.47l-.77-1.53h-6l-.77 1.53h-3.13l4.77-9h4.26l4.72 9h-3.08zM274.17 40l-1.74-3.41h-.55L270.15 40h4.02zM290.16 38.36h6.28v.24c0 1.28 0 2.23-.1 2.87a2 2 0 01-1.77 1.89c-.522.1-1.05.164-1.58.19-.6 0-1.51.05-2.73.05a27.52 27.52 0 01-3.29-.13 3.49 3.49 0 01-1.52-.5 1.7 1.7 0 01-.59-.66 3.07 3.07 0 01-.28-1.06 21.47 21.47 0 01-.08-2.43c0-.82.02-1.44.06-1.86a4.49 4.49 0 01.26-1.12 2 2 0 011.66-1.27 27.23 27.23 0 014.25-.24c1.14 0 2 0 2.69.09a7.58 7.58 0 011.63.28 1.74 1.74 0 011.26 1.4c.078.486.114.978.11 1.47h-2.75a2.6 2.6 0 000-.52.46.46 0 00-.17-.23 2 2 0 00-1-.2h-2c-.87 0-1.62 0-2 .06a1.77 1.77 0 00-.84.25 1 1 0 00-.3.6 9.22 9.22 0 00-.08 1.44 11 11 0 00.08 1.59 1.1 1.1 0 00.3.64c.171.127.377.2.59.21.24 0 1 .05 2.27.07 1.27.02 2 0 2.28 0 .218-.01.433-.05.64-.12a.48.48 0 00.28-.28c.07-.189.1-.39.09-.59v-.25h-3.61l-.04-1.88zM302.94 34.46h10v2.12h-7.27v1.3h6.9v2h-6.9v1.42H313v2.17h-10z"></path>
    <path fill="#231F20" d="M320.68 17.86V12.3h2.47a3.31 3.31 0 011.13.15c.26.104.477.29.62.53a1.6 1.6 0 01.23.84c.005.37-.13.727-.38 1a1.94 1.94 0 01-1.19.51c.16.076.31.17.45.28a4.3 4.3 0 01.61.74l1 1.51h-.92l-.74-1.15a8.65 8.65 0 00-.53-.77 1.59 1.59 0 00-.37-.37 1.14 1.14 0 00-.34-.15 1.94 1.94 0 00-.41 0h-.85v2.47l-.78-.03zm.74-3.11H323a2.37 2.37 0 00.79-.1.85.85 0 00.43-.33.91.91 0 00.15-.5.83.83 0 00-.29-.65 1.32 1.32 0 00-.9-.26h-1.76v1.84z"></path>
    <path fill="#231F20" d="M325.92 18.05h-1.36l-.79-1.24c-.22-.33-.39-.58-.53-.76a1.44 1.44 0 00-.32-.33.94.94 0 00-.28-.12 2.11 2.11 0 00-.37 0h-.67v2.47h-1.11v-5.96h2.66a3.44 3.44 0 011.2.17c.297.115.547.326.71.6a1.8 1.8 0 01.26.94c.009.417-.15.82-.44 1.12a1.9 1.9 0 01-.81.48h.06c.246.231.461.494.64.78l1.15 1.85zm-1.16-.37h.48l-.78-1.23a3.48 3.48 0 00-.58-.7 1.87 1.87 0 00-.4-.25l-.56-.27.62-.08a1.78 1.78 0 001.07-.46c.22-.235.34-.548.33-.87a1.44 1.44 0 00-.2-.74 1.12 1.12 0 00-.53-.46 3.15 3.15 0 00-1.06-.13h-2.28v5.19h.36v-2.47h1c.15-.014.3-.014.45 0 .142.033.277.09.4.17a2 2 0 01.42.41c.14.18.32.45.54.78l.72 1.11zM323 14.94h-1.77v-2.21h1.95a1.53 1.53 0 011 .3 1 1 0 01.35.79 1.11 1.11 0 01-.18.6 1 1 0 01-.53.41 2.74 2.74 0 01-.82.11zm-1.4-.37h1.4a2.32 2.32 0 00.73-.09.76.76 0 00.34-.26.83.83 0 00.11-.4.64.64 0 00-.22-.51 1.16 1.16 0 00-.78-.21h-1.58v1.47z"></path>
    <path fill="#231F20" d="M322.88 20.68a5.54 5.54 0 110-11.08 5.54 5.54 0 010 11.08zm0-9.95a4.42 4.42 0 100 8.84 4.42 4.42 0 000-8.84z"></path>
  </g>
</svg>
