<svg xmlns="http://www.w3.org/2000/svg" width="185" height="25" viewBox="0 0 185 25" fill="none"><path d="M0.941543 12.6922C-0.313848 11.4368 -0.313848 9.40102 0.941543 8.14451L1.31996 7.76609C1.73879 7.34726 2.41702 7.34726 2.83586 7.76609L4.73017 9.66041C5.14901 10.0792 5.14901 10.7575 4.73017 11.1763L2.83586 13.0706C2.41702 13.4895 1.73879 13.4895 1.31996 13.0706L0.941543 12.6922Z" fill="black"></path><path d="M5.48742 3.59806L3.59372 5.49176C3.17494 5.91054 3.17494 6.58952 3.59372 7.0083L5.48742 8.902C5.9062 9.32078 6.58518 9.32078 7.00396 8.902L8.89766 7.0083C9.31644 6.58952 9.31644 5.91054 8.89766 5.49176L7.00396 3.59806C6.58518 3.17928 5.9062 3.17928 5.48742 3.59806Z" fill="black"></path><path d="M7.76164 2.83586C7.3428 2.41702 7.3428 1.73879 7.76164 1.31996L8.14005 0.941543C9.39544 -0.313848 11.4312 -0.313848 12.6878 0.941543L13.0662 1.31996C13.485 1.73879 13.485 2.41702 13.0662 2.83586L11.1719 4.73017C10.753 5.14901 10.0748 5.14901 9.65595 4.73017L7.76164 2.83586Z" fill="black"></path><path d="M13.8241 3.59806L11.9304 5.49176C11.5116 5.91054 11.5116 6.58952 11.9304 7.0083L13.8241 8.902C14.2429 9.32078 14.9219 9.32078 15.3406 8.902L17.2343 7.0083C17.6531 6.58952 17.6531 5.91054 17.2343 5.49176L15.3406 3.59806C14.9219 3.17928 14.2429 3.17928 13.8241 3.59806Z" fill="black"></path><path d="M9.65636 7.76203L7.76267 9.65573C7.34389 10.0745 7.34389 10.7535 7.76267 11.1723L9.65636 13.066C10.0751 13.4848 10.7541 13.4848 11.1729 13.066L13.0666 11.1723C13.4854 10.7535 13.4854 10.0745 13.0666 9.65573L11.1729 7.76203C10.7541 7.34325 10.0751 7.34325 9.65636 7.76203Z" fill="black"></path><path d="M5.48742 11.9263L3.59372 13.82C3.17494 14.2388 3.17494 14.9178 3.59372 15.3365L5.48742 17.2302C5.9062 17.649 6.58518 17.649 7.00396 17.2302L8.89766 15.3366C9.31644 14.9178 9.31644 14.2388 8.89766 13.82L7.00396 11.9263C6.58518 11.5075 5.9062 11.5075 5.48742 11.9263Z" fill="black"></path><path d="M7.76164 19.5044C7.3428 19.0856 7.3428 18.4073 7.76164 17.9885L9.65595 16.0942C10.0748 15.6754 10.753 15.6754 11.1719 16.0942L13.0662 17.9885C13.485 18.4073 13.485 19.0856 13.0662 19.5044L12.6878 19.8828C11.4324 21.1382 9.39657 21.1382 8.14005 19.8828L7.76164 19.5044Z" fill="black"></path><path d="M13.8241 11.9263L11.9304 13.82C11.5116 14.2388 11.5116 14.9178 11.9304 15.3365L13.8241 17.2302C14.2429 17.649 14.9219 17.649 15.3406 17.2302L17.2343 15.3366C17.6531 14.9178 17.6531 14.2388 17.2343 13.82L15.3406 11.9263C14.9219 11.5075 14.2429 11.5075 13.8241 11.9263Z" fill="black"></path><path d="M16.0995 11.1763C15.6807 10.7575 15.6807 10.0792 16.0995 9.66041L17.9938 7.76609C18.4127 7.34726 19.0909 7.34726 19.5097 7.76609L19.8882 8.14451C21.1435 9.3999 21.1435 11.4357 19.8882 12.6922L19.5097 13.0706C19.0909 13.4895 18.4127 13.4895 17.9938 13.0706L16.0995 11.1763Z" fill="black"></path><path d="M35.9174 19.6066H32.8713V1.586H35.9174V9.39321L43.1359 1.586H46.8475L38.9379 10.2123L47.0011 19.6066H43.1615L35.9174 11.313V19.6066Z" fill="black"></path><path d="M56.049 6.5519H59.1975L52.1582 24.4957H49.0353L51.0575 19.3762L46.0404 6.5519H49.1889L52.6189 15.895L56.049 6.5519Z" fill="black"></path><path d="M67.3932 6.65429C69.1168 6.65429 70.5161 7.24303 71.5912 8.42051C72.6834 9.59799 73.2294 11.1936 73.2294 13.2072C73.2294 15.1014 72.6492 16.697 71.4888 17.9939C70.3455 19.2738 68.8267 19.9137 66.9325 19.9137C64.8164 19.9137 63.1611 19.2055 61.9666 17.7892C60.772 16.3557 60.1748 14.3676 60.1748 11.825C60.1748 8.70208 60.6696 6.33859 61.6594 4.73448C62.6492 3.11331 64.313 2.08942 66.6509 1.6628L71.9496 0.690094V3.35222L67.0861 4.14574C65.7379 4.38465 64.7482 4.871 64.1168 5.60479C63.4854 6.32152 63.1014 7.37955 62.9649 8.77887C63.9376 7.36248 65.4137 6.65429 67.3932 6.65429ZM66.7789 17.3796C67.854 17.3796 68.6987 16.9956 69.313 16.2277C69.9444 15.4427 70.2601 14.4359 70.2601 13.2072C70.2601 12.0127 69.9444 11.04 69.313 10.2891C68.6987 9.5212 67.8625 9.13724 66.8045 9.13724C65.7465 9.13724 64.8847 9.50413 64.2192 10.2379C63.5536 10.9547 63.2209 11.9274 63.2209 13.156C63.2209 14.4188 63.5366 15.4427 64.168 16.2277C64.8164 16.9956 65.6867 17.3796 66.7789 17.3796Z" fill="black"></path><path d="M87.0944 6.5519V19.6066H84.2275V10.9291L78.3145 19.6066H75.4988V6.5519H78.3657V15.255L84.2787 6.5519H87.0944Z" fill="black"></path><path d="M93.0284 19.6066H90.1103V6.5519H93.0284V11.9785L98.0455 6.5519H101.501L95.8697 12.6697L101.578 19.6066H98.0455L93.0284 13.5144V19.6066Z" fill="black"></path><path d="M108.467 1.586H112.229L117.989 15.5366L123.723 1.586H127.434V19.6066H124.542V6.5775L119.192 19.5298H116.735L111.385 6.5775V19.6066H108.467V1.586Z" fill="black"></path><path d="M142.237 13.924H133.048V13.9751C133.048 14.982 133.372 15.8182 134.02 16.4837C134.669 17.1492 135.514 17.482 136.555 17.482C137.271 17.482 137.86 17.3369 138.321 17.0468C138.799 16.7397 139.097 16.4154 139.217 16.0741H142.084C141.879 17.0639 141.299 17.9513 140.343 18.7363C139.404 19.5212 138.125 19.9137 136.503 19.9137C134.558 19.9137 132.997 19.3079 131.819 18.0963C130.642 16.8677 130.053 15.2038 130.053 13.1048C130.053 11.0058 130.633 9.34202 131.793 8.11334C132.954 6.8676 134.464 6.24473 136.324 6.24473C138.116 6.24473 139.549 6.83347 140.625 8.01095C141.7 9.18843 142.237 10.7584 142.237 12.7209V13.924ZM136.299 8.67648C135.377 8.67648 134.626 8.94952 134.046 9.4956C133.483 10.0417 133.159 10.784 133.073 11.7226H139.319C139.285 10.7669 138.995 10.0246 138.449 9.4956C137.92 8.94952 137.203 8.67648 136.299 8.67648Z" fill="black"></path><path d="M157.896 17.0468V22.883H155.08V19.6066H145.865V22.883H143.05V17.0468H144.099C144.867 16.6202 145.353 15.2635 145.558 12.9768L146.044 6.5519H156.002V17.0468H157.896ZM148.323 13.0792C148.169 15.0929 147.802 16.4154 147.222 17.0468H153.084V9.11164H148.63L148.323 13.0792Z" fill="black"></path><path d="M171.464 6.5519V19.6066H168.597V10.9291L162.684 19.6066H159.868V6.5519H162.735V15.255L168.648 6.5519H171.464Z" fill="black"></path><path d="M182.133 10.9547C182.133 10.2209 181.894 9.65772 181.417 9.26522C180.956 8.85567 180.342 8.65089 179.574 8.65089C178.191 8.65089 177.33 9.1543 176.988 10.1611H174.224C174.429 9.03485 175 8.10481 175.939 7.37102C176.894 6.62016 178.14 6.24473 179.676 6.24473C181.297 6.24473 182.586 6.66282 183.541 7.499C184.514 8.33519 185 9.50413 185 11.0058V19.6066H182.287V18.1219C181.331 19.3165 179.983 19.9137 178.243 19.9137C176.946 19.9137 175.862 19.5468 174.992 18.8131C174.138 18.0622 173.712 17.0639 173.712 15.8182C173.712 14.5212 174.173 13.5144 175.094 12.7977C176.033 12.0639 177.321 11.697 178.959 11.697H182.133V10.9547ZM178.883 17.5332C179.787 17.5332 180.555 17.2772 181.186 16.7653C181.818 16.2362 182.133 15.5451 182.133 14.6919V13.8984H179.164C178.396 13.8984 177.782 14.0605 177.321 14.3847C176.877 14.6919 176.656 15.1356 176.656 15.7158C176.656 16.296 176.86 16.7482 177.27 17.0724C177.679 17.3796 178.217 17.5332 178.883 17.5332Z" fill="black"></path></svg>