<svg class="icon brand" width="100" height="40" viewBox="0 0 100 40" fill="currentColor"
    xmlns="http://www.w3.org/2000/svg">
    <path
        d="M27.434 34.3857V0.0121384H22.2925V15.2564C21.1864 14.1303 19.8668 13.2362 18.4108 12.6267C16.9548 12.0172 15.3918 11.7044 13.8134 11.7066C6.06762 11.7066 0 17.8874 0 25.778C0.0126138 29.4317 1.47404 32.9313 4.06365 35.5089C6.65327 38.0865 10.1596 39.5316 13.8134 39.5272C14.9436 39.5003 16.0644 39.3138 17.1425 38.9731V33.7181C15.8301 34.2652 14.4032 34.481 12.9877 34.3464C11.5722 34.2119 10.2116 33.7311 9.02577 32.9466C7.83995 32.162 6.86538 31.0977 6.18799 29.8476C5.51061 28.5974 5.15122 27.1998 5.14151 25.778C5.14151 20.7707 8.9506 16.8481 13.8134 16.8481C18.6462 16.8481 22.2914 20.714 22.2925 25.8417C22.2921 25.8904 22.2907 25.9383 22.2889 25.9862L22.2865 35.79L22.3087 35.7678C22.4071 36.7958 22.8847 37.7503 23.6485 38.4453C24.4123 39.1403 25.4075 39.526 26.4402 39.5272H30.009V34.3857H27.434Z">
    </path>
    <path
        d="M59.6252 23.2171C54.3728 22.2728 53.6992 20.7719 53.6992 19.5696C53.6992 17.7157 55.8753 16.3179 58.761 16.3179C61.3086 16.3179 63.5194 17.4359 63.9036 18.9187L64.0002 19.2918H69.298L69.1343 18.6674C68.024 14.4361 63.9522 11.7018 58.761 11.7018C56.0899 11.7018 53.6159 12.3961 51.7947 13.6571C50.8117 14.296 50.0061 15.1731 49.453 16.2068C48.8998 17.2405 48.617 18.3973 48.6308 19.5696C48.6308 25.3666 53.9254 27.1259 58.5409 28.0112L59.0391 28.1026C62.2189 28.6799 64.4696 29.2686 64.4696 31.5942C64.4696 33.9619 61.7116 35.0401 59.149 35.0401C56.4555 35.0401 53.9945 33.9428 53.5462 32.5417L53.4353 32.1955H47.8853L48.0684 32.8312C49.2403 36.8988 53.5896 39.5268 59.149 39.5268C65.4793 39.5268 69.7324 36.339 69.7324 31.5942C69.7324 27.0306 66.6155 24.4473 59.6252 23.2171Z">
    </path>
    <path
        d="M39.7417 0C38.7869 0.00116727 37.8716 0.381003 37.1966 1.05618C36.5215 1.73135 36.1418 2.64672 36.1408 3.60148C36.1357 4.07577 36.2253 4.54632 36.4045 4.98551C36.5836 5.4247 36.8486 5.8237 37.184 6.1591C37.5194 6.4945 37.9184 6.75954 38.3576 6.93868C38.7968 7.11781 39.2674 7.20744 39.7417 7.2023C40.6964 7.20131 41.6118 6.82164 42.287 6.14658C42.9621 5.47153 43.342 4.55623 43.3431 3.60148C43.3306 2.6502 42.9472 1.7414 42.2744 1.06869C41.6017 0.395978 40.6929 0.012519 39.7417 0V0Z">
    </path>
    <path
        d="M38.4478 11.7017H34.9121V16.7704H37.498V39.5268H42.5666V15.8206C42.5654 14.7286 42.131 13.6817 41.3589 12.9095C40.5867 12.1373 39.5398 11.703 38.4478 11.7017V11.7017Z">
    </path>
    <path
        d="M78.4734 26.3162C78.7433 30.811 82.3491 34.3823 86.7428 34.3823C88.9472 34.3717 91.0611 33.5046 92.6379 31.9643L97.3367 33.9621C96.1403 35.6647 94.5551 37.0574 92.7127 38.0248C90.8702 38.9921 88.8237 39.5061 86.7428 39.5242C79.4457 39.5242 73.5088 33.3561 73.5088 25.7749C73.5088 18.0161 79.3028 11.6854 86.7428 11.7036C94.9248 11.7236 100.408 19.0412 99.9761 26.6034L99.9652 27.0988C99.6997 27.1186 99.4486 27.1381 99.169 27.1447H78.0586V22.3253H94.4403C93.3888 19.4958 90.5778 16.8373 86.7428 16.8451C85.2089 16.8669 83.7109 17.313 82.4151 18.1341C81.1192 18.9552 80.0761 20.1191 79.4013 21.4968C78.6764 22.9947 78.3565 24.6563 78.4734 26.3162V26.3162Z">
    </path>
</svg>