<svg enable-background="new 0 0 160 40" viewBox="0 0 160 40" xmlns="http://www.w3.org/2000/svg"><g transform="translate(48.926035 -568.16411)"><path d="m65.7 599.1s-.3.7-3.5.7-3.5-.7-3.5-.7v-20.2s0-.9 3.5-.9c3.4 0 3.5.9 3.5.9zm-7-25.2c0-1 .3-1.8.9-2.3s1.5-.8 2.8-.8 2.2.3 2.8.8.9 1.3.9 2.3c0 2-1.2 3.1-3.7 3.1-2.5-.1-3.7-1.1-3.7-3.1m-42.2-5.4v11.5c-1.8-.9-3.7-1.3-5.7-1.3-3.2 0-6 1-8.2 3.1-2.2 2-3.4 4.5-3.4 7.5s1.1 5.5 3.4 7.5c2.2 2 5 3.1 8.2 3.1s5.9-1 8.2-3.1c2.2-2.1 3.3-4.6 3.3-7.5l.1-17.5c-1.8-1.5-3.8-2.6-5.9-3.3zm-5.9 15.9c2.7 0 4.9 2.1 4.9 4.6s-2.2 4.6-4.9 4.6-4.9-2.1-4.9-4.6 2.3-4.6 4.9-4.6zm93.6 14.7v-11c0-1.3-.2-2.3-.6-3s-1-1-1.8-1c-1.2 0-2 .5-2.5 1.4s-.8 2.5-.8 4.8v8.8s-.5.7-3.5.7c-2.9 0-3.5-.7-3.5-.7v-20.2s.4-.6 2.6-.6 2.6.6 2.6.6l.9 2.5h.4c.6-.9 1.4-1.9 2.4-2.4s2.2-.7 3.6-.7c2.2 0 3.9.6 5.2 1.9 1.2 1.3 1.9 3.3 1.9 5.7v13.1s-.6.7-3.5.7c-2.8 0-3.4-.6-3.4-.6m-15.7-16.8-2.7 1c.4.7.6 1.5.6 2.4 0 2.2-.8 3.9-2.3 5.1s-3.8 1.8-6.8 1.8c-.7 0-1.3 0-1.8-.1-.2.3-.2.6-.2.9s.3.6.8.8c.6.2 1.3.3 2.2.3h3.3c4.5 0 6.7 1.9 6.7 5.7 0 2.5-1 4.4-3.1 5.7-2.1 1.4-5 2-8.7 2-2.8 0-5-.5-6.6-1.4-1.5-.9-2.3-2.3-2.3-4.1 0-2.4 1.5-4 4.4-4.7-.6-.3-1.1-.7-1.6-1.3-.4-.6-.7-1.2-.7-1.7 0-.6.2-1.2.5-1.7s1.1-1.1 2.1-1.7c-1-.5-1.9-1.2-2.5-2.2s-.9-2.2-.9-3.6c0-2.2.7-3.9 2.2-5.1s3.6-1.8 6.4-1.8c.4 0 1 0 1.9.1s1.6.2 2 .2h5.7s.9-.1 1.3 1.5c.6 1.5.1 1.9.1 1.9zm-15.1 19.3c0 .6.3 1 .9 1.4s1.4.5 2.5.5c1.7 0 3-.2 4-.6s1.5-1 1.5-1.6c0-.5-.3-.9-.9-1.1s-1.5-.3-2.6-.3h-2.7c-.7 0-1.4.2-1.9.5-.5.2-.8.7-.8 1.2m2.2-16.1c0 2.1.7 3.1 2.1 3.1.7 0 1.2-.3 1.5-.8.4-.5.5-1.3.5-2.3 0-2.1-.7-3.1-2.1-3.1-1.3 0-2 1-2 3.1m-21.5 7.7c0 2.2-.7 3.8-2.2 4.9s-3.6 1.7-6.3 1.7c-1.5 0-2.8-.1-3.9-.2-1.1-.2-2.2-.4-3.4-.9 0 0-1.6-.2-1.4-2.8.1-2.6 1.4-2.8 1.4-2.8.8.1.7.3 3.5 1.2 1.3.3 2.4.5 3.4.5 1.5 0 2.2-.3 2.2-1 0-.4-.2-.7-.6-.9-.4-.3-1.6-.8-3.6-1.6-1.8-.8-3.1-1.6-3.8-2.6s-1.1-2.2-1.1-3.7c0-1.9.7-3.3 2.2-4.4 1.4-1 3.5-1.6 6.1-1.6 1.3 0 2.6.1 3.7.4 1.2.3 2.4.7 3.6 1.3 0 0 .9 1.3.3 3-.7 1.7-2.1 1.5-2.1 1.5-.9-.4-1.9-.8-2.9-1-1-.3-1.9-.4-2.5-.4-1.1 0-1.7.3-1.7.8 0 .3.2.6.6.9.4.2 1.5.7 3.4 1.5 1.4.6 2.4 1.2 3.1 1.7.7.6 1.2 1.2 1.5 2 .3.5.5 1.4.5 2.5m-20.3 5.9s-.3.7-3.5.7-3.5-.7-3.5-.7v-20.2s0-.9 3.5-.9 3.5.9 3.5.9zm-7-25.2c0-1 .3-1.8.9-2.3s1.5-.8 2.8-.8 2.2.3 2.8.8.9 1.3.9 2.3c0 2-1.2 3.1-3.7 3.1-2.5-.1-3.7-1.1-3.7-3.1" fill="#000"/><path d="m-29.1 568.2c-11 0-19.8 9-19.8 20s8.9 20 19.8 20c11 0 19.8-9 19.8-20 0-6.5-3-12.2-7.7-15.9l-.1 18.1c0 3-1.1 5.6-3.4 7.7s-5.1 3.2-8.4 3.2c-3.4 0-6.2-1-8.5-3.1-.2-.2-.4-.4-.6-.6 1.7-1 3.4-2 5.2-3.1 1.1.8 2.3 1.3 3.8 1.3 1.6 0 3-.5 4.2-1.6 1.1-1.1 1.7-2.3 1.7-3.8s-.6-2.7-1.7-3.8c-1.2-1.1-2.5-1.6-4.1-1.6-1.3 0-2.5.3-3.5 1-1.8-1-3.5-2.1-5.3-3.1.1-.1.2-.2.3-.3 2.3-2.1 5.1-3.1 8.4-3.1 2.1 0 4.1.5 5.9 1.4l.1-11.8c-1.9-.6-4-.9-6.1-.9zm-12.8 16.5c.1 0 .2 0 .3.1l8.7 5c.3.2.3.5 0 .7l-8.7 5c-.3.2-.6 0-.6-.4v-10.1c-.1-.2.1-.3.3-.3z" fill="#ff3d0f" fill-opacity=".9412"/></g></svg>