<svg width="89" height="31" viewBox="0 0 89 31" fill="none" xmlns="http://www.w3.org/2000/svg">
    <path id="Union" fill-rule="evenodd" clip-rule="evenodd"
        d="M85.25 18.2504L85.2499 7.5L81.7499 7.50002L81.75 18.2504C81.75 21.9781 84.7719 25 88.4996 25V21.5C86.7049 21.5 85.25 20.0451 85.25 18.2504ZM42.25 17.5C42.25 15.1528 40.3472 13.25 38 13.25C35.6528 13.25 33.75 15.1528 33.75 17.5C33.75 19.8472 35.6528 21.75 38 21.75C40.3472 21.75 42.25 19.8472 42.25 17.5ZM42.25 7.50001V11.0182C41.0297 10.2164 39.5693 9.75001 38 9.75001C33.7198 9.75001 30.25 13.2198 30.25 17.5C30.25 21.7802 33.7198 25.25 38 25.25C42.2802 25.25 45.75 21.7802 45.75 17.5V7.50001H42.25ZM47.25 24.5V11.5H50.75V24.5H47.25ZM47.25 7.50001V10.5H50.75V7.50001H47.25ZM73.5 13.25C75.8472 13.25 77.75 15.1528 77.75 17.5C77.75 19.8472 75.8472 21.75 73.5 21.75C71.1528 21.75 69.25 19.8472 69.25 17.5C69.25 15.1528 71.1528 13.25 73.5 13.25ZM69.25 23.9818C70.4703 24.7836 71.9307 25.25 73.5 25.25C77.7802 25.25 81.25 21.7802 81.25 17.5C81.25 13.2198 77.7802 9.75001 73.5 9.75001C69.2198 9.75001 65.75 13.2198 65.75 17.5V26.5H69.25V23.9818ZM56.2745 13.6406C55.6523 13.9382 55.6248 14.203 55.6241 14.2102C55.608 14.3826 55.6442 14.45 55.6966 14.5191C55.7829 14.6329 55.9735 14.7995 56.3442 14.9847C56.9407 15.2827 57.5877 15.4502 58.2566 15.6233L58.2567 15.6233L58.2568 15.6234C58.4958 15.6853 58.7376 15.7479 58.9809 15.8174C59.0791 15.8455 59.2132 15.8797 59.3741 15.9207C60.0645 16.097 61.2495 16.3994 62.22 16.8843C62.8525 17.2003 63.5602 17.6644 64.0925 18.3665C64.6586 19.1132 64.9609 20.0468 64.8606 21.1164C64.703 22.7983 63.4888 23.9176 62.2355 24.5169C60.96 25.1268 59.3759 25.358 57.7732 25.2034C56.4949 25.0801 55.2886 24.7202 54.283 24.1648C53.2967 23.62 52.3848 22.8176 51.9033 21.7444L55.0967 20.3117C55.1719 20.4794 55.4137 20.7909 55.9753 21.1011C56.5177 21.4007 57.2536 21.6371 58.1092 21.7196C59.2002 21.8248 60.1254 21.6463 60.7255 21.3594C61.3477 21.0618 61.3752 20.797 61.3759 20.7898C61.392 20.6174 61.3558 20.55 61.3034 20.4809C61.2171 20.3671 61.0265 20.2005 60.6558 20.0153C60.0593 19.7173 59.4123 19.5499 58.7435 19.3767L58.7434 19.3767L58.7434 19.3767L58.7433 19.3767C58.5043 19.3148 58.2624 19.2522 58.0191 19.1826C57.921 19.1546 57.7872 19.1204 57.6265 19.0794L57.6262 19.0793L57.6259 19.0793C56.9355 18.903 55.7505 18.6006 54.78 18.1157C54.1475 17.7997 53.4398 17.3356 52.9075 16.6335C52.3414 15.8868 52.0391 14.9532 52.1394 13.8836C52.297 12.2017 53.5112 11.0824 54.7645 10.4831C56.04 9.87319 57.6241 9.64202 59.2268 9.79659C60.5051 9.91988 61.7114 10.2798 62.717 10.8352C63.7033 11.38 64.6152 12.1824 65.0967 13.2556L61.9033 14.6883C61.8281 14.5206 61.5863 14.2091 61.0247 13.8989C60.4823 13.5993 59.7464 13.3629 58.8908 13.2804C57.7998 13.1752 56.8746 13.3537 56.2745 13.6406Z"
        fill="currentColor"></path>
    <path id="bolt"
        d="M0 19.25L15 0.5L15 8.75C15 10.4069 16.3431 11.75 18 11.75H23.75L8.75 30.5L8.75 22.25C8.75 20.5931 7.40685 19.25 5.75 19.25H0Z"
        fill="#7047EB"></path>
</svg>