<?xml version="1.0" encoding="UTF-8"?>
<svg id="Layer_1" data-name="Layer 1" xmlns="http://www.w3.org/2000/svg" viewBox="0 0 2206.27 417.37">
  <path d="M0,120.47h114.09c24.15,0,46.91,3.12,68.29,9.37,21.38,6.25,39.97,15.55,55.8,27.9,15.82,12.36,28.32,27.55,37.48,45.6,9.16,18.05,13.74,38.87,13.74,62.46s-4.51,44.56-13.53,62.88c-9.02,18.32-21.38,33.8-37.06,46.43-15.69,12.63-34.22,22.21-55.59,28.73-21.38,6.53-44.42,9.79-69.12,9.79H0V120.47ZM113.68,355.74c15.54,0,30.33-1.8,44.35-5.41,14.02-3.6,26.3-9.09,36.85-16.45,10.55-7.35,18.95-16.58,25.19-27.69,6.24-11.1,9.37-24.01,9.37-38.73,0-15.83-2.78-29.84-8.33-42.06-5.56-12.21-13.4-22.49-23.52-30.81-10.14-8.33-22.28-14.57-36.44-18.74-14.16-4.17-29.98-6.25-47.47-6.25h-53.72v186.14h53.72Z"/>
  <rect x="341.45" y="120.47" width="54.97" height="293.15"/>
  <path d="M495.51,319.09l4.17,4.17c13.04,14.44,27.9,24.71,44.56,30.81,16.66,6.11,35.12,9.16,55.38,9.16,5.27,0,12.14-.41,20.61-1.25,8.46-.83,16.66-2.5,24.57-5,7.91-2.5,14.78-5.96,20.61-10.41,5.83-4.44,8.74-10.41,8.74-17.91,0-3.88-1.18-7.21-3.54-9.99-2.36-2.77-5.9-5.55-10.62-8.33-1.95-1.39-4.16-2.71-6.66-3.96-2.5-1.25-5.27-2.42-8.32-3.54-2.78-1.39-5.56-2.5-8.33-3.33-2.78-.83-5.56-1.67-8.33-2.5-9.99-3.05-20.13-5.97-30.4-8.75-10.27-2.77-20.4-5.55-30.39-8.33-9.16-2.22-18.26-4.65-27.28-7.28-9.02-2.64-17.98-5.62-26.86-8.96-9.17-3.88-17.98-8.39-26.45-13.53-8.47-5.13-15.34-12.14-20.61-21.03-3.61-5.55-6.25-11.45-7.92-17.7-1.66-6.24-2.5-12.42-2.5-18.53,0-15.83,4.17-28.73,12.49-38.73,8.33-10,18.67-17.76,31.02-23.32,12.35-5.55,25.82-9.3,40.39-11.24,14.57-1.94,28.11-2.92,40.6-2.92,11.1,0,22.49.62,34.15,1.87,11.66,1.25,23.04,3.48,34.15,6.66,11.1,3.2,21.86,7.29,32.27,12.28,10.41,5,19.91,11.24,28.52,18.74,1.38,1.39,2.84,2.64,4.37,3.75,1.52,1.11,2.98,2.36,4.37,3.75.83.56,1.66,1.11,2.5,1.67.83.56,1.67,1.25,2.5,2.08l5,3.75-50.38,44.14-8.75-9.16c-13.05-12.76-27.84-21.79-44.35-27.07-16.52-5.27-34.63-7.91-54.34-7.91-4.44,0-10.35.21-17.7.62-7.36.42-14.57,1.46-21.65,3.13-7.08,1.66-13.26,4.23-18.53,7.7-5.28,3.47-7.91,8.4-7.91,14.78,0,3.33,1.31,6.39,3.96,9.16,2.63,2.78,5.68,5.27,9.16,7.49,3.47,2.22,7.15,4.16,11.04,5.83,3.88,1.66,7.07,2.92,9.58,3.75,7.49,2.78,15.89,5.41,25.19,7.91,9.3,2.5,18.95,4.93,28.94,7.29,10,2.36,20.2,4.86,30.6,7.49,10.41,2.64,20.33,5.62,29.77,8.95,9.71,3.33,18.95,7.36,27.69,12.07,8.75,4.73,16.45,10.28,23.11,16.66,6.66,6.39,11.93,13.81,15.82,22.28,3.88,8.47,5.83,18.26,5.83,29.36s-2.08,20.33-6.24,28.52c-4.17,8.19-9.79,15.34-16.87,21.45-7.08,6.11-15.27,11.18-24.57,15.2-9.31,4.02-18.95,7.28-28.94,9.78-10,2.5-19.99,4.23-29.98,5.21-10,.97-19.3,1.46-27.9,1.46-26.38,0-51.84-3.82-76.41-11.45-24.57-7.63-46.16-20.75-64.75-39.35l-3.75-4.17,49.55-43.31Z"/>
  <path d="M779.92,120.47h187.38c14.16,0,27.48,1.87,39.97,5.62,12.49,3.75,23.38,9.3,32.69,16.66,9.3,7.36,16.59,16.45,21.87,27.28,5.27,10.83,7.91,23.18,7.91,37.06s-2.64,26.31-7.91,37.27c-5.28,10.97-12.49,20.19-21.66,27.69-9.16,7.49-19.99,13.26-32.48,17.28-12.49,4.03-25.96,6.04-40.39,6.04h-127v118.26h-60.38V120.47ZM968.14,238.31c.27,0,1.8-.27,4.58-.83,3.88-.55,7.7-1.59,11.45-3.12,3.75-1.52,7.22-3.54,10.41-6.04,3.19-2.5,5.76-5.41,7.7-8.75,1.94-3.33,2.92-7.08,2.92-11.24,0-11.66-3.2-21.03-9.58-28.11-6.39-7.08-15.82-10.62-28.32-10.62h-127v68.71h127.84Z"/>
  <polygon points="1117.21 120.47 1177.59 120.47 1177.59 364.07 1407.03 364.07 1407.03 413.62 1117.21 413.62 1117.21 120.47"/>
  <path d="M1418.69,267.46c0-23.32,4.3-44.27,12.91-62.88,8.6-18.59,20.61-34.42,36.02-47.47,15.4-13.05,33.58-23.04,54.55-29.98,20.95-6.93,43.93-10.41,68.91-10.41s47.95,3.54,68.91,10.62c20.96,7.08,39.07,17.14,54.35,30.19,15.26,13.05,27.2,28.88,35.81,47.47,8.6,18.61,12.9,39.42,12.9,62.46s-4.31,43.79-12.9,62.26c-8.61,18.46-20.55,34.21-35.81,47.25-15.27,13.05-33.46,23.05-54.55,29.98-21.1,6.94-44,10.42-68.71,10.42s-47.61-3.47-68.71-10.42c-21.1-6.93-39.35-16.86-54.76-29.77-15.41-12.9-27.42-28.66-36.02-47.26-8.61-18.59-12.91-39.41-12.91-62.46M1478.65,257.46c0,15.27,3.19,29.56,9.58,42.89,6.38,13.32,15.06,24.98,26.03,34.97,10.97,10,23.87,17.84,38.73,23.53,14.85,5.69,30.74,8.54,47.68,8.54,14.71,0,28.32-2.08,40.81-6.25,12.49-4.16,23.38-10.13,32.69-17.9,9.3-7.77,16.59-17.08,21.86-27.9,5.27-10.83,7.91-23.04,7.91-36.64,0-14.99-2.99-29.28-8.95-42.89-5.97-13.6-14.23-25.61-24.78-36.02-10.55-10.41-23.04-18.67-37.48-24.78-14.44-6.1-29.98-9.16-46.63-9.16-14.44,0-28.18,2.23-41.23,6.66-13.05,4.44-24.5,10.76-34.35,18.94-9.85,8.19-17.64,17.91-23.32,29.15-5.69,11.24-8.54,23.53-8.54,36.85"/>
  <polygon points="1889.65 307.44 1758.48 120.47 1820.94 120.47 1909.63 247.05 1997.5 120.47 2070.37 120.47 1940.45 308.27 1940.45 413.62 1889.65 413.62 1889.65 307.44"/>
  <path d="M2150.49,111.57c-30.76,0-55.78-25.02-55.78-55.78S2119.73,0,2150.49,0s55.78,25.02,55.78,55.78-25.02,55.78-55.78,55.78ZM2150.49,3.57c-28.79,0-52.22,23.42-52.22,52.22s23.42,52.22,52.22,52.22,52.22-23.42,52.22-52.22-23.42-52.22-52.22-52.22Z"/>
  <g>
    <path d="M2125.61,39.39h-12.3v-4.44h29.94v4.44h-12.36v36h-5.28v-36Z"/>
    <path d="M2181.82,57.63c-.3-5.64-.66-12.42-.6-17.46h-.18c-1.38,4.74-3.06,9.78-5.1,15.36l-7.14,19.62h-3.96l-6.54-19.26c-1.92-5.7-3.54-10.92-4.68-15.72h-.12c-.12,5.04-.42,11.82-.78,17.88l-1.08,17.34h-4.98l2.82-40.44h6.66l6.9,19.56c1.68,4.98,3.06,9.42,4.08,13.62h.18c1.02-4.08,2.46-8.52,4.26-13.62l7.2-19.56h6.66l2.52,40.44h-5.1l-1.02-17.76Z"/>
  </g>
</svg>