<svg xmlns="http://www.w3.org/2000/svg" id="night" viewBox="0 0 387.11 81.75"><defs><style>.cls-1{fill:#ff3a00;}.cls-2{fill:#243843;}</style></defs><path class="cls-1" d="m280.13,66.01c-4.41,0-7.83,3.51-7.83,7.92s3.42,7.83,7.83,7.83,7.92-3.42,7.92-7.83-3.51-7.92-7.92-7.92"></path><path class="cls-2" d="m33.93,31.85c-2.44-3.26-6.33-5.43-10.86-5.43-6.88,0-11.31,5.7-11.31,12.03,0,6.88,4.98,11.94,11.58,11.94,4.43,0,8.32-2.17,10.59-5.43v-13.12Zm.45,28.5v-3.53c-3.62,3.08-7.78,4.43-12.21,4.43-6.51,0-12.67-2.9-16.56-7.42-3.44-3.98-5.61-9.41-5.61-15.38C0,25.51,9.59,15.56,21.53,15.56c4.8,0,8.96,1.36,12.39,4.07V.3h11.76v60.04h-11.31Z"></path><path class="cls-2" d="m74.89,50.39c6.88,0,11.58-5.34,11.58-11.94s-4.7-12.03-11.58-12.03-11.58,5.43-11.58,12.03,4.71,11.94,11.58,11.94m0-34.83c13.3,0,23.34,10.22,23.34,22.89s-10.04,22.8-23.34,22.8-23.34-10.13-23.34-22.8,10.04-22.89,23.34-22.89"></path><path class="cls-2" d="m126.34,50.39c6.88,0,11.58-5.34,11.58-11.94s-4.7-12.03-11.58-12.03-11.58,5.43-11.58,12.03,4.71,11.94,11.58,11.94m0-34.83c13.3,0,23.34,10.22,23.34,22.89s-10.04,22.8-23.34,22.8-23.34-10.13-23.34-22.8,10.04-22.89,23.34-22.89"></path><path class="cls-2" d="m167.31,60.34h-11.76V.3h11.76v19.33c3.26-2.53,7.42-4.07,11.94-4.07,6.06,0,11.58,2.71,15.2,7.06,2.9,3.44,4.52,7.87,4.52,15.38v22.34h-11.76v-23.25c0-4.34-.99-6.6-2.62-8.23-1.54-1.54-3.89-2.44-6.6-2.44-4.98,0-9.05,3.17-10.68,5.43v28.5Z"></path><path class="cls-2" d="m248.57,51.26c-5.17,6.9-11.71,9.89-19.97,9.89-13.61,0-23.6-10.17-23.6-22.87s10.26-22.96,23.69-22.96c7.62,0,14.43,3.54,18.52,8.81l-8.35,7.35c-2.36-3.09-5.9-5.26-10.17-5.26-6.81,0-11.89,5.35-11.89,12.07s4.99,11.98,12.16,11.98c4.81,0,8.62-2.9,10.53-5.81l9.08,6.81Z"></path><rect class="cls-2" x="253.95" y="0" width="11.8" height="60.25"></rect><rect class="cls-2" x="274.28" y="18.06" width="11.8" height="42.19"></rect><path class="cls-2" d="m335.64,51.26c-5.17,6.9-11.71,9.89-19.97,9.89-13.61,0-23.6-10.17-23.6-22.87s10.26-22.96,23.69-22.96c7.62,0,14.43,3.54,18.52,8.81l-8.35,7.35c-2.36-3.09-5.9-5.26-10.17-5.26-6.81,0-11.89,5.35-11.89,12.07s4.99,11.98,12.16,11.98c4.81,0,8.62-2.9,10.53-5.81l9.08,6.81Z"></path><polygon class="cls-2" points="362.88 36.01 387.11 60.25 371.23 60.25 352.62 41.19 352.62 60.25 340.82 60.25 340.82 0 352.62 0 352.62 30.48 367.78 16.23 384.39 16.23 362.88 36.01"></polygon></svg>