<svg xmlns="http://www.w3.org/2000/svg" width="260" height="46" viewBox="0 0 1078 187" fill="none"><path d="M0.444707 143V4.40888H50.806C65.9014 4.40888 78.5242 7.53206 88.6745 13.7784C98.8249 19.8947 106.438 28.2231 111.513 38.7639C116.588 49.1745 119.126 60.7563 119.126 73.5092C119.126 87.5636 116.328 99.796 110.732 110.207C105.136 120.617 97.1982 128.685 86.9178 134.411C76.7674 140.137 64.7302 143 50.806 143H0.444707ZM91.9929 73.5092C91.9929 64.5301 90.3663 56.6571 87.113 49.8902C83.8596 42.9932 79.1749 37.6577 73.0586 33.8839C66.9424 29.9799 59.5249 28.0279 50.806 28.0279H27.3821V119.381H50.806C59.655 119.381 67.1376 117.429 73.2538 113.525C79.3701 109.491 83.9898 104.025 87.113 97.1283C90.3663 90.1011 91.9929 82.2281 91.9929 73.5092ZM184.872 144.952C176.544 144.952 169.061 143.586 162.425 140.853C155.788 137.99 150.127 134.086 145.442 129.141C140.888 124.196 137.374 118.535 134.902 112.159C132.429 105.782 131.193 99.0803 131.193 92.0531C131.193 84.8958 132.429 78.1289 134.902 71.7525C137.374 65.376 140.888 59.7152 145.442 54.7702C150.127 49.8251 155.788 45.9862 162.425 43.2534C169.061 40.3905 176.544 38.9591 184.872 38.9591C193.201 38.9591 200.618 40.3905 207.125 43.2534C213.762 45.9862 219.423 49.8251 224.107 54.7702C228.792 59.7152 232.306 65.376 234.648 71.7525C237.121 78.1289 238.357 84.8958 238.357 92.0531C238.357 99.0803 237.121 105.782 234.648 112.159C232.306 118.535 228.792 124.196 224.107 129.141C219.553 134.086 213.957 137.99 207.32 140.853C200.684 143.586 193.201 144.952 184.872 144.952ZM158.13 92.0531C158.13 98.0392 159.301 103.375 161.644 108.059C163.986 112.614 167.174 116.193 171.209 118.795C175.243 121.398 179.797 122.699 184.872 122.699C189.817 122.699 194.307 121.398 198.341 118.795C202.375 116.063 205.564 112.419 207.906 107.864C210.378 103.179 211.615 97.844 211.615 91.8579C211.615 86.002 210.378 80.7316 207.906 76.0468C205.564 71.3621 202.375 67.7183 198.341 65.1157C194.307 62.513 189.817 61.2117 184.872 61.2117C179.797 61.2117 175.243 62.5781 171.209 65.3109C167.174 67.9135 163.986 71.5573 161.644 76.242C159.301 80.7967 158.13 86.067 158.13 92.0531ZM315.779 137.73C313.567 138.641 310.899 139.682 307.776 140.853C304.653 142.024 301.269 142.935 297.626 143.586C294.112 144.366 290.533 144.757 286.89 144.757C282.075 144.757 277.65 143.911 273.616 142.219C269.582 140.527 266.329 137.86 263.856 134.216C261.514 130.442 260.343 125.562 260.343 119.576V60.8213H246.874V40.7158H260.343V7.53207H286.499V40.7158H307.971V60.8213H286.499V110.792C286.629 114.306 287.605 116.843 289.427 118.405C291.249 119.967 293.526 120.747 296.259 120.747C298.992 120.747 301.66 120.292 304.262 119.381C306.865 118.47 308.947 117.689 310.509 117.039L315.779 137.73ZM414.509 40.7158C413.598 39.8049 411.906 38.5687 409.433 37.0071C407.091 35.4455 404.163 33.949 400.649 32.5175C397.266 31.086 393.557 29.8498 389.523 28.8087C385.489 27.6375 381.39 27.0519 377.226 27.0519C369.938 27.0519 364.408 28.4183 360.634 31.1511C356.99 33.8839 355.168 37.7228 355.168 42.6678C355.168 46.4417 356.339 49.4347 358.682 51.647C361.024 53.8592 364.538 55.7462 369.222 57.3077C373.907 58.8693 379.763 60.5611 386.79 62.3829C395.9 64.5952 403.773 67.3279 410.409 70.5813C417.176 73.7044 422.316 77.8687 425.83 83.074C429.474 88.1492 431.296 94.916 431.296 103.375C431.296 110.792 429.929 117.169 427.196 122.504C424.464 127.709 420.69 131.939 415.875 135.192C411.06 138.445 405.594 140.853 399.478 142.414C393.362 143.846 386.855 144.562 379.958 144.562C373.061 144.562 366.164 143.846 359.267 142.414C352.37 140.983 345.734 138.966 339.357 136.363C332.981 133.63 327.125 130.377 321.789 126.603L333.696 103.375C334.867 104.546 336.95 106.107 339.943 108.059C342.936 109.881 346.579 111.768 350.874 113.72C355.168 115.542 359.853 117.104 364.928 118.405C370.003 119.706 375.143 120.357 380.349 120.357C387.636 120.357 393.167 119.121 396.941 116.648C400.714 114.176 402.601 110.662 402.601 106.107C402.601 101.943 401.105 98.6899 398.112 96.3475C395.119 94.0051 390.955 91.9881 385.619 90.2963C380.284 88.4745 373.972 86.5225 366.685 84.4404C357.966 81.9679 350.679 79.2351 344.823 76.242C338.967 73.1188 334.607 69.2149 331.744 64.5301C328.881 59.8453 327.45 53.9894 327.45 46.9622C327.45 37.4625 329.662 29.5245 334.087 23.148C338.641 16.6413 344.758 11.7614 352.435 8.50806C360.113 5.12461 368.637 3.43289 378.006 3.43289C384.513 3.43289 390.629 4.14862 396.355 5.58007C402.211 7.01153 407.677 8.89846 412.752 11.2408C417.827 13.5832 422.382 16.1208 426.416 18.8536L414.509 40.7158ZM449.114 143V40.7158H475.27V143H449.114ZM449.114 26.4663V0.504912H475.27V26.4663H449.114ZM538.882 143.586C532.115 143.586 525.869 142.284 520.143 139.682C514.547 136.949 509.667 133.175 505.503 128.36C501.469 123.545 498.346 118.015 496.134 111.768C493.921 105.522 492.815 98.8851 492.815 91.8579C492.815 84.4404 493.986 77.5434 496.329 71.1669C498.671 64.7904 501.925 59.1947 506.089 54.3798C510.383 49.4347 515.393 45.6609 521.119 43.0582C526.975 40.3255 533.417 38.9591 540.444 38.9591C548.382 38.9591 555.344 40.7809 561.33 44.4246C567.316 47.9382 572.261 52.688 576.165 58.6741V40.7158H599.003V138.12C599.003 148.27 596.531 156.924 591.586 164.081C586.771 171.369 580.069 176.9 571.48 180.673C562.892 184.577 553.132 186.529 542.201 186.529C531.139 186.529 521.77 184.642 514.092 180.869C506.414 177.225 499.842 172.02 494.377 165.253L508.626 151.394C512.53 156.208 517.41 159.982 523.266 162.715C529.252 165.448 535.564 166.814 542.201 166.814C547.796 166.814 552.871 165.773 557.426 163.691C562.111 161.739 565.82 158.616 568.552 154.322C571.415 150.157 572.847 144.757 572.847 138.12V125.237C569.463 131.093 564.648 135.648 558.402 138.901C552.286 142.024 545.779 143.586 538.882 143.586ZM547.666 122.699C550.529 122.699 553.262 122.244 555.864 121.333C558.467 120.422 560.875 119.186 563.087 117.624C565.299 116.063 567.251 114.241 568.943 112.159C570.634 109.946 571.936 107.734 572.847 105.522V81.122C571.285 77.0879 569.073 73.5743 566.21 70.5813C563.477 67.5882 560.354 65.3109 556.84 63.7493C553.457 62.0576 549.878 61.2117 546.105 61.2117C542.07 61.2117 538.427 62.0576 535.173 63.7493C531.92 65.441 529.122 67.8485 526.78 70.9717C524.437 73.9647 522.616 77.3482 521.314 81.122C520.143 84.7657 519.557 88.6046 519.557 92.6387C519.557 96.803 520.273 100.707 521.705 104.351C523.136 107.994 525.088 111.183 527.561 113.915C530.163 116.648 533.156 118.795 536.54 120.357C540.053 121.919 543.762 122.699 547.666 122.699ZM717.643 143H691.486V85.6116C691.486 77.4132 690.055 71.4271 687.192 67.6533C684.329 63.8794 680.36 61.9925 675.285 61.9925C671.771 61.9925 668.193 62.9034 664.549 64.7253C661.035 66.5472 657.847 69.0847 654.984 72.3381C652.121 75.4612 650.039 79.1049 648.738 83.2692V143H622.581V40.7158H646.2V59.6501C648.803 55.2256 652.121 51.5168 656.155 48.5238C660.19 45.4006 664.809 43.0582 670.015 41.4966C675.35 39.8049 680.946 38.9591 686.802 38.9591C693.178 38.9591 698.383 40.1303 702.418 42.4726C706.582 44.6849 709.705 47.743 711.787 51.647C713.999 55.4208 715.496 59.7152 716.277 64.5301C717.188 69.345 717.643 74.225 717.643 79.17V143ZM733.36 112.744C733.36 106.107 735.181 100.317 738.825 95.3715C742.599 90.2963 747.804 86.3924 754.441 83.6596C761.078 80.9268 768.691 79.5604 777.279 79.5604C781.574 79.5604 785.933 79.8857 790.358 80.5364C794.782 81.1871 798.621 82.2281 801.874 83.6596V78.194C801.874 71.6874 799.922 66.6773 796.018 63.1637C792.245 59.6501 786.584 57.8933 779.036 57.8933C773.44 57.8933 768.105 58.8693 763.03 60.8213C757.955 62.7733 752.619 65.6362 747.023 69.4101L738.63 52.2326C745.397 47.8081 752.294 44.4897 759.321 42.2774C766.478 40.0652 773.961 38.9591 781.769 38.9591C796.344 38.9591 807.665 42.6028 815.733 49.8902C823.932 57.1776 828.031 67.5882 828.031 81.122V113.72C828.031 116.453 828.486 118.405 829.397 119.576C830.438 120.747 832.065 121.463 834.277 121.723V143C831.935 143.39 829.788 143.716 827.836 143.976C826.014 144.236 824.452 144.366 823.151 144.366C817.946 144.366 813.977 143.195 811.244 140.853C808.641 138.51 807.015 135.648 806.364 132.264L805.778 126.994C801.354 132.72 795.823 137.144 789.186 140.267C782.55 143.39 775.783 144.952 768.886 144.952C762.119 144.952 756.003 143.586 750.537 140.853C745.202 137.99 740.972 134.151 737.849 129.336C734.856 124.391 733.36 118.86 733.36 112.744ZM796.994 118.015C798.426 116.453 799.597 114.891 800.508 113.33C801.419 111.768 801.874 110.337 801.874 109.035V98.6899C798.751 97.3886 795.368 96.4126 791.724 95.7619C788.08 94.9811 784.632 94.5907 781.378 94.5907C774.612 94.5907 769.016 96.0872 764.591 99.0803C760.297 101.943 758.15 105.782 758.15 110.597C758.15 113.2 758.866 115.672 760.297 118.015C761.728 120.357 763.811 122.244 766.543 123.675C769.276 125.107 772.529 125.823 776.303 125.823C780.207 125.823 784.046 125.107 787.82 123.675C791.594 122.114 794.652 120.227 796.994 118.015ZM892.489 143.586C885.722 143.586 879.476 142.284 873.75 139.682C868.154 136.949 863.275 133.175 859.11 128.36C855.076 123.545 851.953 118.015 849.741 111.768C847.528 105.522 846.422 98.8851 846.422 91.8579C846.422 84.4404 847.594 77.5434 849.936 71.1669C852.278 64.7904 855.532 59.1947 859.696 54.3798C863.99 49.4347 869 45.6609 874.726 43.0582C880.582 40.3255 887.024 38.9591 894.051 38.9591C901.989 38.9591 908.951 40.7809 914.937 44.4246C920.923 47.9382 925.868 52.688 929.772 58.6741V40.7158H952.61V138.12C952.61 148.27 950.138 156.924 945.193 164.081C940.378 171.369 933.676 176.9 925.087 180.673C916.499 184.577 906.739 186.529 895.808 186.529C884.746 186.529 875.377 184.642 867.699 180.869C860.021 177.225 853.45 172.02 847.984 165.253L862.233 151.394C866.137 156.208 871.017 159.982 876.873 162.715C882.859 165.448 889.171 166.814 895.808 166.814C901.403 166.814 906.479 165.773 911.033 163.691C915.718 161.739 919.427 158.616 922.159 154.322C925.022 150.157 926.454 144.757 926.454 138.12V125.237C923.07 131.093 918.256 135.648 912.009 138.901C905.893 142.024 899.386 143.586 892.489 143.586ZM901.273 122.699C904.136 122.699 906.869 122.244 909.472 121.333C912.074 120.422 914.482 119.186 916.694 117.624C918.906 116.063 920.858 114.241 922.55 112.159C924.242 109.946 925.543 107.734 926.454 105.522V81.122C924.892 77.0879 922.68 73.5743 919.817 70.5813C917.084 67.5882 913.961 65.3109 910.448 63.7493C907.064 62.0576 903.485 61.2117 899.712 61.2117C895.678 61.2117 892.034 62.0576 888.78 63.7493C885.527 65.441 882.729 67.8485 880.387 70.9717C878.045 73.9647 876.223 77.3482 874.921 81.122C873.75 84.7657 873.165 88.6046 873.165 92.6387C873.165 96.803 873.88 100.707 875.312 104.351C876.743 107.994 878.695 111.183 881.168 113.915C883.77 116.648 886.763 118.795 890.147 120.357C893.66 121.919 897.369 122.699 901.273 122.699ZM1023.62 144.952C1015.42 144.952 1008.01 143.586 1001.37 140.853C994.732 137.99 989.071 134.151 984.387 129.336C979.702 124.391 976.058 118.795 973.456 112.549C970.983 106.173 969.747 99.4707 969.747 92.4435C969.747 82.6836 971.894 73.7695 976.188 65.7013C980.613 57.6331 986.859 51.1915 994.927 46.3766C1003.13 41.4316 1012.76 38.9591 1023.82 38.9591C1035.01 38.9591 1044.57 41.4316 1052.51 46.3766C1060.45 51.1915 1066.5 57.6331 1070.66 65.7013C1074.96 73.6394 1077.11 82.2281 1077.11 91.4675C1077.11 93.0291 1077.04 94.6558 1076.91 96.3475C1076.78 97.9091 1076.65 99.2104 1076.52 100.251H997.465C997.986 105.457 999.482 110.011 1001.95 113.915C1004.56 117.819 1007.81 120.812 1011.71 122.895C1015.75 124.847 1020.04 125.823 1024.6 125.823C1029.8 125.823 1034.68 124.586 1039.24 122.114C1043.92 119.511 1047.11 116.128 1048.8 111.963L1071.25 118.21C1068.78 123.415 1065.2 128.035 1060.51 132.069C1055.96 136.103 1050.56 139.291 1044.31 141.634C1038.07 143.846 1031.17 144.952 1023.62 144.952ZM996.879 83.6596H1050.36C1049.84 78.4543 1048.35 73.9647 1045.87 70.1909C1043.53 66.2869 1040.41 63.2938 1036.5 61.2117C1032.6 58.9995 1028.24 57.8933 1023.43 57.8933C1018.74 57.8933 1014.45 58.9995 1010.54 61.2117C1006.77 63.2938 1003.65 66.2869 1001.17 70.1909C998.831 73.9647 997.4 78.4543 996.879 83.6596Z" fill="url(#paint0_linear_1215_666)"></path><defs><linearGradient id="paint0_linear_1215_666" x1="-82.084" y1="-21.6311" x2="149.759" y2="719.583" gradientUnits="userSpaceOnUse"><stop stop-color="#343455"></stop><stop offset="0.307292" stop-color="#8B28A7"></stop><stop offset="0.614583" stop-color="#F96925"></stop><stop offset="1" stop-color="#F50C51"></stop></linearGradient></defs></svg>