<svg xmlns="http://www.w3.org/2000/svg" xmlns:xlink="http://www.w3.org/1999/xlink" id="Laag_1" x="0px" y="0px" width="2000px" height="2000px" viewBox="0 0 2000 2000" xml:space="preserve"><g>	<defs>		<rect id="SVGID_1_" width="2000" height="2000"></rect>	</defs>	<clipPath id="SVGID_2_">		<use xlink:href="#SVGID_1_"></use>	</clipPath>	<path clip-path="url(#SVGID_2_)" fill="#2854FD" d="M386.491,1058.796h0.434c1.454,0.015,2.908,0.031,4.363,0.036  c4.242,0.015,8.484,0.03,12.726,0.036c7.345,0.011,14.69,0.014,22.036,0.02c2.981,0.002,5.963,0.024,8.945,0  c3.645-0.029,6.805-2.407,7.891-5.893c0.269-0.863,0.385-1.746,0.383-2.65c-0.029-11.418-0.053-22.835-0.08-34.252  c-0.01-4.388-0.023-8.775-0.038-13.163c-0.001-0.265,0,0-0.007-0.796c-4.02,0.021-8.073,0.01-12.093,0.071  c-3.608,0.055-7.215,0.177-10.821,0.291c-2.13,0.068-4.26,0.163-6.388,0.275c-2.95,0.156-5.898,0.335-8.847,0.513  c-1.765,0.107-3.529,0.216-5.292,0.348c-2.124,0.159-4.247,0.341-6.37,0.516c-1.617,0.133-3.25,0.3-4.867,0.436  c-0.009,0.194-0.014,0.387-0.028,0.581c-0.175,2.416-0.363,4.831-0.523,7.248c-0.166,2.49-0.321,4.981-0.452,7.473  c-0.164,3.097-0.313,6.194-0.444,9.293c-0.11,2.614-0.204,5.23-0.274,7.845c-0.083,3.125-0.144,6.25-0.193,9.376  c-0.037,2.326-0.045,4.652-0.056,6.978C386.487,1055.171,386.491,1057.003,386.491,1058.796"></path>	<path clip-path="url(#SVGID_2_)" fill="#2854FD" d="M388.466,1004.584c-0.797,0.067-1.594,0.127-2.39,0.202  c-1.134,0.106-2.267,0.217-3.399,0.337c-1.566,0.167-3.131,0.342-4.696,0.516c-1.468,0.164-2.937,0.322-4.405,0.499  c-1.827,0.219-3.654,0.45-5.479,0.685c-1.586,0.204-3.171,0.413-4.754,0.633c-1.871,0.261-3.741,0.532-5.61,0.806  c-1.749,0.257-3.498,0.516-5.244,0.791c-1.986,0.312-3.965,0.667-5.953,0.96c-2.73,0.401-5.241,1.356-7.536,2.88  c-2.148,1.426-3.967,3.18-5.322,5.388c-0.729,1.188-1.262,2.458-1.491,3.837c-0.182,1.098-0.325,2.204-0.461,3.31  c-0.223,1.803-0.439,3.607-0.636,5.413c-0.189,1.734-0.368,3.469-0.52,5.207c-0.14,1.593-0.237,3.189-0.352,4.784  c-0.202,2.829-0.335,5.661-0.412,8.496c-0.029,1.065-0.276,8.042-0.276,9.123c0.193,0.004,0.387,0.011,0.58,0.012  c3.875,0.037,7.75,0.079,11.625,0.106c6.879,0.049,13.758,0.095,20.637,0.13c7.896,0.04,15.792,0.067,23.689,0.097  c0.144,0.001,0,0,0.43,0c0-1.793-0.004-3.625,0.004-5.418c0.012-2.326,0.02-4.652,0.057-6.978c0.049-3.126,0.11-6.251,0.193-9.376  c0.07-2.615,0.164-5.231,0.274-7.845c0.131-3.098,0.279-6.196,0.443-9.293c0.132-2.492,0.287-4.983,0.453-7.473  c0.16-2.417,0.348-4.832,0.523-7.248C388.452,1004.972,388.457,1004.778,388.466,1004.584"></path>	<path clip-path="url(#SVGID_2_)" fill="#2854FD" d="M443.145,1002.134c0-0.87,0.001-0.58,0-0.87  c-0.042-9.284-0.081-18.568-0.13-27.852c-0.048-9.09-0.106-18.18-0.159-27.27c-0.001-0.194,0.003-0.388-0.007-0.581  c-0.007-0.137-0.086-0.222-0.23-0.228c-0.193-0.007-0.387-0.012-0.581-0.014c-2.982-0.03-5.962,0.073-8.943,0.149  c-1.138,0.028-2.277,0.079-3.414,0.155c-2.587,0.173-5.173,0.361-7.759,0.557c-0.918,0.07-1.833,0.178-2.749,0.273  c-0.237,0.024-0.288,0.075-0.307,0.32c-0.06,0.797-0.114,1.595-0.169,2.393c-0.113,1.644-0.224,3.288-0.337,4.933  c-0.125,1.813-0.259,3.626-0.376,5.439c-0.123,1.911-0.233,3.823-0.347,5.734c-0.139,2.347-0.276,4.694-0.415,7.04  c-0.039,0.654-0.078,1.307-0.122,1.96c-0.016,0.236-0.066,0.285-0.302,0.324c-0.095,0.015-0.192,0.024-0.289,0.031  c-1.425,0.111-2.851,0.214-4.276,0.333c-1.28,0.107-2.559,0.22-3.837,0.348c-1.615,0.162-3.229,0.338-4.842,0.517  c-1.421,0.157-2.842,0.317-4.26,0.496c-1.706,0.215-3.41,0.448-5.114,0.681c-0.864,0.118-1.725,0.26-2.588,0.378  c-0.398,0.054-0.444,0.066-0.494,0.482c-0.116,0.962-0.222,1.925-0.328,2.889c-0.164,1.493-0.329,2.986-0.487,4.48  c-0.184,1.734-0.365,3.469-0.54,5.205c-0.117,1.157-0.225,2.315-0.333,3.473c-0.175,1.882-0.354,3.764-0.518,5.647  c-0.145,1.665-0.29,3.362-0.425,5.028c1.616-0.136,3.249-0.303,4.866-0.436c2.124-0.175,4.246-0.357,6.371-0.516  c1.763-0.132,3.527-0.241,5.291-0.348c2.949-0.178,5.898-0.357,8.848-0.513c2.128-0.112,4.257-0.207,6.387-0.275  c3.607-0.114,7.214-0.236,10.822-0.291C435.071,1002.144,439.125,1002.155,443.145,1002.134"></path></g><g>	<defs>		<polygon id="SVGID_3_" points="863.454,975.108 863.454,978.906 909.23,978.906 909.23,1109.589 913.409,1109.589    913.409,978.906 959.186,978.906 959.186,975.108   "></polygon>	</defs>	<clipPath id="SVGID_4_">		<use xlink:href="#SVGID_3_"></use>	</clipPath>			<linearGradient id="SVGID_5_" gradientUnits="userSpaceOnUse" x1="0" y1="1999.8759" x2="1" y2="1999.8759" gradientTransform="matrix(92.2182 -92.2182 -92.2182 -92.2182 185301.5781 185501.9375)">		<stop offset="0" style="stop-color:#370EE7"></stop>		<stop offset="0.27" style="stop-color:#341CEC"></stop>		<stop offset="0.7816" style="stop-color:#2C42F7"></stop>		<stop offset="1" style="stop-color:#2854FD"></stop>	</linearGradient>	<polygon clip-path="url(#SVGID_4_)" fill="url(#SVGID_5_)" points="796.214,1042.349 911.32,927.242 1026.426,1042.349   911.32,1157.455  "></polygon></g><g>	<defs>		<path id="SVGID_6_" d="M962.605,1049.851c1.392-4.369,3.577-8.548,6.554-12.537c2.973-3.988,6.805-7.342,11.491-10.066   c4.683-2.723,10.319-4.085,16.905-4.085c5.443,0,10.382,0.92,14.815,2.754c4.432,1.838,8.231,4.435,11.398,7.788   c3.164,3.357,5.665,7.378,7.502,12.062c1.835,4.686,2.816,9.877,2.944,15.575h-73.698   C960.516,1058.052,961.21,1054.22,962.605,1049.851 M981.469,1022.879c-5.078,2.217-9.488,5.35-13.234,9.402   c-3.745,4.055-6.696,8.865-8.853,14.435c-2.157,5.575-3.235,11.653-3.235,18.235c0,6.838,1.044,13.172,3.134,18.995   c2.09,5.826,5.064,10.827,8.927,15.006c3.862,4.179,8.453,7.44,13.772,9.782c5.318,2.341,11.206,3.513,17.664,3.513   c7.598,0,14.276-1.456,20.04-4.368c5.761-2.912,10.794-7.152,15.1-12.726l-3.038-2.659c-3.927,5.193-8.549,9.15-13.867,11.871   c-5.318,2.725-11.396,4.084-18.235,4.084c-6.713,0-12.536-1.264-17.474-3.799c-4.939-2.532-9.022-5.855-12.252-9.973   c-3.229-4.113-5.636-8.766-7.218-13.96c-1.585-5.191-2.374-10.447-2.374-15.766h78.067v-3.609c0-5.19-0.824-10.286-2.475-15.29   c-1.65-5-4.158-9.465-7.52-13.392c-3.366-3.923-7.586-7.089-12.662-9.497c-5.077-2.403-11.043-3.609-17.896-3.609   C992.003,1019.554,986.544,1020.664,981.469,1022.879"></path>	</defs>	<clipPath id="SVGID_7_">		<use xlink:href="#SVGID_6_"></use>	</clipPath>			<linearGradient id="SVGID_8_" gradientUnits="userSpaceOnUse" x1="0" y1="2000.0183" x2="1" y2="2000.0183" gradientTransform="matrix(63.3354 -63.3354 -63.3354 -63.3354 127638.0703 127768.8594)">		<stop offset="0" style="stop-color:#370EE7"></stop>		<stop offset="0.27" style="stop-color:#341CEC"></stop>		<stop offset="0.7816" style="stop-color:#2C42F7"></stop>		<stop offset="1" style="stop-color:#2854FD"></stop>	</linearGradient>	<polygon clip-path="url(#SVGID_7_)" fill="url(#SVGID_8_)" points="909.8,1065.901 997.27,978.431 1084.74,1065.9 997.27,1153.37    "></polygon></g><g>	<defs>		<path id="SVGID_9_" d="M1149.131,1026.488c-6.078,4.623-10.384,11.239-12.916,19.85h-0.38c-0.635-3.799-1.647-7.315-3.039-10.543   c-1.395-3.229-3.229-6.045-5.508-8.453c-2.28-2.404-5.1-4.304-8.453-5.698c-3.357-1.391-7.313-2.09-11.872-2.09   c-3.546,0-6.998,0.57-10.352,1.71c-3.357,1.14-6.458,2.819-9.307,5.033c-2.849,2.218-5.413,4.91-7.693,8.073   c-2.279,3.167-4.053,6.776-5.318,10.827h-0.38c0-1.644-0.033-3.513-0.095-5.603c-0.065-2.09-0.128-4.241-0.19-6.459   c-0.065-2.213-0.128-4.274-0.19-6.172c-0.065-1.9-0.16-3.482-0.285-4.749h-4.179c0.125,1.267,0.253,2.849,0.38,4.749   c0.125,1.898,0.219,3.894,0.285,5.982c0.062,2.09,0.125,4.149,0.19,6.175c0.062,2.026,0.095,3.735,0.095,5.128v65.341h4.179   v-43.687c0-6.711,0.854-12.694,2.564-17.951c1.709-5.252,4.051-9.716,7.028-13.391c2.974-3.671,6.458-6.487,10.448-8.452   c3.988-1.962,8.262-2.945,12.82-2.945c5.191,0,9.465,1.111,12.821,3.325c3.355,2.217,5.984,4.971,7.884,8.263   c1.899,3.293,3.196,6.965,3.893,11.016c0.695,4.054,1.045,7.852,1.045,11.397v52.425h4.179v-43.687   c0-6.711,0.884-12.694,2.659-17.951c1.772-5.252,4.146-9.716,7.123-13.391c2.973-3.671,6.458-6.487,10.447-8.452   c3.989-1.962,8.263-2.945,12.821-2.945c5.191,0,9.497,1.111,12.916,3.325c3.419,2.217,6.141,4.971,8.169,8.263   c2.023,3.293,3.447,6.965,4.273,11.016c0.822,4.054,1.235,7.852,1.235,11.397v52.425h4.178v-52.805   c0-4.559-0.507-9.052-1.519-13.487c-1.015-4.43-2.692-8.419-5.034-11.965c-2.344-3.544-5.509-6.394-9.497-8.548   c-3.989-2.152-8.898-3.23-14.721-3.23C1162.11,1019.554,1155.209,1021.867,1149.131,1026.488"></path>	</defs>	<clipPath id="SVGID_10_">		<use xlink:href="#SVGID_9_"></use>	</clipPath>			<linearGradient id="SVGID_11_" gradientUnits="userSpaceOnUse" x1="0" y1="2000.0066" x2="1" y2="2000.0066" gradientTransform="matrix(101.5493 -101.5493 -101.5493 -101.5493 204179.0469 204218.7031)">		<stop offset="0" style="stop-color:#370EE7"></stop>		<stop offset="0.27" style="stop-color:#341CEC"></stop>		<stop offset="0.7816" style="stop-color:#2C42F7"></stop>		<stop offset="1" style="stop-color:#2854FD"></stop>	</linearGradient>	<polygon clip-path="url(#SVGID_10_)" fill="url(#SVGID_11_)" points="1023.956,1064.572 1134.79,953.738 1245.623,1064.572   1134.79,1175.405  "></polygon></g><g>	<defs>		<path id="SVGID_12_" d="M1266.365,1105.22c-4.865-2.28-9.064-5.348-12.602-9.212c-3.538-3.861-6.319-8.388-8.339-13.581   c-2.022-5.192-3.032-10.7-3.032-16.525c0-5.823,1.01-11.332,3.032-16.526c2.02-5.19,4.801-9.717,8.339-13.581   c3.538-3.861,7.737-6.934,12.602-9.212c4.861-2.28,10.2-3.42,16.012-3.42c6.059,0,11.523,1.173,16.388,3.515   c4.864,2.344,9.002,5.478,12.412,9.401c3.41,3.927,6.031,8.486,7.865,13.678c1.831,5.193,2.748,10.636,2.748,16.334   s-0.917,11.144-2.748,16.336c-1.834,5.193-4.455,9.72-7.865,13.581c-3.41,3.864-7.548,6.932-12.412,9.212   c-4.865,2.28-10.329,3.419-16.388,3.419C1276.565,1108.639,1271.226,1107.5,1266.365,1105.22 M1259.355,1026.203   c-7.01,4.434-12.412,11.017-16.202,19.754h-0.594v-23.743h-4.345v132.961h4.369v-69.14h0.57c1.641,4.307,3.852,8.073,6.633,11.303   c2.778,3.228,5.873,5.953,9.286,8.167c3.41,2.217,7.106,3.894,11.085,5.033c3.98,1.139,8.055,1.709,12.225,1.709   c6.316,0,12.156-1.172,17.529-3.513c5.369-2.342,9.98-5.57,13.833-9.687c3.852-4.113,6.853-8.99,9.001-14.626   c2.15-5.633,3.224-11.744,3.224-18.33c0-6.711-1.045-12.916-3.128-18.614c-2.084-5.699-5.055-10.605-8.907-14.72   c-3.853-4.114-8.464-7.344-13.834-9.688c-5.372-2.342-11.277-3.515-17.718-3.515   C1274.043,1019.554,1266.365,1021.772,1259.355,1026.203"></path>	</defs>	<clipPath id="SVGID_13_">		<use xlink:href="#SVGID_12_"></use>	</clipPath>			<linearGradient id="SVGID_14_" gradientUnits="userSpaceOnUse" x1="6.159871e-07" y1="1999.8344" x2="1" y2="1999.8344" gradientTransform="matrix(99.0852 -99.0852 -99.0852 -99.0852 199380.1562 199297.1094)">		<stop offset="0" style="stop-color:#370EE7"></stop>		<stop offset="0.27" style="stop-color:#341CEC"></stop>		<stop offset="0.7816" style="stop-color:#2C42F7"></stop>		<stop offset="1" style="stop-color:#2854FD"></stop>	</linearGradient>	<polygon clip-path="url(#SVGID_13_)" fill="url(#SVGID_14_)" points="1170.403,1087.365 1282.091,975.677 1393.779,1087.365   1282.091,1199.052  "></polygon></g><g>	<defs>		<rect id="SVGID_15_" x="1357.118" y="965.99" width="4.179" height="143.599"></rect>	</defs>	<clipPath id="SVGID_16_">		<use xlink:href="#SVGID_15_"></use>	</clipPath>			<linearGradient id="SVGID_17_" gradientUnits="userSpaceOnUse" x1="-4.956263e-06" y1="2000" x2="1" y2="2000" gradientTransform="matrix(73.8885 -73.8885 -73.8885 -73.8885 149099.3125 148851.7812)">		<stop offset="0" style="stop-color:#370EE7"></stop>		<stop offset="0.27" style="stop-color:#341CEC"></stop>		<stop offset="0.7816" style="stop-color:#2C42F7"></stop>		<stop offset="1" style="stop-color:#2854FD"></stop>	</linearGradient>	<polygon clip-path="url(#SVGID_16_)" fill="url(#SVGID_17_)" points="1285.318,1037.79 1359.208,963.901 1433.096,1037.79   1359.208,1111.678  "></polygon></g><g>	<defs>		<path id="SVGID_18_" d="M1414.006,1107.5c-2.976-0.761-5.698-1.962-8.167-3.61c-2.47-1.644-4.497-3.829-6.078-6.552   c-1.585-2.723-2.375-6.109-2.375-10.163c0-5.571,1.425-10.002,4.274-13.297c2.849-3.291,6.488-5.823,10.921-7.597   c4.432-1.772,9.308-2.943,14.626-3.514c5.319-0.57,10.382-0.854,15.196-0.854h13.487v8.357c0,4.307-0.508,8.708-1.521,13.201   c-1.014,4.496-2.818,8.614-5.413,12.347c-2.597,3.736-6.048,6.807-10.352,9.212c-4.306,2.407-9.687,3.609-16.145,3.609   C1419.799,1108.639,1416.98,1108.258,1414.006,1107.5 M1412.677,1022.309c-5.128,1.837-9.72,4.529-13.771,8.072l2.279,3.23   c3.544-3.164,7.565-5.698,12.062-7.598c4.493-1.899,9.337-2.85,14.531-2.85c8.357,0,15.13,2.25,20.324,6.744   c5.191,4.497,7.788,11.619,7.788,21.369v7.027h-15.196c-4.559,0-9.592,0.319-15.101,0.95c-5.508,0.635-10.67,1.994-15.48,4.085   c-4.814,2.089-8.833,5.032-12.062,8.831c-3.229,3.799-4.844,8.803-4.844,15.006c0,4.307,0.855,8.043,2.565,11.207   c1.709,3.166,3.956,5.763,6.743,7.787c2.784,2.027,5.917,3.544,9.402,4.559c3.481,1.012,6.995,1.519,10.542,1.519   c7.09,0,13.739-1.931,19.944-5.792c6.203-3.862,10.571-9.783,13.107-17.76h0.569c0,1.266,0.03,2.849,0.095,4.748   c0.063,1.9,0.191,3.832,0.381,5.794c0.19,1.965,0.346,3.864,0.474,5.698c0.125,1.837,0.315,3.389,0.57,4.654h3.989   c-0.38-2.404-0.731-5.476-1.045-9.213c-0.317-3.733-0.475-7.248-0.475-10.541v-38.369c0-11.018-2.882-19.09-8.643-24.218   c-5.763-5.129-13.645-7.694-23.647-7.694C1422.839,1019.554,1417.805,1020.475,1412.677,1022.309"></path>	</defs>	<clipPath id="SVGID_19_">		<use xlink:href="#SVGID_18_"></use>	</clipPath>			<linearGradient id="SVGID_20_" gradientUnits="userSpaceOnUse" x1="0" y1="2000.0541" x2="1" y2="2000.0541" gradientTransform="matrix(64.1385 -64.1385 -64.1385 -64.1385 129675.1172 129379.1641)">		<stop offset="0" style="stop-color:#370EE7"></stop>		<stop offset="0.27" style="stop-color:#341CEC"></stop>		<stop offset="0.7816" style="stop-color:#2C42F7"></stop>		<stop offset="1" style="stop-color:#2854FD"></stop>	</linearGradient>	<polygon clip-path="url(#SVGID_19_)" fill="url(#SVGID_20_)" points="1346.86,1065.901 1427.397,985.364 1507.934,1065.901   1427.397,1146.438  "></polygon></g><g>	<defs>		<path id="SVGID_21_" d="M1498.627,996.571v25.643h-18.805v3.609h18.995v65.721c0,5.826,1.454,10.67,4.368,14.531   c2.912,3.861,7.788,5.793,14.626,5.793c1.899,0,3.861-0.191,5.888-0.569c2.025-0.38,3.8-0.888,5.319-1.52l-0.57-3.23   c-2.914,1.14-6.143,1.709-9.687,1.709c-4.813,0-8.675-1.297-11.587-3.893c-2.914-2.594-4.368-6.868-4.368-12.821v-65.721h25.642   v-3.609h-25.642v-25.643H1498.627z"></path>	</defs>	<clipPath id="SVGID_22_">		<use xlink:href="#SVGID_21_"></use>	</clipPath>			<linearGradient id="SVGID_23_" gradientUnits="userSpaceOnUse" x1="0" y1="2000.0764" x2="1" y2="2000.0764" gradientTransform="matrix(54.6486 -54.6486 -54.6486 -54.6486 110779.2656 110382.3281)">		<stop offset="0" style="stop-color:#370EE7"></stop>		<stop offset="0.27" style="stop-color:#341CEC"></stop>		<stop offset="0.7816" style="stop-color:#2C42F7"></stop>		<stop offset="1" style="stop-color:#2854FD"></stop>	</linearGradient>	<polygon clip-path="url(#SVGID_22_)" fill="url(#SVGID_23_)" points="1422.173,1054.219 1504.42,971.973 1586.667,1054.219   1504.42,1136.466  "></polygon></g><g>	<defs>		<path id="SVGID_24_" d="M1551.999,1049.851c1.391-4.369,3.575-8.548,6.553-12.537c2.973-3.988,6.805-7.342,11.492-10.066   c4.682-2.723,10.319-4.085,16.904-4.085c5.444,0,10.382,0.92,14.816,2.754c4.431,1.838,8.23,4.435,11.397,7.788   c3.163,3.357,5.665,7.378,7.503,12.062c1.833,4.686,2.816,9.877,2.944,15.575h-73.699   C1549.909,1058.052,1550.604,1054.22,1551.999,1049.851 M1570.863,1022.879c-5.078,2.217-9.489,5.35-13.234,9.402   c-3.746,4.055-6.696,8.865-8.853,14.435c-2.158,5.575-3.236,11.653-3.236,18.235c0,6.838,1.045,13.172,3.134,18.995   c2.09,5.826,5.063,10.827,8.928,15.006c3.861,4.179,8.452,7.44,13.771,9.782c5.318,2.341,11.207,3.513,17.665,3.513   c7.598,0,14.276-1.456,20.039-4.368c5.761-2.912,10.794-7.152,15.101-12.726l-3.04-2.659c-3.926,5.193-8.547,9.15-13.865,11.871   c-5.319,2.725-11.398,4.084-18.235,4.084c-6.714,0-12.537-1.264-17.475-3.799c-4.938-2.532-9.023-5.855-12.252-9.973   c-3.229-4.113-5.636-8.766-7.218-13.96c-1.584-5.191-2.374-10.447-2.374-15.766h78.068v-3.609c0-5.19-0.826-10.286-2.475-15.29   c-1.651-5-4.158-9.465-7.521-13.392c-3.366-3.923-7.586-7.089-12.661-9.497c-5.078-2.403-11.044-3.609-17.896-3.609   C1581.395,1019.554,1575.938,1020.664,1570.863,1022.879"></path>	</defs>	<clipPath id="SVGID_25_">		<use xlink:href="#SVGID_24_"></use>	</clipPath>			<linearGradient id="SVGID_26_" gradientUnits="userSpaceOnUse" x1="0" y1="2000.0183" x2="1" y2="2000.0183" gradientTransform="matrix(63.3353 -63.3353 -63.3353 -63.3353 128227.3047 127768.6953)">		<stop offset="0" style="stop-color:#370EE7"></stop>		<stop offset="0.27" style="stop-color:#341CEC"></stop>		<stop offset="0.7816" style="stop-color:#2C42F7"></stop>		<stop offset="1" style="stop-color:#2854FD"></stop>	</linearGradient>	<polygon clip-path="url(#SVGID_25_)" fill="url(#SVGID_26_)" points="1499.194,1065.901 1586.663,978.431 1674.133,1065.901   1586.664,1153.37  "></polygon></g><g>	<defs>		<path id="SVGID_27_" d="M1669.479,1020.979c-3.228,0.95-6.111,2.345-8.641,4.179c-2.536,1.838-4.56,4.149-6.079,6.933   c-1.52,2.787-2.28,6.078-2.28,9.878c0,3.798,0.6,6.965,1.805,9.497c1.202,2.534,2.849,4.654,4.939,6.363   c2.089,1.71,4.526,3.104,7.312,4.178c2.784,1.078,5.761,2.061,8.928,2.944c2.911,0.76,6.046,1.615,9.402,2.564   c3.354,0.951,6.426,2.186,9.212,3.705c2.785,1.519,5.096,3.547,6.934,6.077c1.834,2.535,2.754,5.827,2.754,9.878   c0,3.419-0.73,6.458-2.185,9.118c-1.457,2.659-3.356,4.876-5.698,6.647c-2.345,1.775-4.939,3.105-7.788,3.99   c-2.849,0.887-5.668,1.328-8.453,1.328c-11.903,0-21.021-4.43-27.352-13.295l-3.419,2.279c3.419,4.814,7.755,8.453,13.011,10.922   c5.254,2.469,11.113,3.704,17.57,3.704c3.924,0,7.598-0.569,11.017-1.71c3.419-1.139,6.426-2.783,9.023-4.938   c2.593-2.152,4.654-4.778,6.173-7.882c1.52-3.102,2.279-6.616,2.279-10.543c0-3.923-0.729-7.218-2.184-9.876   c-1.457-2.66-3.419-4.875-5.889-6.649c-2.468-1.772-5.318-3.259-8.547-4.464c-3.229-1.202-6.553-2.246-9.972-3.134   c-3.674-0.884-7.028-1.805-10.067-2.753c-3.039-0.95-5.636-2.12-7.788-3.515c-2.155-1.392-3.831-3.229-5.033-5.508   c-1.205-2.28-1.804-5.319-1.804-9.118c0-3.419,0.726-6.33,2.184-8.737c1.454-2.404,3.291-4.336,5.508-5.793   c2.214-1.455,4.654-2.5,7.313-3.134c2.659-0.633,5.191-0.951,7.597-0.951c5.192,0,9.622,0.92,13.297,2.754   c3.671,1.838,6.962,4.654,9.877,8.453l3.609-2.089c-5.954-8.482-14.881-12.727-26.783-12.727   C1675.967,1019.554,1672.708,1020.03,1669.479,1020.979"></path>	</defs>	<clipPath id="SVGID_28_">		<use xlink:href="#SVGID_27_"></use>	</clipPath>			<linearGradient id="SVGID_29_" gradientUnits="userSpaceOnUse" x1="0" y1="2000.009" x2="1" y2="2000.009" gradientTransform="matrix(61.7485 -61.7485 -61.7485 -61.7485 125145.0391 124594.1094)">		<stop offset="0" style="stop-color:#370EE7"></stop>		<stop offset="0.27" style="stop-color:#341CEC"></stop>		<stop offset="0.7816" style="stop-color:#2C42F7"></stop>		<stop offset="1" style="stop-color:#2854FD"></stop>	</linearGradient>	<polygon clip-path="url(#SVGID_28_)" fill="url(#SVGID_29_)" points="1602.713,1065.711 1678.406,990.017 1754.1,1065.711   1678.406,1141.405  "></polygon></g><g>	<defs>		<path id="SVGID_30_" d="M489.887,1163.094c-1.392,0.316-2.78,0.656-4.178,0.947c-2.203,0.459-4.413,0.888-6.621,1.328   c-0.41,0.082-0.411,0.079-0.468,0.507c-0.112,0.841-0.218,1.682-0.335,2.521c-0.275,1.991-0.55,3.982-0.835,5.972   c-0.23,1.605-0.476,3.209-0.715,4.814h0.582c0.058-0.138,0.19-0.126,0.303-0.152c3.26-0.733,6.503-1.531,9.715-2.45   c0.845-0.242,0.694-0.031,0.887-0.994c0.325-1.613,0.638-3.229,0.943-4.847c0.462-2.45,0.914-4.902,1.365-7.355   c0.024-0.129,0.091-0.284-0.087-0.399C490.267,1163.02,490.076,1163.051,489.887,1163.094"></path>	</defs>	<clipPath id="SVGID_31_">		<use xlink:href="#SVGID_30_"></use>	</clipPath>			<linearGradient id="SVGID_32_" gradientUnits="userSpaceOnUse" x1="-2.346246e-05" y1="1999.9844" x2="1" y2="1999.9844" gradientTransform="matrix(14.958 -14.958 -14.958 -14.958 30391.9844 31094.4316)">		<stop offset="0" style="stop-color:#09E6D8"></stop>		<stop offset="0.3585" style="stop-color:#06D8CD"></stop>		<stop offset="1" style="stop-color:#00B5B1"></stop>	</linearGradient>	<polygon clip-path="url(#SVGID_31_)" fill="url(#SVGID_32_)" points="468.637,1171.084 483.678,1156.043 498.72,1171.084   483.678,1186.126  "></polygon></g><g>	<defs>		<path id="SVGID_33_" d="M401.242,942.229c-0.155,0.24-0.43,0.194-0.649,0.245c-1.979,0.463-3.968,0.891-5.945,1.363   c-2.566,0.613-5.112,1.303-7.653,2.013c-0.359,0.1-0.513,0.278-0.581,0.629c-0.282,1.449-0.598,2.892-0.882,4.341   c-0.618,3.159-1.227,6.319-1.834,9.481c-0.156,0.808-0.292,1.62-0.435,2.431c-0.021,0.123,0.057,0.185,0.164,0.174   c0.191-0.022,0.382-0.059,0.57-0.101c3.449-0.77,6.906-1.499,10.386-2.123c1.405-0.252,2.813-0.494,4.219-0.745   c0.496-0.087,0.512-0.105,0.573-0.584c0.154-1.201,0.303-2.403,0.458-3.603c0.213-1.633,0.425-3.266,0.646-4.898   c0.22-1.607,0.446-3.214,0.679-4.819c0.184-1.269,0.383-2.536,0.574-3.804H401.242z"></path>	</defs>	<clipPath id="SVGID_34_">		<use xlink:href="#SVGID_33_"></use>	</clipPath>			<linearGradient id="SVGID_35_" gradientUnits="userSpaceOnUse" x1="1.505936e-05" y1="1999.9795" x2="1" y2="1999.9795" gradientTransform="matrix(-13.4983 23.3798 23.3798 13.4983 -46359.9922 -26055.5508)">		<stop offset="0" style="stop-color:#370EE7"></stop>		<stop offset="0.27" style="stop-color:#341CEC"></stop>		<stop offset="0.7816" style="stop-color:#2C42F7"></stop>		<stop offset="1" style="stop-color:#2854FD"></stop>	</linearGradient>	<polygon clip-path="url(#SVGID_34_)" fill="url(#SVGID_35_)" points="410.49,947.401 396.96,970.837 374.284,957.745   387.814,934.309  "></polygon></g><g>	<defs>		<path id="SVGID_36_" d="M431.051,1002.205c-3.608,0.055-7.215,0.177-10.821,0.291c-2.13,0.067-4.259,0.163-6.388,0.275   c-2.95,0.156-5.898,0.335-8.847,0.513c-1.764,0.106-3.528,0.216-5.292,0.348c-2.124,0.158-4.247,0.341-6.37,0.515   c-1.617,0.134-3.25,0.301-4.867,0.437c-0.009,0.193-0.013,0.388-0.028,0.58c-0.174,2.417-0.362,4.832-0.523,7.249   c-0.165,2.49-0.32,4.98-0.452,7.473c-0.164,3.096-0.313,6.194-0.443,9.293c-0.111,2.615-0.205,5.23-0.275,7.845   c-0.082,3.125-0.144,6.25-0.193,9.376c-0.036,2.325-0.045,4.652-0.056,6.978c-0.009,1.793-0.005,3.625-0.005,5.418h0.434   c1.455,0.015,2.909,0.031,4.363,0.035c4.242,0.016,8.484,0.031,12.726,0.037c7.345,0.01,14.69,0.014,22.036,0.02   c2.982,0.003,5.963,0.023,8.945,0c3.645-0.029,6.806-2.407,7.891-5.893c0.269-0.863,0.386-1.746,0.383-2.651   c-0.028-11.417-0.052-22.834-0.079-34.252c-0.01-4.387-0.024-8.775-0.039-13.162c-0.001-0.266,0,0-0.006-0.796   C439.124,1002.155,435.071,1002.144,431.051,1002.205"></path>	</defs>	<clipPath id="SVGID_37_">		<use xlink:href="#SVGID_36_"></use>	</clipPath>			<linearGradient id="SVGID_38_" gradientUnits="userSpaceOnUse" x1="0" y1="2000" x2="1" y2="2000" gradientTransform="matrix(-52.104 -52.104 -52.104 52.104 104648.7188 -103151.4609)">		<stop offset="0" style="stop-color:#370EE7"></stop>		<stop offset="0.27" style="stop-color:#341CEC"></stop>		<stop offset="0.7816" style="stop-color:#2C42F7"></stop>		<stop offset="1" style="stop-color:#2854FD"></stop>	</linearGradient>	<polygon clip-path="url(#SVGID_37_)" fill="url(#SVGID_38_)" points="414.879,1087.304 358.098,1030.523 414.88,973.742   471.661,1030.522  "></polygon></g><g>	<defs>		<path id="SVGID_39_" d="M386.077,1004.785c-1.134,0.107-2.267,0.217-3.4,0.338c-1.566,0.166-3.13,0.342-4.695,0.516   c-1.469,0.163-2.938,0.322-4.405,0.498c-1.828,0.22-3.655,0.45-5.48,0.685c-1.585,0.204-3.17,0.413-4.753,0.634   c-1.872,0.261-3.741,0.532-5.61,0.806c-1.75,0.258-3.498,0.516-5.244,0.79c-1.987,0.313-3.965,0.668-5.954,0.961   c-2.73,0.401-5.241,1.356-7.536,2.88c-2.147,1.426-3.967,3.179-5.321,5.388c-0.729,1.188-1.263,2.458-1.492,3.837   c-0.182,1.098-0.324,2.204-0.46,3.31c-0.224,1.803-0.439,3.607-0.636,5.412c-0.19,1.735-0.369,3.47-0.521,5.207   c-0.14,1.593-0.237,3.19-0.351,4.785c-0.203,2.829-0.336,5.66-0.413,8.495c-0.029,1.065-0.276,8.044-0.276,9.124   c0.194,0.004,0.387,0.01,0.58,0.012c3.876,0.036,7.751,0.079,11.625,0.106c6.879,0.049,13.759,0.095,20.637,0.13   c7.896,0.04,15.793,0.067,23.689,0.097c0.144,0,0,0,0.43,0c0-1.793-0.004-3.625,0.005-5.418c0.011-2.326,0.02-4.653,0.056-6.978   c0.049-3.126,0.111-6.251,0.193-9.376c0.07-2.615,0.164-5.23,0.275-7.845c0.13-3.099,0.279-6.197,0.443-9.293   c0.132-2.493,0.287-4.983,0.452-7.473c0.161-2.417,0.349-4.832,0.523-7.249c0.015-0.192,0.019-0.387,0.028-0.58   C387.67,1004.65,386.872,1004.711,386.077,1004.785"></path>	</defs>	<clipPath id="SVGID_40_">		<use xlink:href="#SVGID_39_"></use>	</clipPath>			<linearGradient id="SVGID_41_" gradientUnits="userSpaceOnUse" x1="0" y1="2000.0018" x2="1" y2="2000.0018" gradientTransform="matrix(-46.9758 -46.9758 -46.9758 46.9758 94337.9062 -92892.6172)">		<stop offset="0" style="stop-color:#2854FD"></stop>		<stop offset="0.2184" style="stop-color:#2C42F7"></stop>		<stop offset="0.73" style="stop-color:#341CEC"></stop>		<stop offset="1" style="stop-color:#370EE7"></stop>	</linearGradient>	<polygon clip-path="url(#SVGID_40_)" fill="url(#SVGID_41_)" points="358.998,1088.264 302.424,1031.69 358.998,975.116   415.572,1031.69  "></polygon></g><g>	<defs>		<path id="SVGID_42_" d="M433.095,945.467c-1.139,0.029-2.278,0.08-3.414,0.156c-2.587,0.173-5.173,0.361-7.759,0.557   c-0.918,0.069-1.833,0.177-2.749,0.272c-0.237,0.025-0.288,0.076-0.307,0.32c-0.061,0.798-0.115,1.596-0.17,2.393   c-0.112,1.645-0.223,3.289-0.336,4.933c-0.126,1.814-0.259,3.626-0.377,5.44c-0.123,1.911-0.233,3.822-0.346,5.734   c-0.14,2.346-0.276,4.693-0.416,7.04c-0.039,0.653-0.078,1.306-0.121,1.959c-0.017,0.237-0.066,0.285-0.302,0.324   c-0.095,0.016-0.193,0.025-0.289,0.032c-1.425,0.111-2.851,0.215-4.277,0.332c-1.279,0.108-2.558,0.221-3.836,0.349   c-1.616,0.162-3.229,0.337-4.842,0.516c-1.421,0.158-2.842,0.317-4.26,0.496c-1.706,0.215-3.41,0.448-5.115,0.682   c-0.864,0.117-1.724,0.26-2.588,0.378c-0.398,0.054-0.443,0.066-0.493,0.481c-0.116,0.962-0.223,1.926-0.329,2.889   c-0.164,1.493-0.328,2.986-0.487,4.48c-0.183,1.735-0.364,3.47-0.54,5.206c-0.117,1.157-0.224,2.315-0.332,3.473   c-0.175,1.882-0.354,3.764-0.518,5.646c-0.146,1.666-0.29,3.362-0.426,5.029c1.617-0.136,3.25-0.303,4.867-0.437   c2.123-0.174,4.246-0.357,6.37-0.515c1.764-0.132,3.528-0.242,5.292-0.348c2.949-0.178,5.897-0.357,8.847-0.513   c2.129-0.112,4.258-0.208,6.388-0.275c3.606-0.114,7.213-0.236,10.821-0.291c4.02-0.061,8.073-0.05,12.094-0.071   c0-0.87,0.001-0.58,0-0.87c-0.042-9.285-0.081-18.568-0.131-27.853c-0.048-9.09-0.105-18.18-0.158-27.269   c-0.002-0.194,0.002-0.388-0.007-0.582c-0.008-0.137-0.087-0.221-0.23-0.227c-0.193-0.008-0.388-0.012-0.581-0.014   c-0.361-0.004-0.723-0.005-1.084-0.005C438.333,945.314,435.715,945.401,433.095,945.467"></path>	</defs>	<clipPath id="SVGID_43_">		<use xlink:href="#SVGID_42_"></use>	</clipPath>			<linearGradient id="SVGID_44_" gradientUnits="userSpaceOnUse" x1="0" y1="1999.9972" x2="1" y2="1999.9972" gradientTransform="matrix(-39.9055 -39.9055 -39.9055 39.9055 80253.8984 -78808.625)">		<stop offset="0" style="stop-color:#370EE7"></stop>		<stop offset="1" style="stop-color:#2854FD"></stop>	</linearGradient>	<polygon clip-path="url(#SVGID_43_)" fill="url(#SVGID_44_)" points="415.806,1031.924 358.831,974.949 415.806,917.974   472.781,974.949  "></polygon></g><g>	<defs>		<path id="SVGID_45_" d="M371.469,972.915c-0.8,0.188-1.601,0.378-2.396,0.584c-2.293,0.595-4.584,1.2-6.878,1.792   c-0.335,0.087-0.57,0.231-0.595,0.605c-0.003,0.048-0.027,0.093-0.038,0.141c-0.632,2.881-1.266,5.762-1.892,8.643   c-0.044,0.204-0.12,0.413-0.072,0.607c0.112,0.097,0.206,0.046,0.296,0.026c0.448-0.101,0.894-0.21,1.343-0.308   c2.716-0.592,5.433-1.183,8.149-1.776c0.591-0.128,0.528-0.149,0.615-0.635c0.408-2.285,0.837-4.567,1.259-6.85   c0.158-0.856,0.323-1.711,0.477-2.567c0.035-0.193-0.005-0.28-0.141-0.28C371.56,972.897,371.518,972.903,371.469,972.915"></path>	</defs>	<clipPath id="SVGID_46_">		<use xlink:href="#SVGID_45_"></use>	</clipPath>			<linearGradient id="SVGID_47_" gradientUnits="userSpaceOnUse" x1="0" y1="2000.0015" x2="1" y2="2000.0015" gradientTransform="matrix(-7.8318 -7.8318 -7.8318 7.8318 16033.2881 -14680.3584)">		<stop offset="0" style="stop-color:#370EE7"></stop>		<stop offset="0.27" style="stop-color:#341CEC"></stop>		<stop offset="0.7816" style="stop-color:#2C42F7"></stop>		<stop offset="1" style="stop-color:#2854FD"></stop>	</linearGradient>	<polygon clip-path="url(#SVGID_46_)" fill="url(#SVGID_47_)" points="365.661,991.495 353.306,979.14 365.661,966.786   378.016,979.14  "></polygon></g><g>	<defs>		<path id="SVGID_48_" d="M364.48,957.725c-1.742,0.664-3.482,1.332-5.226,1.991c-0.271,0.103-0.426,0.257-0.515,0.547   c-0.541,1.759-1.104,3.51-1.659,5.264c-0.028,0.089-0.076,0.183,0.017,0.294c0.014,0,0.032,0,0.05,0.001   c0.04,0.001,0.087,0.001,0.128-0.013c1.829-0.636,3.656-1.278,5.487-1.911c0.241-0.083,0.319-0.253,0.382-0.477   c0.507-1.794,1.027-3.585,1.541-5.376c0.033-0.114,0.082-0.232-0.016-0.358C364.611,957.698,364.541,957.702,364.48,957.725"></path>	</defs>	<clipPath id="SVGID_49_">		<use xlink:href="#SVGID_48_"></use>	</clipPath>			<linearGradient id="SVGID_50_" gradientUnits="userSpaceOnUse" x1="0" y1="1999.9999" x2="1" y2="1999.9999" gradientTransform="matrix(7.685 0 0 -7.685 357.0422 16331.6875)">		<stop offset="0" style="stop-color:#370EE7"></stop>		<stop offset="0.27" style="stop-color:#341CEC"></stop>		<stop offset="0.7816" style="stop-color:#2C42F7"></stop>		<stop offset="1" style="stop-color:#2854FD"></stop>	</linearGradient>	<rect x="357.004" y="957.687" clip-path="url(#SVGID_49_)" fill="url(#SVGID_50_)" width="7.763" height="8.136"></rect></g><g>	<defs>		<path id="SVGID_51_" d="M352.75,953.16c-1.338,0.721-2.673,1.449-4.014,2.166c-0.208,0.111-0.32,0.283-0.411,0.483   c-0.57,1.252-1.139,2.504-1.708,3.757c-0.039,0.084-0.095,0.172,0.004,0.267c0.147,0.015,0.262-0.083,0.386-0.145   c1.206-0.61,2.406-1.231,3.618-1.831c0.299-0.149,0.487-0.344,0.614-0.66c0.501-1.229,1.032-2.445,1.55-3.667   c0.044-0.105,0.078-0.215,0.137-0.382C352.797,953.155,352.769,953.149,352.75,953.16"></path>	</defs>	<clipPath id="SVGID_52_">		<use xlink:href="#SVGID_51_"></use>	</clipPath>			<linearGradient id="SVGID_53_" gradientUnits="userSpaceOnUse" x1="0" y1="2000.0125" x2="1" y2="2000.0125" gradientTransform="matrix(-2.2869 -2.2869 -2.2869 2.2869 4924.7197 -3616.1328)">		<stop offset="0" style="stop-color:#370EE7"></stop>		<stop offset="0.27" style="stop-color:#341CEC"></stop>		<stop offset="0.7816" style="stop-color:#2C42F7"></stop>		<stop offset="1" style="stop-color:#2854FD"></stop>	</linearGradient>	<polygon clip-path="url(#SVGID_52_)" fill="url(#SVGID_53_)" points="349.724,963.05 343.172,956.498 349.724,949.946   356.276,956.498  "></polygon></g><g>	<defs>		<path id="SVGID_54_" d="M556.376,1058.338c-1.817,0.024-3.635,0.053-5.453,0.068c-5.793,0.048-11.586,0.094-17.38,0.134   c-7.635,0.052-15.271,0.099-22.906,0.145c-2.619,0.017-5.237,0.023-7.855,0.04l-2.761,0.013h-0.943   c-7.247,0.029-14.494,0.065-21.741,0.093c-4.169,0.017-8.338,0.021-12.508,0.029c-4.363,0.008-8.725,0.015-13.088,0.02   c-0.535,0.001-1.062,0.039-1.592,0.131c-3.891,0.676-6.839,4.121-6.88,8.06c-0.007,0.654-0.006,1.308-0.008,1.963   c-0.02,11.999-0.039,23.996-0.06,35.994c-0.005,2.448-0.026,4.896-0.03,7.344c-0.002,1.09-0.009,2.167,0,3.256l-0.009,0.666   c-0.007,1.575-0.009,3.15-0.016,4.726c-0.038,8.385-0.072,16.771-0.116,25.156c-0.044,8.531-0.096,17.063-0.145,25.594   c0,0.145-0.007,0.291,0.001,0.436c0.008,0.137,0.09,0.224,0.227,0.231c0.169,0.009,0.339,0.005,0.509,0   c1.575-0.039,3.15-0.072,4.724-0.124c1.138-0.038,2.277-0.088,3.413-0.162c2.273-0.147,4.547-0.279,6.814-0.513   c2.047-0.21,4.095-0.421,6.143-0.638c0.481-0.05,0.96-0.13,1.441-0.191c0.196-0.025,0.3-0.123,0.316-0.324   c0.014-0.192,0.046-0.385,0.062-0.577c0.117-1.352,0.229-2.704,0.346-4.056c0.222-2.559,0.453-5.116,0.664-7.676   c0.178-2.173,0.335-4.349,0.496-6.523c0.194-2.61,0.382-5.22,0.574-7.83c0.018-0.241,0.052-0.482,0.066-0.724   c0.013-0.198,0.089-0.304,0.303-0.324c0.82-0.074,1.639-0.161,2.459-0.245c1.132-0.116,2.266-0.224,3.397-0.352   c1.444-0.164,2.887-0.337,4.329-0.519c1.634-0.206,3.269-0.409,4.899-0.643c2.109-0.305,4.215-0.632,6.32-0.961   c1.197-0.186,2.39-0.392,3.584-0.593c0.325-0.054,0.332-0.057,0.391-0.414c0.062-0.381,0.109-0.767,0.16-1.151   c0.272-2.04,0.554-4.079,0.812-6.122c0.227-1.802,0.432-3.608,0.642-5.412c0.225-1.95,0.454-3.898,0.666-5.849   c0.197-1.806,0.391-3.613,0.551-5.423c0.075-0.843,0.264-1.718,0.238-2.569c1.539-0.181,3.079-0.358,4.617-0.542   c1.346-0.161,2.693-0.325,4.037-0.499c1.656-0.215,3.312-0.437,4.966-0.665c1.511-0.207,3.023-0.414,4.531-0.64   c2.059-0.307,4.117-0.624,6.172-0.953c2.199-0.35,4.398-0.704,6.592-1.082c2.338-0.402,4.671-0.828,7.004-1.254   c1.619-0.297,3.241-0.577,4.849-0.928c2.715-0.593,5.149-1.812,7.361-3.48c1.715-1.295,3.202-2.808,4.374-4.62   c0.85-1.316,1.46-2.73,1.719-4.282c0.2-1.194,0.404-2.387,0.583-3.584c0.463-3.089,0.882-6.183,1.23-9.287   c0.321-2.865,0.59-5.734,0.798-8.608c0.183-2.536,0.344-5.074,0.353-7.62c0.005-1.233,0.078-2.466,0.12-3.699v-2.473   C556.618,1058.317,556.497,1058.336,556.376,1058.338"></path>	</defs>	<clipPath id="SVGID_55_">		<use xlink:href="#SVGID_54_"></use>	</clipPath>			<linearGradient id="SVGID_56_" gradientUnits="userSpaceOnUse" x1="-3.913356e-05" y1="2000" x2="1" y2="2000" gradientTransform="matrix(113.8554 0 0 -113.8554 442.8824 228826.125)">		<stop offset="0" style="stop-color:#00C8D6"></stop>		<stop offset="0.5156" style="stop-color:#00DCE6"></stop>		<stop offset="1" style="stop-color:#00EAF2"></stop>	</linearGradient>	<rect x="442.878" y="1058.306" clip-path="url(#SVGID_55_)" fill="url(#SVGID_56_)" width="113.86" height="114.14"></rect></g><g>	<defs>		<path id="SVGID_57_" d="M499.078,1058.738c-7.247,0.029-14.494,0.065-21.741,0.093c-4.169,0.017-8.338,0.021-12.508,0.029   c-4.363,0.008-8.725,0.015-13.088,0.02c-0.535,0.001-1.062,0.039-1.592,0.131c-3.891,0.676-6.839,4.121-6.88,8.06   c-0.007,0.654-0.006,1.308-0.008,1.963c-0.02,11.999-0.039,23.996-0.06,35.994c-0.005,2.448-0.026,4.896-0.03,7.344   c-0.002,1.09-0.009,2.167,0,3.256c2.494-0.021,5.014-0.005,7.507-0.059c3.291-0.071,6.582-0.165,9.872-0.289   c2.975-0.112,5.949-0.259,8.921-0.427c2.997-0.169,5.992-0.371,8.985-0.585c2.341-0.168,4.681-0.361,7.019-0.569   c2.29-0.204,4.577-0.437,6.865-0.665c1.42-0.142,2.839-0.301,4.259-0.445c0.264-0.027,0.568-0.058,0.833-0.067   c0.143-1.665,0.292-3.329,0.429-4.993c0.226-2.752,0.455-5.502,0.662-8.255c0.16-2.149,0.301-4.3,0.426-6.451   c0.164-2.829,0.314-5.659,0.452-8.488c0.106-2.202,0.205-4.404,0.27-6.606c0.115-3.898,0.219-7.796,0.295-11.695   c0.048-2.422,0.039-4.874,0.055-7.296H499.078z"></path>	</defs>	<clipPath id="SVGID_58_">		<use xlink:href="#SVGID_57_"></use>	</clipPath>			<linearGradient id="SVGID_59_" gradientUnits="userSpaceOnUse" x1="0" y1="2000" x2="1" y2="2000" gradientTransform="matrix(51.4536 51.4536 51.4536 -51.4536 -102461.4766 103968.5234)">		<stop offset="0" style="stop-color:#00B5B1"></stop>		<stop offset="0.6415" style="stop-color:#06D8CD"></stop>		<stop offset="1" style="stop-color:#09E6D8"></stop>	</linearGradient>	<polygon clip-path="url(#SVGID_58_)" fill="url(#SVGID_59_)" points="471.591,1030.309 528.466,1087.183 471.591,1144.058   414.717,1087.183  "></polygon></g><g>	<defs>		<path id="SVGID_60_" d="M556.376,1058.338c-1.817,0.024-3.635,0.053-5.453,0.068c-5.793,0.048-11.586,0.094-17.38,0.134   c-7.635,0.052-15.271,0.099-22.906,0.145c-2.619,0.017-5.237,0.023-7.855,0.04l-2.761,0.013c-0.016,2.422-0.007,4.874-0.055,7.296   c-0.076,3.899-0.18,7.797-0.295,11.695c-0.065,2.202-0.164,4.404-0.27,6.606c-0.138,2.829-0.288,5.659-0.452,8.488   c-0.125,2.151-0.266,4.302-0.426,6.451c-0.207,2.753-0.436,5.503-0.662,8.255c-0.137,1.664-0.286,3.328-0.429,4.993   c1.539-0.181,3.079-0.358,4.617-0.542c1.346-0.161,2.693-0.325,4.037-0.499c1.656-0.215,3.312-0.437,4.966-0.665   c1.511-0.207,3.023-0.414,4.531-0.64c2.059-0.307,4.117-0.624,6.172-0.953c2.199-0.35,4.398-0.704,6.592-1.082   c2.338-0.402,4.671-0.828,7.004-1.254c1.619-0.297,3.241-0.577,4.849-0.928c2.715-0.593,5.149-1.812,7.361-3.48   c1.715-1.295,3.202-2.808,4.374-4.62c0.85-1.316,1.46-2.73,1.719-4.282c0.2-1.194,0.404-2.387,0.583-3.584   c0.463-3.089,0.882-6.183,1.23-9.287c0.321-2.865,0.59-5.734,0.798-8.608c0.183-2.536,0.344-5.074,0.353-7.62   c0.005-1.233,0.078-2.466,0.12-3.699v-2.473C556.618,1058.317,556.497,1058.336,556.376,1058.338"></path>	</defs>	<clipPath id="SVGID_61_">		<use xlink:href="#SVGID_60_"></use>	</clipPath>			<linearGradient id="SVGID_62_" gradientUnits="userSpaceOnUse" x1="0" y1="2000" x2="1" y2="2000" gradientTransform="matrix(57.7402 26.9247 26.9247 -57.7402 -53354.7539 116550.6719)">		<stop offset="0" style="stop-color:#09E6D8"></stop>		<stop offset="0.3585" style="stop-color:#06D8CD"></stop>		<stop offset="1" style="stop-color:#00B5B1"></stop>	</linearGradient>	<polygon clip-path="url(#SVGID_61_)" fill="url(#SVGID_62_)" points="508.024,1035.591 577.504,1067.989 546.146,1135.238   476.666,1102.839  "></polygon></g><g>	<defs>		<path id="SVGID_63_" d="M496.599,1112.589c-1.42,0.144-2.839,0.303-4.259,0.445c-2.288,0.228-4.575,0.461-6.865,0.665   c-2.338,0.208-4.678,0.401-7.019,0.569c-2.993,0.214-5.988,0.416-8.985,0.585c-2.972,0.168-5.946,0.315-8.921,0.427   c-3.29,0.124-6.581,0.218-9.872,0.289c-2.493,0.054-5.013,0.038-7.507,0.059l-0.009,0.666c-0.007,1.575-0.009,3.15-0.016,4.726   c-0.038,8.385-0.072,16.771-0.116,25.156c-0.044,8.531-0.096,17.063-0.145,25.594c0,0.145-0.007,0.291,0.001,0.436   c0.008,0.137,0.09,0.224,0.227,0.231c0.169,0.009,0.339,0.005,0.509,0c1.575-0.039,3.15-0.072,4.724-0.124   c1.138-0.038,2.277-0.088,3.413-0.162c2.273-0.147,4.547-0.279,6.814-0.513c2.047-0.21,4.095-0.421,6.143-0.638   c0.481-0.05,0.96-0.13,1.441-0.191c0.196-0.025,0.3-0.123,0.316-0.324c0.014-0.192,0.046-0.385,0.062-0.577   c0.117-1.352,0.229-2.704,0.346-4.056c0.222-2.559,0.453-5.116,0.664-7.676c0.178-2.173,0.335-4.349,0.496-6.523   c0.194-2.61,0.382-5.22,0.574-7.83c0.018-0.241,0.052-0.482,0.066-0.724c0.013-0.198,0.089-0.304,0.303-0.324   c0.82-0.074,1.639-0.161,2.459-0.245c1.132-0.116,2.266-0.224,3.397-0.352c1.444-0.164,2.887-0.337,4.329-0.519   c1.634-0.206,3.269-0.409,4.899-0.643c2.109-0.305,4.215-0.632,6.32-0.961c1.197-0.186,2.39-0.392,3.584-0.593   c0.325-0.054,0.332-0.057,0.391-0.414c0.062-0.381,0.109-0.767,0.16-1.151c0.272-2.04,0.554-4.079,0.812-6.122   c0.227-1.802,0.432-3.608,0.642-5.412c0.225-1.95,0.454-3.898,0.666-5.849c0.197-1.806,0.391-3.613,0.551-5.423   c0.075-0.843,0.264-1.718,0.238-2.569C497.167,1112.531,496.863,1112.562,496.599,1112.589"></path>	</defs>	<clipPath id="SVGID_64_">		<use xlink:href="#SVGID_63_"></use>	</clipPath>			<linearGradient id="SVGID_65_" gradientUnits="userSpaceOnUse" x1="0" y1="1999.9993" x2="1" y2="1999.9993" gradientTransform="matrix(39.1482 39.1482 39.1482 -39.1482 -77853.0703 79411.8672)">		<stop offset="0" style="stop-color:#00B5B1"></stop>		<stop offset="0.6415" style="stop-color:#06D8CD"></stop>		<stop offset="1" style="stop-color:#09E6D8"></stop>	</linearGradient>	<polygon clip-path="url(#SVGID_64_)" fill="url(#SVGID_65_)" points="470.168,1085.232 527.42,1142.484 470.168,1199.736   412.916,1142.484  "></polygon></g><g>	<defs>		<path id="SVGID_66_" d="M511.557,1137.126c-0.66,0.15-1.319,0.308-1.981,0.453c-2.434,0.532-4.868,1.065-7.306,1.582   c-0.456,0.096-0.49,0.13-0.558,0.596c-0.133,0.91-0.295,1.815-0.455,2.72c-0.404,2.288-0.815,4.574-1.221,6.862   c-0.017,0.094-0.025,0.192-0.027,0.288c-0.001,0.12,0.074,0.169,0.185,0.153c0.095-0.013,0.188-0.042,0.282-0.065   c2.919-0.69,5.825-1.432,8.719-2.226c0.841-0.232,0.659-0.103,0.828-0.885c0.638-2.956,1.247-5.919,1.863-8.879   c0.043-0.207,0.119-0.417,0.019-0.671C511.782,1137.079,511.669,1137.1,511.557,1137.126"></path>	</defs>	<clipPath id="SVGID_67_">		<use xlink:href="#SVGID_66_"></use>	</clipPath>			<linearGradient id="SVGID_68_" gradientUnits="userSpaceOnUse" x1="0" y1="1999.9998" x2="1" y2="1999.9998" gradientTransform="matrix(-7.9748 -7.9748 -7.9748 7.9748 16459.4941 -14802.3799)">		<stop offset="0" style="stop-color:#00B5B1"></stop>		<stop offset="0.6415" style="stop-color:#06D8CD"></stop>		<stop offset="1" style="stop-color:#09E6D8"></stop>	</linearGradient>	<polygon clip-path="url(#SVGID_67_)" fill="url(#SVGID_68_)" points="506.006,1155.795 493.637,1143.425 506.006,1131.056   518.376,1143.425  "></polygon></g><g>	<defs>		<path id="SVGID_69_" d="M521.009,1150.686c-1.781,0.628-3.558,1.262-5.341,1.881c-0.26,0.09-0.39,0.237-0.461,0.494   c-0.517,1.866-1.043,3.729-1.567,5.593c-0.026,0.092-0.061,0.183,0.063,0.255c0.102-0.032,0.219-0.061,0.331-0.104   c1.649-0.633,3.294-1.279,4.949-1.895c0.363-0.135,0.528-0.359,0.634-0.711c0.439-1.46,0.9-2.914,1.352-4.37   c0.113-0.368,0.221-0.738,0.359-1.195C521.148,1150.663,521.075,1150.664,521.009,1150.686"></path>	</defs>	<clipPath id="SVGID_70_">		<use xlink:href="#SVGID_69_"></use>	</clipPath>			<linearGradient id="SVGID_71_" gradientUnits="userSpaceOnUse" x1="0" y1="2000" x2="1" y2="2000" gradientTransform="matrix(7.7133 0 0 -7.7133 513.6146 16581.3047)">		<stop offset="0" style="stop-color:#00B5B1"></stop>		<stop offset="0.6415" style="stop-color:#06D8CD"></stop>		<stop offset="1" style="stop-color:#09E6D8"></stop>	</linearGradient>	<rect x="513.579" y="1150.634" clip-path="url(#SVGID_70_)" fill="url(#SVGID_71_)" width="7.749" height="8.275"></rect></g><g>	<defs>		<path id="SVGID_72_" d="M542.35,1132.832c-1.363,0.5-2.72,1.017-4.091,1.496c-0.315,0.111-0.471,0.284-0.568,0.583   c-0.411,1.265-0.836,2.527-1.254,3.79c-0.023,0.068-0.047,0.139-0.052,0.21c-0.005,0.075,0.033,0.143,0.121,0.127   c0.095-0.017,0.187-0.047,0.276-0.082c1.351-0.532,2.7-1.074,4.055-1.593c0.301-0.115,0.468-0.287,0.572-0.591   c0.427-1.236,0.878-2.461,1.318-3.692c0.031-0.088,0.07-0.18-0.02-0.347C542.58,1132.767,542.462,1132.791,542.35,1132.832"></path>	</defs>	<clipPath id="SVGID_73_">		<use xlink:href="#SVGID_72_"></use>	</clipPath>			<linearGradient id="SVGID_74_" gradientUnits="userSpaceOnUse" x1="0" y1="1999.9926" x2="1" y2="1999.9926" gradientTransform="matrix(6.2867 -6.2867 -6.2867 -6.2867 13109.7061 13712.3047)">		<stop offset="0" style="stop-color:#00B5B1"></stop>		<stop offset="0.6415" style="stop-color:#06D8CD"></stop>		<stop offset="1" style="stop-color:#09E6D8"></stop>	</linearGradient>	<polygon clip-path="url(#SVGID_73_)" fill="url(#SVGID_74_)" points="533.219,1135.894 539.589,1129.525 545.957,1135.894   539.588,1142.263  "></polygon></g><g>	<defs>		<path id="SVGID_75_" d="M777.984,972.542c-8.23,7.342-12.345,16.472-12.345,27.391c0,16.19,9.806,28.489,29.424,36.897   l13.829,5.836c3.588,1.568,6.684,3.216,9.282,4.941c2.599,1.727,4.718,3.577,6.358,5.554c1.639,1.976,2.845,4.14,3.62,6.495   c0.773,2.352,1.16,4.941,1.16,7.765c0,7.028-2.227,12.833-6.683,17.412c-4.455,4.582-10.056,6.872-16.8,6.872   c-8.539,0-15.036-3.137-19.492-9.413c-2.475-3.261-4.208-9.161-5.197-17.695l-21.905,4.895   c1.98,13.554,6.961,24.065,14.943,31.531c8.106,7.469,18.378,11.202,30.816,11.202c13.118,0,24.1-4.392,32.95-13.178   c8.786-8.722,13.181-19.767,13.181-33.132c0-9.977-2.692-18.402-8.076-25.273c-5.383-6.871-13.893-12.691-25.525-17.461   l-14.294-5.93c-10.396-4.329-15.593-10.038-15.593-17.13c0-5.145,1.98-9.413,5.94-12.801c3.96-3.45,8.941-5.177,14.944-5.177   c4.887,0,8.879,1.005,11.973,3.013c2.971,1.757,6.095,5.522,9.375,11.295l17.542-10.543   c-9.281-16.314-22.183-24.472-38.704-24.472C796.455,961.436,786.213,965.139,777.984,972.542"></path>	</defs>	<clipPath id="SVGID_76_">		<use xlink:href="#SVGID_75_"></use>	</clipPath>			<linearGradient id="SVGID_77_" gradientUnits="userSpaceOnUse" x1="0" y1="2000.0089" x2="1" y2="2000.0089" gradientTransform="matrix(95.7656 -95.7656 -95.7656 -95.7656 192289.7031 192616.5781)">		<stop offset="0" style="stop-color:#370EE7"></stop>		<stop offset="1" style="stop-color:#2854FD"></stop>	</linearGradient>	<polygon clip-path="url(#SVGID_76_)" fill="url(#SVGID_77_)" points="683.841,1036.831 805.18,915.491 926.519,1036.83   805.18,1158.17  "></polygon></g><g>	<defs>		<path id="SVGID_78_" d="M650.599,984.089h9.809c18.553,0,32.596,4.452,42.125,13.357c10.585,9.976,15.875,22.985,15.875,39.024   c0,15.912-5.356,28.825-16.064,38.736c-5.229,4.801-11.086,8.305-17.559,10.515c-6.478,2.082-14.602,3.125-24.377,3.125h-9.809   V984.089z M628.839,963.347v146.242h29.889c14.63,0,25.933-1.356,33.902-4.071c8.531-2.714,16.688-7.545,24.471-14.495   c15.505-13.89,23.256-32.074,23.256-54.553c0-22.418-7.442-40.506-22.323-54.275c-7.348-6.817-15.534-11.648-24.562-14.49   c-8.408-2.904-19.863-4.358-34.37-4.358H628.839z"></path>	</defs>	<clipPath id="SVGID_79_">		<use xlink:href="#SVGID_78_"></use>	</clipPath>			<linearGradient id="SVGID_80_" gradientUnits="userSpaceOnUse" x1="-1.408502e-06" y1="1999.9038" x2="1" y2="1999.9038" gradientTransform="matrix(108.3335 -108.3335 -108.3335 -108.3335 217276.6562 217757.4062)">		<stop offset="0" style="stop-color:#370EE7"></stop>		<stop offset="1" style="stop-color:#2854FD"></stop>	</linearGradient>	<polygon clip-path="url(#SVGID_79_)" fill="url(#SVGID_80_)" points="555.718,1036.468 684.598,907.588 813.478,1036.468   684.598,1165.348  "></polygon></g></svg>