<?xml version="1.0" encoding="UTF-8"?>
<svg width="158px" height="42px" viewBox="0 0 158 42" version="1.1" xmlns="http://www.w3.org/2000/svg" xmlns:xlink="http://www.w3.org/1999/xlink">
    <!-- Generator: Sketch 58 (84663) - https://sketch.com -->
    <title>Enplug Logotype Vector</title>
    <desc>Created with Sketch.</desc>
    <g id="Page-1" stroke="none" stroke-width="1" fill="none" fill-rule="evenodd">
        <g id="Home_Page_Upate" transform="translate(-153.000000, -5948.000000)" fill="#1D242C" fill-rule="nonzero">
            <g id="Enplug-Logotype-Vector" transform="translate(153.000000, 5948.000000)">
                <g id="logo">
                    <path d="M16.8,2.95631068 L16.8,2.95631068 C12.9716201,-0.887666725 6.76476723,-0.887559061 2.93651959,2.95655116 C-0.891728057,6.80066137 -0.891728057,13.033125 2.93651959,16.8772353 C6.76476723,20.7213455 12.9716201,20.7214531 16.8,16.8774757 L16.8,16.8774757 L23.742132,9.90873786 L16.8,2.95631068 Z M9.85989848,14.8467961 C7.15286216,14.8467961 4.95837563,12.6432547 4.95837563,9.92504854 C4.95837563,7.20684242 7.15286216,5.00330097 9.85989848,5.00330097 C12.5669348,5.00330097 14.7614213,7.20684242 14.7614213,9.92504854 C14.7614213,12.6432547 12.5669348,14.8467961 9.85989848,14.8467961 Z" id="Shape"></path>
                    <path d="M29.9979695,11.1544567 C27.3969107,11.1508609 24.9018716,12.1892463 23.0659898,14.0394175 L23.0659898,14.0394175 L16.115736,21 L23.057868,27.9687379 L23.057868,27.9687379 C26.1955192,31.1204774 31.0502611,31.7629616 34.8940113,29.5351518 C38.7377615,27.3073419 40.6119558,22.7648149 39.4634062,18.4602065 C38.3148565,14.1555981 34.4299911,11.1624025 29.9918782,11.1626214 L29.9979695,11.1544567 Z M29.9979695,25.9217476 C27.2909332,25.9217476 25.0964467,23.7182061 25.0964467,21 C25.0964467,18.2817939 27.2909332,16.0782524 29.9979695,16.0782524 C32.7050059,16.0782524 34.8994924,18.2817939 34.8994924,21 C34.8994924,23.7182061 32.7050059,25.9217476 29.9979695,25.9217476 L29.9979695,25.9217476 Z" id="Shape"></path>
                    <path d="M16.8,25.1062136 L16.8,25.1062136 C13.9960474,22.289671 9.77843061,21.446675 6.11408862,22.9703675 C2.44974663,24.4940601 0.0604321205,28.0843247 0.0604321205,32.0667961 C0.0604321205,36.0492675 2.44974663,39.6395321 6.11408862,41.1632247 C9.77843061,42.6869172 13.9960474,41.8439213 16.8,39.0273786 L16.8,39.0273786 L23.742132,32.0586408 L16.8,25.1062136 Z M9.85989848,36.996699 C7.15286216,36.996699 4.95837563,34.7931576 4.95837563,32.0749515 C4.95837563,29.3567453 7.15286216,27.1532039 9.85989848,27.1532039 C12.5669348,27.1532039 14.7614213,29.3567453 14.7614213,32.0749515 C14.7614213,34.7931576 12.5669348,36.996699 9.85989848,36.996699 Z" id="Shape"></path>
                </g>
                <g id="type" transform="translate(51.000000, 10.000000)">
                    <polygon id="Shape" points="0.13780303 20.4456 0.13780303 0.5145 13.3101515 0.5145 13.3101515 3.591 3.50992424 3.591 3.50992424 8.7318 13.1135795 8.7318 13.1135795 11.8104 3.50992424 11.8104 3.50992424 17.3691 13.3162311 17.3691 13.3162311 20.4456"></polygon>
                    <polygon id="Shape" points="30.1950758 20.4456 20.1597727 6.1908 20.1597727 20.4456 16.7754924 20.4456 16.7754924 0.5145 20.2367803 0.5145 30.0694318 14.3199 30.0694318 0.5145 33.4375 0.5145 33.4375 20.4456"></polygon>
                    <path d="M37.5391667,20.4456 L37.5391667,0.5145 L46.0160795,0.5145 C50.0549242,0.5145 52.2840909,3.36 52.2840909,6.7599 C52.2840909,10.1598 50.0346591,12.9759 46.0262121,12.9759 L40.9133144,12.9759 L40.9133144,20.4456 L37.5391667,20.4456 Z M48.814697,6.7599 C48.814697,4.8468 47.4589583,3.591 45.5560606,3.591 L40.9133144,3.591 L40.9133144,9.8910236 L45.5560606,9.8910236 C47.4589583,9.8973 48.814697,8.6415 48.814697,6.7599 Z" id="Shape"></path>
                    <polygon id="Shape" points="54.8699242 20.4456 54.8699242 0.5145 58.244072 0.5145 58.244072 17.3691 66.7230114 17.3691 66.7230114 20.4456"></polygon>
                    <path d="M68.9704167,12.5559 L68.9704167,0.5145 L72.4033333,0.5145 L72.4033333,12.4677 C72.4033333,15.6345 74.1035795,17.6967 77.3054735,17.6967 C80.5073674,17.6967 82.2076136,15.6345 82.2076136,12.4677 L82.2076136,0.5145 L85.6405303,0.5145 L85.6405303,12.5559 C85.6405303,17.4867 82.9006818,20.8047 77.3054735,20.8047 C71.7102652,20.8047 68.9704167,17.4867 68.9704167,12.5559 Z" id="Shape"></path>
                    <path d="M88.8971402,10.5 C88.8971402,4.2252 93.3960038,0.1911 98.9912121,0.1911 C102.740265,0.1911 105.190322,2.0433 106.720341,4.3155 L103.980492,5.9577 C102.82014,4.29958759 100.967709,3.31249689 98.9912121,3.2991 C95.1833902,3.2991 92.358428,6.2874 92.358428,10.5 C92.358428,14.6559 95.1833902,17.703 98.9912121,17.703 C100.952879,17.703 102.681496,16.7769 103.546818,15.9096 L103.546818,12.8247 L97.7793561,12.8247 L97.7793561,9.7482 L106.898674,9.7482 L106.898674,17.1885 C104.900726,19.536277 102.015833,20.8669897 98.9952652,20.8341 C93.3960038,20.8341 88.8971402,16.7412 88.8971402,10.5 Z" id="Shape"></path>
                </g>
            </g>
        </g>
    </g>
</svg>