<svg id="Layer_1" data-name="Layer 1" xmlns="http://www.w3.org/2000/svg" xmlns:xlink="http://www.w3.org/1999/xlink" viewBox="0 0 828.54 159.18"><defs><style>.cls-1{fill:url(#linear-gradient);}.cls-2{fill:url(#linear-gradient-2);}.cls-3{fill:url(#linear-gradient-3);}.cls-4{fill:#a7a9ac;}.cls-5{fill:#d1d3d4;}.cls-6{fill:#fff;opacity:0.21;}</style><linearGradient id="linear-gradient" x1="194.26" y1="235.31" x2="359.5" y2="401.6" gradientUnits="userSpaceOnUse"><stop offset="0" stop-color="#361d74"/><stop offset="0.31" stop-color="#7801b7"/><stop offset="0.52" stop-color="#6d17de"/><stop offset="0.7" stop-color="#7606bf"/><stop offset="1" stop-color="#262262"/></linearGradient><linearGradient id="linear-gradient-2" x1="64.56" y1="220.87" x2="284.02" y2="220.87" gradientUnits="userSpaceOnUse"><stop offset="0.16" stop-color="#7801b7"/><stop offset="0.53" stop-color="#6d17de"/><stop offset="1" stop-color="#7801b7"/></linearGradient><linearGradient id="linear-gradient-3" x1="370.54" y1="122.84" x2="204.11" y2="308.05" gradientTransform="matrix(1, 0, 0, -1, -220.59, 329.06)" xlink:href="#linear-gradient"/></defs><title>Exclaim_Final_Logo</title><path class="cls-1" d="M281.24,294.5l-59.32-55.62L216,233.62a4.28,4.28,0,0,0-5.74,0l-20.75,19a4.29,4.29,0,0,0,0,6.32C217.22,284.37,229,295.26,230,296.29c0,0,.22.22.48.46a18.25,18.25,0,0,0,3.47,2.4,10.82,10.82,0,0,0,5,.91c7.47-.18,14.94.32,22.4,0,14.54-.63,21.56,1.22,22.4-1.27C284.28,297.25,282,295.21,281.24,294.5Z" transform="translate(-64.46 -141)"/><path class="cls-2" d="M238,141.82a9.21,9.21,0,0,0-6.14,2.34L126.44,239.25C95.16,267.82,72.35,289,66.61,294.77c-.71.71-2.46,2.5-2,3.86.76,2.14,6.34,1.28,17,1.29,20.25,0,23.84.08,23.84.08a23.17,23.17,0,0,0,9.19-1.55,23,23,0,0,0,5.73-3.77l.45-.44C172.47,243,228.94,196.8,281.52,146.5c.61-.59,3-2.79,2.42-3.94-.3-.62-1.34-.69-1.76-.72C276.4,141.46,273.51,141.84,238,141.82Z" transform="translate(-64.46 -141)"/><path class="cls-3" d="M67.22,147.34,126.54,203l5.88,5.25a4.28,4.28,0,0,0,5.74,0l20.75-19a4.29,4.29,0,0,0,0-6.32c-27.66-25.41-39.44-36.29-40.44-37.33,0,0-.22-.22-.48-.46a28.38,28.38,0,0,0-3.47-2.4c-4.14-2.09-11.45-1.64-11.45-1.64-5.25.32-10.53,0-15.79.21-15.51.51-21.81-.57-22.58,1.79C64.47,143.78,64.69,145.06,67.22,147.34Z" transform="translate(-64.46 -141)"/><path class="cls-4" d="M457.37,190.08l22.94-29.47a3,3,0,0,1,2.28-1.18,2.58,2.58,0,0,1,1.89.79,2.62,2.62,0,0,1,.79,1.93,2.71,2.71,0,0,1-.44,1.54l-24,30.83,23.86,30.65a2.8,2.8,0,0,1-.22,3.64,2.71,2.71,0,0,1-3.95-.13L457.37,199l-23.16,29.69a2.46,2.46,0,0,1-2,.92,2.71,2.71,0,0,1-2.11-4.43l23.81-30.65L430,163.63a2.23,2.23,0,0,1-.48-1.49,2.7,2.7,0,0,1,2.72-2.72,2.76,2.76,0,0,1,2.24,1.18Z" transform="translate(-64.46 -141)"/><path class="cls-4" d="M568.43,217.27a2.7,2.7,0,0,1,2.72,2.72,2.53,2.53,0,0,1-.66,1.8,38,38,0,0,1-10.44,5.81,35,35,0,0,1-25.09-.68,34.75,34.75,0,0,1-19-19,35.06,35.06,0,0,1,54.65-40.52,2.62,2.62,0,0,1,.79,1.93,2.69,2.69,0,0,1-2.67,2.67A3.24,3.24,0,0,1,566.5,171a27.9,27.9,0,0,0-18.11-6.14,29.71,29.71,0,0,0-21,50.7,29.74,29.74,0,0,0,39.6,2.15A2.48,2.48,0,0,1,568.43,217.27Z" transform="translate(-64.46 -141)"/><path class="cls-4" d="M605.16,162.14a2.62,2.62,0,0,1,.79-1.93,2.57,2.57,0,0,1,1.89-.79,2.69,2.69,0,0,1,2.72,2.72V224.2h36.88a2.63,2.63,0,0,1,1.93.79,2.57,2.57,0,0,1,.79,1.89,2.69,2.69,0,0,1-2.72,2.72h-39.6a2.57,2.57,0,0,1-1.89-.79,2.62,2.62,0,0,1-.79-1.93Z" transform="translate(-64.46 -141)"/><path class="cls-4" d="M699.12,204.42,690,227.92a3.06,3.06,0,0,1-.61,1,2.74,2.74,0,0,1-4.61-2,3,3,0,0,1,.26-1.18l25-64.34a3.61,3.61,0,0,1,.7-1.18,2.55,2.55,0,0,1,1.89-.75,2.62,2.62,0,0,1,1.93.79,3.16,3.16,0,0,1,.7,1.14l25,64.34a3,3,0,0,1,.26,1.18,2.62,2.62,0,0,1-.79,1.93,2.57,2.57,0,0,1-1.89.79,2.75,2.75,0,0,1-1.89-.66,3.19,3.19,0,0,1-.66-1l-9.12-23.51Zm25-5.4-11.45-29.47L701.22,199Z" transform="translate(-64.46 -141)"/><path class="cls-4" d="M779.13,162.14a2.66,2.66,0,0,1,.77-1.93,2.55,2.55,0,0,1,1.91-.79,2.7,2.7,0,0,1,2.72,2.72v64.73a2.7,2.7,0,0,1-2.72,2.72,2.55,2.55,0,0,1-1.91-.79,2.66,2.66,0,0,1-.77-1.93Z" transform="translate(-64.46 -141)"/><path class="cls-4" d="M828.22,173.54v53.33a2.66,2.66,0,0,1-.77,1.93,2.55,2.55,0,0,1-1.91.79,2.7,2.7,0,0,1-2.72-2.72V162.14a2.7,2.7,0,0,1,2.72-2.72,2.5,2.5,0,0,1,2.37,1.4l30,60,30-60a2.59,2.59,0,0,1,2.41-1.4,2.56,2.56,0,0,1,1.91.79,2.67,2.67,0,0,1,.77,1.93v64.73a2.67,2.67,0,0,1-.77,1.93,2.56,2.56,0,0,1-1.91.79,2.69,2.69,0,0,1-2.72-2.72V173.54l-27.37,54.78a2.72,2.72,0,0,1-4.83-.44Z" transform="translate(-64.46 -141)"/><path id="_Compound_Path_" data-name="&lt;Compound Path&gt;" class="cls-4" d="M389.7,160.16a2.56,2.56,0,0,1,1.87.78,2.61,2.61,0,0,1,.78,1.92,2.68,2.68,0,0,1-2.66,2.66H349.46v59H389.7a2.68,2.68,0,0,1,2.66,2.66,2.61,2.61,0,0,1-.78,1.92,2.56,2.56,0,0,1-1.87.78H346.8a2.68,2.68,0,0,1-2.7-2.7V162.86a2.68,2.68,0,0,1,2.7-2.7Z" transform="translate(-64.46 -141)"/><path id="_Path_" data-name="&lt;Path&gt;" class="cls-4" d="M358.12,192.32h17.37a2.68,2.68,0,1,1,0,5.36H358.12Z" transform="translate(-64.46 -141)"/><path class="cls-5" d="M360.57,247.41a1.47,1.47,0,1,1,2.95,0v17.74a10.33,10.33,0,1,1-3-7.3l.07.07Zm0,17.74a7.37,7.37,0,1,0-2.16,5.22A7.11,7.11,0,0,0,360.57,265.14Z" transform="translate(-64.46 -141)"/><path class="cls-5" d="M391.66,250.39a1.85,1.85,0,1,1-.54-1.3A1.78,1.78,0,0,1,391.66,250.39Zm-3.32,5.9a1.48,1.48,0,0,1,3,0V274a1.48,1.48,0,0,1-3,0Z" transform="translate(-64.46 -141)"/><path class="cls-5" d="M433.81,272.37l-.07.07a10.33,10.33,0,1,1,3-7.3v10.32a7.76,7.76,0,0,1-2.32,5.61,11.06,11.06,0,0,1-15.65,0,11.06,11.06,0,0,1-2-2.56,1.36,1.36,0,0,1-.22-.77,1.48,1.48,0,0,1,1.47-1.48,1.46,1.46,0,0,1,1.05.43,2.25,2.25,0,0,1,.31.44,8.35,8.35,0,0,0,1.42,1.86,8.1,8.1,0,0,0,11.47,0,5.52,5.52,0,0,0,1.47-3.52Zm-7.38-14.6a7.36,7.36,0,1,0,5.22,2.15A7.12,7.12,0,0,0,426.43,257.77Z" transform="translate(-64.46 -141)"/><path class="cls-5" d="M464.9,250.39a1.85,1.85,0,1,1-.54-1.3A1.78,1.78,0,0,1,464.9,250.39Zm-3.32,5.9a1.48,1.48,0,0,1,3,0V274a1.48,1.48,0,0,1-3,0Z" transform="translate(-64.46 -141)"/><path class="cls-5" d="M499.67,272.52a1.47,1.47,0,0,1,0,2.95q-7.38,0-7.38-7.38V257.77h-1.48a1.48,1.48,0,0,1,0-3h1.48v-7.38a1.47,1.47,0,0,1,2.95,0v7.38h3a1.48,1.48,0,0,1,0,3h-3v10.32Q495.24,272.52,499.67,272.52Z" transform="translate(-64.46 -141)"/><path class="cls-5" d="M541.06,272.37a10.07,10.07,0,0,1-7.38,3.1A10.33,10.33,0,1,1,544,265.14V274a1.47,1.47,0,0,1-2.95,0Zm-7.38-14.6a7.36,7.36,0,1,0,5.22,2.15A7.12,7.12,0,0,0,533.69,257.77Z" transform="translate(-64.46 -141)"/><path class="cls-5" d="M567.36,247.44a1.47,1.47,0,0,1,2.95,0v25.08h1.47a1.47,1.47,0,1,1,0,2.95h-2.95a1.48,1.48,0,0,1-1.47-1.48Z" transform="translate(-64.46 -141)"/><path class="cls-5" d="M631.7,265.14a6.54,6.54,0,0,1-2.34-1.31,4.21,4.21,0,0,1-1.31-3.11,4.37,4.37,0,0,1,1.36-3.19,9.27,9.27,0,0,1,6.93-2.71,10.25,10.25,0,0,1,7.93,3.71,1.23,1.23,0,0,1,.28.87,1.49,1.49,0,0,1-1.48,1.48,1.29,1.29,0,0,1-1-.39l-.53-.55a7.12,7.12,0,0,0-5.22-2.15,6.42,6.42,0,0,0-4.89,1.92A1.93,1.93,0,0,0,631,261a1.26,1.26,0,0,0,.9,1.18l9.07,3a6.51,6.51,0,0,1,2.34,1.31,4.22,4.22,0,0,1,1.31,3.12,4.36,4.36,0,0,1-1.37,3.19,9.27,9.27,0,0,1-6.93,2.71,10.22,10.22,0,0,1-7.93-3.71,1.45,1.45,0,0,1-.28-.87,1.48,1.48,0,0,1,1.48-1.47,1.29,1.29,0,0,1,1,.39l.53.55a7.11,7.11,0,0,0,5.22,2.16,6.43,6.43,0,0,0,4.88-1.92,1.93,1.93,0,0,0,.44-1.27,1.27,1.27,0,0,0-.9-1.18Z" transform="translate(-64.46 -141)"/><path class="cls-5" d="M672.78,250.39a1.86,1.86,0,1,1-.55-1.3A1.78,1.78,0,0,1,672.78,250.39Zm-3.32,5.9a1.47,1.47,0,0,1,2.95,0V274a1.47,1.47,0,0,1-2.95,0Z" transform="translate(-64.46 -141)"/><path class="cls-5" d="M714.93,272.37l-.07.07a10.33,10.33,0,1,1,3-7.3v10.32a7.76,7.76,0,0,1-2.32,5.61,11.06,11.06,0,0,1-15.66,0,11,11,0,0,1-2-2.56,1.36,1.36,0,0,1-.22-.77,1.49,1.49,0,0,1,1.48-1.48,1.46,1.46,0,0,1,1,.43,2,2,0,0,1,.31.44A8.49,8.49,0,0,0,702,279a8.1,8.1,0,0,0,11.47,0,5.52,5.52,0,0,0,1.48-3.52Zm-7.38-14.6a7.36,7.36,0,1,0,5.22,2.15A7.11,7.11,0,0,0,707.55,257.77Z" transform="translate(-64.46 -141)"/><path class="cls-5" d="M741.22,256.29a1.47,1.47,0,0,1,2.95,0v1.2a9.59,9.59,0,0,1,16.23,6.91V274a1.48,1.48,0,0,1-3,0v-9.59a6.64,6.64,0,0,0-13.27,0V274a1.47,1.47,0,1,1-2.95,0Z" transform="translate(-64.46 -141)"/><path class="cls-5" d="M801.44,272.37a10.07,10.07,0,0,1-7.38,3.1,10.33,10.33,0,1,1,10.32-10.32V274a1.47,1.47,0,1,1-2.95,0Zm-7.38-14.6a7.36,7.36,0,1,0,5.22,2.15A7.11,7.11,0,0,0,794.06,257.77Z" transform="translate(-64.46 -141)"/><path class="cls-5" d="M845.43,272.37l-.07.07a10.33,10.33,0,1,1,3-7.3v10.32a7.76,7.76,0,0,1-2.32,5.61,11.06,11.06,0,0,1-15.66,0,11,11,0,0,1-2-2.56,1.36,1.36,0,0,1-.22-.77,1.49,1.49,0,0,1,1.48-1.48,1.46,1.46,0,0,1,1,.43,2,2,0,0,1,.31.44,8.49,8.49,0,0,0,1.42,1.86A8.1,8.1,0,0,0,844,279a5.52,5.52,0,0,0,1.48-3.52Zm-7.38-14.6a7.36,7.36,0,1,0,5.22,2.15A7.11,7.11,0,0,0,838.05,257.77Z" transform="translate(-64.46 -141)"/><path class="cls-5" d="M887.73,270.45a1.48,1.48,0,0,1,1.48,1.47,1.47,1.47,0,0,1-.43,1.05,10.34,10.34,0,1,1,3.6-7.84,1.48,1.48,0,0,1-1.47,1.47H874.8a7.42,7.42,0,0,0,7.25,5.9,7,7,0,0,0,4.76-1.75A1.47,1.47,0,0,1,887.73,270.45Zm1.57-6.79a7.4,7.4,0,0,0-14.5,0Z" transform="translate(-64.46 -141)"/><path class="cls-6" d="M242.36,141.84h-2.84a17.16,17.16,0,0,0-3.63.11,9.78,9.78,0,0,0-2.38.91c-3.79,2.05-76.86,69.35-90.37,81.29-12.61,11.14-33.54,30.51-75.38,69.25-1.1,1-3.86,3.62-3.18,5.22.45,1.05,2.26,1.34,4.09,1.36Z" transform="translate(-64.46 -141)"/></svg>