<svg xmlns="http://www.w3.org/2000/svg" xmlns:xlink="http://www.w3.org/1999/xlink" width="548px" height="119px" viewBox="0 0 548 119"><title>FiveFaces_Logo_Navy</title><desc>Created with Sketch.</desc><defs><polygon id="path-1" points="0.171 0.3984 37.5508 0.3984 37.5508 45.4812 0.171 45.4812"></polygon><polygon id="path-3" points="0.00016 0.3496 111.49496 0.3496 111.49496 118.39992 0.00016 118.39992"></polygon></defs><g id="FiveFaces_Logo_Navy" stroke="none" stroke-width="1" fill="none" fill-rule="evenodd"><g id="Group-26" transform="translate(0.000000, 0.000000)"><polygon id="Fill-1" fill="#001A42" points="149.95512 93.87884 160.50072 93.87884 160.50072 69.14844 184.69152 69.14844 184.69152 60.30804 160.50072 60.30804 160.50072 44.50364 187.24912 44.50364 187.24912 35.66324 149.95512 35.66324"></polygon><polygon id="Fill-2" fill="#001A42" points="196.3732 93.8788 206.6636 93.8788 206.6636 50.2172 196.3732 50.2172"></polygon><g id="Group-25" transform="translate(0.000000, 0.050400)"><path d="M201.54652,32.79876 C199.91652,32.79876 198.51412,33.34356 197.33972,34.43316 C196.16412,35.52316 195.57732,36.84476 195.57732,38.39836 C195.57732,39.93356 196.16012,41.24596 197.32532,42.33556 C198.49052,43.42516 199.89772,43.96996 201.54652,43.96996 C203.17612,43.96996 204.57372,43.42516 205.73892,42.33556 C206.90492,41.24596 207.48772,39.93356 207.48772,38.39836 C207.48772,36.84476 206.90492,35.52316 205.73892,34.43316 C204.57372,33.34356 203.17612,32.79876 201.54652,32.79876" id="Fill-3" fill="#001A42"></path><polygon id="Fill-5" fill="#001A42" points="235.23088 82.60032 234.77568 82.60032 224.74168 50.16672 213.76968 50.16672 229.31808 93.82832 240.68848 93.82832 256.23768 50.16672 245.29328 50.16672"></polygon><path d="M270.18908,67.87568 C270.28908,66.16488 270.73028,64.57688 271.51588,63.11448 C272.39748,61.47568 273.63348,60.14928 275.22588,59.13488 C276.81708,58.12128 278.66468,57.61448 280.76868,57.61448 C282.73908,57.61448 284.46828,58.05968 285.95628,58.95048 C287.44388,59.84128 288.60428,61.05848 289.43828,62.60288 C290.27188,64.14768 290.69828,65.90488 290.71748,67.87568 L270.18908,67.87568 Z M294.62628,54.88528 C292.77868,53.08488 290.65588,51.75408 288.25868,50.89168 C285.86148,50.02968 283.31708,49.59848 280.62668,49.59848 C276.45708,49.59848 272.82828,50.55048 269.73948,52.45488 C266.65028,54.35928 264.24828,57.01288 262.53348,60.41408 C260.81828,63.81608 259.96108,67.76208 259.96108,72.25328 C259.96108,76.82048 260.81428,80.78568 262.51948,84.14968 C264.22508,87.51368 266.66468,90.10968 269.83908,91.93808 C273.01308,93.76728 276.78908,94.68128 281.16628,94.68128 C284.55868,94.68128 287.57188,94.16488 290.20588,93.13208 C292.83988,92.09968 295.00468,90.64008 296.70108,88.75448 C298.39708,86.86888 299.54828,84.65648 300.15468,82.11728 L290.54708,81.03688 C290.09228,82.26888 289.41948,83.30128 288.52908,84.13528 C287.63788,84.96928 286.58588,85.59928 285.37348,86.02568 C284.16068,86.45168 282.80548,86.66528 281.30868,86.66528 C279.07268,86.66528 277.12028,86.18648 275.45308,85.22968 C273.78508,84.27288 272.48668,82.88928 271.55868,81.07968 C270.66188,79.33208 270.20228,77.24048 270.17148,74.81168 L300.58108,74.81168 L300.58108,71.65648 C300.58108,67.82888 300.05068,64.52648 298.98948,61.75048 C297.92828,58.97408 296.47388,56.68568 294.62628,54.88528 L294.62628,54.88528 Z" id="Fill-7" fill="#001A42"></path><polygon id="Fill-9" fill="#001A42" points="325.6008 93.82844 336.1464 93.82844 336.1464 69.09804 360.3368 69.09804 360.3368 60.25764 336.1464 60.25764 336.1464 44.45324 362.8948 44.45324 362.8948 35.61284 325.6008 35.61284"></polygon><path d="M397.00548,78.16592 C397.00548,79.77672 396.59348,81.26432 395.76868,82.62872 C394.94468,83.99312 393.77428,85.08752 392.25868,85.91192 C390.74228,86.73632 388.95148,87.14832 386.88588,87.14832 C384.74468,87.14832 382.98188,86.66512 381.59868,85.69872 C380.21508,84.73232 379.52388,83.30152 379.52388,81.40672 C379.52388,80.08032 379.87428,78.99512 380.57588,78.15192 C381.27668,77.30872 382.23348,76.64992 383.44668,76.17592 C384.65908,75.70272 386.03308,75.36152 387.56788,75.15272 C388.25028,75.05792 389.05548,74.94432 389.98428,74.81152 C390.91268,74.67912 391.85068,74.52712 392.79828,74.35712 C393.74628,74.18632 394.60348,73.98752 395.37108,73.75992 C396.13828,73.53272 396.68268,73.28672 397.00548,73.02112 L397.00548,78.16592 Z M401.52508,52.76752 C399.80068,51.64072 397.89628,50.83032 395.81188,50.33752 C393.72668,49.84472 391.63268,49.59832 389.52988,49.59832 C386.47828,49.59832 383.69268,50.04872 381.17268,50.94832 C378.65188,51.84872 376.51988,53.19392 374.77668,54.98472 C373.03268,56.77552 371.78188,58.99752 371.02428,61.65072 L380.63228,63.01512 C381.14388,61.51832 382.13388,60.21992 383.60268,59.12072 C385.07108,58.02192 387.06548,57.47232 389.58628,57.47232 C391.97428,57.47232 393.80268,58.05952 395.07268,59.23432 C396.34228,60.40952 396.97748,62.06792 396.97748,64.20872 L396.97748,64.37952 C396.97748,65.36512 396.61188,66.08992 395.88268,66.55432 C395.15308,67.01872 393.99228,67.35952 392.40068,67.57712 C390.80868,67.79552 388.73348,68.03712 386.17548,68.30232 C384.05268,68.52952 382.00108,68.89472 380.02108,69.39672 C378.04068,69.89912 376.26388,70.63312 374.69148,71.59952 C373.11788,72.56592 371.87748,73.85512 370.96748,75.46552 C370.05788,77.07632 369.60308,79.11352 369.60308,81.57672 C369.60308,84.43872 370.24308,86.84552 371.52188,88.79712 C372.80108,90.74912 374.54468,92.22272 376.75228,93.21712 C378.95988,94.21192 381.44708,94.70952 384.21388,94.70952 C386.48828,94.70952 388.47268,94.39192 390.16908,93.75752 C391.86468,93.12272 393.27708,92.27912 394.40468,91.22752 C395.53188,90.17552 396.40868,89.04352 397.03388,87.83072 L397.37508,87.83072 L397.37508,93.82832 L407.26708,93.82832 L407.26708,64.60712 C407.26708,61.70752 406.74148,59.29112 405.68948,57.35832 C404.63748,55.42512 403.24908,53.89512 401.52508,52.76752 L401.52508,52.76752 Z" id="Fill-11" fill="#001A42"></path><path d="M431.22972,59.58976 C432.82132,58.46256 434.66892,57.89816 436.77252,57.89816 C439.25452,57.89816 441.23972,58.60456 442.72772,60.01616 C444.21492,61.42816 445.15772,63.18536 445.55612,65.28896 L455.39132,65.28896 C455.16412,62.14376 454.23532,59.39096 452.60532,57.03136 C450.97572,54.67216 448.79132,52.84376 446.05372,51.54536 C443.31492,50.24776 440.17372,49.59816 436.63052,49.59816 C432.36652,49.59816 428.67572,50.55016 425.55852,52.45496 C422.44092,54.35936 420.02972,57.01296 418.32412,60.41416 C416.61892,63.81576 415.76612,67.73376 415.76612,72.16816 C415.76612,76.58376 416.60452,80.48256 418.28172,83.86496 C419.95852,87.24816 422.35572,89.89656 425.47332,91.81016 C428.59052,93.72456 432.32812,94.68136 436.68732,94.68136 C440.34452,94.68136 443.52812,94.01336 446.23812,92.67736 C448.94812,91.34136 451.08892,89.48416 452.66252,87.10576 C454.23532,84.72776 455.14452,81.99416 455.39132,78.90496 L445.55612,78.90496 C445.25292,80.47816 444.69372,81.81416 443.87892,82.91296 C443.06412,84.01256 442.05452,84.85056 440.85172,85.42896 C439.64772,86.00696 438.28812,86.29576 436.77252,86.29576 C434.63092,86.29576 432.76892,85.72256 431.18692,84.57616 C429.60452,83.42976 428.37732,81.79016 427.50532,79.65816 C426.63372,77.52656 426.19852,74.97296 426.19852,71.99776 C426.19852,69.06056 426.63852,66.53976 427.52012,64.43616 C428.40132,62.33256 429.63772,60.71736 431.22972,59.58976" id="Fill-13" fill="#001A42"></path><path d="M472.21372,67.87568 C472.31372,66.16488 472.75492,64.57688 473.54052,63.11448 C474.42212,61.47568 475.65812,60.14928 477.25012,59.13488 C478.84172,58.12128 480.68932,57.61448 482.79292,57.61448 C484.76372,57.61448 486.49292,58.05968 487.98052,58.95048 C489.46812,59.84128 490.62892,61.05848 491.46292,62.60288 C492.29652,64.14768 492.72252,65.90488 492.74212,67.87568 L472.21372,67.87568 Z M496.65092,54.88528 C494.80332,53.08488 492.68052,51.75408 490.28332,50.89168 C487.88612,50.02968 485.34132,49.59848 482.65092,49.59848 C478.48172,49.59848 474.85252,50.55048 471.76412,52.45488 C468.67492,54.35928 466.27252,57.01288 464.55772,60.41408 C462.84292,63.81608 461.98572,67.76208 461.98572,72.25328 C461.98572,76.82048 462.83852,80.78568 464.54372,84.14968 C466.24932,87.51368 468.68892,90.10968 471.86332,91.93808 C475.03772,93.76728 478.81332,94.68128 483.19092,94.68128 C486.58292,94.68128 489.59612,94.16488 492.23052,93.13208 C494.86412,92.09968 497.02932,90.64008 498.72572,88.75448 C500.42132,86.86888 501.57252,84.65648 502.17932,82.11728 L492.57172,81.03688 C492.11652,82.26888 491.44372,83.30128 490.55332,84.13528 C489.66252,84.96928 488.61052,85.59928 487.39812,86.02568 C486.18532,86.45168 484.82972,86.66528 483.33332,86.66528 C481.09692,86.66528 479.14452,86.18648 477.47732,85.22968 C475.80932,84.27288 474.51132,82.88928 473.58332,81.07968 C472.68652,79.33208 472.22692,77.24048 472.19612,74.81168 L502.60532,74.81168 L502.60532,71.65648 C502.60532,67.82888 502.07492,64.52648 501.01412,61.75048 C499.95252,58.97408 498.49852,56.68568 496.65092,54.88528 L496.65092,54.88528 Z" id="Fill-15" fill="#001A42"></path><g id="Group-19" transform="translate(509.200000, 49.200000)"><mask id="mask-2" fill="white"><use xlink:href="#path-1"></use></mask><g id="Clip-18"></g><path d="M34.4946,23.9632 C32.4766,22.03 29.4018,20.6188 25.2706,19.7276 L17.823,18.136 C15.6058,17.624 14.019,16.9704 13.0618,16.1744 C12.1046,15.3784 11.6362,14.346 11.6546,13.076 C11.6362,11.598 12.3514,10.3948 13.801,9.466 C15.251,8.538 17.0462,8.0728 19.1874,8.0728 C20.7794,8.0728 22.125,8.3288 23.2242,8.8404 C24.3226,9.3524 25.1998,10.0252 25.853,10.8588 C26.507,11.6928 26.9666,12.5836 27.2322,13.5308 L36.6126,12.5072 C35.911,8.7936 34.087,5.8464 31.1406,3.6672 C28.1938,1.488 24.1622,0.3984 19.0454,0.3984 C15.5586,0.3984 12.4838,0.9432 9.821,2.0328 C7.1586,3.1224 5.0838,4.6576 3.5962,6.6376 C2.1082,8.618 1.3742,10.954 1.393,13.6444 C1.3742,16.828 2.369,19.4576 4.3778,21.5328 C6.3862,23.6076 9.4846,25.0816 13.673,25.9528 L21.1202,27.5164 C23.129,27.9524 24.6118,28.5776 25.5694,29.3924 C26.5258,30.2072 27.0046,31.24 27.0046,32.4904 C27.0046,33.9688 26.261,35.21 24.7734,36.2144 C23.2854,37.2192 21.3194,37.7212 18.875,37.7212 C16.5058,37.7212 14.583,37.2192 13.1046,36.2144 C11.6266,35.21 10.6602,33.7228 10.205,31.7516 L0.171,32.7184 C0.7962,36.736 2.7382,39.8672 5.9982,42.1128 C9.257,44.3584 13.5594,45.4812 18.903,45.4812 C22.5418,45.4812 25.7634,44.8936 28.5682,43.7188 C31.3726,42.544 33.5662,40.9096 35.1486,38.8156 C36.7306,36.7216 37.5314,34.3008 37.551,31.5528 C37.5314,28.4256 36.513,25.896 34.4946,23.9632" id="Fill-17" fill="#001A42" mask="url(#mask-2)"></path></g><g id="Group-22"><mask id="mask-4" fill="white"><use xlink:href="#path-3"></use></mask><g id="Clip-21"></g><polygon id="Fill-20" fill="#001A42" mask="url(#mask-4)" points="111.49496 118.39992 0.00016 118.39992 0.00016 0.34952 88.77856 0.34952 111.49496 26.74752"></polygon></g><path d="M55.1838,94.73096 C50.9902,94.73096 47.2374,93.93936 43.925,92.35616 C40.6122,90.77376 37.9858,88.59816 36.047,85.83056 C34.1074,83.06336 33.075,79.89776 32.9494,76.33296 L44.271,76.33296 C44.4802,78.97496 45.6234,81.12896 47.699,82.79576 C49.7746,84.46296 52.2694,85.29616 55.1838,85.29616 C57.469,85.29616 59.5026,84.77256 61.285,83.72336 C63.067,82.67576 64.4718,81.21856 65.4994,79.35216 C66.5262,77.48616 67.0294,75.35776 67.0086,72.96776 C67.0294,70.53616 66.5162,68.37616 65.4678,66.48936 C64.419,64.60256 62.9834,63.11936 61.1594,62.03936 C59.335,60.95976 57.2386,60.41976 54.8694,60.41976 C52.9402,60.39896 51.0426,60.75536 49.177,61.48896 C47.3106,62.22296 45.8326,63.18696 44.7426,64.38216 L34.207,62.65256 L37.5722,29.44176 L74.9342,29.44176 L74.9342,39.19136 L47.227,39.19136 L45.3718,56.26816 L45.749,56.26816 C46.9442,54.86416 48.6314,53.69496 50.8122,52.76176 C52.9926,51.82896 55.383,51.36216 57.983,51.36216 C61.8826,51.36216 65.3626,52.27936 68.4242,54.11416 C71.485,55.94856 73.8962,58.46976 75.6574,61.67776 C77.4186,64.88536 78.2994,68.55496 78.2994,72.68496 C78.2994,76.94136 77.319,80.73096 75.359,84.05376 C73.3982,87.37736 70.683,89.98736 67.2134,91.88496 C63.743,93.78256 59.7334,94.73096 55.1838,94.73096" id="Fill-23" fill="#FFFFFF"></path></g></g></g></svg>