<svg width="289" height="76" viewBox="0 0 289 76" fill="none" xmlns="http://www.w3.org/2000/svg">
<path fill-rule="evenodd" clip-rule="evenodd" d="M36.2678 20.7359C36.2678 14.17 36.2678 7.59777 36.2485 1.0383C36.2485 0.27244 36.3991 -0.00317685 37.2323 2.75808e-05C45.3203 0.0320719 53.4083 0.0320719 61.4963 2.75808e-05C62.2044 2.75808e-05 62.4576 0.150664 62.4384 0.910114C62.3999 4.89856 62.3999 8.887 62.4384 12.8754C62.4384 13.5452 62.2397 13.7182 61.5924 13.715C58.563 13.6929 55.5337 13.6952 52.5043 13.6976C51.573 13.6983 50.6417 13.699 49.7104 13.699C48.4766 13.699 48.4766 13.699 48.4766 14.9038V40.4335C48.4766 41.5359 48.4767 41.5391 47.4 41.5391C46.2645 41.5391 45.1291 41.5369 43.9936 41.5348C41.7228 41.5305 39.4519 41.5262 37.181 41.5391C36.4472 41.5391 36.2517 41.3212 36.255 40.5777C36.2722 35.5002 36.2705 30.4113 36.2688 25.3197C36.2683 23.7919 36.2678 22.2639 36.2678 20.7359ZM20.5822 31.8232C20.68 32.4111 20.7573 32.9953 20.8338 33.5732C20.9953 34.7938 21.153 35.9859 21.4923 37.1233C24.0558 45.6984 29.7405 50.9216 38.5943 52.3572C40.5846 52.6806 42.6315 52.6718 44.6777 52.6631H44.6778C45.5505 52.6593 46.4231 52.6556 47.2911 52.6776L47.3832 52.6801C48.4705 52.7088 48.4736 52.7089 48.4736 53.8472V65.569C48.4736 66.1907 48.3486 66.4535 47.65 66.431C46.5174 66.3988 45.3822 66.3972 44.2472 66.3955H44.2469C42.2221 66.3926 40.1975 66.3897 38.1874 66.2131C32.398 65.6999 26.8447 63.6768 22.0819 60.3458C16.8958 56.8232 12.7741 51.9468 10.1646 46.2463C10.086 46.0144 9.93092 45.8162 9.7248 45.684C9.51869 45.5518 9.27378 45.4936 9.03024 45.5189C7.67156 45.5301 6.31368 45.5301 4.95581 45.5301C3.59793 45.5301 2.24005 45.5301 0.881375 45.5413C0.182809 45.5413 -0.00625262 45.3202 0.000156238 44.6377C0.0289961 40.6193 0.0193828 36.601 0.000156238 32.5826C0.000156238 32.0603 0.0642421 31.7783 0.708333 31.7783C5.0298 31.7933 9.3527 31.7883 13.6761 31.7833H13.6764C15.8383 31.7808 18.0004 31.7783 20.1624 31.7783C20.258 31.7804 20.3472 31.7927 20.434 31.8048C20.4839 31.8117 20.5331 31.8185 20.5822 31.8232ZM26.9079 0.0193873H20.8419C20.2087 0.0193873 19.5743 0.0232055 18.9386 0.0270314C17.557 0.0353459 16.1695 0.0436965 14.7759 0.0129722C14.0869 -0.00304997 13.9459 0.230891 13.9459 0.871777C13.9758 4.89227 13.9758 8.90955 13.9459 12.9236C13.9395 13.5902 14.1574 13.776 14.7983 13.776C18.8145 13.7568 22.8318 13.7568 26.8502 13.776C27.4366 13.776 27.6737 13.6254 27.6737 12.9845C27.6502 8.91274 27.6502 4.8399 27.6737 0.766006C27.6769 0.17639 27.4782 0.0193873 26.9079 0.0193873Z" fill="#f96240"/>
<path fill-rule="evenodd" clip-rule="evenodd" d="M82.4597 65.5115C82.4597 66.303 82.2834 66.4376 81.5368 66.4376H77.7972C77.0474 66.4376 76.8711 66.303 76.8711 65.5115V48.7972H73.75C73.0034 48.7972 72.8271 48.6658 72.8271 47.8743V45.6312C72.8271 44.8397 73.0034 44.7084 73.75 44.7084H76.8711V42.9043C76.8711 38.0656 78.6336 34.5728 83.9209 34.5728C85.9012 34.5728 89.2851 35.2777 89.2851 36.175C89.2779 36.3102 89.2486 36.4433 89.1986 36.5691L88.4071 39.6486C88.3622 39.8248 88.186 40.0876 88.0097 40.0876C87.8404 40.0876 87.6173 39.9962 87.3273 39.8773C86.7885 39.6565 86.0188 39.3409 84.9335 39.3409C82.5558 39.3409 82.4693 40.7926 82.4693 42.9043V44.7084H87.4842C87.8784 44.7084 88.2308 44.7949 88.2308 45.1474C88.2222 45.297 88.1931 45.4447 88.1443 45.5864L87.5259 48.182C87.3945 48.7524 87.1317 48.7972 86.6927 48.7972H82.4597V65.5115ZM97.3826 65.8193C97.3826 66.3032 97.2929 66.4378 96.7674 66.4378H92.4126C91.8838 66.4378 91.7973 66.3032 91.7973 65.8193V52.5369C91.7973 49.217 91.2588 47.8024 90.9207 46.9143C90.766 46.508 90.6533 46.212 90.6533 45.8942C90.6533 45.7179 90.8296 45.5737 91.0475 45.5L94.3929 44.1349C94.576 44.0554 94.7673 43.9963 94.9633 43.9587C95.492 43.9587 96.37 45.939 96.5911 47.4355C96.6728 47.3367 96.7619 47.2241 96.8591 47.1012C97.7581 45.9655 99.3464 43.9587 102.039 43.9587C103.32 43.9587 104.602 44.4009 104.602 44.9713C104.603 45.1219 104.573 45.2711 104.516 45.4103L103.151 49.105C103.106 49.2364 102.974 49.5024 102.798 49.5024C102.709 49.5024 102.561 49.4473 102.363 49.3742C101.976 49.2309 101.402 49.0185 100.731 49.0185C99.3694 49.0185 97.9594 50.5149 97.389 51.1302L97.3826 65.8193ZM115.17 66.438C115.696 66.438 115.786 66.3034 115.786 65.8196V45.324C115.786 44.8402 115.696 44.7088 115.17 44.7088H106.813C106.285 44.7088 106.195 44.8402 106.195 45.324V48.1824C106.195 48.6663 106.285 48.7976 106.813 48.7976H110.2V65.8196C110.2 66.3034 110.287 66.438 110.816 66.438H115.17ZM111.547 41.6026C112 41.7785 112.483 41.8617 112.969 41.8472C113.913 41.8192 114.809 41.4246 115.466 40.747C116.124 40.0695 116.492 39.1624 116.492 38.2182C116.492 37.274 116.124 36.3669 115.466 35.6894C114.809 35.0119 113.913 34.6172 112.969 34.5892C112.483 34.5748 112 34.6579 111.547 34.8338C111.094 35.0097 110.681 35.2747 110.332 35.6131C109.984 35.9515 109.707 36.3565 109.517 36.8039C109.328 37.2514 109.231 37.7323 109.231 38.2182C109.231 38.7041 109.328 39.185 109.517 39.6325C109.707 40.0799 109.984 40.4849 110.332 40.8233C110.681 41.1617 111.094 41.4267 111.547 41.6026ZM137.669 64.1049C137.758 64.2504 137.803 64.4183 137.8 64.5888C137.8 65.7327 133.401 67.1843 129.927 67.1843C124.121 67.1843 120.073 63.8838 120.073 55.7926C120.073 48.7973 123.813 43.9586 129.706 43.9586C137.185 43.9586 138.502 50.6463 138.502 55.9688C138.502 56.802 138.326 57.068 137.493 57.068H125.659C125.659 59.5322 126.364 62.5667 130.497 62.5667C132.695 62.5667 134.236 61.8675 135.179 61.4397C135.595 61.251 135.894 61.1152 136.083 61.1152C136.187 61.1244 136.287 61.1617 136.373 61.2232C136.458 61.2847 136.525 61.368 136.567 61.4644L137.669 64.1049ZM132.564 52.9759C132.564 51.1718 132.433 48.0507 129.398 48.0507C126.144 48.0507 125.817 51.3726 125.68 52.7657L125.669 52.8713C125.666 52.9078 125.662 52.9428 125.659 52.9759H132.564ZM159.597 66.4378C160.125 66.4378 160.215 66.3032 160.215 65.8194V50.3837C160.215 45.0739 156.914 43.9748 154.495 43.9748C151.16 43.9748 149.207 45.7208 147.922 46.8697C147.869 46.9173 147.817 46.964 147.766 47.0094C147.282 44.9361 146.929 43.9748 146.359 43.9748C146.134 43.9845 145.911 44.0288 145.699 44.1061L142.357 45.2085C142.046 45.295 141.87 45.4713 141.87 45.6924C141.87 45.9825 141.939 46.1604 142.037 46.4139C142.281 47.0422 142.706 48.135 142.706 52.553V65.8354C142.706 66.3193 142.796 66.4538 143.321 66.4538H147.676C148.205 66.4538 148.295 66.3193 148.295 65.8354V50.3964C148.865 49.8773 150.317 48.5956 152.165 48.5956C154.409 48.5956 154.626 50.6176 154.626 52.2903V65.8194C154.626 66.3032 154.716 66.4378 155.242 66.4378H159.597ZM179.749 67.0082C179.566 67.0873 179.375 67.1463 179.179 67.1844C178.781 67.1844 178.125 65.6463 177.897 64.544L177.846 64.5922L177.789 64.6456C177.007 65.386 175.108 67.1844 172.091 67.1844C167.076 67.1844 164.57 63.1372 164.57 56.4528C164.57 48.1213 167.56 43.9555 173.013 43.9555C175.219 43.9555 176.25 44.6771 176.95 45.1676C177.004 45.2051 177.055 45.2413 177.106 45.2758V36.2681C177.106 35.6763 177.363 35.6151 177.788 35.514C177.837 35.5024 177.889 35.4902 177.942 35.4766L181.637 34.73C181.708 34.73 181.859 34.6897 181.995 34.6532L181.996 34.6531L181.996 34.6531L181.996 34.6531L181.996 34.6531L181.996 34.6531L181.996 34.6531C182.108 34.6229 182.211 34.5954 182.252 34.5954C182.604 34.5954 182.691 34.7717 182.691 35.5215V59.5387C182.691 62.4726 183.065 63.6597 183.299 64.4007C183.405 64.7369 183.482 64.9813 183.482 65.2554C183.482 65.4316 183.306 65.5758 183.088 65.6527L179.749 67.0082ZM177.112 49.2364C176.238 48.6225 175.186 48.3139 174.119 48.3584C170.822 48.3584 170.162 50.8226 170.162 55.703C170.162 60.673 170.998 62.7848 173.856 62.7848C175.722 62.7848 176.492 61.9318 177.017 61.3507L177.019 61.3493C177.051 61.314 177.082 61.2797 177.112 61.2466V49.2364ZM197.673 65.801C197.657 65.7582 197.637 65.7039 197.617 65.6013L196.736 61.9963C196.722 61.9158 196.677 61.8438 196.612 61.7949C196.546 61.7461 196.465 61.7241 196.383 61.7335C196.291 61.7335 196.159 61.7827 195.99 61.8463C195.679 61.9627 195.239 62.1276 194.669 62.1276C193.439 62.1276 193.439 60.8971 193.439 59.4904V35.5181C193.439 34.7682 193.349 34.592 192.996 34.592C192.958 34.592 192.857 34.619 192.745 34.6488L192.745 34.6488C192.607 34.6855 192.454 34.7265 192.381 34.7265L188.686 35.4732C188.633 35.4868 188.582 35.499 188.533 35.5106C188.108 35.6116 187.85 35.6729 187.85 36.2647V58.6957C187.85 62.7429 187.85 67.1842 193.262 67.1842C195.374 67.1842 197.704 66.569 197.704 65.9537C197.704 65.8825 197.691 65.849 197.673 65.801ZM211.47 45.2404C211.605 44.7566 211.822 44.3176 212.22 44.3176C212.314 44.3176 212.498 44.3305 212.667 44.3425C212.814 44.3528 212.95 44.3624 213.011 44.3624L216.091 44.7566C216.751 44.8463 217.052 44.888 217.052 45.1988C216.998 45.4677 216.924 45.7322 216.831 45.9903L212.521 61.8682C212.422 62.2276 212.316 62.6127 212.205 63.0162C211.434 65.822 210.419 69.517 209.573 71.6321C208.291 74.8366 205.571 75.7691 203.106 75.7691C200.642 75.7691 197.127 74.5802 197.127 73.7439C197.144 73.5579 197.203 73.3783 197.3 73.2184L198.62 70.3568C198.647 70.2698 198.699 70.1927 198.77 70.1356C198.841 70.0785 198.927 70.0439 199.018 70.0363C199.159 70.0363 199.397 70.1507 199.72 70.3057C200.397 70.6311 201.446 71.1355 202.757 71.1355C205.042 71.1355 205.702 69.7736 206.282 67.883L206.721 66.4314H204.872C204.302 66.4314 204.231 66.2551 204.081 65.8577L197.351 45.9903C197.247 45.7506 197.174 45.4987 197.133 45.2404C197.133 44.8911 197.448 44.8471 198.078 44.759L198.095 44.7566L201.745 44.3624C201.817 44.3624 201.997 44.3488 202.158 44.3365L202.158 44.3365C202.289 44.3266 202.408 44.3176 202.446 44.3176C202.797 44.3176 202.928 44.751 203.062 45.1903L203.062 45.1904L203.065 45.1988L205.923 55.8407C206.452 57.821 207.33 61.958 207.593 63.4512H207.682C207.903 61.7368 208.964 56.6354 209.134 55.8407L211.47 45.2404ZM227.678 62.1246C227.482 59.6331 227.161 57.153 226.717 54.6936L224.817 45.1924C224.73 44.7502 224.567 44.3112 224.246 44.3112C224.152 44.3112 223.981 44.3241 223.824 44.3361C223.687 44.3465 223.561 44.3561 223.5 44.3561L220.199 44.7502L220.128 44.7602C219.535 44.8428 219.238 44.8841 219.238 45.1924C219.275 45.3733 219.341 45.6071 219.414 45.8646L219.414 45.8665L219.459 46.0256L224.737 66.2135C224.913 66.7839 224.999 66.8288 225.573 66.8288H228.989C229.562 66.8288 229.694 66.566 229.784 66.127L232.421 54.9532C232.8 53.3321 233.065 51.6862 233.212 50.0279H233.302C233.389 51.2584 233.61 53.5464 233.872 54.9532L236.029 66.127C236.116 66.566 236.247 66.8288 236.821 66.8288H240.236C240.81 66.8288 240.897 66.7839 241.073 66.2135L247.187 46.0256C247.281 45.7538 247.355 45.4753 247.408 45.1924C247.408 44.8816 247.107 44.84 246.447 44.7502L243.457 44.3561C243.394 44.3561 243.275 44.3463 243.148 44.3359C243.002 44.324 242.846 44.3112 242.752 44.3112C242.399 44.3112 242.223 44.7502 242.137 45.1924L240.025 54.6936C239.51 57.0769 239.288 59.5877 239.073 62.0146V62.0148L239.064 62.1246H238.967C238.842 59.8218 238.563 57.53 238.134 55.264L236.212 45.4104C236.077 44.7502 236.035 44.7086 235.375 44.7086H231.46C230.799 44.7086 230.755 44.7502 230.623 45.4104L228.601 55.264C228.169 57.5295 227.889 59.8216 227.765 62.1246H227.678ZM263.183 67.0082C262.999 67.0873 262.807 67.1463 262.61 67.1844C262.215 67.1844 261.555 65.6463 261.328 64.5439C261.308 64.5642 261.287 64.5848 261.266 64.6059C261.238 64.6349 261.208 64.6647 261.178 64.6952C260.277 65.6114 258.729 67.1844 255.611 67.1844C251.564 67.1844 249.013 64.5439 249.013 60.4102C249.013 52.9759 257.024 52.976 260.495 52.976V51.6141C260.495 49.6337 260.142 48.3584 257.37 48.3584C255.704 48.3584 254.057 48.9624 252.992 49.3533C252.482 49.5403 252.105 49.6786 251.923 49.6786C251.702 49.6786 251.525 49.4126 251.484 49.2364L250.599 46.5543C250.515 46.3905 250.47 46.2095 250.468 46.0255C250.468 45.0161 254.823 43.9587 258.21 43.9587C263.709 43.9587 265.776 46.4677 265.776 51.0405V59.5322C265.776 62.4661 266.317 63.6533 266.655 64.3943C266.808 64.7305 266.92 64.9749 266.92 65.2489C266.92 65.4252 266.743 65.5694 266.522 65.6463L263.183 67.0082ZM260.501 56.5842C260.43 56.5842 260.342 56.5827 260.24 56.581C258.762 56.5563 254.297 56.4817 254.297 60.109C254.283 60.4982 254.348 60.8862 254.487 61.2497C254.627 61.6132 254.839 61.9446 255.11 62.224C255.382 62.5034 255.707 62.7249 256.066 62.8752C256.425 63.0256 256.811 63.1016 257.201 63.0987C258.828 63.0987 259.972 61.958 260.501 61.4293V56.5842ZM283.284 44.3176C282.887 44.3176 282.666 44.7566 282.535 45.2405L280.218 55.8344C280.048 56.6291 278.984 61.7305 278.766 63.4449H278.676C278.414 61.9516 277.532 57.8147 277.007 55.8344L274.145 45.1924C274.014 44.7502 273.883 44.3112 273.53 44.3112C273.491 44.3112 273.373 44.3202 273.242 44.3302C273.081 44.3424 272.901 44.3561 272.828 44.3561L269.175 44.7502L269.158 44.7526C268.529 44.8407 268.214 44.8848 268.214 45.2341C268.257 45.4922 268.331 45.744 268.435 45.9839L275.164 65.8514C275.296 66.2487 275.385 66.425 275.956 66.425H277.805L277.363 67.8766C276.786 69.7672 276.126 71.1291 273.838 71.1291C272.527 71.1291 271.479 70.6248 270.803 70.2994C270.481 70.1444 270.243 70.03 270.101 70.03C270.01 70.0367 269.924 70.071 269.853 70.1282C269.782 70.1855 269.73 70.263 269.704 70.3504L268.384 73.212C268.286 73.3717 268.226 73.5513 268.208 73.7375C268.208 74.5739 271.726 75.7627 274.19 75.7627C276.654 75.7627 279.375 74.8302 280.657 71.6258C281.503 69.5106 282.518 65.8155 283.289 63.0096C283.4 62.6062 283.505 62.2212 283.605 61.8619L287.899 45.9903C287.99 45.7318 288.062 45.4674 288.117 45.1989C288.117 44.888 287.812 44.8464 287.155 44.7566L284.076 44.3625C284.003 44.3625 283.857 44.3521 283.705 44.3412C283.542 44.3296 283.374 44.3176 283.284 44.3176Z" fill="#757378"/>
</svg>
