<?xml version="1.0" encoding="UTF-8" standalone="no"?>
<!-- Created with Inkscape (http://www.inkscape.org/) -->

<svg
   xmlns:dc="http://purl.org/dc/elements/1.1/"
   xmlns:cc="http://creativecommons.org/ns#"
   xmlns:rdf="http://www.w3.org/1999/02/22-rdf-syntax-ns#"
   xmlns:svg="http://www.w3.org/2000/svg"
   xmlns="http://www.w3.org/2000/svg"
   xmlns:sodipodi="http://sodipodi.sourceforge.net/DTD/sodipodi-0.dtd"
   xmlns:inkscape="http://www.inkscape.org/namespaces/inkscape"
   width="89.37796mm"
   height="41.845051mm"
   viewBox="0 0 89.37796 41.845051"
   version="1.1"
   id="svg4529"
   inkscape:version="0.92.3 (2405546, 2018-03-11)"
   sodipodi:docname="mirabyte Logo.svg">
  <defs
     id="defs4523">
    <pattern
       y="0"
       x="0"
       height="6"
       width="6"
       patternUnits="userSpaceOnUse"
       id="EMFhbasepattern" />
  </defs>
  <sodipodi:namedview
     id="base"
     pagecolor="#ffffff"
     bordercolor="#666666"
     borderopacity="1.0"
     inkscape:pageopacity="0.0"
     inkscape:pageshadow="2"
     inkscape:zoom="2.8"
     inkscape:cx="150.00195"
     inkscape:cy="74.062069"
     inkscape:document-units="mm"
     inkscape:current-layer="layer1"
     showgrid="false"
     inkscape:window-width="2560"
     inkscape:window-height="1361"
     inkscape:window-x="-9"
     inkscape:window-y="-9"
     inkscape:window-maximized="1" />
  <metadata
     id="metadata4526">
    <rdf:RDF>
      <cc:Work
         rdf:about="">
        <dc:format>image/svg+xml</dc:format>
        <dc:type
           rdf:resource="http://purl.org/dc/dcmitype/StillImage" />
        <dc:title></dc:title>
      </cc:Work>
    </rdf:RDF>
  </metadata>
  <g
     inkscape:label="Ebene 1"
     inkscape:groupmode="layer"
     id="layer1"
     transform="translate(-3.6919733,-1.6667606)">
    <path
       id="path5077"
       d="M 3.6919733,40.722806 H 56.012487 V 37.933804 H 3.6919733 Z"
       style="fill:#141515;fill-opacity:1;fill-rule:evenodd;stroke:none;stroke-width:0.26458332"
       inkscape:connector-curvature="0" />
    <path
       id="path5079"
       d="M 15.004245,15.191928 H 12.183678 V 35.114809 H 9.3431073 V 15.191928 H 6.5325423 V 35.114809 H 3.6919733 V 12.842767 h 2.840569 v 1.059622 c 0.860173,-0.869689 1.900382,-1.299536 3.120627,-1.299536 0.5701147,0 1.0802167,0.119957 1.4902997,0.349875 0.430086,0.2799 0.690138,0.589789 0.810162,0.949661 0.850172,-0.869689 1.920387,-1.299536 3.18064,-1.299536 0.950191,0 1.64033,0.229918 2.070416,0.669761 0.420084,0.429846 0.630126,1.129596 0.630126,2.09925 v 0.869689 1.00964 17.863616 h -2.830568 z m 5.491103,19.922881 V 12.842767 h 2.830569 v 22.272042 z m 0,-28.8596874 v -3.138879 h 2.830569 v 3.138879 z m 5.651136,6.5876454 h 2.830569 v 1.059622 c 0.870175,-0.869689 1.910384,-1.299536 3.130629,-1.299536 1.670335,0 2.510504,0.929668 2.530509,2.769011 v 0.869689 1.00964 1.849339 h -2.840572 v -3.908604 h -2.820566 v 19.922881 h -2.830569 z m 13.04262,19.932879 h 2.840572 V 24.278682 H 39.189104 Z M 44.840241,17.2312 v 17.883609 h -2.810565 v -1.049623 c -1.050211,0.859692 -2.09042,1.279543 -3.090622,1.279543 -0.85017,0 -1.480296,-0.22992 -1.890379,-0.699751 -0.420084,-0.459835 -0.630126,-1.159584 -0.630126,-2.079257 v -0.869688 -0.989648 -4.358443 -0.989646 -0.609782 c 0,-0.879686 0.09002,-1.499464 0.260051,-1.839343 0.410083,-0.809711 1.160235,-1.209568 2.260454,-1.209568 1.050211,0 2.09042,0.439843 3.090622,1.289539 v -7.797214 h -2.840572 v 3.908604 H 36.368537 V 17.2312 16.271543 c 0,-1.379508 0.320066,-2.329169 0.940189,-2.868976 0.600123,-0.52981 1.68034,-0.799714 3.270657,-0.799714 1.050214,0 1.900383,0.119957 2.53051,0.349875 0.640127,0.2799 1.090218,0.659764 1.330267,1.179579 0.270055,0.5598 0.400081,1.299535 0.400081,2.199214 z m 8.331674,-2.039272 h -2.820567 v 17.583718 h 2.820567 z M 47.52078,3.1162426 h 2.830568 V 13.902389 c 0.870175,-0.869689 1.910384,-1.299536 3.120628,-1.299536 1.680337,0 2.520506,0.929668 2.530507,2.769011 v 0.869689 1.00964 13.455192 0.989648 0.599783 c 0,0.889683 -0.08002,1.499466 -0.280056,1.859336 -0.390078,0.789718 -1.150231,1.189577 -2.290458,1.189577 -1.280258,0 -2.310466,-0.419851 -3.080621,-1.279543 v 1.049623 H 47.52078 Z m 16.653346,9.7265244 h 2.820567 v 26.050694 0.939663 c 0,1.339522 -0.320064,2.289183 -0.960194,2.828991 -0.630127,0.569796 -1.720345,0.849696 -3.270655,0.849696 -1.540312,0 -2.640531,-0.2799 -3.280661,-0.849696 -0.640128,-0.539808 -0.960192,-1.499465 -0.960192,-2.878974 v -0.88968 -2.059265 h 2.820567 v 4.098536 h 2.830568 v -6.867546 c -1.090218,0.859692 -2.130428,1.279543 -3.110624,1.279543 -0.880179,0 -1.520307,-0.219921 -1.93039,-0.679759 -0.400079,-0.439841 -0.610121,-1.149588 -0.610121,-2.099249 V 31.696033 30.706385 12.842767 h 2.820567 v 19.932879 h 2.830568 z m 12.272468,0 v 2.509104 h -2.840572 v 17.263832 h 2.840572 v 2.499106 H 75.29636 74.316163 C 72.985897,35.064829 72.065713,34.744943 71.575615,34.13516 71.05551,33.525378 70.795456,32.435768 70.795456,30.876324 V 30.026628 15.351871 h -2.390478 v -2.509104 h 2.390478 V 6.6949636 h 2.810566 v 6.1478034 z m 6.921389,2.349161 h -2.830568 v 6.747589 h 2.830568 z m 0,12.405568 h 2.820566 v 3.13888 0.959657 c 0,1.319527 -0.300058,2.259192 -0.910182,2.808996 -0.640128,0.5598 -1.730349,0.8397 -3.320666,0.8397 -1.540309,0 -2.640532,-0.2799 -3.280659,-0.8397 -0.64013,-0.549804 -0.960194,-1.509461 -0.960194,-2.888969 V 30.736376 17.2312 16.271543 c 0,-1.379508 0.310062,-2.329169 0.940189,-2.868976 0.60012,-0.52981 1.680337,-0.799714 3.260656,-0.799714 1.060212,0 1.910384,0.119957 2.530507,0.349875 0.64013,0.2799 1.090221,0.659764 1.34027,1.179579 0.260051,0.5598 0.400079,1.299535 0.400079,2.199214 v 0.899679 7.217421 h -5.651134 v 8.327025 h 2.830568 z"
       style="fill:#141515;fill-opacity:1;fill-rule:evenodd;stroke:none;stroke-width:0.26458332"
       inkscape:connector-curvature="0" />
    <path
       id="path5081"
       d="m 22.04566,8.9341636 c 2.000402,0 3.63073,-1.629418 3.63073,-3.6387 0,-1.999285 -1.630328,-3.628703 -3.63073,-3.628703 -2.000402,0 -3.63073,1.629418 -3.63073,3.628703 0,2.009282 1.630328,3.6387 3.63073,3.6387 z"
       style="fill:#141515;fill-opacity:1;fill-rule:evenodd;stroke:none;stroke-width:0.26458332"
       inkscape:connector-curvature="0" />
    <path
       id="path5083"
       d="m 90.649446,6.7149566 c 0.400081,0 0.80016,0.09996 1.190241,0.30989 0.390078,0.209924 0.690137,0.509817 0.910183,0.899678 0.220043,0.389861 0.320063,0.799714 0.320063,1.219564 0,0.41985 -0.10002,0.819707 -0.320063,1.2095684 -0.210043,0.379864 -0.510104,0.679757 -0.890181,0.899679 -0.390077,0.209925 -0.790159,0.319885 -1.210243,0.319885 -0.420085,0 -0.830165,-0.10996 -1.210242,-0.319885 -0.39008,-0.219922 -0.690139,-0.519815 -0.900181,-0.899679 -0.220046,-0.3898614 -0.330068,-0.7897184 -0.330068,-1.2095684 0,-0.41985 0.110022,-0.829703 0.330068,-1.219564 0.220044,-0.389861 0.520105,-0.689754 0.910183,-0.899678 0.390078,-0.209926 0.790159,-0.30989 1.20024,-0.30989 z m 0,0.399857 c -0.350071,0 -0.680136,0.08997 -1.000199,0.259908 -0.320064,0.179935 -0.580118,0.429846 -0.760154,0.749732 -0.180035,0.329882 -0.270055,0.66976 -0.270055,1.019635 0,0.349875 0.09002,0.679757 0.270055,0.9996434 0.180036,0.329882 0.430086,0.579793 0.75015,0.759729 0.320066,0.169939 0.660132,0.259907 1.010203,0.259907 0.35007,0 0.680138,-0.08997 1.000201,-0.259907 0.330068,-0.179936 0.580118,-0.429847 0.750152,-0.759729 0.180036,-0.3198864 0.270053,-0.6497684 0.270053,-0.9996434 0,-0.349875 -0.09002,-0.689753 -0.270053,-1.019635 -0.180035,-0.319886 -0.430088,-0.569797 -0.760153,-0.749732 -0.320064,-0.16994 -0.660133,-0.259908 -0.9902,-0.259908 z M 89.579233,10.483611 V 7.8745426 h 0.900181 c 0.31006,0 0.530106,0.01999 0.670134,0.06997 0.130027,0.04998 0.240048,0.129954 0.320064,0.249911 0.09002,0.119957 0.130026,0.24991 0.130026,0.38986 0,0.189933 -0.07001,0.349875 -0.210042,0.489825 -0.130026,0.149947 -0.320066,0.229918 -0.540109,0.239915 0.09002,0.03999 0.170034,0.08997 0.220043,0.13995 0.110024,0.09996 0.230047,0.2799 0.39008,0.519814 l 0.320064,0.5098184 H 91.25957 L 91.029522,10.073752 C 90.849487,9.7538666 90.699457,9.5439406 90.589435,9.4639696 c -0.08002,-0.05998 -0.190039,-0.08997 -0.340068,-0.08997 h -0.25005 v 1.1096044 z m 0.420084,-1.4694754 h 0.510101 c 0.250052,0 0.420084,-0.03999 0.500102,-0.109961 0.09002,-0.06997 0.140028,-0.169939 0.140028,-0.289896 0,-0.07997 -0.02001,-0.149947 -0.07001,-0.209925 -0.04001,-0.05998 -0.100021,-0.09996 -0.170035,-0.129954 -0.08001,-0.02999 -0.220043,-0.04998 -0.430085,-0.04998 h -0.480097 z"
       style="fill:#141515;fill-opacity:1;fill-rule:evenodd;stroke:none;stroke-width:0.26458332"
       inkscape:connector-curvature="0" />
    <path
       id="path5085"
       d="m 22.04566,7.9845036 c 1.480297,0 2.690541,-1.199572 2.690541,-2.68904 0,-1.479471 -1.210244,-2.679042 -2.690541,-2.679042 -1.480298,0 -2.690541,1.199571 -2.690541,2.679042 0,1.489468 1.210243,2.68904 2.690541,2.68904 z"
       style="fill:#e7071e;fill-opacity:1;fill-rule:evenodd;stroke:none;stroke-width:0.26458332"
       inkscape:connector-curvature="0" />
  </g>
</svg>
