<svg width="40" height="43" viewBox="0 0 40 43" fill="none" xmlns="http://www.w3.org/2000/svg">
<path d="M31.7708 0C33.5426 0 34.98 1.44098 34.98 3.21767C34.98 4.99435 33.5426 6.43534 31.7708 6.43534C30.2583 6.43534 28.9906 5.3846 28.6525 3.9727C26.9461 4.17873 25.8263 4.81862 25.2337 5.86088C24.8386 6.55411 24.6459 7.46305 24.6665 8.5853H33.2469C37.7226 8.5853 40.8251 13.25 39.2993 17.6626L34.1559 32.5245C33.3524 34.8441 31.4242 36.4911 29.1591 36.8862C29.6863 37.2983 30.1189 37.8315 30.4134 38.452C30.6558 38.9877 30.7807 39.5694 30.7807 40.1584C30.7807 42.6502 20.9568 42.6502 20.9568 40.1584C20.9568 38.9211 21.5046 37.794 22.3905 36.9771H18.0433C18.5196 37.3759 18.911 37.8776 19.1861 38.452C19.4285 38.9877 19.5534 39.5694 19.5534 40.1584C19.5534 42.6502 9.72826 42.6502 9.72826 40.1584C9.72826 38.8762 10.316 37.714 11.2577 36.8911C8.97929 36.5057 7.039 34.855 6.23306 32.5233L1.08964 17.6626C-0.437387 13.2476 2.67121 8.5853 7.13959 8.5853H14.3893C14.4099 7.46426 14.2172 6.55532 13.8222 5.86209C13.3253 4.98951 12.4624 4.40051 11.1959 4.10965C10.8105 5.45367 9.57556 6.43655 8.11155 6.43655C6.33971 6.43655 4.90358 4.99557 4.90358 3.21888C4.90358 1.44098 6.34093 0 8.11155 0C9.55253 0 10.7705 0.951363 11.1765 2.26146C14.5408 2.86015 16.2254 5.02465 16.1781 8.5853H22.8777C22.8268 4.73137 24.8046 2.51354 28.7458 2.14511C29.1858 0.895615 30.3735 0 31.7708 0Z" fill="#7048E6"/>
<path fill-rule="evenodd" clip-rule="evenodd" d="M34.4664 8.6958H34.47C27.1742 8.96485 23.1421 16.9151 22.2938 19.6807C21.2273 23.1553 18.4617 35.4685 6.12546 31.1819L5.75098 31.0486L5.79945 31.0692C7.62098 31.8424 17.9418 35.7897 23.3094 24.1539C26.8931 16.3855 32.2813 13.4393 39.4729 15.3154L39.691 15.3735C39.6922 15.2911 39.691 15.2087 39.6886 15.1275L39.6898 15.1626C39.6898 15.1178 39.6874 15.0718 39.685 15.0269L39.6886 15.1275L39.6874 15.0681L39.685 15.0269L39.6789 14.896L39.685 15.0099L39.6801 14.936L39.6777 14.896L39.6704 14.776L39.6765 14.8609L39.6716 14.8003L39.6668 14.7409C39.6595 14.6536 39.651 14.5664 39.6401 14.4791L39.6438 14.5155L39.6292 14.3943L39.6401 14.4791L39.6244 14.364L39.6292 14.3943L39.6074 14.2476L39.6244 14.364L39.6147 14.2985L39.6074 14.2476L39.5892 14.1361L39.605 14.2331L39.5832 14.1046L39.5892 14.1361L39.565 14.0101L39.5832 14.1046L39.5735 14.0477L39.5662 14.0101L39.5395 13.8792L39.5626 13.9907L39.5335 13.8526L39.5395 13.8792L39.5153 13.7665L39.5335 13.8513L39.5201 13.7907L39.5068 13.7314L39.4438 13.4841L39.4511 13.512L39.4183 13.3944L39.4426 13.4841L39.4111 13.3702L39.4183 13.3944L39.3796 13.2648L39.4111 13.3702C39.3989 13.3254 39.3844 13.2817 39.3711 13.2381L39.3796 13.2648L39.3432 13.1521L39.3711 13.2381L39.3529 13.1811L39.3432 13.1521L39.302 13.0284L39.3335 13.1242L39.3153 13.0696L39.302 13.0284L39.2596 12.9109L39.2971 13.0163L39.2487 12.8794L39.2596 12.9109L39.2196 12.8042L39.2475 12.8794L39.2269 12.8236L39.2062 12.7703L39.1069 12.5303L39.0754 12.4588L39.0148 12.3279L39.0608 12.4273L39.0329 12.3679L39.0135 12.3279L38.9651 12.2286L39.0051 12.3098L38.9493 12.1946L38.9663 12.2286L38.9093 12.1171L38.9493 12.1946L38.8984 12.0977L38.9093 12.1171L38.8475 11.9995L38.8984 12.0965L38.8342 11.9753L38.8463 11.9995L38.7906 11.8965L38.833 11.9753L38.8051 11.9232L38.776 11.8723C38.7336 11.7983 38.6912 11.7244 38.6451 11.6517L38.6633 11.6808L38.6003 11.579L38.6451 11.6517L38.6148 11.6032L38.6003 11.579L38.5264 11.4663L38.5857 11.556L38.5094 11.4408L38.5264 11.4663L38.4609 11.3705L38.5094 11.4408L38.4767 11.3923L38.4609 11.3705L38.387 11.2651L38.4439 11.3451L38.4112 11.299L38.387 11.2651L38.3155 11.1681L38.3785 11.253L38.2937 11.1378L38.3155 11.1669L38.244 11.0724L38.2925 11.1378L38.2258 11.0494L38.244 11.0736L38.1567 10.9633L38.2258 11.0494L38.1882 11.0009L38.1567 10.9633L38.0876 10.8785L38.1482 10.9536L38.0658 10.853L38.0876 10.8773L38.0077 10.784L38.0658 10.853L38.0295 10.8094L38.0077 10.7852L37.9192 10.6834L37.9931 10.7682L37.9483 10.7161L37.9192 10.6834L37.8453 10.6022L37.9022 10.6652L37.8622 10.6216L37.8453 10.6022L37.7592 10.5125L37.8222 10.5779L37.7834 10.5379L37.7592 10.5125L37.6695 10.4204L37.7447 10.4979L37.6477 10.3986L37.6695 10.4204L37.5895 10.3428L37.6477 10.3986L37.6053 10.3574L37.5629 10.3174C37.5023 10.2592 37.4405 10.2022 37.3775 10.1477L37.4041 10.1707L37.3108 10.0895L37.3775 10.1477L37.3375 10.1113L37.3108 10.0895L37.2102 10.0047L37.295 10.0762L37.1908 9.98893L37.2102 10.0047L37.1229 9.93318L37.1908 9.98893L37.0987 9.915L37.1229 9.93318L37.0284 9.86046L37.0987 9.915L37.0539 9.87864L37.0284 9.86046L36.9218 9.78048L37.009 9.84471L36.9557 9.80471L36.9218 9.78048C36.8903 9.75624 36.8575 9.73321 36.8248 9.7114L36.9012 9.76593L36.8551 9.732L36.8066 9.69807C36.7363 9.64959 36.6648 9.60111 36.5933 9.55506L36.6224 9.57324L36.5255 9.51264L36.5933 9.55506L36.5449 9.52476L36.5255 9.51264L36.4043 9.43992L36.4976 9.49567C36.4612 9.47143 36.4225 9.44962 36.3849 9.42781L36.4055 9.43992L36.3085 9.38418L36.3849 9.42781L36.3328 9.3963L36.3085 9.38418C36.2685 9.35994 36.2273 9.33812 36.1861 9.3151L36.2794 9.366L36.231 9.34055L36.1861 9.3151L36.0831 9.26177L36.1837 9.31388L36.0601 9.24965L36.0843 9.26177C36.0492 9.24359 36.0152 9.22541 35.9813 9.20966L36.0601 9.24965C36.0249 9.23147 35.991 9.21329 35.9559 9.19754L35.9801 9.20966L35.8541 9.14906L35.9559 9.19754L35.9013 9.17088L35.8528 9.14906L35.7559 9.10422L35.8468 9.14543L35.7195 9.08847L35.6686 9.06665L35.648 9.05817L35.5171 9.00484L35.6165 9.04484L35.5535 9.01939L35.5171 9.00484L35.4117 8.96364L35.4905 8.99393L35.4335 8.97212L35.4117 8.96364L35.2845 8.91758L35.3766 8.95152L35.3244 8.93213L35.2832 8.91758L35.1657 8.8788L35.2735 8.91516L35.1402 8.87032L35.1645 8.8788L35.0542 8.84244L35.139 8.87032L35.0821 8.85214L35.0542 8.84366C35.0093 8.82911 34.9633 8.81699 34.9184 8.80366L35.0251 8.83396L34.9609 8.81578L34.9184 8.80366L34.8094 8.77458L34.8966 8.79881C34.8554 8.7867 34.8142 8.77458 34.773 8.76488L34.8094 8.77458C34.767 8.76246 34.7258 8.75276 34.6845 8.74307L34.773 8.76488L34.6639 8.73822L34.6845 8.74307L34.5512 8.71277L34.6639 8.73822L34.5961 8.72367L34.5294 8.70913L34.4664 8.69701V8.6958Z" fill="url(#paint0_linear_5093_51886)"/>
<path d="M23.3077 24.1526C17.854 35.9762 7.28601 31.7114 5.71777 31.0339C9.20207 32.9221 19.6101 34.7885 25.3474 27.2455C28.782 22.7298 32.8904 20.9471 37.6727 21.8984L37.8181 21.9287L39.2967 17.653C39.5597 16.892 39.6857 16.1236 39.6905 15.3734C32.3887 13.3798 26.9277 16.3066 23.3077 24.1526Z" fill="url(#paint1_linear_5093_51886)"/>
<path fill-rule="evenodd" clip-rule="evenodd" d="M25.3474 27.2482C19.6113 34.7901 9.20207 32.9237 5.71777 31.0367L6.23042 32.5177C7.15754 35.1912 9.57534 36.9703 12.2828 36.9703H28.1033C30.8107 36.9703 33.2297 35.1912 34.1532 32.5177L37.8181 21.9303C32.974 20.9135 28.8171 22.6865 25.3474 27.2482Z" fill="url(#paint2_linear_5093_51886)"/>
<path opacity="0.637" fill-rule="evenodd" clip-rule="evenodd" d="M2.70782 10.4357L2.7466 10.3994L2.78538 10.3606L2.82174 10.3254L2.94414 10.2115L2.99747 10.1655L3.01322 10.1497L3.07382 10.0976L3.10048 10.0758L3.1635 10.0224L3.19865 9.99336L3.25682 9.94609L3.29197 9.91943L3.3562 9.86853L3.38529 9.84671L3.46285 9.78975L3.48951 9.76915L3.55132 9.72552L3.57677 9.70734L3.71978 9.61039L3.79734 9.5607L3.85794 9.52071L3.89551 9.49889L3.97913 9.44799L4.00822 9.43102L4.07487 9.39224L4.14395 9.35346L4.20091 9.32316L4.2906 9.27468L4.33423 9.25287L4.39603 9.22257L4.44087 9.20076L4.53056 9.15713L4.61903 9.11713L4.66387 9.09774L4.71598 9.07593L4.73658 9.06623L4.77537 9.05048L4.86747 9.01412L4.90141 8.99958L4.97291 8.97291L5.01775 8.95595L5.10016 8.92686L5.11713 8.9208L5.2056 8.89171L5.25408 8.87596L5.33043 8.85172L5.37042 8.8396L5.46617 8.81294L5.5001 8.80324L5.58615 8.78022L5.62008 8.77173L5.70492 8.75113L5.734 8.74386L5.81884 8.72568L5.85519 8.7172L5.91579 8.70508L6.13151 8.71599C13.2904 9.13289 17.2497 16.951 18.0896 19.69C19.1561 23.1646 21.9229 35.4778 34.2591 31.1912L34.6336 31.0579L34.6651 31.0433C33.0993 31.8917 33.1211 31.8796 34.6651 31.0433L34.1525 32.5255C33.2266 35.199 30.8088 36.9781 28.1001 36.9781H12.2796C9.57339 36.9781 7.15317 35.199 6.22968 32.5255L1.08626 17.6624C0.823271 16.9013 0.697231 16.133 0.692383 15.3828L0.91053 15.3246L0.692383 15.3828V15.218L0.696019 15.1271L0.699654 15.0362L0.70329 14.9453L0.705714 14.9053L0.710562 14.8447L0.714198 14.7938L0.717833 14.7502C0.722681 14.692 0.727529 14.6338 0.7348 14.5757L0.743284 14.5029L0.745708 14.4763L0.756615 14.3951L0.761463 14.3611L0.777218 14.2569L0.782065 14.2278L0.794185 14.1551L0.797821 14.1309L0.802668 14.1018L0.818423 14.0182L0.834178 13.9394L0.822059 14L0.843874 13.8958L0.853569 13.8497L0.868112 13.7855L0.877808 13.7406C0.889927 13.6849 0.90447 13.6304 0.919013 13.5758L0.938404 13.5043L0.943252 13.4825L0.96749 13.3952L0.977186 13.3662L1.00142 13.285L1.01597 13.2365L1.04021 13.1613L1.05475 13.1189L1.08262 13.0377L1.0899 13.0171L1.12141 12.9299L1.13958 12.879L1.1614 12.822L1.17837 12.7784C1.20988 12.6984 1.24381 12.6184 1.27774 12.5396L1.30925 12.4681L1.32743 12.4281L1.36985 12.3372L1.39409 12.2875L1.41348 12.2463L1.43893 12.1966L1.47529 12.1251L1.49468 12.0888L1.52982 12.0221L1.55649 11.9736L1.59163 11.9106L1.60739 11.8815L1.69465 11.7337L1.73343 11.6707L1.74434 11.6525L1.78433 11.5883L1.80372 11.5592L1.8522 11.4865L1.87765 11.4465L1.92249 11.3798L1.94552 11.3471L1.99763 11.2744L2.00975 11.2562L2.06428 11.1823L2.09822 11.1374L2.13821 11.0853L2.16609 11.0489L2.22668 10.9714L2.24244 10.9532L2.29334 10.8914L2.32727 10.8514L2.37575 10.7932L2.39999 10.7666L2.46543 10.6939L2.49088 10.6636L2.53936 10.6114L2.56966 10.5787L2.62541 10.5205L2.64965 10.4963L2.70782 10.4357Z" fill="url(#paint3_linear_5093_51886)"/>
<defs>
<linearGradient id="paint0_linear_5093_51886" x1="33.1212" y1="15.7698" x2="24.2329" y2="27.5098" gradientUnits="userSpaceOnUse">
<stop stop-color="#4E25C3"/>
<stop offset="1" stop-color="#351285"/>
</linearGradient>
<linearGradient id="paint1_linear_5093_51886" x1="42.6404" y1="20.6962" x2="27.8015" y2="31.6981" gradientUnits="userSpaceOnUse">
<stop stop-color="#4363EC"/>
<stop offset="1" stop-color="#2342C0"/>
</linearGradient>
<linearGradient id="paint2_linear_5093_51886" x1="45.246" y1="28.1729" x2="16.3306" y2="37.226" gradientUnits="userSpaceOnUse">
<stop stop-color="#99F3F1"/>
<stop offset="1" stop-color="#00D7D7"/>
</linearGradient>
<linearGradient id="paint3_linear_5093_51886" x1="4.21788" y1="15.3198" x2="20.5292" y2="34.5519" gradientUnits="userSpaceOnUse">
<stop stop-color="#99F3F1" stop-opacity="0"/>
<stop offset="1" stop-color="#00D7D7"/>
</linearGradient>
</defs>
</svg>
