<svg class="icon" width="240" height="26" viewBox="0 0 240 26" fill="none" xmlns="http://www.w3.org/2000/svg">
    <path d="M28.922 0H22.4228V19.2702H28.922V0Z" fill="currentColor"></path>
    <path d="M17.5476 6.4217H11.0483V12.8451H17.5476V6.4217Z" fill="currentColor"></path>
    <path
        d="M3.4121 12.5427C5.29689 12.5427 6.82421 14.0522 6.82421 15.915C6.82421 17.7777 5.29689 19.2872 3.4121 19.2872C1.52732 19.2872 0 17.7777 0 15.915C0 14.0522 1.52732 12.5427 3.4121 12.5427Z"
        fill="currentColor"></path>
    <path
        d="M51.6694 15.915C51.6694 14.0522 50.1421 12.5427 48.2573 12.5427C46.3725 12.5427 44.8452 14.0522 44.8452 15.915C44.8452 17.7777 46.3725 19.2872 48.2573 19.2872C50.1421 19.2872 51.6694 17.7777 51.6694 15.915Z"
        fill="currentColor"></path>
    <path d="M33.8013 6.4217H40.3005V25.6919H33.8013V6.4217Z" fill="currentColor"></path>
    <path
        d="M61.4819 16.124V16.0598C61.4819 10.6802 65.6252 6.10352 71.4908 6.10352C74.8866 6.10352 76.9827 7.03491 78.9974 8.70499L76.9014 11.1619C75.3741 9.89332 73.8793 9.09039 71.377 9.09039C67.6887 9.09039 64.9265 12.2379 64.9265 15.9955V16.0437C64.9265 20.0744 67.6237 23.0613 71.6695 23.0613C73.5705 23.0613 75.2928 22.4511 76.4952 21.5518V17.8262H71.4095V14.9678H79.6798V23.0131C77.7463 24.6511 75.0004 26 71.572 26C65.479 26.016 61.4819 21.7284 61.4819 16.124Z"
        fill="currentColor"></path>
    <path fill-rule="evenodd" clip-rule="evenodd"
        d="M86.4434 6.41943H95.0874C97.5246 6.41943 99.4581 7.14207 100.709 8.34645C101.733 9.35814 102.285 10.8034 102.285 12.4735V12.5217C102.285 15.6691 100.352 17.5801 97.5733 18.3188L102.935 25.6736H99.0194L94.145 18.8648H89.7255V25.6896H86.4434V6.41943ZM94.8436 16.0064C97.3296 16.0064 98.9707 14.7056 98.9707 12.6983V12.6501C98.9707 10.5625 97.4108 9.3742 94.8274 9.3742H89.7417V16.0224L94.8436 16.0064Z"
        fill="currentColor"></path>
    <path fill-rule="evenodd" clip-rule="evenodd"
        d="M115.359 6.29541H118.413L127.009 25.6941H123.548L121.517 21.005H112.142L110.111 25.6941H106.731L115.359 6.29541ZM120.314 18.0984L116.837 10.1494L113.36 18.0984H120.314Z"
        fill="currentColor"></path>
    <path
        d="M130.616 22.8814L132.598 20.5529C134.467 22.1748 136.368 23.0741 138.805 23.0741C140.983 23.0741 142.364 22.0624 142.364 20.5529V20.5047C142.364 19.1076 141.567 18.3368 137.895 17.4857C133.687 16.5062 131.38 15.2697 131.38 11.7368V11.6886C131.38 8.42874 134.142 6.14844 137.993 6.14844C140.853 6.14844 143.079 6.96742 145.061 8.55721L143.273 11.0142C141.535 9.69736 139.764 9.02291 137.944 9.02291C135.881 9.02291 134.646 10.0506 134.646 11.3835V11.4317C134.646 12.9733 135.556 13.6799 139.39 14.5631C143.533 15.5427 145.629 17.02 145.629 20.1675V20.2157C145.629 23.7967 142.77 25.9325 138.724 25.9325C135.734 25.9646 132.94 24.9529 130.616 22.8814Z"
        fill="currentColor"></path>
    <path
        d="M150.54 22.8814L152.522 20.5529C154.39 22.1748 156.291 23.0741 158.729 23.0741C160.906 23.0741 162.287 22.0624 162.287 20.5529V20.5047C162.287 19.1076 161.491 18.3368 157.819 17.4857C153.61 16.5062 151.303 15.2697 151.303 11.7368V11.6886C151.303 8.42874 154.065 6.14844 157.916 6.14844C160.776 6.14844 163.002 6.96742 164.984 8.55721L163.197 11.0142C161.458 9.69736 159.687 9.02291 157.867 9.02291C155.804 9.02291 154.569 10.0506 154.569 11.3835V11.4317C154.569 12.9733 155.479 13.6799 159.314 14.5631C163.457 15.5427 165.553 17.02 165.553 20.1675V20.2157C165.553 23.7967 162.693 25.9325 158.647 25.9325C155.658 25.9646 152.879 24.9529 150.54 22.8814Z"
        fill="currentColor"></path>
    <path d="M172.051 6.41943H186.479V9.39025H175.333V14.818H185.244V17.7888H175.333V25.6896H172.035L172.051 6.41943Z"
        fill="currentColor"></path>
    <path d="M192.849 6.41943H196.147V25.6896H192.849V6.41943Z" fill="currentColor"></path>
    <path
        d="M202.47 22.8814L204.452 20.5529C206.321 22.1748 208.222 23.0741 210.659 23.0741C212.836 23.0741 214.217 22.0624 214.217 20.5529V20.5047C214.217 19.1076 213.421 18.3368 209.749 17.4857C205.541 16.5062 203.233 15.2697 203.233 11.7368V11.6886C203.233 8.42874 205.996 6.14844 209.846 6.14844C212.706 6.14844 214.932 6.96742 216.914 8.55721L215.127 11.0142C213.388 9.69736 211.617 9.02291 209.798 9.02291C207.734 9.02291 206.499 10.0506 206.499 11.3835V11.4317C206.499 12.9733 207.409 13.6799 211.244 14.5631C215.387 15.5427 217.483 17.02 217.483 20.1675V20.2157C217.483 23.7967 214.623 25.9325 210.578 25.9325C207.588 25.9646 204.809 24.9529 202.47 22.8814Z"
        fill="currentColor"></path>
    <path
        d="M223.898 6.41943H227.196V14.4969H236.701V6.41943H240V25.6896H236.701V17.5159H227.196V25.6896H223.898V6.41943Z"
        fill="currentColor"></path>
</svg>