<svg xmlns="http://www.w3.org/2000/svg" id="Layer_1" viewBox="0 0 700 190"><defs><style>      .st0 {        fill: #05f;      }    </style></defs><g><path class="st0" d="M137.5,119.1v-30.2h-37.7v13.4h20.1v12.1s-1.6,5.6-8.8,8c-4.4,1.5-7.9,1.8-11.2,1.8s-7.7-.7-11-2.2c-3.3-1.4-6.2-3.5-8.6-6.1-2.4-2.6-4.3-5.7-5.6-9.3-1.3-3.6-2-7.6-2-11.9s.6-8.3,1.9-11.8c1.3-3.5,3.1-6.6,5.5-9.1s5.2-4.5,8.5-5.9,6.9-2.1,10.8-2.1,7.7.7,11.2,2.1,6.5,3.3,9,5.8l11.4-11.4c-4.3-3.8-9.3-6.7-14.8-8.8s-11.2-3.1-17.1-3.1-12.2,1.1-17.5,3.4c-5.4,2.2-10.1,5.4-14.1,9.4s-7.1,8.7-9.4,14.1c-2.2,5.4-3.3,11.2-3.3,17.6s1.1,12.2,3.4,17.6,5.4,10.2,9.5,14.2,8.8,7.2,14.2,9.4,11.3,3.4,17.7,3.4,11.4-.3,18.5-2.7c15.2-5.2,19.7-17.8,19.7-17.8Z"></path><path class="st0" d="M169.2,106.9h14.2l18,30.9h19.5l-19.7-34c5.1-2.1,9-5.1,11.8-9.3,2.8-4.1,4.1-9.1,4.1-15s-1.3-10.6-3.9-14.7c-2.6-4.1-6.4-7.2-11.3-9.4-4.9-2.2-10.8-3.3-17.7-3.3h-32.5v85.7h17.6v-30.9ZM169.2,67.5h13.6c5.2,0,9.2,1.1,12,3.3,2.8,2.2,4.2,5.3,4.2,9.4s-1.4,7.2-4.2,9.4-6.8,3.3-12,3.3h-13.6v-25.4Z"></path><path class="st0" d="M246.9,134.7c5.6,3.2,12.3,4.8,20,4.8s14.5-1.6,20.1-4.8c5.6-3.2,9.9-7.8,12.8-13.8s4.5-13.2,4.5-21.6v-47.1h-17.6v44.9c0,6-.8,11-2.3,15s-3.7,7-6.7,9.1-6.6,3.1-10.9,3.1-8-1-10.9-3.1-5.1-5.1-6.7-9.1-2.3-9-2.3-15v-44.9h-17.6v47.1c0,8.4,1.5,15.6,4.5,21.6s7.3,10.6,12.9,13.8Z"></path><path class="st0" d="M369.7,134.8c4.3-2,7.7-4.8,10-8.4s3.6-7.8,3.6-12.7-1.4-9.4-4.1-12.9c-2.7-3.5-6.5-6-11.4-7.5,3.4-1.7,6.1-4.2,8.2-7.5s3-7.1,3-11.4c0-7-2.5-12.5-7.6-16.4-5.1-3.9-12.2-5.9-21.4-5.9h-31.7v85.7h36.2c5.8,0,10.9-1,15.2-3ZM335.9,67.5h12.8c4.1,0,7.3.9,9.6,2.7s3.5,4.3,3.5,7.4-1.1,5.7-3.4,7.6-5.4,2.8-9.3,2.8h-13.1v-20.5ZM335.9,122.5v-21.4h15.3c2.9,0,5.5.4,7.6,1.2,2.1.8,3.8,2,4.9,3.6s1.7,3.4,1.7,5.7-.6,4.1-1.9,5.8-3,2.9-5.3,3.8-5,1.3-8.1,1.3h-14.2Z"></path><path class="st0" d="M445.4,134.8c4.3-2,7.7-4.8,10-8.4s3.6-7.8,3.6-12.7-1.4-9.4-4.1-12.9-6.5-6-11.4-7.5c3.4-1.7,6.1-4.2,8.2-7.5s3-7.1,3-11.4c0-7-2.5-12.5-7.6-16.4-5.1-3.9-12.2-5.9-21.4-5.9h-31.7v85.7h36.2c5.8,0,10.9-1,15.2-3ZM411.6,67.5h12.8c4.1,0,7.3.9,9.6,2.7s3.5,4.3,3.5,7.4-1.1,5.7-3.4,7.6-5.4,2.8-9.3,2.8h-13.1v-20.5ZM411.6,122.5v-21.4h15.3c2.9,0,5.5.4,7.6,1.2,2.1.8,3.8,2,4.9,3.6s1.7,3.4,1.7,5.7-.6,4.1-1.9,5.8-3,2.9-5.3,3.8c-2.3.9-5,1.3-8.1,1.3h-14.2Z"></path><path class="st0" d="M487.2,106.9h14.2l18,30.9h19.5l-19.7-34c5.1-2.1,9-5.1,11.8-9.3,2.8-4.1,4.1-9.1,4.1-15s-1.3-10.6-3.9-14.7c-2.6-4.1-6.4-7.2-11.3-9.4-4.9-2.2-10.8-3.3-17.7-3.3h-32.5v85.7h17.6v-30.9ZM487.2,67.5h13.6c5.2,0,9.2,1.1,12,3.3s4.2,5.3,4.2,9.4-1.4,7.2-4.2,9.4-6.8,3.3-12,3.3h-13.6v-25.4Z"></path><path class="st0" d="M565.8,106.9h14.2l18,30.9h19.5l-19.7-34c5.1-2.1,9-5.1,11.8-9.3,2.8-4.1,4.1-9.1,4.1-15s-1.3-10.6-3.9-14.7c-2.6-4.1-6.4-7.2-11.3-9.4s-10.8-3.3-17.7-3.3h-32.5v85.7h17.6v-30.9ZM565.8,67.5h13.6c5.2,0,9.2,1.1,12,3.3s4.2,5.3,4.2,9.4-1.4,7.2-4.2,9.4-6.8,3.3-12,3.3h-13.6v-25.4Z"></path><path class="st0" d="M634,52c-6.3,0-11.3,5.1-11.3,11.3s5.1,11.3,11.3,11.3,11.3-5.1,11.3-11.3-5.1-11.3-11.3-11.3ZM642.5,63.3c0,4.7-3.8,8.5-8.5,8.5s-8.5-3.8-8.5-8.5,3.8-8.5,8.5-8.5,8.5,3.8,8.5,8.5Z"></path><path class="st0" d="M638.5,61.3c0-2.1-1.7-3.8-3.8-3.8h-3.8c-.8,0-1.4.6-1.4,1.4v8.9c0,.8.6,1.4,1.4,1.4s1.4-.6,1.4-1.4v-2.7h1.9l1.5,3.3c.2.5.7.8,1.3.8s.4,0,.6-.1c.7-.3,1-1.2.7-1.9l-1.4-2.9c.9-.7,1.5-1.8,1.5-3ZM635.7,61.3c0,.5-.4,1-1,1h-2.3v-1.9h2.3c.5,0,1,.4,1,1Z"></path></g><path class="st0" d="M637.6,17c18,0,29.8,3.1,36.1,9.3,6.3,6.3,9.3,18.1,9.3,36.1v65.1c0,18-3.1,29.8-9.3,36.1-6.3,6.3-18.1,9.3-36.1,9.3H62.4c-18,0-29.8-3.1-36.1-9.3-6.3-6.3-9.3-18.1-9.3-36.1V62.4c0-18,3.1-29.8,9.3-36.1,6.3-6.3,18.1-9.3,36.1-9.3h575.1M637.6,0H62.4C17.4,0,0,17.4,0,62.4v65.1c0,45.1,17.4,62.4,62.4,62.4h575.1c45.1,0,62.4-17.4,62.4-62.4V62.4c0-45.1-17.4-62.4-62.4-62.4h0Z"></path></svg>