<svg id="Слой_1" xmlns="http://www.w3.org/2000/svg" viewBox="0 0 488.7 141.3"><style>.st0{fill:url(#SVGID_1_)}.st1{fill:url(#SVGID_2_)}.st2{fill:url(#SVGID_3_)}.st3{fill:url(#SVGID_4_)}.st4{fill:url(#SVGID_5_)}.st5{fill:url(#SVGID_6_)}.st6{fill:url(#SVGID_7_)}.st7{fill:url(#SVGID_8_)}.st8{fill:url(#SVGID_9_)}.st9{fill:url(#SVGID_10_)}.st10{fill:url(#SVGID_11_)}.st11{fill:#3d3d3d}</style><linearGradient id="SVGID_1_" gradientUnits="userSpaceOnUse" x1="117.471" y1="109.717" x2="117.471" y2="-4.95"><stop offset="0" stop-color="#00b2ff"/><stop offset="1" stop-color="#50d7b9"/></linearGradient><path class="st0" d="M123.5 3.6v106.3h-12.1V3.6h12.1z"/><linearGradient id="SVGID_2_" gradientUnits="userSpaceOnUse" x1="181.828" y1="109.717" x2="181.828" y2="-4.95"><stop offset="0" stop-color="#00b2ff"/><stop offset="1" stop-color="#50d7b9"/></linearGradient><path class="st1" d="M137.7 110V3.5H187c8.4 0 15.2 1.3 20.4 4 5.2 2.6 9.2 6.3 11.8 11 2.7 4.7 4.5 10.2 5.4 16.4.9 6.2 1.4 13.5 1.4 22 0 8.2-.4 15.4-1.3 21.6-.9 6.1-2.5 11.6-5 16.4-2.5 4.8-6.1 8.5-10.9 11.2-4.8 2.7-11 4-18.6 4h-52.5zm11.8-10.6h34.8c7.2 0 12.9-1.2 17.2-3.7 4.2-2.5 7.4-6.8 9.4-13s3-14.8 3-25.9c0-8.4-.6-15.4-1.7-21-1.1-5.5-2.9-9.9-5.2-13.1-2.4-3.2-5.4-5.4-9.1-6.8-3.7-1.3-8.3-2-13.7-2h-34.7v85.5z"/><linearGradient id="SVGID_3_" gradientUnits="userSpaceOnUse" x1="270.465" y1="109.717" x2="270.465" y2="-4.95"><stop offset="0" stop-color="#00b2ff"/><stop offset="1" stop-color="#50d7b9"/></linearGradient><path class="st2" d="M248 50.3h54.2v10.4H248v38.7h56.5V110h-68.3V3.5h68.6V14H248v36.3z"/><linearGradient id="SVGID_4_" gradientUnits="userSpaceOnUse" x1="350.557" y1="109.717" x2="350.557" y2="-4.95"><stop offset="0" stop-color="#00b2ff"/><stop offset="1" stop-color="#50d7b9"/></linearGradient><path class="st3" d="M310.4 77.2h11.8c0 5.6.3 9.9 1 12.9.6 3 1.9 5.2 3.8 6.8s4.6 2.5 8.2 3.1c3.6.5 8.8.8 15.7.8 6.2 0 11.1-.4 14.8-1.1 3.7-.8 6.5-1.9 8.4-3.5 1.9-1.6 3.1-3.6 3.7-6 .6-2.4.9-5.6.9-9.6 0-5-.7-8.8-2-11.4-1.3-2.5-3.9-4.3-7.8-5.4-3.8-1.1-9.8-1.7-17.8-1.9-6.9-.3-12.8-1-17.6-1.9-4.8-.9-8.9-2.4-12.2-4.5-3.3-2.1-5.8-5-7.5-8.8-1.7-3.8-2.6-8.6-2.6-14.5 0-5.4.8-10 2.3-13.8 1.5-3.8 3.8-6.8 7-9.2 3.2-2.4 7.2-4.1 12.2-5.2 4.9-1.1 11-1.6 18.1-1.6 8.7 0 15.7.8 21.1 2.3 5.4 1.5 9.5 4.4 12.3 8.6s4.3 10.3 4.3 18.1l.1 1.6H377c0-4.1-.4-7.4-1.1-9.9-.7-2.5-2-4.6-3.8-6.1s-4.5-2.6-7.8-3.2c-3.3-.7-7.8-1-13.5-1-7.8 0-13.7.6-17.7 1.8-3.9 1.2-6.6 3.1-8.1 5.7-1.4 2.6-2.2 6.4-2.2 11.2 0 5 .9 8.8 2.7 11.3s5 4.3 9.7 5.5c4.7 1.1 11.8 2 21.5 2.5 8 .4 14.3 1.5 19.1 3.2 4.8 1.7 8.5 4.6 11 8.6s3.8 9.7 3.8 17.1c0 6.4-.7 11.6-2.1 15.6-1.4 4-3.6 7.2-6.7 9.6-3.1 2.3-7.1 4-12.1 5s-11.3 1.5-18.9 1.5c-9.7 0-17.3-.6-22.8-1.8-5.5-1.2-9.8-3.9-13-8-3.1-4.2-4.7-10.5-4.7-19.1v-5.3z"/><linearGradient id="SVGID_5_" gradientUnits="userSpaceOnUse" x1="443.519" y1="109.717" x2="443.519" y2="-4.95"><stop offset="0" stop-color="#00b2ff"/><stop offset="1" stop-color="#50d7b9"/></linearGradient><path class="st4" d="M411.6 3.5V50h10.7l43.4-46.5h15.9l-49 51.5 54.6 55.1h-16.4l-48.7-49.4h-10.7V110h-11.8V3.5h12z"/><linearGradient id="SVGID_6_" gradientUnits="userSpaceOnUse" x1="44.526" y1="109.413" x2="43.193" y2=".746"><stop offset="0" stop-color="#00b2ff"/><stop offset="1" stop-color="#50d7b9"/></linearGradient><path class="st5" d="M48.6 46.8c2.6-1.1 5.2-1.3 7.6.1 1.3.7 2.4 1.8 3.4 2.9.5.6.9.7 1.5.4 4-2 8.4-.9 11.1 2.8.5.7.7.8 1.5.4 6-3.1 12.6 1.7 12.6 7.3-.1 7 .3 14.1-.2 21-.5 7.6-4.1 14.1-9.6 19.4-4.4 4.3-9.7 7.2-15.7 8.2-11 1.9-20.8-.7-28.9-8.6C22.5 91.5 13.3 82 3.8 72.8c-3-2.9-3.5-8.5 2.6-10.4 5.7-1.7 10.7-.6 15.1 3.3 1.9 1.7 3.9 2.3 6.1 1.4 2.4-1 3.5-3.1 3.5-5.7V35.2c0-2.1.1-4.2.1-6.3 0-3.8 4.3-8.1 9.3-7.7 4.1.4 8 3.9 8 8.2v16.2c-.1.5 0 .8.1 1.2zM6.3 68.2c.4.5.7.9 1 1.3C16.1 78.3 25 87 33.8 95.9c7 7.1 15.1 10.5 25.2 8.8 5.6-.9 10.4-3.4 14.4-7.4 4-3.9 7-8.6 7.5-14.2.7-7.3.5-14.8.6-22.2 0-2.2-1.7-3.7-3.8-3.8-2.1 0-3.7 1.6-3.8 3.8v1.9c-.2 1.4-1.3 2.3-2.5 2.2-1.3-.1-2.2-1-2.2-2.4v-4.7C68.9 55.8 67 54 65 54c-2.1 0-3.7 1.6-3.8 3.9v1.3c-.1 1.7-.9 2.6-2.4 2.6-1.6 0-2.5-.9-2.6-2.6 0-1.4-.1-2.9 0-4.3.2-2.1-1.6-4.1-3.9-4-2.3.1-3.9 1.7-3.9 4v3.7c0 1.1-.7 1.9-1.7 2-.8.1-1.9-.2-2.5-.8-.5-.4-.6-1.5-.6-2.2V30.4c0-2.5-1.6-4.2-3.9-4.2-2.2 0-3.8 1.7-3.9 4.2v31.5c0 6.4-5 10.7-10.5 10.6-2.7 0-5-1.1-7-3-3.4-3.1-8.4-3.7-12-1.3z"/><linearGradient id="SVGID_7_" gradientUnits="userSpaceOnUse" x1="39.591" y1="111.333" x2="39.591" y2="-1.333"><stop offset="0" stop-color="#00b2ff"/><stop offset="1" stop-color="#50d7b9"/></linearGradient><path class="st6" d="M39.6 15.5c-1.7 0-3.1-1.4-3.1-3.1v-8c0-1.7 1.4-3.1 3.1-3.1 1.7 0 3.1 1.4 3.1 3.1v7.9c0 1.8-1.4 3.2-3.1 3.2z"/><linearGradient id="SVGID_8_" gradientUnits="userSpaceOnUse" x1="17.449" y1="109.761" x2="17.699" y2="1.261"><stop offset="0" stop-color="#00b2ff"/><stop offset="1" stop-color="#50d7b9"/></linearGradient><path class="st7" d="M10.5 29.8c0-1.7 1.4-3.1 3.1-3.1h7.9c1.7 0 3.1 1.4 3.1 3.1 0 1.7-1.4 3.1-3.1 3.1h-7.9c-1.7 0-3.1-1.4-3.1-3.1z"/><linearGradient id="SVGID_9_" gradientUnits="userSpaceOnUse" x1="60.19" y1="109.91" x2="61.19" y2=".91"><stop offset="0" stop-color="#00b2ff"/><stop offset="1" stop-color="#50d7b9"/></linearGradient><path class="st8" d="M53.8 29.8c0-1.7 1.4-3.1 3.1-3.1h7.9c1.7 0 3.1 1.4 3.1 3.1 0 1.7-1.4 3.1-3.1 3.1H57c-1.8 0-3.2-1.4-3.2-3.1z"/><linearGradient id="SVGID_10_" gradientUnits="userSpaceOnUse" x1="55.703" y1="110.042" x2="55.203" y2=".292"><stop offset="0" stop-color="#00b2ff"/><stop offset="1" stop-color="#50d7b9"/></linearGradient><path class="st9" d="M50.3 19c-1.2-1.2-1.3-3.2-.1-4.4l5.5-5.7c1.3-1.3 3.3-1.3 4.5-.1 1.2 1.2 1.3 3.2.1 4.4l-5.5 5.7c-1.3 1.3-3.2 1.3-4.5.1z"/><linearGradient id="SVGID_11_" gradientUnits="userSpaceOnUse" x1="23.495" y1="109.47" x2="23.995" y2="1.22"><stop offset="0" stop-color="#00b2ff"/><stop offset="1" stop-color="#50d7b9"/></linearGradient><path class="st10" d="M19 8.8c-1.2 1.2-1.3 3.2-.1 4.4l5.5 5.7c1.2 1.2 3.2 1.3 4.4.1 1.2-1.2 1.3-3.2.1-4.4l-5.5-5.7c-1.2-1.3-3.2-1.3-4.4-.1z"/><path class="st11" d="M3.8 135.7v4.1H2.6v-10.6h5c.6 0 1.2.1 1.6.3s.7.5.9 1 .3 1 .3 1.7c0 .9-.1 1.5-.4 2-.2.5-.6.9-1.1 1.1s-1.2.3-2.1.3h-3zm0-1h2.8c.7 0 1.2-.1 1.6-.2.4-.1.6-.3.8-.6s.3-.8.3-1.4c0-.8-.1-1.4-.4-1.7-.3-.3-.7-.5-1.4-.5H3.8v4.4zm11.3 5.2l3.9-10.6h1.7l3.9 10.6h-1.3l-.8-2.2h-5.3l-.9 2.2h-1.2zm7.1-3.2l-2.3-6.5-2.3 6.5h4.6zM35 135h-2.5v-1H35c.6 0 1-.1 1.3-.2.3-.1.5-.3.6-.6s.2-.7.2-1.2-.1-.8-.3-1.1c-.2-.3-.5-.4-.8-.6-.4-.1-.9-.2-1.6-.2-.7 0-1.3.1-1.7.2-.4.1-.7.3-.8.6-.2.3-.3.7-.3 1.3h-1.1c0-.7.1-1.2.3-1.6.2-.4.4-.7.7-1 .3-.2.7-.4 1.2-.5.5-.1 1.1-.1 1.8-.1.9 0 1.7.1 2.3.3.6.2 1 .5 1.3.8.3.4.4.9.4 1.6 0 .8-.1 1.4-.4 1.8-.3.4-.7.6-1.4.7.7.1 1.3.4 1.5.8.3.4.4 1 .4 1.9 0 .7-.1 1.3-.4 1.7-.3.4-.7.7-1.3.9-.6.2-1.4.3-2.4.3-1.1 0-1.9-.1-2.5-.3-.6-.2-1-.5-1.2-.9-.2-.4-.4-1-.4-1.8v-.4h1.1v.3c0 .6.1 1 .2 1.3.2.3.4.4.8.5.4.1 1.1.1 1.9.1.6 0 1.1 0 1.5-.1.4-.1.7-.2.9-.4s.4-.4.4-.6c.1-.3.1-.6.1-.9 0-.6-.2-1.1-.5-1.4s-1-.2-1.8-.2zm10.7.7v4.1h-1.2v-10.6h5c.6 0 1.2.1 1.6.3s.7.5.9 1 .3 1 .3 1.7c0 .9-.1 1.5-.4 2-.2.5-.6.9-1.1 1.1s-1.2.3-2.1.3h-3zm0-1h2.8c.7 0 1.2-.1 1.6-.2s.6-.3.8-.6.3-.8.3-1.4c0-.8-.1-1.4-.4-1.7-.3-.3-.7-.5-1.4-.5h-3.7v4.4zm11.4 5.2l3.9-10.6h1.7l3.9 10.6h-1.3l-.8-2.2h-5.3l-.9 2.2h-1.2zm7.1-3.2l-2.3-6.5-2.3 6.5h4.6zm9.5-6.4v3.4h3.5c.8 0 1.4.1 1.8.3.5.2.8.5 1 1s.3 1 .3 1.8c0 .7-.1 1.3-.3 1.7-.2.4-.5.8-1 1-.5.2-1.1.3-1.8.3h-4.7v-10.6h7v1h-5.8zm0 4.5v4h3.5c.6 0 1-.1 1.3-.2s.5-.3.6-.6c.1-.3.2-.7.2-1.2s-.1-1-.2-1.3c-.1-.3-.4-.5-.7-.6s-.8-.2-1.3-.2h-3.4zm12.8-3c.1-.7.4-1.2.7-1.6.3-.4.8-.6 1.3-.8.6-.1 1.3-.2 2.3-.2.9 0 1.7.1 2.2.2.6.1 1 .4 1.3.8s.5.9.7 1.6c.1.7.2 1.6.2 2.8 0 1.2-.1 2.1-.2 2.8-.1.7-.4 1.2-.7 1.6-.3.4-.8.6-1.3.8s-1.3.2-2.2.2c-.9 0-1.7-.1-2.2-.2-.6-.1-1-.4-1.3-.8-.3-.4-.6-.9-.7-1.6-.1-.7-.2-1.6-.2-2.8-.1-1.2 0-2.1.1-2.8zm1.1 5.1c.1.5.2 1 .4 1.3.2.3.5.5 1 .6.4.1 1 .2 1.8.2s1.3-.1 1.8-.2c.4-.1.7-.3.9-.6.2-.3.4-.7.4-1.3.1-.5.1-1.3.1-2.3 0-1 0-1.8-.1-2.3-.1-.5-.2-1-.4-1.3-.2-.3-.5-.5-.9-.6-.4-.1-1-.2-1.8-.2s-1.4.1-1.8.2-.7.3-.9.6c-.2.3-.4.7-.4 1.3-.1.5-.1 1.3-.1 2.3-.1 1 0 1.8 0 2.3zm16.4 3v-9.5h-3.5v-1.1h8.1v1.1h-3.4v9.5H104zm11.7-10.6v4.6h1.1l4.3-4.6h1.6l-4.9 5.1 5.4 5.5h-1.6l-4.9-4.9h-1v4.9h-1.2v-10.6h1.2zm13.1 10.6l3.9-10.6h1.7l3.9 10.6H137l-.8-2.2h-5.3l-.8 2.2h-1.3zm7.1-3.2l-2.3-6.5-2.3 6.5h4.6zm16.5-7.4h8.5v10.6h-1.2v-9.5h-6.2v9.5h-1.2v-10.6zm16.3 6.4v4.1h-1.2v-10.6h5.1c.6 0 1.2.1 1.6.3s.7.5.9 1 .3 1 .3 1.7c0 .9-.1 1.5-.4 2-.2.5-.6.9-1.1 1.1-.5.2-1.2.3-2.1.3h-3.1zm0-1h2.8c.7 0 1.2-.1 1.6-.2s.6-.3.8-.6c.2-.3.3-.8.3-1.4 0-.8-.1-1.4-.4-1.7-.3-.3-.7-.5-1.4-.5h-3.7v4.4zm12.7-2.9c.1-.7.4-1.2.7-1.6.3-.4.8-.6 1.3-.8s1.3-.2 2.3-.2c.9 0 1.7.1 2.2.2s1 .4 1.3.8.5.9.7 1.6c.1.7.2 1.6.2 2.8 0 1.2-.1 2.1-.2 2.8-.1.7-.4 1.2-.7 1.6-.3.4-.8.6-1.3.8-.6.1-1.3.2-2.2.2-.9 0-1.7-.1-2.2-.2-.6-.1-1-.4-1.3-.8-.3-.4-.6-.9-.7-1.6s-.2-1.6-.2-2.8c-.1-1.2 0-2.1.1-2.8zm1.1 5.1c.1.5.2 1 .4 1.3.2.3.5.5 1 .6.4.1 1 .2 1.8.2s1.3-.1 1.8-.2c.4-.1.7-.3.9-.6.2-.3.4-.7.4-1.3.1-.5.1-1.3.1-2.3 0-1 0-1.8-.1-2.3-.1-.5-.2-1-.4-1.3-.2-.3-.5-.5-.9-.6s-1-.2-1.8-.2-1.4.1-1.8.2c-.4.1-.7.3-.9.6-.2.3-.4.7-.4 1.3-.1.5-.1 1.3-.1 2.3-.1 1-.1 1.8 0 2.3zm13.8 3v-10.6h6.5v1.1h-5.4v9.5h-1.1zm13.5-4.2v4.1h-1.2v-10.6h5.1c.6 0 1.2.1 1.6.3s.7.5.9 1 .3 1 .3 1.7c0 .9-.1 1.5-.4 2-.2.5-.6.9-1.1 1.1-.5.2-1.2.3-2.1.3h-3.1zm0-1h2.8c.7 0 1.2-.1 1.6-.2s.6-.3.8-.6c.2-.3.3-.8.3-1.4 0-.8-.1-1.4-.4-1.7-.3-.3-.7-.5-1.4-.5h-3.7v4.4zm11.4 5.2l3.9-10.6h1.7l3.9 10.6h-1.3l-.8-2.2h-5.3l-.8 2.2h-1.3zm7-3.2l-2.3-6.5-2.3 6.5h4.6zm10.4-7.4l3.7 9.1 3.8-9.1h1.9v10.6h-1.2v-9.7l-4 9.7h-1l-4-9.6v9.6h-1.2v-10.6h2zm18 0l3.7 9.1 3.8-9.1h1.9v10.6h-1.2v-9.7l-4 9.7h-1l-4-9.6v9.6h-1.2v-10.6h2zm17.2 4.7h6.2v-4.7h1.2v10.6H280V135h-6.2v4.9h-1.2v-10.6h1.2v4.7zm13.8-2.2c.1-.7.4-1.2.7-1.6.3-.4.8-.6 1.3-.8s1.3-.2 2.3-.2c.9 0 1.7.1 2.2.2s1 .4 1.3.8c.3.4.5.9.7 1.6.1.7.2 1.6.2 2.8 0 1.2-.1 2.1-.2 2.8-.1.7-.4 1.2-.7 1.6-.3.4-.8.6-1.3.8-.6.1-1.3.2-2.2.2-.9 0-1.7-.1-2.2-.2-.6-.1-1-.4-1.3-.8-.3-.4-.6-.9-.7-1.6s-.2-1.6-.2-2.8c-.1-1.2 0-2.1.1-2.8zm1.1 5.1c.1.5.2 1 .4 1.3.2.3.5.5 1 .6.4.1 1 .2 1.8.2s1.3-.1 1.8-.2c.4-.1.7-.3.9-.6.2-.3.4-.7.4-1.3.1-.5.1-1.3.1-2.3 0-1 0-1.8-.1-2.3-.1-.5-.2-1-.4-1.3-.2-.3-.5-.5-.9-.6s-1-.2-1.8-.2-1.4.1-1.8.2c-.4.1-.7.3-.9.6-.2.3-.4.7-.4 1.3-.1.5-.1 1.3-.1 2.3-.1 1-.1 1.8 0 2.3zm13.8 3v-10.6h6.5v1.1h-5.4v9.5h-1.1zm12.1-8.1c.1-.7.4-1.2.7-1.6.3-.4.8-.6 1.3-.8s1.3-.2 2.3-.2c.9 0 1.7.1 2.2.2s1 .4 1.3.8.5.9.7 1.6c.1.7.2 1.6.2 2.8 0 1.2-.1 2.1-.2 2.8-.1.7-.4 1.2-.7 1.6-.3.4-.8.6-1.3.8-.6.1-1.3.2-2.2.2-.9 0-1.7-.1-2.2-.2-.6-.1-1-.4-1.3-.8-.3-.4-.6-.9-.7-1.6s-.2-1.6-.2-2.8c-.1-1.2-.1-2.1.1-2.8zm1.1 5.1c.1.5.2 1 .4 1.3.2.3.5.5 1 .6.4.1 1 .2 1.8.2s1.3-.1 1.8-.2c.4-.1.7-.3.9-.6.2-.3.4-.7.4-1.3.1-.5.1-1.3.1-2.3 0-1 0-1.8-.1-2.3-.1-.5-.2-1-.4-1.3-.2-.3-.5-.5-.9-.6s-1-.2-1.8-.2-1.4.1-1.8.2c-.4.1-.7.3-.9.6-.2.3-.4.7-.4 1.3-.1.5-.1 1.3-.1 2.3-.2 1-.1 1.8 0 2.3zm21.7-5.1c.1-.7.4-1.2.7-1.6.3-.4.8-.6 1.3-.8.6-.1 1.3-.2 2.3-.2.9 0 1.7.1 2.2.2s1 .4 1.3.8.5.9.7 1.6c.1.7.2 1.6.2 2.8 0 1.2-.1 2.1-.2 2.8-.1.7-.4 1.2-.7 1.6-.3.4-.8.6-1.3.8-.6.1-1.3.2-2.2.2-.9 0-1.7-.1-2.2-.2-.6-.1-1-.4-1.3-.8-.3-.4-.6-.9-.7-1.6s-.2-1.6-.2-2.8c-.1-1.2 0-2.1.1-2.8zm1.1 5.1c.1.5.2 1 .4 1.3.2.3.5.5 1 .6.4.1 1 .2 1.8.2s1.3-.1 1.8-.2c.4-.1.7-.3.9-.6.2-.3.4-.7.4-1.3.1-.5.1-1.3.1-2.3 0-1 0-1.8-.1-2.3-.1-.5-.2-1-.4-1.3-.2-.3-.5-.5-.9-.6s-1-.2-1.8-.2-1.4.1-1.8.2c-.4.1-.7.3-.9.6-.2.3-.4.7-.4 1.3-.1.5-.1 1.3-.1 2.3-.1 1-.1 1.8 0 2.3zm15-6.6v3.4h3.5c.8 0 1.4.1 1.8.3.5.2.8.5 1 1s.3 1 .3 1.8c0 .7-.1 1.3-.3 1.7-.2.4-.5.8-1 1-.5.2-1.1.3-1.8.3h-4.7v-10.6h7v1h-5.8zm0 4.5v4h3.5c.6 0 1-.1 1.3-.2s.5-.3.6-.6c.1-.3.2-.7.2-1.2s-.1-1-.2-1.3c-.1-.3-.4-.5-.7-.6-.3-.1-.8-.2-1.3-.2h-3.4zm14-.9h5.4v1h-5.4v3.8h5.6v1.1h-6.8v-10.6h6.8v1h-5.6v3.7zm18.7 2.4h1.1c0 .9-.1 1.7-.4 2.2-.2.5-.7.9-1.3 1.1-.6.2-1.5.3-2.6.3-.8 0-1.5-.1-2.1-.2-.5-.1-.9-.4-1.3-.8-.3-.4-.5-.9-.7-1.6a19.095 19.095 0 0 1 0-5.5c.1-.7.4-1.3.7-1.6.3-.4.7-.7 1.3-.8s1.2-.2 2-.2 1.5.1 2 .2.9.3 1.2.6c.3.3.5.6.6 1 .1.4.2 1 .2 1.6h-1.1c-.1-.7-.2-1.2-.3-1.5s-.4-.6-.8-.7c-.4-.1-1-.2-1.8-.2-.6 0-1.1.1-1.5.2-.4.1-.7.3-.9.7-.2.3-.4.8-.5 1.3-.1.6-.1 1.3-.1 2.2 0 .9 0 1.7.1 2.2.1.6.3 1 .5 1.3.2.3.5.5.9.6.4.1.9.2 1.5.2s1.2 0 1.5-.1.7-.2.9-.4c.2-.2.4-.5.5-.8.3-.3.4-.7.4-1.3zm7.1-7h8.5v10.6h-1.2v-9.5h-6.2v9.5h-1.2v-10.6zm16.2 4.6h5.4v1h-5.4v3.8h5.6v1.1h-6.8v-10.6h6.8v1h-5.6v3.7zm18.4 6v-5c-.6.2-1.7.2-3.2.2-.7 0-1.3-.1-1.8-.2s-.8-.3-1.1-.5c-.3-.2-.4-.6-.6-1-.1-.4-.2-1-.2-1.7v-2.5h1.2v2.7c0 .5.1.9.2 1.2.1.3.3.5.5.6.2.1.5.2.8.3.3 0 .7.1 1.3.1 1.4 0 2.4-.1 2.9-.2v-4.6h1.2v10.6h-1.2zm9-6h5.4v1h-5.4v3.8h5.6v1.1h-6.8v-10.6h6.8v1h-5.6v3.7zm12.9.1h6.2v-4.7h1.2v10.6H456V135h-6.2v4.9h-1.2v-10.6h1.2v4.7zm13.9-4.7h1.2v9.8l6-9.8h1.9v10.6h-1.2v-9.7l-6 9.7h-1.9v-10.6zm22.3 6.3h-3.3l-2.4 4.2h-1.4l2.5-4.4c-.7-.1-1.3-.5-1.7-1s-.6-1.2-.6-2.1c0-1.1.3-1.9.8-2.4s1.4-.7 2.5-.7h4.7v10.6H486v-4.2zm0-1v-4.3h-3.8c-.7 0-1.2.2-1.5.6-.3.4-.4.9-.4 1.7 0 .6.2 1.1.7 1.5.4.3 1.1.5 1.9.5h3.1z"/></svg>