<?xml version="1.0" encoding="utf-8"?>
<!-- Generator: Adobe Illustrator 27.9.1, SVG Export Plug-In . SVG Version: 6.00 Build 0)  -->
<svg version="1.1" id="Layer_1" xmlns="http://www.w3.org/2000/svg" xmlns:xlink="http://www.w3.org/1999/xlink" x="0px" y="0px"
	 viewBox="0 0 116.61 116.61" style="enable-background:new 0 0 116.61 116.61;" xml:space="preserve">
<style type="text/css">
	.st0{fill:#0073E6;}
	.st1{fill:#FFFFFF;}
</style>
<g>
	
		<ellipse id="ICON_LOGO" transform="matrix(0.0614 -0.9981 0.9981 0.0614 -3.4679 112.9224)" class="st0" cx="58.3" cy="58.3" rx="56.69" ry="56.69"/>
	<g>
		<g id="D_1_">
			<defs>
				<path id="SVGID_1_" d="M77.8,49.28h3.57c1.02,0,1.83,0.17,2.43,0.5c0.6,0.34,1.09,0.78,1.46,1.33c0.16,0.24,0.29,0.5,0.39,0.78
					c0.11,0.27,0.2,0.66,0.28,1.17c0.08,0.5,0.13,1.18,0.16,2.04c0.03,0.86,0.05,1.97,0.05,3.34c0,1.37-0.02,2.49-0.05,3.34
					c-0.03,0.86-0.08,1.54-0.16,2.06c-0.08,0.52-0.17,0.92-0.28,1.19c-0.11,0.28-0.24,0.52-0.39,0.73
					c-0.37,0.55-0.86,0.99-1.46,1.33c-0.6,0.34-1.41,0.5-2.43,0.5H77.8V49.28z M69.83,42.13v32.62h12.1c1.71,0,3.32-0.25,4.83-0.76
					c1.51-0.51,2.83-1.32,3.96-2.45c0.95-0.95,1.66-1.92,2.13-2.93c0.47-1.01,0.8-2.05,0.98-3.12c0.18-1.07,0.27-2.18,0.27-3.34
					v-7.38c0-1.19-0.09-2.32-0.27-3.39c-0.18-1.07-0.51-2.11-0.98-3.12c-0.47-1.01-1.19-1.98-2.13-2.93
					c-1.13-1.13-2.45-1.95-3.96-2.45c-1.51-0.5-3.12-0.76-4.83-0.76H69.83z"/>
			</defs>
			<use xlink:href="#SVGID_1_"  style="overflow:visible;fill:#FFFFFF;"/>
			<clipPath id="SVGID_00000039113183814196510110000006551878993830870183_">
				<use xlink:href="#SVGID_1_"  style="overflow:visible;"/>
			</clipPath>
		</g>
		<g id="i_1_">
			<defs>
				<path id="SVGID_00000135663867994009665620000000393421890816564898_" d="M59.3,74.75h7.47V51.07H59.3V74.75z M59.3,47.58h7.47
					v-5.73H59.3V47.58z"/>
			</defs>
			<use xlink:href="#SVGID_00000135663867994009665620000000393421890816564898_"  style="overflow:visible;fill:#FFFFFF;"/>
			<clipPath id="SVGID_00000024003068497922494720000000302109623552899213_">
				<use xlink:href="#SVGID_00000135663867994009665620000000393421890816564898_"  style="overflow:visible;"/>
			</clipPath>
		</g>
		<g id="D">
			<defs>
				<path id="SVGID_00000041258785069883403590000006092758650965674115_" d="M40.6,49.28h3.57c1.02,0,1.83,0.17,2.43,0.5
					c0.6,0.34,1.09,0.78,1.46,1.33c0.15,0.24,0.28,0.5,0.39,0.78c0.11,0.27,0.2,0.66,0.28,1.17c0.08,0.5,0.13,1.18,0.16,2.04
					c0.03,0.86,0.05,1.97,0.05,3.34c0,1.37-0.02,2.49-0.05,3.34c-0.03,0.86-0.08,1.54-0.16,2.06c-0.08,0.52-0.17,0.92-0.28,1.19
					c-0.11,0.28-0.24,0.52-0.39,0.73c-0.37,0.55-0.86,0.99-1.46,1.33c-0.6,0.34-1.41,0.5-2.43,0.5H40.6V49.28z M32.62,42.13v32.62
					h12.1c1.71,0,3.32-0.25,4.83-0.76c1.51-0.51,2.83-1.32,3.96-2.45c0.95-0.95,1.66-1.92,2.13-2.93c0.47-1.01,0.8-2.05,0.98-3.12
					c0.18-1.07,0.27-2.18,0.27-3.34v-7.38c0-1.19-0.09-2.32-0.27-3.39c-0.18-1.07-0.51-2.11-0.98-3.12
					c-0.47-1.01-1.18-1.98-2.13-2.93c-1.13-1.13-2.45-1.95-3.96-2.45c-1.51-0.5-3.12-0.76-4.83-0.76H32.62z"/>
			</defs>
			<use xlink:href="#SVGID_00000041258785069883403590000006092758650965674115_"  style="overflow:visible;fill:#FFFFFF;"/>
			<clipPath id="SVGID_00000156557478118565548400000003135442529443686331_">
				<use xlink:href="#SVGID_00000041258785069883403590000006092758650965674115_"  style="overflow:visible;"/>
			</clipPath>
		</g>
		<g id="i">
			<path class="st1" d="M22.1,41.86h7.47v5.73H22.1V41.86z M22.1,51.07h7.47v23.69H22.1V51.07z"/>
		</g>
	</g>
</g>
</svg>
