<svg width="600" height="175" viewBox="0 0 600 175" fill="none" xmlns="http://www.w3.org/2000/svg">
<path d="M231 56.6L176.8 151.1L163.5 174.2H126.2L143.3 147.1L126.5 56.6H162.8L167.7 107.4H168.1L193.5 56.6H231ZM542.9 91.9C545.5 83 550.4 79.9 556.9 79.9C567.5 79.9 567.1 85.8 566 90.1C563.4 100.4 548.7 103 538.7 104.6C523.2 107.1 500.8 111.1 495.2 137.4C489.4 164.7 502.1 174.3 528.4 174.3C537.9 174.3 580.8 174.3 580.8 174.3C580.9 171.2 581.2 167.1 582 163.8C586 146.6 593.6 113.8 597.8 94.3C599.2 88.1 599.9 82.6 599.9 77.8C599.9 61 590 53.3 559.4 53.3C533 53.3 519.4 56.8 510.3 91.9H542.9ZM540.6 150.5C532.4 150.5 528.3 148.5 529 141.3C529.9 132.2 538.9 127.6 557.5 124.4L551.3 150.4C551.3 150.5 545.1 150.5 540.6 150.5ZM262.5 91.9C265.2 83 270 79.9 276.5 79.9C287.2 79.9 286.7 85.8 285.6 90.1C283 100.4 268.3 103 258.3 104.6C242.8 107.1 220.5 111.1 214.9 137.4C209.1 164.7 221.8 174.3 248.1 174.3C257.6 174.3 300.5 174.3 300.5 174.3C300.6 171.2 300.9 167.1 301.7 163.8C305.7 146.6 313.2 113.8 317.5 94.3C318.8 88.1 319.7 82.6 319.7 77.8C319.7 61 309.8 53.3 279.2 53.3C252.8 53.3 239.2 56.8 230.2 91.9H262.5ZM260.1 150.5C251.9 150.5 247.8 148.5 248.5 141.3C249.4 132.2 258.4 127.6 277 124.4L270.8 150.4C270.8 150.5 264.6 150.5 260.1 150.5ZM318.6 174.2H354.6L375.4 81.8H388C393.8 81.8 398.1 85.3 396.5 92.6C395.8 95.7 378.1 174.1 378.1 174.1H414.1L434.9 81.7H446.8C452.6 81.7 457.5 85.5 455.9 93C455.2 96.3 437.5 174.1 437.5 174.1H473.5C473.5 174.1 489.9 101.4 491.1 96.1C499.4 59.4 479.2 56.3 448.4 56.3H345.1L318.6 174.2ZM0 174.2H36L62.6 56.6H26.6L0 174.2ZM57.3 174.2H93.3L119.8 56.6H83.8L57.3 174.2ZM113.1 0C127.6 0 136.7 12.2 133.5 26.1C130.3 39.3 117.4 49.6 104 49.6C91.6 49.6 83.2 40.7 83 29.5L65.5 43.1C60.3 47.1 53.9 49.6 47.4 49.6C32.9 49.6 23.8 37.4 27 23.5C30.1 10.3 43 0 56.4 0C68.8 0 77.2 8.90001 77.4 20.1L94.9 6.5C100.2 2.4 106.6 0 113.1 0ZM65.4 24.8C67.1 17.4 62.5 11.4 55 11.4C47.5 11.4 40.1 17.4 38.4 24.8C36.7 32.2 41.3 38.2 48.8 38.2C56.2 38.2 63.7 32.2 65.4 24.8ZM122.1 24.8C123.8 17.4 119.2 11.4 111.7 11.4C104.2 11.4 96.8 17.4 95.1 24.8C93.4 32.2 98 38.2 105.5 38.2C112.9 38.2 120.3 32.2 122.1 24.8Z" fill="black"/>
</svg>
