<svg xmlns:dc="http://purl.org/dc/elements/1.1/" xmlns:cc="http://creativecommons.org/ns#" xmlns:rdf="http://www.w3.org/1999/02/22-rdf-syntax-ns#" xmlns:svg="http://www.w3.org/2000/svg" xmlns="http://www.w3.org/2000/svg" viewBox="0 0 965.33331 237.33333" height="237.33333" width="965.33331" xml:space="preserve" id="svg2"><metadata></metadata><defs id="defs6"></defs><g transform="matrix(1.3333333,0,0,-1.3333333,0,237.33333)" id="g10"><g transform="scale(0.1)" id="g12"><path id="path14" style="fill:#000000;fill-opacity:1;fill-rule:evenodd;stroke:none" d="m 6.64844,790.879 c 259.69556,0 519.39456,0 779.08956,0 C 1018.38,794.945 1027.76,214.66 780.82,214.66 H 244.641 V 10.8828 H 6.64844 Z M 247.66,600.938 V 400.07 l 406.395,5.485 c 75.246,1.015 79.461,196.164 0,196.039 L 247.66,600.938"></path><path id="path16" style="fill:none;stroke:#000000;stroke-width:5.66930008;stroke-linecap:round;stroke-linejoin:round;stroke-miterlimit:22.92560005;stroke-dasharray:none;stroke-opacity:1" d="m 6.64844,790.879 c 259.69556,0 519.39456,0 779.08956,0 C 1018.38,794.945 1027.76,214.66 780.82,214.66 H 244.641 V 10.8828 H 6.64844 Z M 247.66,600.938 V 400.07 l 406.395,5.485 c 75.246,1.015 79.461,196.164 0,196.039 z"></path><path id="path18" style="fill:#000000;fill-opacity:1;fill-rule:evenodd;stroke:none" d="m 1068.29,795.699 h 249.09 V 3.79297 h -249.11 l 0.02,791.90603"></path><path id="path20" style="fill:none;stroke:#000000;stroke-width:5.66930008;stroke-linecap:round;stroke-linejoin:round;stroke-miterlimit:22.92560005;stroke-dasharray:none;stroke-opacity:1" d="m 1068.29,795.699 h 249.09 V 3.79297 h -249.11 z"></path><path id="path22" style="fill:#000000;fill-opacity:1;fill-rule:evenodd;stroke:none" d="m 1421.04,795.391 h 344.46 l 228.82,-228.817 234.97,234.969 323.54,-1.23 L 2166.55,414.027 2593.81,6.67578 H 2242.92 L 1991.46,258.137 1740,6.67578 H 1395.67 L 1819.29,409.039 1421.04,795.391"></path><path id="path24" style="fill:none;stroke:#000000;stroke-width:5.66930008;stroke-linecap:round;stroke-linejoin:round;stroke-miterlimit:22.92560005;stroke-dasharray:none;stroke-opacity:1" d="m 1421.04,795.391 h 344.46 l 228.82,-228.817 234.97,234.969 323.54,-1.23 L 2166.55,414.027 2593.81,6.67578 H 2242.92 L 1991.46,258.137 1740,6.67578 H 1395.67 L 1819.29,409.039 Z"></path><path id="path26" style="fill:#9ab648;fill-opacity:1;fill-rule:evenodd;stroke:none" d="m 827.156,1166.23 c -31.875,58.42 -49.992,125.42 -49.992,196.66 0,67.55 16.289,131.31 45.16,187.54 l 122.953,-70.99 c -16.937,-35.28 -26.429,-74.8 -26.429,-116.55 0,-45.43 11.246,-88.22 31.093,-125.76 l -122.785,-70.9"></path><path id="path28" style="fill:#44659c;fill-opacity:1;fill-rule:evenodd;stroke:none" d="m 1184.05,951.688 c -142.44,1.476 -267.507,75.372 -340.171,186.612 l 122.988,71.01 c 47.903,-68.97 127.183,-114.52 217.183,-115.94 V 951.688"></path><path id="path30" style="fill:#8e224c;fill-opacity:1;fill-rule:evenodd;stroke:none" d="M 1533.8,1139.65 C 1465.34,1033.92 1349.65,961.621 1216.6,952.609 V 1094.8 c 80.63,8.38 150.69,52.31 194.26,115.84 l 122.94,-70.99"></path><path id="path32" style="fill:#4a336e;fill-opacity:1;fill-rule:evenodd;stroke:none" d="m 1555.2,1548.99 c 28.41,-55.88 44.43,-119.12 44.43,-186.1 0,-70.66 -17.83,-137.16 -49.22,-195.25 l -122.8,70.9 c 19.38,37.21 30.35,79.5 30.35,124.35 0,41.17 -9.25,80.18 -25.75,115.09 l 122.99,71.01"></path><path id="path34" style="fill:#ddad40;fill-opacity:1;fill-rule:evenodd;stroke:none" d="m 1184.05,1632.41 c -93.69,-1.48 -175.78,-50.77 -222.933,-124.54 l -122.773,70.89 c 71.734,116.08 199.586,193.81 345.706,195.33 v -141.68"></path><path id="path36" style="fill:#6a1a1f;fill-opacity:1;fill-rule:evenodd;stroke:none" d="m 1216.6,1773.17 c 136.69,-9.26 255.04,-85.31 322.71,-195.78 l -122.77,-70.88 c -43.01,68.17 -115.71,115.71 -199.94,124.47 v 142.19"></path><path id="path38" style="fill:#000000;fill-opacity:1;fill-rule:evenodd;stroke:none" d="m 2703.92,900.91 h 189.09 L 3398.3,175.531 3909.78,900.91 h 182.9 V 9.36328 H 3975.17 L 3969.16,766.766 3459.37,9.36328 H 3355.99 L 2824.81,763.199 V 9.36328 H 2707.16 L 2703.92,900.91"></path><path id="path40" style="fill:none;stroke:#000000;stroke-width:5.66930008;stroke-linecap:round;stroke-linejoin:round;stroke-miterlimit:22.92560005;stroke-dasharray:none;stroke-opacity:1" d="m 2703.92,900.91 h 189.09 L 3398.3,175.531 3909.78,900.91 h 182.9 V 9.36328 H 3975.17 L 3969.16,766.766 3459.37,9.36328 H 3355.99 L 2824.81,763.199 V 9.36328 h -117.65 z"></path><path id="path42" style="fill:#000000;fill-opacity:1;fill-rule:evenodd;stroke:none" d="m 4291.88,944.547 h 96.5 l 227.85,230.523 H 4476.84 L 4291.88,944.547"></path><path id="path44" style="fill:none;stroke:#000000;stroke-width:5.66930008;stroke-linecap:round;stroke-linejoin:round;stroke-miterlimit:22.92560005;stroke-dasharray:none;stroke-opacity:1" d="m 4291.88,944.547 h 96.5 l 227.85,230.523 h -139.39 z"></path><path id="path46" style="fill:#000000;fill-opacity:1;fill-rule:evenodd;stroke:none" d="m 4271.78,890.367 h 124 V 9.36328 h -123.37 l -0.63,881.00372"></path><path id="path48" style="fill:none;stroke:#000000;stroke-width:5.66930008;stroke-linecap:round;stroke-linejoin:round;stroke-miterlimit:22.92560005;stroke-dasharray:none;stroke-opacity:1" d="m 4271.78,890.367 h 124 V 9.36328 h -123.37 z"></path><path id="path50" style="fill:#000000;fill-opacity:1;fill-rule:evenodd;stroke:none" d="M 5816.99,893.121 H 5941 V 12.1211 h -123.38 l -0.63,880.9999"></path><path id="path52" style="fill:none;stroke:#000000;stroke-width:5.66930008;stroke-linecap:round;stroke-linejoin:round;stroke-miterlimit:22.92560005;stroke-dasharray:none;stroke-opacity:1" d="M 5816.99,893.121 H 5941 V 12.1211 h -123.38 z"></path><path id="path54" style="fill:#000000;fill-opacity:1;fill-rule:evenodd;stroke:none" d="m 4572.2,891.848 837.4,4.027 C 5745.29,890.855 5794.99,34.9961 5364.18,9.36328 H 4576.9 Z m 135.44,-105.375 640.91,3.082 c 256.93,-3.84 294.97,-658.883 -34.76,-678.5 h -602.55 l -3.6,675.418"></path><path id="path56" style="fill:none;stroke:#000000;stroke-width:5.66930008;stroke-linecap:round;stroke-linejoin:round;stroke-miterlimit:22.92560005;stroke-dasharray:none;stroke-opacity:1" d="m 4572.2,891.848 837.4,4.027 C 5745.29,890.855 5794.99,34.9961 5364.18,9.36328 H 4576.9 Z m 135.44,-105.375 640.91,3.082 c 256.93,-3.84 294.97,-658.883 -34.76,-678.5 h -602.55 z"></path><path id="path58" style="fill:#000000;fill-opacity:1;fill-rule:evenodd;stroke:none" d="m 6032.14,9.36328 151.08,8.17192 104.83,175.7498 684.1,-0.461 109.31,-183.46072 h 154.18 L 6706.83,894.352 h -157 z m 312.82,296.00772 285.5,471.07 281.42,-477.187 z"></path><path id="path60" style="fill:none;stroke:#000000;stroke-width:5.66930008;stroke-linecap:round;stroke-linejoin:round;stroke-miterlimit:22.92560005;stroke-dasharray:none;stroke-opacity:1" d="m 6032.14,9.36328 151.08,8.17192 104.83,175.7498 684.1,-0.461 109.31,-183.46072 h 154.18 L 6706.83,894.352 h -157 z m 312.82,296.00772 285.5,471.07 281.42,-477.187 z"></path></g></g></svg>