<svg width="100" height="45" viewBox="60 0 40 60" xmlns="http://www.w3.org/2000/svg">
    <g fill="#ffffff">
        <!-- For IE11, Path elements can be self-closing and shouldn’t require an official closing tag -->
        <path d="m107.84 1.497h10.645v3.4837h-10.645z" style="fill:#92d050;stroke:#92d050" stroke-linecap="round"
            stroke-linejoin="round" stroke-width="1.1104"></path>
        <path d="m121.63 1.4954h10.64v3.4754h-10.64z" style="fill:#00aced;stroke:#00aced" stroke-linecap="round"
            stroke-linejoin="round" stroke-width="1.1171"></path>
        <path d="m94.04 1.481h10.619v3.487h-10.619z" style="fill:#dc4a3d;stroke:#dc4a3d" stroke-linecap="round"
            stroke-linejoin="round" stroke-width="1.1232"></path>
        <path
            d="m31.534 13.559-4.2418 21.348c2.1867-0.2863 3.7391-0.42903 4.6548-0.42903 1.4882 0 2.2319 1.0362 2.2319 3.1077-0.83544-0.2863-1.7178-0.42903-2.6449-0.42903-0.89303 0-1.986 0.08638-3.2792 0.25832l-3.916 0.51418c-1.3977 0.19456-2.3763 0.29247-2.937 0.29247-0.96254 0-1.6437-0.22953-2.044-0.68736-0.40024-0.45824-0.64128-1.2937-0.7215-2.5067 0.81323 0.44672 1.6598 0.67008 2.5421 0.67008 0.48045 0 1.2822-0.08679 2.4035-0.25874l4.2599-21.364c-1.2357 0.20567-2.3072 0.30851-3.2122 0.30851-1.5796 0-2.3697-0.92717-2.3697-2.7827 0.44672 0.29864 1.0074 0.44672 1.6836 0.44672 0.82433 0 2.0263-0.14808 3.6058-0.44672l2.714-0.51418c1.8893-0.34388 3.3323-0.51582 4.3286-0.51582 1.5458 0 2.4393 1.0362 2.6787 3.1089-0.64128-0.31015-1.3114-0.46441-2.0086-0.46441-0.88233 0-1.872 0.08062-2.9711 0.24105-0.17194 0.03374-0.4241 0.06746-0.75687 0.10284zm14.033 4.5684-2.1805 10.992c-0.41299 2.0843-0.61866 3.6589-0.61866 4.7226 0 1.5923 0.45166 2.7091 1.3562 3.35-1.0411 0.40024-1.9925 0.60097-2.8506 0.60097-1.2822 0-1.9234-0.58945-1.9234-1.7688 0-1.1234 0.6816-4.6083 2.044-10.46l2.5581-10.957-0.49814-1.3402c-0.67501-1.8202-1.5216-2.9131-2.5421-3.2792 1.7643-0.81323 2.8749-1.2196 3.3327-1.2196 0.76633 0 1.3418 0.35663 1.7256 1.0732 0.3842 0.71533 2.0695 4.6054 5.0583 11.67 3.3549 7.9344 5.5642 11.902 6.6296 11.902 0.7906 0 1.5602-1.6857 2.3105-5.0583 0.74906-3.371 1.125-6.8386 1.125-10.399 0-2.8617-0.68118-4.7448-2.044-5.6498 1.1217-0.80171 2.1357-1.2032 3.0402-1.2032 1.3624 0 2.0436 1.1119 2.0436 3.3323 0 1.7626-0.30686 4.4655-0.91894 8.1063-0.61372 3.6412-1.2743 6.7037-1.9843 9.1894-1.1682 4.041-2.4664 6.0624-3.8983 6.0624-1.2369 0-2.5627-1.0909-3.9769-3.2731-1.4138-2.1801-3.3002-6.0365-5.6588-11.566-0.76674-1.7869-1.2871-2.9839-1.5619-3.5894zm28.648 0-2.1818 10.992c-0.41134 2.0843-0.61702 3.6589-0.61702 4.7226 0 1.5923 0.45124 2.7091 1.3558 3.35-1.0411 0.40024-1.9921 0.60097-2.8502 0.60097-1.2822 0-1.9234-0.58945-1.9234-1.7688 0-1.1234 0.68118-4.6083 2.044-10.46l2.5581-10.957-0.49814-1.3402c-0.67502-1.8202-1.5236-2.9131-2.5421-3.2792 1.7643-0.81323 2.8745-1.2196 3.3323-1.2196 0.76674 0 1.3418 0.35663 1.726 1.0732 0.38378 0.71533 2.0695 4.6054 5.0583 11.67 3.3549 7.9344 5.5642 11.902 6.6296 11.902 0.78896 0 1.5602-1.6857 2.3089-5.0583 0.75029-3.371 1.1263-6.8386 1.1263-10.399 0-2.8617-0.68119-4.7448-2.0436-5.6498 1.1213-0.80171 2.1353-1.2032 3.0382-1.2032 1.3628 0 2.044 1.1119 2.044 3.3323 0 1.7626-0.30522 4.4655-0.91729 8.1063-0.61414 3.6412-1.2743 6.7037-1.9847 9.1894-1.1678 4.041-2.4681 6.0624-3.8979 6.0624-1.2373 0-2.5631-1.0909-3.9769-3.2731-1.4142-2.1801-3.3006-6.0365-5.6593-11.566-0.76633-1.7869-1.2871-2.9839-1.5619-3.5894zm29.008 6.3211-0.87575 4.4137c-0.36651 1.8321-0.54956 3.1303-0.54956 3.8983 0 1.5232 1.4767 2.285 4.4314 2.285 2.9308 0 5.5132-0.52241 7.7452-1.5635-0.51418 1.7178-1.3677 2.7766-2.5581 3.1768-0.7215 0.24105-1.9749 0.48991-3.7617 0.747-1.7865 0.25873-3.1604 0.38707-4.1212 0.38707-3.7457 0-5.6177-1.2418-5.6177-3.7276 0-0.6635 0.18347-1.9411 0.54956-3.8292l1.1522-5.7876h-0.25873c-1.1551 0-2.2784 0.25051-3.366 0.75522 0.62976-1.2373 1.1489-2.0263 1.5553-2.3702 0.40641-0.34388 1.0493-0.51582 1.9313-0.51582h0.56723l1.6824-8.4663h-0.49814c-2.1176 0-4.0813 0.67501-5.8904 2.0263 0.57177-1.8317 1.3562-3.011 2.3525-3.538 0.77908-0.40024 3.178-0.60097 7.1969-0.60097h5.1175c3.2299 0 5.8522-0.32167 7.8669-0.96254-0.90455 1.4315-1.7096 2.3023-2.4134 2.6108-0.70381 0.30851-2.2303 0.46441-4.5778 0.46441h-5.5466l-1.7001 8.4663h3.554c2.4858 0 4.4655-0.31468 5.9439-0.94486-0.77949 1.4545-1.4722 2.3303-2.0793 2.6289-0.60591 0.2974-2.0329 0.44672-4.2759 0.44672zm15.388 6.7148c0 1.8654 0.51254 3.3311 1.5376 4.3964 1.0251 1.0654 2.4426 1.5972 4.25 1.5972 1.6038 0 2.9954-0.48045 4.1747-1.443 1.1793-0.9609 1.7692-2.0888 1.7692-3.3825 0-1.3866-1.3003-3.2924-3.8999-5.7201l-1.8881-1.7515c-2.4166-2.2447-3.6248-4.3109-3.6248-6.2006 0-2.1982 0.8597-4.0073 2.5771-5.4264 1.7178-1.4204 3.9049-2.1303 6.5609-2.1303 1.4072 0 2.5466 0.21513 3.4174 0.64416 0.86917 0.42903 1.3048 0.98805 1.3048 1.6742 0 0.67666-0.30851 1.4607-0.92717 2.3541-0.99627-1.9234-2.6157-2.886-4.8604-2.886-1.3965 0-2.5725 0.43232-3.5285 1.297-0.95637 0.86423-1.4352 1.9313-1.4352 3.2023 0 0.84819 0.15754 1.4944 0.47263 1.9411 0.31468 0.44672 1.29 1.4204 2.9275 2.9193l1.5458 1.4269c2.8165 2.6207 4.2257 4.9748 4.2257 7.0586 0 2.4265-0.96255 4.4396-2.8856 6.0369-1.9234 1.5972-4.345 2.3957-7.2647 2.3957-1.9584 0-3.575-0.45782-4.8522-1.3739-1.276-0.91565-1.9156-2.0728-1.9156-3.4689 0-0.95144 0.77292-2.0037 2.3187-3.1608z"
            style="fill:#f77d24" stroke-width=".41134"></path>
    </g>
    <text x="25" y="52" style="fill:#808080" font-family="'Arial'" font-size="14px" letter-spacing="0px"
        word-spacing="0px" xml:space="preserve">Smart Devices</text>
</svg>