<svg xmlns="http://www.w3.org/2000/svg" width="539" height="75" viewBox="0 0 539 75" fill="none"><path d="M0 44.2205L13.2423 70.7317L47.1954 0.0508783H24.982C24.982 0.0508783 8.71728 34.3646 7.02597 37.6972C4.67598 42.3235 2.76853 44.6457 0 44.2205Z" fill="url(#paint0_linear_1113_12)"></path><path d="M100 70.6845H77.9306L67.6284 48.7305C70.4724 42.7668 72.8533 37.7916 73.4433 36.6251C75.7899 31.9988 77.7008 29.6766 80.4693 30.0981C81.5946 32.3222 94.8334 59.8619 100 70.6845Z" fill="url(#paint1_linear_1113_12)"></path><path d="M78.778 26.5076C76.0095 26.086 74.0952 28.4082 71.752 33.0345C71.1585 34.2011 68.7811 39.1763 65.9371 45.1399C60.6539 56.1951 53.7892 70.6808 53.7892 70.6808H31.5757L65.5288 0L78.7094 26.384C78.7094 26.384 78.7266 26.4204 78.7609 26.4821L78.778 26.5076Z" fill="url(#paint2_linear_1113_12)"></path><path d="M125.988 29V3.8H131.82V29H125.988Z" fill="url(#paint3_linear_1113_12)"></path><path d="M137.801 29V3.8H142.624L157.493 21.944H155.152V3.8H160.913V29H156.124L141.221 10.856H143.561V29H137.801Z" fill="url(#paint4_linear_1113_12)"></path><path d="M172.095 29V8.552H164.031V3.8H185.991V8.552H177.927V29H172.095Z" fill="url(#paint5_linear_1113_12)"></path><path d="M189.129 29V3.8H200.037C202.293 3.8 204.237 4.172 205.869 4.916C207.501 5.636 208.761 6.68 209.649 8.048C210.537 9.416 210.981 11.048 210.981 12.944C210.981 14.816 210.537 16.436 209.649 17.804C208.761 19.148 207.501 20.18 205.869 20.9C204.237 21.62 202.293 21.98 200.037 21.98H192.369L194.961 19.424V29H189.129ZM205.149 29L198.849 19.856H205.077L211.449 29H205.149ZM194.961 20.072L192.369 17.336H199.713C201.513 17.336 202.857 16.952 203.745 16.184C204.633 15.392 205.077 14.312 205.077 12.944C205.077 11.552 204.633 10.472 203.745 9.704C202.857 8.936 201.513 8.552 199.713 8.552H192.369L194.961 5.78V20.072Z" fill="url(#paint6_linear_1113_12)"></path><path d="M212.289 29L223.521 3.8H229.281L240.549 29H234.429L225.213 6.752H227.517L218.265 29H212.289ZM217.905 23.6L219.453 19.172H232.413L233.997 23.6H217.905Z" fill="url(#paint7_linear_1113_12)"></path><path d="M240.66 29L251.892 3.8H257.652L268.92 29H262.8L253.584 6.752H255.888L246.636 29H240.66ZM246.276 23.6L247.824 19.172H260.784L262.368 23.6H246.276Z" fill="url(#paint8_linear_1113_12)"></path><path d="M283.243 29.432C281.299 29.432 279.487 29.12 277.807 28.496C276.151 27.848 274.711 26.936 273.487 25.76C272.263 24.584 271.303 23.204 270.607 21.62C269.935 20.036 269.599 18.296 269.599 16.4C269.599 14.504 269.935 12.764 270.607 11.18C271.303 9.596 272.263 8.216 273.487 7.04C274.735 5.864 276.187 4.964 277.843 4.34C279.499 3.692 281.311 3.368 283.279 3.368C285.463 3.368 287.431 3.752 289.183 4.52C290.959 5.264 292.447 6.368 293.647 7.832L289.903 11.288C289.039 10.304 288.079 9.572 287.023 9.092C285.967 8.588 284.815 8.336 283.567 8.336C282.391 8.336 281.311 8.528 280.327 8.912C279.343 9.296 278.491 9.848 277.771 10.568C277.051 11.288 276.487 12.14 276.079 13.124C275.695 14.108 275.503 15.2 275.503 16.4C275.503 17.6 275.695 18.692 276.079 19.676C276.487 20.66 277.051 21.512 277.771 22.232C278.491 22.952 279.343 23.504 280.327 23.888C281.311 24.272 282.391 24.464 283.567 24.464C284.815 24.464 285.967 24.224 287.023 23.744C288.079 23.24 289.039 22.484 289.903 21.476L293.647 24.932C292.447 26.396 290.959 27.512 289.183 28.28C287.431 29.048 285.451 29.432 283.243 29.432Z" fill="url(#paint9_linear_1113_12)"></path><path d="M302.56 29V8.552H294.496V3.8H316.456V8.552H308.392V29H302.56Z" fill="url(#paint10_linear_1113_12)"></path><path d="M319.593 29V3.8H325.425V29H319.593Z" fill="url(#paint11_linear_1113_12)"></path><path d="M338.861 29L327.988 3.8H334.289L343.793 26.12H340.085L349.733 3.8H355.529L344.621 29H338.861Z" fill="url(#paint12_linear_1113_12)"></path><path d="M362.997 13.952H375.129V18.488H362.997V13.952ZM363.429 24.32H377.145V29H357.633V3.8H376.677V8.48H363.429V24.32Z" fill="url(#paint13_linear_1113_12)"></path><path d="M391.98 29V3.8H402.888C405.144 3.8 407.088 4.172 408.72 4.916C410.352 5.636 411.612 6.68 412.5 8.048C413.388 9.416 413.832 11.048 413.832 12.944C413.832 14.816 413.388 16.436 412.5 17.804C411.612 19.148 410.352 20.18 408.72 20.9C407.088 21.62 405.144 21.98 402.888 21.98H395.22L397.812 19.424V29H391.98ZM408 29L401.7 19.856H407.928L414.3 29H408ZM397.812 20.072L395.22 17.336H402.564C404.364 17.336 405.708 16.952 406.596 16.184C407.484 15.392 407.928 14.312 407.928 12.944C407.928 11.552 407.484 10.472 406.596 9.704C405.708 8.936 404.364 8.552 402.564 8.552H395.22L397.812 5.78V20.072Z" fill="url(#paint14_linear_1113_12)"></path><path d="M423.817 13.952H435.949V18.488H423.817V13.952ZM424.249 24.32H437.965V29H418.453V3.8H437.497V8.48H424.249V24.32Z" fill="url(#paint15_linear_1113_12)"></path><path d="M442.605 29V3.8H453.513C455.769 3.8 457.713 4.172 459.345 4.916C460.977 5.636 462.237 6.68 463.125 8.048C464.013 9.416 464.457 11.048 464.457 12.944C464.457 14.816 464.013 16.436 463.125 17.804C462.237 19.172 460.977 20.228 459.345 20.972C457.713 21.692 455.769 22.052 453.513 22.052H445.845L448.437 19.424V29H442.605ZM448.437 20.072L445.845 17.3H453.189C454.989 17.3 456.333 16.916 457.221 16.148C458.109 15.38 458.553 14.312 458.553 12.944C458.553 11.552 458.109 10.472 457.221 9.704C456.333 8.936 454.989 8.552 453.189 8.552H445.845L448.437 5.78V20.072Z" fill="url(#paint16_linear_1113_12)"></path><path d="M468.621 29V3.8H474.453V24.248H487.089V29H468.621Z" fill="url(#paint17_linear_1113_12)"></path><path d="M487.176 29L498.408 3.8H504.168L515.436 29H509.316L500.1 6.752H502.404L493.152 29H487.176ZM492.792 23.6L494.34 19.172H507.3L508.884 23.6H492.792Z" fill="url(#paint18_linear_1113_12)"></path><path d="M522.768 29V18.704L524.1 22.232L513.012 3.8H519.204L527.7 17.948H524.136L532.668 3.8H538.392L527.304 22.232L528.6 18.704V29H522.768Z" fill="url(#paint19_linear_1113_12)"></path><path d="M131.25 57.1406L130.828 59.5156H123.406L123.828 57.1406H131.25Z" fill="url(#paint20_linear_1113_12)"></path><path d="M145.141 54.5156L141.672 74.5H138.828L142.891 51.0938H145.484L145.141 54.5156ZM155.312 59.3125L155.281 59.6406C155.146 60.6615 154.896 61.6927 154.531 62.7344C154.177 63.7656 153.693 64.7083 153.078 65.5625C152.464 66.4167 151.708 67.099 150.812 67.6094C149.927 68.1198 148.885 68.3594 147.688 68.3281C146.635 68.3073 145.734 68.0781 144.984 67.6406C144.234 67.1927 143.63 66.6042 143.172 65.875C142.714 65.1354 142.385 64.3125 142.188 63.4062C142 62.4896 141.938 61.5521 142 60.5938L142.219 58.8594C142.396 57.8385 142.693 56.8438 143.109 55.875C143.536 54.8958 144.078 54.0156 144.734 53.2344C145.391 52.4531 146.167 51.8438 147.062 51.4062C147.969 50.9583 148.995 50.75 150.141 50.7812C151.297 50.8125 152.234 51.0938 152.953 51.625C153.682 52.1458 154.234 52.8281 154.609 53.6719C154.995 54.5052 155.234 55.4167 155.328 56.4062C155.422 57.3854 155.417 58.3542 155.312 59.3125ZM152.438 59.625L152.484 59.2812C152.557 58.6562 152.573 57.9948 152.531 57.2969C152.5 56.599 152.37 55.9479 152.141 55.3438C151.922 54.7292 151.573 54.224 151.094 53.8281C150.625 53.4323 149.984 53.224 149.172 53.2031C148.526 53.1823 147.911 53.2917 147.328 53.5312C146.755 53.7604 146.234 54.0885 145.766 54.5156C145.297 54.9323 144.896 55.4167 144.562 55.9688C144.229 56.5104 143.984 57.0833 143.828 57.6875L143.156 61.7656C143.146 62.5052 143.307 63.1927 143.641 63.8281C143.974 64.4531 144.427 64.9583 145 65.3438C145.583 65.7292 146.245 65.9323 146.984 65.9531C147.849 65.974 148.599 65.8021 149.234 65.4375C149.88 65.0625 150.422 64.5625 150.859 63.9375C151.297 63.3021 151.646 62.6094 151.906 61.8594C152.167 61.099 152.344 60.3542 152.438 59.625Z" fill="url(#paint21_linear_1113_12)"></path><path d="M167.625 65.1094L169.031 56.375C169.104 55.7292 169.042 55.1615 168.844 54.6719C168.656 54.1823 168.339 53.8021 167.891 53.5312C167.453 53.2604 166.901 53.1146 166.234 53.0938C165.651 53.0833 165.078 53.1771 164.516 53.375C163.964 53.5729 163.484 53.8698 163.078 54.2656C162.672 54.6615 162.406 55.1615 162.281 55.7656L159.469 55.7812C159.542 54.9375 159.807 54.2031 160.266 53.5781C160.724 52.9427 161.297 52.4167 161.984 52C162.672 51.5729 163.411 51.2604 164.203 51.0625C164.995 50.8542 165.766 50.7552 166.516 50.7656C167.651 50.7865 168.635 51.0312 169.469 51.5C170.312 51.9583 170.948 52.6042 171.375 53.4375C171.802 54.2708 171.958 55.2708 171.844 56.4375L170.547 64.3125C170.453 64.8854 170.396 65.4635 170.375 66.0469C170.365 66.6198 170.432 67.1823 170.578 67.7344L170.547 68L167.688 68.0156C167.573 67.5365 167.516 67.0521 167.516 66.5625C167.526 66.0729 167.562 65.5885 167.625 65.1094ZM169.359 57.75L169.031 59.7812L166.359 59.7656C165.797 59.7656 165.203 59.8073 164.578 59.8906C163.953 59.974 163.359 60.1302 162.797 60.3594C162.234 60.5885 161.76 60.9219 161.375 61.3594C160.99 61.7865 160.755 62.3438 160.672 63.0312C160.609 63.5938 160.677 64.0833 160.875 64.5C161.083 64.9062 161.396 65.224 161.812 65.4531C162.229 65.6823 162.714 65.8021 163.266 65.8125C163.984 65.8229 164.693 65.6823 165.391 65.3906C166.089 65.099 166.698 64.6823 167.219 64.1406C167.74 63.599 168.099 62.974 168.297 62.2656L169.328 63.6562C169.13 64.3438 168.807 64.9792 168.359 65.5625C167.911 66.1354 167.38 66.6302 166.766 67.0469C166.161 67.4635 165.51 67.7865 164.812 68.0156C164.115 68.2448 163.417 68.3542 162.719 68.3438C161.771 68.3229 160.911 68.1094 160.141 67.7031C159.38 67.2969 158.776 66.7292 158.328 66C157.891 65.2604 157.703 64.401 157.766 63.4219C157.828 62.349 158.109 61.4479 158.609 60.7188C159.109 59.9896 159.75 59.4062 160.531 58.9688C161.323 58.5312 162.188 58.2188 163.125 58.0312C164.062 57.8333 164.99 57.7344 165.906 57.7344L169.359 57.75Z" fill="url(#paint22_linear_1113_12)"></path><path d="M179.594 53.875L177.141 68H174.312L177.25 51.0938H180L179.594 53.875ZM185.078 50.9531L184.812 53.6719C184.594 53.6302 184.37 53.5938 184.141 53.5625C183.922 53.5312 183.703 53.5156 183.484 53.5156C182.807 53.5052 182.198 53.6094 181.656 53.8281C181.125 54.0365 180.651 54.3333 180.234 54.7188C179.828 55.1042 179.479 55.5573 179.188 56.0781C178.906 56.599 178.682 57.1615 178.516 57.7656L177.625 58.2344C177.74 57.3906 177.927 56.526 178.188 55.6406C178.458 54.7552 178.828 53.9375 179.297 53.1875C179.776 52.4375 180.375 51.8333 181.094 51.375C181.823 50.9167 182.698 50.7031 183.719 50.7344C183.948 50.7344 184.172 50.7552 184.391 50.7969C184.62 50.8385 184.849 50.8906 185.078 50.9531Z" fill="url(#paint23_linear_1113_12)"></path><path d="M195.453 51.0938L195.062 53.3125H186.172L186.562 51.0938H195.453ZM190.281 46.9844H193.094L190.234 63.8438C190.203 64.2083 190.214 64.5365 190.266 64.8281C190.318 65.1198 190.443 65.3542 190.641 65.5312C190.839 65.6979 191.141 65.7865 191.547 65.7969C191.776 65.7969 192 65.7812 192.219 65.75C192.448 65.7083 192.677 65.6719 192.906 65.6406L192.703 68.0156C192.37 68.1094 192.026 68.1771 191.672 68.2188C191.328 68.2708 190.984 68.2917 190.641 68.2812C189.776 68.2708 189.099 68.0521 188.609 67.625C188.12 67.1979 187.786 66.6458 187.609 65.9688C187.432 65.2917 187.38 64.5677 187.453 63.7969L190.281 46.9844Z" fill="url(#paint24_linear_1113_12)"></path><path d="M204.391 59.8281L204.438 59.4688C204.562 58.3333 204.844 57.2396 205.281 56.1875C205.729 55.1354 206.318 54.1979 207.047 53.375C207.776 52.5521 208.641 51.9062 209.641 51.4375C210.641 50.9688 211.755 50.75 212.984 50.7812C214.172 50.8021 215.188 51.0573 216.031 51.5469C216.885 52.0365 217.573 52.6875 218.094 53.5C218.625 54.3021 218.995 55.2083 219.203 56.2188C219.411 57.2292 219.464 58.2708 219.359 59.3438L219.328 59.7031C219.193 60.8385 218.901 61.9271 218.453 62.9688C218.005 64.0104 217.411 64.9375 216.672 65.75C215.943 66.5625 215.078 67.2031 214.078 67.6719C213.078 68.1302 211.969 68.3438 210.75 68.3125C209.573 68.2917 208.557 68.0417 207.703 67.5625C206.859 67.0729 206.177 66.4271 205.656 65.625C205.135 64.8229 204.771 63.9219 204.562 62.9219C204.354 61.9219 204.297 60.8906 204.391 59.8281ZM207.25 59.4688L207.219 59.8438C207.146 60.5 207.141 61.1823 207.203 61.8906C207.276 62.599 207.443 63.2552 207.703 63.8594C207.974 64.4635 208.365 64.9583 208.875 65.3438C209.385 65.7292 210.047 65.9323 210.859 65.9531C211.724 65.974 212.484 65.8073 213.141 65.4531C213.797 65.0885 214.354 64.599 214.812 63.9844C215.281 63.3698 215.651 62.6875 215.922 61.9375C216.203 61.1875 216.391 60.4427 216.484 59.7031L216.516 59.3438C216.589 58.6875 216.589 58.0052 216.516 57.2969C216.453 56.5781 216.286 55.9115 216.016 55.2969C215.755 54.6719 215.37 54.1667 214.859 53.7812C214.349 53.3854 213.688 53.1771 212.875 53.1562C212.01 53.125 211.245 53.2969 210.578 53.6719C209.922 54.0365 209.365 54.5312 208.906 55.1562C208.448 55.7812 208.078 56.474 207.797 57.2344C207.526 57.9844 207.344 58.7292 207.25 59.4688Z" fill="url(#paint25_linear_1113_12)"></path><path d="M225.578 68H222.75L225.938 49.3281C226.083 48.1927 226.417 47.1979 226.938 46.3438C227.458 45.4792 228.151 44.8073 229.016 44.3281C229.88 43.849 230.906 43.6146 232.094 43.625C232.438 43.6354 232.781 43.6667 233.125 43.7188C233.469 43.7604 233.807 43.8177 234.141 43.8906L233.797 46.2656C233.557 46.2135 233.307 46.1719 233.047 46.1406C232.797 46.1094 232.547 46.0885 232.297 46.0781C231.63 46.0781 231.052 46.2188 230.562 46.5C230.073 46.7708 229.677 47.151 229.375 47.6406C229.083 48.1198 228.885 48.6771 228.781 49.3125L225.578 68ZM232 51.0938L231.609 53.3125H222.703L223.109 51.0938H232Z" fill="url(#paint26_linear_1113_12)"></path><path d="M247.391 45.25L243.438 68H240.484L244.438 45.25H247.391ZM254.859 55.4844L254.422 57.9531H244.516L244.953 55.4844H254.859ZM258.125 45.25L257.688 47.7188H246.297L246.734 45.25H258.125Z" fill="url(#paint27_linear_1113_12)"></path><path d="M264.031 68.3125C262.875 68.2917 261.87 68.0625 261.016 67.625C260.172 67.1771 259.479 66.5781 258.938 65.8281C258.406 65.0677 258.026 64.2031 257.797 63.2344C257.568 62.2656 257.5 61.25 257.594 60.1875L257.656 59.5156C257.76 58.4323 258.026 57.3698 258.453 56.3281C258.88 55.276 259.448 54.3281 260.156 53.4844C260.875 52.6406 261.719 51.974 262.688 51.4844C263.667 50.9844 264.75 50.75 265.938 50.7812C267.115 50.8021 268.094 51.0521 268.875 51.5312C269.656 52.0104 270.266 52.6458 270.703 53.4375C271.151 54.2188 271.443 55.099 271.578 56.0781C271.714 57.0469 271.724 58.0417 271.609 59.0625L271.438 60.3594H259.172L259.547 58L268.906 58.0156L268.953 57.7656C269.057 57.0156 269.016 56.2917 268.828 55.5938C268.641 54.8958 268.297 54.3229 267.797 53.875C267.307 53.4167 266.646 53.1771 265.812 53.1562C264.948 53.125 264.198 53.3021 263.562 53.6875C262.927 54.0625 262.396 54.5729 261.969 55.2188C261.542 55.8542 261.203 56.5521 260.953 57.3125C260.714 58.0625 260.547 58.7969 260.453 59.5156L260.391 60.1719C260.328 60.8385 260.349 61.5104 260.453 62.1875C260.557 62.8646 260.755 63.4844 261.047 64.0469C261.349 64.599 261.766 65.0521 262.297 65.4062C262.828 65.75 263.484 65.9323 264.266 65.9531C265.214 65.974 266.062 65.7708 266.812 65.3438C267.573 64.9062 268.266 64.3542 268.891 63.6875L270.5 65.0625C270.01 65.7812 269.427 66.3854 268.75 66.875C268.073 67.3646 267.333 67.7292 266.531 67.9688C265.729 68.2083 264.896 68.3229 264.031 68.3125Z" fill="url(#paint28_linear_1113_12)"></path><path d="M280.578 44L276.406 68H273.578L277.734 44H280.578Z" fill="url(#paint29_linear_1113_12)"></path><path d="M288.141 44L283.969 68H281.141L285.297 44H288.141Z" fill="url(#paint30_linear_1113_12)"></path><path d="M289.203 59.8281L289.25 59.4688C289.375 58.3333 289.656 57.2396 290.094 56.1875C290.542 55.1354 291.13 54.1979 291.859 53.375C292.589 52.5521 293.453 51.9062 294.453 51.4375C295.453 50.9688 296.568 50.75 297.797 50.7812C298.984 50.8021 300 51.0573 300.844 51.5469C301.698 52.0365 302.385 52.6875 302.906 53.5C303.438 54.3021 303.807 55.2083 304.016 56.2188C304.224 57.2292 304.276 58.2708 304.172 59.3438L304.141 59.7031C304.005 60.8385 303.714 61.9271 303.266 62.9688C302.818 64.0104 302.224 64.9375 301.484 65.75C300.755 66.5625 299.891 67.2031 298.891 67.6719C297.891 68.1302 296.781 68.3438 295.562 68.3125C294.385 68.2917 293.37 68.0417 292.516 67.5625C291.672 67.0729 290.99 66.4271 290.469 65.625C289.948 64.8229 289.583 63.9219 289.375 62.9219C289.167 61.9219 289.109 60.8906 289.203 59.8281ZM292.062 59.4688L292.031 59.8438C291.958 60.5 291.953 61.1823 292.016 61.8906C292.089 62.599 292.255 63.2552 292.516 63.8594C292.786 64.4635 293.177 64.9583 293.688 65.3438C294.198 65.7292 294.859 65.9323 295.672 65.9531C296.536 65.974 297.297 65.8073 297.953 65.4531C298.609 65.0885 299.167 64.599 299.625 63.9844C300.094 63.3698 300.464 62.6875 300.734 61.9375C301.016 61.1875 301.203 60.4427 301.297 59.7031L301.328 59.3438C301.401 58.6875 301.401 58.0052 301.328 57.2969C301.266 56.5781 301.099 55.9115 300.828 55.2969C300.568 54.6719 300.182 54.1667 299.672 53.7812C299.161 53.3854 298.5 53.1771 297.688 53.1562C296.823 53.125 296.057 53.2969 295.391 53.6719C294.734 54.0365 294.177 54.5312 293.719 55.1562C293.26 55.7812 292.891 56.474 292.609 57.2344C292.339 57.9844 292.156 58.7292 292.062 59.4688Z" fill="url(#paint31_linear_1113_12)"></path><path d="M310.875 64.8594L317.438 51.0938H319.391L318.484 54.0156L311.828 68H309.922L310.875 64.8594ZM310.422 51.0938L311.594 65.3281L311.359 68H309.516L307.688 51.0938H310.422ZM320.984 64.8906L326.75 51.0938H329.656L321.969 68H319.984L320.984 64.8906ZM319.719 51.0938L321.5 64.9375L321.406 68H319.672L317.703 53.6562L317.812 51.0938H319.719Z" fill="url(#paint32_linear_1113_12)"></path><path d="M334.656 54.625L332.344 68H329.5L332.438 51.0938H335.125L334.656 54.625ZM333.391 58.9062L332.109 58.875C332.255 57.8229 332.516 56.8073 332.891 55.8281C333.266 54.849 333.766 53.974 334.391 53.2031C335.026 52.4323 335.792 51.8281 336.688 51.3906C337.583 50.9531 338.62 50.75 339.797 50.7812C340.672 50.8021 341.411 50.974 342.016 51.2969C342.62 51.6094 343.104 52.0417 343.469 52.5938C343.844 53.1354 344.094 53.7604 344.219 54.4688C344.354 55.1771 344.385 55.9323 344.312 56.7344L342.422 68H339.594L341.469 56.8594C341.552 56.151 341.51 55.526 341.344 54.9844C341.188 54.4427 340.891 54.0156 340.453 53.7031C340.016 53.3802 339.422 53.2083 338.672 53.1875C337.828 53.1667 337.094 53.3125 336.469 53.625C335.854 53.9375 335.339 54.3698 334.922 54.9219C334.516 55.4635 334.188 56.0833 333.938 56.7812C333.688 57.4688 333.505 58.1771 333.391 58.9062ZM344.312 57.3125L342.281 57.9062C342.406 56.9375 342.667 56.0208 343.062 55.1562C343.469 54.2917 343.995 53.526 344.641 52.8594C345.286 52.1927 346.036 51.6719 346.891 51.2969C347.745 50.9219 348.688 50.7448 349.719 50.7656C350.635 50.7865 351.411 50.9583 352.047 51.2812C352.682 51.5938 353.188 52.026 353.562 52.5781C353.948 53.1302 354.203 53.776 354.328 54.5156C354.464 55.2448 354.484 56.0365 354.391 56.8906L352.531 68H349.688L351.562 56.8438C351.646 56.125 351.609 55.4948 351.453 54.9531C351.307 54.4115 351.016 53.9896 350.578 53.6875C350.141 53.375 349.536 53.2135 348.766 53.2031C348.151 53.1823 347.589 53.276 347.078 53.4844C346.568 53.6927 346.125 53.9896 345.75 54.375C345.375 54.75 345.062 55.1875 344.812 55.6875C344.573 56.1875 344.406 56.7292 344.312 57.3125Z" fill="url(#paint33_linear_1113_12)"></path><path d="M362.75 51.0938L359.812 68H356.984L359.922 51.0938H362.75ZM360.484 46.6562C360.484 46.1667 360.635 45.7604 360.938 45.4375C361.25 45.1042 361.651 44.9323 362.141 44.9219C362.63 44.9115 363.031 45.0625 363.344 45.375C363.667 45.6875 363.823 46.0833 363.812 46.5625C363.812 47.0417 363.651 47.4427 363.328 47.7656C363.016 48.0781 362.62 48.2396 362.141 48.25C361.661 48.2604 361.266 48.1198 360.953 47.8281C360.641 47.526 360.484 47.1354 360.484 46.6562Z" fill="url(#paint34_linear_1113_12)"></path><path d="M369.422 54.875L367.141 68H364.312L367.25 51.0938H369.922L369.422 54.875ZM368.109 58.9062L366.953 58.875C367.099 57.8646 367.365 56.875 367.75 55.9062C368.146 54.9271 368.661 54.0469 369.297 53.2656C369.943 52.4844 370.708 51.8698 371.594 51.4219C372.49 50.9635 373.51 50.75 374.656 50.7812C375.562 50.8021 376.318 50.9792 376.922 51.3125C377.536 51.6354 378.016 52.0781 378.359 52.6406C378.703 53.2031 378.932 53.8542 379.047 54.5938C379.161 55.3229 379.172 56.099 379.078 56.9219L377.234 68H374.391L376.266 56.875C376.339 56.1979 376.312 55.5885 376.188 55.0469C376.073 54.4948 375.812 54.0573 375.406 53.7344C375.01 53.401 374.438 53.224 373.688 53.2031C372.896 53.1823 372.182 53.3333 371.547 53.6562C370.911 53.9792 370.354 54.4219 369.875 54.9844C369.406 55.5365 369.021 56.1562 368.719 56.8438C368.427 57.5208 368.224 58.2083 368.109 58.9062Z" fill="url(#paint35_linear_1113_12)"></path><path d="M392.406 64.5469L395.969 44H398.812L394.641 68H392.062L392.406 64.5469ZM382.219 59.8594L382.25 59.5312C382.385 58.4896 382.635 57.4479 383 56.4062C383.375 55.3646 383.88 54.4115 384.516 53.5469C385.151 52.6823 385.922 51.9948 386.828 51.4844C387.734 50.974 388.792 50.7344 390 50.7656C391.083 50.7969 391.99 51.0521 392.719 51.5312C393.448 52.0104 394.021 52.6458 394.438 53.4375C394.865 54.2188 395.151 55.0781 395.297 56.0156C395.453 56.9531 395.5 57.8958 395.438 58.8438L395.266 60.2812C395.089 61.2917 394.797 62.2812 394.391 63.25C393.984 64.2188 393.458 65.0938 392.812 65.875C392.177 66.6458 391.411 67.2552 390.516 67.7031C389.63 68.151 388.615 68.3594 387.469 68.3281C386.365 68.2865 385.448 68 384.719 67.4688C384 66.9375 383.438 66.2552 383.031 65.4219C382.635 64.5781 382.375 63.6719 382.25 62.7031C382.135 61.724 382.125 60.776 382.219 59.8594ZM385.125 59.5L385.094 59.8281C385.021 60.4531 384.995 61.1146 385.016 61.8125C385.047 62.5 385.167 63.151 385.375 63.7656C385.583 64.3698 385.922 64.8698 386.391 65.2656C386.859 65.651 387.495 65.8594 388.297 65.8906C389.151 65.9115 389.943 65.7188 390.672 65.3125C391.401 64.9062 392.026 64.3646 392.547 63.6875C393.068 63.0104 393.443 62.276 393.672 61.4844L394.281 57.6875C394.312 57.1146 394.245 56.5677 394.078 56.0469C393.911 55.5156 393.661 55.0417 393.328 54.625C393.005 54.2083 392.604 53.875 392.125 53.625C391.656 53.3646 391.13 53.2292 390.547 53.2188C389.672 53.1875 388.917 53.3594 388.281 53.7344C387.646 54.099 387.109 54.5938 386.672 55.2188C386.245 55.8333 385.906 56.5156 385.656 57.2656C385.406 58.0156 385.229 58.7604 385.125 59.5Z" fill="url(#paint36_linear_1113_12)"></path><defs><linearGradient id="paint0_linear_1113_12" x1="123" y1="57" x2="428" y2="57" gradientUnits="userSpaceOnUse"><stop stop-color="#F05027"></stop><stop offset="1" stop-color="#C514B4"></stop></linearGradient><linearGradient id="paint1_linear_1113_12" x1="123" y1="57" x2="428" y2="57" gradientUnits="userSpaceOnUse"><stop stop-color="#F05027"></stop><stop offset="1" stop-color="#C514B4"></stop></linearGradient><linearGradient id="paint2_linear_1113_12" x1="123" y1="57" x2="428" y2="57" gradientUnits="userSpaceOnUse"><stop stop-color="#F05027"></stop><stop offset="1" stop-color="#C514B4"></stop></linearGradient><linearGradient id="paint3_linear_1113_12" x1="123" y1="57" x2="428" y2="57" gradientUnits="userSpaceOnUse"><stop stop-color="#F05027"></stop><stop offset="1" stop-color="#C514B4"></stop></linearGradient><linearGradient id="paint4_linear_1113_12" x1="123" y1="57" x2="428" y2="57" gradientUnits="userSpaceOnUse"><stop stop-color="#F05027"></stop><stop offset="1" stop-color="#C514B4"></stop></linearGradient><linearGradient id="paint5_linear_1113_12" x1="123" y1="57" x2="428" y2="57" gradientUnits="userSpaceOnUse"><stop stop-color="#F05027"></stop><stop offset="1" stop-color="#C514B4"></stop></linearGradient><linearGradient id="paint6_linear_1113_12" x1="123" y1="57" x2="428" y2="57" gradientUnits="userSpaceOnUse"><stop stop-color="#F05027"></stop><stop offset="1" stop-color="#C514B4"></stop></linearGradient><linearGradient id="paint7_linear_1113_12" x1="123" y1="57" x2="428" y2="57" gradientUnits="userSpaceOnUse"><stop stop-color="#F05027"></stop><stop offset="1" stop-color="#C514B4"></stop></linearGradient><linearGradient id="paint8_linear_1113_12" x1="123" y1="57" x2="428" y2="57" gradientUnits="userSpaceOnUse"><stop stop-color="#F05027"></stop><stop offset="1" stop-color="#C514B4"></stop></linearGradient><linearGradient id="paint9_linear_1113_12" x1="123" y1="57" x2="428" y2="57" gradientUnits="userSpaceOnUse"><stop stop-color="#F05027"></stop><stop offset="1" stop-color="#C514B4"></stop></linearGradient><linearGradient id="paint10_linear_1113_12" x1="123" y1="57" x2="428" y2="57" gradientUnits="userSpaceOnUse"><stop stop-color="#F05027"></stop><stop offset="1" stop-color="#C514B4"></stop></linearGradient><linearGradient id="paint11_linear_1113_12" x1="123" y1="57" x2="428" y2="57" gradientUnits="userSpaceOnUse"><stop stop-color="#F05027"></stop><stop offset="1" stop-color="#C514B4"></stop></linearGradient><linearGradient id="paint12_linear_1113_12" x1="123" y1="57" x2="428" y2="57" gradientUnits="userSpaceOnUse"><stop stop-color="#F05027"></stop><stop offset="1" stop-color="#C514B4"></stop></linearGradient><linearGradient id="paint13_linear_1113_12" x1="123" y1="57" x2="428" y2="57" gradientUnits="userSpaceOnUse"><stop stop-color="#F05027"></stop><stop offset="1" stop-color="#C514B4"></stop></linearGradient><linearGradient id="paint14_linear_1113_12" x1="123" y1="57" x2="428" y2="57" gradientUnits="userSpaceOnUse"><stop stop-color="#F05027"></stop><stop offset="1" stop-color="#C514B4"></stop></linearGradient><linearGradient id="paint15_linear_1113_12" x1="123" y1="57" x2="428" y2="57" gradientUnits="userSpaceOnUse"><stop stop-color="#F05027"></stop><stop offset="1" stop-color="#C514B4"></stop></linearGradient><linearGradient id="paint16_linear_1113_12" x1="123" y1="57" x2="428" y2="57" gradientUnits="userSpaceOnUse"><stop stop-color="#F05027"></stop><stop offset="1" stop-color="#C514B4"></stop></linearGradient><linearGradient id="paint17_linear_1113_12" x1="123" y1="57" x2="428" y2="57" gradientUnits="userSpaceOnUse"><stop stop-color="#F05027"></stop><stop offset="1" stop-color="#C514B4"></stop></linearGradient><linearGradient id="paint18_linear_1113_12" x1="123" y1="57" x2="428" y2="57" gradientUnits="userSpaceOnUse"><stop stop-color="#F05027"></stop><stop offset="1" stop-color="#C514B4"></stop></linearGradient><linearGradient id="paint19_linear_1113_12" x1="123" y1="57" x2="428" y2="57" gradientUnits="userSpaceOnUse"><stop stop-color="#F05027"></stop><stop offset="1" stop-color="#C514B4"></stop></linearGradient><linearGradient id="paint20_linear_1113_12" x1="123" y1="57" x2="428" y2="57" gradientUnits="userSpaceOnUse"><stop stop-color="#F05027"></stop><stop offset="1" stop-color="#C514B4"></stop></linearGradient><linearGradient id="paint21_linear_1113_12" x1="123" y1="57" x2="428" y2="57" gradientUnits="userSpaceOnUse"><stop stop-color="#F05027"></stop><stop offset="1" stop-color="#C514B4"></stop></linearGradient><linearGradient id="paint22_linear_1113_12" x1="123" y1="57" x2="428" y2="57" gradientUnits="userSpaceOnUse"><stop stop-color="#F05027"></stop><stop offset="1" stop-color="#C514B4"></stop></linearGradient><linearGradient id="paint23_linear_1113_12" x1="123" y1="57" x2="428" y2="57" gradientUnits="userSpaceOnUse"><stop stop-color="#F05027"></stop><stop offset="1" stop-color="#C514B4"></stop></linearGradient><linearGradient id="paint24_linear_1113_12" x1="123" y1="57" x2="428" y2="57" gradientUnits="userSpaceOnUse"><stop stop-color="#F05027"></stop><stop offset="1" stop-color="#C514B4"></stop></linearGradient><linearGradient id="paint25_linear_1113_12" x1="123" y1="57" x2="428" y2="57" gradientUnits="userSpaceOnUse"><stop stop-color="#F05027"></stop><stop offset="1" stop-color="#C514B4"></stop></linearGradient><linearGradient id="paint26_linear_1113_12" x1="123" y1="57" x2="428" y2="57" gradientUnits="userSpaceOnUse"><stop stop-color="#F05027"></stop><stop offset="1" stop-color="#C514B4"></stop></linearGradient><linearGradient id="paint27_linear_1113_12" x1="123" y1="57" x2="428" y2="57" gradientUnits="userSpaceOnUse"><stop stop-color="#F05027"></stop><stop offset="1" stop-color="#C514B4"></stop></linearGradient><linearGradient id="paint28_linear_1113_12" x1="123" y1="57" x2="428" y2="57" gradientUnits="userSpaceOnUse"><stop stop-color="#F05027"></stop><stop offset="1" stop-color="#C514B4"></stop></linearGradient><linearGradient id="paint29_linear_1113_12" x1="123" y1="57" x2="428" y2="57" gradientUnits="userSpaceOnUse"><stop stop-color="#F05027"></stop><stop offset="1" stop-color="#C514B4"></stop></linearGradient><linearGradient id="paint30_linear_1113_12" x1="123" y1="57" x2="428" y2="57" gradientUnits="userSpaceOnUse"><stop stop-color="#F05027"></stop><stop offset="1" stop-color="#C514B4"></stop></linearGradient><linearGradient id="paint31_linear_1113_12" x1="123" y1="57" x2="428" y2="57" gradientUnits="userSpaceOnUse"><stop stop-color="#F05027"></stop><stop offset="1" stop-color="#C514B4"></stop></linearGradient><linearGradient id="paint32_linear_1113_12" x1="123" y1="57" x2="428" y2="57" gradientUnits="userSpaceOnUse"><stop stop-color="#F05027"></stop><stop offset="1" stop-color="#C514B4"></stop></linearGradient><linearGradient id="paint33_linear_1113_12" x1="123" y1="57" x2="428" y2="57" gradientUnits="userSpaceOnUse"><stop stop-color="#F05027"></stop><stop offset="1" stop-color="#C514B4"></stop></linearGradient><linearGradient id="paint34_linear_1113_12" x1="123" y1="57" x2="428" y2="57" gradientUnits="userSpaceOnUse"><stop stop-color="#F05027"></stop><stop offset="1" stop-color="#C514B4"></stop></linearGradient><linearGradient id="paint35_linear_1113_12" x1="123" y1="57" x2="428" y2="57" gradientUnits="userSpaceOnUse"><stop stop-color="#F05027"></stop><stop offset="1" stop-color="#C514B4"></stop></linearGradient><linearGradient id="paint36_linear_1113_12" x1="123" y1="57" x2="428" y2="57" gradientUnits="userSpaceOnUse"><stop stop-color="#F05027"></stop><stop offset="1" stop-color="#C514B4"></stop></linearGradient></defs></svg>