<svg version="1.1" id="Слой_1" xmlns="http://www.w3.org/2000/svg" xmlns:xlink="http://www.w3.org/1999/xlink" x="0px" y="0px"
	 width="666.8px" height="173.6px" viewBox="0 0 666.8 173.6" style="enable-background:new 0 0 666.8 173.6;" xml:space="preserve"
	>
<style type="text/css">
	.st0{fill:#252055;}
	.st1{fill:#EC6608;}
</style>
<polygon class="st0" points="666.8,3.8 511.4,3.8 511.4,11.2 659.9,11.2 "/>
<polygon class="st0" points="637.2,35.6 644.1,28.2 511.2,28.2 511.2,35.6 "/>
<polygon class="st0" points="621.6,52.5 511.2,52.5 511.2,59.9 614.7,59.9 "/>
<polygon class="st0" points="592.2,84.3 599.1,76.9 511.3,76.9 511.3,84.3 "/>
<polygon class="st0" points="576.4,101 511.1,101 511.1,108.4 569.4,108.4 "/>
<polygon class="st0" points="511.2,132.8 546.9,132.8 553.8,125.4 511.1,125.4 "/>
<polygon class="st0" points="531.3,149.7 511.2,149.7 511.2,157.1 524.4,157.1 "/>
<polygon class="st1" points="666.8,169.3 659.9,161.9 511.4,161.9 511.4,169.3 "/>
<polygon class="st1" points="637.2,137.6 511.2,137.6 511.2,145 644.1,145 "/>
<polygon class="st1" points="511.2,120.9 621.6,120.9 614.7,113.4 511.2,113.4 "/>
<polygon class="st1" points="599.1,96.5 592.2,89.1 511.3,89.1 511.3,96.5 "/>
<polygon class="st1" points="576.4,72.1 569.4,64.7 511.1,64.7 511.1,72.1 "/>
<polygon class="st1" points="546.9,40.4 511.2,40.4 511.1,47.8 553.8,47.8 "/>
<polygon class="st1" points="531.3,23.4 524.4,16 511.2,16 511.2,23.4 "/>
<g>
	<path class="st0" d="M399.6,173.6c16.3,0,29.7-3.7,40.8-10.3h-85C367.1,169.9,382,173.2,399.6,173.6"/>
	<rect y="163.3" class="st0" width="49.1" height="6.3"/>
	<polygon class="st0" points="148.3,156 143.1,147.1 84.7,147.1 89.5,156 	"/>
	<polygon class="st0" points="304.2,139.8 296.3,126.5 238.9,126.5 246.5,139.8 	"/>
	<polygon class="st0" points="308.7,147.2 250.3,147.2 255.1,156 313.9,156 	"/>
	<path class="st0" d="M449.4,156c2.8-2.6,5.5-5.5,7.6-8.8H337c2.4,3.3,5.2,6.2,8.3,8.8H449.4z"/>
	<path class="st0" d="M415.9,126.5c-3.8,4.8-9.7,7-16.9,7.4c-8.6-0.4-15.2-2.6-19.4-7.4H326c1.7,4.8,3.8,9.2,6.2,13.2h129.3
		c2.1-4,4.2-8.5,5.5-13.2H415.9z"/>
	<path class="st0" d="M370.6,105.2c0-0.4-0.4-1.1-0.4-1.8h-49.4c0.7,5.5,1.7,11,3.1,16.2h50.8C372.7,115.1,371.3,110.4,370.6,105.2"
		/>
	<rect y="147.1" class="st0" width="49.1" height="8.8"/>
	<polygon class="st0" points="100.9,76.2 0,76.2 0,96 112.7,96 	"/>
	<polygon class="st0" points="49.1,117.4 60.8,103.8 69.5,119.6 126.5,119.6 117.2,103.4 0,103.4 0,119.6 49.1,119.6 	"/>
	<rect y="126.5" class="st0" width="49.1" height="13.2"/>
	<polygon class="st0" points="73.6,126.5 80.9,139.8 138.6,139.8 131,126.5 	"/>
	<polygon class="st0" points="95.4,66.6 115.5,44.2 60.5,44.2 49.1,57.8 49.1,44.2 0,44.2 0,68.8 96.8,68.8 	"/>
	<polygon class="st0" points="262.7,169.6 321.8,169.6 318,163.3 259.3,163.3 	"/>
	<polygon class="st0" points="316,4.5 258.2,4.5 232,36.8 287.3,36.8 	"/>
	<path class="st0" d="M369.5,96c-0.3-2.2-0.3-4.8-0.3-7.3c0-4.4,0.3-8.8,0.7-12.5h-49.4c-0.4,3.3-0.7,7-0.7,10.7
		c0,3.3,0.3,6.3,0.3,9.2L369.5,96L369.5,96z"/>
	<rect x="165.2" y="163.3" class="st0" width="49.4" height="6.3"/>
	<rect x="165.2" y="4.5" class="st0" width="49.4" height="32.4"/>
	<path class="st0" d="M384.1,44.2h-56c-3.1,7.4-5.5,15.4-6.9,24.6H371C373,56.7,377.5,48.6,384.1,44.2"/>
	<path class="st0" d="M395.1,0c-21.4,0-39.4,7.7-53.2,23.2c-3.8,4-7.3,8.5-10.4,13.6h131.4C451.8,12.5,429,0.4,395.1,0"/>
	<polygon class="st0" points="214.7,117.4 226.4,103.8 235.1,119.6 292.1,119.6 282.8,103.4 165.2,103.4 165.2,119.6 214.7,119.6 	
		"/>
	<polygon class="st0" points="266.5,76.2 165.2,76.2 165.2,96 278.3,96 	"/>
	<rect x="165.2" y="147.1" class="st0" width="49.4" height="8.8"/>
	<rect x="165.2" y="126.5" class="st0" width="49.4" height="13.2"/>
	<polygon class="st0" points="261,66.6 281.1,44.2 226.1,44.2 214.7,57.8 214.7,44.2 165.2,44.2 165.2,68.8 262.4,68.8 	"/>
	<polygon class="st0" points="97.1,169.6 156.3,169.6 152.5,163.3 93.7,163.3 	"/>
	<rect y="4.5" class="st0" width="49.1" height="32.4"/>
	<path class="st0" d="M420.7,119.6h48.4c1-4.4,2.1-8.8,2.8-14h-47.7C423.8,110.7,422.8,115.5,420.7,119.6"/>
	<polygon class="st0" points="150.4,4.5 92.6,4.5 66.4,36.8 121.7,36.8 	"/>
	<path class="st0" d="M423.8,67.7h47c-1-8.8-2.4-16.5-4.9-23.5h-54.6C418.6,48.2,422.4,56.3,423.8,67.7"/>
</g>
</svg>
