<?xml version="1.0" encoding="UTF-8" standalone="no"?>
<!-- Created with Inkscape (http://www.inkscape.org/) -->

<svg
   viewBox="0 0 107.24445 39.511108"
   version="1.1"
   id="svg5"
   inkscape:version="1.1.2 (0a00cf5339, 2022-02-04)"
   sodipodi:docname="black-logo.svg"
   xmlns:inkscape="http://www.inkscape.org/namespaces/inkscape"
   xmlns:sodipodi="http://sodipodi.sourceforge.net/DTD/sodipodi-0.dtd"
   xmlns="http://www.w3.org/2000/svg"
   xmlns:svg="http://www.w3.org/2000/svg">
  <sodipodi:namedview
     id="namedview7"
     pagecolor="#ffffff"
     bordercolor="#666666"
     borderopacity="1.0"
     inkscape:pageshadow="2"
     inkscape:pageopacity="0.0"
     inkscape:pagecheckerboard="0"
     inkscape:document-units="mm"
     showgrid="false"
     fit-margin-top="0"
     fit-margin-left="0"
     fit-margin-right="0"
     fit-margin-bottom="0"
     inkscape:zoom="0.53165938"
     inkscape:cx="-47.963039"
     inkscape:cy="115.67557"
     inkscape:window-width="1860"
     inkscape:window-height="1016"
     inkscape:window-x="1980"
     inkscape:window-y="27"
     inkscape:window-maximized="1"
     inkscape:current-layer="layer1" />
  <defs
     id="defs2">
    <clipPath
       clipPathUnits="userSpaceOnUse"
       id="clipPath838">
      <path
         d="M 0,182 H 400 V 0 H 0 Z"
         id="path836" />
    </clipPath>
  </defs>
  <g
     inkscape:label="Layer 1"
     inkscape:groupmode="layer"
     id="layer1"
     transform="translate(-77.634887,-111.02679)">
    <g
       id="g840"
       transform="matrix(0.35277777,0,0,-0.35277777,182.07404,143.9526)"
       style="fill:#211d1d;fill-opacity:1">
      <path
         d="m 0,0 c 0,-5.891 -4.776,-10.667 -10.667,-10.667 h -266.762 c -5.891,0 -10.666,4.776 -10.666,10.667 v 74.667 c 0,5.891 4.775,10.666 10.666,10.666 H -10.667 C -4.776,85.333 0,80.558 0,74.667 Z m -12.214,93.333 h -263.667 c -11.138,0 -20.167,-9.029 -20.167,-20.166 V 1.5 c 0,-11.138 9.029,-20.167 20.167,-20.167 h 263.667 c 11.137,0 20.166,9.029 20.166,20.167 v 71.667 c 0,11.137 -9.029,20.166 -20.166,20.166"
         style="fill:#211d1d;fill-opacity:1;fill-rule:nonzero;stroke:none"
         id="path842" />
    </g>
    <path
       d="m 86.737331,119.90691 h 4.289777 v 21.75016 h -4.289777 z"
       style="fill:#211d1d;fill-opacity:1;fill-rule:nonzero;stroke:none;stroke-width:0.352778"
       id="path844" />
    <g
       id="g846"
       transform="matrix(0.35277777,0,0,-0.35277777,104.80499,119.90705)">
      <path
         d="m 0,0 h -12.332 -12.16 -12.332 v -11.32 h 12.332 v -50.334 h 12.16 V -11.32 H 0 Z"
         style="fill:#211d1d;fill-opacity:1;fill-rule:nonzero;stroke:none"
         id="path848" />
    </g>
    <g
       id="g850"
       transform="matrix(0.35277777,0,0,-0.35277777,137.26054,119.90705)">
      <path
         d="m 0,0 h -12.332 -12.16 -12.332 v -11.32 h 12.332 v -50.334 h 12.16 V -11.32 H 0 Z"
         style="fill:#211d1d;fill-opacity:1;fill-rule:nonzero;stroke:none"
         id="path852" />
    </g>
    <g
       id="g854"
       transform="matrix(0.35277777,0,0,-0.35277777,152.33421,123.90057)">
      <path
         d="m 0,0 v 11.32 h -28.332 -8.492 -3.668 v -61.654 h 3.668 8.492 H 0 v 11.32 h -28.332 v 13.931 h 24.563 v 11.32 H -28.332 V 0 Z"
         style="fill:#211d1d;fill-opacity:1;fill-rule:nonzero;stroke:none"
         id="path856" />
    </g>
    <path
       d="M 121.60624,141.65742 H 106.888 v -3.99344 h 14.71824 z"
       style="fill:#211d1d;fill-opacity:1;fill-rule:nonzero;stroke:none;stroke-width:0.352778"
       id="path858" />
    <g
       id="g860"
       transform="matrix(0.35277777,0,0,-0.35277777,114.43818,131.89007)">
      <path
         d="m 0,0 c -6.282,0 -11.375,5.093 -11.375,11.375 0,6.282 5.093,11.375 11.375,11.375 6.282,0 11.375,-5.093 11.375,-11.375 C 11.375,5.093 6.282,0 0,0 m 0,34.305 c -12.664,0 -22.93,-10.266 -22.93,-22.93 0,-12.664 10.266,-22.93 22.93,-22.93 12.664,0 22.93,10.266 22.93,22.93 0,12.664 -10.266,22.93 -22.93,22.93"
         style="fill:#ec1d27;fill-opacity:1;fill-rule:nonzero;stroke:none"
         id="path862" />
    </g>
    <g
       id="g864"
       transform="matrix(0.35277777,0,0,-0.35277777,171.56352,119.90705)">
      <path
         d="m 0,0 -18.07,-45.661 h -0.791 L -38.84,0 H -51 v -61.654 h 12.16 v 32.91 l 14.468,-32.91 h 11.844 L 0,-28.744 v -32.91 H 12.16 V 0 Z"
         style="fill:#211d1d;fill-opacity:1;fill-rule:nonzero;stroke:none"
         id="path866" />
    </g>
  </g>
</svg>
