<svg width="92" height="34" fill="none" xmlns="http://www.w3.org/2000/svg"><path fill-rule="evenodd" clip-rule="evenodd" d="M9.274 0 8.17.733v6.844L1.104 5.424 0 6.157v21.69l19.322 5.887L20.426 33V11.31l-7.487-2.28v2.495l5.103 1.555v9.855l-7.488-2.281V2.886l15.658 4.77v17.768l-3.401-1.037v2.496l4.682 1.427 1.104-.733V5.887L9.273 0Zm8.768 25.43v5.418l-15.658-4.77V8.31l5.786 1.763v12.35l9.872 3.007Zm19.122 5.826.527-1.96c.305.107.693.241 1.359.241.97 0 1.802-.564 1.802-2.283V12.86h2.385v14.664c0 2.793-1.803 4.109-3.965 4.109-.777 0-1.775-.188-2.108-.376Zm3.189-23.097c0-.886.776-1.638 1.72-1.638.942 0 1.69.752 1.69 1.638 0 .913-.748 1.638-1.69 1.638-.944 0-1.72-.725-1.72-1.638Zm12.855 4.431c-4.187 0-7.265 3.116-7.265 6.983 0 3.867 3.078 6.983 7.265 6.983 4.16 0 7.237-3.116 7.237-6.983 0-3.867-3.078-6.983-7.237-6.983Zm0 2.15c2.883 0 4.797 2.147 4.797 4.833 0 2.686-1.914 4.834-4.797 4.834-2.884 0-4.825-2.148-4.825-4.834 0-2.686 1.94-4.834 4.825-4.834Zm9.125 4.833c0-3.813 2.856-6.983 6.987-6.983 1.803 0 3.411.591 4.52 1.746v-1.477h2.385v13.428H73.84V24.81c-1.109 1.155-2.717 1.746-4.52 1.746-4.131 0-6.987-3.17-6.987-6.983Zm11.507 2.632v-5.29c-.804-1.236-2.274-2.203-4.326-2.203-2.8 0-4.713 2.175-4.713 4.86 0 2.687 1.913 4.861 4.713 4.861 2.053.001 3.522-.966 4.326-2.228Zm8.51-9.346h-2.385v13.429h2.385V17.37c.555-1.558 1.886-2.659 3.827-2.659 2.135 0 3.466 1.343 3.466 3.68v7.895H92v-8.245c0-3.357-2.135-5.452-5.269-5.452-1.746 0-3.41.618-4.381 1.96V12.86Z" fill="#333"/></svg>