<svg width="56" height="14" viewBox="0 0 56 14" fill="none" xmlns="http://www.w3.org/2000/svg">
<path fill-rule="evenodd" clip-rule="evenodd" d="M51.7513 11.5988C52.0582 11.3852 52.3884 11.3095 52.742 11.3719C53.0954 11.4344 53.3799 11.6182 53.5953 11.924C53.8106 12.2298 53.8875 12.5573 53.8259 12.9064C53.7645 13.2556 53.5801 13.537 53.2732 13.7507C52.9661 13.9643 52.6359 14.04 52.2825 13.9778C51.929 13.9155 51.6447 13.7314 51.4291 13.4257C51.2137 13.1199 51.1368 12.7924 51.1985 12.4432C51.26 12.0941 51.4443 11.8126 51.7513 11.5988ZM55.819 0.390071L54.176 9.70799L51.9633 9.31792L53.6063 0L55.819 0.390071ZM4.84152 8.68229L8.43813 14H5.58221L3.20436 10.4839L2.36538 11.407V13.9998H0V0.0045929H2.36538V7.88995L5.41084 4.53834H8.60706L4.84152 8.68229ZM11.2083 2.25502C10.9431 2.51873 10.6312 2.65065 10.2721 2.65065C9.91326 2.65065 9.60101 2.51873 9.33581 2.25502C9.07075 1.99131 8.93801 1.68218 8.93801 1.32763C8.93801 0.973083 9.07075 0.663954 9.33581 0.400246C9.60101 0.136538 9.91326 0.00475115 10.2721 0.00488673C10.631 0.00488673 10.9431 0.136538 11.2082 0.400246C11.4733 0.663954 11.606 0.973083 11.606 1.32763C11.6061 1.68218 11.4734 1.99131 11.2083 2.25502ZM15.9106 1.51026V4.5362H17.5184V6.13458H15.9106V10.1736V11.7698C15.9106 12.1241 16.1963 12.4018 16.5537 12.4018H17.1969V14H15.9091C14.6669 14 13.6598 13.0052 13.6598 11.7727V6.13472H12.3737V4.53633H12.6981C13.2294 4.53633 13.66 4.11413 13.6598 3.58346V2.29881L15.9106 1.51026ZM9.14883 14V4.53837H11.3956V14H9.14883ZM33.2702 11.109C33.7989 10.5833 34.063 9.96709 34.063 9.26044C34.063 8.55378 33.7989 7.93756 33.2702 7.41204C32.7416 6.88625 32.1196 6.62349 31.4041 6.62349C30.6887 6.62349 30.0667 6.88625 29.5382 7.41204C29.0096 7.93756 28.7452 8.55378 28.7452 9.26044C28.7452 9.96709 29.0096 10.5833 29.5382 11.109C30.0667 11.6348 30.6887 11.8975 31.4041 11.8975C32.1196 11.8974 32.7415 11.6346 33.2702 11.109ZM34.063 4.53836H36.1086V14H34.063V13.1851C33.2744 13.7225 32.3896 13.994 31.4085 14C30.0827 14 28.9495 13.5356 28.0092 12.6069C27.0689 11.6783 26.5987 10.5627 26.5987 9.2603C26.5987 7.94623 27.0643 6.83065 27.9962 5.91357C28.9276 4.99676 30.0652 4.53822 31.4085 4.53822C32.4014 4.53822 33.2861 4.81264 34.063 5.36162V4.53836ZM48.8172 1.50809V4.53402H50.425V6.13241H48.8172V10.1733V11.7698C48.8172 12.1241 49.1029 12.4018 49.4604 12.4018H50.1034V14H48.8172H48.8156C47.5733 14 46.5663 13.0051 46.5663 11.7725V6.13241H45.28V4.53388H45.6045C46.1357 4.53388 46.5662 4.11168 46.5662 3.58101V2.29636L48.8172 1.50809ZM44.2148 8.86561C44.5705 9.07088 44.8368 9.34625 45.0133 9.69212C45.1897 10.0383 45.2779 10.4571 45.2779 10.9499C45.2779 11.9589 44.9043 12.7189 44.1577 13.2323C43.4106 13.7456 42.4165 14 41.1753 13.9999C39.8754 13.9999 38.8609 13.7184 38.1316 13.164C37.4024 12.6097 37.0141 11.7781 36.967 10.8278H39.3667C39.4022 11.1445 39.5713 11.564 39.8739 11.8223C40.1771 12.0803 40.6226 12.2183 41.2108 12.2183C41.6695 12.2183 42.0342 12.1245 42.3045 11.9366C42.5754 11.749 42.7106 11.5232 42.7106 11.2593C42.7106 11.0892 42.6619 10.9483 42.5651 10.8367C42.4679 10.7255 42.3133 10.6359 42.1018 10.5685C41.8899 10.5011 41.7004 10.4527 41.5325 10.4235C41.3649 10.3943 41.1372 10.362 40.8488 10.3269C40.5135 10.2917 40.2373 10.2553 40.0197 10.2174C39.8019 10.1789 39.4944 10.0947 39.0973 9.96275C38.7003 9.83042 38.3785 9.67626 38.1314 9.49729C37.8841 9.31846 37.6637 9.05692 37.4696 8.70779C37.2756 8.35867 37.1784 7.96019 37.1784 7.50246C37.1784 6.59907 37.5166 5.88415 38.193 5.33843C38.8693 4.79271 39.8017 4.53862 40.9899 4.53849C42.1604 4.53849 43.0881 4.84721 43.7734 5.38981C44.4588 5.93228 44.8394 6.70971 44.916 7.66001H42.6046C42.5808 7.34329 42.5383 7.16432 42.4766 7.00881C42.4146 6.8537 42.2634 6.63202 42.022 6.4944C41.781 6.35665 41.4543 6.28764 41.0427 6.28764C40.6076 6.28764 40.2648 6.35964 40.0149 6.50322C39.7651 6.64666 39.6401 6.83906 39.6401 7.07958C39.6401 7.16161 39.6519 7.23672 39.6752 7.30383C39.6989 7.37122 39.7402 7.43142 39.799 7.48443C39.8577 7.53717 39.9179 7.5853 39.98 7.6295C40.0417 7.67343 40.1271 7.71316 40.2355 7.74814C40.3441 7.78339 40.437 7.81281 40.5133 7.83627C40.5901 7.85972 40.6943 7.88603 40.8265 7.91558C40.959 7.945 41.0649 7.96683 41.1443 7.98134C41.2237 7.99625 41.3367 8.01524 41.4838 8.03869L41.8016 8.09157C42.3311 8.1736 42.7766 8.27189 43.1385 8.38619C43.5 8.50035 43.8588 8.66034 44.2148 8.86561ZM17.7285 9.26043C17.7285 7.94623 18.1944 6.83079 19.126 5.91371C20.0576 4.99676 21.195 4.53822 22.5383 4.53822C24.3313 4.53822 25.6922 5.2743 26.6209 6.74591L24.7198 7.80604C24.1591 7.01762 23.4318 6.62335 22.5383 6.62335C21.8199 6.62335 21.1966 6.88624 20.6678 7.4119C20.1393 7.93755 19.8749 8.55377 19.8749 9.26043C19.8749 9.96709 20.1393 10.5833 20.6678 11.109C21.1965 11.6345 21.8197 11.8974 22.5383 11.8974C23.461 11.8974 24.1881 11.5088 24.7198 10.7322L26.6034 11.7748C25.6571 13.2584 24.3023 13.9999 22.5383 13.9999C21.2125 13.9999 20.0795 13.5356 19.1393 12.607C18.1986 11.6784 17.7285 10.5627 17.7285 9.26043Z" fill="black"/>
</svg>
