<?xml version="1.0" encoding="UTF-8"?> <svg xmlns="http://www.w3.org/2000/svg" id="uuid-1239237c-6763-4a99-876b-549caafcdf37" data-name="Layer 1" viewBox="0 0 200 48.64"><defs><style> .uuid-98da997e-e544-4e84-a5a7-1e2f6e49e833 { fill: #3eafe4; } .uuid-98da997e-e544-4e84-a5a7-1e2f6e49e833, .uuid-b953e522-f970-4819-9e29-b457cfee3762 { stroke-width: 0px; } .uuid-b953e522-f970-4819-9e29-b457cfee3762 { fill: #075192; } </style></defs><g><path class="uuid-b953e522-f970-4819-9e29-b457cfee3762" d="M107.24,10.1h16.44c4.05,0,7.23,1.11,9.26,3.14,1.62,1.62,2.43,3.59,2.43,6.02v.1c0,4-2.12,6.22-4.65,7.64,4.1,1.57,6.63,3.95,6.63,8.7v.1c0,6.48-5.26,9.71-13.25,9.71h-16.85V10.1ZM122.01,24.42c3.44,0,5.62-1.11,5.62-3.74v-.1c0-2.33-1.82-3.64-5.11-3.64h-7.69v7.49h7.18ZM124.08,38.69c3.44,0,5.51-1.21,5.51-3.84v-.1c0-2.38-1.77-3.84-5.77-3.84h-9v7.79h9.26Z"></path><path class="uuid-b953e522-f970-4819-9e29-b457cfee3762" d="M148.49,31.55l-13.61-21.45h9.11l8.45,14.22,8.6-14.22h8.85l-13.61,21.3v14.11h-7.79v-13.96Z"></path><path class="uuid-b953e522-f970-4819-9e29-b457cfee3762" d="M181.43,17.29h-12.65l4.37-7.18h26.85v7.18h-10.77v28.23h-7.79v-28.23Z"></path><path class="uuid-b953e522-f970-4819-9e29-b457cfee3762" d="M26.34,37.56l-9.19-12.43,14.42-15.02h-9.41l-14.37,15.48v-15.48H0v35.41h7.79v-10.83l4.1-4.25,10.98,15.08h.11c.21-1.88,1.17-4.44,3.37-7.95Z"></path><path class="uuid-b953e522-f970-4819-9e29-b457cfee3762" d="M95.2,32.87c4.5-1.67,7.59-5.26,7.59-10.98v-.1c0-3.34-1.06-6.12-3.03-8.09-2.33-2.33-5.82-3.59-10.32-3.59h-14.62c-.47.79-.99,1.61-1.57,2.46v32.95h7.79v-11.33h6.12l7.59,11.33h9.11l-8.65-12.65ZM94.9,22.3c0,2.98-2.18,5.01-5.97,5.01h-7.89v-10.17h7.74c3.79,0,6.12,1.72,6.12,5.06v.1Z"></path></g><path class="uuid-98da997e-e544-4e84-a5a7-1e2f6e49e833" d="M75.28.66c-1.97-2.08-8.71.86-17.1,6.95-2.39-1.09-5.04-1.69-7.84-1.66-10.14.11-18.27,8.42-18.16,18.56.02,2.28.47,4.45,1.25,6.46-6.72,8.18-10.15,14.9-8.16,17,1.98,2.1,8.82-.91,17.31-7.11,0,0,8.64-6.06,14.75-12.47.07-.07.17.02.12.1-2.23,2.89-7.86,8.63-9.32,14.03.86.11,1.73.17,2.62.16,6.09-.07,11.45-3.08,14.74-7.68,2.19-3.06,3.47-6.82,3.42-10.88-.03-2.44-.53-4.76-1.42-6.89,6.49-7.98,9.76-14.5,7.8-16.57M31.6,41.95c-1.13-1.2.1-4.4,2.98-8.57,1.39,2.45,3.34,4.55,5.66,6.12-4.28,2.61-7.51,3.64-8.64,2.45M60.62,8.97c3.99-2.35,6.99-3.24,8.07-2.11,1.07,1.13.04,4.04-2.49,7.86-1.41-2.3-3.32-4.27-5.57-5.75"></path><path class="uuid-b953e522-f970-4819-9e29-b457cfee3762" d="M197.1,43.44v.47h-1.92v-.47h1.92ZM196.46,43.44v2.08h-.63v-2.08h.63ZM200,43.44v2.08h-.62v-.82l.03-.64h-.01l-.12.44-.34,1.02h-.5l-.34-1.03-.12-.43h-.02l.04.64v.82h-.62v-2.08h.9l.31.95.11.4h.01l.11-.4.32-.95h.88Z"></path></svg> 