<svg width="99" height="42" viewBox="0 0 99 42" fill="none" xmlns="http://www.w3.org/2000/svg">
<g clip-path="url(#clip0_1_2)">
<path fill-rule="evenodd" clip-rule="evenodd" d="M0.5 31V0H7.8V31H0.5ZM11.5 31V10.4H18.8V31H11.5ZM11.5 6.5V0H18.8V6.5H11.5ZM43.2 10.4V41.1H36.3V29.1H36.1C34.9 30.5 32.9 31.8 29.9 31.8C26.9 31.8 21.2 29.2 21.2 20.7C21.2 13.9 25.6 9.7 30.4 9.7C33 9.7 34.9 10.9 35.9 12.4H36.1V10.4H43.2ZM28.6 20.7C28.6 23.2 29.8 25.4 32.6 25.4C34.6 25.4 36.4 23.5 36.4 20.7C36.4 17.9 34.8 15.8 32.6 15.8C29.9 15.9 28.6 18.4 28.6 20.7ZM65.7 10.4L58.1 31H51.7L44.1 10.4H51.6L53.6 17.5C54.1 19.3 54.5 21.4 54.9 23.4H55.1C55.5 21.2 55.8 19.5 56.4 17.5L58.5 10.4H65.7ZM66.5 31V10.4H73.8V31H66.5ZM66.5 6.5V0H73.8V6.5H66.5ZM98.2 0V31H91.3V29.1H91.1C89.9 30.3 87.9 31.8 84.9 31.8C81.9 31.8 76.2 29.2 76.2 20.7C76.2 13.9 80.8 9.7 85.6 9.7C88.2 9.7 89.9 10.9 90.9 12.4H91.1V0H98.2ZM83.5 20.7C83.5 23.2 84.7 25.4 87.5 25.4C89.5 25.4 91.3 23.5 91.3 20.7C91.3 17.9 89.7 15.8 87.5 15.8C84.8 15.9 83.5 18.4 83.5 20.7Z" fill="#4183D7"/>
</g>
<defs>
<clipPath id="clip0_1_2">
<rect width="99" height="42" fill="white"/>
</clipPath>
</defs>
</svg>
