<?xml version="1.0" encoding="utf-8"?>
<!-- Generator: Adobe Illustrator 24.1.0, SVG Export Plug-In . SVG Version: 6.00 Build 0)  -->
<svg version="1.1" id="Layer_1" xmlns="http://www.w3.org/2000/svg" xmlns:xlink="http://www.w3.org/1999/xlink" x="0px" y="0px"
	 viewBox="0 0 163.3 71.8" style="enable-background:new 0 0 163.3 71.8;" xml:space="preserve">
<style type="text/css">
	.st0{fill:#34495e;}
</style>
<g>
	<path class="st0" d="M104.2,44.4c3.6,0,6.9-3.1,6.8-6.9c0.1-4-2.9-7-6.9-7.1c-3.7-0.1-7.1,3.1-7.1,6.8
		C97,41.3,100.1,44.4,104.2,44.4z"/>
	<path class="st0" d="M78.7,30.4c-4,0-7,3.2-7,7.2c0,3.7,3.3,6.9,7,6.9c4.2-0.1,7.2-3.2,7.1-7.2C85.7,33.3,82.6,30.4,78.7,30.4z"/>
	<path class="st0" d="M154.8,0H27.4c0,3.3,0,12,0.1,15.2c0,4.6,0,9.1,0,13.7c0,2.5,0,5.1,0,7.6c-0.1,3.3,1.6,6.1,4.7,7.3
		c2.2,0.8,4.4,0.6,6.4-0.8c0.2-0.1,0.4-0.3,0.6-0.5c0.7,1.2,1.4,2.5,2.2,3.8c-2,1.4-4.3,2.2-6.9,2.2C29,48.6,24,44.5,23.4,39
		c-0.3-2.6-0.2-5.3-0.2-7.9c0-5.2,0-10.3-0.1-15.5c0-3.4,0-12.2,0-15.6H8.5C3.8,0,0,3.8,0,8.5v54.8c0,4.7,3.8,8.5,8.5,8.5h84
		c0-2.4,0.1-10.3,0.1-12.7c0-5.7,0-11.4,0-17.1c0-1.9,0-3.8,0.1-5.7c0.2-3,1.6-5.5,3.9-7.4c4.6-4,11.5-3.7,15.6,0.7
		c3.8,4,4.3,9.2,1.4,14c-3.2,5.3-10,6.8-15.1,3.8c-0.4-0.2-0.9-0.5-1.6-0.9c0,6.7,0,18.8,0,25.3h57.8c4.7,0,8.5-3.8,8.5-8.5V8.5
		C163.3,3.8,159.5,0,154.8,0z M53,48.7c-5.9,0.1-10.9-4.5-11.3-10.6c-0.4-6.7,4.7-11.8,10.8-12.1c6.5-0.3,11.5,4.5,11.9,10.6
		C64.8,43.1,59.6,48.8,53,48.7z M78.7,48.8c-6.2,0-11.5-5.2-11.3-11.7c0.2-5.9,5-11.2,11.6-11c6.2,0.2,11,5.1,11.1,11
		C90.2,43.8,84.8,48.8,78.7,48.8z M128.9,30.4c-6.3,0-11.4-5.1-11.4-11.3s5.1-11.4,11.4-11.4s11.3,5.1,11.3,11.4
		S135.2,30.4,128.9,30.4z"/>
	<path class="st0" d="M52.9,30.4c-4.1,0.1-7,3.3-7,6.9c0,4.2,3.2,7.1,7,7.1c4,0,7.1-3.3,7.1-7.2C60,33.4,56.8,30.3,52.9,30.4z"/>
	<path class="st0" d="M128.3,23.1h-4.4v-0.7c0-0.3,0.1-0.6,0.3-0.8c0.2-0.3,0.5-0.5,0.9-0.8c0.4-0.3,0.7-0.5,1.1-0.8
		c0.4-0.3,0.8-0.6,1.1-0.9c0.4-0.3,0.7-0.7,0.9-1.1c0.2-0.4,0.3-0.9,0.3-1.4c0-0.5-0.1-1-0.4-1.4c-0.3-0.4-0.6-0.7-1-1
		c-0.4-0.2-0.9-0.3-1.5-0.3c-0.5,0-1,0.1-1.4,0.3c-0.4,0.2-0.8,0.5-1,0.8s-0.4,0.8-0.4,1.3c0,0.3,0,0.5,0.1,0.5s0.2,0.1,0.4,0.1
		c0.2,0,0.3,0,0.5-0.1c0.1-0.1,0.2-0.2,0.2-0.3c0-0.5,0.1-0.9,0.5-1.2c0.3-0.3,0.7-0.4,1.1-0.4c0.4,0,0.7,0.1,1,0.3
		c0.2,0.2,0.4,0.4,0.6,0.7c0.1,0.3,0.2,0.5,0.2,0.8c0,0.4-0.1,0.8-0.3,1.1c-0.2,0.3-0.5,0.7-0.9,0.9c-0.4,0.3-0.7,0.6-1.1,0.9
		c-0.4,0.3-0.8,0.6-1.1,0.9s-0.7,0.6-0.9,0.9c-0.2,0.3-0.3,0.7-0.3,1.1v1.4c0,0.1,0.1,0.2,0.2,0.3c0.1,0.1,0.2,0.1,0.4,0.1h5.1v0
		c0.1,0,0.2,0,0.3-0.2c0.1-0.1,0.1-0.2,0.1-0.4c0-0.1,0-0.3-0.1-0.4C128.5,23.2,128.4,23.1,128.3,23.1z"/>
	<path class="st0" d="M134.7,20.7h-0.7v-2.4c0-0.1-0.1-0.2-0.2-0.3c-0.1-0.1-0.3-0.1-0.4-0.1c-0.2,0-0.3,0-0.4,0.1s-0.2,0.2-0.2,0.3
		v2.4h-2.5l3.1-6.2c0-0.1,0.1-0.1,0.1-0.2c0-0.1,0-0.2-0.1-0.2c-0.1-0.1-0.2-0.1-0.2-0.2c-0.1,0-0.2-0.1-0.3-0.1
		c-0.1,0-0.2,0-0.3,0.1c-0.1,0-0.2,0.1-0.2,0.3l-3.5,6.9c0,0,0,0.1-0.1,0.1s0,0.1,0,0.1c0,0.1,0,0.3,0.1,0.3
		c0.1,0.1,0.2,0.1,0.3,0.1h3.5v2c0,0.1,0.1,0.2,0.2,0.3s0.3,0.1,0.4,0.1c0.2,0,0.3,0,0.4-0.1s0.2-0.2,0.2-0.3v-2h0.7
		c0.1,0,0.2-0.1,0.3-0.2c0.1-0.1,0.1-0.2,0.1-0.4s0-0.3-0.1-0.4S134.8,20.7,134.7,20.7z"/>
</g>
</svg>
