<svg viewBox="0 0 220.27 220.27" fit="" height="100%" width="100%" preserveAspectRatio="xMidYMid meet"
	focusable="false">
	<title>Lumo Play Logo</title>
	<g id="black">
		<path
			d="M211.13,11.17c-8.49-5.19-41.69,5.61-55.64,24.52-18.66,25.29-20.26,64.57-18.13,83.82A111.39,111.39,0,0,0,110,116.17a109.41,109.41,0,0,0-27.11,3.33C85,100.23,83.43,61,64.78,35.69,50.83,16.78,17.63,6,9.14,11.17S-4.4,46.41,5.84,66.33c14.09,27.42,47.52,50,63.83,58.09-9.81,5-16.74,12.66-16.74,23.74,0,24.17,36,62.24,57.09,62.24s57.67-38.07,57.67-62.24c0-11.1-7.07-18.74-17.05-23.77,16.33-8.15,49.71-30.67,63.79-58.06C224.67,46.41,219.61,16.36,211.13,11.17ZM65.68,103.92,24.39,69.06a1.36,1.36,0,0,1,.47-2.34l12.45-3.95A1.35,1.35,0,0,0,38,60.65L15.09,31a1.3,1.3,0,0,1,0-1.68h0l.06-.05.06-.06a14.75,14.75,0,0,1,1.55-1.43c5.9-3.63,29,3.93,38.7,17.14,4.09,5.56,6.28,12.09,8.31,18.85l0,0a1.35,1.35,0,0,1-.87,1.64L48.35,70.22a1.35,1.35,0,0,0-.7,2l20,29.86A1.36,1.36,0,0,1,65.68,103.92Zm19.66,77.15C82,182.8,76.72,174.94,71.6,165s-8.17-18.17-4.81-19.91,14.7,2.24,19.82,12.17S88.7,179.33,85.34,181.07Zm68.49-36c3.36,1.73.31,10-4.79,19.85s-10.34,17.73-13.69,16-6.38-13.82-1.27-23.72S150.48,143.37,153.83,145.1ZM205.18,31,182.29,60.65a1.36,1.36,0,0,0,.67,2.12l12.45,3.95a1.37,1.37,0,0,1,.47,2.34l-41.29,34.86a1.36,1.36,0,0,1-2-1.8l20-29.86a1.35,1.35,0,0,0-.7-2L157.4,65.33a1.34,1.34,0,0,1-.87-1.64l-.05,0c2-6.76,4.22-13.29,8.3-18.85,9.71-13.21,32.8-20.77,38.71-17.14A14.75,14.75,0,0,1,205,29.17l.06.06.05.05h0A1.3,1.3,0,0,1,205.18,31Z">
		</path>
	</g>
</svg>