<svg width="176" height="64" viewBox="0 0 176 64" fill="none" xmlns="http://www.w3.org/2000/svg">
    <g clip-path="url(#clip0_602_3217)">
        <path
            d="M23.5978 56.6154C36.359 56.6154 46.704 46.256 46.704 33.4769C46.704 20.6979 36.359 10.3385 23.5978 10.3385C10.8367 10.3385 0.491699 20.6979 0.491699 33.4769C0.491699 46.256 10.8367 56.6154 23.5978 56.6154Z"
            stroke="#222529"></path>
        <path
            d="M52.1118 9.84615C54.8269 9.84615 57.028 7.64202 57.028 4.92308C57.028 2.20414 54.8269 0 52.1118 0C49.3966 0 47.1956 2.20414 47.1956 4.92308C47.1956 7.64202 49.3966 9.84615 52.1118 9.84615Z"
            fill="#222529"></path>
        <path
            d="M77.9955 25.2554V28.5538H65.6067V11.0277H69.4413V25.2554H77.9955ZM91.7061 15.8523V28.5538H88.3877V26.7569C87.4044 28.201 86.0279 28.9231 84.2581 28.9231C82.8652 28.9231 81.7754 28.5457 80.9888 27.7908C80.2186 27.0195 79.8335 25.8872 79.8335 24.3938V15.8523H83.3486V23.1138C83.3486 23.5897 83.365 23.9754 83.3977 24.2708C83.4469 24.5497 83.5371 24.8369 83.6681 25.1323C83.7993 25.4277 84.0123 25.6492 84.3072 25.7969C84.6186 25.9282 85.0119 25.9938 85.4871 25.9938C87.3225 25.9938 88.2402 24.7959 88.2402 22.4V15.8523H91.7061ZM106.327 28.5538H102.787V21.1446C102.787 20.242 102.639 19.561 102.344 19.1015C102.05 18.6257 101.475 18.3877 100.624 18.3877C98.7881 18.3877 97.8704 19.5035 97.8704 21.7354V28.5538H94.4045V15.8523H97.723V17.6246C98.7714 16.2134 100.173 15.5077 101.927 15.5077C103.286 15.5077 104.36 15.9015 105.147 16.6892C105.933 17.4769 106.327 18.601 106.327 20.0615V28.5538ZM120.75 28.5538H117.21C117.095 28.2257 117.013 27.8154 116.964 27.3231C115.899 28.3897 114.531 28.9231 112.859 28.9231C111.45 28.9231 110.344 28.5866 109.541 27.9138C108.738 27.2246 108.336 26.281 108.336 25.0831C108.336 24.5415 108.402 24.0657 108.533 23.6554C108.68 23.2451 108.91 22.9005 109.221 22.6215C109.549 22.3426 109.853 22.1128 110.131 21.9323C110.426 21.7518 110.827 21.6041 111.335 21.4892C111.844 21.3743 112.253 21.2923 112.564 21.2431C112.876 21.1774 113.31 21.1118 113.867 21.0461C115.096 20.882 115.915 20.7097 116.325 20.5292C116.751 20.3487 116.964 20.0123 116.964 19.52C116.964 18.3877 116.202 17.8215 114.678 17.8215C113.875 17.8215 113.285 17.9692 112.908 18.2646C112.532 18.5435 112.286 19.0441 112.171 19.7661H108.902C109.098 16.9108 111.057 15.4831 114.777 15.4831C118.464 15.4831 120.307 16.8615 120.307 19.6184V25.1077C120.307 26.7159 120.455 27.8646 120.75 28.5538ZM116.94 22.3754C116.53 22.6215 115.711 22.8431 114.482 23.04C113.449 23.2041 112.778 23.4092 112.466 23.6554C112.105 23.9672 111.925 24.3938 111.925 24.9354C111.925 25.4605 112.089 25.8789 112.417 26.1908C112.761 26.4861 113.236 26.6338 113.842 26.6338C114.777 26.6338 115.522 26.3877 116.079 25.8954C116.653 25.3866 116.94 24.6892 116.94 23.8031V22.3754Z"
            fill="#222529"></path>
        <path
            d="M77.8973 45.6123H76.275C76.2094 44.3159 75.7424 43.3313 74.8739 42.6585C74.0217 41.9692 72.8664 41.6246 71.4079 41.6246C70.0314 41.6246 68.958 41.9118 68.1878 42.4862C67.4176 43.0605 67.0325 43.8728 67.0325 44.9231C67.0325 45.3005 67.0735 45.6369 67.1554 45.9323C67.2537 46.2113 67.4177 46.4574 67.647 46.6708C67.8929 46.8841 68.1141 47.0646 68.3107 47.2123C68.5238 47.3436 68.8597 47.4831 69.3185 47.6308C69.7774 47.762 70.1461 47.8688 70.4247 47.9508C70.7032 48.0165 71.1457 48.1149 71.7521 48.2462C72.4076 48.3939 72.9401 48.5169 73.3498 48.6154C73.7595 48.7139 74.2266 48.8451 74.751 49.0092C75.2753 49.1734 75.6932 49.3374 76.0046 49.5016C76.3323 49.6657 76.6683 49.8708 77.0124 50.1169C77.3565 50.3631 77.6188 50.6339 77.799 50.9292C77.9792 51.2246 78.1267 51.5774 78.2415 51.9877C78.3725 52.3815 78.4381 52.8246 78.4381 53.3169C78.4381 54.5149 78.1021 55.5159 77.4303 56.32C76.7748 57.1241 75.9718 57.682 75.0213 57.9939C74.0708 58.3057 73.0139 58.4615 71.8504 58.4615C69.6708 58.4615 67.9584 57.9282 66.713 56.8615C65.4839 55.7949 64.8694 54.3262 64.8694 52.4554V52.3077H66.4672C66.4672 53.8995 66.9506 55.0974 67.9174 55.9016C68.9007 56.7057 70.2526 57.1077 71.9733 57.1077C73.4809 57.1077 74.669 56.7877 75.5375 56.1477C76.406 55.5077 76.8403 54.6215 76.8403 53.4892C76.8403 52.3897 76.4225 51.6103 75.5867 51.1508C74.7674 50.6749 73.2105 50.1662 70.9163 49.6246C70.1789 49.4605 69.6299 49.3292 69.2694 49.2308C68.9252 49.1323 68.4582 48.96 67.8683 48.7139C67.2783 48.4677 66.8359 48.2051 66.5409 47.9262C66.2623 47.6308 66.0083 47.2369 65.7789 46.7446C65.5495 46.2523 65.4348 45.678 65.4348 45.0215C65.4348 43.5446 65.9755 42.3795 67.0571 41.5262C68.1551 40.6565 69.6463 40.2215 71.5308 40.2215C73.4317 40.2215 74.9476 40.6811 76.0783 41.6C77.2091 42.5026 77.8154 43.84 77.8973 45.6123ZM95.8878 51.3723C95.7074 53.5385 94.9291 55.2697 93.5526 56.5662C92.1924 57.8462 90.4635 58.4862 88.366 58.4862C85.9406 58.4862 83.9987 57.6574 82.5403 56C81.0817 54.3426 80.3526 52.1272 80.3526 49.3539C80.3526 46.7611 81.0736 44.5785 82.5157 42.8062C83.9741 41.0339 85.9734 40.1477 88.5135 40.1477C90.2833 40.1477 91.8646 40.6728 93.2576 41.7231C94.6669 42.7569 95.4699 44.1272 95.6665 45.8339H93.995C93.7328 44.5374 93.1019 43.5118 92.1023 42.7569C91.1026 41.9857 89.89 41.6 88.4643 41.6C86.5306 41.6 84.9655 42.3139 83.7693 43.7415C82.5894 45.1528 81.9995 47.0236 81.9995 49.3539C81.9995 51.6841 82.5812 53.5549 83.7447 54.9662C84.9246 56.3611 86.4814 57.0585 88.4151 57.0585C90.103 57.0585 91.4468 56.5415 92.4464 55.5077C93.446 54.4574 94.0442 53.079 94.2408 51.3723H95.8878ZM98.4716 40.5662H106.387C108.042 40.5662 109.361 40.96 110.344 41.7477C111.343 42.519 111.844 43.7005 111.844 45.2923C111.844 46.4246 111.54 47.3682 110.934 48.1231C110.344 48.8615 109.508 49.362 108.427 49.6246C109.492 49.8216 110.246 50.2318 110.688 50.8554C111.147 51.4626 111.417 52.3734 111.5 53.5877C111.5 53.6205 111.507 53.842 111.524 54.2523C111.54 54.6626 111.557 55.0154 111.573 55.3108C111.606 55.6062 111.647 55.959 111.696 56.3692C111.761 56.7795 111.844 57.1323 111.942 57.4277C112.056 57.7231 112.188 57.9446 112.335 58.0923H110.443C110.295 57.9118 110.188 57.5918 110.123 57.1323C110.057 56.6728 110.008 56.082 109.976 55.36C109.942 54.638 109.926 54.2523 109.926 54.2031C109.811 52.6113 109.426 51.5611 108.771 51.0523C108.115 50.5272 106.952 50.2646 105.281 50.2646H100.143V58.0923H98.4716V40.5662ZM100.143 41.9939V48.9354H105.084C105.805 48.9354 106.427 48.8943 106.952 48.8123C107.476 48.7303 108 48.5743 108.525 48.3446C109.066 48.1149 109.475 47.7539 109.754 47.2615C110.049 46.7528 110.197 46.1292 110.197 45.3908C110.197 43.1262 108.746 41.9939 105.846 41.9939H100.143ZM127.009 40.5662V41.9939H116.538V48.32H126.345V49.7231H116.538V56.6646H127.108V58.0923H114.866V40.5662H127.009ZM141.581 40.5662V41.9939H131.109V48.32H140.917V49.7231H131.109V56.6646H141.679V58.0923H129.438V40.5662H141.581ZM157.774 40.5662V58.0923H155.93L147.794 46.3262C146.712 44.7508 145.942 43.5036 145.483 42.5846C145.565 43.7497 145.606 45.1446 145.606 46.7692V58.0923H143.984V40.5662H145.827L154.013 52.4554C154.93 53.7846 155.692 55.0072 156.299 56.1231C156.217 53.5466 156.176 52.0041 156.176 51.4954V40.5662H157.774ZM173.533 45.6123H171.911C171.845 44.3159 171.378 43.3313 170.51 42.6585C169.657 41.9692 168.502 41.6246 167.044 41.6246C165.667 41.6246 164.594 41.9118 163.824 42.4862C163.053 43.0605 162.668 43.8728 162.668 44.9231C162.668 45.3005 162.709 45.6369 162.791 45.9323C162.89 46.2113 163.053 46.4574 163.283 46.6708C163.529 46.8841 163.75 47.0646 163.947 47.2123C164.159 47.3436 164.495 47.4831 164.954 47.6308C165.413 47.762 165.781 47.8688 166.061 47.9508C166.339 48.0165 166.781 48.1149 167.388 48.2462C168.043 48.3939 168.576 48.5169 168.986 48.6154C169.395 48.7139 169.862 48.8451 170.387 49.0092C170.911 49.1734 171.329 49.3374 171.64 49.5016C171.968 49.6657 172.304 49.8708 172.648 50.1169C172.992 50.3631 173.254 50.6339 173.435 50.9292C173.615 51.2246 173.762 51.5774 173.877 51.9877C174.008 52.3815 174.074 52.8246 174.074 53.3169C174.074 54.5149 173.738 55.5159 173.066 56.32C172.41 57.1241 171.607 57.682 170.657 57.9939C169.706 58.3057 168.649 58.4615 167.486 58.4615C165.306 58.4615 163.594 57.9282 162.349 56.8615C161.12 55.7949 160.505 54.3262 160.505 52.4554V52.3077H162.103C162.103 53.8995 162.586 55.0974 163.553 55.9016C164.537 56.7057 165.888 57.1077 167.609 57.1077C169.116 57.1077 170.304 56.7877 171.173 56.1477C172.042 55.5077 172.476 54.6215 172.476 53.4892C172.476 52.3897 172.058 51.6103 171.223 51.1508C170.403 50.6749 168.846 50.1662 166.552 49.6246C165.815 49.4605 165.265 49.3292 164.905 49.2308C164.561 49.1323 164.094 48.96 163.504 48.7139C162.914 48.4677 162.472 48.2051 162.177 47.9262C161.897 47.6308 161.644 47.2369 161.415 46.7446C161.185 46.2523 161.071 45.678 161.071 45.0215C161.071 43.5446 161.611 42.3795 162.693 41.5262C163.79 40.6565 165.282 40.2215 167.167 40.2215C169.067 40.2215 170.583 40.6811 171.714 41.6C172.845 42.5026 173.451 43.84 173.533 45.6123Z"
            fill="#222529"></path>
    </g>
    <defs>
        <clipPath id="clip0_602_3217">
            <rect width="176" height="64" fill="white"></rect>
        </clipPath>
    </defs>
</svg>