<svg width="161" height="94" viewBox="0 0 161 94" fill="none" xmlns="http://www.w3.org/2000/svg">
<path d="M149.277 69.5391V65.4321H158.661V60.1891H149.277V56.3441H160.335V50.6071H142.177V67.3001C142.023 66.3668 141.628 65.4899 141.031 64.7561C140.113 63.6902 138.887 62.9341 137.522 62.5911C138.684 62.1241 139.661 61.2909 140.305 60.2181C140.91 59.2207 141.231 58.0773 141.233 56.9111C141.232 56.1235 141.09 55.3425 140.813 54.6051C140.544 53.8669 140.143 53.1835 139.63 52.5881C139.113 51.9923 138.484 51.5035 137.778 51.1491C137.022 50.7741 136.186 50.5852 135.341 50.5981H120.357V75.1881H133.057C134.262 75.1986 135.464 75.0793 136.643 74.8321C137.688 74.6228 138.69 74.2434 139.611 73.7091C140.429 73.2294 141.115 72.5564 141.611 71.7491C141.89 71.2841 142.087 70.7747 142.193 70.2431V75.1971H160.343V69.5371L149.277 69.5391ZM127.452 56.3601H132.494C132.737 56.3464 132.979 56.3869 133.204 56.4786C133.428 56.5703 133.63 56.7109 133.793 56.8902C133.957 57.0695 134.078 57.2829 134.149 57.5151C134.219 57.7472 134.237 57.9921 134.201 58.2321C134.24 58.5161 134.206 58.8053 134.101 59.072C133.995 59.3388 133.824 59.574 133.601 59.7551C133.205 60.0073 132.743 60.1392 132.273 60.1351H127.45L127.452 56.3601ZM134.527 69.0011C134.117 69.3506 133.591 69.5352 133.051 69.5191H127.451V65.3981H133.306C133.556 65.3921 133.804 65.4439 134.031 65.5493C134.258 65.6548 134.457 65.8111 134.613 66.0061C134.96 66.4297 135.142 66.9648 135.124 67.5121C135.141 67.7893 135.096 68.0667 134.992 68.3243C134.889 68.5818 134.729 68.813 134.524 69.0011H134.527Z" fill="#0A72B9"/>
<path d="M119.619 50.6061V63.1901C119.629 64.8053 119.397 66.413 118.93 67.9591C118.505 69.3756 117.778 70.683 116.799 71.7911C115.793 72.904 114.55 73.7759 113.162 74.3421C111.525 74.9956 109.774 75.3122 108.013 75.2731C106.209 75.3163 104.417 74.9783 102.753 74.2811C101.37 73.6849 100.14 72.7854 99.1526 71.6491C98.2032 70.5292 97.5012 69.2213 97.0926 67.8111C96.6541 66.3098 96.4345 64.7531 96.4406 63.1891V56.5071L91.8696 59.5521C91.6825 59.0103 91.3914 58.5103 91.0126 58.0801C90.6787 57.708 90.2858 57.3934 89.8496 57.1491C89.4414 56.919 88.9987 56.7566 88.5386 56.6681C88.1148 56.5827 87.6838 56.5379 87.2516 56.5341C86.4392 56.5115 85.6355 56.7051 84.9226 57.0951C84.284 57.466 83.7326 57.9697 83.3056 58.5721C82.8722 59.1959 82.5576 59.8942 82.3776 60.6321C82.1828 61.3787 82.082 62.1466 82.0776 62.9181C82.0708 63.7401 82.184 64.5588 82.4136 65.3481C82.6228 66.0911 82.9643 66.7903 83.4216 67.4121C83.8613 68.0012 84.4262 68.4855 85.0756 68.8301C85.7559 69.1952 86.5186 69.3791 87.2906 69.3641C87.7228 69.3602 88.1532 69.3096 88.5746 69.2131C89.0182 69.1048 89.443 68.9301 89.8346 68.6951C90.7222 68.1764 91.3938 67.3558 91.7266 66.3831L97.5586 69.6431C97.1723 70.5519 96.5996 71.3695 95.8776 72.0431C95.1182 72.7562 94.2617 73.3582 93.3336 73.8311C92.3621 74.3086 91.3409 74.6775 90.2886 74.9311C89.2555 75.1772 88.1975 75.3034 87.1356 75.3071C85.4259 75.3167 83.7352 74.9483 82.1846 74.2281C80.8905 73.6116 79.7099 72.7809 78.6926 71.7711L80.1686 79.7811C80.4219 81.1427 80.1241 82.5492 79.3406 83.6912C78.5571 84.8333 77.3521 85.6174 75.9906 85.8711L32.6056 93.9141C31.9325 94.0392 31.2413 94.0305 30.5716 93.8885C29.9019 93.7465 29.2666 93.474 28.7022 93.0865C28.1378 92.699 27.6553 92.2041 27.2822 91.6301C26.909 91.0561 26.6526 90.4142 26.5276 89.7411V89.7261L18.5016 46.3411C18.2492 44.98 18.5478 43.5745 19.3317 42.4335C20.1156 41.2926 21.3205 40.5097 22.6816 40.2571H22.6956L38.4956 37.3161H38.5226L59.1566 33.4941L66.0776 32.2071C67.4391 31.9569 68.8443 32.2575 69.9843 33.0428C71.1244 33.8281 71.906 35.0338 72.1576 36.3951L74.7956 50.6131H65.4956L58.7166 62.1131L51.9946 50.6131H42.6086V75.0621H51.1896V62.1821L56.4226 71.2371H61.0136L66.2436 62.1821V75.0551H74.8246V50.8211L75.8866 56.5621L76.0546 57.4561C76.5877 56.3463 77.2897 55.3258 78.1356 54.4311C79.3307 53.187 80.7704 52.2038 82.364 51.5433C83.9577 50.8827 85.6708 50.5592 87.3956 50.5931C89.5173 50.5423 91.6159 51.0437 93.4856 52.0481C94.6266 52.673 95.631 53.52 96.4396 54.5391V50.6061H103.498V63.1901C103.492 63.9719 103.579 64.7516 103.757 65.5131C103.902 66.2094 104.168 66.8748 104.544 67.4791C104.896 68.031 105.374 68.4915 105.939 68.8231C106.575 69.1718 107.294 69.3444 108.02 69.3231C108.754 69.3449 109.48 69.1658 110.12 68.8051C110.689 68.4741 111.173 68.0137 111.532 67.4611C111.905 66.8623 112.173 66.2042 112.325 65.5151C112.496 64.7586 112.58 63.9848 112.574 63.2091V50.6391L119.619 50.6061Z" fill="#0A72B9"/>
<path d="M55.5282 14.0271L40.0272 16.9041C39.7171 16.9614 39.4123 17.0447 39.1162 17.1531C39.1121 17.1555 39.1074 17.1567 39.1027 17.1567C39.098 17.1567 39.0933 17.1555 39.0892 17.1531C38.3914 17.4302 37.7594 17.8506 37.2342 18.3871C37.0278 18.5926 36.8419 18.8176 36.6792 19.0591C36.2856 19.6218 36.0086 20.2574 35.8643 20.9288C35.72 21.6001 35.7115 22.2935 35.8392 22.9681L36.0102 23.8791L38.5172 37.3131H38.4902L22.6902 40.2441C21.3291 40.4972 20.1243 41.2805 19.3408 42.4218C18.5573 43.5632 18.2592 44.969 18.5122 46.3301L21.1122 60.5041L14.2092 61.7781C13.5348 61.9034 12.8423 61.8946 12.1713 61.7522C11.5003 61.6098 10.8639 61.3366 10.2985 60.9483C9.7331 60.5599 9.2497 60.064 8.87595 59.4889C8.50219 58.9137 8.24539 58.2705 8.1202 57.5961V57.5901L0.0902041 14.2321C-0.0367782 13.5578 -0.0296292 12.865 0.111243 12.1934C0.252114 11.5218 0.523947 10.8845 0.911207 10.318C1.29847 9.75154 1.79356 9.26691 2.3682 8.89184C2.94284 8.51677 3.58575 8.25861 4.2602 8.13212H4.2782L47.6632 0.0881172C48.3371 -0.0373089 49.0292 -0.0287601 49.6998 0.113275C50.3705 0.255311 51.0066 0.528051 51.5718 0.915924C52.137 1.3038 52.6203 1.7992 52.9941 2.37386C53.3679 2.94852 53.6248 3.59117 53.7502 4.26512L55.5282 14.0271Z" fill="#76B947"/>
<path d="M74.8234 50.8211V75.0551H66.2474V62.1781L61.0074 71.2331H56.4264L51.1934 62.1781V75.0541H42.6074V50.6061H51.9744L58.7164 62.1061L65.4924 50.6061H74.7854L74.8234 50.8211Z" fill="white"/>
<path d="M96.4493 50.6061V54.5421C95.6398 53.524 94.6356 52.6772 93.4953 52.0511C91.6248 51.0492 89.5268 50.548 87.4053 50.5961C85.6777 50.5631 83.9619 50.8886 82.3663 51.5521C80.7708 52.2156 79.3301 53.2027 78.1353 54.4511C77.2904 55.3466 76.5885 56.3669 76.0544 57.4761L75.8864 56.5851L74.8214 50.8441L74.7874 50.6291L72.1523 36.4151C71.8998 35.0544 71.1179 33.8493 69.9782 33.0642C68.8384 32.2791 67.4338 31.9781 66.0723 32.2271L59.1514 33.5111L55.5273 14.0231L83.4274 8.85414C84.7879 8.6038 86.1921 8.90342 87.332 9.68727C88.4719 10.4711 89.2542 11.6751 89.5073 13.0351L96.4493 50.6061Z" fill="#F39222"/>
<path d="M59.1518 33.4911L38.5178 37.3091L36.0108 23.8881L35.8398 22.9771C35.7121 22.3025 35.7207 21.6091 35.8649 20.9378C36.0092 20.2664 36.2862 19.6308 36.6798 19.0681C36.8426 18.8266 37.0284 18.6016 37.2348 18.3961C37.7601 17.8596 38.392 17.4392 39.0898 17.1621C39.0939 17.1645 39.0986 17.1657 39.1033 17.1657C39.1081 17.1657 39.1127 17.1645 39.1168 17.1621C39.413 17.0537 39.7177 16.9704 40.0278 16.9131L55.5278 14.0391L59.1518 33.4911Z" fill="#7D953F"/>
</svg>
