<svg xmlns="http://www.w3.org/2000/svg" viewBox="0 0 97.24 38.92">
    <g id="m4b" data-name="m4b">
        <g id="m4b-g" data-name="m4b-g">
            <path class="m4b-color" d="M97.24,31.13H89.45v7.79h7.79Z"></path>
            <path class="m4b-color"
                d="M0,0V38.9H81.68V0ZM30.88,31.13H27V14L20.79,31.12H17.84L11.6,14V31.12H7.79V7.79H13l6.33,16,6.37-16h5.18Zm20,0h-4V26.06H33.91V22.3l8-14.51h4.58l-8,14.51h8.37v-6h4Zm23.57-6.21c0,3.66-2.86,6.2-6.94,6.2H55.23V7.79H66.72c4.09,0,7,2.21,7,5.61V15a4.8,4.8,0,0,1-1.94,3.83,5.19,5.19,0,0,1,2.71,4.54Z">
            </path>
            <path class="m4b-color"
                d="M67.5,21H59.3v6.53h8.18c1.82,0,2.93-1,2.93-2.43v-1.7h0C70.4,21.89,69.28,21,67.5,21Z"></path>
            <path class="m4b-color"
                d="M69.62,15V13.5c0-1.39-1.28-2.08-2.86-2.08H59.28v6h7.44C68.37,17.38,69.62,16.62,69.62,15Z"></path>
        </g>
    </g>
</svg>