<?xml version="1.0" encoding="utf-8"?>
<!-- Generator: Adobe Illustrator 24.1.2, SVG Export Plug-In . SVG Version: 6.00 Build 0)  -->
<svg version="1.1" id="Layer_1" xmlns="http://www.w3.org/2000/svg" xmlns:xlink="http://www.w3.org/1999/xlink" x="0px" y="0px"
	 viewBox="0 0 180 33.4" style="enable-background:new 0 0 180 33.4;" xml:space="preserve">
<style type="text/css">
	.st0{fill:#010101;}
	.st1{fill:#231F20;}
	.st2{fill:#8D9293;}
	.st3{fill:#AAD9D8;}
	.st4{fill:#5EB8B6;}
	.st5{fill:#41ACA9;}
	.st6{fill:#7DC5C3;}
	.st7{fill:#6A7983;}
	.st8{fill:#139692;}
</style>
<g>
	<g>
		<g>
			<path class="st0" d="M36.5,24.2h-0.8h-0.8V7.7h1.3h1.3L43.5,22h0l6.1-14.3h1.3H52v16.6h-0.8h-0.8V9.6h0l-6.2,14.6h-0.7h-0.7
				L36.5,9.6h0V24.2z"/>
			<path class="st0" d="M61.2,24.5c-1.8,0-3.3-0.6-4.6-1.9c-1.3-1.2-1.9-2.8-1.9-4.6c0-1.8,0.6-3.3,1.9-4.6c1.3-1.2,2.8-1.9,4.6-1.9
				c1.8,0,3.3,0.6,4.5,1.9l0.4,0.5v-2h1.6v12.3h-0.8h-0.8v-2c-0.1,0.2-0.3,0.3-0.4,0.5C64.5,23.9,63,24.5,61.2,24.5z M61.2,13.1
				c-1.4,0-2.6,0.5-3.5,1.5c-1,1-1.4,2.2-1.4,3.6c0,1.4,0.5,2.6,1.4,3.6c1,1,2.1,1.5,3.5,1.5c1.4,0,2.6-0.5,3.5-1.5
				c1-1,1.4-2.2,1.4-3.6c0-1.4-0.5-2.6-1.4-3.6C63.8,13.6,62.6,13.1,61.2,13.1z"/>
			<path class="st0" d="M76.5,27.6c1.5,0,2.6-0.4,3.4-1.2c0.8-0.8,1.2-2,1.2-3.6v-0.7l-0.4,0.5c-1.2,1.2-2.7,1.9-4.6,1.9
				c-1.7,0-3.2-0.6-4.4-1.9c-1.2-1.2-1.8-2.8-1.8-4.6c0-1.8,0.6-3.3,1.8-4.6c1.2-1.2,2.7-1.9,4.4-1.9c1.8,0,3.3,0.6,4.5,1.9l0.4,0.5
				v-2h1.6v10.7c0,2-0.5,3.6-1.6,4.7C80,28.5,78.5,29,76.5,29c-1.6,0-2.9-0.4-4-1.2c-1.1-0.8-1.8-1.9-2.2-3.3h1.7
				c0.4,1,0.9,1.7,1.7,2.2C74.6,27.4,75.5,27.6,76.5,27.6z M76.3,13c-1.3,0-2.5,0.5-3.4,1.5c-0.9,1-1.4,2.2-1.4,3.6
				c0,1.4,0.5,2.6,1.4,3.6c0.9,1,2.1,1.5,3.4,1.5c1.4,0,2.5-0.5,3.4-1.5c0.9-1,1.4-2.2,1.4-3.6c0-1.4-0.5-2.6-1.4-3.6
				C78.8,13.5,77.6,13,76.3,13z"/>
			<path class="st0" d="M85.6,12h0.8h0.8v12.3h-0.8h-0.8V12z M85.6,7.7h1.5v2.8h-1.5V7.7z"/>
			<path class="st0" d="M102.2,20.7c-0.5,1.2-1.4,2.1-2.4,2.8c-1.1,0.7-2.3,1-3.6,1c-1.9,0-3.4-0.6-4.7-1.9
				c-1.3-1.2-1.9-2.8-1.9-4.6c0-1.8,0.6-3.3,1.9-4.6s2.9-1.9,4.7-1.9c1.3,0,2.5,0.4,3.6,1.1c1.1,0.7,1.9,1.7,2.4,2.9h-1.7
				c-0.5-0.8-1.1-1.4-1.9-1.9c-0.8-0.5-1.6-0.7-2.5-0.7c-1.4,0-2.6,0.5-3.6,1.5c-1,1-1.5,2.2-1.5,3.6c0,1.4,0.5,2.6,1.5,3.6
				c1,1,2.2,1.5,3.6,1.5c0.9,0,1.8-0.2,2.5-0.6c0.8-0.4,1.4-1,1.8-1.8H102.2z"/>
			<path class="st0" d="M112.7,24.2h-0.8H111V7.7h1.3h1.3l6.1,14.3h0l6.1-14.3h1.3h1.3v16.6h-0.8h-0.8V9.6h0l-6.2,14.6h-0.7h-0.7
				l-6.2-14.6h0V24.2z"/>
			<path class="st0" d="M131.4,12h0.8h0.8v12.3h-0.8h-0.8V12z M131.4,7.7h1.5v2.8h-1.5V7.7z"/>
			<path class="st0" d="M135.8,12h0.8h0.8v1.8h0c0.1-0.3,0.3-0.6,0.5-0.8c0.6-0.8,1.7-1.3,3-1.3v1.7c-1,0.1-1.9,0.4-2.5,1
				c-0.7,0.7-1,1.6-1,2.9v7h-0.8h-0.8V12z"/>
			<path class="st0" d="M142.6,12h0.8h0.8v1.8h0c0.1-0.3,0.3-0.6,0.5-0.8c0.6-0.8,1.7-1.3,3-1.3v1.7c-1,0.1-1.9,0.4-2.5,1
				c-0.7,0.7-1,1.6-1,2.9v7h-0.8h-0.8V12z"/>
			<path class="st0" d="M150.7,22.7c-1.2-1.2-1.9-2.8-1.9-4.6c0-1.8,0.6-3.3,1.9-4.6c1.2-1.2,2.8-1.9,4.5-1.9c1.8,0,3.3,0.6,4.6,1.9
				c1.2,1.2,1.9,2.8,1.9,4.6c0,1.8-0.6,3.3-1.9,4.6c-1.2,1.2-2.8,1.9-4.6,1.9C153.4,24.5,151.9,23.9,150.7,22.7z M158.7,21.7
				c0.9-1,1.4-2.2,1.4-3.6c0-1.4-0.5-2.6-1.4-3.6c-0.9-1-2.1-1.5-3.4-1.5c-1.4,0-2.5,0.5-3.4,1.5c-0.9,1-1.4,2.2-1.4,3.6
				c0,1.4,0.5,2.6,1.4,3.6c0.9,1,2.1,1.5,3.4,1.5C156.6,23.1,157.7,22.7,158.7,21.7z"/>
			<path class="st0" d="M164,12h0.8h0.8v1.8h0c0.1-0.3,0.3-0.6,0.5-0.8c0.6-0.8,1.7-1.3,3-1.3v1.7c-1,0.1-1.9,0.4-2.5,1
				c-0.7,0.7-1,1.6-1,2.9v7h-0.8H164V12z"/>
		</g>
		<polygon class="st0" points="86.4,4.8 87.5,7 90,7.3 88.2,9.1 88.6,11.5 86.4,10.3 84.3,11.5 84.7,9.1 82.9,7.3 85.3,7 		"/>
		<polygon class="st0" points="132,4.8 133.1,7 135.5,7.3 133.7,9.1 134.2,11.5 132,10.3 129.8,11.5 130.2,9.1 128.5,7.3 130.9,7 		
			"/>
	</g>
	<polygon class="st0" points="13.7,1.7 17.6,9.7 26.5,11 20.1,17.3 21.6,26.1 13.7,22 5.7,26.1 7.2,17.3 0.8,11 9.7,9.7 	"/>
	<g>
		<path class="st1" d="M174.1,6.6h-1.2v3.2H172V6.6h-1.2V5.9h3.4V6.6z"/>
		<path class="st1" d="M178.9,9.8h-0.8V6.7l-1,3.1h-0.8l-1-3.1v3.1h-0.8v-4h1.3l1,3l0.9-3h1.3V9.8z"/>
	</g>
	<g>
		<g>
			<g>
				<g>
					<g>
						<g>
							<g>
								<g>
									<path class="st2" d="M89.4,27.7H90l1.5,3.8h-0.6l-0.4-1.1h-1.6l-0.4,1.1h-0.5L89.4,27.7z M89,29.9h1.3l-0.6-1.8h0L89,29.9z
										"/>
									<path class="st2" d="M94.3,27.7h2.5v0.4h-2v1.2h1.7v0.4h-1.7v1.7h-0.5V27.7z"/>
									<path class="st2" d="M97.7,29.6c0-0.3,0-0.5,0.1-0.7c0.1-0.2,0.2-0.4,0.3-0.6c0.2-0.2,0.3-0.3,0.6-0.4
										c0.2-0.1,0.5-0.2,0.8-0.2c0.3,0,0.6,0.1,0.8,0.2c0.2,0.1,0.4,0.3,0.6,0.4c0.2,0.2,0.3,0.4,0.3,0.6c0.1,0.2,0.1,0.5,0.1,0.7
										s0,0.5-0.1,0.7c-0.1,0.2-0.2,0.4-0.3,0.6c-0.2,0.2-0.3,0.3-0.6,0.4c-0.2,0.1-0.5,0.2-0.8,0.2c-0.3,0-0.6-0.1-0.8-0.2
										c-0.2-0.1-0.4-0.3-0.6-0.4c-0.2-0.2-0.3-0.4-0.3-0.6C97.7,30.1,97.7,29.8,97.7,29.6z M98.2,29.6c0,0.2,0,0.4,0.1,0.6
										c0,0.2,0.1,0.4,0.2,0.5c0.1,0.1,0.2,0.3,0.4,0.4c0.2,0.1,0.4,0.1,0.6,0.1c0.2,0,0.4,0,0.6-0.1c0.2-0.1,0.3-0.2,0.4-0.4
										c0.1-0.1,0.2-0.3,0.2-0.5c0-0.2,0.1-0.4,0.1-0.6c0-0.2,0-0.4-0.1-0.6c0-0.2-0.1-0.4-0.2-0.5c-0.1-0.1-0.2-0.3-0.4-0.4
										c-0.2-0.1-0.4-0.1-0.6-0.1c-0.2,0-0.4,0-0.6,0.1c-0.2,0.1-0.3,0.2-0.4,0.4c-0.1,0.1-0.2,0.3-0.2,0.5
										C98.2,29.2,98.2,29.4,98.2,29.6z"/>
									<path class="st2" d="M102.2,29.6c0-0.3,0-0.5,0.1-0.7c0.1-0.2,0.2-0.4,0.3-0.6c0.2-0.2,0.3-0.3,0.6-0.4
										c0.2-0.1,0.5-0.2,0.8-0.2c0.3,0,0.6,0.1,0.8,0.2c0.2,0.1,0.4,0.3,0.6,0.4c0.2,0.2,0.3,0.4,0.3,0.6c0.1,0.2,0.1,0.5,0.1,0.7
										s0,0.5-0.1,0.7c-0.1,0.2-0.2,0.4-0.3,0.6c-0.2,0.2-0.3,0.3-0.6,0.4c-0.2,0.1-0.5,0.2-0.8,0.2c-0.3,0-0.6-0.1-0.8-0.2
										c-0.2-0.1-0.4-0.3-0.6-0.4c-0.2-0.2-0.3-0.4-0.3-0.6C102.3,30.1,102.2,29.8,102.2,29.6z M102.8,29.6c0,0.2,0,0.4,0.1,0.6
										c0,0.2,0.1,0.4,0.2,0.5c0.1,0.1,0.2,0.3,0.4,0.4c0.2,0.1,0.4,0.1,0.6,0.1c0.2,0,0.4,0,0.6-0.1c0.2-0.1,0.3-0.2,0.4-0.4
										c0.1-0.1,0.2-0.3,0.2-0.5c0-0.2,0.1-0.4,0.1-0.6c0-0.2,0-0.4-0.1-0.6c0-0.2-0.1-0.4-0.2-0.5c-0.1-0.1-0.2-0.3-0.4-0.4
										c-0.2-0.1-0.4-0.1-0.6-0.1c-0.2,0-0.4,0-0.6,0.1c-0.2,0.1-0.3,0.2-0.4,0.4c-0.1,0.1-0.2,0.3-0.2,0.5
										C102.8,29.2,102.8,29.4,102.8,29.6z"/>
									<path class="st2" d="M107.9,28.1h-1.3v-0.4h3v0.4h-1.3v3.4h-0.5V28.1z"/>
									<path class="st2" d="M110.6,27.7h2.5v0.4h-2v1.2h1.7v0.4h-1.7v1.7h-0.5V27.7z"/>
									<path class="st2" d="M114.9,27.7h0.6l1.5,3.8h-0.6l-0.4-1.1h-1.6l-0.4,1.1h-0.5L114.9,27.7z M114.5,29.9h1.3l-0.6-1.8h0
										L114.5,29.9z"/>
									<path class="st2" d="M117.8,27.7h0.5V31h2v0.4h-2.5V27.7z"/>
									<path class="st2" d="M121.3,27.7h0.5V31h2v0.4h-2.5V27.7z"/>
									<path class="st2" d="M127.4,28.8c-0.1-0.3-0.2-0.5-0.4-0.6c-0.2-0.1-0.4-0.2-0.7-0.2c-0.2,0-0.4,0-0.6,0.1
										c-0.2,0.1-0.3,0.2-0.4,0.3c-0.1,0.1-0.2,0.3-0.2,0.5c0,0.2-0.1,0.4-0.1,0.6c0,0.2,0,0.4,0.1,0.6c0,0.2,0.1,0.4,0.2,0.5
										c0.1,0.1,0.2,0.3,0.4,0.3c0.2,0.1,0.4,0.1,0.6,0.1c0.2,0,0.3,0,0.4-0.1c0.1-0.1,0.2-0.1,0.3-0.2c0.1-0.1,0.2-0.2,0.2-0.3
										c0.1-0.1,0.1-0.3,0.1-0.4h0.5c0,0.5-0.2,0.8-0.5,1.1c-0.3,0.3-0.7,0.4-1.1,0.4c-0.3,0-0.5-0.1-0.8-0.2
										c-0.2-0.1-0.4-0.2-0.5-0.4c-0.1-0.2-0.3-0.4-0.3-0.6c-0.1-0.2-0.1-0.5-0.1-0.8c0-0.3,0-0.5,0.1-0.8
										c0.1-0.2,0.2-0.5,0.3-0.6c0.1-0.2,0.3-0.3,0.6-0.4c0.2-0.1,0.5-0.2,0.8-0.2c0.2,0,0.4,0,0.6,0.1c0.2,0.1,0.3,0.1,0.5,0.2
										c0.1,0.1,0.3,0.2,0.3,0.4c0.1,0.2,0.2,0.3,0.2,0.5H127.4z"/>
									<path class="st2" d="M130.2,27.7h0.6l1.5,3.8h-0.6l-0.4-1.1h-1.6l-0.4,1.1h-0.5L130.2,27.7z M129.8,29.9h1.3l-0.6-1.8h0
										L129.8,29.9z"/>
									<path class="st2" d="M133.1,27.7h0.7l1.2,3.2l1.2-3.2h0.7v3.8h-0.5v-3.1h0l-1.2,3.1h-0.4l-1.2-3.1h0v3.1h-0.5V27.7z"/>
									<path class="st2" d="M142.9,28.8c-0.1-0.3-0.2-0.5-0.4-0.6c-0.2-0.1-0.4-0.2-0.7-0.2c-0.2,0-0.4,0-0.6,0.1
										c-0.2,0.1-0.3,0.2-0.4,0.3c-0.1,0.1-0.2,0.3-0.2,0.5c0,0.2-0.1,0.4-0.1,0.6c0,0.2,0,0.4,0.1,0.6c0,0.2,0.1,0.4,0.2,0.5
										c0.1,0.1,0.2,0.3,0.4,0.3c0.2,0.1,0.4,0.1,0.6,0.1c0.2,0,0.3,0,0.4-0.1c0.1-0.1,0.2-0.1,0.3-0.2c0.1-0.1,0.2-0.2,0.2-0.3
										c0.1-0.1,0.1-0.3,0.1-0.4h0.5c0,0.5-0.2,0.8-0.5,1.1c-0.3,0.3-0.7,0.4-1.1,0.4c-0.3,0-0.5-0.1-0.8-0.2
										c-0.2-0.1-0.4-0.2-0.5-0.4c-0.1-0.2-0.3-0.4-0.3-0.6c-0.1-0.2-0.1-0.5-0.1-0.8c0-0.3,0-0.5,0.1-0.8
										c0.1-0.2,0.2-0.5,0.3-0.6s0.3-0.3,0.6-0.4c0.2-0.1,0.5-0.2,0.8-0.2c0.2,0,0.4,0,0.6,0.1c0.2,0.1,0.3,0.1,0.5,0.2
										c0.1,0.1,0.3,0.2,0.3,0.4c0.1,0.2,0.2,0.3,0.2,0.5H142.9z"/>
									<path class="st2" d="M144.4,29.6c0-0.3,0-0.5,0.1-0.7c0.1-0.2,0.2-0.4,0.3-0.6c0.2-0.2,0.3-0.3,0.6-0.4
										c0.2-0.1,0.5-0.2,0.8-0.2c0.3,0,0.6,0.1,0.8,0.2c0.2,0.1,0.4,0.3,0.6,0.4c0.2,0.2,0.3,0.4,0.3,0.6c0.1,0.2,0.1,0.5,0.1,0.7
										s0,0.5-0.1,0.7c-0.1,0.2-0.2,0.4-0.3,0.6c-0.2,0.2-0.3,0.3-0.6,0.4c-0.2,0.1-0.5,0.2-0.8,0.2c-0.3,0-0.6-0.1-0.8-0.2
										c-0.2-0.1-0.4-0.3-0.6-0.4c-0.2-0.2-0.3-0.4-0.3-0.6C144.4,30.1,144.4,29.8,144.4,29.6z M144.9,29.6c0,0.2,0,0.4,0.1,0.6
										c0,0.2,0.1,0.4,0.2,0.5c0.1,0.1,0.2,0.3,0.4,0.4c0.2,0.1,0.4,0.1,0.6,0.1c0.2,0,0.4,0,0.6-0.1c0.2-0.1,0.3-0.2,0.4-0.4
										c0.1-0.1,0.2-0.3,0.2-0.5c0-0.2,0.1-0.4,0.1-0.6c0-0.2,0-0.4-0.1-0.6c0-0.2-0.1-0.4-0.2-0.5c-0.1-0.1-0.2-0.3-0.4-0.4
										c-0.2-0.1-0.4-0.1-0.6-0.1c-0.2,0-0.4,0-0.6,0.1c-0.2,0.1-0.3,0.2-0.4,0.4c-0.1,0.1-0.2,0.3-0.2,0.5
										C144.9,29.2,144.9,29.4,144.9,29.6z"/>
									<path class="st2" d="M149.2,27.7h0.7l1.2,3.2l1.2-3.2h0.7v3.8h-0.5v-3.1h0l-1.2,3.1h-0.4l-1.2-3.1h0v3.1h-0.5V27.7z"/>
									<path class="st2" d="M154.3,27.7h1.7c0.4,0,0.7,0.1,0.9,0.3c0.2,0.2,0.3,0.5,0.3,0.8c0,0.4-0.1,0.6-0.3,0.8
										c-0.2,0.2-0.5,0.3-0.9,0.3h-1.2v1.5h-0.5V27.7z M154.8,29.5h1c0.3,0,0.5-0.1,0.6-0.2c0.1-0.1,0.2-0.3,0.2-0.5
										c0-0.2-0.1-0.4-0.2-0.5c-0.1-0.1-0.3-0.2-0.6-0.2h-1V29.5z"/>
									<path class="st2" d="M158.9,27.7h0.6l1.5,3.8h-0.6l-0.4-1.1h-1.6l-0.4,1.1h-0.5L158.9,27.7z M158.5,29.9h1.3l-0.6-1.8h0
										L158.5,29.9z"/>
									<path class="st2" d="M161.8,27.7h0.5l2,3.1h0v-3.1h0.5v3.8h-0.6l-2-3h0v3h-0.5V27.7z"/>
									<path class="st2" d="M167.8,29.9v1.5h-0.5v-1.5l-1.5-2.2h0.6l1.1,1.8l1.1-1.8h0.6L167.8,29.9z"/>
								</g>
							</g>
						</g>
					</g>
				</g>
			</g>
		</g>
	</g>
</g>
</svg>
