<svg xmlns="http://www.w3.org/2000/svg" xmlns:xlink="http://www.w3.org/1999/xlink" width="303px" height="79px"
	viewBox="0 0 303 79" version="1.1">
	<defs>
		<polygon id="path-1" points="1 0.5 1.5 0.5 1.5 1 1 1"></polygon>
		<polygon id="path-3" points="1 29 116.747 29 116.747 0.069 1 0.069"></polygon>
		<polygon id="path-5" points="0 41 303 41 303 0.164 0 0.164"></polygon>
	</defs>
	<g id="Login" stroke="none" stroke-width="1" fill="none" fill-rule="evenodd">
		<g id="MS---Login" transform="translate(-569.000000, -95.000000)">
			<g id="Group-8" transform="translate(569.000000, 94.000000)">
				<path
					d="M146.691406,55.9155942 L147.716797,55.9155942 L147.716797,59.0386411 C147.947267,58.7378583 148.222655,58.5083684 148.542969,58.3501645 C148.863283,58.1919606 149.210936,58.1128598 149.585938,58.1128598 C150.367191,58.1128598 151.000974,58.3814118 151.487305,58.9185239 C151.973635,59.455636 152.216797,60.2476202 152.216797,61.2945005 C152.216797,62.2866929 151.976565,63.1109034 151.496094,63.7671567 C151.015623,64.42341 150.349614,64.7515317 149.498047,64.7515317 C149.021482,64.7515317 148.619142,64.6362985 148.291016,64.4058286 C148.095702,64.2691092 147.88672,64.0503613 147.664062,63.7495786 L147.664062,64.552313 L146.691406,64.552313 L146.691406,55.9155942 Z M149.433594,63.8198911 C150.003909,63.8198911 150.430663,63.5933309 150.713867,63.1402036 C150.997072,62.6870763 151.138672,62.0894261 151.138672,61.3472348 C151.138672,60.6870753 150.997072,60.1402058 150.713867,59.7066098 C150.430663,59.2730139 150.013675,59.0562192 149.462891,59.0562192 C148.982419,59.0562192 148.561525,59.2339518 148.200195,59.5894223 C147.838865,59.9448929 147.658203,60.5308245 147.658203,61.3472348 C147.658203,61.9370815 147.732421,62.4155924 147.880859,62.7827817 C148.158205,63.4741914 148.675777,63.8198911 149.433594,63.8198911 Z M157.367188,58.2769223 L158.533203,58.2769223 C158.384765,58.6792681 158.05469,59.5972277 157.542969,61.0308286 C157.160154,62.108959 156.839845,62.9878564 156.582031,63.6675473 C155.972653,65.2691178 155.54297,66.2456706 155.292969,66.5972348 C155.042968,66.9487991 154.613284,67.1245786 154.003906,67.1245786 C153.855468,67.1245786 153.741211,67.1187193 153.661133,67.1070005 C153.581054,67.0952817 153.482422,67.0737975 153.365234,67.0425473 L153.365234,66.0816098 C153.548829,66.1323913 153.68164,66.163641 153.763672,66.1753598 C153.845704,66.1870786 153.917968,66.192938 153.980469,66.192938 C154.175782,66.192938 154.319335,66.1607117 154.411133,66.0962583 C154.50293,66.0318048 154.580078,65.9527041 154.642578,65.8589536 C154.662109,65.8277034 154.732421,65.6675488 154.853516,65.3784848 C154.97461,65.0894209 155.0625,64.8745793 155.117188,64.7339536 L152.796875,58.2769223 L153.992188,58.2769223 L155.673828,63.3862973 L157.367188,58.2769223 Z"
					id="by" fill="#5C5E5C"></path>
				<g id="Group-43" transform="translate(175.000000, 50.000000)">
					<polygon id="Fill-1" fill="#005DAC"
						points="12.241 5.8769 17.598 5.8769 17.598 1.0049 12.241 1.0049"></polygon>
					<polygon id="Fill-2" fill="#005DAC"
						points="1 1.0022 1 18.8712 6.361 18.8712 6.361 12.0192 12.236 12.0192 12.236 18.8712 17.598 18.8712 17.598 7.3932 6.363 7.3932 6.363 1.0022">
					</polygon>
					<polygon id="Fill-3" fill="#005DAC"
						points="69.623 5.8769 74.981 5.8769 74.981 1.0049 69.623 1.0049"></polygon>
					<polygon id="Fill-4" fill="#005DAC"
						points="77.3938 1.0049 77.3938 5.8769 93.0548 5.8729 93.0548 1.0049"></polygon>
					<polygon id="Fill-5" fill="#005DAC"
						points="82.7379 12.026 90.4109 12.026 90.4109 7.396 77.3939 7.396 77.3939 18.885 93.0559 18.885 93.0559 14.047 82.7379 14.047">
					</polygon>
					<polygon id="Fill-6" fill="#005DAC"
						points="31.296 5.8769 36.657 5.8769 36.657 1.0109 31.296 1.0109"></polygon>
					<polygon id="Fill-7" fill="#005DAC"
						points="19.995 5.8769 25.353 5.8769 25.353 1.0009 19.995 1.0009"></polygon>
					<g id="Group-42" transform="translate(0.000000, 0.930900)">
						<path
							d="M112.0102,10.0445 C111.2832,7.9935 109.5642,6.5355 107.5212,6.4835 L95.2202,6.4785 C95.6412,8.9925 97.7002,10.9955 100.1822,11.1155 L106.1342,11.1175 C106.7032,11.1375 107.1662,11.5325 107.1662,12.1005 C107.1662,12.6805 106.6972,13.1105 106.1062,13.1105 L95.3422,13.1105 L95.3422,17.9395 L107.2892,17.9465 C110.0962,17.9465 112.3712,15.3035 112.3712,12.1495 C112.3712,11.4055 112.2452,10.6975 112.0102,10.0445 Z"
							id="Fill-8" fill="#005DAC"></path>
						<path
							d="M111.8424,0.1205 L100.6094,0.1205 C97.8084,0.1205 95.5074,2.2295 95.1924,4.9455 L111.8424,4.9455 L111.8424,0.1205 Z"
							id="Fill-10" fill="#005DAC"></path>
						<g id="Group-14" transform="translate(0.000000, 28.000000)">
							<mask id="mask-2" fill="white">
								<use xlink:href="#path-1"></use>
							</mask>
							<g id="Clip-13"></g>
							<path d="" id="Fill-12" fill="#005DAC" mask="url(#mask-2)"></path>
						</g>
						<path
							d="M31.2984,6.477 L31.2984,8.856 C31.2174,10.838 31.7544,13.116 28.3174,13.122 C24.8784,13.116 25.4154,10.838 25.3374,8.856 L25.3374,6.477 L19.9914,6.477 L19.9914,9.092 C19.9914,11.596 20.0944,14.075 22.0324,15.957 C23.6434,17.546 25.8884,18.123 28.3174,18.128 L28.3194,18.128 C30.7444,18.123 32.9894,17.546 34.6004,15.957 C36.5384,14.075 36.6434,11.596 36.6434,9.092 L36.6434,6.477 L31.2984,6.477 Z"
							id="Fill-15" fill="#005DAC"></path>
						<path
							d="M55.9596,4.9457 L55.9596,0.0797 L46.9516,0.0797 C43.5726,0.0797 40.6646,2.0747 39.3096,4.9457 L55.9596,4.9457 Z"
							id="Fill-17" fill="#005DAC"></path>
						<path
							d="M47.5377,11.0951 L50.5967,11.0951 L50.5967,13.1211 L47.3237,13.1211 C45.2507,13.1211 43.7007,11.4071 43.7007,9.3861 L43.7007,8.7411 C43.7007,7.8771 43.9817,7.0861 44.4627,6.4601 L38.7647,6.4601 C38.5947,7.1321 38.5017,7.8321 38.5017,8.5571 L38.5017,9.4791 C38.5017,14.1431 42.2867,17.9241 46.9517,17.9401 L55.9597,17.9401 L55.9597,6.4691 L47.5377,6.4691 L47.5377,11.0951 Z"
							id="Fill-19" fill="#005DAC"></path>
						<mask id="mask-4" fill="white">
							<use xlink:href="#path-3"></use>
						</mask>
						<g id="Clip-22"></g>
						<polygon id="Fill-21" fill="#005DAC" mask="url(#mask-4)"
							points="58.384 4.946 63.746 4.946 63.746 0.072 58.384 0.072"></polygon>
						<polygon id="Fill-23" fill="#005DAC" mask="url(#mask-4)"
							points="63.7457 6.4623 63.7457 6.4603 58.3837 6.4603 58.3837 17.9403 63.7457 17.9403 63.7457 11.0883 69.6207 11.0883 69.6207 17.9403 74.9807 17.9403 74.9807 6.4623">
						</polygon>
						<path
							d="M114.6041,16.018 L114.8401,16.018 C115.1081,16.018 115.3331,15.918 115.3331,15.667 C115.3331,15.49 115.2051,15.311 114.8401,15.311 C114.7331,15.311 114.6601,15.32 114.6041,15.326 L114.6041,16.018 Z M114.6041,17.145 L114.2791,17.145 L114.2791,15.108 C114.4491,15.085 114.6131,15.061 114.8551,15.061 C115.1641,15.061 115.3671,15.124 115.4891,15.214 C115.6091,15.303 115.6751,15.442 115.6751,15.634 C115.6751,15.904 115.4961,16.066 115.2781,16.131 L115.2781,16.146 C115.4581,16.179 115.5781,16.341 115.6181,16.639 C115.6661,16.958 115.7151,17.08 115.7501,17.145 L115.4061,17.145 C115.3591,17.08 115.3091,16.894 115.2691,16.624 C115.2221,16.368 115.0911,16.27 114.8311,16.27 L114.6041,16.27 L114.6041,17.145 Z M114.9441,14.54 C114.1401,14.54 113.4841,15.231 113.4841,16.081 C113.4841,16.953 114.1401,17.633 114.9531,17.633 C115.7621,17.64 116.4151,16.953 116.4151,16.09 C116.4151,15.231 115.7621,14.54 114.9531,14.54 L114.9441,14.54 Z M114.9531,14.254 C115.9491,14.254 116.7471,15.067 116.7471,16.081 C116.7471,17.114 115.9491,17.915 114.9441,17.915 C113.9461,17.915 113.1331,17.114 113.1331,16.081 C113.1331,15.067 113.9461,14.254 114.9441,14.254 L114.9531,14.254 Z"
							id="Fill-24" fill="#005DAC" mask="url(#mask-4)"></path>
						<path
							d="M40.5875,25.5903 L42.1065,25.5903 L41.3605,23.4493 L41.3405,23.4493 L40.5875,25.5903 Z M40.8935,22.5913 L41.8205,22.5913 L43.7375,27.5693 L42.8035,27.5693 L42.3375,26.2523 L40.3505,26.2523 L39.8825,27.5693 L38.9825,27.5693 L40.8935,22.5913 Z"
							id="Fill-25" fill="#005DAC" mask="url(#mask-4)"></path>
						<path
							d="M44.1012,23.9653 L44.8542,23.9653 L44.8542,24.4943 L44.8692,24.5093 C44.9882,24.3093 45.1472,24.1523 45.3412,24.0383 C45.5382,23.9253 45.7542,23.8673 45.9922,23.8673 C46.3862,23.8673 46.6972,23.9703 46.9242,24.1753 C47.1522,24.3793 47.2672,24.6863 47.2672,25.0953 L47.2672,27.5693 L46.4722,27.5693 L46.4722,25.3033 C46.4622,25.0203 46.4022,24.8153 46.2902,24.6873 C46.1792,24.5593 46.0042,24.4943 45.7682,24.4943 C45.6332,24.4943 45.5122,24.5203 45.4052,24.5683 C45.2982,24.6173 45.2072,24.6843 45.1332,24.7703 C45.0582,24.8573 45.0002,24.9583 44.9592,25.0733 C44.9162,25.1903 44.8962,25.3133 44.8962,25.4443 L44.8962,27.5693 L44.1012,27.5693 L44.1012,23.9653 Z"
							id="Fill-26" fill="#005DAC" mask="url(#mask-4)"></path>
						<polygon id="Fill-27" fill="#005DAC" mask="url(#mask-4)"
							points="50.1529 22.5912 53.7379 22.5912 53.7379 23.3442 51.0239 23.3442 51.0239 24.6492 53.5349 24.6492 53.5349 25.3602 51.0239 25.3602 51.0239 26.8172 53.7869 26.8172 53.7869 27.5702 50.1529 27.5702">
						</polygon>
						<path
							d="M56.8678,25.1713 C56.8358,24.9483 56.7468,24.7793 56.5998,24.6653 C56.4538,24.5523 56.2688,24.4943 56.0448,24.4943 C55.9428,24.4943 55.8348,24.5123 55.7188,24.5473 C55.6018,24.5823 55.4948,24.6483 55.3958,24.7423 C55.2998,24.8373 55.2188,24.9713 55.1528,25.1403 C55.0878,25.3103 55.0558,25.5313 55.0558,25.8063 C55.0558,25.9543 55.0728,26.1043 55.1068,26.2523 C55.1418,26.4013 55.1978,26.5333 55.2748,26.6503 C55.3518,26.7663 55.4508,26.8593 55.5718,26.9323 C55.6928,27.0043 55.8398,27.0403 56.0118,27.0403 C56.2438,27.0403 56.4338,26.9683 56.5858,26.8233 C56.7368,26.6803 56.8308,26.4783 56.8678,26.2173 L57.6618,26.2173 C57.5898,26.6873 57.4108,27.0463 57.1288,27.2943 C56.8478,27.5433 56.4758,27.6683 56.0118,27.6683 C55.7258,27.6683 55.4778,27.6203 55.2618,27.5253 C55.0448,27.4293 54.8618,27.2993 54.7138,27.1343 C54.5648,26.9693 54.4528,26.7733 54.3758,26.5443 C54.2978,26.3173 54.2598,26.0703 54.2598,25.8063 C54.2598,25.5363 54.2978,25.2823 54.3708,25.0453 C54.4458,24.8093 54.5568,24.6033 54.7068,24.4293 C54.8548,24.2543 55.0398,24.1173 55.2618,24.0183 C55.4808,23.9173 55.7408,23.8673 56.0378,23.8673 C56.2468,23.8673 56.4458,23.8943 56.6358,23.9473 C56.8228,24.0013 56.9898,24.0813 57.1368,24.1883 C57.2828,24.2953 57.4028,24.4303 57.4948,24.5933 C57.5898,24.7563 57.6448,24.9483 57.6618,25.1713 L56.8678,25.1713 Z"
							id="Fill-28" fill="#005DAC" mask="url(#mask-4)"></path>
						<path
							d="M58.3121,22.5912 L59.1061,22.5912 L59.1061,24.4392 L59.1211,24.4392 C59.2171,24.2772 59.3631,24.1402 59.5551,24.0312 C59.7481,23.9222 59.9641,23.8672 60.2001,23.8672 C60.5961,23.8672 60.9071,23.9702 61.1341,24.1752 C61.3621,24.3792 61.4771,24.6862 61.4771,25.0952 L61.4771,27.5702 L60.6821,27.5702 L60.6821,25.3032 C60.6731,25.0202 60.6131,24.8152 60.5011,24.6872 C60.3891,24.5592 60.2141,24.4942 59.9771,24.4942 C59.8431,24.4942 59.7221,24.5202 59.6161,24.5682 C59.5071,24.6172 59.4161,24.6842 59.3431,24.7702 C59.2681,24.8572 59.2111,24.9582 59.1681,25.0732 C59.1271,25.1902 59.1061,25.3132 59.1061,25.4442 L59.1061,27.5702 L58.3121,27.5702 L58.3121,22.5912 Z"
							id="Fill-29" fill="#005DAC" mask="url(#mask-4)"></path>
						<path
							d="M63.9654,27.0405 C64.1424,27.0405 64.2964,27.0035 64.4264,26.9285 C64.5564,26.8535 64.6624,26.7565 64.7474,26.6355 C64.8304,26.5155 64.8924,26.3795 64.9324,26.2285 C64.9724,26.0765 64.9904,25.9225 64.9904,25.7645 C64.9904,25.6105 64.9724,25.4575 64.9324,25.3035 C64.8924,25.1505 64.8304,25.0155 64.7474,24.8955 C64.6624,24.7775 64.5564,24.6815 64.4264,24.6065 C64.2964,24.5315 64.1424,24.4945 63.9654,24.4945 C63.7884,24.4945 63.6364,24.5315 63.5054,24.6065 C63.3754,24.6815 63.2684,24.7775 63.1854,24.8955 C63.1014,25.0155 63.0404,25.1505 63.0004,25.3035 C62.9614,25.4575 62.9424,25.6105 62.9424,25.7645 C62.9424,25.9225 62.9614,26.0765 63.0004,26.2285 C63.0404,26.3795 63.1014,26.5155 63.1854,26.6355 C63.2684,26.7565 63.3754,26.8535 63.5054,26.9285 C63.6364,27.0035 63.7884,27.0405 63.9654,27.0405 M63.9654,27.6685 C63.6774,27.6685 63.4214,27.6205 63.1944,27.5245 C62.9704,27.4295 62.7794,27.2985 62.6234,27.1305 C62.4674,26.9635 62.3494,26.7645 62.2684,26.5305 C62.1874,26.2985 62.1464,26.0435 62.1464,25.7645 C62.1464,25.4895 62.1874,25.2365 62.2684,25.0045 C62.3494,24.7715 62.4674,24.5715 62.6234,24.4045 C62.7794,24.2365 62.9704,24.1055 63.1944,24.0105 C63.4214,23.9155 63.6774,23.8675 63.9654,23.8675 C64.2534,23.8675 64.5114,23.9155 64.7364,24.0105 C64.9624,24.1055 65.1524,24.2365 65.3084,24.4045 C65.4644,24.5715 65.5834,24.7715 65.6644,25.0045 C65.7454,25.2365 65.7854,25.4895 65.7854,25.7645 C65.7854,26.0435 65.7454,26.2985 65.6644,26.5305 C65.5834,26.7645 65.4644,26.9635 65.3084,27.1305 C65.1524,27.2985 64.9624,27.4295 64.7364,27.5245 C64.5114,27.6205 64.2534,27.6685 63.9654,27.6685"
							id="Fill-30" fill="#005DAC" mask="url(#mask-4)"></path>
						<path
							d="M67.1315,25.9106 C67.1315,26.1006 67.1645,26.2646 67.2305,26.3986 C67.2935,26.5336 67.3845,26.6436 67.5005,26.7296 C67.6165,26.8156 67.7505,26.8796 67.9025,26.9186 C68.0535,26.9576 68.2165,26.9776 68.3945,26.9776 C68.5845,26.9776 68.7465,26.9556 68.8805,26.9106 C69.0165,26.8666 69.1265,26.8096 69.2085,26.7406 C69.2935,26.6706 69.3545,26.5906 69.3905,26.5006 C69.4285,26.4096 69.4455,26.3166 69.4455,26.2246 C69.4455,26.0336 69.4025,25.8926 69.3175,25.8036 C69.2315,25.7126 69.1375,25.6476 69.0355,25.6106 C68.8595,25.5456 68.6525,25.4846 68.4175,25.4266 C68.1835,25.3686 67.8935,25.2926 67.5495,25.1996 C67.3365,25.1436 67.1575,25.0706 67.0165,24.9796 C66.8745,24.8896 66.7615,24.7876 66.6795,24.6766 C66.5945,24.5646 66.5355,24.4456 66.5005,24.3206 C66.4655,24.1956 66.4475,24.0666 66.4475,23.9376 C66.4475,23.6856 66.5005,23.4696 66.6055,23.2856 C66.7095,23.1016 66.8475,22.9496 67.0195,22.8286 C67.1925,22.7076 67.3875,22.6186 67.6055,22.5596 C67.8235,22.5026 68.0445,22.4726 68.2685,22.4726 C68.5285,22.4726 68.7745,22.5076 69.0035,22.5736 C69.2345,22.6406 69.4365,22.7426 69.6105,22.8776 C69.7855,23.0126 69.9225,23.1796 70.0265,23.3766 C70.1275,23.5736 70.1785,23.8036 70.1785,24.0626 L69.3075,24.0626 C69.2835,23.7426 69.1735,23.5156 68.9795,23.3826 C68.7835,23.2506 68.5355,23.1836 68.2335,23.1836 C68.1315,23.1836 68.0265,23.1946 67.9195,23.2156 C67.8125,23.2366 67.7155,23.2706 67.6265,23.3206 C67.5385,23.3686 67.4655,23.4346 67.4065,23.5186 C67.3495,23.6016 67.3205,23.7076 67.3205,23.8326 C67.3205,24.0096 67.3745,24.1476 67.4835,24.2486 C67.5925,24.3476 67.7355,24.4236 67.9125,24.4736 C67.9305,24.4786 68.0035,24.4986 68.1325,24.5336 C68.2605,24.5676 68.4025,24.6066 68.5615,24.6486 C68.7185,24.6906 68.8725,24.7306 69.0245,24.7696 C69.1755,24.8096 69.2835,24.8396 69.3495,24.8576 C69.5115,24.9086 69.6525,24.9786 69.7745,25.0666 C69.8955,25.1556 69.9955,25.2566 70.0785,25.3706 C70.1595,25.4846 70.2205,25.6056 70.2585,25.7366 C70.2975,25.8666 70.3195,25.9966 70.3195,26.1266 C70.3195,26.4056 70.2615,26.6436 70.1475,26.8416 C70.0335,27.0396 69.8845,27.2006 69.6975,27.3256 C69.5115,27.4516 69.2995,27.5436 69.0625,27.6006 C68.8245,27.6596 68.5845,27.6886 68.3375,27.6886 C68.0545,27.6886 67.7865,27.6536 67.5355,27.5846 C67.2855,27.5146 67.0665,27.4076 66.8815,27.2646 C66.6945,27.1196 66.5455,26.9346 66.4345,26.7086 C66.3215,26.4836 66.2655,26.2176 66.2605,25.9106 L67.1315,25.9106 Z"
							id="Fill-31" fill="#005DAC" mask="url(#mask-4)"></path>
						<path
							d="M70.6041,23.9653 L71.2041,23.9653 L71.2041,22.8843 L71.9991,22.8843 L71.9991,23.9653 L72.7161,23.9653 L72.7161,24.5583 L71.9991,24.5583 L71.9991,26.4833 C71.9991,26.5663 72.0011,26.6383 72.0091,26.6983 C72.0161,26.7593 72.0321,26.8103 72.0571,26.8523 C72.0831,26.8933 72.1211,26.9253 72.1711,26.9453 C72.2241,26.9663 72.2921,26.9783 72.3821,26.9783 C72.4381,26.9783 72.4941,26.9763 72.5491,26.9743 C72.6051,26.9713 72.6611,26.9633 72.7161,26.9483 L72.7161,27.5633 C72.6281,27.5723 72.5421,27.5823 72.4581,27.5903 C72.3751,27.6003 72.2891,27.6053 72.2011,27.6053 C71.9921,27.6053 71.8231,27.5853 71.6961,27.5453 C71.5671,27.5063 71.4661,27.4483 71.3951,27.3713 C71.3231,27.2943 71.2741,27.1983 71.2491,27.0823 C71.2231,26.9663 71.2081,26.8333 71.2041,26.6853 L71.2041,24.5583 L70.6041,24.5583 L70.6041,23.9653 Z"
							id="Fill-32" fill="#005DAC" mask="url(#mask-4)"></path>
						<path
							d="M75.5123,25.7641 C75.3913,25.8431 75.2433,25.8911 75.0673,25.9071 C74.8903,25.9241 74.7133,25.9481 74.5363,25.9801 C74.4513,25.9941 74.3703,26.0141 74.2923,26.0391 C74.2133,26.0661 74.1433,26.1001 74.0823,26.1441 C74.0223,26.1881 73.9743,26.2461 73.9413,26.3191 C73.9063,26.3901 73.8883,26.4781 73.8883,26.5791 C73.8883,26.6681 73.9133,26.7431 73.9643,26.8031 C74.0153,26.8641 74.0773,26.9101 74.1493,26.9461 C74.2213,26.9811 74.3003,27.0051 74.3863,27.0191 C74.4723,27.0341 74.5503,27.0401 74.6203,27.0401 C74.7083,27.0401 74.8043,27.0291 74.9063,27.0051 C75.0073,26.9821 75.1053,26.9431 75.1963,26.8871 C75.2863,26.8311 75.3613,26.7601 75.4213,26.6741 C75.4823,26.5881 75.5123,26.4831 75.5123,26.3571 L75.5123,25.7641 Z M76.3073,26.7691 C76.3073,26.8661 76.3203,26.9361 76.3453,26.9781 C76.3703,27.0191 76.4213,27.0401 76.4963,27.0401 L76.5783,27.0401 C76.6133,27.0401 76.6493,27.0351 76.6913,27.0271 L76.6913,27.5771 C76.6633,27.5861 76.6263,27.5971 76.5823,27.6091 C76.5393,27.6201 76.4933,27.6301 76.4473,27.6401 C76.4013,27.6491 76.3553,27.6561 76.3073,27.6601 C76.2603,27.6651 76.2213,27.6681 76.1893,27.6681 C76.0273,27.6681 75.8913,27.6351 75.7843,27.5701 C75.6783,27.5041 75.6083,27.3911 75.5753,27.2291 C75.4163,27.3821 75.2223,27.4931 74.9933,27.5631 C74.7623,27.6331 74.5413,27.6681 74.3273,27.6681 C74.1633,27.6681 74.0093,27.6461 73.8603,27.6011 C73.7113,27.5571 73.5793,27.4921 73.4663,27.4061 C73.3523,27.3201 73.2613,27.2111 73.1943,27.0781 C73.1273,26.9461 73.0943,26.7911 73.0943,26.6151 C73.0943,26.3921 73.1333,26.2101 73.2143,26.0711 C73.2963,25.9321 73.4033,25.8231 73.5363,25.7431 C73.6683,25.6641 73.8173,25.6071 73.9823,25.5731 C74.1463,25.5371 74.3133,25.5101 74.4813,25.4931 C74.6233,25.4641 74.7623,25.4451 74.8913,25.4331 C75.0223,25.4211 75.1363,25.4021 75.2373,25.3731 C75.3373,25.3461 75.4153,25.3031 75.4743,25.2441 C75.5333,25.1871 75.5623,25.1001 75.5623,24.9841 C75.5623,24.8811 75.5363,24.7971 75.4893,24.7321 C75.4393,24.6671 75.3783,24.6181 75.3073,24.5821 C75.2353,24.5471 75.1543,24.5241 75.0673,24.5121 C74.9773,24.5011 74.8953,24.4941 74.8153,24.4941 C74.5923,24.4941 74.4083,24.5411 74.2643,24.6351 C74.1203,24.7281 74.0393,24.8711 74.0203,25.0671 L73.2263,25.0671 C73.2393,24.8341 73.2963,24.6411 73.3933,24.4891 C73.4903,24.3341 73.6153,24.2111 73.7653,24.1181 C73.9163,24.0261 74.0873,23.9601 74.2793,23.9231 C74.4693,23.8861 74.6633,23.8681 74.8653,23.8681 C75.0413,23.8681 75.2143,23.8861 75.3863,23.9231 C75.5583,23.9601 75.7133,24.0211 75.8513,24.1051 C75.9893,24.1881 76.0983,24.2961 76.1833,24.4291 C76.2653,24.5621 76.3073,24.7231 76.3073,24.9131 L76.3073,26.7691 Z"
							id="Fill-33" fill="#005DAC" mask="url(#mask-4)"></path>
						<path
							d="M77.1647,23.9653 L77.9117,23.9653 L77.9117,24.6623 L77.9247,24.6623 C77.9487,24.5653 77.9947,24.4693 78.0607,24.3773 C78.1287,24.2833 78.2097,24.1983 78.3057,24.1223 C78.4007,24.0453 78.5057,23.9843 78.6217,23.9383 C78.7377,23.8903 78.8577,23.8673 78.9777,23.8673 C79.0707,23.8673 79.1347,23.8693 79.1697,23.8743 C79.2047,23.8793 79.2407,23.8843 79.2777,23.8883 L79.2777,24.6553 C79.2227,24.6463 79.1647,24.6383 79.1077,24.6313 C79.0487,24.6243 78.9927,24.6203 78.9357,24.6203 C78.8027,24.6203 78.6747,24.6483 78.5567,24.7003 C78.4367,24.7543 78.3337,24.8333 78.2467,24.9383 C78.1567,25.0423 78.0887,25.1713 78.0377,25.3243 C77.9847,25.4783 77.9597,25.6543 77.9597,25.8553 L77.9597,27.5693 L77.1647,27.5693 L77.1647,23.9653 Z"
							id="Fill-34" fill="#005DAC" mask="url(#mask-4)"></path>
						<path
							d="M85.0309,24.1752 C84.9929,24.0302 84.9409,23.8982 84.8769,23.7772 C84.8109,23.6562 84.7279,23.5512 84.6269,23.4632 C84.5239,23.3742 84.4029,23.3062 84.2659,23.2572 C84.1299,23.2092 83.9699,23.1842 83.7889,23.1842 C83.5239,23.1842 83.2959,23.2382 83.1019,23.3442 C82.9099,23.4512 82.7529,23.5942 82.6319,23.7742 C82.5099,23.9522 82.4219,24.1552 82.3639,24.3832 C82.3039,24.6112 82.2759,24.8432 82.2759,25.0802 C82.2759,25.3182 82.3039,25.5502 82.3639,25.7782 C82.4219,26.0052 82.5099,26.2092 82.6319,26.3882 C82.7529,26.5672 82.9099,26.7102 83.1019,26.8172 C83.2959,26.9232 83.5239,26.9782 83.7889,26.9782 C83.9839,26.9782 84.1569,26.9442 84.3039,26.8762 C84.4539,26.8092 84.5819,26.7162 84.6879,26.5972 C84.7949,26.4792 84.8799,26.3412 84.9399,26.1822 C85.0009,26.0252 85.0399,25.8552 85.0579,25.6732 L85.9099,25.6732 C85.8899,25.9712 85.8269,26.2422 85.7169,26.4882 C85.6069,26.7362 85.4609,26.9482 85.2739,27.1272 C85.0879,27.3062 84.8699,27.4452 84.6179,27.5422 C84.3689,27.6402 84.0919,27.6892 83.7889,27.6892 C83.4179,27.6892 83.0839,27.6202 82.7889,27.4842 C82.4929,27.3462 82.2429,27.1582 82.0389,26.9212 C81.8349,26.6852 81.6769,26.4072 81.5679,26.0922 C81.4599,25.7762 81.4049,25.4392 81.4049,25.0802 C81.4049,24.7282 81.4599,24.3932 81.5679,24.0762 C81.6769,23.7612 81.8349,23.4842 82.0389,23.2472 C82.2429,23.0102 82.4929,22.8212 82.7889,22.6822 C83.0839,22.5422 83.4179,22.4722 83.7889,22.4722 C84.0669,22.4722 84.3299,22.5122 84.5769,22.5882 C84.8239,22.6642 85.0399,22.7762 85.2289,22.9222 C85.4179,23.0692 85.5689,23.2472 85.6849,23.4552 C85.8019,23.6652 85.8749,23.9042 85.9019,24.1752 L85.0309,24.1752 Z"
							id="Fill-35" fill="#005DAC" mask="url(#mask-4)"></path>
						<path
							d="M88.2457,27.0405 C88.4227,27.0405 88.5747,27.0035 88.7057,26.9285 C88.8357,26.8535 88.9427,26.7565 89.0247,26.6355 C89.1097,26.5155 89.1707,26.3795 89.2107,26.2285 C89.2497,26.0765 89.2707,25.9225 89.2707,25.7645 C89.2707,25.6105 89.2497,25.4575 89.2107,25.3035 C89.1707,25.1505 89.1097,25.0155 89.0247,24.8955 C88.9427,24.7775 88.8357,24.6815 88.7057,24.6065 C88.5747,24.5315 88.4227,24.4945 88.2457,24.4945 C88.0677,24.4945 87.9137,24.5315 87.7847,24.6065 C87.6547,24.6815 87.5487,24.7775 87.4637,24.8955 C87.3807,25.0155 87.3187,25.1505 87.2787,25.3035 C87.2387,25.4575 87.2207,25.6105 87.2207,25.7645 C87.2207,25.9225 87.2387,26.0765 87.2787,26.2285 C87.3187,26.3795 87.3807,26.5155 87.4637,26.6355 C87.5487,26.7565 87.6547,26.8535 87.7847,26.9285 C87.9137,27.0035 88.0677,27.0405 88.2457,27.0405 M88.2457,27.6685 C87.9567,27.6685 87.6987,27.6205 87.4747,27.5245 C87.2487,27.4295 87.0587,27.2985 86.9027,27.1305 C86.7467,26.9635 86.6277,26.7645 86.5467,26.5305 C86.4657,26.2985 86.4257,26.0435 86.4257,25.7645 C86.4257,25.4895 86.4657,25.2365 86.5467,25.0045 C86.6277,24.7715 86.7467,24.5715 86.9027,24.4045 C87.0587,24.2365 87.2487,24.1055 87.4747,24.0105 C87.6987,23.9155 87.9567,23.8675 88.2457,23.8675 C88.5337,23.8675 88.7897,23.9155 89.0167,24.0105 C89.2407,24.1055 89.4317,24.2365 89.5877,24.4045 C89.7437,24.5715 89.8607,24.7715 89.9427,25.0045 C90.0237,25.2365 90.0647,25.4895 90.0647,25.7645 C90.0647,26.0435 90.0237,26.2985 89.9427,26.5305 C89.8607,26.7645 89.7437,26.9635 89.5877,27.1305 C89.4317,27.2985 89.2407,27.4295 89.0167,27.5245 C88.7897,27.6205 88.5337,27.6685 88.2457,27.6685"
							id="Fill-36" fill="#005DAC" mask="url(#mask-4)"></path>
						<path
							d="M90.7272,23.9653 L91.4802,23.9653 L91.4802,24.4673 L91.5012,24.4673 C91.5622,24.3793 91.6262,24.2973 91.6962,24.2233 C91.7652,24.1493 91.8432,24.0863 91.9292,24.0343 C92.0152,23.9843 92.1142,23.9433 92.2262,23.9123 C92.3372,23.8823 92.4662,23.8673 92.6102,23.8673 C92.8282,23.8673 93.0322,23.9163 93.2192,24.0143 C93.4072,24.1113 93.5402,24.2633 93.6212,24.4673 C93.7552,24.2813 93.9112,24.1353 94.0872,24.0273 C94.2632,23.9203 94.4852,23.8673 94.7492,23.8673 C95.1312,23.8673 95.4272,23.9603 95.6392,24.1473 C95.8512,24.3323 95.9562,24.6443 95.9562,25.0803 L95.9562,27.5693 L95.1622,27.5693 L95.1622,25.4643 C95.1622,25.3203 95.1572,25.1893 95.1472,25.0703 C95.1382,24.9513 95.1112,24.8503 95.0682,24.7643 C95.0232,24.6783 94.9562,24.6113 94.8692,24.5653 C94.7802,24.5193 94.6612,24.4943 94.5052,24.4943 C94.2372,24.4943 94.0402,24.5793 93.9192,24.7463 C93.7992,24.9133 93.7382,25.1513 93.7382,25.4573 L93.7382,27.5693 L92.9442,27.5693 L92.9442,25.2553 C92.9442,25.0043 92.8992,24.8153 92.8082,24.6873 C92.7172,24.5593 92.5502,24.4943 92.3102,24.4943 C92.2062,24.4943 92.1082,24.5163 92.0142,24.5583 C91.9182,24.6003 91.8332,24.6603 91.7622,24.7393 C91.6912,24.8183 91.6312,24.9153 91.5872,25.0313 C91.5442,25.1493 91.5222,25.2803 91.5222,25.4293 L91.5222,27.5693 L90.7272,27.5693 L90.7272,23.9653 Z"
							id="Fill-37" fill="#005DAC" mask="url(#mask-4)"></path>
						<path
							d="M99.5895,25.7709 C99.5895,25.6089 99.5685,25.4499 99.5265,25.2969 C99.4855,25.1439 99.4225,25.0069 99.3385,24.8889 C99.2555,24.7699 99.1505,24.6749 99.0245,24.6029 C98.8995,24.5319 98.7555,24.4949 98.5915,24.4949 C98.2575,24.4949 98.0055,24.6109 97.8355,24.8429 C97.6665,25.0759 97.5805,25.3849 97.5805,25.7709 C97.5805,25.9529 97.6025,26.1219 97.6475,26.2769 C97.6925,26.4319 97.7575,26.5659 97.8465,26.6779 C97.9345,26.7899 98.0405,26.8769 98.1635,26.9429 C98.2855,27.0079 98.4295,27.0409 98.5915,27.0409 C98.7735,27.0409 98.9275,27.0029 99.0535,26.9279 C99.1775,26.8539 99.2805,26.7579 99.3615,26.6389 C99.4435,26.5209 99.5025,26.3859 99.5365,26.2349 C99.5715,26.0829 99.5895,25.9289 99.5895,25.7709 Z M96.8145,23.9649 L97.5685,23.9649 L97.5685,24.4539 L97.5805,24.4539 C97.6935,24.2439 97.8475,24.0939 98.0485,24.0029 C98.2475,23.9129 98.4645,23.8679 98.6965,23.8679 C98.9805,23.8679 99.2285,23.9169 99.4405,24.0179 C99.6505,24.1179 99.8265,24.2539 99.9655,24.4289 C100.1065,24.6029 100.2085,24.8069 100.2785,25.0399 C100.3495,25.2719 100.3845,25.5199 100.3845,25.7859 C100.3845,26.0269 100.3525,26.2609 100.2905,26.4889 C100.2265,26.7169 100.1325,26.9179 100.0035,27.0919 C99.8765,27.2669 99.7155,27.4059 99.5195,27.5109 C99.3235,27.6159 99.0945,27.6679 98.8285,27.6679 C98.7125,27.6679 98.5965,27.6569 98.4805,27.6359 C98.3635,27.6159 98.2525,27.5829 98.1455,27.5349 C98.0385,27.4889 97.9405,27.4289 97.8495,27.3579 C97.7585,27.2859 97.6845,27.2009 97.6235,27.1029 L97.6095,27.1029 L97.6095,28.9019 L96.8145,28.9019 L96.8145,23.9649 Z"
							id="Fill-38" fill="#005DAC" mask="url(#mask-4)"></path>
						<path
							d="M103.277,25.7641 C103.156,25.8431 103.008,25.8911 102.832,25.9071 C102.655,25.9241 102.478,25.9481 102.301,25.9801 C102.218,25.9941 102.137,26.0141 102.057,26.0391 C101.978,26.0661 101.91,26.1001 101.849,26.1441 C101.789,26.1881 101.741,26.2461 101.706,26.3191 C101.671,26.3901 101.653,26.4781 101.653,26.5791 C101.653,26.6681 101.678,26.7431 101.73,26.8031 C101.781,26.8641 101.842,26.9101 101.915,26.9461 C101.986,26.9811 102.066,27.0051 102.152,27.0191 C102.238,27.0341 102.316,27.0401 102.385,27.0401 C102.473,27.0401 102.569,27.0291 102.671,27.0051 C102.774,26.9821 102.87,26.9431 102.961,26.8871 C103.051,26.8311 103.127,26.7601 103.186,26.6741 C103.247,26.5881 103.277,26.4831 103.277,26.3571 L103.277,25.7641 Z M104.073,26.7691 C104.073,26.8661 104.087,26.9361 104.112,26.9781 C104.137,27.0191 104.186,27.0401 104.261,27.0401 L104.344,27.0401 C104.378,27.0401 104.414,27.0351 104.456,27.0271 L104.456,27.5771 C104.428,27.5861 104.392,27.5971 104.349,27.6091 C104.304,27.6201 104.258,27.6301 104.212,27.6401 C104.166,27.6491 104.12,27.6561 104.073,27.6601 C104.026,27.6651 103.988,27.6681 103.954,27.6681 C103.792,27.6681 103.656,27.6351 103.549,27.5701 C103.443,27.5041 103.373,27.3911 103.341,27.2291 C103.181,27.3821 102.989,27.4931 102.758,27.5631 C102.529,27.6331 102.306,27.6681 102.092,27.6681 C101.93,27.6681 101.774,27.6461 101.625,27.6011 C101.476,27.5571 101.346,27.4921 101.231,27.4061 C101.117,27.3201 101.028,27.2111 100.959,27.0781 C100.892,26.9461 100.859,26.7911 100.859,26.6151 C100.859,26.3921 100.898,26.2101 100.98,26.0711 C101.061,25.9321 101.17,25.8231 101.301,25.7431 C101.433,25.6641 101.582,25.6071 101.747,25.5731 C101.913,25.5371 102.079,25.5101 102.246,25.4931 C102.39,25.4641 102.527,25.4451 102.658,25.4331 C102.787,25.4211 102.903,25.4021 103.002,25.3731 C103.102,25.3461 103.181,25.3031 103.239,25.2441 C103.298,25.1871 103.327,25.1001 103.327,24.9841 C103.327,24.8811 103.302,24.7971 103.254,24.7321 C103.204,24.6671 103.143,24.6181 103.072,24.5821 C103.001,24.5471 102.921,24.5241 102.832,24.5121 C102.744,24.5011 102.66,24.4941 102.58,24.4941 C102.357,24.4941 102.173,24.5411 102.029,24.6351 C101.885,24.7281 101.804,24.8711 101.786,25.0671 L100.991,25.0671 C101.006,24.8341 101.061,24.6411 101.158,24.4891 C101.256,24.3341 101.38,24.2111 101.531,24.1181 C101.682,24.0261 101.852,23.9601 102.044,23.9231 C102.234,23.8861 102.43,23.8681 102.63,23.8681 C102.806,23.8681 102.979,23.8861 103.153,23.9231 C103.325,23.9601 103.479,24.0211 103.617,24.1051 C103.754,24.1881 103.863,24.2961 103.948,24.4291 C104.03,24.5621 104.073,24.7231 104.073,24.9131 L104.073,26.7691 Z"
							id="Fill-39" fill="#005DAC" mask="url(#mask-4)"></path>
						<path
							d="M104.9303,23.9653 L105.6833,23.9653 L105.6833,24.4943 L105.6983,24.5093 C105.8193,24.3093 105.9763,24.1523 106.1713,24.0383 C106.3663,23.9253 106.5823,23.8673 106.8203,23.8673 C107.2143,23.8673 107.5273,23.9703 107.7543,24.1753 C107.9823,24.3793 108.0953,24.6863 108.0953,25.0953 L108.0953,27.5693 L107.3003,27.5693 L107.3003,25.3033 C107.2913,25.0203 107.2313,24.8153 107.1193,24.6873 C107.0073,24.5593 106.8343,24.4943 106.5973,24.4943 C106.4613,24.4943 106.3403,24.5203 106.2343,24.5683 C106.1273,24.6173 106.0363,24.6843 105.9613,24.7703 C105.8883,24.8573 105.8293,24.9583 105.7883,25.0733 C105.7463,25.1903 105.7243,25.3133 105.7243,25.4443 L105.7243,27.5693 L104.9303,27.5693 L104.9303,23.9653 Z"
							id="Fill-40" fill="#005DAC" mask="url(#mask-4)"></path>
						<path
							d="M108.5348,23.9653 L109.4078,23.9653 L110.3478,26.6563 L110.3628,26.6563 L111.2748,23.9653 L112.1038,23.9653 L110.6968,27.7653 C110.6318,27.9283 110.5698,28.0833 110.5058,28.2333 C110.4438,28.3813 110.3688,28.5133 110.2778,28.6263 C110.1888,28.7403 110.0758,28.8313 109.9418,28.8993 C109.8078,28.9653 109.6368,29.0003 109.4288,29.0003 C109.2418,29.0003 109.0578,28.9863 108.8778,28.9573 L108.8778,28.2883 C108.9418,28.2983 109.0048,28.3083 109.0648,28.3193 C109.1258,28.3313 109.1868,28.3363 109.2528,28.3363 C109.3468,28.3363 109.4238,28.3253 109.4838,28.3023 C109.5448,28.2783 109.5938,28.2453 109.6338,28.2013 C109.6738,28.1563 109.7068,28.1043 109.7338,28.0443 C109.7628,27.9843 109.7878,27.9133 109.8118,27.8353 L109.9018,27.5563 L108.5348,23.9653 Z"
							id="Fill-41" fill="#005DAC" mask="url(#mask-4)"></path>
					</g>
				</g>
				<g id="Group-19">
					<polygon id="Fill-1" fill="#005DAC"
						points="24.0939 2.9174 15.7919 16.2724 7.4899 2.9174 -0.0001 2.9174 -0.0001 34.5024 6.8129 34.5024 6.8129 14.0184 15.6109 27.3734 15.7919 27.3734 24.6809 13.8814 24.6809 34.5024 31.5839 34.5024 31.5839 2.9174">
					</polygon>
					<g id="Group-18" transform="translate(0.000000, 0.836100)">
						<path
							d="M52.1752,19.6786 C51.7682,16.6106 49.9632,14.5346 47.0752,14.5346 C44.2342,14.5346 42.3832,16.5656 41.8422,19.6786 L52.1752,19.6786 Z M35.1192,21.7076 L35.1192,21.6186 C35.1192,14.7146 40.0372,9.0306 47.0752,9.0306 C55.1532,9.0306 58.8522,15.3016 58.8522,22.1596 C58.8522,22.7016 58.8082,23.3326 58.7622,23.9646 L41.9322,23.9646 C42.6092,27.0776 44.7752,28.7026 47.8432,28.7026 C50.1442,28.7026 51.8132,27.9806 53.7082,26.2206 L57.6342,29.6956 C55.3782,32.4916 52.1292,34.2066 47.7532,34.2066 C40.4872,34.2066 35.1192,29.1086 35.1192,21.7076 Z"
							id="Fill-2" fill="#005DAC"></path>
						<path
							d="M80.2084,21.619 L80.2084,21.528 C80.2084,17.513 77.5464,14.85 74.3434,14.85 C71.1404,14.85 68.4334,17.468 68.4334,21.528 L68.4334,21.619 C68.4334,25.634 71.1404,28.296 74.3434,28.296 C77.5464,28.296 80.2084,25.634 80.2084,21.619 M61.5734,21.619 L61.5734,21.528 C61.5734,13.452 66.8534,9.03 72.5834,9.03 C76.2374,9.03 78.4944,10.699 80.1184,12.64 L80.1184,0.727 L86.9774,0.727 L86.9774,33.666 L80.1184,33.666 L80.1184,30.191 C78.4494,32.447 76.1474,34.117 72.5834,34.117 C66.9434,34.117 61.5734,29.695 61.5734,21.619"
							id="Fill-4" fill="#005DAC"></path>
						<mask id="mask-6" fill="white">
							<use xlink:href="#path-5"></use>
						</mask>
						<g id="Clip-7"></g>
						<polygon id="Fill-6" fill="#005DAC" mask="url(#mask-6)"
							points="92.072 33.666 98.93 33.666 98.93 9.481 92.072 9.481"></polygon>
						<path
							d="M118.5033,25.1376 L118.5033,24.8626 C118.5033,24.2656 118.1233,23.7356 117.5563,23.5486 C116.5533,23.2196 115.3783,23.0166 114.1273,23.0166 C111.1943,23.0166 109.3903,24.1906 109.3903,26.3566 L109.3903,26.4466 C109.3903,28.2956 110.9233,29.3786 113.1353,29.3786 C116.3383,29.3786 118.5033,27.6196 118.5033,25.1376 M102.7573,26.7166 L102.7573,26.6266 C102.7573,21.3476 106.7733,18.9106 112.5023,18.9106 C114.9403,18.9106 116.6983,19.3176 118.4143,19.9036 L118.4143,19.4976 C118.4143,16.6556 116.6533,15.0756 113.2253,15.0756 C110.6073,15.0756 108.7583,15.5726 106.5473,16.3846 L104.8323,11.1506 C107.4943,9.9776 110.1113,9.2106 114.2183,9.2106 C117.9623,9.2106 120.6693,10.2026 122.3853,11.9176 C124.1903,13.7226 125.0013,16.3846 125.0013,19.6326 L125.0013,33.6656 L118.3683,33.6656 L118.3683,31.0486 C116.6983,32.8986 114.3983,34.1166 111.0593,34.1166 C106.5023,34.1166 102.7573,31.4996 102.7573,26.7166"
							id="Fill-8" fill="#005DAC" mask="url(#mask-6)"></path>
						<path
							d="M99.1108,3.7733 C99.1108,5.7663 97.4948,7.3823 95.5018,7.3823 C93.5068,7.3823 91.8918,5.7663 91.8918,3.7733 C91.8918,1.7803 93.5068,0.1643 95.5018,0.1643 C97.4948,0.1643 99.1108,1.7803 99.1108,3.7733"
							id="Fill-9" fill="#005DAC" mask="url(#mask-6)"></path>
						<path
							d="M130.3901,29.0438 L131.4281,27.9158 C134.7671,31.0738 138.4661,32.6978 143.0701,32.6978 C148.5291,32.6978 152.0931,29.7208 152.0931,25.7498 L152.0931,25.6588 C152.0931,21.9598 149.9731,19.9748 142.3481,18.3948 C134.6311,16.8608 131.6091,14.4238 131.6091,9.8668 L131.6091,9.7768 C131.6091,5.2648 135.8951,1.6098 141.8511,1.6098 C146.1821,1.6098 149.6121,2.9638 152.5901,5.3108 L151.6421,6.5278 C148.7541,4.2278 145.4601,3.0098 141.7611,3.0098 C136.5731,3.0098 133.1431,6.1218 133.1431,9.6418 L133.1431,9.7318 C133.1431,13.3868 135.2641,15.4168 142.9341,16.9958 C150.7851,18.5748 153.6271,21.1028 153.6271,25.5238 L153.6271,25.6138 C153.6271,30.4868 149.4311,34.0968 142.9791,34.0968 C138.0611,34.0968 133.9551,32.3368 130.3901,29.0438"
							id="Fill-10" fill="#666666" mask="url(#mask-6)"></path>
						<path
							d="M190.936,21.2372 L190.936,21.1472 C190.936,15.8682 186.29,11.7612 181.01,11.7612 C175.686,11.7612 171.355,15.7322 171.355,21.1022 L171.355,21.1922 C171.355,26.4712 175.731,30.5782 181.01,30.5782 C186.29,30.5782 190.936,26.5162 190.936,21.2372 M170.813,37.4802 L171.67,36.3072 C174.513,38.4732 177.671,39.6012 181.19,39.6012 C186.92,39.6012 190.801,36.3532 190.801,29.9912 L190.801,25.8852 C189.041,29.3592 185.477,31.9752 180.874,31.9752 C174.964,31.9752 169.775,27.3742 169.775,21.2372 L169.775,21.1472 C169.775,14.9662 174.964,10.3642 180.874,10.3642 C185.477,10.3642 189.041,12.9802 190.801,16.3652 L190.801,10.9052 L192.29,10.9052 L192.29,30.1712 C192.29,33.5102 191.207,36.1722 189.357,38.0222 C187.417,39.9632 184.53,41.0002 181.19,41.0002 C177.356,41.0002 173.926,39.8272 170.813,37.4802"
							id="Fill-11" fill="#666666" mask="url(#mask-6)"></path>
						<path
							d="M200.6781,10.9052 L202.1221,10.9052 L202.1221,16.3192 C203.1591,13.6122 206.0021,10.3642 210.8751,10.3642 C216.8761,10.3642 220.2611,14.4242 220.2611,20.3362 L220.2611,33.6452 L218.8171,33.6452 L218.8171,20.5602 C218.8171,15.2822 215.9741,11.7172 210.6951,11.7172 C205.9111,11.7172 202.1221,15.6422 202.1221,20.8322 L202.1221,33.6452 L200.6781,33.6452 L200.6781,10.9052 Z"
							id="Fill-12" fill="#666666" mask="url(#mask-6)"></path>
						<path
							d="M244.5317,25.2528 L244.5317,22.4558 C242.3207,21.7328 239.7037,21.1918 236.3197,21.1918 C231.3107,21.1918 227.8377,23.3128 227.8377,27.0578 L227.8377,27.1488 C227.8377,30.8938 231.2207,32.8328 235.0107,32.8328 C240.5157,32.8328 244.5317,29.3148 244.5317,25.2528 M226.3027,27.2378 L226.3027,27.1488 C226.3027,22.4108 230.5897,19.8388 236.3647,19.8388 C239.5227,19.8388 242.2757,20.3808 244.4857,21.1028 L244.4857,19.5678 C244.4857,14.4238 241.4187,11.8978 236.3647,11.8978 C233.5667,11.8978 231.2207,12.6648 228.9657,13.7928 L228.4237,12.5288 C230.9507,11.3118 233.4317,10.5438 236.4547,10.5438 C239.5677,10.5438 242.0057,11.3568 243.6747,13.0258 C245.1177,14.5148 245.9297,16.6808 245.9297,19.4778 L245.9297,33.6458 L244.4857,33.6458 L244.4857,28.9078 C243.3137,31.3898 240.1547,34.1878 234.9217,34.1878 C230.5447,34.1878 226.3027,31.8408 226.3027,27.2378"
							id="Fill-13" fill="#666666" mask="url(#mask-6)"></path>
						<path
							d="M273.5395,21.2372 L273.5395,21.1472 C273.5395,15.8682 268.8935,11.7612 263.6135,11.7612 C258.2895,11.7612 253.9575,15.7322 253.9575,21.1022 L253.9575,21.1922 C253.9575,26.4712 258.3345,30.5782 263.6135,30.5782 C268.8935,30.5782 273.5395,26.5162 273.5395,21.2372 M253.4155,37.4802 L254.2725,36.3072 C257.1155,38.4732 260.2735,39.6012 263.7935,39.6012 C269.5235,39.6012 273.4035,36.3532 273.4035,29.9912 L273.4035,25.8852 C271.6445,29.3592 268.0805,31.9752 263.4775,31.9752 C257.5675,31.9752 252.3785,27.3742 252.3785,21.2372 L252.3785,21.1472 C252.3785,14.9662 257.5675,10.3642 263.4775,10.3642 C268.0805,10.3642 271.6445,12.9802 273.4035,16.3652 L273.4035,10.9052 L274.8935,10.9052 L274.8935,30.1712 C274.8935,33.5102 273.8105,36.1722 271.9605,38.0222 C270.0195,39.9632 267.1325,41.0002 263.7935,41.0002 C259.9585,41.0002 256.5295,39.8272 253.4155,37.4802"
							id="Fill-14" fill="#666666" mask="url(#mask-6)"></path>
						<path
							d="M301.4213,21.5077 C301.1943,16.5447 298.1723,11.7177 292.4863,11.7177 C287.3433,11.7177 283.5533,15.9137 283.2823,21.5077 L301.4213,21.5077 Z M281.7033,22.2757 L281.7033,22.1857 C281.7033,15.5067 286.3053,10.3637 292.5763,10.3637 C299.4353,10.3637 303.0003,16.2287 303.0003,22.3197 L303.0003,22.8167 L283.2823,22.8167 C283.5533,28.9987 287.9293,32.8327 293.0283,32.8327 C296.5473,32.8327 299.3903,30.9837 301.1943,28.6377 L302.2773,29.4947 C300.2013,32.2017 297.1343,34.1877 292.9833,34.1877 C286.8473,34.1877 281.7033,29.5397 281.7033,22.2757 Z"
							id="Fill-15" fill="#666666" mask="url(#mask-6)"></path>
						<polygon id="Fill-16" fill="#666666" mask="url(#mask-6)"
							points="161.113 33.645 162.602 33.645 162.602 10.905 161.113 10.905"></polygon>
						<path
							d="M163.1235,3.327 C163.1235,4.026 162.5575,4.594 161.8575,4.594 C161.1575,4.594 160.5915,4.026 160.5915,3.327 C160.5915,2.628 161.1575,2.06 161.8575,2.06 C162.5575,2.06 163.1235,2.628 163.1235,3.327"
							id="Fill-17" fill="#666666" mask="url(#mask-6)"></path>
					</g>
				</g>
			</g>
		</g>
	</g>
</svg>