<svg xmlns="http://www.w3.org/2000/svg" width="790" height="227" fill="none"><path fill="#151515" d="M790 0v226.219H0V0h790zm-25.626 25.626H25.626v174.966h738.748V25.626zM561.942 40.274c20.232 0 37.311 6.9 51.237 20.7 13.925 13.801 20.888 30.755 20.888 50.863 0 20.107-6.869 37.093-20.607 50.956s-30.661 20.794-50.769 20.794c-20.482 0-37.78-6.931-51.892-20.794-14.113-13.863-21.17-30.849-21.17-50.956 0-19.983 6.994-36.906 20.982-50.769 13.988-13.862 31.098-20.794 51.331-20.794zm-476.38 2.435 35.298 96.17 34.669-96.17h37.456v138.443H167.32V77.367l-36.157 103.785h-20.981L74.025 77.367v103.785H48.36V42.709h37.202zm155.965.06v138.383h-25.665V42.77h25.665zm229.903-.06v138.443h-25.665V67.251h-11.428l-.945.004c-9.999.094-17.208 1.684-21.629 4.773-4.558 3.184-6.838 8.461-6.838 15.83 0 7.368 2.217 12.707 6.651 16.017l.424.306c4.463 3.106 11.534 4.659 21.213 4.659h2.19l-25.982 72.312h-25.716l19.511-53.017-.667-.347c-14.364-7.652-23.476-23.265-23.476-40.68 0-29.599 17.485-44.399 52.454-44.399h39.903zm-163.797 0c34.97 0 52.455 14.8 52.455 44.4 0 17.414-9.112 33.027-23.476 40.679l-.667.347 19.511 53.017h-25.717l-25.981-72.312h2.189c9.68 0 16.751-1.553 21.214-4.659l.424-.306c4.434-3.31 6.65-8.649 6.65-16.017 0-7.369-2.279-12.645-6.837-15.83-4.421-3.089-11.63-4.68-21.629-4.773l-.946-.004h-11.427v113.901H267.73V42.709h39.903zm385.28 0c34.97 0 52.455 14.8 52.455 44.4 0 17.414-9.112 33.027-23.476 40.679l-.667.347 19.511 53.017h-25.717l-25.982-72.312h2.19c9.679 0 16.75-1.553 21.214-4.659l.424-.306c4.433-3.31 6.65-8.649 6.65-16.017 0-7.369-2.279-12.645-6.838-15.83-4.42-3.089-11.63-4.68-21.628-4.773l-.946-.004h-11.428v113.901H653.01V42.709h39.903zM561.942 65.003c-13.114 0-24.135 4.527-33.065 13.582-8.93 9.054-13.395 20.138-13.395 33.252 0 13.238 4.527 24.385 13.582 33.44 9.055 9.054 20.201 13.582 33.44 13.582 13.114 0 24.01-4.465 32.69-13.395 8.68-8.93 13.02-20.076 13.02-33.44 0-13.363-4.433-24.54-13.301-33.533-8.867-8.992-19.857-13.488-32.971-13.488z"/></svg>