<svg xmlns="http://www.w3.org/2000/svg" width="140" height="43" viewBox="0 0 140 43" fill="none"><path d="M71.9086 18.364H68.7857V10.031C68.7857 9.13047 68.8253 8.1364 68.9038 7.04848H68.8252C68.6617 7.90399 68.5156 8.51955 68.3847 8.89341L65.0974 18.364H62.5133L59.1672 8.99135C59.0748 8.7397 58.9283 8.09135 58.7271 7.04848H58.638C58.7225 8.42138 58.7652 9.62671 58.7652 10.6621V18.364H55.9175V4.43623H60.5467L63.4137 12.6917C63.6425 13.3529 63.8092 14.0164 63.9131 14.6834H63.9723C64.1473 13.9129 64.3339 13.2425 64.5296 12.6725L67.3966 4.43623H71.9086V18.364Z" fill="#231F20"></path><path d="M79.4181 10.3712C78.6883 10.3712 78.1215 10.6178 77.7167 11.1112C77.3123 11.6044 77.1104 12.303 77.1104 13.2057C77.1104 15.0938 77.8861 16.0389 79.4378 16.0389C80.9176 16.0389 81.657 15.069 81.657 13.1282C81.657 11.2902 80.9102 10.3712 79.4181 10.3712ZM79.3392 18.364C77.6717 18.364 76.359 17.9044 75.4044 16.985C74.4497 16.0651 73.9719 14.8184 73.9719 13.2436C73.9719 11.6167 74.4676 10.3441 75.4585 9.42564C76.449 8.50614 77.7892 8.04714 79.4769 8.04714C81.1384 8.04714 82.4423 8.50614 83.3873 9.42564C84.3324 10.3441 84.8046 11.5584 84.8046 13.0699C84.8046 14.7045 84.3177 15.9949 83.3433 16.9418C82.3689 17.8891 81.0342 18.364 79.3392 18.364Z" fill="#231F20"></path><path d="M96.1534 18.364H93.1957V12.7684C93.1957 11.2062 92.6637 10.4269 91.5989 10.4269C91.0868 10.4269 90.6641 10.6347 90.3318 11.0455C90 11.4598 89.8351 11.9838 89.8351 12.6201V18.364H86.8682V8.29315H89.8351V9.88614H89.8721C90.5791 8.65926 91.6086 8.04714 92.9607 8.04714C95.0886 8.04714 96.1534 9.43036 96.1534 12.1971V18.364Z" fill="#231F20"></path><path d="M102.086 18.364H98.9499V8.57623H102.086V18.364ZM100.537 7.02766C100.008 7.02766 99.5746 6.87585 99.2374 6.57294C98.9006 6.27057 98.7324 5.89895 98.7324 5.45877C98.7324 5.00718 98.9006 4.6375 99.2374 4.35074C99.5746 4.06448 100.008 3.92039 100.537 3.92039C101.073 3.92039 101.508 4.06448 101.843 4.35074C102.176 4.6375 102.343 5.00718 102.343 5.45877C102.343 5.9182 102.176 6.29386 101.843 6.58699C101.508 6.88043 101.073 7.02766 100.537 7.02766Z" fill="#231F20"></path><path d="M110.597 18.0128C110.122 18.2465 109.409 18.364 108.454 18.364C106.192 18.364 105.06 17.2667 105.06 15.0737V10.6258H103.375V8.41764H105.06V6.32163L108.261 5.46792V8.41764H110.597V10.6258H108.261V14.5521C108.261 15.5621 108.691 16.0689 109.551 16.0689C109.889 16.0689 110.238 15.9778 110.597 15.7935V18.0128" fill="#231F20"></path><path d="M117.075 10.3712C116.345 10.3712 115.778 10.6178 115.373 11.1112C114.969 11.6044 114.767 12.303 114.767 13.2057C114.767 15.0938 115.543 16.0389 117.094 16.0389C118.575 16.0389 119.314 15.069 119.314 13.1282C119.314 11.2902 118.567 10.3712 117.075 10.3712V10.3712ZM116.996 18.364C115.328 18.364 114.016 17.9044 113.061 16.985C112.106 16.0651 111.629 14.8184 111.629 13.2436C111.629 11.6167 112.124 10.3441 113.115 9.42564C114.106 8.50614 115.446 8.04714 117.134 8.04714C118.795 8.04714 120.099 8.50614 121.044 9.42564C121.989 10.3441 122.461 11.5584 122.461 13.0699C122.461 14.7045 121.976 15.9949 121 16.9418C120.026 17.8891 118.691 18.364 116.996 18.364" fill="#231F20"></path><path d="M130.715 11.0477C130.333 10.8412 129.888 10.7399 129.379 10.7399C128.691 10.7399 128.152 10.9896 127.764 11.4878C127.375 11.9851 127.181 12.6633 127.181 13.5223V18.364H124.009V8.22563H127.181V10.1058H127.221C127.722 8.7342 128.626 8.04714 129.932 8.04714C130.267 8.04714 130.527 8.08706 130.715 8.1666V11.0477" fill="#231F20"></path><path d="M131.231 17.8639V15.4058C131.742 15.7061 132.252 15.9298 132.761 16.0778C133.27 16.2247 133.751 16.2978 134.203 16.2978C134.755 16.2978 135.19 16.2247 135.508 16.0778C135.827 15.9298 135.985 15.7061 135.985 15.4058C135.985 15.2129 135.914 15.0523 135.769 14.9247C135.624 14.797 135.439 14.6852 135.213 14.5883C134.986 14.4914 134.738 14.4053 134.469 14.3296C134.201 14.2528 133.941 14.1657 133.691 14.0697C133.292 13.9218 132.938 13.7639 132.633 13.5948C132.328 13.4248 132.073 13.2274 131.865 13.0037C131.659 12.78 131.501 12.5195 131.393 12.2255C131.285 11.9309 131.231 11.5824 131.231 11.1783C131.231 10.6277 131.353 10.1547 131.6 9.75663C131.845 9.35837 132.174 9.03459 132.584 8.78166C132.994 8.52905 133.463 8.34286 133.992 8.22521C134.52 8.10526 135.07 8.04714 135.64 8.04714C136.087 8.04714 136.539 8.08042 137 8.1486C137.458 8.21516 137.911 8.3131 138.357 8.44062V10.7846C137.964 10.5606 137.542 10.3915 137.093 10.2805C136.643 10.1677 136.203 10.1114 135.769 10.1114C135.565 10.1114 135.374 10.1299 135.192 10.1651C135.012 10.1998 134.854 10.2516 134.716 10.3175C134.577 10.3856 134.469 10.4727 134.391 10.5781C134.312 10.684 134.272 10.8036 134.272 10.9384C134.272 11.1184 134.331 11.2708 134.45 11.3993C134.568 11.5278 134.721 11.6378 134.912 11.7312C135.103 11.8226 135.314 11.9075 135.548 11.9805C135.78 12.0545 136.012 12.1293 136.242 12.2059C136.655 12.3476 137.029 12.501 137.364 12.6673C137.698 12.8337 137.985 13.0294 138.226 13.2531C138.465 13.4768 138.649 13.7402 138.776 14.0414C138.905 14.3417 138.968 14.7002 138.968 15.1176C138.968 15.6998 138.839 16.1963 138.579 16.6103C138.32 17.0233 137.976 17.3601 137.546 17.6191C137.116 17.8787 136.621 18.0672 136.059 18.1854C135.498 18.3039 134.916 18.364 134.312 18.364C133.203 18.364 132.175 18.1958 131.231 17.8639" fill="#231F20"></path><path d="M62.7395 31.5637L60.7385 25.6287C60.6717 25.4354 60.607 25.1244 60.5424 24.6962H60.5064C60.4471 25.0917 60.3785 25.4024 60.3025 25.6287L58.3186 31.5637H62.7395ZM66.2343 36.9346H64.5801L63.2277 33.0301H57.8211L56.5483 36.9346H54.8857L59.7773 23.0068H61.3252L66.2343 36.9346" fill="#231F20"></path><path d="M76.0355 36.9346H74.5431V31.473C74.5431 29.4402 73.8199 28.4248 72.3765 28.4248C71.6299 28.4248 71.0123 28.7127 70.5229 29.2901C70.0354 29.866 69.7911 30.594 69.7911 31.473V36.9346H68.2979V27.3587H69.7911V28.9485H69.8271C70.5306 27.7389 71.5507 27.1335 72.8861 27.1335C73.9053 27.1335 74.6853 27.4729 75.2245 28.1486C75.7652 28.8252 76.0355 29.8029 76.0355 31.0804V36.9346" fill="#231F20"></path><path d="M86.3524 27.1335L82.0806 38.5284C81.3193 40.5618 80.2479 41.5771 78.8695 41.5771C78.4837 41.5771 78.1597 41.537 77.8998 41.4524V40.0427C78.2202 40.1579 78.5133 40.216 78.7794 40.216C79.5296 40.216 80.0915 39.7428 80.4656 38.7976L81.2099 36.9348L77.583 27.1335H79.2334L81.7454 34.6913C81.775 34.7871 81.8382 35.0362 81.9354 35.4391H81.9896C82.0192 35.2861 82.0806 35.0434 82.1716 34.7106L84.8104 27.1335H86.3524Z" fill="#231F20"></path><path d="M103.891 23.0068L100.076 36.9346H98.2201L95.4426 26.7554C95.3225 26.3222 95.2499 25.8484 95.2243 25.3372H95.187C95.1489 25.8166 95.0679 26.283 94.9427 26.7358L92.1452 36.9346H90.3088L86.3523 23.0068H88.0941L90.967 33.6912C91.0862 34.1382 91.1616 34.6046 91.1932 35.0893H91.2407C91.2715 34.7464 91.3687 34.2808 91.5326 33.6912L94.5191 23.0068H96.0347L98.8992 33.7693C98.9984 34.1382 99.0747 34.5719 99.1245 35.0697H99.1617C99.1874 34.7332 99.2721 34.2869 99.4164 33.7305L102.177 23.0068H103.891" fill="#231F20"></path><path d="M113.176 36.9346H111.683V31.313C111.683 29.2805 110.96 28.2653 109.517 28.2653C108.788 28.2653 108.175 28.5586 107.677 29.1469C107.18 29.7336 106.931 30.4878 106.931 31.4091V36.9346H105.438V22.4909H106.931V28.7989H106.967C107.683 27.5666 108.703 26.9498 110.026 26.9498C112.126 26.9498 113.176 28.2742 113.176 30.9225V36.9346" fill="#231F20"></path><path d="M121.941 31.3496C121.934 30.4379 121.723 29.7296 121.308 29.2231C120.891 28.7157 120.314 28.4623 119.574 28.4623C118.859 28.4623 118.252 28.7279 117.754 29.261C117.254 29.7936 116.945 30.4889 116.829 31.3496H121.941ZM123.493 32.6873H116.811C116.835 33.7838 117.118 34.63 117.661 35.2277C118.203 35.8232 118.948 36.1231 119.897 36.1231C120.964 36.1231 121.943 35.7571 122.837 35.0253V36.5081C122.005 37.1351 120.905 37.4504 119.538 37.4504C118.2 37.4504 117.149 37.0027 116.385 36.1081C115.622 35.2123 115.24 33.9532 115.24 32.3308C115.24 30.7979 115.656 29.5483 116.492 28.5824C117.327 27.6161 118.364 27.1336 119.602 27.1336C120.841 27.1336 121.798 27.5515 122.476 28.3846C123.154 29.2185 123.493 30.3777 123.493 31.8596V32.6873" fill="#231F20"></path><path d="M130.715 28.8642C130.465 28.6584 130.106 28.5537 129.636 28.5537C129.028 28.5537 128.519 28.8642 128.11 29.4855C127.702 30.1063 127.498 30.9533 127.498 32.0247V36.9346H126.072V27.3031H127.498V29.2877H127.533C127.735 28.6098 128.046 28.0812 128.463 27.7019C128.881 27.3231 129.346 27.1335 129.863 27.1335C130.234 27.1335 130.518 27.1773 130.715 27.2643V28.8642" fill="#231F20"></path><path d="M138.448 31.3496C138.441 30.4379 138.23 29.7296 137.814 29.2231C137.398 28.7157 136.821 28.4623 136.082 28.4623C135.366 28.4623 134.759 28.7279 134.261 29.261C133.762 29.7936 133.454 30.4889 133.336 31.3496H138.448ZM140 32.6873H133.318C133.342 33.7838 133.626 34.63 134.169 35.2277C134.711 35.8232 135.455 36.1231 136.405 36.1231C137.471 36.1231 138.45 35.7571 139.344 35.0253V36.5081C138.512 37.1351 137.412 37.4504 136.044 37.4504C134.707 37.4504 133.657 37.0027 132.893 36.1081C132.129 35.2123 131.747 33.9532 131.747 32.3308C131.747 30.7979 132.164 29.5483 132.999 28.5824C133.835 27.6161 134.871 27.1336 136.109 27.1336C137.348 27.1336 138.305 27.5515 138.984 28.3846C139.66 29.2185 140 30.3777 140 31.8596V32.6873" fill="#231F20"></path><path d="M32.8254 39.1931C31.8219 39.2993 30.977 38.7153 30.9526 37.8954C30.8708 35.1203 30.8281 33.7365 30.7406 30.9701C30.7152 30.1582 31.4554 29.4679 32.3826 29.4389C35.5318 29.3418 37.1026 29.292 40.2396 29.1909C41.1663 29.1613 42.0046 29.7368 42.1022 30.4709C42.4357 32.969 42.5984 34.219 42.9161 36.7191C43.0101 37.4575 42.2771 38.1545 41.2848 38.2679C37.9246 38.6502 36.2333 38.8327 32.8254 39.1931Z" fill="#64A8E0"></path><path d="M32.2665 27.0055C31.3586 27.0156 30.591 26.3584 30.5635 25.5472C30.4705 22.7878 30.4227 21.4101 30.3256 18.6519C30.2971 17.8405 30.9509 17.2311 31.7785 17.2986C34.5881 17.529 35.9983 17.6427 38.8313 17.8761C39.668 17.9448 40.4412 18.602 40.5475 19.3346C40.9094 21.8259 41.0858 23.073 41.4335 25.569C41.5352 26.3019 40.8749 26.9116 39.9659 26.9211C36.8874 26.9543 35.3486 26.9729 32.2665 27.0055" fill="#F36318"></path><path d="M31.6511 14.8698C30.8443 14.7824 30.1596 14.0427 30.1296 13.232C30.0269 10.4706 29.974 9.08952 29.8663 6.31739C29.8347 5.49748 30.398 4.9661 31.1203 5.13493C33.5726 5.7058 34.8115 5.99154 37.3151 6.57675C38.0552 6.74949 38.7573 7.4902 38.8722 8.22568C39.261 10.7111 39.4512 11.9539 39.8248 14.4428C39.9346 15.1748 39.3541 15.704 38.5361 15.6156C35.7677 15.3146 34.3906 15.1657 31.6511 14.8698" fill="#375AB1"></path><path d="M17.4081 40.7925C16.3781 40.8997 15.6014 40.2415 15.6863 39.3274C15.973 36.2327 16.1158 34.6868 16.4025 31.5969C16.4864 30.6881 17.3232 29.9168 18.2595 29.8858C21.4382 29.7828 23.0228 29.7333 26.1842 29.6327C27.117 29.6033 27.8831 30.2625 27.8887 31.0932C27.9065 33.9243 27.9151 35.3399 27.9299 38.1807C27.9339 39.0205 27.1089 39.7931 26.0912 39.8983C22.643 40.2546 20.9065 40.4311 17.4081 40.7925Z" fill="#6CD0F6"></path><path d="M18.4725 27.1615C17.5606 27.1722 16.8824 26.4377 16.9668 25.5303C17.2545 22.4416 17.3974 20.8967 17.6841 17.8039C17.7685 16.8945 18.5051 16.204 19.3215 16.2718C22.0935 16.5009 23.4849 16.6153 26.2762 16.8456C27.1002 16.9143 27.7799 17.6509 27.7875 18.4811C27.8129 21.3054 27.8246 22.7176 27.8475 25.542C27.8546 26.372 27.1165 27.0615 26.205 27.071C23.1168 27.1061 21.5704 27.124 18.4725 27.1615" fill="#E1229B"></path><path d="M19.532 13.5433C18.7395 13.4559 18.1615 12.636 18.2454 11.7265C18.5301 8.62956 18.6729 7.07966 18.9566 3.97319C19.0405 3.05359 19.6749 2.44098 20.3703 2.60782C22.7316 3.17351 23.9262 3.45351 26.3398 4.01788C27.052 4.18467 27.6448 5.00758 27.6544 5.84854C27.6875 8.69011 27.7032 10.1038 27.7332 12.9318C27.7419 13.7629 27.0932 14.3745 26.291 14.2859C23.5749 13.989 22.2222 13.8411 19.532 13.5433" fill="#8CD9EA"></path><path d="M1.5777 42.4883C0.517282 42.6079 -0.176615 41.8829 0.0394335 40.8703C0.772472 37.4429 1.13747 35.7253 1.87051 32.292C2.08605 31.2828 3.04073 30.4242 3.98931 30.3886C7.20563 30.2651 8.80692 30.2077 12.0014 30.0973C12.9413 30.0648 13.6205 30.8005 13.5117 31.7276C13.1416 34.884 12.9571 36.4618 12.587 39.6213C12.4777 40.5546 11.5378 41.4061 10.4962 41.5175C6.95501 41.8926 5.17223 42.0842 1.5777 42.4883" fill="#64A8E0"></path><path d="M4.59381 27.3594C3.67319 27.3741 3.09571 26.5578 3.31125 25.5482C4.04531 22.1097 4.41284 20.3895 5.14639 16.947C5.36193 15.9343 6.19969 15.1601 7.00898 15.2301C9.75203 15.4676 11.1281 15.585 13.8885 15.8173C14.7008 15.8854 15.2783 16.7049 15.169 17.6343C14.7984 20.7946 14.6123 22.374 14.2407 25.5304C14.1315 26.4577 13.2932 27.2293 12.3787 27.2411C9.27113 27.2838 7.71558 27.3076 4.59381 27.3594" fill="#6CD0F6"></path><path d="M7.61183 12.1933C6.8305 12.1017 6.36993 11.1945 6.58496 10.1818C7.31749 6.73511 7.68401 5.01191 8.41654 1.5587C8.6331 0.536816 9.35496 -0.148436 10.0245 0.0275032C12.2963 0.623237 13.4451 0.914113 15.7688 1.48799C16.4525 1.65681 16.9273 2.56009 16.818 3.49957C16.4495 6.67355 16.2644 8.25817 15.8954 11.4226C15.7866 12.353 15.0515 13.0438 14.2646 12.9558C11.5912 12.6548 10.2608 12.5029 7.61183 12.1933" fill="#9A2E9C"></path></svg>