<svg height="21" viewBox="0 0 62 21" width="62" xmlns="http://www.w3.org/2000/svg">
    <g fill="none" fill-rule="evenodd" transform="translate(.861 .637)">
        <path d="m39.8957143 19.88875h3.6844643v-14.70892857h-3.6844643z" fill="#1f201e"></path>
        <path
            d="m23.2057143 5.17982143h3.7767857l3.7021429 8.67964287 3.7353571-8.67964287h3.7441071l-6.3291071 14.70892857h-2.4630357z"
            fill="#1f201e"></path>
        <path
            d="m3.42982143 0h3.67053571l4.63107146 13.87375 4.6528571-13.87375h3.6614286l3.3335714 19.88875h-3.6519643l-2.12375-12.56178571-4.2107143 12.56178571h-3.3421428l-4.1919643-12.56178571-2.16553571 12.56178571h-3.69321429z"
            fill="#1f201e"></path>
        <path
            d="m39.8957143 4.64214286h3.6844643v-3.68482143h-3.6844643zm1.1694643-3.08321429 1.7096428 1.24089286-1.7096428 1.24107143z"
            fill="#2a6aa0"></path>
        <g fill="#1f201e">
            <path d="m49.0716071 10.6242857-3.9173214-5.44446427h3.9173214z"></path>
            <path d="m49.0716071 19.8903571h-3.9173214l3.9173214-5.4435714z"></path>
            <path d="m55.2578571 13.0182143 4.9448215 6.8721428h-4.4632143l-2.71875-3.7771428z"></path>
            <path d="m60.2026786 5.17982143-4.9448215 6.87303567-2.2371428-3.09571424 2.71875-3.77732143z"></path>
        </g>
        <path d="m49.6178571 5.17982143v14.71053567l5.3148215-7.3548214z" fill="#2a6aa0"></path>
    </g>
</svg>