<?xml version="1.0" encoding="UTF-8"?><svg xmlns="http://www.w3.org/2000/svg" viewBox="0 0 799.79 188.02"><g id="a"><path d="M58.72.97C26.29.97,0,27.26,0,59.69s26.29,58.72,58.72,58.72h58.72v-58.72C117.44,27.26,91.15.97,58.72.97ZM41.94,89.13v-53.16l46.04,26.58-46.04,26.58Z" style="fill:#004a87; stroke-width:0px;"/><polygon points="166.18 141.53 163.25 141.53 163.25 173.53 183.91 173.53 183.91 170.73 166.18 170.73 166.18 141.53" style="fill:#2b2e30; stroke-width:0px;"/><path d="M210.77,154.99c-1.87-2.81-5.1-4.47-8.84-4.47-6.58,0-11.55,5-11.55,11.64s4.96,11.73,11.55,11.73c3.63,0,6.74-1.59,8.84-4.51v4.15h2.71v-22.73h-2.71v4.2ZM201.93,171.23c-5.12,0-8.84-3.81-8.84-9.06s3.72-9.02,8.84-9.02c6.2,0,9.03,4.69,9.03,9.04,0,2.37-.8,4.58-2.26,6.22-1.64,1.84-3.98,2.82-6.77,2.82Z" style="fill:#2b2e30; stroke-width:0px;"/><path d="M249.59,150.48c-3.97,0-7.41,1.81-9.38,4.89v-4.58h-2.66v32.01h2.62v-13.7c1.93,3.08,5.13,4.83,8.93,4.83,6.91,0,11.55-4.73,11.55-11.77s-4.33-11.43-11.05-11.68ZM249.1,153.1c4.27,0,8.84,2.38,8.84,9.06s-4.57,9.15-8.84,9.15c-4.99,0-8.75-3.92-8.75-9.11s3.68-9.11,8.75-9.11Z" style="fill:#2b2e30; stroke-width:0px;"/><path d="M278.93,150.44c-6.58,0-11.55,5.04-11.55,11.73s4.75,11.68,11.55,11.68c3.98,0,7.73-1.68,9.79-4.37l.15-.2-1.97-1.57-.16.21c-1.71,2.26-5.15,3.27-7.81,3.27-4.75,0-8.25-3.1-8.77-7.73h19.98l.02-.23c.38-3.86-.5-7.09-2.54-9.34-2.01-2.22-5.1-3.45-8.69-3.45ZM287.68,161.01h-17.51c.56-4.83,4.05-8.05,8.77-8.05,5.35,0,8.6,3,8.74,8.05Z" style="fill:#2b2e30; stroke-width:0px;"/><path d="M308.28,150.57c-3.13,0-5.73,1.29-7.15,3.5l-.07-3.27h-2.57v22.73h2.71v-13.21c0-3.98,3.11-7.13,7.08-7.17,1.35,0,2.57.34,3.65,1l.22.14,1.23-2.24-.21-.13c-1.54-.94-3.2-1.38-4.9-1.34Z" style="fill:#2b2e30; stroke-width:0px;"/><path d="M328.44,141.39c-4.52,0-6.91,2.72-6.91,7.86v1.73h-4.54v2.44h4.54v20.12h2.66v-20.12h7.34v-2.44h-7.34v-1.73c0-3.59,1.36-5.33,4.16-5.33,1.24,0,2.02.34,3.29,1.09l.21.12,1.34-2.02-.19-.14c-1.4-1.05-2.93-1.58-4.56-1.58Z" style="fill:#2b2e30; stroke-width:0px;"/><path d="M347.97,150.39c-6.69,0-11.55,4.97-11.55,11.82s4.75,11.64,11.55,11.64,11.55-4.79,11.55-11.64-4.86-11.82-11.55-11.82ZM347.97,171.18c-5.23,0-8.88-3.69-8.88-8.97s3.74-9.24,8.88-9.24,8.88,3.89,8.88,9.24-3.65,8.97-8.88,8.97Z" style="fill:#2b2e30; stroke-width:0px;"/><path d="M377,150.57c-3.13,0-5.73,1.29-7.15,3.5l-.07-3.27h-2.57v22.73h2.71v-13.21c0-3.98,3.11-7.13,7.08-7.17,1.35,0,2.57.34,3.65,1l.22.14,1.23-2.24-.21-.13c-1.54-.94-3.2-1.38-4.9-1.34Z" style="fill:#2b2e30; stroke-width:0px;"/><path d="M414.04,150.35c-3.64,0-6.8,1.96-8.22,5.05-1.32-3.18-4.35-5.05-8.25-5.05-2.99,0-5.5,1.26-7,3.5l-.04-3.05h-2.57v22.73h2.71v-13.44c0-4.2,2.82-7.13,6.86-7.13s6.9,2.93,6.9,7.13v13.44h2.71v-13.44c0-4.22,2.84-7.17,6.9-7.17s6.86,2.89,6.86,7.04v13.57h2.71v-13.57c0-5.66-3.93-9.61-9.57-9.61Z" style="fill:#2b2e30; stroke-width:0px;"/><path d="M451.59,154.99c-1.87-2.81-5.1-4.47-8.84-4.47-6.58,0-11.55,5-11.55,11.64s4.96,11.73,11.55,11.73c3.63,0,6.74-1.59,8.84-4.51v4.15h2.71v-22.73h-2.71v4.2ZM442.75,171.23c-5.12,0-8.84-3.81-8.84-9.06s3.72-9.02,8.84-9.02c6.2,0,9.03,4.69,9.03,9.04,0,2.37-.8,4.58-2.26,6.22-1.64,1.84-3.98,2.82-6.77,2.82Z" style="fill:#2b2e30; stroke-width:0px;"/><path d="M473.22,150.39c-3.27.05-6.01,1.4-7.67,3.74v-3.34h-2.66v22.73h2.71v-12.63c0-4.51,3.17-7.81,7.54-7.85,2.4-.02,4.37.66,5.7,1.97,1.31,1.3,1.97,3.14,1.97,5.47v13.03h2.71v-13.08c0-6.11-4.04-10.06-10.29-10.06Z" style="fill:#2b2e30; stroke-width:0px;"/><path d="M502.25,153.14c2.48,0,4.84.94,6.48,2.58l.18.18,1.8-1.75-.18-.18c-2.24-2.19-5.18-3.4-8.28-3.4-6.88,0-11.68,4.77-11.68,11.59s4.91,11.59,11.68,11.59c3.14,0,6.08-1.21,8.28-3.4l.18-.18-1.84-1.84-.18.18c-1.7,1.7-4.04,2.67-6.44,2.67-4.49,0-9.02-2.79-9.02-9.02s4.53-9.02,9.02-9.02Z" style="fill:#2b2e30; stroke-width:0px;"/><path d="M528.89,150.44c-6.58,0-11.55,5.04-11.55,11.73s4.75,11.68,11.55,11.68c3.98,0,7.73-1.68,9.79-4.37l.15-.2-1.97-1.57-.16.21c-1.71,2.26-5.15,3.27-7.81,3.27-4.75,0-8.25-3.1-8.77-7.73h19.98l.02-.23c.38-3.86-.5-7.09-2.54-9.34-2.01-2.22-5.1-3.45-8.69-3.45ZM537.63,161.01h-17.51c.56-4.83,4.05-8.05,8.77-8.05,5.35,0,8.6,3,8.74,8.05Z" style="fill:#2b2e30; stroke-width:0px;"/><path d="M583.09,154.95c-1.82-2.88-5.04-4.51-8.97-4.51-6.83,0-11.41,4.71-11.41,11.73s4.57,11.73,11.37,11.73c3.71,0,7.09-1.75,9.02-4.62v4.26h2.66v-32.01h-2.66v13.42ZM574.21,171.23c-5.37,0-8.84-3.56-8.84-9.06s3.47-9.11,8.84-9.11,8.84,3.81,8.84,9.06-3.72,9.11-8.84,9.11Z" style="fill:#2b2e30; stroke-width:0px;"/><path d="M605.49,150.44c-6.58,0-11.55,5.04-11.55,11.73s4.75,11.68,11.55,11.68c3.98,0,7.73-1.68,9.79-4.37l.15-.2-1.97-1.57-.16.21c-1.71,2.26-5.15,3.27-7.81,3.27-4.75,0-8.25-3.1-8.77-7.73h19.98l.02-.23c.38-3.86-.5-7.09-2.54-9.34-2.01-2.22-5.1-3.45-8.69-3.45ZM614.23,161.01h-17.51c.56-4.83,4.05-8.05,8.77-8.05,5.35,0,8.6,3,8.74,8.05Z" style="fill:#2b2e30; stroke-width:0px;"/><rect x="640.52" y="141.53" width="2.71" height="32.01" style="fill:#2b2e30; stroke-width:0px;"/><polygon points="651.29 150.44 653.78 150.44 656.88 141.48 653.77 141.48 651.29 150.44" style="fill:#2b2e30; stroke-width:0px;"/><path d="M665.5,141.8c-1.01,0-2.03.69-2.03,2.01s1.02,2.01,2.03,2.01,2.03-.69,2.03-2.01-1.02-2.01-2.03-2.01Z" style="fill:#2b2e30; stroke-width:0px;"/><rect x="664.1" y="150.71" width="2.71" height="22.82" style="fill:#2b2e30; stroke-width:0px;"/><path d="M701.8,150.35c-3.64,0-6.8,1.96-8.22,5.05-1.32-3.18-4.35-5.05-8.25-5.05-2.99,0-5.5,1.26-7,3.5l-.04-3.05h-2.57v22.73h2.71v-13.44c0-4.2,2.82-7.13,6.86-7.13s6.9,2.93,6.9,7.13v13.44h2.71v-13.44c0-4.22,2.84-7.17,6.9-7.17s6.86,2.89,6.86,7.04v13.57h2.71v-13.57c0-5.66-3.93-9.61-9.57-9.61Z" style="fill:#2b2e30; stroke-width:0px;"/><path d="M739.35,154.99c-1.87-2.81-5.1-4.47-8.84-4.47-6.58,0-11.55,5-11.55,11.64s4.96,11.73,11.55,11.73c3.63,0,6.74-1.59,8.84-4.51v4.15h2.71v-22.73h-2.71v4.2ZM730.51,171.23c-5.12,0-8.84-3.81-8.84-9.06s3.72-9.02,8.84-9.02c6.2,0,9.03,4.69,9.03,9.04,0,2.37-.8,4.58-2.26,6.22-1.64,1.84-3.98,2.82-6.77,2.82Z" style="fill:#2b2e30; stroke-width:0px;"/><path d="M765.44,170.91c3.38-1.78,5.6-5.49,5.6-9.42,0-3.11-.85-5.52-2.66-7.56l2.18-2.54-1.82-1.59-2.18,2.54c-1.8-1.22-4.12-1.94-6.26-1.94-6.4,0-10.69,4.46-10.69,11.1s4.5,11.01,10.69,11.01c3.77,0,8.16,1.68,8.16,6.41,0,5.99-6.25,6.45-8.16,6.45-3.72,0-8.07-1.69-8.07-6.45v-.25h-2.71v.25c0,5.45,4.33,9.12,10.78,9.12s10.83-3.49,10.83-9.12c0-3.73-1.97-6.49-5.69-7.99ZM768.38,161.49c0,4.5-3.7,8.3-8.07,8.3-5.24,0-7.98-4.17-7.98-8.3,0-6.19,4.12-8.39,7.98-8.39,4.9,0,8.07,3.29,8.07,8.39Z" style="fill:#2b2e30; stroke-width:0px;"/><path d="M797.17,153.88c-2.01-2.22-5.1-3.45-8.69-3.45-6.58,0-11.55,5.04-11.55,11.73s4.75,11.68,11.55,11.68c3.98,0,7.73-1.68,9.79-4.37l.15-.2-1.97-1.57-.16.21c-1.71,2.26-5.15,3.27-7.81,3.27-4.75,0-8.25-3.1-8.77-7.73h19.98l.02-.23c.38-3.86-.5-7.09-2.54-9.34ZM797.22,161.01h-17.51c.56-4.83,4.05-8.05,8.77-8.05,5.35,0,8.6,3,8.74,8.05Z" style="fill:#2b2e30; stroke-width:0px;"/><path d="M194.55,81.02c-12.03-2.95-20.08-6.48-24.17-10.56-4.54-4.08-6.8-9.52-6.8-16.33,0-8.63,3.29-15.77,9.86-21.45,6.81-5.22,15.65-7.83,26.55-7.83,11.8,0,21.21,2.61,28.26,7.83,6.57,5.68,10.1,13.06,10.55,22.13h-14.63c-4.32,0-7.61-1.95-9.88-5.79-.79-1.34-2.73-2.71-2.73-2.71-2.73-2.04-6.45-3.07-11.23-3.07s-7.94.68-10.22,2.04c-2.04,1.36-3.05,3.4-3.05,6.13,0,3.64,5.89,6.7,17.7,9.19l6.46,1.36c11.58,2.94,19.63,6.35,24.16,10.2,4.3,4.09,6.48,9.54,6.48,16.33,0,10-3.64,17.71-10.9,23.15-6.79,5-17.02,7.49-30.63,7.49s-22.59-2.61-28.94-7.83c-6.58-5.22-9.86-12.81-9.86-22.81v-1.01h23.15c.21,4.54,1.92,7.94,5.09,10.21,3.4,2.27,7.94,3.41,13.62,3.41,4.09,0,7.6-.8,10.55-2.38,2.73-1.59,4.09-3.76,4.09-6.48,0-4.08-4.77-7.15-14.29-9.18l-9.2-2.04Z" style="fill:#2b2e30; stroke-width:0px;"/><path d="M298.95,118.41h-24.17l-31.65-90.55h25.17l18.06,63.66,15.99-55.48c1.82-5.45,5.46-8.18,10.88-8.18h17.7l-31.99,90.55Z" style="fill:#2b2e30; stroke-width:0px;"/><path d="M394.96,0h11.56c3.18,0,5.9,1.19,8.18,3.58,2.26,2.39,3.39,5.05,3.39,8v66.38c0,16.12-4.64,27-13.95,32.67-9.3,5.68-19.4,8.51-30.28,8.51-5.92,0-11.69-.97-17.38-2.89-5.66-1.93-10.2-5.05-13.6-9.36-6.58-8.39-9.89-19.86-9.89-34.38s3.3-25.75,9.89-34.37c6.81-8.86,15.55-13.28,26.21-13.28,5.67,0,10.65,1.14,14.98,3.4,4.53,2.72,8.17,6.25,10.9,10.56V0ZM356.13,71.48c0,9.09,1.7,16.01,5.11,20.77,3.41,4.77,8.29,7.16,14.63,7.16s10.9-2.39,14.31-7.16c3.17-4.76,4.77-11.68,4.77-20.77,0-8.16-1.71-14.63-5.12-19.4-3.64-4.54-8.52-6.8-14.65-6.8s-10.55,2.38-13.95,7.15c-3.4,4.55-5.11,10.89-5.11,19.06Z" style="fill:#2b2e30; stroke-width:0px;"/><path d="M474.24,79.51l-2.19-.37c-8.63-1.52-15.78-3.23-15.95-8.77-.06-1.8.54-3.32,1.83-4.63,2.67-2.72,8-4.3,14.32-4.21,6.74,0,12.04.98,17.6,5.88l1.77,1.56,7.02-7.48-1.77-1.66c-6.28-5.9-14.56-8.89-24.59-8.89-.16,0-.31,0-.46,0-9.04,0-16.85,2.65-21.5,7.29-3.28,3.28-4.99,7.56-4.94,12.37.15,14.66,14.47,17.04,25.99,18.96,11.01,1.77,18.21,3.4,18.03,9.73-.33,8.47-11.84,9.38-16.77,9.38-8.78,0-16.47-3.53-20.57-9.43l-1.56-2.25-8.11,7.2,1.14,1.75c5.49,8.42,16.32,13.45,28.98,13.45s27.35-5.14,27.75-19.54c.69-15.86-15.38-18.56-26.01-20.34Z" style="fill:#2b2e30; stroke-width:0px;"/><path d="M546.02,106.53c-3.03,1.45-6.02,2.25-8.43,2.25-6.75,0-8.92-2.86-8.92-11.78v-35.11h20.95v-9.98h-20.95v-25.83l-10.85.1v25.73h-13.09v9.98h13.09v35.11c0,7.06,1.4,12.28,4.27,15.95,3.28,4.19,8.49,6.31,15.49,6.31,3.84,0,7.98-1.1,12.66-3.36l2.09-1.01-4.02-9.46-2.3,1.1Z" style="fill:#2b2e30; stroke-width:0px;"/><path d="M609.12,88.52c0,11.67-7.88,19.9-19.16,20.02-6.16.07-11.21-1.66-14.55-4.97-3.28-3.25-4.95-7.94-4.95-13.93v-37.85h-10.98v37.98c0,17.99,11.87,29.62,30.28,29.62,7.79-.11,14.58-2.76,19.48-7.44v6.45h10.85V51.79h-10.98v36.73Z" style="fill:#2b2e30; stroke-width:0px;"/><path d="M685.19,60.1c-5.56-5.91-13.64-9.18-23.13-9.18-19.95,0-33.36,13.76-33.36,34.23s13.36,34.23,33.24,34.23c9.05,0,17.43-3.57,23.26-9.64v8.64h10.85V26.22h-10.85v33.87ZM662.31,108.53c-11,0-22.76-6.14-22.76-23.38s11.76-23.51,22.76-23.51c13.19,0,22.76,9.83,22.76,23.38s-9.36,23.51-22.76,23.51Z" style="fill:#2b2e30; stroke-width:0px;"/><path d="M715.12,26.97c-3.66,0-7.36,2.51-7.36,7.3,0,2.19.84,4.14,2.37,5.48,1.34,1.17,3.11,1.82,4.99,1.82,3.66,0,7.36-2.51,7.36-7.3s-3.7-7.3-7.36-7.3Z" style="fill:#2b2e30; stroke-width:0px;"/><rect x="709.5" y="51.66" width="10.98" height="66.72" style="fill:#2b2e30; stroke-width:0px;"/><path d="M766.06,50.79c-19.55,0-33.74,14.5-33.74,34.48s13.87,33.98,33.74,33.98,33.74-13.98,33.74-33.98-14.19-34.48-33.74-34.48ZM788.94,85.28c0,13.62-9.41,23.13-22.88,23.13s-22.88-9.51-22.88-23.13,9.62-23.88,22.88-23.88,22.88,10.04,22.88,23.88Z" style="fill:#2b2e30; stroke-width:0px;"/></g><g id="b"><path d="M58.72.97C26.29.97,0,27.26,0,59.69s26.29,58.72,58.72,58.72h58.72v-58.72C117.44,27.26,91.15.97,58.72.97ZM41.94,89.13v-53.16l46.04,26.58-46.04,26.58Z" style="fill:#004a87; stroke-width:0px;"/><polygon points="166.18 141.53 163.25 141.53 163.25 173.53 183.91 173.53 183.91 170.73 166.18 170.73 166.18 141.53" style="fill:#fcfcfc; stroke-width:0px;"/><path d="M210.77,154.99c-1.87-2.81-5.1-4.47-8.84-4.47-6.58,0-11.55,5-11.55,11.64s4.96,11.73,11.55,11.73c3.63,0,6.74-1.59,8.84-4.51v4.15h2.71v-22.73h-2.71v4.2ZM201.93,171.23c-5.12,0-8.84-3.81-8.84-9.06s3.72-9.02,8.84-9.02c6.2,0,9.03,4.69,9.03,9.04,0,2.37-.8,4.58-2.26,6.22-1.64,1.84-3.98,2.82-6.77,2.82Z" style="fill:#fcfcfc; stroke-width:0px;"/><path d="M249.59,150.48c-3.97,0-7.41,1.81-9.38,4.89v-4.58h-2.66v32.01h2.62v-13.7c1.93,3.08,5.13,4.83,8.93,4.83,6.91,0,11.55-4.73,11.55-11.77s-4.33-11.43-11.05-11.68ZM249.1,153.1c4.27,0,8.84,2.38,8.84,9.06s-4.57,9.15-8.84,9.15c-4.99,0-8.75-3.92-8.75-9.11s3.68-9.11,8.75-9.11Z" style="fill:#fcfcfc; stroke-width:0px;"/><path d="M278.93,150.44c-6.58,0-11.55,5.04-11.55,11.73s4.75,11.68,11.55,11.68c3.98,0,7.73-1.68,9.79-4.37l.15-.2-1.97-1.57-.16.21c-1.71,2.26-5.15,3.27-7.81,3.27-4.75,0-8.25-3.1-8.77-7.73h19.98l.02-.23c.38-3.86-.5-7.09-2.54-9.34-2.01-2.22-5.1-3.45-8.69-3.45ZM287.68,161.01h-17.51c.56-4.83,4.05-8.05,8.77-8.05,5.35,0,8.6,3,8.74,8.05Z" style="fill:#fcfcfc; stroke-width:0px;"/><path d="M308.28,150.57c-3.13,0-5.73,1.29-7.15,3.5l-.07-3.27h-2.57v22.73h2.71v-13.21c0-3.98,3.11-7.13,7.08-7.17,1.35,0,2.57.34,3.65,1l.22.14,1.23-2.24-.21-.13c-1.54-.94-3.2-1.38-4.9-1.34Z" style="fill:#fcfcfc; stroke-width:0px;"/><path d="M328.44,141.39c-4.52,0-6.91,2.72-6.91,7.86v1.73h-4.54v2.44h4.54v20.12h2.66v-20.12h7.34v-2.44h-7.34v-1.73c0-3.59,1.36-5.33,4.16-5.33,1.24,0,2.02.34,3.29,1.09l.21.12,1.34-2.02-.19-.14c-1.4-1.05-2.93-1.58-4.56-1.58Z" style="fill:#fcfcfc; stroke-width:0px;"/><path d="M347.97,150.39c-6.69,0-11.55,4.97-11.55,11.82s4.75,11.64,11.55,11.64,11.55-4.79,11.55-11.64-4.86-11.82-11.55-11.82ZM347.97,171.18c-5.23,0-8.88-3.69-8.88-8.97s3.74-9.24,8.88-9.24,8.88,3.89,8.88,9.24-3.65,8.97-8.88,8.97Z" style="fill:#fcfcfc; stroke-width:0px;"/><path d="M377,150.57c-3.13,0-5.73,1.29-7.15,3.5l-.07-3.27h-2.57v22.73h2.71v-13.21c0-3.98,3.11-7.13,7.08-7.17,1.35,0,2.57.34,3.65,1l.22.14,1.23-2.24-.21-.13c-1.54-.94-3.2-1.38-4.9-1.34Z" style="fill:#fcfcfc; stroke-width:0px;"/><path d="M414.04,150.35c-3.64,0-6.8,1.96-8.22,5.05-1.32-3.18-4.35-5.05-8.25-5.05-2.99,0-5.5,1.26-7,3.5l-.04-3.05h-2.57v22.73h2.71v-13.44c0-4.2,2.82-7.13,6.86-7.13s6.9,2.93,6.9,7.13v13.44h2.71v-13.44c0-4.22,2.84-7.17,6.9-7.17s6.86,2.89,6.86,7.04v13.57h2.71v-13.57c0-5.66-3.93-9.61-9.57-9.61Z" style="fill:#fcfcfc; stroke-width:0px;"/><path d="M451.59,154.99c-1.87-2.81-5.1-4.47-8.84-4.47-6.58,0-11.55,5-11.55,11.64s4.96,11.73,11.55,11.73c3.63,0,6.74-1.59,8.84-4.51v4.15h2.71v-22.73h-2.71v4.2ZM442.75,171.23c-5.12,0-8.84-3.81-8.84-9.06s3.72-9.02,8.84-9.02c6.2,0,9.03,4.69,9.03,9.04,0,2.37-.8,4.58-2.26,6.22-1.64,1.84-3.98,2.82-6.77,2.82Z" style="fill:#fcfcfc; stroke-width:0px;"/><path d="M473.22,150.39c-3.27.05-6.01,1.4-7.67,3.74v-3.34h-2.66v22.73h2.71v-12.63c0-4.51,3.17-7.81,7.54-7.85,2.4-.02,4.37.66,5.7,1.97,1.31,1.3,1.97,3.14,1.97,5.47v13.03h2.71v-13.08c0-6.11-4.04-10.06-10.29-10.06Z" style="fill:#fcfcfc; stroke-width:0px;"/><path d="M502.25,153.14c2.48,0,4.84.94,6.48,2.58l.18.18,1.8-1.75-.18-.18c-2.24-2.19-5.18-3.4-8.28-3.4-6.88,0-11.68,4.77-11.68,11.59s4.91,11.59,11.68,11.59c3.14,0,6.08-1.21,8.28-3.4l.18-.18-1.84-1.84-.18.18c-1.7,1.7-4.04,2.67-6.44,2.67-4.49,0-9.02-2.79-9.02-9.02s4.53-9.02,9.02-9.02Z" style="fill:#fcfcfc; stroke-width:0px;"/><path d="M528.89,150.44c-6.58,0-11.55,5.04-11.55,11.73s4.75,11.68,11.55,11.68c3.98,0,7.73-1.68,9.79-4.37l.15-.2-1.97-1.57-.16.21c-1.71,2.26-5.15,3.27-7.81,3.27-4.75,0-8.25-3.1-8.77-7.73h19.98l.02-.23c.38-3.86-.5-7.09-2.54-9.34-2.01-2.22-5.1-3.45-8.69-3.45ZM537.63,161.01h-17.51c.56-4.83,4.05-8.05,8.77-8.05,5.35,0,8.6,3,8.74,8.05Z" style="fill:#fcfcfc; stroke-width:0px;"/><path d="M583.09,154.95c-1.82-2.88-5.04-4.51-8.97-4.51-6.83,0-11.41,4.71-11.41,11.73s4.57,11.73,11.37,11.73c3.71,0,7.09-1.75,9.02-4.62v4.26h2.66v-32.01h-2.66v13.42ZM574.21,171.23c-5.37,0-8.84-3.56-8.84-9.06s3.47-9.11,8.84-9.11,8.84,3.81,8.84,9.06-3.72,9.11-8.84,9.11Z" style="fill:#fcfcfc; stroke-width:0px;"/><path d="M605.49,150.44c-6.58,0-11.55,5.04-11.55,11.73s4.75,11.68,11.55,11.68c3.98,0,7.73-1.68,9.79-4.37l.15-.2-1.97-1.57-.16.21c-1.71,2.26-5.15,3.27-7.81,3.27-4.75,0-8.25-3.1-8.77-7.73h19.98l.02-.23c.38-3.86-.5-7.09-2.54-9.34-2.01-2.22-5.1-3.45-8.69-3.45ZM614.23,161.01h-17.51c.56-4.83,4.05-8.05,8.77-8.05,5.35,0,8.6,3,8.74,8.05Z" style="fill:#fcfcfc; stroke-width:0px;"/><rect x="640.52" y="141.53" width="2.71" height="32.01" style="fill:#fcfcfc; stroke-width:0px;"/><polygon points="651.29 150.44 653.78 150.44 656.88 141.48 653.77 141.48 651.29 150.44" style="fill:#fcfcfc; stroke-width:0px;"/><path d="M665.5,141.8c-1.01,0-2.03.69-2.03,2.01s1.02,2.01,2.03,2.01,2.03-.69,2.03-2.01-1.02-2.01-2.03-2.01Z" style="fill:#fcfcfc; stroke-width:0px;"/><rect x="664.1" y="150.71" width="2.71" height="22.82" style="fill:#fcfcfc; stroke-width:0px;"/><path d="M701.8,150.35c-3.64,0-6.8,1.96-8.22,5.05-1.32-3.18-4.35-5.05-8.25-5.05-2.99,0-5.5,1.26-7,3.5l-.04-3.05h-2.57v22.73h2.71v-13.44c0-4.2,2.82-7.13,6.86-7.13s6.9,2.93,6.9,7.13v13.44h2.71v-13.44c0-4.22,2.84-7.17,6.9-7.17s6.86,2.89,6.86,7.04v13.57h2.71v-13.57c0-5.66-3.93-9.61-9.57-9.61Z" style="fill:#fcfcfc; stroke-width:0px;"/><path d="M739.35,154.99c-1.87-2.81-5.1-4.47-8.84-4.47-6.58,0-11.55,5-11.55,11.64s4.96,11.73,11.55,11.73c3.63,0,6.74-1.59,8.84-4.51v4.15h2.71v-22.73h-2.71v4.2ZM730.51,171.23c-5.12,0-8.84-3.81-8.84-9.06s3.72-9.02,8.84-9.02c6.2,0,9.03,4.69,9.03,9.04,0,2.37-.8,4.58-2.26,6.22-1.64,1.84-3.98,2.82-6.77,2.82Z" style="fill:#fcfcfc; stroke-width:0px;"/><path d="M765.44,170.91c3.38-1.78,5.6-5.49,5.6-9.42,0-3.11-.85-5.52-2.66-7.56l2.18-2.54-1.82-1.59-2.18,2.54c-1.8-1.22-4.12-1.94-6.26-1.94-6.4,0-10.69,4.46-10.69,11.1s4.5,11.01,10.69,11.01c3.77,0,8.16,1.68,8.16,6.41,0,5.99-6.25,6.45-8.16,6.45-3.72,0-8.07-1.69-8.07-6.45v-.25h-2.71v.25c0,5.45,4.33,9.12,10.78,9.12s10.83-3.49,10.83-9.12c0-3.73-1.97-6.49-5.69-7.99ZM768.38,161.49c0,4.5-3.7,8.3-8.07,8.3-5.24,0-7.98-4.17-7.98-8.3,0-6.19,4.12-8.39,7.98-8.39,4.9,0,8.07,3.29,8.07,8.39Z" style="fill:#fcfcfc; stroke-width:0px;"/><path d="M797.17,153.88c-2.01-2.22-5.1-3.45-8.69-3.45-6.58,0-11.55,5.04-11.55,11.73s4.75,11.68,11.55,11.68c3.98,0,7.73-1.68,9.79-4.37l.15-.2-1.97-1.57-.16.21c-1.71,2.26-5.15,3.27-7.81,3.27-4.75,0-8.25-3.1-8.77-7.73h19.98l.02-.23c.38-3.86-.5-7.09-2.54-9.34ZM797.22,161.01h-17.51c.56-4.83,4.05-8.05,8.77-8.05,5.35,0,8.6,3,8.74,8.05Z" style="fill:#fcfcfc; stroke-width:0px;"/><path d="M194.55,81.02c-12.03-2.95-20.08-6.48-24.17-10.56-4.54-4.08-6.8-9.52-6.8-16.33,0-8.63,3.29-15.77,9.86-21.45,6.81-5.22,15.65-7.83,26.55-7.83,11.8,0,21.21,2.61,28.26,7.83,6.57,5.68,10.1,13.06,10.55,22.13h-14.63c-4.32,0-7.61-1.95-9.88-5.79-.79-1.34-2.73-2.71-2.73-2.71-2.73-2.04-6.45-3.07-11.23-3.07s-7.94.68-10.22,2.04c-2.04,1.36-3.05,3.4-3.05,6.13,0,3.64,5.89,6.7,17.7,9.19l6.46,1.36c11.58,2.94,19.63,6.35,24.16,10.2,4.3,4.09,6.48,9.54,6.48,16.33,0,10-3.64,17.71-10.9,23.15-6.79,5-17.02,7.49-30.63,7.49s-22.59-2.61-28.94-7.83c-6.58-5.22-9.86-12.81-9.86-22.81v-1.01h23.15c.21,4.54,1.92,7.94,5.09,10.21,3.4,2.27,7.94,3.41,13.62,3.41,4.09,0,7.6-.8,10.55-2.38,2.73-1.59,4.09-3.76,4.09-6.48,0-4.08-4.77-7.15-14.29-9.18l-9.2-2.04Z" style="fill:#fcfcfc; stroke-width:0px;"/><path d="M298.95,118.41h-24.17l-31.65-90.55h25.17l18.06,63.66,15.99-55.48c1.82-5.45,5.46-8.18,10.88-8.18h17.7l-31.99,90.55Z" style="fill:#fcfcfc; stroke-width:0px;"/><path d="M394.96,0h11.56c3.18,0,5.9,1.19,8.18,3.58,2.26,2.39,3.39,5.05,3.39,8v66.38c0,16.12-4.64,27-13.95,32.67-9.3,5.68-19.4,8.51-30.28,8.51-5.92,0-11.69-.97-17.38-2.89-5.66-1.93-10.2-5.05-13.6-9.36-6.58-8.39-9.89-19.86-9.89-34.38s3.3-25.75,9.89-34.37c6.81-8.86,15.55-13.28,26.21-13.28,5.67,0,10.65,1.14,14.98,3.4,4.53,2.72,8.17,6.25,10.9,10.56V0ZM356.13,71.48c0,9.09,1.7,16.01,5.11,20.77,3.41,4.77,8.29,7.16,14.63,7.16s10.9-2.39,14.31-7.16c3.17-4.76,4.77-11.68,4.77-20.77,0-8.16-1.71-14.63-5.12-19.4-3.64-4.54-8.52-6.8-14.65-6.8s-10.55,2.38-13.95,7.15c-3.4,4.55-5.11,10.89-5.11,19.06Z" style="fill:#fcfcfc; stroke-width:0px;"/><path d="M474.24,79.51l-2.19-.37c-8.63-1.52-15.78-3.23-15.95-8.77-.06-1.8.54-3.32,1.83-4.63,2.67-2.72,8-4.3,14.32-4.21,6.74,0,12.04.98,17.6,5.88l1.77,1.56,7.02-7.48-1.77-1.66c-6.28-5.9-14.56-8.89-24.59-8.89-.16,0-.31,0-.46,0-9.04,0-16.85,2.65-21.5,7.29-3.28,3.28-4.99,7.56-4.94,12.37.15,14.66,14.47,17.04,25.99,18.96,11.01,1.77,18.21,3.4,18.03,9.73-.33,8.47-11.84,9.38-16.77,9.38-8.78,0-16.47-3.53-20.57-9.43l-1.56-2.25-8.11,7.2,1.14,1.75c5.49,8.42,16.32,13.45,28.98,13.45s27.35-5.14,27.75-19.54c.69-15.86-15.38-18.56-26.01-20.34Z" style="fill:#fcfcfc; stroke-width:0px;"/><path d="M546.02,106.53c-3.03,1.45-6.02,2.25-8.43,2.25-6.75,0-8.92-2.86-8.92-11.78v-35.11h20.95v-9.98h-20.95v-25.83l-10.85.1v25.73h-13.09v9.98h13.09v35.11c0,7.06,1.4,12.28,4.27,15.95,3.28,4.19,8.49,6.31,15.49,6.31,3.84,0,7.98-1.1,12.66-3.36l2.09-1.01-4.02-9.46-2.3,1.1Z" style="fill:#fcfcfc; stroke-width:0px;"/><path d="M609.12,88.52c0,11.67-7.88,19.9-19.16,20.02-6.16.07-11.21-1.66-14.55-4.97-3.28-3.25-4.95-7.94-4.95-13.93v-37.85h-10.98v37.98c0,17.99,11.87,29.62,30.28,29.62,7.79-.11,14.58-2.76,19.48-7.44v6.45h10.85V51.79h-10.98v36.73Z" style="fill:#fcfcfc; stroke-width:0px;"/><path d="M685.19,60.1c-5.56-5.91-13.64-9.18-23.13-9.18-19.95,0-33.36,13.76-33.36,34.23s13.36,34.23,33.24,34.23c9.05,0,17.43-3.57,23.26-9.64v8.64h10.85V26.22h-10.85v33.87ZM662.31,108.53c-11,0-22.76-6.14-22.76-23.38s11.76-23.51,22.76-23.51c13.19,0,22.76,9.83,22.76,23.38s-9.36,23.51-22.76,23.51Z" style="fill:#fcfcfc; stroke-width:0px;"/><path d="M715.12,26.97c-3.66,0-7.36,2.51-7.36,7.3,0,2.19.84,4.14,2.37,5.48,1.34,1.17,3.11,1.82,4.99,1.82,3.66,0,7.36-2.51,7.36-7.3s-3.7-7.3-7.36-7.3Z" style="fill:#fcfcfc; stroke-width:0px;"/><rect x="709.5" y="51.66" width="10.98" height="66.72" style="fill:#fcfcfc; stroke-width:0px;"/><path d="M766.06,50.79c-19.55,0-33.74,14.5-33.74,34.48s13.87,33.98,33.74,33.98,33.74-13.98,33.74-33.98-14.19-34.48-33.74-34.48ZM788.94,85.28c0,13.62-9.41,23.13-22.88,23.13s-22.88-9.51-22.88-23.13,9.62-23.88,22.88-23.88,22.88,10.04,22.88,23.88Z" style="fill:#fcfcfc; stroke-width:0px;"/></g><g id="c"><path d="M58.72.97C26.29.97,0,27.26,0,59.69s26.29,58.72,58.72,58.72h58.72v-58.72C117.44,27.26,91.15.97,58.72.97ZM41.94,89.13v-53.16l46.04,26.58-46.04,26.58Z" style="fill:#fcfcfc; stroke-width:0px;"/><polygon points="166.18 141.53 163.25 141.53 163.25 173.53 183.91 173.53 183.91 170.73 166.18 170.73 166.18 141.53" style="fill:#fcfcfc; stroke-width:0px;"/><path d="M210.77,154.99c-1.87-2.81-5.1-4.47-8.84-4.47-6.58,0-11.55,5-11.55,11.64s4.96,11.73,11.55,11.73c3.63,0,6.74-1.59,8.84-4.51v4.15h2.71v-22.73h-2.71v4.2ZM201.93,171.23c-5.12,0-8.84-3.81-8.84-9.06s3.72-9.02,8.84-9.02c6.2,0,9.03,4.69,9.03,9.04,0,2.37-.8,4.58-2.26,6.22-1.64,1.84-3.98,2.82-6.77,2.82Z" style="fill:#fcfcfc; stroke-width:0px;"/><path d="M249.59,150.48c-3.97,0-7.41,1.81-9.38,4.89v-4.58h-2.66v32.01h2.62v-13.7c1.93,3.08,5.13,4.83,8.93,4.83,6.91,0,11.55-4.73,11.55-11.77s-4.33-11.43-11.05-11.68ZM249.1,153.1c4.27,0,8.84,2.38,8.84,9.06s-4.57,9.15-8.84,9.15c-4.99,0-8.75-3.92-8.75-9.11s3.68-9.11,8.75-9.11Z" style="fill:#fcfcfc; stroke-width:0px;"/><path d="M278.93,150.44c-6.58,0-11.55,5.04-11.55,11.73s4.75,11.68,11.55,11.68c3.98,0,7.73-1.68,9.79-4.37l.15-.2-1.97-1.57-.16.21c-1.71,2.26-5.15,3.27-7.81,3.27-4.75,0-8.25-3.1-8.77-7.73h19.98l.02-.23c.38-3.86-.5-7.09-2.54-9.34-2.01-2.22-5.1-3.45-8.69-3.45ZM287.68,161.01h-17.51c.56-4.83,4.05-8.05,8.77-8.05,5.35,0,8.6,3,8.74,8.05Z" style="fill:#fcfcfc; stroke-width:0px;"/><path d="M308.28,150.57c-3.13,0-5.73,1.29-7.15,3.5l-.07-3.27h-2.57v22.73h2.71v-13.21c0-3.98,3.11-7.13,7.08-7.17,1.35,0,2.57.34,3.65,1l.22.14,1.23-2.24-.21-.13c-1.54-.94-3.2-1.38-4.9-1.34Z" style="fill:#fcfcfc; stroke-width:0px;"/><path d="M328.44,141.39c-4.52,0-6.91,2.72-6.91,7.86v1.73h-4.54v2.44h4.54v20.12h2.66v-20.12h7.34v-2.44h-7.34v-1.73c0-3.59,1.36-5.33,4.16-5.33,1.24,0,2.02.34,3.29,1.09l.21.12,1.34-2.02-.19-.14c-1.4-1.05-2.93-1.58-4.56-1.58Z" style="fill:#fcfcfc; stroke-width:0px;"/><path d="M347.97,150.39c-6.69,0-11.55,4.97-11.55,11.82s4.75,11.64,11.55,11.64,11.55-4.79,11.55-11.64-4.86-11.82-11.55-11.82ZM347.97,171.18c-5.23,0-8.88-3.69-8.88-8.97s3.74-9.24,8.88-9.24,8.88,3.89,8.88,9.24-3.65,8.97-8.88,8.97Z" style="fill:#fcfcfc; stroke-width:0px;"/><path d="M377,150.57c-3.13,0-5.73,1.29-7.15,3.5l-.07-3.27h-2.57v22.73h2.71v-13.21c0-3.98,3.11-7.13,7.08-7.17,1.35,0,2.57.34,3.65,1l.22.14,1.23-2.24-.21-.13c-1.54-.94-3.2-1.38-4.9-1.34Z" style="fill:#fcfcfc; stroke-width:0px;"/><path d="M414.04,150.35c-3.64,0-6.8,1.96-8.22,5.05-1.32-3.18-4.35-5.05-8.25-5.05-2.99,0-5.5,1.26-7,3.5l-.04-3.05h-2.57v22.73h2.71v-13.44c0-4.2,2.82-7.13,6.86-7.13s6.9,2.93,6.9,7.13v13.44h2.71v-13.44c0-4.22,2.84-7.17,6.9-7.17s6.86,2.89,6.86,7.04v13.57h2.71v-13.57c0-5.66-3.93-9.61-9.57-9.61Z" style="fill:#fcfcfc; stroke-width:0px;"/><path d="M451.59,154.99c-1.87-2.81-5.1-4.47-8.84-4.47-6.58,0-11.55,5-11.55,11.64s4.96,11.73,11.55,11.73c3.63,0,6.74-1.59,8.84-4.51v4.15h2.71v-22.73h-2.71v4.2ZM442.75,171.23c-5.12,0-8.84-3.81-8.84-9.06s3.72-9.02,8.84-9.02c6.2,0,9.03,4.69,9.03,9.04,0,2.37-.8,4.58-2.26,6.22-1.64,1.84-3.98,2.82-6.77,2.82Z" style="fill:#fcfcfc; stroke-width:0px;"/><path d="M473.22,150.39c-3.27.05-6.01,1.4-7.67,3.74v-3.34h-2.66v22.73h2.71v-12.63c0-4.51,3.17-7.81,7.54-7.85,2.4-.02,4.37.66,5.7,1.97,1.31,1.3,1.97,3.14,1.97,5.47v13.03h2.71v-13.08c0-6.11-4.04-10.06-10.29-10.06Z" style="fill:#fcfcfc; stroke-width:0px;"/><path d="M502.25,153.14c2.48,0,4.84.94,6.48,2.58l.18.18,1.8-1.75-.18-.18c-2.24-2.19-5.18-3.4-8.28-3.4-6.88,0-11.68,4.77-11.68,11.59s4.91,11.59,11.68,11.59c3.14,0,6.08-1.21,8.28-3.4l.18-.18-1.84-1.84-.18.18c-1.7,1.7-4.04,2.67-6.44,2.67-4.49,0-9.02-2.79-9.02-9.02s4.53-9.02,9.02-9.02Z" style="fill:#fcfcfc; stroke-width:0px;"/><path d="M528.89,150.44c-6.58,0-11.55,5.04-11.55,11.73s4.75,11.68,11.55,11.68c3.98,0,7.73-1.68,9.79-4.37l.15-.2-1.97-1.57-.16.21c-1.71,2.26-5.15,3.27-7.81,3.27-4.75,0-8.25-3.1-8.77-7.73h19.98l.02-.23c.38-3.86-.5-7.09-2.54-9.34-2.01-2.22-5.1-3.45-8.69-3.45ZM537.63,161.01h-17.51c.56-4.83,4.05-8.05,8.77-8.05,5.35,0,8.6,3,8.74,8.05Z" style="fill:#fcfcfc; stroke-width:0px;"/><path d="M583.09,154.95c-1.82-2.88-5.04-4.51-8.97-4.51-6.83,0-11.41,4.71-11.41,11.73s4.57,11.73,11.37,11.73c3.71,0,7.09-1.75,9.02-4.62v4.26h2.66v-32.01h-2.66v13.42ZM574.21,171.23c-5.37,0-8.84-3.56-8.84-9.06s3.47-9.11,8.84-9.11,8.84,3.81,8.84,9.06-3.72,9.11-8.84,9.11Z" style="fill:#fcfcfc; stroke-width:0px;"/><path d="M605.49,150.44c-6.58,0-11.55,5.04-11.55,11.73s4.75,11.68,11.55,11.68c3.98,0,7.73-1.68,9.79-4.37l.15-.2-1.97-1.57-.16.21c-1.71,2.26-5.15,3.27-7.81,3.27-4.75,0-8.25-3.1-8.77-7.73h19.98l.02-.23c.38-3.86-.5-7.09-2.54-9.34-2.01-2.22-5.1-3.45-8.69-3.45ZM614.23,161.01h-17.51c.56-4.83,4.05-8.05,8.77-8.05,5.35,0,8.6,3,8.74,8.05Z" style="fill:#fcfcfc; stroke-width:0px;"/><rect x="640.52" y="141.53" width="2.71" height="32.01" style="fill:#fcfcfc; stroke-width:0px;"/><polygon points="651.29 150.44 653.78 150.44 656.88 141.48 653.77 141.48 651.29 150.44" style="fill:#fcfcfc; stroke-width:0px;"/><path d="M665.5,141.8c-1.01,0-2.03.69-2.03,2.01s1.02,2.01,2.03,2.01,2.03-.69,2.03-2.01-1.02-2.01-2.03-2.01Z" style="fill:#fcfcfc; stroke-width:0px;"/><rect x="664.1" y="150.71" width="2.71" height="22.82" style="fill:#fcfcfc; stroke-width:0px;"/><path d="M701.8,150.35c-3.64,0-6.8,1.96-8.22,5.05-1.32-3.18-4.35-5.05-8.25-5.05-2.99,0-5.5,1.26-7,3.5l-.04-3.05h-2.57v22.73h2.71v-13.44c0-4.2,2.82-7.13,6.86-7.13s6.9,2.93,6.9,7.13v13.44h2.71v-13.44c0-4.22,2.84-7.17,6.9-7.17s6.86,2.89,6.86,7.04v13.57h2.71v-13.57c0-5.66-3.93-9.61-9.57-9.61Z" style="fill:#fcfcfc; stroke-width:0px;"/><path d="M739.35,154.99c-1.87-2.81-5.1-4.47-8.84-4.47-6.58,0-11.55,5-11.55,11.64s4.96,11.73,11.55,11.73c3.63,0,6.74-1.59,8.84-4.51v4.15h2.71v-22.73h-2.71v4.2ZM730.51,171.23c-5.12,0-8.84-3.81-8.84-9.06s3.72-9.02,8.84-9.02c6.2,0,9.03,4.69,9.03,9.04,0,2.37-.8,4.58-2.26,6.22-1.64,1.84-3.98,2.82-6.77,2.82Z" style="fill:#fcfcfc; stroke-width:0px;"/><path d="M765.44,170.91c3.38-1.78,5.6-5.49,5.6-9.42,0-3.11-.85-5.52-2.66-7.56l2.18-2.54-1.82-1.59-2.18,2.54c-1.8-1.22-4.12-1.94-6.26-1.94-6.4,0-10.69,4.46-10.69,11.1s4.5,11.01,10.69,11.01c3.77,0,8.16,1.68,8.16,6.41,0,5.99-6.25,6.45-8.16,6.45-3.72,0-8.07-1.69-8.07-6.45v-.25h-2.71v.25c0,5.45,4.33,9.12,10.78,9.12s10.83-3.49,10.83-9.12c0-3.73-1.97-6.49-5.69-7.99ZM768.38,161.49c0,4.5-3.7,8.3-8.07,8.3-5.24,0-7.98-4.17-7.98-8.3,0-6.19,4.12-8.39,7.98-8.39,4.9,0,8.07,3.29,8.07,8.39Z" style="fill:#fcfcfc; stroke-width:0px;"/><path d="M797.17,153.88c-2.01-2.22-5.1-3.45-8.69-3.45-6.58,0-11.55,5.04-11.55,11.73s4.75,11.68,11.55,11.68c3.98,0,7.73-1.68,9.79-4.37l.15-.2-1.97-1.57-.16.21c-1.71,2.26-5.15,3.27-7.81,3.27-4.75,0-8.25-3.1-8.77-7.73h19.98l.02-.23c.38-3.86-.5-7.09-2.54-9.34ZM797.22,161.01h-17.51c.56-4.83,4.05-8.05,8.77-8.05,5.35,0,8.6,3,8.74,8.05Z" style="fill:#fcfcfc; stroke-width:0px;"/><path d="M194.55,81.02c-12.03-2.95-20.08-6.48-24.17-10.56-4.54-4.08-6.8-9.52-6.8-16.33,0-8.63,3.29-15.77,9.86-21.45,6.81-5.22,15.65-7.83,26.55-7.83,11.8,0,21.21,2.61,28.26,7.83,6.57,5.68,10.1,13.06,10.55,22.13h-14.63c-4.32,0-7.61-1.95-9.88-5.79-.79-1.34-2.73-2.71-2.73-2.71-2.73-2.04-6.45-3.07-11.23-3.07s-7.94.68-10.22,2.04c-2.04,1.36-3.05,3.4-3.05,6.13,0,3.64,5.89,6.7,17.7,9.19l6.46,1.36c11.58,2.94,19.63,6.35,24.16,10.2,4.3,4.09,6.48,9.54,6.48,16.33,0,10-3.64,17.71-10.9,23.15-6.79,5-17.02,7.49-30.63,7.49s-22.59-2.61-28.94-7.83c-6.58-5.22-9.86-12.81-9.86-22.81v-1.01h23.15c.21,4.54,1.92,7.94,5.09,10.21,3.4,2.27,7.94,3.41,13.62,3.41,4.09,0,7.6-.8,10.55-2.38,2.73-1.59,4.09-3.76,4.09-6.48,0-4.08-4.77-7.15-14.29-9.18l-9.2-2.04Z" style="fill:#fcfcfc; stroke-width:0px;"/><path d="M298.95,118.41h-24.17l-31.65-90.55h25.17l18.06,63.66,15.99-55.48c1.82-5.45,5.46-8.18,10.88-8.18h17.7l-31.99,90.55Z" style="fill:#fcfcfc; stroke-width:0px;"/><path d="M394.96,0h11.56c3.18,0,5.9,1.19,8.18,3.58,2.26,2.39,3.39,5.05,3.39,8v66.38c0,16.12-4.64,27-13.95,32.67-9.3,5.68-19.4,8.51-30.28,8.51-5.92,0-11.69-.97-17.38-2.89-5.66-1.93-10.2-5.05-13.6-9.36-6.58-8.39-9.89-19.86-9.89-34.38s3.3-25.75,9.89-34.37c6.81-8.86,15.55-13.28,26.21-13.28,5.67,0,10.65,1.14,14.98,3.4,4.53,2.72,8.17,6.25,10.9,10.56V0ZM356.13,71.48c0,9.09,1.7,16.01,5.11,20.77,3.41,4.77,8.29,7.16,14.63,7.16s10.9-2.39,14.31-7.16c3.17-4.76,4.77-11.68,4.77-20.77,0-8.16-1.71-14.63-5.12-19.4-3.64-4.54-8.52-6.8-14.65-6.8s-10.55,2.38-13.95,7.15c-3.4,4.55-5.11,10.89-5.11,19.06Z" style="fill:#fcfcfc; stroke-width:0px;"/><path d="M474.24,79.51l-2.19-.37c-8.63-1.52-15.78-3.23-15.95-8.77-.06-1.8.54-3.32,1.83-4.63,2.67-2.72,8-4.3,14.32-4.21,6.74,0,12.04.98,17.6,5.88l1.77,1.56,7.02-7.48-1.77-1.66c-6.28-5.9-14.56-8.89-24.59-8.89-.16,0-.31,0-.46,0-9.04,0-16.85,2.65-21.5,7.29-3.28,3.28-4.99,7.56-4.94,12.37.15,14.66,14.47,17.04,25.99,18.96,11.01,1.77,18.21,3.4,18.03,9.73-.33,8.47-11.84,9.38-16.77,9.38-8.78,0-16.47-3.53-20.57-9.43l-1.56-2.25-8.11,7.2,1.14,1.75c5.49,8.42,16.32,13.45,28.98,13.45s27.35-5.14,27.75-19.54c.69-15.86-15.38-18.56-26.01-20.34Z" style="fill:#fcfcfc; stroke-width:0px;"/><path d="M546.02,106.53c-3.03,1.45-6.02,2.25-8.43,2.25-6.75,0-8.92-2.86-8.92-11.78v-35.11h20.95v-9.98h-20.95v-25.83l-10.85.1v25.73h-13.09v9.98h13.09v35.11c0,7.06,1.4,12.28,4.27,15.95,3.28,4.19,8.49,6.31,15.49,6.31,3.84,0,7.98-1.1,12.66-3.36l2.09-1.01-4.02-9.46-2.3,1.1Z" style="fill:#fcfcfc; stroke-width:0px;"/><path d="M609.12,88.52c0,11.67-7.88,19.9-19.16,20.02-6.16.07-11.21-1.66-14.55-4.97-3.28-3.25-4.95-7.94-4.95-13.93v-37.85h-10.98v37.98c0,17.99,11.87,29.62,30.28,29.62,7.79-.11,14.58-2.76,19.48-7.44v6.45h10.85V51.79h-10.98v36.73Z" style="fill:#fcfcfc; stroke-width:0px;"/><path d="M685.19,60.1c-5.56-5.91-13.64-9.18-23.13-9.18-19.95,0-33.36,13.76-33.36,34.23s13.36,34.23,33.24,34.23c9.05,0,17.43-3.57,23.26-9.64v8.64h10.85V26.22h-10.85v33.87ZM662.31,108.53c-11,0-22.76-6.14-22.76-23.38s11.76-23.51,22.76-23.51c13.19,0,22.76,9.83,22.76,23.38s-9.36,23.51-22.76,23.51Z" style="fill:#fcfcfc; stroke-width:0px;"/><path d="M715.12,26.97c-3.66,0-7.36,2.51-7.36,7.3,0,2.19.84,4.14,2.37,5.48,1.34,1.17,3.11,1.82,4.99,1.82,3.66,0,7.36-2.51,7.36-7.3s-3.7-7.3-7.36-7.3Z" style="fill:#fcfcfc; stroke-width:0px;"/><rect x="709.5" y="51.66" width="10.98" height="66.72" style="fill:#fcfcfc; stroke-width:0px;"/><path d="M766.06,50.79c-19.55,0-33.74,14.5-33.74,34.48s13.87,33.98,33.74,33.98,33.74-13.98,33.74-33.98-14.19-34.48-33.74-34.48ZM788.94,85.28c0,13.62-9.41,23.13-22.88,23.13s-22.88-9.51-22.88-23.13,9.62-23.88,22.88-23.88,22.88,10.04,22.88,23.88Z" style="fill:#fcfcfc; stroke-width:0px;"/></g><g id="d"><path d="M58.72.97C26.29.97,0,27.26,0,59.69s26.29,58.72,58.72,58.72h58.72v-58.72C117.44,27.26,91.15.97,58.72.97ZM41.94,89.13v-53.16l46.04,26.58-46.04,26.58Z" style="fill:#d3194b; stroke-width:0px;"/><polygon points="166.18 141.53 163.25 141.53 163.25 173.53 183.91 173.53 183.91 170.73 166.18 170.73 166.18 141.53" style="fill:#2b2e30; stroke-width:0px;"/><path d="M210.77,154.99c-1.87-2.81-5.1-4.47-8.84-4.47-6.58,0-11.55,5-11.55,11.64s4.96,11.73,11.55,11.73c3.63,0,6.74-1.59,8.84-4.51v4.15h2.71v-22.73h-2.71v4.2ZM201.93,171.23c-5.12,0-8.84-3.81-8.84-9.06s3.72-9.02,8.84-9.02c6.2,0,9.03,4.69,9.03,9.04,0,2.37-.8,4.58-2.26,6.22-1.64,1.84-3.98,2.82-6.77,2.82Z" style="fill:#2b2e30; stroke-width:0px;"/><path d="M249.59,150.48c-3.97,0-7.41,1.81-9.38,4.89v-4.58h-2.66v32.01h2.62v-13.7c1.93,3.08,5.13,4.83,8.93,4.83,6.91,0,11.55-4.73,11.55-11.77s-4.33-11.43-11.05-11.68ZM249.1,153.1c4.27,0,8.84,2.38,8.84,9.06s-4.57,9.15-8.84,9.15c-4.99,0-8.75-3.92-8.75-9.11s3.68-9.11,8.75-9.11Z" style="fill:#2b2e30; stroke-width:0px;"/><path d="M278.93,150.44c-6.58,0-11.55,5.04-11.55,11.73s4.75,11.68,11.55,11.68c3.98,0,7.73-1.68,9.79-4.37l.15-.2-1.97-1.57-.16.21c-1.71,2.26-5.15,3.27-7.81,3.27-4.75,0-8.25-3.1-8.77-7.73h19.98l.02-.23c.38-3.86-.5-7.09-2.54-9.34-2.01-2.22-5.1-3.45-8.69-3.45ZM287.68,161.01h-17.51c.56-4.83,4.05-8.05,8.77-8.05,5.35,0,8.6,3,8.74,8.05Z" style="fill:#2b2e30; stroke-width:0px;"/><path d="M308.28,150.57c-3.13,0-5.73,1.29-7.15,3.5l-.07-3.27h-2.57v22.73h2.71v-13.21c0-3.98,3.11-7.13,7.08-7.17,1.35,0,2.57.34,3.65,1l.22.14,1.23-2.24-.21-.13c-1.54-.94-3.2-1.38-4.9-1.34Z" style="fill:#2b2e30; stroke-width:0px;"/><path d="M328.44,141.39c-4.52,0-6.91,2.72-6.91,7.86v1.73h-4.54v2.44h4.54v20.12h2.66v-20.12h7.34v-2.44h-7.34v-1.73c0-3.59,1.36-5.33,4.16-5.33,1.24,0,2.02.34,3.29,1.09l.21.12,1.34-2.02-.19-.14c-1.4-1.05-2.93-1.58-4.56-1.58Z" style="fill:#2b2e30; stroke-width:0px;"/><path d="M347.97,150.39c-6.69,0-11.55,4.97-11.55,11.82s4.75,11.64,11.55,11.64,11.55-4.79,11.55-11.64-4.86-11.82-11.55-11.82ZM347.97,171.18c-5.23,0-8.88-3.69-8.88-8.97s3.74-9.24,8.88-9.24,8.88,3.89,8.88,9.24-3.65,8.97-8.88,8.97Z" style="fill:#2b2e30; stroke-width:0px;"/><path d="M377,150.57c-3.13,0-5.73,1.29-7.15,3.5l-.07-3.27h-2.57v22.73h2.71v-13.21c0-3.98,3.11-7.13,7.08-7.17,1.35,0,2.57.34,3.65,1l.22.14,1.23-2.24-.21-.13c-1.54-.94-3.2-1.38-4.9-1.34Z" style="fill:#2b2e30; stroke-width:0px;"/><path d="M414.04,150.35c-3.64,0-6.8,1.96-8.22,5.05-1.32-3.18-4.35-5.05-8.25-5.05-2.99,0-5.5,1.26-7,3.5l-.04-3.05h-2.57v22.73h2.71v-13.44c0-4.2,2.82-7.13,6.86-7.13s6.9,2.93,6.9,7.13v13.44h2.71v-13.44c0-4.22,2.84-7.17,6.9-7.17s6.86,2.89,6.86,7.04v13.57h2.71v-13.57c0-5.66-3.93-9.61-9.57-9.61Z" style="fill:#2b2e30; stroke-width:0px;"/><path d="M451.59,154.99c-1.87-2.81-5.1-4.47-8.84-4.47-6.58,0-11.55,5-11.55,11.64s4.96,11.73,11.55,11.73c3.63,0,6.74-1.59,8.84-4.51v4.15h2.71v-22.73h-2.71v4.2ZM442.75,171.23c-5.12,0-8.84-3.81-8.84-9.06s3.72-9.02,8.84-9.02c6.2,0,9.03,4.69,9.03,9.04,0,2.37-.8,4.58-2.26,6.22-1.64,1.84-3.98,2.82-6.77,2.82Z" style="fill:#2b2e30; stroke-width:0px;"/><path d="M473.22,150.39c-3.27.05-6.01,1.4-7.67,3.74v-3.34h-2.66v22.73h2.71v-12.63c0-4.51,3.17-7.81,7.54-7.85,2.4-.02,4.37.66,5.7,1.97,1.31,1.3,1.97,3.14,1.97,5.47v13.03h2.71v-13.08c0-6.11-4.04-10.06-10.29-10.06Z" style="fill:#2b2e30; stroke-width:0px;"/><path d="M502.25,153.14c2.48,0,4.84.94,6.48,2.58l.18.18,1.8-1.75-.18-.18c-2.24-2.19-5.18-3.4-8.28-3.4-6.88,0-11.68,4.77-11.68,11.59s4.91,11.59,11.68,11.59c3.14,0,6.08-1.21,8.28-3.4l.18-.18-1.84-1.84-.18.18c-1.7,1.7-4.04,2.67-6.44,2.67-4.49,0-9.02-2.79-9.02-9.02s4.53-9.02,9.02-9.02Z" style="fill:#2b2e30; stroke-width:0px;"/><path d="M528.89,150.44c-6.58,0-11.55,5.04-11.55,11.73s4.75,11.68,11.55,11.68c3.98,0,7.73-1.68,9.79-4.37l.15-.2-1.97-1.57-.16.21c-1.71,2.26-5.15,3.27-7.81,3.27-4.75,0-8.25-3.1-8.77-7.73h19.98l.02-.23c.38-3.86-.5-7.09-2.54-9.34-2.01-2.22-5.1-3.45-8.69-3.45ZM537.63,161.01h-17.51c.56-4.83,4.05-8.05,8.77-8.05,5.35,0,8.6,3,8.74,8.05Z" style="fill:#2b2e30; stroke-width:0px;"/><path d="M583.09,154.95c-1.82-2.88-5.04-4.51-8.97-4.51-6.83,0-11.41,4.71-11.41,11.73s4.57,11.73,11.37,11.73c3.71,0,7.09-1.75,9.02-4.62v4.26h2.66v-32.01h-2.66v13.42ZM574.21,171.23c-5.37,0-8.84-3.56-8.84-9.06s3.47-9.11,8.84-9.11,8.84,3.81,8.84,9.06-3.72,9.11-8.84,9.11Z" style="fill:#2b2e30; stroke-width:0px;"/><path d="M605.49,150.44c-6.58,0-11.55,5.04-11.55,11.73s4.75,11.68,11.55,11.68c3.98,0,7.73-1.68,9.79-4.37l.15-.2-1.97-1.57-.16.21c-1.71,2.26-5.15,3.27-7.81,3.27-4.75,0-8.25-3.1-8.77-7.73h19.98l.02-.23c.38-3.86-.5-7.09-2.54-9.34-2.01-2.22-5.1-3.45-8.69-3.45ZM614.23,161.01h-17.51c.56-4.83,4.05-8.05,8.77-8.05,5.35,0,8.6,3,8.74,8.05Z" style="fill:#2b2e30; stroke-width:0px;"/><rect x="640.52" y="141.53" width="2.71" height="32.01" style="fill:#2b2e30; stroke-width:0px;"/><polygon points="651.29 150.44 653.78 150.44 656.88 141.48 653.77 141.48 651.29 150.44" style="fill:#2b2e30; stroke-width:0px;"/><path d="M665.5,141.8c-1.01,0-2.03.69-2.03,2.01s1.02,2.01,2.03,2.01,2.03-.69,2.03-2.01-1.02-2.01-2.03-2.01Z" style="fill:#2b2e30; stroke-width:0px;"/><rect x="664.1" y="150.71" width="2.71" height="22.82" style="fill:#2b2e30; stroke-width:0px;"/><path d="M701.8,150.35c-3.64,0-6.8,1.96-8.22,5.05-1.32-3.18-4.35-5.05-8.25-5.05-2.99,0-5.5,1.26-7,3.5l-.04-3.05h-2.57v22.73h2.71v-13.44c0-4.2,2.82-7.13,6.86-7.13s6.9,2.93,6.9,7.13v13.44h2.71v-13.44c0-4.22,2.84-7.17,6.9-7.17s6.86,2.89,6.86,7.04v13.57h2.71v-13.57c0-5.66-3.93-9.61-9.57-9.61Z" style="fill:#2b2e30; stroke-width:0px;"/><path d="M739.35,154.99c-1.87-2.81-5.1-4.47-8.84-4.47-6.58,0-11.55,5-11.55,11.64s4.96,11.73,11.55,11.73c3.63,0,6.74-1.59,8.84-4.51v4.15h2.71v-22.73h-2.71v4.2ZM730.51,171.23c-5.12,0-8.84-3.81-8.84-9.06s3.72-9.02,8.84-9.02c6.2,0,9.03,4.69,9.03,9.04,0,2.37-.8,4.58-2.26,6.22-1.64,1.84-3.98,2.82-6.77,2.82Z" style="fill:#2b2e30; stroke-width:0px;"/><path d="M765.44,170.91c3.38-1.78,5.6-5.49,5.6-9.42,0-3.11-.85-5.52-2.66-7.56l2.18-2.54-1.82-1.59-2.18,2.54c-1.8-1.22-4.12-1.94-6.26-1.94-6.4,0-10.69,4.46-10.69,11.1s4.5,11.01,10.69,11.01c3.77,0,8.16,1.68,8.16,6.41,0,5.99-6.25,6.45-8.16,6.45-3.72,0-8.07-1.69-8.07-6.45v-.25h-2.71v.25c0,5.45,4.33,9.12,10.78,9.12s10.83-3.49,10.83-9.12c0-3.73-1.97-6.49-5.69-7.99ZM768.38,161.49c0,4.5-3.7,8.3-8.07,8.3-5.24,0-7.98-4.17-7.98-8.3,0-6.19,4.12-8.39,7.98-8.39,4.9,0,8.07,3.29,8.07,8.39Z" style="fill:#2b2e30; stroke-width:0px;"/><path d="M797.17,153.88c-2.01-2.22-5.1-3.45-8.69-3.45-6.58,0-11.55,5.04-11.55,11.73s4.75,11.68,11.55,11.68c3.98,0,7.73-1.68,9.79-4.37l.15-.2-1.97-1.57-.16.21c-1.71,2.26-5.15,3.27-7.81,3.27-4.75,0-8.25-3.1-8.77-7.73h19.98l.02-.23c.38-3.86-.5-7.09-2.54-9.34ZM797.22,161.01h-17.51c.56-4.83,4.05-8.05,8.77-8.05,5.35,0,8.6,3,8.74,8.05Z" style="fill:#2b2e30; stroke-width:0px;"/><path d="M194.55,81.02c-12.03-2.95-20.08-6.48-24.17-10.56-4.54-4.08-6.8-9.52-6.8-16.33,0-8.63,3.29-15.77,9.86-21.45,6.81-5.22,15.65-7.83,26.55-7.83,11.8,0,21.21,2.61,28.26,7.83,6.57,5.68,10.1,13.06,10.55,22.13h-14.63c-4.32,0-7.61-1.95-9.88-5.79-.79-1.34-2.73-2.71-2.73-2.71-2.73-2.04-6.45-3.07-11.23-3.07s-7.94.68-10.22,2.04c-2.04,1.36-3.05,3.4-3.05,6.13,0,3.64,5.89,6.7,17.7,9.19l6.46,1.36c11.58,2.94,19.63,6.35,24.16,10.2,4.3,4.09,6.48,9.54,6.48,16.33,0,10-3.64,17.71-10.9,23.15-6.79,5-17.02,7.49-30.63,7.49s-22.59-2.61-28.94-7.83c-6.58-5.22-9.86-12.81-9.86-22.81v-1.01h23.15c.21,4.54,1.92,7.94,5.09,10.21,3.4,2.27,7.94,3.41,13.62,3.41,4.09,0,7.6-.8,10.55-2.38,2.73-1.59,4.09-3.76,4.09-6.48,0-4.08-4.77-7.15-14.29-9.18l-9.2-2.04Z" style="fill:#2b2e30; stroke-width:0px;"/><path d="M298.95,118.41h-24.17l-31.65-90.55h25.17l18.06,63.66,15.99-55.48c1.82-5.45,5.46-8.18,10.88-8.18h17.7l-31.99,90.55Z" style="fill:#2b2e30; stroke-width:0px;"/><path d="M394.96,0h11.56c3.18,0,5.9,1.19,8.18,3.58,2.26,2.39,3.39,5.05,3.39,8v66.38c0,16.12-4.64,27-13.95,32.67-9.3,5.68-19.4,8.51-30.28,8.51-5.92,0-11.69-.97-17.38-2.89-5.66-1.93-10.2-5.05-13.6-9.36-6.58-8.39-9.89-19.86-9.89-34.38s3.3-25.75,9.89-34.37c6.81-8.86,15.55-13.28,26.21-13.28,5.67,0,10.65,1.14,14.98,3.4,4.53,2.72,8.17,6.25,10.9,10.56V0ZM356.13,71.48c0,9.09,1.7,16.01,5.11,20.77,3.41,4.77,8.29,7.16,14.63,7.16s10.9-2.39,14.31-7.16c3.17-4.76,4.77-11.68,4.77-20.77,0-8.16-1.71-14.63-5.12-19.4-3.64-4.54-8.52-6.8-14.65-6.8s-10.55,2.38-13.95,7.15c-3.4,4.55-5.11,10.89-5.11,19.06Z" style="fill:#2b2e30; stroke-width:0px;"/><path d="M474.24,79.51l-2.19-.37c-8.63-1.52-15.78-3.23-15.95-8.77-.06-1.8.54-3.32,1.83-4.63,2.67-2.72,8-4.3,14.32-4.21,6.74,0,12.04.98,17.6,5.88l1.77,1.56,7.02-7.48-1.77-1.66c-6.28-5.9-14.56-8.89-24.59-8.89-.16,0-.31,0-.46,0-9.04,0-16.85,2.65-21.5,7.29-3.28,3.28-4.99,7.56-4.94,12.37.15,14.66,14.47,17.04,25.99,18.96,11.01,1.77,18.21,3.4,18.03,9.73-.33,8.47-11.84,9.38-16.77,9.38-8.78,0-16.47-3.53-20.57-9.43l-1.56-2.25-8.11,7.2,1.14,1.75c5.49,8.42,16.32,13.45,28.98,13.45s27.35-5.14,27.75-19.54c.69-15.86-15.38-18.56-26.01-20.34Z" style="fill:#2b2e30; stroke-width:0px;"/><path d="M546.02,106.53c-3.03,1.45-6.02,2.25-8.43,2.25-6.75,0-8.92-2.86-8.92-11.78v-35.11h20.95v-9.98h-20.95v-25.83l-10.85.1v25.73h-13.09v9.98h13.09v35.11c0,7.06,1.4,12.28,4.27,15.95,3.28,4.19,8.49,6.31,15.49,6.31,3.84,0,7.98-1.1,12.66-3.36l2.09-1.01-4.02-9.46-2.3,1.1Z" style="fill:#2b2e30; stroke-width:0px;"/><path d="M609.12,88.52c0,11.67-7.88,19.9-19.16,20.02-6.16.07-11.21-1.66-14.55-4.97-3.28-3.25-4.95-7.94-4.95-13.93v-37.85h-10.98v37.98c0,17.99,11.87,29.62,30.28,29.62,7.79-.11,14.58-2.76,19.48-7.44v6.45h10.85V51.79h-10.98v36.73Z" style="fill:#2b2e30; stroke-width:0px;"/><path d="M685.19,60.1c-5.56-5.91-13.64-9.18-23.13-9.18-19.95,0-33.36,13.76-33.36,34.23s13.36,34.23,33.24,34.23c9.05,0,17.43-3.57,23.26-9.64v8.64h10.85V26.22h-10.85v33.87ZM662.31,108.53c-11,0-22.76-6.14-22.76-23.38s11.76-23.51,22.76-23.51c13.19,0,22.76,9.83,22.76,23.38s-9.36,23.51-22.76,23.51Z" style="fill:#2b2e30; stroke-width:0px;"/><path d="M715.12,26.97c-3.66,0-7.36,2.51-7.36,7.3,0,2.19.84,4.14,2.37,5.48,1.34,1.17,3.11,1.82,4.99,1.82,3.66,0,7.36-2.51,7.36-7.3s-3.7-7.3-7.36-7.3Z" style="fill:#2b2e30; stroke-width:0px;"/><rect x="709.5" y="51.66" width="10.98" height="66.72" style="fill:#2b2e30; stroke-width:0px;"/><path d="M766.06,50.79c-19.55,0-33.74,14.5-33.74,34.48s13.87,33.98,33.74,33.98,33.74-13.98,33.74-33.98-14.19-34.48-33.74-34.48ZM788.94,85.28c0,13.62-9.41,23.13-22.88,23.13s-22.88-9.51-22.88-23.13,9.62-23.88,22.88-23.88,22.88,10.04,22.88,23.88Z" style="fill:#2b2e30; stroke-width:0px;"/></g></svg>