<?xml version="1.0" encoding="UTF-8"?>
<svg xmlns="http://www.w3.org/2000/svg" width="120" height="19" viewBox="0 0 120 19" fill="none">
  <g id="NAVORI logo" clip-path="url(#clip0_1118_268)">
    <rect id="Rectangle 114" x="101.13" y="11.9458" width="18.0791" height="6.24324" fill="white"></rect>
    <g id="Groupe 55">
      <path id="Tracé 143" d="M107.751 13.8924C107.718 13.7955 107.686 13.6916 107.654 13.5757C107.621 13.6884 107.589 13.7923 107.558 13.8924C107.528 13.9924 107.498 14.0754 107.467 14.1457L106.865 15.7436H108.446L107.842 14.1393C107.815 14.0665 107.784 13.9836 107.75 13.886" fill="#E30613"></path>
      <path id="Tracé 144" d="M113.413 15.6383C113.329 15.5754 113.233 15.5299 113.131 15.5047C112.996 15.4693 112.856 15.4529 112.716 15.4559H111.782V16.8714H112.719C112.865 16.8738 113.011 16.8524 113.149 16.8081C113.253 16.775 113.348 16.7198 113.428 16.6466C113.496 16.5822 113.548 16.5027 113.579 16.4148C113.61 16.3235 113.626 16.2279 113.626 16.1317C113.628 16.0349 113.61 15.9387 113.574 15.8486C113.54 15.7655 113.485 15.6922 113.413 15.6358" fill="#E30613"></path>
      <path id="Tracé 146" d="M113.234 14.6687C113.317 14.6072 113.382 14.5265 113.425 14.434C113.467 14.3415 113.485 14.2401 113.477 14.1392C113.487 14.039 113.473 13.9377 113.435 13.8439C113.397 13.7501 113.336 13.6665 113.258 13.6003C113.052 13.4789 112.812 13.4235 112.572 13.4419H111.782V14.8353H112.52C112.771 14.8506 113.021 14.7924 113.237 14.6681" fill="#E30613"></path>
      <path id="Tracé 145" d="M100.453 19H120V0H100.453V19ZM104.803 17.5699H101.894V12.7484H102.815V16.8296H104.803V17.5699ZM109.364 17.5699C109.294 17.5713 109.226 17.5511 109.168 17.5123C109.118 17.4744 109.079 17.4238 109.057 17.366L108.686 16.3831H106.632L106.26 17.366C106.239 17.4216 106.201 17.4701 106.152 17.506C106.097 17.5487 106.027 17.5711 105.957 17.5693H105.24L107.189 12.7477H108.132L110.08 17.5693L109.364 17.5699ZM114.419 16.72C114.339 16.8942 114.219 17.0484 114.068 17.1709C113.9 17.3026 113.709 17.4027 113.503 17.4661C113.254 17.5402 112.994 17.5761 112.734 17.5725H110.861V12.7484H112.572C112.852 12.744 113.131 12.7736 113.404 12.8364C113.608 12.885 113.801 12.9731 113.97 13.0954C114.113 13.1991 114.226 13.3376 114.296 13.497C114.367 13.6672 114.402 13.8497 114.399 14.0334C114.4 14.1428 114.382 14.2516 114.348 14.3558C114.312 14.4612 114.258 14.5599 114.188 14.6477C114.11 14.7419 114.017 14.8241 113.914 14.8916C113.791 14.9708 113.658 15.0332 113.518 15.0771C114.199 15.2266 114.539 15.5855 114.539 16.1538C114.541 16.3484 114.5 16.5412 114.419 16.7194M118.466 16.6738C118.39 16.8599 118.275 17.0287 118.129 17.1697C117.974 17.3156 117.79 17.4286 117.589 17.5015C117.355 17.5873 117.107 17.6288 116.858 17.6238C116.701 17.624 116.545 17.6085 116.392 17.5775C116.241 17.5514 116.093 17.509 115.951 17.4509C115.813 17.3975 115.681 17.3313 115.556 17.2533C115.438 17.1783 115.329 17.0906 115.231 16.9917L115.498 16.5623C115.523 16.5309 115.554 16.5041 115.589 16.4831C115.624 16.4625 115.665 16.4519 115.706 16.4527C115.774 16.4555 115.839 16.4788 115.893 16.5192C115.958 16.5655 116.037 16.6168 116.128 16.6719C116.229 16.733 116.336 16.7842 116.447 16.8245C116.588 16.8725 116.738 16.8951 116.887 16.891C117.106 16.9039 117.323 16.8403 117.498 16.7118C117.572 16.6456 117.629 16.5644 117.667 16.4739C117.704 16.3834 117.72 16.2859 117.714 16.1886C117.718 16.0774 117.684 15.968 117.617 15.8777C117.545 15.7938 117.456 15.7254 117.356 15.6769C117.239 15.6189 117.116 15.5731 116.989 15.5401C116.852 15.5002 116.712 15.4609 116.57 15.4134C116.427 15.3683 116.287 15.3144 116.152 15.2519C116.016 15.1917 115.892 15.1095 115.785 15.0087C115.672 14.9034 115.583 14.7758 115.524 14.6344C115.455 14.4577 115.422 14.2694 115.428 14.0803C115.428 13.9011 115.466 13.7239 115.539 13.5592C115.611 13.3945 115.718 13.2458 115.851 13.122C115.999 12.9878 116.172 12.8834 116.362 12.8149C116.581 12.732 116.815 12.6915 117.05 12.6958C117.326 12.6936 117.6 12.7391 117.86 12.8301C118.094 12.9111 118.309 13.0385 118.49 13.2044L118.265 13.6274C118.245 13.6689 118.215 13.7046 118.177 13.7313C118.141 13.7513 118.099 13.7618 118.058 13.7617C118.003 13.7582 117.949 13.7403 117.904 13.7098C117.846 13.6737 117.779 13.6369 117.701 13.5939C117.614 13.5467 117.522 13.5081 117.428 13.4786C117.309 13.4423 117.184 13.4247 117.059 13.4267C116.946 13.4248 116.833 13.4404 116.725 13.4729C116.638 13.5004 116.556 13.5434 116.485 13.5996C116.422 13.6509 116.372 13.716 116.34 13.7896C116.306 13.8675 116.29 13.9514 116.291 14.0359C116.288 14.1385 116.322 14.2389 116.388 14.319C116.461 14.3987 116.549 14.4633 116.648 14.509C116.766 14.567 116.888 14.6149 117.015 14.6522C117.152 14.6946 117.292 14.7408 117.436 14.7896C117.579 14.8368 117.719 14.8915 117.856 14.9536C117.989 15.0159 118.113 15.0967 118.222 15.1937C118.333 15.2941 118.421 15.4151 118.483 15.5496C118.551 15.7117 118.584 15.886 118.58 16.0613C118.581 16.2704 118.543 16.4785 118.466 16.6738Z" fill="#E30613"></path>
    </g>
    <path id="Tracé 147" d="M2.38736 0.680608C2.49432 0.690945 2.59849 0.719906 2.6949 0.766108C2.7893 0.813506 2.87692 0.872697 2.95553 0.942175C3.05489 1.03279 3.14702 1.1306 3.23114 1.23477L12.3532 12.5037C12.3193 12.1946 12.2945 11.8938 12.2776 11.6018C12.2606 11.3098 12.2528 11.0318 12.2528 10.7734V0.662241H15.5758V18.3379H13.6361C13.3817 18.3457 13.1288 18.2978 12.8959 18.198C12.6667 18.081 12.4665 17.9167 12.3095 17.7166L3.24613 6.52184C3.27132 6.806 3.29 7.08424 3.30217 7.35658C3.31433 7.62891 3.32063 7.88224 3.32106 8.11657V18.3379H0V0.662241H1.98013C2.11611 0.661112 2.25206 0.667243 2.38736 0.680608Z" fill="#2E343F"></path>
    <path id="Tracé 148" d="M35.3042 18.338H32.3845C32.1008 18.3503 31.8208 18.271 31.5883 18.1125C31.3851 17.9632 31.2275 17.7631 31.1322 17.5336L29.904 14.1592H22.6585L21.4303 17.5336C21.3351 17.7517 21.1842 17.9424 20.9918 18.0878C20.7676 18.2594 20.4879 18.3478 20.2027 18.3373H17.257L24.363 0.661621H28.2105L35.3042 18.338ZM23.5759 11.6246H28.9905L27.0227 6.21595C26.9054 5.9318 26.7821 5.59888 26.6526 5.21719C26.5232 4.8355 26.3957 4.42531 26.2702 3.98662C26.152 4.43375 26.0302 4.84943 25.9046 5.23365C25.7791 5.61788 25.6581 5.95291 25.5417 6.23875L23.5759 11.6246Z" fill="#2E343F"></path>
    <path id="Tracé 149" d="M33.3741 0.661845H36.4072C36.6907 0.649773 36.9704 0.729031 37.2028 0.887312C37.4059 1.03656 37.5636 1.23664 37.6589 1.46618L41.5957 11.6502C41.7455 12.0327 41.8939 12.4488 42.0407 12.8985C42.1875 13.3481 42.3189 13.821 42.4349 14.3171C42.5435 13.8223 42.6647 13.3494 42.7985 12.8985C42.9323 12.4475 43.0743 12.0314 43.2246 11.6502L47.134 1.46554C47.2302 1.24647 47.3833 1.05549 47.5784 0.911378C47.8054 0.740338 48.0869 0.652043 48.374 0.661845H51.4214L44.1023 18.3382H40.6939L33.3741 0.661845Z" fill="#2E343F"></path>
    <path id="Tracé 150" d="M70.0459 9.49364C70.0576 10.7221 69.8301 11.9416 69.3754 13.0878C68.9526 14.1569 68.3096 15.1308 67.4859 15.9498C66.6488 16.7687 65.6489 17.4135 64.5473 17.8448C62.094 18.7632 59.3772 18.7632 56.9239 17.8448C55.8208 17.4125 54.819 16.768 53.9788 15.9498C53.1507 15.1325 52.5044 14.1583 52.0801 13.0878C51.6255 11.9416 51.398 10.7221 51.4096 9.49364C51.3976 8.26723 51.6251 7.04975 52.0801 5.9058C52.5055 4.83758 53.1517 3.86546 53.9788 3.04947C54.8189 2.23136 55.8208 1.587 56.9239 1.15517C59.377 0.236037 62.0941 0.236037 64.5473 1.15517C65.6473 1.58182 66.6445 2.22532 67.4761 3.04512C68.3076 3.86493 68.9554 4.84326 69.3787 5.91847C69.8329 7.058 70.0604 8.27099 70.0492 9.493M66.2049 9.493C66.2169 8.64853 66.09 7.80762 65.8289 7.0021C65.6032 6.31132 65.2342 5.67286 64.7447 5.12617C64.2702 4.61091 63.6807 4.20796 63.0213 3.94817C61.5458 3.40396 59.9163 3.40396 58.4407 3.94817C57.7809 4.20829 57.1915 4.61243 56.718 5.12934C56.2281 5.67577 55.859 6.31431 55.6338 7.00527C55.3722 7.81068 55.2452 8.65167 55.2578 9.49617C55.2445 10.3449 55.3714 11.1901 55.6338 11.9997C55.8579 12.6895 56.2271 13.3264 56.718 13.87C57.1926 14.3842 57.7819 14.7863 58.4407 15.0454C59.9162 15.5901 61.5459 15.5901 63.0213 15.0454C63.6776 14.7848 64.2646 14.3829 64.7382 13.87C65.2287 13.3261 65.5979 12.6893 65.8224 11.9997C66.0842 11.19 66.2112 10.3448 66.1984 9.49617" fill="#2E343F"></path>
    <path id="Tracé 151" d="M76.5623 11.6014V18.3382H72.8027V0.66185H78.5177C79.6168 0.640961 80.7134 0.770155 81.7755 1.04565C82.5795 1.25443 83.3326 1.61678 83.9909 2.11155C84.5477 2.54077 84.9833 3.10038 85.2569 3.73795C85.5304 4.39787 85.6668 5.10388 85.6582 5.81528C85.6615 6.37906 85.5747 6.9399 85.4009 7.47778C85.2348 7.99171 84.9828 8.47552 84.6548 8.90975C84.3182 9.35021 83.9123 9.73641 83.452 10.0542C82.9492 10.4004 82.396 10.6715 81.8107 10.8585C82.0552 10.9901 82.2842 11.1473 82.4936 11.3272C82.7133 11.5181 82.9052 11.7374 83.0637 11.9789L87.2989 18.3382H83.9029C83.6283 18.3573 83.3536 18.3013 83.11 18.1765C82.8665 18.0517 82.6637 17.8631 82.5248 17.632L79.0656 12.2113C78.9479 12.0234 78.7869 11.8647 78.5952 11.7477C78.3594 11.6367 78.0983 11.5864 77.8368 11.6014H76.5623ZM76.5623 9.03135H78.4929C79.0282 9.04219 79.5617 8.96577 80.071 8.80525C80.4764 8.67699 80.8485 8.46504 81.1617 8.18395C81.4425 7.92522 81.6569 7.60614 81.7879 7.25232C81.9249 6.87687 81.9929 6.4809 81.9886 6.08255C82.0089 5.71551 81.9421 5.34885 81.7933 5.01093C81.6445 4.67301 81.4177 4.37289 81.1305 4.13378C80.3686 3.61485 79.4453 3.36865 78.5177 3.43712H76.563L76.5623 9.03135Z" fill="#2E343F"></path>
    <path id="Rectangle 39" d="M92.8673 0.661621H89.0823V18.338H92.8673V0.661621Z" fill="#2E343F"></path>
  </g>
  <defs>
    <clipPath id="clip0_1118_268">
      <rect width="120" height="19" fill="white"></rect>
    </clipPath>
  </defs>
</svg>
