<svg version="1.1" id="logo-new" xmlns="http://www.w3.org/2000/svg" xmlns:xlink="http://www.w3.org/1999/xlink" x="0px" y="0px" width="270" height="40" viewBox="0 0 270 40" style="enable-background:new 0 0 270 40;" xml:space="preserve">
<style type="text/css">
	.st0{fill:#1D0966;}
	.st1{fill:url(#SVGID_1_);}
	.st2{fill:url(#SVGID_00000119116610320093069670000001026611428939540661_);}
	.st3{fill:url(#SVGID_00000000202455099237312490000011126643884909532563_);}
</style>
<g>
	<g>
		<path class="st0" d="M57.3558846,12.282485c0.8847389-0.2527113,2.0349922-0.4938869,3.4511147-0.7217245
			c1.4157677-0.2278366,2.9830971-0.3417549,4.702713-0.3417549c1.6177368,0,2.9704971,0.2220688,4.05793,0.6647644
			c1.0867081,0.4430561,1.9530869,1.0631189,2.5976944,1.860548c0.6447906,0.7977896,1.0998535,1.7599688,1.3653641,2.8861752
			c0.2653351,1.1269264,0.3981781,2.3609238,0.3981781,3.7027111v11.1647301h-4.5889511v-10.443367
			c0-1.0631199-0.0698395-1.9679775-0.2084503-2.7149372c-0.1393204-0.7465992-0.3668518-1.354044-0.6827698-1.8230553
			c-0.3162689-0.4679317-0.7459488-0.8096867-1.2893982-1.0252666c-0.5439835-0.214859-1.2076721-0.322649-1.9908905-0.322649
			c-0.5819626,0-1.1887741,0.0378532-1.8204231,0.1139183c-0.6321869,0.0757055-1.0998497,0.1391544-1.4031639,0.1896238v16.0257339
			h-4.5889473V12.282485z"/>
		<path class="st0" d="M76.814682,21.6623726c0-1.7469902,0.2588501-3.2784004,0.7774582-4.5949516
			c0.5178833-1.3161907,1.206955-2.4113941,2.0668488-3.2848892c0.8591843-0.8734951,1.8452682-1.5314102,2.9580765-1.9748278
			c1.1122742-0.4426956,2.2499237-0.6644039,3.4131393-0.6644039c2.730545,0,4.8602219,0.8482599,6.3902893,2.5440588
			c1.5293503,1.6965199,2.2943878,4.2283211,2.2943878,7.5950451c0,0.2534332-0.006485,0.538229-0.0189056,0.8547497
			c-0.0131378,0.3168793-0.0320358,0.6016769-0.0568771,0.8543873H81.5551987
			c0.1261826,1.5948582,0.68853,2.829216,1.6875763,3.7023506c0.9985046,0.8734951,2.4461365,1.3104229,4.3423386,1.3104229
			c1.1122742,0,2.1296768-0.1009407,3.0529404-0.3039036c0.9225464-0.20224,1.6495972-0.41782,2.1806183-0.6456585
			l0.6068115,3.7596703c-0.2530899,0.1268959-0.6008682,0.259922-1.0429688,0.3987141
			c-0.4426422,0.1395149-0.9481049,0.2656898-1.5169296,0.3796082s-1.1821136,0.2090912-1.839325,0.2847977
			c-0.657753,0.0760651-1.3273773,0.1139183-2.0099716,0.1139183c-1.7446365,0-3.2615662-0.2595615-4.5509644-0.7783241
			c-1.2894058-0.5187607-2.3512726-1.2401237-3.1856079-2.1644497c-0.834343-0.9239655-1.4541092-2.0126801-1.858223-3.2661438
			C77.016655,24.5294399,76.814682,23.1562901,76.814682,21.6623726z M90.1261139,19.6114788
			c0-0.6323185-0.0889282-1.2339954-0.2655182-1.8035889c-0.177124-0.5695915-0.4361572-1.0634785-0.7774506-1.4809399
			c-0.341301-0.4178209-0.7585602-0.7465982-1.2516022-0.9874125c-0.4928589-0.2404547-1.0807648-0.3608627-1.7633591-0.3608627
			c-0.7081528,0-1.3273773,0.1330252-1.8584061,0.398715c-0.530838,0.2656898-0.9799652,0.6142941-1.3462753,1.0443726
			c-0.366684,0.4307995-0.6512756,0.9243259-0.853241,1.4809399c-0.2026901,0.5573349-0.341301,1.1269283-0.4172592,1.7087765
			H90.1261139z"/>
		<path class="st0" d="M126.3732071,13.096097c1.2348328,0.8061533,2.5167313,2.5600529,3.1092148,4.1800547
			c0.4676666,1.278698,0.7016754,2.7152958,0.7016754,4.310154c0,1.5191536-0.1962128,2.9117718-0.5879059,4.1774921
			c-0.3922424,1.2660809-0.9545898,2.354435-1.6875763,3.2657814c-0.7335358,0.9113483-1.6495972,1.6204548-2.7494507,2.1265984
			c-1.0998459,0.5061455-2.3453217,0.7595768-3.735527,0.7595768c-0.9356842,0-1.7955856-0.1139183-2.5789795-0.3417549
			c-0.7839355-0.2278366-1.4285431-0.4809093-1.9340057-0.7595768v4.5904503c0,2.5378189-2.0545425,4.5951271-4.5889435,4.5951271
			h-0.0000076V14.6662207c0-1.6805782,1.3610535-3.0415955,3.03936-3.0370674
			c1.4754028,0.0039806,3.2463913,0.0076771,4.735199,0.0076771
			C123.3214111,11.6368303,124.9486923,12.1661148,126.3732071,13.096097z M125.4815598,21.6623726
			c0-2.0508938-0.4617157-3.3873444-1.3842621-4.5265293c-0.9232635-1.139184-2.4081497-1.7087765-4.4561005-1.7087765
			c-0.4302216,0-0.8787994,0.0187464-1.346283,0.0569592c-0.0621872,0.0050278-0.1242447,0.0108442-0.1861801,0.0174465
			c-0.681076,0.0726013-1.198082,0.6487617-1.198082,1.3346081v9.9908352
			c0.4041138,0.2790279,0.9416199,0.538229,1.6117935,0.7786827c0.669632,0.2408161,1.3842621,0.3605022,2.1426392,0.3605022
			c1.6686707,0,2.8882294-0.5695915,3.6597443-1.7087765C125.0958023,25.1181393,125.4815598,23.586729,125.4815598,21.6623726z"/>
		<path class="st0" d="M144.7383881,15.7761049c-0.3794556-0.1261759-0.9043579-0.259201-1.5739899-0.398715
			c-0.6703491-0.138793-1.4476166-0.2087307-2.3321838-0.2087307c-0.5061798,0-1.0429688,0.0508308-1.6117859,0.1517715
			c-0.5691986,0.1013012-0.9673767,0.1899843-1.1949005,0.2656898v15.9118137h-4.5887756V12.5863876
			c0.8847504-0.3287773,1.9910736-0.6391687,3.3182831-0.9304543c1.3273773-0.290925,2.8002014-0.4369278,4.4184723-0.4369278
			c0.3031311,0,0.6570282,0.0191069,1.0616913,0.0569592c0.4042969,0.0382128,0.80896,0.0890436,1.213623,0.152132
			c0.4042969,0.063448,0.7963562,0.1391535,1.1758118,0.2278366c0.3790894,0.0890436,0.6825867,0.1708775,0.9101105,0.246583
			L144.7383881,15.7761049z"/>
		<path class="st0" d="M146.0762177,21.6623726c0-1.7469902,0.2592163-3.2784004,0.7776337-4.5949516
			c0.5177002-1.3161907,1.2071381-2.4113941,2.0668488-3.2848892c0.8590088-0.8734951,1.8450928-1.5314102,2.957901-1.9748278
			c1.1124573-0.4426956,2.2501068-0.6644039,3.4133148-0.6644039c2.7307281,0,4.8602295,0.8482599,6.3902893,2.5440588
			c1.5293579,1.6965199,2.2943878,4.2283211,2.2943878,7.5950451c0,0.2534332-0.006485,0.538229-0.0190735,0.8547497
			c-0.01297,0.3168793-0.0320435,0.6016769-0.0568848,0.8543873h-13.083725
			c0.1260071,1.5948582,0.6883545,2.829216,1.6877594,3.7023506c0.9983215,0.8734951,2.4459534,1.3104229,4.3421631,1.3104229
			c1.1120911,0,2.1298523-0.1009407,3.0529327-0.3039036c0.9227295-0.20224,1.6495972-0.41782,2.1806183-0.6456585
			l0.6066284,3.7596703c-0.2527313,0.1268959-0.6008606,0.259922-1.0426025,0.3987141
			c-0.4428253,0.1395149-0.948288,0.2656898-1.5171051,0.3796082c-0.5688324,0.1139183-1.1822968,0.2090912-1.839325,0.2847977
			c-0.6577606,0.0760651-1.3273926,0.1139183-2.0099792,0.1139183c-1.7446442,0-3.2613831-0.2595615-4.5509644-0.7783241
			c-1.2895813-0.5187607-2.3512726-1.2401237-3.185791-2.1644497c-0.8341522-0.9239655-1.4541016-2.0126801-1.8580475-3.2661438
			C146.2785492,24.5294399,146.0762177,23.1562901,146.0762177,21.6623726z M159.3878174,19.6114788
			c0-0.6323185-0.088913-1.2339954-0.265686-1.8035889c-0.177124-0.5695915-0.4359741-1.0634785-0.7772827-1.4809399
			c-0.3412933-0.4178209-0.7585449-0.7465982-1.2514038-0.9874125c-0.4932251-0.2404547-1.081131-0.3608627-1.7637329-0.3608627
			c-0.7081451,0-1.3273773,0.1330252-1.8580322,0.398715c-0.5310364,0.2656898-0.9803314,0.6142941-1.3464661,1.0443726
			c-0.3668518,0.4307995-0.6512756,0.9243259-0.853241,1.4809399c-0.2026825,0.5573349-0.3412933,1.1269283-0.4172668,1.7087765
			H159.3878174z"/>
		<path class="st0" d="M172.2544556,28.1939373c1.2136078,0,2.098175-0.1452808,2.6547546-0.4365673
			c0.5558624-0.2909241,0.8341675-0.7909393,0.8341675-1.5000458c0-0.6579151-0.2973785-1.2022724-0.8910522-1.6330719
			c-0.5943756-0.4300785-1.5739899-0.8983688-2.9391632-1.4048748c-0.8345184-0.3039017-1.5995636-0.6265507-2.2943878-0.9683056
			c-0.6959076-0.3417568-1.2960663-0.7408314-1.8015289-1.1965046c-0.5061798-0.4556751-0.9043579-1.0061607-1.1945343-1.6518173
			c-0.2908936-0.6456585-0.4363403-1.4365997-0.4363403-2.3735428c0-1.8226948,0.669632-3.2592936,2.0099792-4.3101549
			c1.3399811-1.0501413,3.1602173-1.5757523,5.4610901-1.5757523c1.1628418,0,2.2756653,0.10779,3.3373413,0.322649
			c1.0620575,0.2152195,1.8584137,0.4243097,2.3894348,0.6265516l-0.8345184,3.7214565
			c-0.5058289-0.2278366-1.1506042-0.4365673-1.9340057-0.6265516c-0.7841187-0.1896238-1.6942444-0.2847958-2.7307281-0.2847958
			c-0.9356842,0-1.6938782,0.1586199-2.2752991,0.4747801c-0.5817871,0.3168812-0.8723297,0.8039188-0.8723297,1.4621944
			c0,0.3291378,0.0568848,0.6204224,0.1706543,0.8731346c0.1137695,0.2534313,0.3092499,0.4877586,0.5879059,0.7026157
			c0.2779388,0.21558,0.6447906,0.4307995,1.0998535,0.6456585c0.4550629,0.21558,1.0109253,0.4365673,1.6686707,0.6647644
			c1.0865326,0.4052048,2.0099792,0.8039188,2.7685242,1.1961441c0.758194,0.3925858,1.3842621,0.8352833,1.8771362,1.3291702
			c0.4928589,0.4935265,0.853241,1.0573502,1.0807648,1.6896687c0.2275238,0.6330414,0.3412933,1.3926182,0.3412933,2.2787304
			c0,1.8987617-0.7016754,3.3357201-2.10466,4.3101559c-1.4033356,0.9740753-3.407196,1.461834-6.0111847,1.461834
			c-1.744278,0-3.1476288-0.1456432-4.2093201-0.4365673c-1.0620422-0.290926-1.8079987-0.5252514-2.2375031-0.7026176
			l0.7963562-3.8353748c0.6826019,0.2786674,1.4980316,0.5447178,2.4459534,0.7974281
			C169.9600677,28.0677624,171.0408325,28.1939373,172.2544556,28.1939373z"/>
		<path class="st0" d="M181.9730988,21.6623726c0-1.7469902,0.2592163-3.2784004,0.7776337-4.5949516
			c0.5177002-1.3161907,1.2071381-2.4113941,2.0668488-3.2848892c0.8590088-0.8734951,1.8450928-1.5314102,2.957901-1.9748278
			c1.1124573-0.4426956,2.2501068-0.6644039,3.4133148-0.6644039c2.7307281,0,4.8602295,0.8482599,6.3902893,2.5440588
			c1.5293579,1.6965199,2.2943878,4.2283211,2.2943878,7.5950451c0,0.2534332-0.006485,0.538229-0.0190735,0.8547497
			c-0.01297,0.3168793-0.0320435,0.6016769-0.0568848,0.8543873h-13.083725
			c0.1260071,1.5948582,0.6883545,2.829216,1.6877594,3.7023506c0.9983215,0.8734951,2.4459534,1.3104229,4.3421631,1.3104229
			c1.1120911,0,2.1298523-0.1009407,3.0529327-0.3039036c0.9227295-0.20224,1.6495972-0.41782,2.1806183-0.6456585
			l0.6066284,3.7596703c-0.2527313,0.1268959-0.6008606,0.259922-1.0426025,0.3987141
			c-0.4428253,0.1395149-0.948288,0.2656898-1.5171051,0.3796082c-0.5688324,0.1139183-1.1822968,0.2090912-1.839325,0.2847977
			c-0.6577606,0.0760651-1.3273926,0.1139183-2.0099792,0.1139183c-1.7446442,0-3.2613831-0.2595615-4.5509644-0.7783241
			c-1.2895813-0.5187607-2.3512726-1.2401237-3.185791-2.1644497c-0.8341522-0.9239655-1.4541016-2.0126801-1.8580475-3.2661438
			C182.1754303,24.5294399,181.9730988,23.1562901,181.9730988,21.6623726z M195.2846985,19.6114788
			c0-0.6323185-0.088913-1.2339954-0.265686-1.8035889c-0.177124-0.5695915-0.4359741-1.0634785-0.7772827-1.4809399
			c-0.3412933-0.4178209-0.7585449-0.7465982-1.2514038-0.9874125c-0.4932251-0.2404547-1.081131-0.3608627-1.7637329-0.3608627
			c-0.7081451,0-1.3273773,0.1330252-1.8580322,0.398715c-0.5310364,0.2656898-0.9803314,0.6142941-1.3464661,1.0443726
			c-0.3668518,0.4307995-0.6512756,0.9243259-0.853241,1.4809399c-0.2026825,0.5573349-0.3412933,1.1269283-0.4172668,1.7087765
			H195.2846985z"/>
		<path class="st0" d="M203.1831055,12.282485c0.8849182-0.2527113,2.0348206-0.4938869,3.4511108-0.7217245
			c1.4155884-0.2278366,2.9831085-0.3417549,4.7025452-0.3417549c1.6179047,0,2.9704895,0.2220688,4.0581055,0.6647644
			c1.0865326,0.4430561,1.9530792,1.0631189,2.5978699,1.860548c0.6444397,0.7977896,1.0995026,1.7599688,1.3651886,2.8861752
			c0.2653351,1.1269264,0.3981781,2.3609238,0.3981781,3.7027111v11.1647301h-4.5887756v-10.443367
			c0-1.0631199-0.0698395-1.9679775-0.2088013-2.7149372c-0.1389618-0.7465992-0.3665009-1.354044-0.6825867-1.8230553
			c-0.3164673-0.4679317-0.7459564-0.8096867-1.2892303-1.0252666c-0.5439758-0.214859-1.2078552-0.322649-1.9912415-0.322649
			c-0.5817871,0-1.1884155,0.0378532-1.8202515,0.1139183c-0.6321869,0.0757055-1.0998535,0.1391544-1.4033356,0.1896238v16.0257339
			h-4.5887756V12.282485z"/>
		<path class="st0" d="M236.6916351,21.6623726c0-1.7469902,0.2592163-3.2784004,0.7776337-4.5949516
			c0.5177002-1.3161907,1.2071381-2.4113941,2.066864-3.2848892c0.8589935-0.8734951,1.8450775-1.5314102,2.9578857-1.9748278
			c1.1124573-0.4426956,2.2501068-0.6644039,3.4133148-0.6644039c2.7307281,0,4.8602295,0.8482599,6.3903046,2.5440588
			c1.5293427,1.6965199,2.2943726,4.2283211,2.2943726,7.5950451c0,0.2534332-0.0064697,0.538229-0.0190735,0.8547497
			c-0.01297,0.3168793-0.0320435,0.6016769-0.0568848,0.8543873h-13.083725
			c0.1260071,1.5948582,0.6883545,2.829216,1.6877594,3.7023506c0.9983368,0.8734951,2.4459534,1.3104229,4.3421631,1.3104229
			c1.1120911,0,2.1298523-0.1009407,3.0529327-0.3039036c0.9227295-0.20224,1.6495972-0.41782,2.1806335-0.6456585
			l0.6066132,3.7596703c-0.2527313,0.1268959-0.6008606,0.259922-1.0426025,0.3987141
			c-0.4428253,0.1395149-0.948288,0.2656898-1.5171051,0.3796082c-0.5688324,0.1139183-1.1822968,0.2090912-1.839325,0.2847977
			c-0.6577454,0.0760651-1.3273773,0.1139183-2.0099792,0.1139183c-1.7446289,0-3.2613831-0.2595615-4.5509644-0.7783241
			c-1.2895813-0.5187607-2.3512573-1.2401237-3.1857758-2.1644497c-0.8341675-0.9239655-1.4541168-2.0126801-1.8580475-3.2661438
			C236.8939667,24.5294399,236.6916351,23.1562901,236.6916351,21.6623726z M250.0032501,19.6114788
			c0-0.6323185-0.0889282-1.2339954-0.2657013-1.8035889c-0.177124-0.5695915-0.4359741-1.0634785-0.7772675-1.4809399
			c-0.3412933-0.4178209-0.7585602-0.7465982-1.2514191-0.9874125c-0.4932251-0.2404547-1.081131-0.3608627-1.7637177-0.3608627
			c-0.7081604,0-1.3273926,0.1330252-1.8580475,0.398715c-0.5310211,0.2656898-0.9803314,0.6142941-1.3464661,1.0443726
			c-0.3668518,0.4307995-0.6512604,0.9243259-0.853241,1.4809399c-0.2026825,0.5573349-0.3412933,1.1269283-0.4172516,1.7087765
			H250.0032501z"/>
		<path class="st0" d="M269.2036438,15.7761049c-0.3794556-0.1261759-0.9043579-0.259201-1.5740051-0.398715
			c-0.6703491-0.138793-1.4476013-0.2087307-2.3321838-0.2087307c-0.5061646,0-1.0429688,0.0508308-1.6117859,0.1517715
			c-0.5691833,0.1013012-0.9673767,0.1899843-1.1948853,0.2656898v15.9118137h-4.5887756V12.5863876
			c0.8849182-0.3287773,1.9912415-0.6391687,3.3182678-0.9304543c1.3273926-0.290925,2.8002014-0.4369278,4.4184875-0.4369278
			c0.3031311,0,0.6570129,0.0191069,1.061676,0.0569592c0.4042969,0.0382128,0.80896,0.0890436,1.213623,0.152132
			c0.4042969,0.063448,0.7963562,0.1391535,1.1758118,0.2278366c0.3790894,0.0890436,0.6825867,0.1708775,0.9101257,0.246583
			L269.2036438,15.7761049z"/>
		<path class="st0" d="M109.4277649,31.1976738c0-1.8488293-1.5416489-3.3121777-3.3864746-3.23736
			c-0.0196686,0.0007992-0.0359879,0.0013332-0.0486679,0.0016193c-1.0101624,0.0227509-2.5705643,0.0041676-3.2289429-0.9828854
			c-0.4720917-0.7077694-0.7583771-1.8230553-0.7583771-3.4179134v-8.088933h3.223587
			c2.1153717,0,3.8302155-1.7171583,3.8302155-3.8353748h-7.0538025v-6.000186
			c-2.6472244,0.4381671-4.5889511,2.7302799-4.5889511,5.4170523v12.5452929c0,1.3169117,0.1137695,2.4874611,0.341301,3.5127258
			c0.2277069,1.0252666,0.6192245,1.8987617,1.1758118,2.6204853c0.5556793,0.7213593,1.3082886,1.2722034,2.2564011,1.6518192
			c1.2629471,0.5056648,3.016716,0.61199,4.3673859,0.5528126c0.3573608-0.0156574,3.0731354-0.2559052,3.8705139-0.7027016
			V31.1976738z"/>
		<path class="st0" d="M235.6377716,31.1976738c0-1.8488293-1.5416412-3.3121777-3.3864594-3.23736
			c-0.0196838,0.0007992-0.0359955,0.0013332-0.0486755,0.0016193c-1.0101624,0.0227509-2.5705566,0.0041676-3.2289429-0.9828854
			c-0.4720917-0.7077694-0.7583771-1.8230553-0.7583771-3.4179134v-8.088933h3.223587
			c2.1153717,0,3.8302155-1.7171583,3.8302155-3.8353748h-7.0538025v-6.000186
			c-2.6472168,0.4381671-4.5889435,2.7302799-4.5889435,5.4170523v12.5452929c0,1.3169117,0.1137695,2.4874611,0.3412933,3.5127258
			c0.2277069,1.0252666,0.6192322,1.8987617,1.1758118,2.6204853c0.5556793,0.7213593,1.3082886,1.2722034,2.2564087,1.6518192
			c1.2629395,0.5056648,3.0167084,0.61199,4.3673859,0.5528126c0.3573456-0.0156574,3.0731354-0.2559052,3.8704987-0.7027016
			V31.1976738z"/>
	</g>
	<g>
		<linearGradient id="SVGID_1_" gradientUnits="userSpaceOnUse" x1="8.213418" y1="2.210577" x2="37.7573433" y2="33.2998772">
			<stop  offset="0.0933537" style="stop-color:#5DDDFD"/>
			<stop  offset="0.765377" style="stop-color:#513CEE"/>
			<stop  offset="0.9534104" style="stop-color:#381ABC"/>
		</linearGradient>
		<path class="st1" d="M33.5363121,14.3013201L22.0383549,2.1544237l-0.0000324-0.0000331
			c-3.5216866-3.7204657-9.7222528-2.4291329-11.4705467,2.38888L6.7151051,15.1607313l0.0000663,0.0000668l-2.6625986,7.277873
			c0,0,2.6433892-7.2214327,10.2411251,0.7284107l0.0867338,0.0916309l11.4979544,12.1468964h0.0000343
			c3.5217018,3.7204666,9.7222538,2.4291306,11.4705143-2.3888969l3.8526382-10.6174774l2.6630783-7.2791719
			C43.8646507,15.1200628,41.2015724,22.3992348,33.5363121,14.3013201z"/>
		<g>
			
				<linearGradient id="SVGID_00000127008544634086102330000008696471172298176647_" gradientUnits="userSpaceOnUse" x1="41.5163231" y1="17.3887253" x2="39.9711914" y2="1.0037746">
				<stop  offset="0" style="stop-color:#E0A4FF"/>
				<stop  offset="0.1118739" style="stop-color:#CD9BFF"/>
				<stop  offset="0.3762584" style="stop-color:#A487FE"/>
				<stop  offset="0.6175588" style="stop-color:#877AFE"/>
				<stop  offset="0.8255022" style="stop-color:#7571FE"/>
				<stop  offset="0.9762565" style="stop-color:#6F6EFE"/>
			</linearGradient>
			<path style="fill:url(#SVGID_00000127008544634086102330000008696471172298176647_);" d="M46.7326851,2.628679
				c-5.3621025-0.0311594-10.1645546,3.3172896-11.9957581,8.3638945l-1.2006149,3.3087463
				c7.6449852,8.0764971,10.3139534,0.8578625,10.3280067,0.8196249l3.9824638-10.8855734
				C48.1311836,3.4579973,47.5594559,2.6334755,46.7326851,2.628679z"/>
		</g>
		
			<linearGradient id="SVGID_00000163793017462199802920000005541631583533626254_" gradientUnits="userSpaceOnUse" x1="6.1581049" y1="17.5887642" x2="7.7043724" y2="33.96101">
			<stop  offset="0.0608084" style="stop-color:#324BD7"/>
			<stop  offset="1" style="stop-color:#518DF6"/>
		</linearGradient>
		<path style="fill:url(#SVGID_00000163793017462199802920000005541631583533626254_);" d="M14.3804312,23.2587128
			l-0.0867338-0.0916309c-7.2019706-7.5357256-9.9518347-1.4405689-10.2188377-0.7850189L0.0738847,33.318264
			c-0.2843999,0.7773743,0.2873271,1.6018982,1.1140993,1.6066933c5.3621025,0.0311584,10.1645527-3.3172894,11.9957561-8.3638935
			l1.197855-3.3011189L14.3804312,23.2587128z"/>
	</g>
</g>
</svg>