<svg class="id-svg" width="207" height="28" viewBox="0 0 207 28" aria-labelledby="title">
	<title class="id-title hide">NEWVISION technology centre</title>
	<path class="st0"
		d="M197.9 5.2c0-5.4 8.1-5.4 8.1 0C206 10.6 197.9 10.6 197.9 5.2M205.3 5.2c0-4.6-6.6-4.6-6.6 0C198.7 9.8 205.3 9.8 205.3 5.2M203.8 7.1L203.8 7.1l-0.6 0.1 -1-1.4h-0.8v1.4h-0.6V3.3h1.6c0.8 0 1.4 0.5 1.4 1.3 0 0.6-0.4 1.1-0.9 1.2L203.8 7.1zM201.3 5.3h0.9c0.5 0 0.8-0.3 0.8-0.7 0-0.4-0.3-0.7-0.8-0.7h-0.9V5.3z">
	</path>
	<polygon class="st0" points="7 14.4 7 26.3 1 26.3 1 3.2 2.9 3.2 14.9 14.5 14.9 3.3 20.9 3.3 20.9 26.4 19.2 26.4 ">
	</polygon>
	<polygon class="st0"
		points="38.4 8.5 30 8.5 30 11.8 37.7 11.8 37.7 17.1 30 17.1 30 20.8 38.7 20.8 38.7 26.3 24 26.3 24 3.3 38.4 3.3 ">
	</polygon>
	<polygon class="st0"
		points="57.2 3.7 61.3 16.3 61.4 16.3 63 9.6 65.1 3.3 71.5 3.3 71.5 4.2 63.2 26.6 60 26.6 56.1 16 56 16 52.1 26.6 48.8 26.6 40.5 4.2 40.5 3.3 46.9 3.3 49 9.6 50.8 16.3 50.9 16.3 54.8 3.7 ">
	</polygon>
	<polygon class="st0"
		points="84.8 16.1 86.6 10.1 89.5 3.3 95.9 3.3 95.9 4.2 86 26.6 83.4 26.6 73.4 4.2 73.4 3.3 79.8 3.3 82.7 10.1 84.7 16.1 ">
	</polygon>
	<polygon class="st0"
		points="109.6 21.4 109.6 26.3 97.7 26.3 97.7 21.4 100.7 21.4 100.7 8.1 98 8.1 98 3.3 109.4 3.3 109.4 8.1 106.7 8.1 106.7 21.4 ">
	</polygon>
	<path class="st0"
		d="M118.1 19.2c0 1.6 1.8 2.4 3.7 2.4 1.7 0 3.5-0.8 3.5-2.2 0-2.2-2.6-2.3-4.2-2.4 -4.2-0.3-8.4-1.9-8.4-6.8 0-5 4.2-7.5 9-7.5 4.4 0 9 2.5 8.9 7.5h-5.6c0-1.6-1.5-2.2-3.1-2.2 -1.3 0-3.1 0.4-3.1 2.1 0 1.5 1.3 1.9 3.5 2.1 4.9 0.4 9.2 1.6 9.2 7.2 0 4.8-4.7 7.4-9.4 7.4 -4.9 0-9.5-2.4-9.5-7.6H118.1z">
	</path>
	<polygon class="st0"
		points="145.8 21.4 145.8 26.3 133.9 26.3 133.9 21.4 136.8 21.4 136.8 8.1 134.2 8.1 134.2 3.3 145.5 3.3 145.5 8.1 142.9 8.1 142.9 21.4 ">
	</polygon>
	<path class="st0"
		d="M160.4 26.8c-6.1 0-11.8-4-11.8-12 0-8 5.9-12 11.9-12 5.9 0 11.8 4 11.8 12C172.3 21.8 167.4 26.8 160.4 26.8M160.4 21.1c2.9 0 5.8-2.1 5.8-6.3 0-4.1-2.9-6.3-5.7-6.3 -3 0-5.9 2-5.9 6.3C154.6 18.9 157.5 21.1 160.4 21.1">
	</path>
	<polygon class="st0"
		points="180.7 14.4 180.7 26.3 174.7 26.3 174.7 3.2 176.5 3.2 188.6 14.5 188.6 3.3 194.6 3.3 194.6 26.4 192.8 26.4 ">
	</polygon>
</svg>