<svg xmlns="http://www.w3.org/2000/svg" width="117.561" height="49.034"><g data-name="Group 1"><path fill="#da1d52" d="M20.351 27.087a30.342 30.342 0 0 1 4.218-4.315 26.935 26.935 0 0 1 5.833-4.046 46.326 46.326 0 0 1 6.66-2.963 33.415 33.415 0 0 1 4.106-1.017 9.258 9.258 0 0 1 3.584.261 14.481 14.481 0 0 1 2.556 1.111 21.835 21.835 0 0 1 3.1 2.2s1.433 1.253 2.827 2.734a26.384 26.384 0 0 1 2.435 3.042 37.681 37.681 0 0 1 4.794-5.776 64.972 64.972 0 0 1 6.832-5.954 41.653 41.653 0 0 1 7.246-4.655 71.866 71.866 0 0 1 7.943-3.629s5.306-1.785 9.557-2.735A40.367 40.367 0 0 1 99.489.282a35.344 35.344 0 0 1 5.434-.277 6.173 6.173 0 0 1 2.473.277s1.061.239 0 2.255-8.378 15.762-8.378 15.762a2.6 2.6 0 0 1-1.777.944c-1.295.2-1.244-.068-3.4-.134a46.878 46.878 0 0 0-5.235-.129 75.181 75.181 0 0 0-9.07.613 43.121 43.121 0 0 0-5.535 1.376 47.114 47.114 0 0 0-13.516 6.259 43.232 43.232 0 0 1-4.811 3.133 3.849 3.849 0 0 1-1.836.048c-.373-.152-.467-.1-1.373-1.206s-2.229-3.206-2.229-3.206a29.276 29.276 0 0 0-3.918-4.764c-2.1-1.949-4.408-3.848-6.242-3.484a31.087 31.087 0 0 0-4.056.977 45.224 45.224 0 0 0-4.62 1.69 62.05 62.05 0 0 0-6.132 3.409c-2.733 1.78-4.917 3.262-4.917 3.262Z" data-name="Path 25488"/><path fill="#900633" d="m58.744 20.133-.815.952-.93 1.159-.62.838-.707 1.009a30.826 30.826 0 0 0 2.428 2.757 2.13 2.13 0 0 0 1.151.5 2.374 2.374 0 0 0 1.165-.07l.868-.563.658-.41.719-.431.657-.384 1.436-.8 2.088-1.06a31.931 31.931 0 0 1-3.674.2 6.326 6.326 0 0 1-1.725-.327 4.018 4.018 0 0 1-2.36-2.019 3.744 3.744 0 0 1-.339-1.351Z" data-name="Path 25489"/><path fill="#fd8925" d="M77.898 34.001h3.119v10.137h-3.119z" data-name="Rectangle 1716"/><path fill="#231f20" d="M54.114 34.001h3.119v10.527h-3.119z" data-name="Rectangle 1717"/><path fill="#fd8925" d="M91.372 42.599s-4.923-.6-4.628-3.524 3.717-3.591 5.854-3.459 4.838 1.35 4.838 3.241v4.388s.446 4.028-4.584 4.017-5.834-.543-5.834-.543l-.634 1.728a18.18 18.18 0 0 0 4.041.55c2.3.058 4.086.1 5.144-.317s4.913-1.467 4.939-4.837 0-5.473 0-5.473-1.216-4.8-7.911-4.581-8.838 3-8.889 5.566 4.1 5.014 7.663 5.028c.011.001.001-1.784.001-1.784Z" data-name="Path 25491"/><path fill="#fd8925" d="M103.5 45.275v-6.643s-.352-5.769 7.08-5.629 6.977 5.146 6.977 5.146v6h-2.975v-6.2s-.268-3.108-4-2.948-4.086 2.728-4.111 3.631 0 6.644 0 6.644Z" data-name="Path 25492"/><path fill="#231f20" d="M14.062 45.451v-6.643s.352-5.769-7.079-5.629S.006 38.325.006 38.325v6h2.975v-6.2s.268-3.108 4-2.948 4.086 2.728 4.11 3.631 0 6.644 0 6.644Z" data-name="Path 25496"/><path fill="#231f20" d="m51.022 34.263-5.8 9.393a2.894 2.894 0 0 1-2.279.98 3.361 3.361 0 0 1-2.359-.98l-5.831-9.393h3.432l4.758 7.719 4.852-7.719Z" data-name="Path 25493"/><path fill="#231f20" d="M25.342 44.604c-.005 0-.541 0-1.332-.082a15.714 15.714 0 0 1-2.934-.576 7.622 7.622 0 0 1-2.941-1.562 4.225 4.225 0 0 1-.977-1.305 4.13 4.13 0 0 1-.382-1.738 4.091 4.091 0 0 1 .312-1.642 4.062 4.062 0 0 1 .857-1.264 6.536 6.536 0 0 1 2.145-1.382 12.553 12.553 0 0 1 2.433-.718 17.013 17.013 0 0 1 2.819-.314c.005 0 .547.006 1.344.094a15.992 15.992 0 0 1 2.954.6 7.653 7.653 0 0 1 2.945 1.583 4.164 4.164 0 0 1 .964 1.31 4.049 4.049 0 0 1 .356 1.735 4.108 4.108 0 0 1-.38 1.732 4.219 4.219 0 0 1-.976 1.3 7.643 7.643 0 0 1-2.941 1.563 15.476 15.476 0 0 1-2.932.583 14.93 14.93 0 0 1-1.334.083Zm0-8.842a10.739 10.739 0 0 0-1.8.216 7.913 7.913 0 0 0-1.546.475 4.131 4.131 0 0 0-1.356.9 2.547 2.547 0 0 0-.716 1.908 2.871 2.871 0 0 0 .855 2 4.7 4.7 0 0 0 1.797 1.055 8.966 8.966 0 0 0 1.823.418 9.191 9.191 0 0 0 .946.076h.016a8.779 8.779 0 0 0 1.015-.082 9.009 9.009 0 0 0 1.838-.432 4.717 4.717 0 0 0 1.781-1.062 2.851 2.851 0 0 0 .841-1.973 2.522 2.522 0 0 0-.712-1.889 4.161 4.161 0 0 0-1.375-.91 8.083 8.083 0 0 0-1.573-.48 11.074 11.074 0 0 0-1.835-.22Z" data-name="Subtraction 26"/><path fill="#fd8925" d="M74.133 33.953h-8.684s-4.264.053-4.106 2.7 6.644 3.071 6.644 3.071 4.049.462 3.855 1.611-2.927.941-2.927.941h-7.572v1.734h9.451s4.269.058 4.169-2.771-5.94-3.185-5.94-3.185-4.619-.38-4.471-1.679a.9.9 0 0 1 .9-.756c2.3-.01 8.684 0 8.684 0Z" data-name="Path 25497"/></g></svg>