<svg xmlns="http://www.w3.org/2000/svg" xml:space="preserve"
    id="Layer_2_00000100357565584326933610000010818992700519554949_" x="0" y="0"
    style="enable-background:new 0 0 494.9 56.4" viewBox="0 0 494.9 56.4" width="160" height="32">
    <style>
        .st0 {
            fill: #3a3836
        }
    </style>
    <g id="Layer_1-2">
        <path
            d="M31.2 52.6 4.7 10.4l.6 42.2H.6V4.7h5.7l26.5 42.1-.6-42.1h4.7v47.9zM67.8 49c10.9 0 19.6-9 19.6-20.7 0-10.6-8.7-19.9-19.9-19.9-4.5 0-8.7 1.6-12.2 4.4-4.5 3.8-7.4 9.8-7.4 15.6 0 11.8 8.8 20.6 19.9 20.6M50.4 10.7c4.7-4.6 10.4-6.9 17.1-6.9s12.6 2.4 17.3 7c4.9 4.8 7.4 10.8 7.4 17.6s-2.1 12.5-6.4 17.1c-4.9 5.3-11.1 8.1-18.4 8.1-13.9 0-24.5-10.9-24.5-25.2 0-6.7 2.7-12.9 7.5-17.7M131 52.6l-9.7-39.1-9.7 39.1h-4l-15-47.9h4.7l12 39.2 9.8-39.2h4.4l9.7 39.2 12.1-39.2h4.6l-15 47.9zM162 37.7v.7c0 4.1 2.4 6.7 5.8 6.7 3.8 0 6.2-2.4 6.2-6.3 0-5.1-2.9-5.5-8.1-7.1-7.4-2.3-11.1-6.5-11.1-13.1 0-9 5.5-14.9 13.8-14.9 7.8 0 12.7 5 13.2 13.8h-8.6v-.4c0-3.1-2-5.1-5-5.1s-5 2-5 5.4c0 1.4.3 2.4 1.1 3.3 1.9 2.1 5.1 2.4 8.9 3.6 6.6 2.2 9.7 6.3 9.7 12.8 0 9.9-6.1 16.3-15.1 16.3-8.6 0-14.4-6.2-14.5-15.8l8.7.1zM188.9 4.7h9.4v47.8h-9.4zM253.5 28.7c0 4.1-.8 7.6-2.3 10.7-4.6 9-12.7 14.1-22.6 14.1-7.3 0-13.5-2.8-18.5-8.2-4.1-4.5-6.3-10.4-6.3-17s2.6-12.7 7.7-17.6c4.8-4.6 10.5-6.9 17.7-6.9 10.3 0 18.1 5.1 22.2 14.8h-11.5c-2.8-3.4-6.6-5.2-11.3-5.2-8.3 0-14.8 6.8-14.8 15.2s6.6 15.3 15.1 15.3c5.8 0 11-3.3 13.3-8.8h-18.9v-8h30.2c-.1.5 0 1.1 0 1.6M288.4 52.6l-20.1-31.5v31.5H259V4.7h8.9l20 30.6V4.7h9.2v47.9zM315.6 33.7h11.5l-5.7-15.4-5.8 15.4zm18.5 18.9-3.8-10h-17.9l-3.7 10h-9.8l18.8-47.8h8.1l18.5 47.8h-10.2zM392.6 28.7c0 4.1-.8 7.6-2.3 10.7-4.5 9-12.7 14.1-22.6 14.1-7.3 0-13.5-2.8-18.5-8.2-4.1-4.5-6.3-10.4-6.3-17s2.6-12.7 7.7-17.6c4.8-4.6 10.5-6.9 17.7-6.9 10.3 0 18.1 5.1 22.2 14.8H379c-2.8-3.4-6.6-5.2-11.3-5.2-8.3 0-14.8 6.8-14.8 15.2s6.6 15.3 15.1 15.3c5.8 0 11-3.3 13.3-8.8h-19v-8h30.2c0 .5.1 1.1.1 1.6M398.1 52.6V4.7h26.1v8.4h-16.7V24h16.7v8.3h-16.7v11.8h16.7v8.5z"
            class="st0"></path>
        <path
            d="M457.6 41.1V14.6l23.2 13.3-23.2 13.2zM466.1.2c-15.7 0-28.4 12.6-28.4 28.1s12.7 28.1 28.4 28.1 28.4-12.6 28.4-28.1S481.7.2 466.1.2"
            style="fill:#0085b3"></path>
    </g>
</svg>