<svg xmlns="http://www.w3.org/2000/svg" viewBox="0 0 575.58 155.61" class="logo-large editable-svg replaced-svg">
    <defs>
        <style>
            .cls-1 {
                fill: #2771e7;
            }
        </style>
    </defs>
    <g id="Layer_2" data-name="Layer 2">
        <g id="Logos">
            <path
                d="M292,0a10.59,10.59,0,0,0-7.78,3.22,10.6,10.6,0,0,0,0,15.24A10.47,10.47,0,0,0,292,21.75a10.69,10.69,0,0,0,7.84-3.29,10.49,10.49,0,0,0,0-15.24A10.82,10.82,0,0,0,292,0Z">
            </path>
            <path
                d="M420.57,0a10.59,10.59,0,0,0-7.78,3.22,10.6,10.6,0,0,0,0,15.24,10.47,10.47,0,0,0,7.78,3.29,10.69,10.69,0,0,0,7.84-3.29,10.47,10.47,0,0,0,0-15.24A10.82,10.82,0,0,0,420.57,0Z">
            </path>
            <path class="cls-1"
                d="M49,155.61A69.41,69.41,0,0,1,.27,135.79a.91.91,0,0,1,0-1.29l11.19-11.2a.91.91,0,0,1,1.28,0,52.25,52.25,0,0,0,72.6,0,.9.9,0,0,1,1.27,0l11.2,11.2a.91.91,0,0,1,0,1.29A69.4,69.4,0,0,1,49,155.61Z">
            </path>
            <path
                d="M350.19,69.25l-8.41-2.8c-3.34-1-5.61-2.14-6.79-3.47a6.43,6.43,0,0,1-1.77-4.35,6.91,6.91,0,0,1,3.1-5.6q3.1-2.37,8.41-2.37a24.58,24.58,0,0,1,8.73,1.5c.35.12,1.6.65,2.45,1a.93.93,0,0,0,1.15-.38l6.45-11.19a.92.92,0,0,0-.24-1.18,32.21,32.21,0,0,0-8.51-4.23,38.74,38.74,0,0,0-12.83-2.06,35,35,0,0,0-14.9,3,24.5,24.5,0,0,0-10.11,8.27,21.15,21.15,0,0,0-3.61,12.32A22.54,22.54,0,0,0,316.55,70q3.26,5.16,11.81,8l9.14,3.24a33.82,33.82,0,0,1,7.38,3.24,5.06,5.06,0,0,1,2.51,4.43,6.4,6.4,0,0,1-3,5.68c-2,1.33-4.89,2-8.63,2a31.78,31.78,0,0,1-7.82-1.1,53.51,53.51,0,0,1-7.08-2.38.9.9,0,0,0-1.14.38l-6.41,11.1a.92.92,0,0,0,.27,1.2,40.17,40.17,0,0,0,10.08,4.67,46,46,0,0,0,14.61,2.36,33.7,33.7,0,0,0,14.53-3.09,26.8,26.8,0,0,0,10.47-8.49,20.4,20.4,0,0,0,3.91-12.32Q367.15,74.26,350.19,69.25Z">
            </path>
            <rect x="282.72" y="35.1" width="18.73" height="76.71" rx="0.91"></rect>
            <rect x="411.26" y="35.1" width="18.73" height="76.71" rx="0.91"></rect>
            <path
                d="M269,35.13c-20.73,0-25.31,8.53-26,10.06,0,.05-.09,0-.09,0V36a.91.91,0,0,0-.91-.91H225.12a.91.91,0,0,0-.91.91V110.9a.91.91,0,0,0,.91.91H242a.91.91,0,0,0,.91-.91V78.31c0-24.64,17.44-27.17,27.28-27.3a.91.91,0,0,0,.9-.91V36a.9.9,0,0,0-.91-.9Z">
            </path>
            <path
                d="M212.1,35.1H192.52a.91.91,0,0,1-.91-.91V.91A.91.91,0,0,0,190.7,0H173.79a.91.91,0,0,0-.91.91v110a.91.91,0,0,0,.91.91H190.7a.91.91,0,0,0,.91-.91v-59a.91.91,0,0,1,.91-.91H212.1a.9.9,0,0,0,.91-.9V36A.91.91,0,0,0,212.1,35.1Z">
            </path>
            <path
                d="M395.3,0H378.39a.91.91,0,0,0-.91.91v110a.91.91,0,0,0,.91.91H395.3a.91.91,0,0,0,.91-.91V.91A.91.91,0,0,0,395.3,0Z">
            </path>
            <path
                d="M78.32,50.37a28.9,28.9,0,0,0-11.95-11,32.19,32.19,0,0,0-15.93-3.84c-10,0-17.46,5.56-19.13,6.7V36.45a.91.91,0,0,0-.91-.91H16.31a.91.91,0,0,0-.91.91V110.9a.91.91,0,0,0,.91.91H33.52a.91.91,0,0,0,.91-.91V70.8q0-8.7,4.06-13A13.89,13.89,0,0,1,49,53.54a13.84,13.84,0,0,1,10.62,4.28q4,4.27,4,13l.15,40.1a.91.91,0,0,0,.91.91H81.76a.91.91,0,0,0,.91-.91V67.41A32.17,32.17,0,0,0,78.32,50.37Z">
            </path>
            <path
                d="M441.49,76.06a39.32,39.32,0,0,0,58.73,31.53.9.9,0,0,0,.32-1.23l-8.33-14.44a.91.91,0,0,0-1.23-.34,20.82,20.82,0,0,1-30.91-15.17A20.88,20.88,0,0,1,480.72,52.6,20.63,20.63,0,0,1,491,55.33a.9.9,0,0,0,1.23-.34l8.34-14.43a.92.92,0,0,0-.35-1.25,39.32,39.32,0,0,0-58.71,36.75Z">
            </path>
            <path
                d="M575.58,73.11c0-25.35-16.55-37.65-36.26-37.65-19.44,0-35.07,15.91-36.41,35.3a39.4,39.4,0,0,0,62.08,35,2.81,2.81,0,0,0,.79-3.7L559,90.32a2.56,2.56,0,0,0-3.83-.72A20.55,20.55,0,0,1,539.32,94c-7.7-1.06-15-5.43-16.55-13.68a.9.9,0,0,1,.89-1.07h47.77C574.62,79.25,575.58,76.47,575.58,73.11ZM539.81,53c8.13,0,16.72,3.39,16.46,12.82a.91.91,0,0,1-.91.88h-31.1a.91.91,0,0,1-.91-.85C523.07,59.59,528.86,53,539.81,53Z">
            </path>
            <path
                d="M98.54,97a29.06,29.06,0,0,0,11.95,11,37.94,37.94,0,0,0,17.34,3.84A37.6,37.6,0,0,0,145,108a29.49,29.49,0,0,0,12-11,31.79,31.79,0,0,0,4.43-17V36.45a.91.91,0,0,0-.91-.91H143.34a.91.91,0,0,0-.91.91v40.1c0,5.8-1.35,10.14-4.05,13a15.25,15.25,0,0,1-21.17,0c-2.66-2.85-4-7.19-4-13l-.14-40.1a.91.91,0,0,0-.91-.91H95.1a.91.91,0,0,0-.91.91V79.94A32.21,32.21,0,0,0,98.54,97Z">
            </path>
        </g>
    </g>
</svg>