<svg xmlns="http://www.w3.org/2000/svg" width="240" height="48" viewBox="0 0 240 48" fill="none"><path d="M184.835 35.6465C184.679 35.2258 184.603 34.7799 184.603 34.279L184.142 27.5661C184.123 27.1602 184.103 26.7796 184.103 26.3737C183.872 15.9839 177.411 9.56158 167.115 9.56158C162.361 9.56158 157.917 11.4652 154.572 14.9118C151.3 18.2983 149.511 22.7619 149.587 27.4909C149.761 37.4551 156.36 43.9024 166.379 43.9024C175.035 43.9024 177.575 40.2654 177.596 40.2304V40.1902V40.1502C174.499 36.7637 173.076 36.6885 170.802 37.3248C169.495 37.8258 168.127 38.0762 166.725 38.0762C163.88 38.0762 161.224 36.9391 159.26 34.9001C157.086 32.6308 155.893 29.4197 156.029 26.0682C156.259 20.202 161.203 15.8136 166.284 15.8136C170.091 15.8136 173.017 16.9858 174.98 19.2952C176.693 21.3141 177.866 24.1796 177.866 27.5862C177.866 28.3727 177.791 29.1641 177.616 29.9306C177.541 30.3514 177.44 30.7572 177.309 31.163C176.884 32.5657 177.655 33.8581 178.061 34.8952C178.197 35.2208 178.311 35.5514 178.407 35.8169C178.732 36.9541 180.601 41.4728 180.622 41.5329C181.063 42.6499 182.159 43.4165 183.372 43.4165H187.814L184.855 35.6266L184.835 35.6465Z" fill="#4DABE9"></path><path d="M17.2932 9.57657C7.1186 9.57657 0 16.635 0 26.7545C0 36.8738 7.1387 43.9324 17.3533 43.9324C27.5679 43.9324 34.6465 36.8939 34.6465 26.8297C34.6414 16.7704 27.5078 9.57657 17.2932 9.57657ZM17.3281 37.5703C11.3667 37.5703 6.51745 32.721 6.51745 26.7596C6.51745 20.798 11.3667 15.9487 17.3281 15.9487C23.2897 15.9487 28.139 20.798 28.139 26.7596C28.139 32.721 23.2946 37.5703 17.3281 37.5703Z" fill="#4DABE9"></path><path d="M76.1209 9.57657C70.9058 9.57657 66.793 11.866 64.5387 16.0389C62.3095 11.921 58.0963 9.57657 52.9564 9.57657C44.4152 9.57657 39.3153 15.0971 39.3153 24.3499V40.2204C39.3153 41.9887 40.7581 43.4315 42.5265 43.4315C44.2949 43.4315 45.7376 41.9887 45.7376 40.2204V24.3499C45.7376 21.4243 46.469 19.175 47.9319 17.657C49.2594 16.2744 51.2031 15.543 53.5476 15.543C55.8921 15.543 57.7608 16.2944 59.1082 17.6971C60.5711 19.215 61.3425 21.5245 61.3425 24.3348V40.2253C61.3425 41.9936 62.7853 43.4365 64.5538 43.4365C66.3221 43.4365 67.7648 41.9936 67.7648 40.2253V24.3549C67.7648 18.8343 70.6503 15.543 75.4996 15.543C77.8441 15.543 79.7878 16.2744 81.1155 17.657C82.5782 19.175 83.3096 21.4292 83.3096 24.3499V40.2204C83.3096 41.9887 84.7524 43.4315 86.5208 43.4315C88.2892 43.4315 89.7319 41.9887 89.7319 40.2204V24.3499C89.7319 15.0971 84.6322 9.57657 76.0908 9.57657H76.1209Z" fill="#4DABE9"></path><path d="M131.196 9.57657C125.981 9.57657 121.868 11.866 119.614 16.0389C117.385 11.921 113.172 9.57657 108.032 9.57657C99.4907 9.57657 94.3908 15.0971 94.3908 24.3499V40.2204C94.3908 41.9887 95.8337 43.4315 97.602 43.4315C99.3704 43.4315 100.813 41.9887 100.813 40.2204V24.3499C100.813 21.4243 101.545 19.175 103.007 17.657C104.335 16.2744 106.279 15.543 108.623 15.543C110.968 15.543 112.836 16.2944 114.184 17.6971C115.647 19.215 116.413 21.5245 116.413 24.3348V40.2253C116.413 41.9936 117.856 43.4365 119.624 43.4365C121.392 43.4365 122.835 41.9936 122.835 40.2253V24.3549C122.835 18.8343 125.721 15.543 130.57 15.543C132.915 15.543 134.858 16.2744 136.185 17.657C137.649 19.175 138.38 21.4292 138.38 24.3499V40.2204C138.38 41.9887 139.823 43.4315 141.591 43.4315C143.359 43.4315 144.802 41.9887 144.802 40.2204V24.3499C144.802 15.0971 139.703 9.57657 131.161 9.57657H131.196Z" fill="#4DABE9"></path><path d="M206.325 5.13806H205.875V15.6181C205.875 17.5569 207.678 19.1299 209.887 19.1299H210.338V8.65478C210.338 6.71613 208.54 5.13806 206.325 5.13806ZM209.436 8.65478V18.3034C207.918 18.1079 206.782 16.9657 206.782 15.6232V5.97473C208.294 6.17006 209.436 7.31223 209.436 8.65478Z" fill="black"></path><path d="M203.069 11.31C202.118 10.5234 200.735 10.0274 198.947 9.83713H198.931C197.478 9.69183 197.478 9.55159 197.478 9.4112C197.488 9.3512 197.819 9.16079 198.49 9.16079C199.162 9.16079 199.707 9.25101 200.183 9.4313C200.449 9.5315 200.725 9.58166 201 9.58166C201.671 9.58166 202.282 9.286 202.689 8.77L204.022 7.07684C204.046 7.04677 204.051 7.01164 204.046 6.97665C204.04 6.94152 204.022 6.91145 203.986 6.89149L203.485 6.57082C200.98 4.9728 198.74 4.99781 198.496 5.00287C198.205 4.99275 195.614 4.93766 193.976 6.4206C193.151 7.16692 192.7 8.16884 192.639 9.39125V9.40629C192.639 11.0795 193.23 12.2668 194.443 13.0382C195.57 13.7496 197.088 13.97 198.291 14.0802C199.407 14.1804 199.752 14.456 199.752 14.5411C199.752 14.7464 199.266 14.9669 198.476 14.9669C197.494 14.9669 196.677 14.7464 195.98 14.2956C195.685 14.1052 195.344 14.005 194.994 14.005C194.472 14.005 193.976 14.2306 193.631 14.6212L192.093 16.3796C192.048 16.4298 192.053 16.5048 192.098 16.555L192.44 16.9106C194.328 18.8895 196.09 19.2852 198.32 19.2852H198.46C200.004 19.2752 201.437 18.9094 202.498 18.2532C203.841 17.4216 204.552 16.1593 204.552 14.5962C204.557 13.2285 204.056 12.1265 203.069 11.31ZM194.994 14.8417C195.179 14.8417 195.364 14.8968 195.519 14.997C196.362 15.5431 197.328 15.8034 198.476 15.8034C199.783 15.8034 200.595 15.3175 200.595 14.5361C200.595 13.8148 199.823 13.3689 198.366 13.2336C195.435 12.9681 193.486 12.2166 193.48 9.41627C193.531 8.42937 193.887 7.62783 194.543 7.04171C195.129 6.51068 195.941 6.14995 196.947 5.9646C197.73 5.81945 198.356 5.8394 198.476 5.84446H198.51C198.721 5.83448 200.63 5.80441 202.874 7.17704L202.032 8.24908C201.786 8.55964 201.416 8.73501 201.006 8.73501C200.829 8.73501 200.654 8.70494 200.49 8.63974C199.913 8.42431 199.262 8.31414 198.5 8.31414C197.374 8.31414 196.647 8.74499 196.647 9.40629C196.647 10.4483 197.714 10.5584 198.846 10.6737H198.856C200.48 10.849 201.721 11.2799 202.543 11.9611C203.329 12.6125 203.725 13.4941 203.725 14.5912C203.725 15.8636 203.169 16.8505 202.067 17.5319C201.136 18.1079 199.858 18.4286 198.466 18.4385H198.325C196.356 18.4385 194.808 18.103 193.165 16.4397L194.273 15.1724C194.452 14.9619 194.718 14.8417 194.994 14.8417Z" fill="black"></path><path d="M220.528 14.2505C220.528 14.5661 220.398 14.8517 220.167 15.062C219.972 15.2374 219.706 15.3326 219.425 15.3326H218.87C217.848 15.3326 217.191 14.7765 216.815 14.3107C216.34 13.7146 216.049 12.913 216.049 12.1615C216.049 10.0124 217.096 8.83014 219.004 8.83014C219.581 8.83014 220.679 8.96041 221.579 9.82701C221.735 9.97737 221.986 9.97231 222.14 9.8221L224.19 7.74812C224.339 7.59284 224.339 7.34229 224.195 7.18701C222.341 5.27337 220.603 5.00778 219.004 5.00778C216.73 5.00778 214.836 5.78937 213.535 7.27217C212.401 8.55458 211.775 10.293 211.775 12.1615C211.775 14.0302 212.362 15.7886 213.424 17.0208C214.686 18.4836 216.61 19.2602 218.984 19.2602C220.518 19.2602 221.951 18.9145 223.018 18.2883C224.085 17.6621 224.751 16.4698 224.751 15.1724V11.4652H220.522L220.528 14.2505ZM218.98 18.4635C216.815 18.4635 215.147 17.8024 214.025 16.5049C213.084 15.4179 212.568 13.8748 212.568 12.1666C212.568 10.4582 213.119 8.94537 214.125 7.80826C215.273 6.50576 216.961 5.81438 219 5.81438C220.548 5.81438 221.88 6.09993 223.339 7.47761L221.831 9.00046C220.783 8.16393 219.606 8.03858 218.994 8.03858C217.858 8.03858 216.915 8.40436 216.265 9.09573C215.588 9.81703 215.242 10.849 215.242 12.1715C215.242 13.1134 215.584 14.0752 216.185 14.8216C216.866 15.6733 217.817 16.1392 218.86 16.1392H219.516C219.746 16.1392 219.967 16.094 220.162 16.004C220.878 15.6833 221.325 15.012 221.319 14.2505L221.315 12.2668H223.945V15.1773C223.945 16.1893 223.433 17.121 222.607 17.6069C221.665 18.158 220.372 18.4635 218.98 18.4635Z" fill="black"></path><path d="M229.845 5.83437C229.836 5.82439 229.83 5.81933 229.82 5.80935C229.249 5.2734 228.448 5.13808 227.731 5.45369C227.015 5.76931 226.569 6.45562 226.569 7.24213V16.8105C226.569 18.0128 227.536 18.9846 228.723 18.9846H237.385C238.197 18.9846 238.888 18.5087 239.183 17.7472C239.479 16.9858 239.299 16.1743 238.712 15.6132L229.845 5.83437ZM238.386 17.4317C238.256 17.7673 237.925 18.118 237.385 18.118H228.723C228.012 18.118 227.43 17.5319 227.43 16.8105V7.24213C227.43 6.79625 227.672 6.42555 228.077 6.24526C228.223 6.18005 228.373 6.14998 228.518 6.14998C228.773 6.14998 229.024 6.24526 229.225 6.43553L238.096 16.2144C238.106 16.2243 238.112 16.2294 238.122 16.2394C238.512 16.6101 238.517 17.1011 238.386 17.4317Z" fill="black"></path><path d="M238.663 5.28842H234.218C233.718 5.28842 233.273 5.59392 233.092 6.06496C232.911 6.53079 233.027 7.05184 233.383 7.39739L237.935 12.4521C237.946 12.4621 237.951 12.4722 237.961 12.4771C238.191 12.6926 238.482 12.8078 238.783 12.8078C238.947 12.8078 239.114 12.7728 239.274 12.7025C239.724 12.5072 240 12.0764 240 11.5805V6.63098C239.996 5.88958 239.399 5.28336 238.663 5.28842ZM239.114 11.5805C239.114 11.7809 238.973 11.861 238.913 11.891C238.853 11.916 238.707 11.9611 238.563 11.841L234.013 6.79132C234.003 6.7812 233.999 6.77122 233.988 6.7663C233.834 6.621 233.889 6.44563 233.903 6.39546C233.923 6.34544 234.003 6.18004 234.214 6.18004H238.657C238.908 6.18004 239.108 6.38548 239.108 6.63604V11.5805H239.114Z" fill="black"></path></svg>