<?xml version="1.0" encoding="utf-8"?>
<!-- Generator: Adobe Illustrator 27.8.1, SVG Export Plug-In . SVG Version: 6.00 Build 0)  -->
<svg version="1.1" id="New_Logo" xmlns="http://www.w3.org/2000/svg" xmlns:xlink="http://www.w3.org/1999/xlink" x="0px" y="0px"
	 viewBox="0 0 428 70" style="enable-background:new 0 0 428 70;" xml:space="preserve">
<style type="text/css">
	.st0{fill:#0096F3;}
</style>
<path d="M110.33,34.3c0-5.37,0.96-9.26,2.94-11.54c1.99-2.35,4.63-3.53,7.94-3.53c3.38,0,6.1,1.18,8.09,3.45
	c1.99,2.28,3.02,5.88,3.02,10.88c0,5.88-0.96,9.93-2.87,12.2c-1.91,2.28-4.63,3.46-8.09,3.46c-3.46,0-6.1-1.18-8.09-3.53
	C111.29,43.42,110.33,39.6,110.33,34.3z M94.82,34.23c0,6.1,1.25,11.25,3.68,15.37c2.43,4.04,5.51,7.06,9.41,8.97
	c3.9,1.84,8.82,2.79,14.78,2.79c5.81,0,10.73-1.1,14.63-3.23c3.9-2.2,6.91-5.29,8.97-9.19c2.06-3.97,3.09-9.04,3.09-15.14
	c0-8.53-2.35-15.07-7.13-19.78c-4.71-4.71-11.47-7.06-20.22-7.06c-8.53,0-15.22,2.43-20,7.21C97.25,18.94,94.82,25.63,94.82,34.23z"
	/>
<path d="M165.09,22.32v5.59c1.98-2.28,3.97-3.97,5.95-4.93c1.99-1.03,4.41-1.47,7.2-1.47c3.09,0,5.44,0.51,7.21,1.62
	c1.84,1.03,3.23,2.65,4.34,4.78c2.35-2.5,4.41-4.19,6.32-5.07c1.91-0.88,4.19-1.32,6.98-1.32c4.12,0,7.28,1.18,9.63,3.6
	c2.28,2.43,3.38,6.25,3.38,11.4v23.97h-14.63V38.79c0-1.77-0.37-3.01-0.96-3.9c-1.03-1.25-2.2-1.98-3.68-1.98
	c-1.76,0-3.16,0.66-4.19,1.91c-1.03,1.25-1.54,3.23-1.54,5.96v19.7h-14.7V39.45c0-1.62-0.07-2.79-0.29-3.38
	c-0.29-0.96-0.81-1.76-1.62-2.35c-0.74-0.59-1.62-0.81-2.65-0.81c-1.69,0-3.09,0.59-4.12,1.84c-1.1,1.32-1.62,3.38-1.62,6.25v19.48
	h-14.63V22.32H165.09z"/>
<path d="M232.48,22.32v6.25c2.06-2.57,4.12-4.34,6.18-5.44c2.06-1.1,4.63-1.62,7.65-1.62c4.04,0,7.21,1.18,9.49,3.6
	c2.28,2.43,3.38,6.1,3.38,11.1v24.26h-14.63V39.52c0-2.42-0.44-4.12-1.32-5.07c-0.88-1.03-2.13-1.54-3.75-1.54
	c-1.77,0-3.24,0.74-4.34,2.06c-1.1,1.32-1.62,3.75-1.62,7.2v18.31h-14.63V22.32H232.48z"/>
<g>
	<rect x="261.85" y="7.83" width="14.63" height="9.92"/>
	<polygon points="305.33,22.32 297.53,40.92 289.74,22.32 276.48,22.32 275.03,22.32 261.85,22.32 261.85,60.48 276.48,60.48 
		276.48,25.8 290.91,60.48 304.15,60.48 320.03,22.32 	"/>
</g>
<path d="M359.86,45.04h-29.33c0.29,2.35,0.96,4.04,1.91,5.22c1.4,1.62,3.24,2.5,5.52,2.5c1.47,0,2.87-0.37,4.12-1.1
	c0.37-0.22,0.81-0.59,1.32-1.1c0.52-0.52,1.03-1.18,1.4-1.91h15c-0.44,1.1-0.96,2.21-1.62,3.24c-0.66,1.1-1.4,2.06-2.21,2.94
	c-0.81,0.88-1.62,1.69-2.43,2.35c-0.88,0.74-1.69,1.25-2.5,1.69c-3.09,1.62-7.57,2.43-13.38,2.43c-2.5,0-4.71-0.15-6.69-0.51
	c-1.99-0.37-3.68-0.88-5.22-1.62c-1.55-0.66-2.87-1.62-4.04-2.72c-1.18-1.1-2.21-2.43-3.16-3.97c-1.91-3.16-2.87-6.77-2.87-10.96
	c0-5.96,1.91-10.81,5.74-14.48c3.82-3.68,9.12-5.52,15.81-5.52c4.05,0,7.43,0.51,10.29,1.4c2.79,0.88,5.07,2.21,6.91,3.97
	c1.76,1.84,3.09,4.12,3.97,6.84c0.88,2.72,1.47,5.96,1.47,9.71V45.04z M345.01,38.05c-0.29-2.87-1.03-4.85-2.28-6.1
	c-1.25-1.25-2.87-1.84-4.93-1.84c-2.28,0-4.04,0.96-5.51,2.79c-0.88,1.1-1.47,2.87-1.69,5.15H345.01z"/>
<path d="M354.95,22.32h16.47l6.91,8.53l6.91-8.53h16.47l-15.15,18.6l15.88,19.56h-16.47l-7.65-9.41l-7.65,9.41h-16.47l15.88-19.56
	L354.95,22.32z"/>
<g>
	<path class="st0" d="M29.61,9.57c-0.41,1.38,0.37,2.83,1.75,3.24c10.96,3.27,20.42,10.4,26.62,20.08c0.78,1.21,2.39,1.57,3.6,0.79
		c1.21-0.78,1.57-2.39,0.79-3.6C55.51,19.35,45.02,11.44,32.86,7.81C31.48,7.41,30.02,8.19,29.61,9.57z"/>
	<path class="st0" d="M47,7.52c-0.76,1.22-0.38,2.83,0.84,3.59c11.51,7.15,20.02,18.19,23.99,31.08c0.42,1.38,1.88,2.15,3.26,1.73
		c1.38-0.42,2.15-1.88,1.73-3.26C72.48,26.57,63.17,14.5,50.59,6.68C49.37,5.92,47.76,6.29,47,7.52z"/>
	<path class="st0" d="M66.47,12.19c-1.06,0.97-1.13,2.62-0.16,3.68c10.73,11.7,16.65,26.9,16.65,42.79c0,1.44,1.17,2.61,2.61,2.61
		c1.44,0,2.61-1.17,2.61-2.61c0-17.2-6.4-33.65-18.02-46.32C69.18,11.29,67.53,11.22,66.47,12.19z"/>
	<path class="st0" d="M13.77,15.97c0,1.44,1.17,2.61,2.61,2.61c9.72,0,19.1,3.53,26.4,9.93c1.08,0.95,2.73,0.84,3.68-0.24
		c0.95-1.08,0.84-2.73-0.24-3.68c-8.25-7.24-18.85-11.22-29.84-11.22C14.93,13.36,13.77,14.53,13.77,15.97z"/>
</g>
<path d="M406.55,21.62c0-2.39,1.8-4.18,4.1-4.18c2.28,0,4.08,1.8,4.08,4.18c0,2.42-1.8,4.21-4.08,4.21
	C408.35,25.83,406.55,24.05,406.55,21.62z M410.65,26.67c2.74,0,5.09-2.13,5.09-5.05c0-2.89-2.34-5.02-5.09-5.02
	c-2.77,0-5.12,2.13-5.12,5.02C405.53,24.54,407.88,26.67,410.65,26.67z M409.58,22.02h1.01l1.53,2.52h0.99l-1.65-2.56
	c0.85-0.11,1.51-0.56,1.51-1.6c0-1.15-0.68-1.65-2.05-1.65h-2.21v5.81h0.88V22.02z M409.58,21.28v-1.8h1.2
	c0.61,0,1.27,0.13,1.27,0.85c0,0.89-0.67,0.95-1.41,0.95H409.58z"/>
</svg>
