<?xml version="1.0" encoding="UTF-8"?>
<!DOCTYPE svg PUBLIC "-//W3C//DTD SVG 1.1//EN" "http://www.w3.org/Graphics/SVG/1.1/DTD/svg11.dtd">
<!-- Creator: CorelDRAW 2019 (64-Bit) -->
<svg xmlns="http://www.w3.org/2000/svg" xml:space="preserve" width="9.3132mm" height="8.9746mm" version="1.1" style="shape-rendering:geometricPrecision; text-rendering:geometricPrecision; image-rendering:optimizeQuality; fill-rule:evenodd; clip-rule:evenodd"
viewBox="0 0 931.32 897.46"
 xmlns:xlink="http://www.w3.org/1999/xlink">
 <defs>
  <style type="text/css">
   <![CDATA[
    .fil1 {fill:#FEFEFE}
    .fil3 {fill:#F6FAFD}
    .fil2 {fill:#1765AD}
    .fil0 {fill:#3D9BE9}
   ]]>
  </style>
 </defs>
 <g id="Слой_x0020_1">
  <metadata id="CorelCorpID_0Corel-Layer"/>
  <g id="_1899380530160">
   <path class="fil0" d="M775.07 371.27l-315.64 134.11 -303.19 -129.8 217.53 23.01 87 -140.46 93.26 140.18 221.04 -27.04zm-653.32 -11.48l0.06 0.03c-3.77,-6.1 2.38,-14.36 9.76,-14.3l224.19 22.66c1.57,-2.76 91.98,-148.4 92.25,-150.29 5.03,-8.49 17.45,-9.25 23.02,0.53l102.56 151.15c1.89,1.22 202.77,-25.17 207.27,-25.69 22.43,-3.02 24.74,8.95 16.93,18.37l-135.1 206.9 -202.42 -54.21c-2.8,-1.08 -183.33,48.73 -202.63,53.93l-135.89 -209.08z"/>
   <polygon class="fil1" points="461.21,259 554.47,398.09 773.66,371.45 459.76,505.38 156.39,375.67 373.98,398.81 "/>
   <path class="fil1" d="M393.87 545.51c-3.47,1.47 -28.29,7.58 -32.4,7.88 -0.19,-5.28 0.36,-37.29 1.79,-39.7 2.06,-1.62 27.1,-7.28 31.65,-8.28l-1.04 40.1z"/>
   <path class="fil1" d="M613.42 503.24l-33.03 3.11 0.28 -39.35c8.8,-1.81 23.55,-2.71 32.94,-2.97l-0.19 39.21z"/>
   <path class="fil1" d="M657.92 501.8l-33.04 0.63 -0.1 -39.04c5.46,-0.56 28.46,-0.94 33.1,0l0.04 38.41z"/>
   <path class="fil1" d="M702.09 466.58c1.22,4.29 0.48,31.53 0.5,38.16l-33.23 -2.59 -0.2 -38.18c7.82,-0.97 24.34,1.79 32.93,2.61z"/>
   <path class="fil0" d="M746.87 475.52l0.18 37.18c-4.68,-0.33 -11.32,-2.54 -16.21,-3.44 -4.2,-0.77 -14.03,-1.36 -16.99,-3.02 -1.31,-2.94 -0.64,-31.84 -0.51,-37.59 5.15,-0.03 30.14,4.93 33.53,6.87z"/>
   <path class="fil1" d="M274.06 572.2c0.16,-6.35 0.44,-35.28 2.11,-38.68l31.83 -4.54c-0.36,11.91 -0.64,25.06 -1.49,36.81 -0.3,4.18 -3.29,2.98 -14.2,4.51 -6.07,0.85 -12.08,1.58 -18.25,1.9z"/>
   <path class="fil1" d="M349.66 560.47c-3.36,1.59 -27.5,5.78 -32.31,6.06l1.6 -38.84c0.19,-0.05 0.33,-0.14 0.44,-0.21l0.14 -4.06 32.12 -7.54 -1.29 40.08 -0.53 0.13 -0.17 4.38z"/>
   <path class="fil0" d="M791.95 489.28l0.28 36.74 -33.66 -10.47 -0.28 -37.28c4.98,0.85 12.15,3.62 17.06,5.19 6,1.93 11.31,3.98 16.6,5.82z"/>
   <path class="fil1" d="M580.64 557.04l-0.16 -37.44c6.14,-0.91 28.11,-3.83 33.15,-2.97 0.04,4.02 0.45,35.44 -0.19,36.48 -0.61,0.99 -29.37,3.76 -32.8,3.93z"/>
   <path class="fil1" d="M490.9 578.29l0.26 -37.47c6.66,-1.93 26.16,-7.18 32.77,-7.47 -0.01,4.85 0.88,35.99 -0.95,37.49 -0.24,0.2 -29.65,7.2 -32.08,7.45z"/>
   <path class="fil1" d="M230.86 574.71l1.49 -37.76 32.42 -2.44c-0.45,11.96 -0.82,24.16 -1.51,36.1 -0.25,4.3 -3.3,3.06 -14.27,3.55 -5.81,0.26 -12.36,0.96 -18.13,0.55z"/>
   <path class="fil1" d="M702.54 517.55l0.51 36.74c-4.42,-0.21 -31.28,-1.8 -33.06,-2.37 -1.25,-3.49 -0.7,-30.72 -0.46,-36.62 10.26,-0.27 22.68,1.19 33.01,2.25z"/>
   <path class="fil1" d="M569.3 526.24l-0.03 31.5c-0.54,1.63 -13.16,2.92 -16.15,3.38 -5.7,0.87 -11.36,2.33 -16.91,2.84l0.14 -37.57 32.93 -5.5 0.02 5.35z"/>
   <path class="fil1" d="M569.44 505.34l-32.85 7.03 0.17 -37.33 7.94 -2.19c6.59,-1.41 19.5,-4.63 24.83,-5.2l-0.09 37.69z"/>
   <polygon class="fil1" points="658.29,551.89 625.05,552.65 624.87,515.61 658.1,514.56 "/>
   <path class="fil0" d="M479.7 581.22l-32.43 7.91c-0.61,-3.96 -0.44,-35.2 0.52,-37.02 0.93,-1.36 5.77,-2.18 7.28,-2.56l24.95 -5.88 -0.32 37.55z"/>
   <path class="fil0" d="M747.07 525.63l0.38 35.98c-5.68,-0.72 -11.08,-2.49 -16.67,-3.36 -5.5,-0.86 -11.38,-1.35 -16.76,-2.52l-0.33 -36.37c6.01,0.31 29.09,4.22 33.38,6.27z"/>
   <path class="fil0" d="M221.08 536.71l-1.53 37.72c-6.96,1.05 -24.43,-0.52 -32,-1.22l1.11 -37.02 32.42 0.52z"/>
   <polygon class="fil0" points="435.89,591.64 403.56,599.65 403.89,562.07 436.4,554.17 "/>
   <polygon class="fil0" points="392.25,601.76 359.83,609.11 360.41,571.84 392.81,564.44 "/>
   <path class="fil0" d="M656.55 596.36l-33.2 3.43c-0.04,-7.45 -1.15,-30.14 0.11,-35.65 7.73,-0.99 25.98,-3.88 32.9,-3.15l0.19 35.37z"/>
   <path class="fil0" d="M177.6 534.74l-1.28 37.04c-10.22,-0.23 -22.41,-3.03 -32.1,-4.9l0.97 -35.95c2.86,-0.49 11.8,1.6 15.3,2.11 5.26,0.75 11.7,1.24 17.11,1.7z"/>
   <path class="fil0" d="M305.28 618.19c-9.67,1.54 -22.52,3.22 -32.24,3.41l0.72 -36.44 32.36 -3.77 -0.84 36.8z"/>
   <path class="fil0" d="M612.1 601.53l-33.06 5.24 -0.24 -35.65c10.1,-1.34 23.1,-5.02 33.11,-5.14l0.19 35.55z"/>
   <polygon class="fil0" points="348.72,610.96 316.42,616.77 317.01,579.9 349.23,574.01 "/>
   <path class="fil0" d="M790.05 603.45c-4.45,-0.34 -10.71,-2.28 -15.51,-3.06 -7.37,-1.21 -17.07,-0.61 -17.73,-3.92l-0.16 -33.64c5.4,0.21 27.71,3.64 31.97,5.32 2.46,0.96 1.57,4 1.56,7.25 0,6.17 0.52,24.38 -0.13,28.05z"/>
   <polygon class="fil0" points="567.79,608.97 534.94,616.06 534.69,580.27 567.57,573.17 "/>
   <path class="fil0" d="M262.02 622.34c-5.54,1.34 -25.58,1.3 -32.2,1.23l0.68 -35.75 32.3 -1.62 -0.78 36.14z"/>
   <polygon class="fil0" points="479.67,628.56 446.96,636.45 446.82,600.86 479.43,593.06 "/>
   <path class="fil0" d="M435.79 639.13c-6.34,1.08 -28.27,7.58 -32.68,7.02l-0.04 -34.68 32.63 -7.87 0.09 35.53z"/>
   <path class="fil0" d="M175.94 584.26l-0.45 35.19c-4.63,0.05 -27.96,-4.16 -31.8,-5.89l0.25 -34.22c2.96,-0.68 12.12,2.04 15.5,2.66 5.31,0.98 10.93,1.28 16.5,2.26z"/>
   <path class="fil1" d="M525.13 516.71c-3.55,1.23 -30.03,7.03 -32.77,6.91l0.72 -39.51c3.32,-1.5 27.92,-6.61 32.53,-7.11l-0.48 39.71z"/>
   <path class="fil2" d="M463.68 1.35l200.48 111.21 200.48 111.2 0 222.42 0 222.41 -200.48 111.21 -200.48 111.2 -200.47 -111.2 -200.48 -111.21 0 -222.41 0 -222.42 200.48 -111.2 200.47 -111.21zm0.25 47.13l175.9 101.76 179.05 97.3 -2.9 198.64 2.65 199.05 -178.8 96.88 -176.39 101.76 -175.9 -101.76 -179.05 -97.3 2.9 -198.63 -2.65 -199.06 178.8 -96.88 176.39 -101.76z"/>
   <polygon class="fil0" points="463.68,48.63 463.68,1.35 864.64,223.76 818.85,249.16 818.88,247.54 639.83,150.24 463.93,48.48 "/>
   <polygon class="fil0" points="463.37,843.83 463.68,890.95 62.73,668.59 108.53,641.84 108.49,644.81 287.54,742.11 "/>
   <polygon class="fil3" points="463.37,843.83 463.68,891 864.64,668.59 818.6,643.05 818.63,645.23 639.83,742.11 463.44,843.87 "/>
   <polygon class="fil3" points="463.68,48.63 463.68,1.35 63.99,222.01 108.75,248.56 108.74,247.12 287.54,150.24 "/>
  </g>
 </g>
</svg>
