<svg xmlns="http://www.w3.org/2000/svg" width="198.286" height="36.077"><defs><linearGradient id="a" x1=".189" y1=".251" x2=".709" y2=".804" gradientUnits="objectBoundingBox"><stop offset="0" stop-color="#2e63fd"/><stop offset="1" stop-color="#179aff"/></linearGradient></defs><g data-name="Group 5"><path data-name="Path 11" d="M148.335 25.064h-4.205c.477 3.249 3.44 5.3 7.216 5.3 2.675 0 5.829-.526 7.884-2.437h.238v2.008c0 3.3-2.246 5.829-9.318 5.829a12.711 12.711 0 01-12.663-12.949c0-8.6 5.256-14 12.615-14 5.352 0 10.322 3.822 10.322 9.986 0 4.734-3.584 6.263-12.089 6.263zm1.194-10.894a5.507 5.507 0 00-5.4 5.495l-.048.86h2.867c6.069 0 7.454-.669 7.454-2.485.001-2.581-1.91-3.87-4.873-3.87z"/></g><path data-name="Path 12" d="M98.176 27.259v8.518H72.821V.201h24.9v8.518H82.592v5.011H95.52v7.914H82.592v5.612z" fill="#179aff"/><path data-name="Path 14" d="M60.748 20.329l-1.457-2.026L44.991.235h-7.555v35.554h9.617v-17.5l13.7 17.074z" fill="#179aff"/><g data-name="Group 11"><path data-name="Path 13" d="M34.85 11.475a18.437 18.437 0 00-3.633-5.813 18.03 18.03 0 00-5.662-4.109A17.123 17.123 0 0018.189 0 17.788 17.788 0 0010.9 1.482a18.447 18.447 0 00-5.763 3.959 17.954 17.954 0 00-3.783 5.737A17.473 17.473 0 000 17.939a17.913 17.913 0 001.3 6.714 18.476 18.476 0 003.658 5.787 18.186 18.186 0 005.662 4.084 17.1 17.1 0 007.366 1.553 17.522 17.522 0 007.29-1.5 18.485 18.485 0 005.737-3.984 18.245 18.245 0 003.758-5.712 17.284 17.284 0 001.353-6.739 18.1 18.1 0 00-1.274-6.667z" fill="#179aff"/><path data-name="Path 15" d="M318.2 450.98a16.59 16.59 0 003.4-1.107 18.485 18.485 0 005.737-3.984 18.2 18.2 0 003.461-5.044l-7.829-7.829a2.236 2.236 0 00-.878-.712l-11.958-5.977a1.659 1.659 0 00-2.607 1.611v11.338a2.055 2.055 0 00.49 1.447c-.011.012-.021.026-.033.038z" transform="translate(-296.321 -415.299)" fill="url(#a)"/><path data-name="Path 16" d="M13.812 11.029a1.659 1.659 0 00-2.607 1.611v11.338a1.659 1.659 0 002.607 1.611l11.958-5.977c1.434-.717 1.434-1.889 0-2.606z" fill="#fff"/></g><g data-name="Group 6"><path data-name="Path 17" d="M121.377 20.665a66.368 66.368 0 01-7.434 14.821h-1.24c-1.906 0-2.907-.667-4.193-2.574-3.479-5.29-7.864-16.489-8.435-23.447h3.431a3.859 3.859 0 013.813 3.05 53.507 53.507 0 004.908 15.015 63.273 63.273 0 005.623-18.062h2.717c2.192 0 3 .953 3 3.05a35 35 0 01-2.19 8.147z"/><path data-name="Path 18" d="M129.148 7.654a3.763 3.763 0 01-3.717-3.765 3.722 3.722 0 013.717-3.717 3.763 3.763 0 013.765 3.717 3.8 3.8 0 01-3.765 3.765zm4.528 27.784c-4.956 0-7.673-2.812-7.673-8.007V10.037h1.811c2.86 0 4.576 1.525 4.576 4.765v12.01c0 2.573 1.1 3.383 3.908 3.383h1.195v1.383c0 2.764-1.1 3.861-3.818 3.861z"/><path data-name="Path 19" d="M195.332 22.856a61.039 61.039 0 01-5.957 12.63h-1.049c-2 0-3.527-1.859-4.385-3.431a43.306 43.306 0 01-4.242-11.533c-.81 3.908-3.812 11.866-6.1 14.964h-.858c-1.907 0-3.718-1.906-4.575-3.431a61.834 61.834 0 01-7.339-22.59h3.431a3.743 3.743 0 013.718 3.1 56.527 56.527 0 004.1 13.916c2.335-5.1 3.622-10.628 4.861-16.06h2.1a4.244 4.244 0 014.527 3.622 60.482 60.482 0 004.146 12.439 71.229 71.229 0 004.814-17.156h2.669c1.811 0 3.1.81 3.1 2.764a54.341 54.341 0 01-2.961 10.766z"/></g><g data-name="Group 7"><path data-name="Path 20" d="M66.14.507c-1.839 0-2.479.019-7.724 2.059l.037 6.925 4.334-1.67v23.384a4.245 4.245 0 004.45 4.584h2.544V4.267A3.674 3.674 0 0066.14.507z"/></g></svg>