<svg width="200" viewBox="0 0 426 96" fill="none" xmlns="http://www.w3.org/2000/svg">
    <path
        d="M96.808 71.704C91.9973 71.704 87.656 70.6773 83.784 68.624C79.9707 66.5707 76.9493 63.6373 74.72 59.824C72.5493 56.0107 71.464 51.552 71.464 46.448C71.464 41.4027 72.5787 36.9733 74.808 33.16C77.0373 29.288 80.088 26.3253 83.96 24.272C87.832 22.2187 92.1733 21.192 96.984 21.192C101.795 21.192 106.136 22.2187 110.008 24.272C113.88 26.3253 116.931 29.288 119.16 33.16C121.389 36.9733 122.504 41.4027 122.504 46.448C122.504 51.4933 121.36 55.952 119.072 59.824C116.843 63.6373 113.763 66.5707 109.832 68.624C105.96 70.6773 101.619 71.704 96.808 71.704ZM96.808 58.68C99.6827 58.68 102.117 57.624 104.112 55.512C106.165 53.4 107.192 50.3787 107.192 46.448C107.192 42.5173 106.195 39.496 104.2 37.384C102.264 35.272 99.8587 34.216 96.984 34.216C94.0507 34.216 91.616 35.272 89.68 37.384C87.744 39.4373 86.776 42.4587 86.776 46.448C86.776 50.3787 87.7147 53.4 89.592 55.512C91.528 57.624 93.9333 58.68 96.808 58.68ZM136.735 28.848C138.202 26.56 140.226 24.712 142.807 23.304C145.389 21.896 148.41 21.192 151.871 21.192C155.919 21.192 159.586 22.2187 162.871 24.272C166.157 26.3253 168.738 29.2587 170.615 33.072C172.551 36.8853 173.519 41.3147 173.519 46.36C173.519 51.4053 172.551 55.864 170.615 59.736C168.738 63.5493 166.157 66.512 162.871 68.624C159.586 70.6773 155.919 71.704 151.871 71.704C148.469 71.704 145.447 71 142.807 69.592C140.226 68.184 138.202 66.3653 136.735 64.136V94.408H121.687V21.896H136.735V28.848ZM158.207 46.36C158.207 42.6053 157.151 39.672 155.039 37.56C152.986 35.3893 150.434 34.304 147.383 34.304C144.391 34.304 141.839 35.3893 139.727 37.56C137.674 39.7307 136.647 42.6933 136.647 46.448C136.647 50.2027 137.674 53.1653 139.727 55.336C141.839 57.5067 144.391 58.592 147.383 58.592C150.375 58.592 152.927 57.5067 155.039 55.336C157.151 53.1067 158.207 50.1147 158.207 46.36ZM218.902 45.656C218.902 47.064 218.814 48.5307 218.638 50.056H184.582C184.816 53.1067 185.784 55.4533 187.486 57.096C189.246 58.68 191.387 59.472 193.91 59.472C197.664 59.472 200.275 57.888 201.742 54.72H217.758C216.936 57.9467 215.44 60.8507 213.27 63.432C211.158 66.0133 208.488 68.0373 205.262 69.504C202.035 70.9707 198.427 71.704 194.438 71.704C189.627 71.704 185.344 70.6773 181.59 68.624C177.835 66.5707 174.902 63.6373 172.79 59.824C170.678 56.0107 169.622 51.552 169.622 46.448C169.622 41.344 170.648 36.8853 172.702 33.072C174.814 29.2587 177.747 26.3253 181.502 24.272C185.256 22.2187 189.568 21.192 194.438 21.192C199.19 21.192 203.414 22.1893 207.11 24.184C210.806 26.1787 213.68 29.024 215.734 32.72C217.846 36.416 218.902 40.728 218.902 45.656ZM203.502 41.696C203.502 39.1147 202.622 37.0613 200.862 35.536C199.102 34.0107 196.902 33.248 194.262 33.248C191.739 33.248 189.598 33.9813 187.838 35.448C186.136 36.9147 185.08 38.9973 184.67 41.696H203.502ZM247.96 21.368C253.71 21.368 258.286 23.2453 261.688 27C265.15 30.696 266.88 35.8 266.88 42.312V71H251.92V44.336C251.92 41.0507 251.07 38.4987 249.368 36.68C247.667 34.8613 245.379 33.952 242.504 33.952C239.63 33.952 237.342 34.8613 235.64 36.68C233.939 38.4987 233.088 41.0507 233.088 44.336V71H218.04V21.896H233.088V28.408C234.614 26.2373 236.667 24.536 239.248 23.304C241.83 22.0133 244.734 21.368 247.96 21.368ZM288.513 71.704C284.231 71.704 280.417 70.9707 277.073 69.504C273.729 68.0373 271.089 66.0427 269.153 63.52C267.217 60.9387 266.132 58.064 265.897 54.896H280.769C280.945 56.5973 281.737 57.976 283.145 59.032C284.553 60.088 286.284 60.616 288.337 60.616C290.215 60.616 291.652 60.264 292.649 59.56C293.705 58.7973 294.233 57.8293 294.233 56.656C294.233 55.248 293.5 54.2213 292.033 53.576C290.567 52.872 288.191 52.1093 284.905 51.288C281.385 50.4667 278.452 49.616 276.105 48.736C273.759 47.7973 271.735 46.36 270.033 44.424C268.332 42.4293 267.481 39.76 267.481 36.416C267.481 33.6 268.244 31.048 269.769 28.76C271.353 26.4133 273.641 24.5653 276.633 23.216C279.684 21.8667 283.292 21.192 287.457 21.192C293.617 21.192 298.457 22.7173 301.977 25.768C305.556 28.8187 307.609 32.8667 308.137 37.912H294.233C293.999 36.2107 293.236 34.8613 291.945 33.864C290.713 32.8667 289.071 32.368 287.017 32.368C285.257 32.368 283.908 32.72 282.969 33.424C282.031 34.0693 281.561 34.9787 281.561 36.152C281.561 37.56 282.295 38.616 283.761 39.32C285.287 40.024 287.633 40.728 290.801 41.432C294.439 42.3707 297.401 43.3093 299.689 44.248C301.977 45.128 303.972 46.5947 305.673 48.648C307.433 50.6427 308.343 53.3413 308.401 56.744C308.401 59.6187 307.58 62.2 305.937 64.488C304.353 66.7173 302.036 68.4773 298.985 69.768C295.993 71.0587 292.503 71.704 288.513 71.704ZM316.376 16.792C313.736 16.792 311.565 16.0293 309.864 14.504C308.221 12.92 307.4 10.984 307.4 8.696C307.4 6.34933 308.221 4.41333 309.864 2.888C311.565 1.304 313.736 0.511995 316.376 0.511995C318.957 0.511995 321.069 1.304 322.712 2.888C324.413 4.41333 325.264 6.34933 325.264 8.696C325.264 10.984 324.413 12.92 322.712 14.504C321.069 16.0293 318.957 16.792 316.376 16.792ZM323.856 21.896V71H308.808V21.896H323.856ZM344.617 21.192C348.078 21.192 351.099 21.896 353.681 23.304C356.321 24.712 358.345 26.56 359.753 28.848V21.896H374.801V70.912C374.801 75.4293 373.891 79.5067 372.073 83.144C370.313 86.84 367.585 89.7733 363.889 91.944C360.251 94.1147 355.705 95.2 350.249 95.2C342.974 95.2 337.078 93.4693 332.561 90.008C328.043 86.6053 325.462 81.9707 324.817 76.104H339.689C340.158 77.9813 341.273 79.448 343.033 80.504C344.793 81.6187 346.963 82.176 349.545 82.176C352.654 82.176 355.118 81.2667 356.937 79.448C358.814 77.688 359.753 74.8427 359.753 70.912V63.96C358.286 66.248 356.262 68.1253 353.681 69.592C351.099 71 348.078 71.704 344.617 71.704C340.569 71.704 336.902 70.6773 333.617 68.624C330.331 66.512 327.721 63.5493 325.785 59.736C323.907 55.864 322.969 51.4053 322.969 46.36C322.969 41.3147 323.907 36.8853 325.785 33.072C327.721 29.2587 330.331 26.3253 333.617 24.272C336.902 22.2187 340.569 21.192 344.617 21.192ZM359.753 46.448C359.753 42.6933 358.697 39.7307 356.585 37.56C354.531 35.3893 352.009 34.304 349.017 34.304C346.025 34.304 343.473 35.3893 341.361 37.56C339.307 39.672 338.281 42.6053 338.281 46.36C338.281 50.1147 339.307 53.1067 341.361 55.336C343.473 57.5067 346.025 58.592 349.017 58.592C352.009 58.592 354.531 57.5067 356.585 55.336C358.697 53.1653 359.753 50.2027 359.753 46.448ZM406.807 21.368C412.557 21.368 417.133 23.2453 420.535 27C423.997 30.696 425.727 35.8 425.727 42.312V71H410.767V44.336C410.767 41.0507 409.917 38.4987 408.215 36.68C406.514 34.8613 404.226 33.952 401.351 33.952C398.477 33.952 396.189 34.8613 394.487 36.68C392.786 38.4987 391.935 41.0507 391.935 44.336V71H376.887V21.896H391.935V28.408C393.461 26.2373 395.514 24.536 398.095 23.304C400.677 22.0133 403.581 21.368 406.807 21.368Z"
        fill="black"></path>
    <path
        d="M11 39.4747C3.8 40.2747 2 28.1414 2 21.9747C22 17.1414 60.9 9.47475 56.5 17.4747C51 27.4747 20 38.4747 11 39.4747Z"
        fill="#6F42C1"></path>
    <path
        d="M9 74.4747C1.8 75.2747 0 63.1414 0 56.9747C20 52.1414 58.9 44.4747 54.5 52.4747C49 62.4747 18 73.4747 9 74.4747Z"
        fill="#6F42C1"></path>
    <path
        d="M72.844 56.0377C80.044 55.2377 81.844 67.371 81.844 73.5377C61.844 78.371 22.944 86.0377 27.344 78.0377C32.844 68.0377 63.844 57.0377 72.844 56.0377Z"
        fill="#20C997"></path>
    <path
        d="M74.844 21.0377C82.044 20.2377 83.844 32.371 83.844 38.5377C63.844 43.371 24.944 51.0377 29.344 43.0377C34.844 33.0377 65.844 22.0377 74.844 21.0377Z"
        fill="#20C997"></path>
</svg>