<svg id="Lager_1" data-name="Lager 1" xmlns="http://www.w3.org/2000/svg" viewBox="0 0 1000 230"><defs><style>.cls-1{fill:#00c281;}.cls-2{fill:#121212;}</style></defs><g id="Group_11737" data-name="Group 11737"><g id="PLAYipp_logo_RGB" data-name="PLAYipp logo RGB"><g id="logo"><path id="Path_6875" data-name="Path 6875" class="cls-1" d="M335.64,13.34C352.09-3.11,512.06,95,512.06,115.3c0,20-163.26,115.12-176.42,102C322.49,203.81,319.19,29.78,335.64,13.34Z"/><g id="Group_11692" data-name="Group 11692"><path id="Path_6876" data-name="Path 6876" class="cls-2" d="M148.35,80.31A72.93,72.93,0,0,1,143,108.72a65.8,65.8,0,0,1-15.56,22.43A72.84,72.84,0,0,1,102,145.8a102.66,102.66,0,0,1-34.41,5.38c-3.28,0-6.58,0-10.19-.3-3.29-.3-6.88-.3-10.19-.6v66.39H12.59V15.13A453.53,453.53,0,0,1,64,11.84a112.8,112.8,0,0,1,36.47,5.38,78.73,78.73,0,0,1,26.62,14.66A56.34,56.34,0,0,1,143,53.7,66.36,66.36,0,0,1,148.35,80.31Zm-35.88,1.2a38.32,38.32,0,0,0-2.69-14.35,36,36,0,0,0-7.77-12,39.67,39.67,0,0,0-13.16-8.37,51.33,51.33,0,0,0-18.54-3,137.22,137.22,0,0,0-22.72,1.8v74.15q5.38.45,9.87.9c3.28.3,6.28.3,9.55.3,15.85,0,27.21-3.58,34.69-11.06A40.34,40.34,0,0,0,112.47,81.51Z"/><path id="Path_6877" data-name="Path 6877" class="cls-2" d="M175.06,216.37v-203h34.69V185h89.1v31.7Z"/><path id="Path_6878" data-name="Path 6878" class="cls-2" d="M589.69,131.15v85.22H555V130.85L483.54,13.34H523L573,99.16l49.31-85.82h38.86Z"/></g><g id="Layer_4" data-name="Layer 4"><g id="Group_11693" data-name="Group 11693"><path id="Path_6879" data-name="Path 6879" class="cls-2" d="M674.43,89.28V216.36h31.39V45.92h-7.47S674.43,82.1,674.43,89.28Z"/><path id="Path_6880" data-name="Path 6880" class="cls-2" d="M851.7,101a63.88,63.88,0,0,1-4.19,22.72,55.51,55.51,0,0,1-11.66,18.84,52.82,52.82,0,0,1-17.64,12.56,51.24,51.24,0,0,1-22.43,4.78,57,57,0,0,1-29.31-7.47v63.71H736.88V45.63h28.7V56.1a55,55,0,0,1,15.55-9.27,56.81,56.81,0,0,1,19.75-3.29,50.47,50.47,0,0,1,20.34,4.19,48.6,48.6,0,0,1,16.15,11.66,53.65,53.65,0,0,1,10.47,17.94A69,69,0,0,1,851.7,101Zm-29.61.3a38.58,38.58,0,0,0-7.49-24.52,25.48,25.48,0,0,0-20.93-9.56,34.15,34.15,0,0,0-26.92,12v47a27.79,27.79,0,0,0,11.37,7.77,39.75,39.75,0,0,0,14.65,2.39A27.46,27.46,0,0,0,814,127a37.34,37.34,0,0,0,8.1-25.72Z"/><path id="Path_6881" data-name="Path 6881" class="cls-2" d="M987.4,101a63.87,63.87,0,0,1-4.18,22.72,55.51,55.51,0,0,1-11.66,18.84,52.82,52.82,0,0,1-17.64,12.56,51.21,51.21,0,0,1-22.43,4.78,57,57,0,0,1-29.3-7.47v63.71H872.58V45.63h28.71V56.1a55,55,0,0,1,15.55-9.27,56.81,56.81,0,0,1,19.75-3.29,50.47,50.47,0,0,1,20.34,4.19,48.6,48.6,0,0,1,16.15,11.66,59.82,59.82,0,0,1,10.76,17.94A76.32,76.32,0,0,1,987.4,101Zm-29.6.3a40.55,40.55,0,0,0-7.49-24.52,25.5,25.5,0,0,0-20.94-9.56,34.13,34.13,0,0,0-26.91,12v47a27.66,27.66,0,0,0,11.37,7.77,39.75,39.75,0,0,0,14.65,2.39A27.46,27.46,0,0,0,949.71,127a37.39,37.39,0,0,0,8.1-25.72Z"/></g></g></g></g></g></svg>