<svg id="Logo" xmlns="http://www.w3.org/2000/svg" viewBox="0 0 734.6 333.35"><defs><style>.cls-1{fill:#ffb275;}.cls-2{fill:#06c;}.cls-3{fill:#ff8e35;}.cls-4{fill:#ffd5b5;}</style></defs><title>playengo-logo-full-color</title><g id="Triangles"><g id="_6" data-name="6"><path class="cls-1" d="M825.9,228.7a3.19,3.19,0,0,0,0-5.1l-31.2-26c-1.7-1.4-3.1-.8-3.1,1.4v54.3c0,2.2,1.4,2.8,3.1,1.4Z" transform="translate(-96.8 -82.65)"/></g><g id="_5" data-name="5"><path class="cls-2" d="M790.3,174.4a3.19,3.19,0,0,0,0-5.1l-103-85.9c-1.7-1.4-3.1-.8-3.1,1.4v174c0,2.2,1.4,2.8,3.1,1.4Z" transform="translate(-96.8 -82.65)"/></g><g id="_4" data-name="4"><path class="cls-3" d="M646.1,213.8a3.19,3.19,0,0,0,0-5.1l-49.8-41.5c-1.7-1.4-3.1-.8-3.1,1.4v85.2c0,2.2,1.4,2.8,3.1,1.4Z" transform="translate(-96.8 -82.65)"/></g><g id="_3" data-name="3"><path class="cls-4" d="M662.2,147.6a3.19,3.19,0,0,0,0-5.1l-31.2-26c-1.7-1.4-3.1-.8-3.1,1.4v54.3c0,2.2,1.4,2.8,3.1,1.4Z" transform="translate(-96.8 -82.65)"/></g><g id="_2" data-name="2"><path class="cls-1" d="M576.2,170.8a3.19,3.19,0,0,0,0-5.1l-31.2-26c-1.7-1.4-3.1-.8-3.1,1.4v54.3c0,2.2,1.4,2.8,3.1,1.4Z" transform="translate(-96.8 -82.65)"/></g><g id="_1" data-name="1"><path class="cls-1" d="M531.5,228.7a3.19,3.19,0,0,0,0-5.1l-31.2-26c-1.7-1.4-3.1-.8-3.1,1.4v54.3c0,2.2,1.4,2.8,3.1,1.4Z" transform="translate(-96.8 -82.65)"/></g></g><g id="Name"><path class="cls-2" d="M162,301.8a40.25,40.25,0,0,1,15.3,15.6,49.59,49.59,0,0,1,0,45.4A39.59,39.59,0,0,1,162,378.4a43.34,43.34,0,0,1-21.8,5.5,40.47,40.47,0,0,1-20.7-5.4,37.15,37.15,0,0,1-14.4-15v51.8H96.8V296.8h7.9v20.4a37.4,37.4,0,0,1,14.5-15.5,40,40,0,0,1,20.9-5.5A41.57,41.57,0,0,1,162,301.8Zm-4.4,70a33,33,0,0,0,12.5-12.9,41.94,41.94,0,0,0,0-37.8,33,33,0,0,0-12.5-12.9,34.59,34.59,0,0,0-17.9-4.6,34.23,34.23,0,0,0-17.8,4.6,33.45,33.45,0,0,0-12.4,12.9,41.94,41.94,0,0,0,0,37.8,33.45,33.45,0,0,0,12.4,12.9,34.23,34.23,0,0,0,17.8,4.6A35.85,35.85,0,0,0,157.6,371.8Z" transform="translate(-96.8 -82.65)"/><path class="cls-2" d="M208.5,260.4h8.3V383.2h-8.3Z" transform="translate(-96.8 -82.65)"/><path class="cls-2" d="M305.5,304.3c5.7,5.5,8.6,13.5,8.6,24.1v54.8h-7.9V367.8a28.7,28.7,0,0,1-12.1,11.8c-5.3,2.8-11.6,4.2-19,4.2-9.6,0-17.2-2.3-22.7-6.8a21.86,21.86,0,0,1-8.4-17.9,22.24,22.24,0,0,1,7.7-17.5c5.1-4.5,13.3-6.7,24.6-6.7h29.6V328c0-8-2.2-14.2-6.5-18.4s-10.7-6.3-19.1-6.3a46.35,46.35,0,0,0-16.5,3,41.54,41.54,0,0,0-13.3,7.9l-4.1-6a44.4,44.4,0,0,1,15.6-9,55.36,55.36,0,0,1,19-3.2C291.5,296.1,299.7,298.9,305.5,304.3Zm-11,67.8a29.93,29.93,0,0,0,11.3-14.4V341.5H276.3c-8.5,0-14.6,1.5-18.4,4.6s-5.7,7.3-5.7,12.7c0,5.6,2.1,10.1,6.3,13.3s10.1,4.9,17.7,4.9C283.3,377,289.4,375.4,294.5,372.1Z" transform="translate(-96.8 -82.65)"/><path class="cls-2" d="M415.8,296.8l-44.3,98.1c-3.3,7.6-7.1,13-11.5,16.2a25.51,25.51,0,0,1-15.5,4.8,31.8,31.8,0,0,1-11.2-2,24.53,24.53,0,0,1-8.9-5.8l4.1-6.3a21.7,21.7,0,0,0,16,6.8,17.26,17.26,0,0,0,10.8-3.5c3-2.3,5.7-6.3,8.3-11.9l4.6-10.4-38.9-86h8.8l34.6,77.3,34.6-77.3Z" transform="translate(-96.8 -82.65)"/><path class="cls-2" d="M504.3,342H430a36.3,36.3,0,0,0,5.1,18,33.2,33.2,0,0,0,13,12.2,41.19,41.19,0,0,0,34,1.2,29.78,29.78,0,0,0,12-9l4.8,5.5a37.61,37.61,0,0,1-14.1,10.4,49.49,49.49,0,0,1-41.4-2,40.17,40.17,0,0,1-15.8-15.6,44.76,44.76,0,0,1-5.7-22.7,46.89,46.89,0,0,1,5.4-22.6,39.06,39.06,0,0,1,14.8-15.6,40.94,40.94,0,0,1,21.2-5.6,40.51,40.51,0,0,1,21.1,5.5,39.91,39.91,0,0,1,14.7,15.5,46.22,46.22,0,0,1,5.4,22.5Zm-57.4-34.5a31.2,31.2,0,0,0-11.7,11.4,37.07,37.07,0,0,0-5,16.6h66.2a33.68,33.68,0,0,0-5-16.5,34,34,0,0,0-44.5-11.5Z" transform="translate(-96.8 -82.65)"/><path class="cls-2" d="M598,305.6c6.3,6.3,9.4,15.3,9.4,27.1v50.5h-8.3V333.4c0-9.7-2.5-17.1-7.4-22.2s-11.8-7.6-20.6-7.6c-10.1,0-18.1,3-24,9.1s-8.8,14.2-8.8,24.5v46H530V296.8h7.9v18.7a32.59,32.59,0,0,1,13.3-14.2c5.9-3.4,12.9-5.1,20.9-5.1C583.1,296.1,591.7,299.3,598,305.6Z" transform="translate(-96.8 -82.65)"/><path class="cls-2" d="M719.4,296.8v77.1c0,14.3-3.5,24.9-10.4,31.8S691.6,416,677.6,416a69.79,69.79,0,0,1-22.5-3.6,43,43,0,0,1-17-10.1l4.5-6.3a45,45,0,0,0,15.6,9.3,56.47,56.47,0,0,0,19.4,3.3c11.5,0,20-2.7,25.5-8.2s8.3-13.9,8.3-25.4V360.4A36.88,36.88,0,0,1,696.7,375a43.73,43.73,0,0,1-21.2,5.1,44.43,44.43,0,0,1-21.9-5.4,39.91,39.91,0,0,1-15.5-15,41.54,41.54,0,0,1-5.6-21.7,42.77,42.77,0,0,1,5.6-21.7,38.35,38.35,0,0,1,15.5-14.9,46,46,0,0,1,21.9-5.3,44.19,44.19,0,0,1,21.5,5.3,35.78,35.78,0,0,1,14.7,14.9V296.8Zm-25.3,71.4A32.4,32.4,0,0,0,706.8,356a38.05,38.05,0,0,0,0-35.9,32.42,32.42,0,0,0-12.7-12.2,38,38,0,0,0-18.2-4.4,37.3,37.3,0,0,0-18.1,4.4,32.14,32.14,0,0,0-12.6,12.2,35,35,0,0,0-4.5,17.9,35.9,35.9,0,0,0,4.5,18,31.49,31.49,0,0,0,12.6,12.2,37.3,37.3,0,0,0,18.1,4.4A38,38,0,0,0,694.1,368.2Z" transform="translate(-96.8 -82.65)"/><path class="cls-2" d="M766.1,378.2a40.75,40.75,0,0,1-15.5-15.6A44.85,44.85,0,0,1,745,340a45.9,45.9,0,0,1,5.6-22.6,39.42,39.42,0,0,1,15.5-15.6,46.41,46.41,0,0,1,44.2,0,41.45,41.45,0,0,1,15.5,15.6,48.4,48.4,0,0,1,0,45.2,40.08,40.08,0,0,1-15.5,15.6,46.41,46.41,0,0,1-44.2,0Zm39.9-6.4a33.45,33.45,0,0,0,12.4-12.9,41.94,41.94,0,0,0,0-37.8A33.45,33.45,0,0,0,806,308.2a36.74,36.74,0,0,0-35.6,0A33.45,33.45,0,0,0,758,321.1a41.94,41.94,0,0,0,0,37.8,33.45,33.45,0,0,0,12.4,12.9,34.23,34.23,0,0,0,17.8,4.6A35.2,35.2,0,0,0,806,371.8Z" transform="translate(-96.8 -82.65)"/></g></svg>