<svg width="488" height="114" viewBox="0 0 488 114" fill="none" xmlns="http://www.w3.org/2000/svg">
<g clip-path="url(#clip0_108_76)">
<path d="M109.281 32.5692C109.281 41.8317 101.45 49.3525 91.8087 49.3525C82.1672 49.3525 74.3365 41.8317 74.3365 32.5692C74.3365 23.3067 82.1672 15.7858 91.8087 15.7858C101.45 15.7858 109.281 23.3067 109.281 32.5692ZM91.8087 23.4017C86.853 23.4017 82.8344 27.5025 82.8344 32.5692C82.8344 37.6358 86.853 41.7367 91.8087 41.7367C96.7645 41.7367 100.783 37.6358 100.783 32.5692C100.783 27.5025 96.7645 23.4017 91.8087 23.4017ZM38.9314 16.7833C38.9314 7.52083 46.7621 0 56.4036 0C66.0451 0 73.8759 7.52083 73.8759 16.7833C73.8759 26.0458 66.0451 33.5667 56.4036 33.5667C53.0839 33.5667 49.9706 32.68 47.3339 31.1283V46.2333H38.9314V16.7833V16.7833ZM56.4036 7.61583C51.4478 7.61583 47.4292 11.7167 47.4292 16.7833C47.4292 21.85 51.4478 25.9508 56.4036 25.9508C61.3594 25.9508 65.378 21.85 65.378 16.7833C65.378 11.7167 61.3594 7.61583 56.4036 7.61583V7.61583ZM34.9445 32.5533C34.9445 41.8158 27.1138 49.3367 17.4723 49.3367C7.83075 49.3367 0 41.8317 0 32.5692C0 23.3067 7.83075 15.7858 17.4723 15.7858C27.1138 15.7858 34.9445 23.3067 34.9445 32.5692V32.5533ZM17.4723 23.3858C12.5165 23.3858 8.49787 27.4867 8.49787 32.5533C8.49787 37.62 12.5165 41.7208 17.4723 41.7208C22.428 41.7208 26.4466 37.62 26.4466 32.5533C26.4466 27.4867 22.428 23.3858 17.4723 23.3858V23.3858ZM95.1126 52.8042C104.405 52.8042 111.949 60.61 111.949 70.2208C111.949 79.8317 104.405 87.6375 95.1126 87.6375C85.8205 87.6375 78.2757 79.8317 78.2757 70.2208C78.2757 66.9117 79.1652 63.8083 80.7218 61.18H65.5686V52.8042H95.1126V52.8042ZM104.309 70.2208C104.309 65.2808 100.195 61.275 95.1126 61.275C90.0298 61.275 85.9158 65.2808 85.9158 70.2208C85.9158 75.1608 90.0298 79.1667 95.1126 79.1667C100.195 79.1667 104.309 75.1608 104.309 70.2208ZM73.9712 97.2008C73.9712 106.463 66.1404 113.984 56.4989 113.984C46.8574 113.984 39.0267 106.463 39.0267 97.2008C39.0267 87.9383 46.8574 80.4175 56.4989 80.4175C59.8186 80.4175 62.9319 81.3042 65.5686 82.8558V67.7508H73.9712V97.2008ZM56.4989 106.368C61.4547 106.368 65.4733 102.267 65.4733 97.2008C65.4733 92.1342 61.4547 88.0333 56.4989 88.0333C51.5431 88.0333 47.5245 92.1342 47.5245 97.2008C47.5245 102.267 51.5431 106.368 56.4989 106.368ZM29.3375 74.8283C32.1807 77.6625 31.8789 81.6525 28.8451 84.6767L16.1539 97.3275L22.0945 103.249L34.6427 90.7408C41.8381 83.5683 40.5197 75.2083 34.738 69.4608C28.9563 63.6975 20.5855 62.3675 13.3901 69.5558L0.825961 82.0642L6.76653 87.9858L19.4577 75.335C22.4916 72.3108 26.4784 72.01 29.3375 74.8442V74.8283ZM1.84253 52.82V61.1958H47.3339V52.82H1.84253Z" fill="url(#paint0_linear_108_76)"/>
<path d="M429.277 5.27246H416.681V73.3083H429.277V5.27246ZM240.259 49.2575C240.259 63.1591 228.521 74.4325 214.051 74.4325C199.581 74.4325 187.843 63.1591 187.843 49.2575C187.843 35.3558 199.581 24.0825 214.051 24.0825C228.521 24.0825 240.259 35.3558 240.259 49.2575ZM214.051 35.5141C206.617 35.5141 200.597 41.6733 200.597 49.2575C200.597 56.8416 206.617 63.0008 214.051 63.0008C221.485 63.0008 227.505 56.8416 227.505 49.2575C227.505 41.6733 221.485 35.5141 214.051 35.5141ZM488.016 49.2575C488.016 63.1591 476.278 74.4325 461.807 74.4325C447.337 74.4325 435.599 63.1591 435.599 49.2575C435.599 35.3558 447.337 24.0825 461.807 24.0825C476.278 24.0825 488.016 35.3558 488.016 49.2575ZM461.807 35.5141C454.374 35.5141 448.354 41.6733 448.354 49.2575C448.354 56.8416 454.374 63.0008 461.807 63.0008C469.241 63.0008 475.261 56.8416 475.261 49.2575C475.261 41.6733 469.241 35.5141 461.807 35.5141ZM245.946 49.2575C245.946 35.3558 257.684 24.0825 272.154 24.0825C286.624 24.0825 298.362 35.3558 298.362 49.2575C298.362 63.1591 286.624 74.4325 272.154 74.4325C267.167 74.4325 262.513 73.1025 258.542 70.775V93.4325H245.946V49.2733V49.2575ZM272.154 35.5141C264.72 35.5141 258.7 41.6733 258.7 49.2575C258.7 56.8416 264.72 63.0008 272.154 63.0008C279.588 63.0008 285.608 56.8416 285.608 49.2575C285.608 41.6733 279.588 35.5141 272.154 35.5141ZM304.033 49.2575C304.033 35.3558 315.771 24.0825 330.241 24.0825C344.712 24.0825 356.45 35.3558 356.45 49.2575C356.45 63.1591 344.712 74.4325 330.241 74.4325C325.254 74.4325 320.6 73.1025 316.629 70.775V93.4325H304.033V49.2733V49.2575ZM330.241 35.5141C322.808 35.5141 316.788 41.6733 316.788 49.2575C316.788 56.8416 322.808 63.0008 330.241 63.0008C337.675 63.0008 343.695 56.8416 343.695 49.2575C343.695 41.6733 337.675 35.5141 330.241 35.5141ZM129.739 49.2575C129.739 35.3558 141.478 24.0825 155.948 24.0825C170.418 24.0825 182.156 35.3558 182.156 49.2575C182.156 63.1591 170.418 74.4325 155.948 74.4325C150.96 74.4325 146.306 73.1025 142.335 70.775V93.4325H129.739V49.2733V49.2575ZM155.948 35.5141C148.514 35.5141 142.494 41.6733 142.494 49.2575C142.494 56.8416 148.514 63.0008 155.948 63.0008C163.381 63.0008 169.401 56.8416 169.401 49.2575C169.401 41.6733 163.381 35.5141 155.948 35.5141ZM385.295 63.0166C379.243 63.0166 375.336 58.4566 375.336 52.06V25.2225H362.74V51.7591C362.74 66.9908 373.033 74.4325 385.295 74.4325C397.557 74.4325 407.85 66.9908 407.85 51.7591V25.2225H395.254V52.06C395.254 58.4566 391.347 63.0166 385.295 63.0166V63.0166Z" fill="black"/>
</g>
<defs>
<linearGradient id="paint0_linear_108_76" x1="-36.0723" y1="57" x2="134.235" y2="57" gradientUnits="userSpaceOnUse">
<stop stop-color="#FFE606"/>
<stop offset="0.14" stop-color="#FFA02F"/>
<stop offset="0.44" stop-color="#F046FF"/>
<stop offset="0.81" stop-color="#5A16FF"/>
<stop offset="1"/>
</linearGradient>
<clipPath id="clip0_108_76">
<rect width="488" height="114" fill="white"/>
</clipPath>
</defs>
</svg>
