<?xml version="1.0" encoding="utf-8"?>
<!-- Generator: Adobe Illustrator 21.0.0, SVG Export Plug-In . SVG Version: 6.00 Build 0)  -->
<svg version="1.1" id="Layer_1" xmlns="http://www.w3.org/2000/svg" xmlns:xlink="http://www.w3.org/1999/xlink" x="0px" y="0px"
	 viewBox="0 0 277 80" style="enable-background:new 0 0 277 80;" xml:space="preserve">
<style type="text/css">
	.st0{fill:#244C7C;}
</style>
<g>
	<path class="st0" d="M38.2,34.3L38.2,34.3c1.3-1.7,3.5-2.5,5.5-2.5c4.9,0,7.8,4.4,7,9.4C50,46.2,46,50.4,41,50.4
		c-1.9,0-3.8-0.7-4.8-2.2l-1.7,10.3h-5.9l4-26.3h5.9L38.2,34.3z M37,41c-0.4,2.2,0.8,4,3.2,4c2.4,0,4.1-1.7,4.4-4
		c0.3-2.1-0.8-4-3.2-4C39,37.1,37.3,38.9,37,41z"/>
	<path class="st0" d="M70,41c-1,5.9-6.1,9.3-11.5,9.3c-5.3,0-9.5-3.3-8.6-9.3c0.9-6,6-9.3,11.4-9.3C66.8,31.8,70.9,35.1,70,41z
		 M56.2,41c-0.4,2.2,0.8,4,3.2,4c2.4,0,4.1-1.7,4.4-4c0.3-2.1-0.8-4-3.2-4C58.1,37.1,56.5,38.9,56.2,41z"/>
	<path class="st0" d="M81.9,36.8c-0.8-0.5-2.1-0.9-3-0.9c-0.7,0-1.8,0.3-2.1,1.2c-0.2,1.2,1.6,1.3,2.4,1.5c2.7,0.6,4.6,1.9,4.1,5.2
		c-0.7,4.6-5,6.5-8.9,6.5c-2.4,0-4.6-0.7-6.4-2.1l2.8-4.4c1,0.9,3,1.8,4.4,1.8c0.7,0,1.8-0.4,2.1-1.3c0.2-1.3-1.7-1.4-3.4-1.9
		c-1.8-0.5-3.5-1.5-3-4.6c0.6-4.4,4.6-6.2,8.3-6.2c1.8,0,3.7,0.3,5.3,1.1L81.9,36.8z"/>
	<path class="st0" d="M89.6,49.7h-5.9l1.8-12.4h-1.9l0.8-5.2h1.9l0.8-5.2h5.9l-0.8,5.2h3.3l-0.8,5.2h-3.2L89.6,49.7z"/>
	<path class="st0" d="M110.7,42.1H98.3c-0.4,2.5,0.7,3.9,3.1,3.9c1.3,0,2.2-0.4,3-1.6h5.7c-0.7,2.1-2.1,3.6-3.8,4.5
		c-1.7,1-3.6,1.5-5.5,1.5c-5.5,0-9.1-3.2-8.2-9.3c0.9-5.8,5.2-9.3,10.6-9.3c5.8,0,8.6,3.8,7.7,9.7L110.7,42.1z M105.7,38.5
		c-0.1-1.7-1.3-2.8-2.9-2.8c-1.7,0-3.2,1-4,2.8H105.7z"/>
	<path class="st0" d="M117.9,35.2L117.9,35.2c1.5-2.1,3.6-3.1,5.9-3.1h1.1l-0.9,6c-0.7-0.5-1.5-0.6-2.4-0.6c-3.2,0-4.4,2.3-4.9,5.3
		l-1,7h-5.9l2.7-17.5h5.9L117.9,35.2z"/>
	<path class="st0" d="M126.1,21.5h5.9L130.2,34c1.5-1.5,3.6-2.3,5.5-2.3c4.9,0,7.7,4.4,7,9.3c-0.8,5.1-4.9,9.3-9.8,9.3
		c-1.9,0-3.8-0.8-4.6-2.5h-0.1l-0.3,1.9H122L126.1,21.5z M128.9,41c-0.4,2.2,0.8,4,3.2,4c2.4,0,4.1-1.7,4.4-4c0.3-2.1-0.8-4-3.2-4
		C130.9,37.1,129.3,38.9,128.9,41z"/>
	<path class="st0" d="M162,41c-1,5.9-6.1,9.3-11.5,9.3c-5.3,0-9.5-3.3-8.6-9.3c0.9-6,6-9.3,11.4-9.3C158.7,31.8,162.9,35.1,162,41z
		 M148.1,41c-0.4,2.2,0.8,4,3.2,4c2.4,0,4.1-1.7,4.4-4c0.3-2.1-0.8-4-3.2-4S148.5,38.9,148.1,41z"/>
	<path class="st0" d="M181,41c-1,5.9-6.1,9.3-11.5,9.3c-5.3,0-9.5-3.3-8.6-9.3c0.9-6,6-9.3,11.4-9.3C177.8,31.8,181.9,35.1,181,41z
		 M167.2,41c-0.4,2.2,0.8,4,3.2,4c2.4,0,4.1-1.7,4.4-4c0.3-2.1-0.8-4-3.2-4C169.1,37.1,167.5,38.9,167.2,41z"/>
	<path class="st0" d="M187.5,38.6l7.1-6.3h8.1l-9.6,8.1l7.4,9.4h-8.3l-5.4-7.1l-1,7.1H180l4.3-28.3h5.9L187.5,38.6z"/>
	<path class="st0" d="M205.8,49.7h-5.9l2.7-17.5h5.9L205.8,49.7z M209.8,25.6c-0.2,1.9-2.1,3.5-3.8,3.5c-1.8,0-3-1.5-2.8-3.5
		c0.3-1.9,2.1-3.5,3.9-3.5C208.8,22.1,210.1,23.6,209.8,25.6z"/>
	<path class="st0" d="M215.5,34.6L215.5,34.6c1.7-2.1,3.5-2.9,5.8-2.9c4.5,0,5.8,3,5.2,7.3l-1.6,10.8h-5.9l1.3-8.6
		c0.2-1.7,1-4.6-2-4.6c-2.4,0-3.4,1.8-3.7,4.1l-1.3,9.1h-5.9l2.7-17.5h5.9L215.5,34.6z"/>
	<path class="st0" d="M244.8,48.1c-1.1,7.4-5.1,10.5-11.2,10.5c-3.8,0-8.6-2.1-8.5-6.6h6.6c0.1,0.6,0.4,1,1,1.3
		c0.5,0.2,1,0.4,1.6,0.4c3.2,0,4.1-2.1,4.6-5l0.1-0.8c-1.8,1.6-3.5,2.4-5.7,2.4c-4.9,0-7.7-3.9-6.9-8.9c0.8-5.2,4.9-9.4,10-9.4
		c1.9,0,3.6,0.7,4.6,2.4h0.1l0.2-1.8h5.9L244.8,48.1z M232.6,41c-0.3,2.2,0.8,4,3.2,4s4.1-1.7,4.4-4c0.3-2.1-0.8-4-3.2-4
		C234.7,37,232.9,38.8,232.6,41z"/>
</g>
</svg>
