<?xml version="1.0" encoding="utf-8"?>
<!-- Generator: Adobe Illustrator 18.1.0, SVG Export Plug-In . SVG Version: 6.00 Build 0)  -->
<svg version="1.1" id="Layer_1" xmlns="http://www.w3.org/2000/svg" xmlns:xlink="http://www.w3.org/1999/xlink" x="0px" y="0px"
	 viewBox="0 0 332.2 60.1" enable-background="new 0 0 332.2 60.1" xml:space="preserve">
<circle fill="#2AACE3" cx="28.7" cy="28.9" r="12.2"/>
<path fill="#414042" d="M40.1,2.5c0,0-0.1-0.1-0.1-0.1C36.6,0.9,32.9,0,28.9,0c0,0,0,0,0,0c0,0,0,0,0,0c-0.6,0-1.2,0-1.9,0.1
	c-0.4,0-0.9,0.1-1.3,0.1c-0.1,0-0.1,0-0.2,0v0c-5,0.5-9.6,2.4-13.5,5.2L9.2,1.2C9,1,8.7,0.9,8.4,0.9C8.2,1,7.9,1.2,7.9,1.5l-1.7,9.6
	l-1.2,6.7c0,0.2,0,0.4,0.2,0.6c0.1,0.2,0.3,0.2,0.5,0.2c0,0,0,0,0,0l7.6-0.4l8.5-0.5c0.3,0,0.5-0.2,0.6-0.5c0.1-0.3,0-0.6-0.2-0.8
	l-3.5-3.3c2.2-1.4,4.7-2.4,7.5-2.8l0,0c0.8-0.1,1.7-0.1,2.5-0.1c10.1,0.1,18.2,8.4,18.1,18.5C46.8,39,38.5,47.1,28.4,47
	c-10.1-0.1-18.2-8.4-18.1-18.5c0-0.9,0.1-1.7,0.2-2.6l-9.8-3.7c-0.4,1.9-0.7,3.9-0.7,6C-0.2,44,12.5,56.9,28.3,57.1
	C44,57.3,56.9,44.6,57.1,28.8C57.2,17.1,50.2,6.9,40.1,2.5z"/>
<polygon fill="#414042" points="63.3,60.1 51.5,60.1 36.2,44.7 41.9,39 "/>
<g>
	<path fill="#383838" d="M101.8,44.4c-1.2,0.8-2.5,1.4-4,1.9c-1.4,0.4-3,0.7-4.6,0.7c-2.4,0-4.6-0.5-6.6-1.5c-2-1-3.7-2.3-5.1-3.9
		c-1.4-1.6-2.5-3.4-3.3-5.5c-0.8-2.1-1.2-4.2-1.2-6.4c0-2.3,0.4-4.4,1.2-6.5c0.8-2.1,2-3.9,3.4-5.5c1.5-1.6,3.2-2.9,5.2-3.8
		c2-0.9,4.1-1.4,6.5-1.4c2.4,0,4.6,0.5,6.6,1.5c2,1,3.7,2.3,5.1,4c1.4,1.6,2.5,3.5,3.3,5.6c0.8,2.1,1.2,4.2,1.2,6.3
		c0,2.2-0.4,4.2-1.1,6.2c-0.7,2-1.8,3.7-3.1,5.3l4.8,5.4h-6.3L101.8,44.4z M93.4,41.1c1.6,0,3.1-0.4,4.4-1.2l-5.1-5.8h6.3l2.1,2.4
		c1.2-2.1,1.8-4.4,1.8-6.8c0-1.5-0.2-2.9-0.7-4.3s-1.1-2.6-1.9-3.6s-1.8-1.9-3-2.5c-1.2-0.6-2.5-1-4-1c-1.5,0-2.9,0.3-4.1,1
		c-1.2,0.7-2.2,1.5-3,2.6c-0.8,1.1-1.4,2.3-1.8,3.7c-0.4,1.4-0.6,2.7-0.6,4.2c0,1.5,0.2,2.9,0.6,4.3c0.4,1.4,1.1,2.6,1.9,3.6
		c0.8,1.1,1.8,1.9,3,2.5C90.5,40.8,91.9,41.1,93.4,41.1z"/>
	<path fill="#383838" d="M128.5,41.1c1.6,0,2.9-0.3,4-1c1.1-0.6,1.9-1.5,2.6-2.5c0.7-1,1.1-2.2,1.4-3.5s0.4-2.7,0.4-4.1V12.7h6.6V30
		c0,2.3-0.3,4.5-0.8,6.6s-1.4,3.8-2.6,5.4c-1.2,1.5-2.7,2.8-4.6,3.6c-1.9,0.9-4.1,1.3-6.8,1.3c-2.7,0-5-0.5-6.9-1.4
		c-1.9-0.9-3.4-2.2-4.6-3.7c-1.2-1.6-2-3.4-2.6-5.4c-0.5-2-0.8-4.2-0.8-6.4V12.7h6.6V30c0,1.4,0.1,2.8,0.4,4.2s0.7,2.5,1.4,3.5
		c0.7,1,1.5,1.8,2.6,2.5C125.7,40.8,127,41.1,128.5,41.1z"/>
	<path fill="#383838" d="M149.7,46.7v-34h6.6v34H149.7z"/>
	<path fill="#383838" d="M161.1,29.5c0-2.1,0.4-4.1,1.1-6.2c0.7-2,1.8-3.8,3.2-5.4c1.4-1.6,3.1-2.9,5.1-3.9c2-1,4.3-1.5,6.9-1.5
		c3,0,5.7,0.7,7.9,2.1c2.2,1.4,3.9,3.2,4.9,5.4l-5.1,3.5c-0.4-1-0.9-1.8-1.5-2.4c-0.6-0.7-1.3-1.2-2-1.6c-0.7-0.4-1.5-0.7-2.2-0.8
		c-0.8-0.2-1.5-0.3-2.2-0.3c-1.6,0-2.9,0.3-4.1,1c-1.2,0.7-2.2,1.5-3,2.6c-0.8,1.1-1.4,2.3-1.8,3.6s-0.6,2.7-0.6,4.1
		c0,1.5,0.2,3,0.7,4.3c0.5,1.4,1.1,2.6,2,3.7c0.8,1.1,1.9,1.9,3,2.5c1.2,0.6,2.5,1,3.9,1c0.7,0,1.5-0.1,2.3-0.3
		c0.8-0.2,1.5-0.5,2.2-0.9s1.4-1,2-1.6c0.6-0.7,1.1-1.4,1.5-2.4l5.4,3.1c-0.5,1.3-1.3,2.4-2.2,3.4c-1,1-2.1,1.8-3.3,2.5
		c-1.2,0.7-2.6,1.2-3.9,1.5c-1.4,0.4-2.7,0.5-4.1,0.5c-2.4,0-4.5-0.5-6.5-1.5c-2-1-3.7-2.4-5.1-4c-1.4-1.6-2.5-3.5-3.3-5.6
		C161.5,33.8,161.1,31.6,161.1,29.5z"/>
	<path fill="#383838" d="M194.5,46.7v-34h6.6v16.6l14.7-16.7h6.9l-13.1,15.1l13.9,19h-7l-10.8-15.2l-4.6,4.9v10.3H194.5z"/>
	<path fill="#2AACE3" d="M246.5,21.6c-0.2-0.2-0.6-0.5-1.2-0.9c-0.6-0.4-1.3-0.8-2.2-1.1c-0.8-0.4-1.8-0.7-2.8-0.9
		c-1-0.3-2-0.4-3-0.4c-1.8,0-3.2,0.3-4.1,1c-0.9,0.7-1.3,1.6-1.3,2.8c0,0.7,0.2,1.3,0.5,1.8s0.8,0.9,1.5,1.2c0.6,0.4,1.4,0.7,2.4,1
		c1,0.3,2.1,0.6,3.4,0.9c1.7,0.4,3.2,0.9,4.5,1.4c1.4,0.5,2.5,1.2,3.5,1.9c0.9,0.8,1.7,1.7,2.2,2.8c0.5,1.1,0.8,2.4,0.8,4
		c0,1.8-0.3,3.4-1,4.7c-0.7,1.3-1.6,2.3-2.8,3.1c-1.2,0.8-2.5,1.4-4,1.8s-3.1,0.6-4.8,0.6c-2.6,0-5.1-0.4-7.6-1.2
		c-2.5-0.8-4.7-1.9-6.7-3.3l2.9-5.7c0.3,0.3,0.8,0.7,1.6,1.1c0.8,0.5,1.6,0.9,2.7,1.4c1,0.5,2.2,0.9,3.4,1.2
		c1.2,0.3,2.5,0.5,3.8,0.5c3.6,0,5.5-1.2,5.5-3.5c0-0.8-0.2-1.4-0.6-1.9c-0.4-0.5-1-1-1.8-1.3c-0.8-0.4-1.7-0.7-2.8-1.1
		s-2.3-0.7-3.6-1c-1.6-0.4-3-0.9-4.2-1.5c-1.2-0.5-2.2-1.1-3-1.8c-0.8-0.7-1.4-1.5-1.8-2.5s-0.6-2.1-0.6-3.4c0-1.7,0.3-3.3,1-4.6
		c0.6-1.3,1.5-2.5,2.7-3.4c1.1-0.9,2.5-1.6,4-2c1.5-0.5,3.1-0.7,4.8-0.7c2.4,0,4.6,0.4,6.6,1.1c2,0.8,3.8,1.6,5.3,2.7L246.5,21.6z"
		/>
	<path fill="#2AACE3" d="M255.3,46.7v-34h6.6v34H255.3z"/>
	<path fill="#2AACE3" d="M291.5,42.9c-2.6,2.7-5.6,4.1-9.1,4.1c-2.2,0-4.2-0.5-6.1-1.4s-3.6-2.2-5-3.9c-1.4-1.6-2.5-3.5-3.4-5.6
		c-0.8-2.1-1.2-4.3-1.2-6.6c0-2.3,0.4-4.5,1.2-6.6c0.8-2.1,2-3.9,3.4-5.4c1.5-1.6,3.2-2.8,5.1-3.7c2-0.9,4.1-1.4,6.4-1.4
		c3.1,0,5.8,0.7,8,2c2.2,1.3,3.9,3.2,5,5.4l-4.9,3.6c-0.8-1.7-2-3-3.4-3.9c-1.5-0.9-3.1-1.3-4.8-1.3c-1.4,0-2.7,0.3-3.8,0.9
		c-1.1,0.6-2.1,1.4-2.9,2.5c-0.8,1.1-1.4,2.3-1.9,3.6c-0.4,1.4-0.7,2.8-0.7,4.4c0,1.6,0.2,3.1,0.7,4.5c0.5,1.4,1.2,2.6,2,3.6
		s1.9,1.8,3,2.4c1.2,0.6,2.5,0.9,3.9,0.9c3.1,0,6-1.6,8.5-4.7v-2.4h-6.9v-4.8H297v17.5h-5.5V42.9z"/>
	<path fill="#2AACE3" d="M309.3,24.9v21.8h-6.6V12.7h5.1L325.6,35V12.7h6.6v34h-5.4L309.3,24.9z"/>
</g>
<g>
</g>
<g>
</g>
<g>
</g>
<g>
</g>
<g>
</g>
<g>
</g>
</svg>
