<svg width="119" height="42" viewBox="0 0 119 42" fill="none" xmlns="http://www.w3.org/2000/svg">
<g clip-path="url(#clip0_947_1219)">
<path d="M17.2056 20.4021C18.6267 19.6049 19.7446 18.5184 20.5622 17.1484C21.3799 15.7784 21.7872 14.2549 21.7872 12.5779C21.7872 10.9008 21.3769 9.35663 20.5622 8.02503C19.7446 6.69343 18.6267 5.63642 17.2056 4.85104C15.7844 4.06566 14.2027 3.67297 12.4604 3.67297H0V31.6188H5.83033V21.5979H10.2782L15.9628 31.6188L22.9586 31.6572L16.5812 20.718C16.7923 20.6206 17.0034 20.5143 17.2085 20.3992L17.2056 20.4021ZM5.83033 8.86355H11.4198C12.3029 8.86355 13.0818 9.0289 13.7508 9.36253C14.4197 9.69617 14.9311 10.1538 15.279 10.7414C15.6268 11.326 15.8022 12.0198 15.8022 12.817C15.8022 13.5611 15.6536 14.2342 15.3593 14.8336C15.0649 15.433 14.6427 15.8995 14.0927 16.2302C13.5427 16.5638 12.9064 16.7291 12.1839 16.7291H5.8333V8.86355H5.83033Z" fill="#001F43"/>
<path d="M41.3292 13.2778C40.9219 12.7228 40.4491 12.2208 39.9021 11.778C39.245 11.2465 38.4809 10.8272 37.6098 10.5202C36.7387 10.2131 35.7813 10.0596 34.7348 10.0596C32.8855 10.0596 31.2383 10.532 29.7904 11.4768C28.3425 12.4216 27.1978 13.7119 26.3535 15.3505C25.5091 16.9892 25.0869 18.87 25.0869 20.9988C25.0869 23.1276 25.5032 25.0172 26.3327 26.6677C27.1622 28.3181 28.289 29.6232 29.7102 30.5798C31.1313 31.5394 32.7249 32.0177 34.4939 32.0177C35.484 32.0177 36.4235 31.8641 37.3095 31.5571C38.1925 31.25 38.9923 30.8396 39.7029 30.32C40.3005 29.883 40.8148 29.3899 41.2519 28.8496V31.6191H47.0019V10.4995H41.3322V13.2778H41.3292ZM38.8763 26.3517C38.0736 26.8566 37.1341 27.1105 36.0608 27.1105C34.9875 27.1105 34.0985 26.8566 33.3077 26.3517C32.5168 25.8468 31.8924 25.1353 31.4375 24.217C30.9827 23.2988 30.7537 22.227 30.7537 21.0017C30.7537 19.7764 30.9797 18.7519 31.4375 17.8484C31.8924 16.9449 32.5168 16.2304 33.3077 15.7137C34.0985 15.1941 35.0172 14.9342 36.0608 14.9342C37.1044 14.9342 38.0706 15.1941 38.8763 15.7137C39.6791 16.2333 40.3035 16.9449 40.7465 17.8484C41.1895 18.7548 41.4095 19.8059 41.4095 21.0017C41.4095 22.1975 41.1895 23.2988 40.7465 24.217C40.3035 25.1353 39.6821 25.8468 38.8763 26.3517Z" fill="#001F43"/>
<path d="M67.4992 12.7373C67.1722 12.4007 66.8095 12.0789 66.3932 11.7807C65.6559 11.2493 64.8264 10.83 63.9017 10.5229C62.9771 10.2159 62.0197 10.0623 61.0267 10.0623C59.1507 10.0623 57.4827 10.5406 56.0229 11.5002C54.5631 12.4598 53.4095 13.7619 52.5651 15.4123C51.7208 17.0628 51.2986 18.9406 51.2986 21.0429C51.2986 23.1451 51.7208 25.0938 52.5651 26.7324C53.4095 28.3681 54.569 29.6613 56.0437 30.6062C57.5184 31.551 59.1804 32.0234 61.0297 32.0234C62.0197 32.0234 62.9652 31.8846 63.8631 31.6041C64.761 31.3236 65.5637 30.9398 66.2743 30.4467C66.8392 30.054 67.3119 29.623 67.6984 29.1535L67.8203 31.6248H73.2077V2.07568H67.4992V12.7344V12.7373ZM67.0176 24.3172C66.5627 25.2502 65.9324 25.9795 65.1267 26.5139C64.3239 27.0454 63.3844 27.3141 62.3111 27.3141C61.2378 27.3141 60.3072 27.0483 59.5163 26.5139C58.7255 25.9825 58.1101 25.2502 57.6671 24.3172C57.2241 23.3872 57.004 22.2947 57.004 21.0429C57.004 19.791 57.2241 18.734 57.6671 17.7891C58.1101 16.8443 58.7255 16.1121 59.5163 15.5925C60.3072 15.0728 61.2378 14.813 62.3111 14.813C63.3844 14.813 64.3209 15.0728 65.1267 15.5925C65.9294 16.1121 66.5597 16.8443 67.0176 17.7891C67.4725 18.734 67.7014 19.8205 67.7014 21.0429C67.7014 22.2652 67.4725 23.3842 67.0176 24.3172Z" fill="#001F43"/>
<path d="M79.4813 5.35002C80.0968 5.88148 80.956 6.15016 82.0531 6.15016C83.1502 6.15016 83.9767 5.86967 84.607 5.31164C85.2373 4.7536 85.5525 4.00661 85.5525 3.07656C85.5525 2.1465 85.2433 1.36703 84.6278 0.820808C84.0094 0.274587 83.1532 0 82.0531 0C80.953 0 80.1295 0.286397 79.4992 0.859192C78.8689 1.43199 78.5537 2.17012 78.5537 3.0736C78.5537 4.05975 78.8629 4.81856 79.4784 5.35002H79.4813Z" fill="#001F43"/>
<path d="M84.9486 10.4993H79.2402V31.6188H84.9486V10.4993Z" fill="#001F43"/>
<path d="M119 0H112.084L100.121 16.3955L95.9225 10.4993H89.0099L96.8382 20.8922L81.4373 42H88.2696L100.254 25.6193L104.488 31.6218H111.32L103.56 21.1019L119 0Z" fill="#001F43"/>
</g>
<defs>
<clipPath id="clip0_947_1219">
<rect width="119" height="42" fill="white"/>
</clipPath>
</defs>
</svg>
