<svg width="36" height="36" viewBox="0 0 36 36" fill="none" xmlns="http://www.w3.org/2000/svg">
<path fill-rule="evenodd" clip-rule="evenodd" d="M33.9255 26.4065C30.9074 32.1132 24.9086 36 18.0037 36C13.3156 36 9.04678 34.2101 5.84894 31.2744L5.54938 24.055L10.8367 23.8378C12.5292 25.9122 15.1129 27.2378 18.0037 27.2378C20.8945 27.2378 23.2536 26.0246 24.9461 24.0999L27.41 29.4171L33.933 26.399L33.9255 26.4065Z" fill="#C21B80"/>
<path fill-rule="evenodd" clip-rule="evenodd" d="M18.4456 5.39959L14.4539 9.45867C11.1138 10.8516 8.76222 14.1468 8.76222 17.9962C8.76222 19.157 8.97192 20.2654 9.36884 21.2914L2.84585 21.561L3.11546 28.114C1.14583 25.2307 0 21.7482 0 18.0037C0 9.60845 5.74412 2.55374 13.5253 0.561646L18.4456 5.39959Z" fill="#F4C506"/>
<path fill-rule="evenodd" clip-rule="evenodd" d="M36 18.0037C36 19.6963 35.7679 21.3289 35.3335 22.8866L28.6757 25.9646L26.5862 21.4487C27.0131 20.3853 27.2453 19.2245 27.2453 18.0037C27.2453 13.1583 23.5157 9.18161 18.7676 8.79218L22.1228 5.37716L16.7156 0.0449345C17.1425 0.0149782 17.5694 0 17.9963 0C27.9418 0 36 8.05825 36 18.0037Z" fill="#4E94F4"/>
</svg>
