<?xml version="1.0" encoding="UTF-8"?>
<svg xmlns="http://www.w3.org/2000/svg" xmlns:xlink="http://www.w3.org/1999/xlink" viewBox="0 0 60.02 58.88">
  <defs>
    <style>
      .cls-1 {
        fill: url(#radial-gradient);
      }

      .cls-1, .cls-2, .cls-3, .cls-4 {
        stroke-width: 0px;
      }

      .cls-2 {
        mix-blend-mode: multiply;
      }

      .cls-5 {
        isolation: isolate;
      }

      .cls-3 {
        fill: #cd2128;
      }

      .cls-4 {
        fill: #fecd14;
      }
    </style>
    <radialGradient id="radial-gradient" cx="17.2" cy="14.12" fx="17.2" fy="14.12" r="48.46" gradientUnits="userSpaceOnUse">
      <stop offset=".12" stop-color="#fff"/>
      <stop offset="1" stop-color="#fecd14"/>
    </radialGradient>
  </defs>
  <g class="cls-5">
    <g id="Layer_2" data-name="Layer 2">
      <g id="Layer_3" data-name="Layer 3">
        <g>
          <g>
            <path class="cls-1" d="m56.98,19.01C52.77,7.9,42.03,0,29.44,0S6.23,7.81,1.97,18.83c5.62-1.16,14.68-2.48,26.89-2.48,12.86,0,22.41,1.45,28.11,2.66Z"/>
            <path class="cls-4" d="m28.86,16.35c-12.22,0-21.27,1.31-26.89,2.48-1.27,3.29-1.97,6.87-1.97,10.61,0,16.26,13.18,29.44,29.44,29.44s29.44-13.18,29.44-29.44c0-3.67-.67-7.18-1.9-10.43-5.7-1.2-15.25-2.66-28.11-2.66Z"/>
          </g>
          <g>
            <path class="cls-2" d="m59.44,42.3c-3.69-1.3-18.94-1.76-28.55-3.31,5.43-4.67,10.46-9.77,13.53-16.52,4.63-11.47-11.43-14.14-19.37-12.84-6.05.8-13.31,3.24-15.52,9.95-1.03,4.08-.04,7.31.73,10.96,2.29,8.13,5.59,15.44,11.34,21.36,2.29,2.41,6.4-.03,5.35-3.22-.48-1.58-1.06-3.14-1.68-4.69.79.1,1.56.16,2.19.26,4.11.51,8.23.84,12.34,1.08,5.46.34,10.9.41,16.37.68,2,.13,5.18-3.03,3.29-3.7ZM18.19,23.39c-.08-1.04-.17-1.21.44-2,4-3.68,12.12-4.04,17.05-2.76.64.17,1.12.43,1.41.6-.22.7-.63,1.78-1.06,2.47-3.22,5.8-8.55,11.26-13.47,15.97-2.02-4.65-3.9-9.31-4.37-14.28Z"/>
            <path class="cls-3" d="m58.71,41.57c-3.69-1.3-18.94-1.76-28.55-3.31,5.43-4.67,10.46-9.77,13.53-16.52,4.63-11.47-11.43-14.14-19.37-12.84-6.05.8-13.31,3.24-15.52,9.95-1.03,4.08-.04,7.31.73,10.96,2.29,8.13,5.59,15.44,11.34,21.36,2.29,2.41,6.4-.03,5.35-3.22-.48-1.58-1.06-3.14-1.68-4.69.79.1,1.56.16,2.19.26,4.11.51,8.23.84,12.34,1.08,5.46.34,10.9.41,16.37.68,2,.13,5.18-3.03,3.29-3.7ZM17.46,22.66c-.08-1.04-.17-1.21.44-2,4-3.68,12.12-4.04,17.05-2.76.64.17,1.12.43,1.41.6-.22.7-.63,1.78-1.06,2.47-3.22,5.8-8.55,11.26-13.47,15.97-2.02-4.65-3.9-9.31-4.37-14.28Z"/>
          </g>
        </g>
      </g>
    </g>
  </g>
</svg>