<svg xmlns="http://www.w3.org/2000/svg" viewBox="0 0 293.52 51.69"><g id="Calque_2" data-name="Calque 2"><g id="Calque_1-2" data-name="Calque 1"><path d="M13.58,1.19C11.94.73,10.38.38,9,.12A7.58,7.58,0,0,0,0,7.56V19.67C2.33,13.57,6.7,4.84,13.58,1.19Z" style="fill:#e50072"></path><path d="M17.94,16.68a7.58,7.58,0,0,0-10.47.09A63.41,63.41,0,0,0,0,25.49V44.13a7.57,7.57,0,0,0,9,7.43A51.09,51.09,0,0,0,34.44,38.83,72.35,72.35,0,0,0,17.94,16.68Z" style="fill:#e50072"></path><path d="M42,21.38A53.38,53.38,0,0,0,19.47,3.24,80.16,80.16,0,0,1,35.61,37.73,59.15,59.15,0,0,0,42,30.31,7.61,7.61,0,0,0,42,21.38Z" style="fill:#e50072"></path><path d="M70,44.42H65.68L79.23,10.89a4.24,4.24,0,0,1,3.93-2.65h2.53a4.23,4.23,0,0,1,3.92,2.65l13.56,33.53H99.58a5.91,5.91,0,0,1-5.51-3.78L84.45,15.77l-9.86,25.5A4.92,4.92,0,0,1,70,44.42Z" style="fill:#e50072"></path><path d="M81.65,8.52a4.22,4.22,0,0,1,1.51-.28h2.53a4.23,4.23,0,0,1,3.92,2.65l13.56,33.53H99.58a5.91,5.91,0,0,1-5.51-3.78Z" style="fill:#9e005a"></path><path d="M117.88,38.2h19.48v1.29a4.93,4.93,0,0,1-4.93,4.93H110.67V8.24h2.27a4.94,4.94,0,0,1,4.94,4.93Z" style="fill:#9e005a"></path><path d="M152.36,38.2h19.49v1.29a4.93,4.93,0,0,1-4.93,4.93H145.16V8.24h2.27a4.93,4.93,0,0,1,4.93,4.93Z" style="fill:#9e005a"></path><path d="M193.05,7.7h11.57V9.12a4.93,4.93,0,0,1-5,4.93l-6.12,0c-4.48,0-6.71,1.4-6.71,4.2a3.1,3.1,0,0,0,1.47,2.89,14.1,14.1,0,0,0,3,1.26l.55.16,5.18,1.53a17,17,0,0,1,7.1,3.63A8.25,8.25,0,0,1,206.47,34a9.75,9.75,0,0,1-3.82,7.91Q198.89,45,192.77,45H179.35V43.49a4.93,4.93,0,0,1,5-4.94l7.82,0a9.59,9.59,0,0,0,5-1.11,3.55,3.55,0,0,0,1.83-3.2,3.37,3.37,0,0,0-1-2.56,8.11,8.11,0,0,0-3.44-1.58l-5.73-1.53q-9.45-2.57-9.44-9.77a9.93,9.93,0,0,1,3.71-8.08Q186.77,7.69,193.05,7.7Z" style="fill:#9e005a"></path><path d="M218.29,44.42H214l13.32-32.93a5.17,5.17,0,0,1,4.81-3.25h1.24a5.17,5.17,0,0,1,4.81,3.25l13.32,32.93h-4.26a4.92,4.92,0,0,1-4.6-3.15l-9.86-25.5-9.86,25.5A4.93,4.93,0,0,1,218.29,44.42Z" style="fill:#9e005a"></path><path d="M286.38,8.24h0a7.09,7.09,0,0,1,7.09,7.09v29.1a0,0,0,0,1,0,0h-3.64a3.49,3.49,0,0,1-3.49-3.49V8.24A0,0,0,0,1,286.38,8.24Z" style="fill:#e50072"></path><path d="M293.52,41.65,267,10.09a5.21,5.21,0,0,0-4-1.85H259V39.49a4.93,4.93,0,0,0,4.93,4.93h2.27V19.81l19.4,23.1a4.25,4.25,0,0,0,3.25,1.51h4.7Z" style="fill:#9e005a"></path></g></g></svg>