<?xml version="1.0" encoding="UTF-8"?> <!-- Generator: Adobe Illustrator 24.0.2, SVG Export Plug-In . SVG Version: 6.00 Build 0) --> <svg xmlns="http://www.w3.org/2000/svg" xmlns:xlink="http://www.w3.org/1999/xlink" version="1.1" id="Layer_1" x="0px" y="0px" viewBox="0 0 204 26" style="enable-background:new 0 0 204 26;" xml:space="preserve"> <style type="text/css"> .st0{fill-rule:evenodd;clip-rule:evenodd;fill:#0055FF;} .st1{fill-rule:evenodd;clip-rule:evenodd;fill:#42D67E;} </style> <path class="st0" d="M43.79,12.48c-0.76-0.41-1.61-0.63-2.48-0.65c-0.35-0.02-0.71,0.07-1.01,0.26c-0.12,0.07-0.22,0.17-0.29,0.29 c-0.07,0.12-0.1,0.26-0.1,0.4c-0.02,0.12-0.02,0.24,0,0.36c0.07,0.12,0.17,0.21,0.29,0.26c0.2,0.11,0.41,0.18,0.63,0.22l1.09,0.26 c1.06,0.15,2.05,0.62,2.82,1.35c0.31,0.33,0.56,0.72,0.72,1.14c0.16,0.42,0.24,0.88,0.22,1.33c0,0.7-0.16,1.4-0.46,2.03 c-0.29,0.6-0.72,1.12-1.27,1.52c-0.58,0.44-1.23,0.77-1.93,0.96c-0.81,0.24-1.65,0.36-2.5,0.34c-1.81-0.02-3.59-0.54-5.13-1.48 l1.71-3.22c1.05,0.79,2.32,1.25,3.64,1.31c0.36,0.01,0.72-0.09,1.03-0.29c0.12-0.07,0.22-0.17,0.29-0.28 c0.07-0.12,0.11-0.25,0.12-0.38c0.03-0.14,0.03-0.29,0-0.43c-0.05-0.12-0.14-0.22-0.26-0.29c-0.18-0.12-0.39-0.2-0.6-0.26 c-0.34-0.1-0.68-0.18-1.03-0.24c-1.08-0.15-2.1-0.59-2.96-1.26c-0.29-0.31-0.51-0.68-0.66-1.08s-0.21-0.83-0.18-1.25 c-0.02-0.67,0.12-1.33,0.39-1.94c0.27-0.57,0.66-1.07,1.15-1.47c0.54-0.43,1.16-0.75,1.83-0.94c0.77-0.23,1.57-0.34,2.38-0.32 c1.43,0,2.84,0.28,4.16,0.82L43.79,12.48z"></path> <path class="st0" d="M57.16,13.33c-0.7-0.5-1.53-0.78-2.39-0.8c-0.42,0-0.84,0.08-1.23,0.24c-0.39,0.15-0.75,0.37-1.04,0.67 c-0.3,0.29-0.52,0.65-0.67,1.04c-0.16,0.4-0.25,0.83-0.24,1.26c-0.01,0.43,0.08,0.85,0.24,1.25c0.16,0.36,0.39,0.69,0.67,0.97 c0.29,0.28,0.63,0.5,1.01,0.65c0.39,0.15,0.81,0.22,1.23,0.22c0.88-0.01,1.73-0.32,2.39-0.89v3.89c-1.01,0.45-2.1,0.69-3.2,0.72 c-0.89-0.03-1.77-0.22-2.6-0.56c-0.83-0.31-1.59-0.77-2.24-1.36c-0.67-0.6-1.2-1.33-1.57-2.15c-0.39-0.87-0.59-1.82-0.58-2.78 c-0.01-0.95,0.18-1.9,0.55-2.78c0.35-0.82,0.87-1.57,1.51-2.2c0.65-0.62,1.43-1.1,2.27-1.42c0.9-0.35,1.87-0.53,2.84-0.53 c1.07,0,2.12,0.24,3.08,0.72L57.16,13.33z"></path> <path class="st0" d="M59.13,9.17h4.57v2.13c0.43-0.69,1.02-1.27,1.71-1.71c0.75-0.41,1.59-0.63,2.45-0.61h0.39 c0.16-0.02,0.33-0.02,0.5,0v4.33c-0.61-0.29-1.29-0.44-1.97-0.44c-0.44-0.03-0.89,0.03-1.3,0.19c-0.41,0.16-0.78,0.42-1.08,0.74 c-0.58,0.8-0.86,1.78-0.79,2.76v5.53h-4.48V9.17z"></path> <path class="st0" d="M79.25,13.74c-0.13-0.6-0.45-1.14-0.92-1.53c-0.5-0.36-1.1-0.55-1.71-0.55c-0.61,0-1.21,0.19-1.71,0.55 c-0.46,0.4-0.76,0.95-0.84,1.55L79.25,13.74z M73.9,16.42c0,1.96,0.92,2.95,2.77,2.95c0.45,0.02,0.89-0.08,1.29-0.29 c0.4-0.21,0.73-0.52,0.97-0.9h4.4c-0.89,2.93-3.11,4.42-6.67,4.42c-1.02,0.01-2.03-0.16-2.99-0.49c-0.87-0.31-1.66-0.78-2.34-1.4 c-0.65-0.61-1.15-1.35-1.49-2.17c-0.37-0.89-0.56-1.85-0.53-2.81c-0.01-0.99,0.15-1.97,0.5-2.9c0.31-0.85,0.81-1.62,1.47-2.25 c0.66-0.63,1.45-1.1,2.31-1.37c0.97-0.34,1.99-0.51,3.01-0.49c1-0.01,1.99,0.15,2.92,0.49c0.84,0.29,1.61,0.77,2.24,1.4 c0.62,0.65,1.09,1.42,1.39,2.27c0.33,0.98,0.49,2,0.48,3.04v0.51H73.9z"></path> <path class="st0" d="M94.32,13.74c-0.13-0.6-0.47-1.14-0.94-1.53c-0.5-0.36-1.1-0.55-1.71-0.55c-0.61,0-1.21,0.19-1.71,0.55 c-0.46,0.4-0.76,0.95-0.84,1.55L94.32,13.74z M88.97,16.42c0,1.96,0.92,2.95,2.77,2.95c0.45,0.02,0.89-0.09,1.28-0.3 c0.39-0.21,0.72-0.52,0.96-0.9h4.41c-0.89,2.93-3.11,4.42-6.69,4.42c-1.02,0.01-2.03-0.16-2.99-0.49c-0.86-0.3-1.65-0.78-2.33-1.4 c-0.65-0.61-1.17-1.34-1.51-2.17c-0.36-0.89-0.55-1.85-0.55-2.81c0-0.99,0.17-1.97,0.51-2.9c0.31-0.83,0.8-1.59,1.44-2.2 c0.64-0.62,1.41-1.08,2.26-1.36c0.96-0.34,1.97-0.51,2.99-0.49c1-0.02,2,0.15,2.94,0.49c0.84,0.3,1.6,0.78,2.22,1.42 c0.62,0.65,1.09,1.42,1.39,2.27c0.33,0.98,0.49,2,0.48,3.04v0.44H88.97z"></path> <path class="st0" d="M99.34,9.17h4.57v1.71c0.49-0.65,1.14-1.18,1.88-1.52c0.72-0.27,1.49-0.41,2.26-0.39 c0.8-0.02,1.59,0.13,2.33,0.44c0.65,0.29,1.24,0.71,1.71,1.25c0.36,0.42,0.62,0.92,0.75,1.45c0.14,0.6,0.21,1.22,0.21,1.84v8.19 h-4.62v-6.58c0.01-0.52-0.03-1.03-0.14-1.53c-0.07-0.38-0.24-0.73-0.51-1.01c-0.19-0.19-0.43-0.34-0.68-0.43 c-0.26-0.08-0.53-0.12-0.8-0.12c-0.32-0.01-0.63,0.04-0.93,0.16c-0.3,0.12-0.56,0.3-0.78,0.52c-0.44,0.56-0.67,1.26-0.63,1.98v6.82 h-4.6V9.17z"></path> <path class="st1" d="M125.15,1.07c0.78,0.31,1.5,0.74,2.12,1.3c0.61,0.55,1.11,1.21,1.47,1.94c0.36,0.75,0.55,1.57,0.55,2.4v15.35 h-4.14V1.07z M123.05,0.61v3.87c-0.46-0.12-0.95-0.07-1.39,0.14c-0.26,0.12-0.5,0.29-0.68,0.51c-0.19,0.22-0.34,0.48-0.44,0.75 c-0.1,0.28-0.15,0.57-0.15,0.87v2.39H123v3.87h-2.62v9.11h-4.57v-9.11h-1.71V9.17h1.71V6.78c-0.01-0.83,0.16-1.65,0.51-2.4 c0.36-0.73,0.85-1.39,1.45-1.94c1.3-1.15,2.98-1.79,4.72-1.79L123.05,0.61z"></path> <path class="st1" d="M136.33,9.17v7.25c-0.03,0.32,0.01,0.64,0.12,0.95c0.1,0.3,0.27,0.58,0.49,0.82c0.22,0.24,0.48,0.43,0.78,0.56 c0.29,0.13,0.61,0.2,0.94,0.2c0.32,0,0.64-0.07,0.94-0.2c0.3-0.13,0.56-0.32,0.78-0.56c0.22-0.24,0.38-0.52,0.49-0.82 c0.1-0.3,0.14-0.63,0.12-0.95V9.17h4.57v8.14c0.05,0.74-0.08,1.49-0.38,2.17c-0.3,0.68-0.76,1.28-1.34,1.75 c-1.58,0.85-3.34,1.3-5.13,1.3c-1.79,0-3.56-0.45-5.13-1.3c-0.58-0.47-1.04-1.07-1.34-1.75c-0.3-0.68-0.43-1.43-0.37-2.17V9.17 H136.33z"></path> <path class="st1" d="M157.38,13.74c-0.13-0.6-0.47-1.14-0.94-1.53c-0.5-0.36-1.1-0.55-1.71-0.55c-0.61,0-1.21,0.19-1.71,0.55 c-0.46,0.4-0.76,0.95-0.84,1.55L157.38,13.74z M152.09,16.42c0,1.96,0.92,2.95,2.79,2.95c0.45,0.02,0.89-0.09,1.28-0.3 c0.39-0.21,0.72-0.52,0.96-0.9h4.4c-0.89,2.93-3.11,4.42-6.67,4.42c-1.02,0.01-2.04-0.15-3.01-0.48c-0.86-0.31-1.65-0.79-2.33-1.4 c-0.65-0.61-1.16-1.35-1.5-2.17c-0.36-0.9-0.54-1.85-0.53-2.81c0-0.99,0.17-1.97,0.51-2.9c0.32-0.84,0.81-1.59,1.45-2.22 c0.65-0.6,1.41-1.07,2.24-1.36c0.96-0.34,1.97-0.51,2.99-0.49c1-0.01,2,0.15,2.94,0.49c0.84,0.3,1.6,0.78,2.22,1.42 c0.62,0.65,1.09,1.42,1.39,2.27c0.33,0.98,0.49,2,0.48,3.04v0.44H152.09z"></path> <path class="st1" d="M163.68,9.17h4.55v1.71c0.49-0.66,1.15-1.18,1.9-1.52c0.71-0.27,1.48-0.41,2.24-0.39 c0.8-0.02,1.59,0.13,2.33,0.44c0.66,0.28,1.24,0.71,1.71,1.25c0.36,0.42,0.62,0.92,0.75,1.45c0.14,0.6,0.21,1.22,0.21,1.84v8.19 h-4.58v-6.58c0.01-0.52-0.03-1.03-0.14-1.53c-0.07-0.36-0.24-0.69-0.5-0.96c-0.19-0.19-0.42-0.34-0.68-0.43 c-0.26-0.08-0.53-0.12-0.8-0.12c-0.32-0.01-0.63,0.04-0.93,0.16c-0.29,0.12-0.56,0.3-0.78,0.52c-0.44,0.56-0.66,1.27-0.62,1.98V22 h-4.55L163.68,9.17z"></path> <path class="st1" d="M188.92,13.33c-0.7-0.5-1.53-0.78-2.39-0.8c-0.42,0-0.84,0.08-1.23,0.24c-0.37,0.14-0.71,0.36-0.99,0.63 c-0.29,0.28-0.51,0.62-0.67,0.99c-0.16,0.4-0.24,0.83-0.24,1.26c0,0.43,0.08,0.85,0.24,1.25c0.15,0.37,0.38,0.7,0.67,0.97 c0.28,0.28,0.62,0.51,0.99,0.65c0.39,0.15,0.81,0.22,1.23,0.22c0.88-0.01,1.73-0.32,2.39-0.89v3.89c-1.01,0.45-2.1,0.7-3.2,0.72 c-0.92,0.01-1.83-0.15-2.69-0.48c-0.84-0.3-1.6-0.77-2.25-1.38c-0.65-0.6-1.18-1.33-1.54-2.14c-0.39-0.87-0.59-1.82-0.56-2.78 c-0.02-0.96,0.17-1.91,0.55-2.8c0.36-0.83,0.88-1.58,1.53-2.2c0.66-0.62,1.43-1.1,2.28-1.42c0.9-0.35,1.86-0.52,2.82-0.51 c1.07-0.02,2.13,0.22,3.08,0.7L188.92,13.33z"></path> <path class="st1" d="M199.73,13.74c-0.12-0.6-0.45-1.15-0.92-1.54c-0.5-0.36-1.1-0.55-1.71-0.55c-0.61,0-1.21,0.19-1.71,0.55 c-0.46,0.4-0.77,0.95-0.85,1.55L199.73,13.74z M194.39,16.42c0,1.96,0.92,2.95,2.77,2.95c0.45,0.02,0.89-0.08,1.28-0.29 c0.39-0.21,0.72-0.52,0.96-0.9h4.41c-0.89,2.93-3.11,4.42-6.67,4.42c-1.02,0.01-2.04-0.15-3.01-0.48c-0.86-0.31-1.65-0.78-2.33-1.4 c-0.65-0.61-1.16-1.35-1.51-2.17c-0.36-0.89-0.54-1.85-0.53-2.81c0-0.99,0.17-1.97,0.51-2.9c0.31-0.83,0.8-1.58,1.44-2.2 c0.64-0.61,1.41-1.09,2.26-1.38c0.96-0.34,1.97-0.51,2.99-0.49c1-0.02,2,0.15,2.94,0.49c0.84,0.29,1.59,0.78,2.21,1.42 c0.63,0.64,1.1,1.42,1.39,2.27c0.34,0.98,0.5,2,0.48,3.04v0.44H194.39z"></path> <path class="st0" d="M21.25,15.72c0,0.56-0.18,1.1-0.51,1.56c-0.33,0.45-0.79,0.79-1.32,0.97c-0.45,1.67-1.33,3.2-2.57,4.42 c-0.64,0.66-1.36,1.24-2.16,1.71c-1.5,0.83-3.19,1.25-4.9,1.23c-1.71-0.02-3.39-0.49-4.86-1.36c-1.47-0.87-2.7-2.1-3.55-3.58 c-0.85-1.48-1.3-3.16-1.3-4.87c0-1.71,0.45-3.38,1.3-4.87c0.85-1.48,2.07-2.72,3.55-3.58C6.41,6.48,8.09,6.01,9.8,5.99 c1.71-0.02,3.4,0.4,4.9,1.23c-0.79,0.44-1.52,0.99-2.17,1.62c-0.84-0.31-1.72-0.46-2.62-0.44C8.53,8.41,7.19,8.8,6.02,9.53 c-1.16,0.73-2.1,1.77-2.71,3s-0.86,2.61-0.73,3.97c0.13,1.37,0.64,2.67,1.47,3.76c0.83,1.1,1.95,1.94,3.23,2.44 c1.28,0.5,2.68,0.64,4.03,0.39c1.35-0.24,2.61-0.86,3.64-1.77c1.03-0.92,1.78-2.1,2.17-3.41c-0.49-0.31-0.87-0.77-1.07-1.31 c-0.21-0.54-0.23-1.13-0.07-1.69c0.16-0.56,0.5-1.04,0.97-1.39c0.46-0.35,1.03-0.53,1.61-0.53c0.29-0.01,0.58,0.04,0.86,0.14 c0.53,0.18,1,0.51,1.32,0.97c0.33,0.45,0.51,1,0.51,1.56"></path> <path class="st1" d="M29.34,15.72c-0.01,1.7-0.47,3.38-1.33,4.85c-0.86,1.47-2.08,2.7-3.56,3.56c-1.48,0.86-3.15,1.32-4.86,1.34 c-1.71,0.02-3.39-0.4-4.89-1.23c0.8-0.47,1.53-1.04,2.17-1.71c0.84,0.31,1.72,0.46,2.62,0.46c1.91-0.09,3.72-0.91,5.04-2.3 c1.32-1.38,2.06-3.22,2.06-5.13s-0.74-3.75-2.06-5.13c-1.32-1.38-3.13-2.21-5.04-2.3c-1.74,0.01-3.43,0.61-4.79,1.71 c-1.1,0.93-1.92,2.15-2.34,3.53c0.47,0.32,0.83,0.79,1.02,1.32c0.19,0.54,0.2,1.12,0.03,1.67c-0.17,0.54-0.51,1.02-0.98,1.36 c-0.46,0.34-1.02,0.52-1.59,0.51c-0.3,0.01-0.59-0.04-0.87-0.14c-0.55-0.17-1.03-0.51-1.37-0.97c-0.34-0.46-0.52-1.02-0.52-1.59 c0-0.57,0.18-1.13,0.52-1.59c0.34-0.46,0.82-0.8,1.37-0.97c0.45-1.67,1.33-3.2,2.57-4.42c0.64-0.67,1.37-1.24,2.17-1.71 c1.49-0.83,3.18-1.25,4.89-1.23c1.71,0.02,3.38,0.48,4.86,1.34c1.48,0.86,2.7,2.09,3.56,3.56c0.86,1.48,1.31,3.15,1.32,4.85"></path> </svg> 