<?xml version="1.0" encoding="utf-8"?>
<!-- Generator: Adobe Illustrator 24.2.3, SVG Export Plug-In . SVG Version: 6.00 Build 0)  -->
<svg version="1.1" id="Layer_1" xmlns="http://www.w3.org/2000/svg" xmlns:xlink="http://www.w3.org/1999/xlink" x="0px" y="0px"
	 viewBox="0 0 445.42 78.42" style="enable-background:new 0 0 445.42 78.42;" xml:space="preserve">
<style type="text/css">
	.st0{fill:#7AA941;stroke:#7AA941;stroke-width:0.25;stroke-miterlimit:10;}
	.st1{fill:#282828;}
	.st2{fill:#7AA941;}
</style>
<path class="st0" d="M64.78,11.16C57.97,4.9,48.87,1.07,38.89,1.07c-7.7,0-14.88,2.28-20.88,6.19L64.78,11.16z"/>
<path class="st0" d="M6.83,60.31C2.89,54.29,0.59,47.1,0.6,39.37c0-7.88,2.38-15.2,6.45-21.28L6.83,60.31z"/>
<path class="st0" d="M19.84,72.59c5.61,3.22,12.11,5.07,19.05,5.07c21.15,0,38.29-17.14,38.29-38.29c0-8.13-2.53-15.67-6.85-21.87
	l-50.49-3.26c0,0-5.83-0.33-5.83,5.67v40.41c0,0-0.24,7.06,8.64,5.77l41.5-7.41c0,0,1.86-0.52,2.28,0.81c0,0,0.73,1.5-1.5,2.19
	L19.84,72.59z"/>
<path class="st1" d="M84.01,55.4c-0.48-0.67-0.69-1.53-0.64-2.58c0.05-1.05,0.67-1.96,1.86-2.72c0.76-0.48,1.58-0.68,2.44-0.61
	c0.86,0.07,1.69,0.51,2.51,1.33c1.38,1.39,2.84,2.46,4.37,3.22c1.53,0.76,3.44,1.15,5.73,1.15c0.72-0.05,1.5-0.15,2.36-0.32
	c0.86-0.17,1.61-0.55,2.26-1.15c0.64-0.6,0.97-1.52,0.97-2.76c0-1.05-0.36-1.89-1.07-2.51c-0.72-0.62-1.66-1.15-2.83-1.58
	c-1.17-0.43-2.47-0.84-3.9-1.22c-1.48-0.43-3-0.91-4.55-1.43c-1.55-0.52-2.97-1.21-4.26-2.04c-1.29-0.83-2.34-1.95-3.15-3.33
	c-0.81-1.38-1.22-3.13-1.22-5.23c0-2.39,0.67-4.42,2.01-6.09c1.34-1.67,3.07-2.96,5.19-3.87c2.12-0.91,4.36-1.36,6.7-1.36
	c1.48,0,3.03,0.18,4.66,0.54c1.62,0.36,3.18,0.93,4.66,1.72c1.48,0.79,2.72,1.83,3.73,3.12c0.52,0.72,0.83,1.58,0.93,2.58
	c0.1,1-0.36,1.91-1.36,2.72c-0.72,0.57-1.55,0.82-2.51,0.75c-0.96-0.07-1.74-0.39-2.36-0.97c-0.81-1.05-1.9-1.89-3.26-2.51
	c-1.36-0.62-2.93-0.93-4.69-0.93c-0.72,0-1.49,0.08-2.33,0.25c-0.84,0.17-1.56,0.53-2.18,1.07c-0.62,0.55-0.93,1.42-0.93,2.61
	c0,1.1,0.36,1.97,1.07,2.61c0.72,0.65,1.68,1.17,2.9,1.58c1.22,0.41,2.52,0.8,3.9,1.18c1.43,0.38,2.89,0.84,4.37,1.36
	c1.48,0.53,2.84,1.22,4.08,2.08c1.24,0.86,2.24,1.97,3.01,3.33c0.76,1.36,1.15,3.09,1.15,5.19c0,2.44-0.72,4.51-2.15,6.23
	c-1.43,1.72-3.22,3.02-5.37,3.9c-2.15,0.88-4.35,1.33-6.59,1.33c-2.82,0-5.64-0.49-8.45-1.47C88.21,59.61,85.87,57.88,84.01,55.4z"
	/>
<path class="st1" d="M134.94,22.3c2.72,0,5.1,0.29,7.13,0.86c2.03,0.57,3.61,1.37,4.73,2.4c1.12,1.03,1.68,2.26,1.68,3.69
	c0,0.96-0.29,1.85-0.86,2.69c-0.57,0.84-1.41,1.25-2.51,1.25c-0.76,0-1.4-0.11-1.9-0.32c-0.5-0.22-0.94-0.49-1.33-0.82
	c-0.38-0.33-0.84-0.64-1.36-0.93c-0.48-0.29-1.21-0.51-2.19-0.68c-0.98-0.17-1.71-0.25-2.18-0.25c-2.44,0-4.5,0.53-6.2,1.58
	c-1.7,1.05-3,2.47-3.9,4.26c-0.91,1.79-1.36,3.86-1.36,6.2c0,2.29,0.47,4.33,1.4,6.13c0.93,1.79,2.22,3.21,3.87,4.26
	c1.65,1.05,3.55,1.58,5.7,1.58c1.19,0,2.22-0.07,3.08-0.21c0.86-0.14,1.58-0.36,2.15-0.64c0.67-0.38,1.26-0.79,1.79-1.22
	c0.53-0.43,1.31-0.64,2.36-0.64c1.24,0,2.2,0.39,2.87,1.18c0.67,0.79,1,1.76,1,2.9c0,1.19-0.67,2.28-2.01,3.26
	c-1.34,0.98-3.09,1.77-5.27,2.36c-2.17,0.6-4.53,0.9-7.06,0.9c-3.77,0-7.05-0.87-9.81-2.62c-2.77-1.74-4.91-4.12-6.41-7.13
	c-1.5-3.01-2.26-6.38-2.26-10.1c0-3.92,0.8-7.37,2.4-10.35c1.6-2.98,3.82-5.32,6.66-7.02C128,23.15,131.26,22.3,134.94,22.3z"/>
<path class="st1" d="M156.93,61.34c-1.24,0-2.27-0.42-3.08-1.25c-0.81-0.84-1.22-1.87-1.22-3.12V27.39c0-1.24,0.41-2.28,1.22-3.12
	c0.81-0.84,1.84-1.25,3.08-1.25c1.24,0,2.27,0.42,3.08,1.25c0.81,0.84,1.22,1.88,1.22,3.12v6.73l-0.5-4.8
	c0.53-1.15,1.21-2.16,2.04-3.04c0.84-0.88,1.78-1.62,2.83-2.22c1.05-0.6,2.17-1.04,3.37-1.33c1.19-0.29,2.39-0.43,3.58-0.43
	c1.43,0,2.64,0.41,3.62,1.22c0.98,0.81,1.47,1.77,1.47,2.87c0,1.58-0.41,2.71-1.22,3.4c-0.81,0.69-1.7,1.04-2.65,1.04
	c-0.91,0-1.73-0.17-2.47-0.5c-0.74-0.33-1.59-0.5-2.54-0.5c-0.86,0-1.73,0.2-2.61,0.61c-0.88,0.41-1.7,1.04-2.44,1.9
	c-0.74,0.86-1.34,1.92-1.79,3.19c-0.45,1.27-0.68,2.76-0.68,4.48v16.98c0,1.24-0.41,2.28-1.22,3.12
	C159.2,60.92,158.17,61.34,156.93,61.34z"/>
<path class="st1" d="M197.33,62.06c-4.06,0-7.58-0.85-10.57-2.54c-2.99-1.69-5.28-4-6.88-6.91c-1.6-2.91-2.4-6.21-2.4-9.89
	c0-4.3,0.87-7.96,2.61-11c1.74-3.03,4.02-5.36,6.84-6.98c2.82-1.62,5.8-2.44,8.95-2.44c2.44,0,4.74,0.5,6.91,1.5
	c2.17,1,4.09,2.38,5.77,4.12c1.67,1.74,3,3.76,3.98,6.05c0.98,2.29,1.47,4.73,1.47,7.31c-0.05,1.15-0.5,2.08-1.36,2.79
	c-0.86,0.72-1.86,1.07-3.01,1.07h-27.37l-2.15-7.16h26.29l-1.58,1.43v-1.93c-0.1-1.38-0.59-2.63-1.47-3.73
	c-0.88-1.1-1.98-1.97-3.3-2.61c-1.31-0.65-2.71-0.97-4.19-0.97c-1.43,0-2.77,0.19-4.01,0.57c-1.24,0.38-2.32,1.03-3.22,1.93
	c-0.91,0.91-1.62,2.13-2.15,3.65c-0.53,1.53-0.79,3.46-0.79,5.8c0,2.58,0.54,4.76,1.61,6.55c1.07,1.79,2.46,3.15,4.15,4.08
	c1.69,0.93,3.5,1.4,5.41,1.4c1.77,0,3.18-0.14,4.23-0.43c1.05-0.29,1.9-0.63,2.54-1.04c0.64-0.41,1.23-0.75,1.75-1.04
	c0.86-0.43,1.67-0.64,2.44-0.64c1.05,0,1.92,0.36,2.61,1.07c0.69,0.72,1.04,1.55,1.04,2.51c0,1.29-0.67,2.46-2.01,3.51
	c-1.24,1.05-2.98,1.97-5.23,2.76C202.04,61.66,199.72,62.06,197.33,62.06z"/>
<path class="st1" d="M236.38,62.06c-4.06,0-7.58-0.85-10.57-2.54c-2.99-1.69-5.28-4-6.88-6.91c-1.6-2.91-2.4-6.21-2.4-9.89
	c0-4.3,0.87-7.96,2.61-11c1.74-3.03,4.02-5.36,6.84-6.98c2.82-1.62,5.8-2.44,8.95-2.44c2.44,0,4.74,0.5,6.91,1.5
	c2.17,1,4.09,2.38,5.77,4.12c1.67,1.74,3,3.76,3.98,6.05c0.98,2.29,1.47,4.73,1.47,7.31c-0.05,1.15-0.5,2.08-1.36,2.79
	c-0.86,0.72-1.86,1.07-3.01,1.07h-27.36l-2.15-7.16h26.29l-1.58,1.43v-1.93c-0.1-1.38-0.59-2.63-1.47-3.73
	c-0.88-1.1-1.98-1.97-3.29-2.61c-1.31-0.65-2.71-0.97-4.19-0.97c-1.43,0-2.77,0.19-4.01,0.57c-1.24,0.38-2.32,1.03-3.22,1.93
	c-0.91,0.91-1.62,2.13-2.15,3.65c-0.53,1.53-0.79,3.46-0.79,5.8c0,2.58,0.54,4.76,1.61,6.55c1.07,1.79,2.46,3.15,4.15,4.08
	c1.69,0.93,3.5,1.4,5.41,1.4c1.77,0,3.17-0.14,4.23-0.43c1.05-0.29,1.9-0.63,2.54-1.04c0.64-0.41,1.23-0.75,1.75-1.04
	c0.86-0.43,1.67-0.64,2.44-0.64c1.05,0,1.92,0.36,2.62,1.07c0.69,0.72,1.04,1.55,1.04,2.51c0,1.29-0.67,2.46-2.01,3.51
	c-1.24,1.05-2.99,1.97-5.23,2.76C241.08,61.66,238.76,62.06,236.38,62.06z"/>
<path class="st1" d="M278.21,22.3c3.53,0,6.22,0.74,8.06,2.22c1.84,1.48,3.11,3.45,3.8,5.91c0.69,2.46,1.04,5.19,1.04,8.2v18.34
	c0,1.24-0.41,2.28-1.22,3.12c-0.81,0.84-1.84,1.25-3.08,1.25c-1.24,0-2.27-0.42-3.08-1.25c-0.81-0.84-1.22-1.87-1.22-3.12V38.63
	c0-1.58-0.21-3-0.61-4.26c-0.41-1.27-1.13-2.28-2.19-3.04c-1.05-0.76-2.55-1.15-4.51-1.15c-1.91,0-3.52,0.38-4.84,1.15
	c-1.31,0.76-2.32,1.78-3.01,3.04c-0.69,1.27-1.04,2.69-1.04,4.26v18.34c0,1.24-0.41,2.28-1.22,3.12c-0.81,0.84-1.84,1.25-3.08,1.25
	s-2.27-0.42-3.08-1.25c-0.81-0.84-1.22-1.87-1.22-3.12V27.39c0-1.24,0.41-2.28,1.22-3.12c0.81-0.84,1.84-1.25,3.08-1.25
	s2.27,0.42,3.08,1.25c0.81,0.84,1.22,1.88,1.22,3.12v3.08l-1.08-0.21c0.43-0.81,1.05-1.68,1.86-2.61c0.81-0.93,1.77-1.8,2.87-2.61
	c1.1-0.81,2.34-1.47,3.72-1.97C275.08,22.55,276.59,22.3,278.21,22.3z"/>
<path class="st2" d="M328.64,8.33c0.62,0,1.13,0.2,1.54,0.61c0.4,0.41,0.61,0.92,0.61,1.54v48.71c0,0.57-0.21,1.08-0.64,1.5
	c-0.43,0.43-0.93,0.64-1.5,0.64c-0.67,0-1.19-0.21-1.58-0.64c-0.38-0.43-0.57-0.93-0.57-1.5v-8.52l1.22-1
	c0,1.34-0.36,2.73-1.07,4.19c-0.72,1.46-1.73,2.81-3.04,4.05c-1.31,1.24-2.84,2.25-4.58,3.01c-1.74,0.76-3.64,1.15-5.7,1.15
	c-3.15,0-6.01-0.84-8.56-2.51c-2.55-1.67-4.57-3.94-6.05-6.81c-1.48-2.87-2.22-6.14-2.22-9.81c0-3.63,0.74-6.89,2.22-9.78
	c1.48-2.89,3.48-5.16,6.02-6.81c2.53-1.65,5.37-2.47,8.52-2.47c2.01,0,3.89,0.36,5.66,1.07c1.77,0.72,3.33,1.7,4.69,2.94
	c1.36,1.24,2.44,2.66,3.22,4.26c0.79,1.6,1.18,3.26,1.18,4.98l-1.5-1.07V10.48c0-0.57,0.19-1.07,0.57-1.5
	C327.45,8.55,327.97,8.33,328.64,8.33z M313.74,58.05c2.53,0,4.78-0.66,6.73-1.97c1.96-1.31,3.5-3.1,4.62-5.37
	c1.12-2.27,1.68-4.86,1.68-7.77c0-2.87-0.56-5.43-1.68-7.7c-1.12-2.27-2.66-4.06-4.62-5.37c-1.96-1.31-4.2-1.97-6.73-1.97
	c-2.48,0-4.72,0.66-6.7,1.97c-1.98,1.31-3.54,3.11-4.66,5.37c-1.12,2.27-1.68,4.84-1.68,7.7c0,2.87,0.56,5.44,1.68,7.74
	c1.12,2.29,2.67,4.1,4.66,5.41C309.02,57.39,311.26,58.05,313.74,58.05z"/>
<path class="st2" d="M341.68,61.34c-0.67,0-1.2-0.21-1.58-0.64c-0.38-0.43-0.57-0.93-0.57-1.5V27.1c0-0.57,0.2-1.07,0.61-1.5
	c0.41-0.43,0.92-0.64,1.54-0.64c0.62,0,1.13,0.21,1.54,0.64c0.41,0.43,0.61,0.93,0.61,1.5v10.75l-1.07,0.21
	c0.14-1.67,0.56-3.33,1.25-4.98c0.69-1.65,1.63-3.16,2.83-4.55c1.19-1.38,2.62-2.51,4.26-3.37c1.65-0.86,3.5-1.29,5.55-1.29
	c0.86,0,1.7,0.18,2.51,0.54c0.81,0.36,1.22,0.94,1.22,1.75c0,0.72-0.19,1.27-0.57,1.65c-0.38,0.38-0.84,0.57-1.36,0.57
	c-0.43,0-0.89-0.12-1.4-0.36c-0.5-0.24-1.16-0.36-1.97-0.36c-1.34,0-2.67,0.39-4.01,1.18c-1.34,0.79-2.55,1.85-3.65,3.19
	c-1.1,1.34-1.97,2.83-2.62,4.48c-0.64,1.65-0.97,3.31-0.97,4.98v17.69c0,0.57-0.21,1.08-0.64,1.5
	C342.75,61.13,342.25,61.34,341.68,61.34z"/>
<path class="st2" d="M366.61,19.29c-1,0-1.75-0.23-2.26-0.68c-0.5-0.45-0.75-1.11-0.75-1.97v-0.72c0-0.86,0.27-1.52,0.82-1.97
	c0.55-0.45,1.3-0.68,2.26-0.68c0.91,0,1.61,0.23,2.11,0.68c0.5,0.45,0.75,1.11,0.75,1.97v0.72c0,0.86-0.25,1.52-0.75,1.97
	C368.29,19.07,367.56,19.29,366.61,19.29z M368.76,59.19c0,0.57-0.21,1.08-0.65,1.5c-0.43,0.43-0.93,0.64-1.5,0.64
	c-0.62,0-1.13-0.21-1.54-0.64c-0.41-0.43-0.61-0.93-0.61-1.5V26.24c0-0.57,0.2-1.07,0.61-1.5c0.4-0.43,0.92-0.64,1.54-0.64
	c0.62,0,1.13,0.21,1.54,0.64c0.4,0.43,0.61,0.93,0.61,1.5V59.19z"/>
<path class="st2" d="M376.56,23.95c0.38,0,0.76,0.12,1.15,0.36c0.38,0.24,0.67,0.6,0.86,1.07l12.54,29.8l-0.93,0.57L403,25.38
	c0.38-0.95,1.07-1.41,2.08-1.36c0.48,0,0.93,0.16,1.36,0.47c0.43,0.31,0.64,0.75,0.64,1.33c0,0.29-0.04,0.51-0.11,0.68
	c-0.07,0.17-0.13,0.35-0.18,0.54l-14.04,32.95c-0.38,0.86-1.03,1.31-1.93,1.36c-0.43,0.05-0.85-0.06-1.25-0.32
	c-0.41-0.26-0.7-0.61-0.89-1.04l-14.11-32.95c-0.05-0.1-0.1-0.24-0.14-0.43c-0.05-0.19-0.07-0.38-0.07-0.57c0-0.52,0.19-1,0.57-1.43
	C375.3,24.16,375.85,23.95,376.56,23.95z"/>
<path class="st2" d="M428.72,62.06c-3.68,0-6.93-0.79-9.74-2.36c-2.82-1.58-5.01-3.77-6.59-6.59c-1.58-2.82-2.36-6.11-2.36-9.89
	c0-4.06,0.8-7.52,2.4-10.39c1.6-2.87,3.68-5.07,6.23-6.63c2.55-1.55,5.27-2.33,8.13-2.33c2.1,0,4.14,0.37,6.13,1.11
	c1.98,0.74,3.74,1.84,5.27,3.3c1.53,1.46,2.77,3.24,3.72,5.34c0.96,2.1,1.46,4.54,1.51,7.31c0,0.57-0.22,1.06-0.65,1.47
	c-0.43,0.41-0.93,0.61-1.5,0.61h-28.73l-0.86-3.87h28.22l-0.93,0.86v-1.43c-0.24-2.24-0.98-4.15-2.22-5.73
	c-1.24-1.58-2.73-2.77-4.48-3.58c-1.74-0.81-3.57-1.22-5.48-1.22c-1.43,0-2.9,0.29-4.4,0.86c-1.51,0.57-2.87,1.47-4.08,2.69
	c-1.22,1.22-2.21,2.77-2.97,4.66c-0.77,1.89-1.15,4.12-1.15,6.7c0,2.82,0.57,5.37,1.72,7.67c1.15,2.29,2.79,4.11,4.94,5.44
	c2.15,1.34,4.75,2.01,7.81,2.01c1.62,0,3.1-0.24,4.44-0.72c1.34-0.48,2.52-1.11,3.54-1.9c1.03-0.79,1.88-1.61,2.54-2.47
	c0.52-0.43,1.03-0.64,1.5-0.64c0.53,0,0.97,0.19,1.32,0.57c0.36,0.38,0.54,0.81,0.54,1.29c0,0.57-0.24,1.08-0.71,1.5
	c-1.43,1.72-3.3,3.21-5.59,4.48C433.94,61.43,431.44,62.06,428.72,62.06z"/>
</svg>
