<svg width="186" height="28" fill="currentColor" xmlns="http://www.w3.org/2000/svg" stroke="none"
    viewBox="0 0 500 69.3">
    <g id="cut">
        <path
            d="M85.26,17.33a11,11,0,0,1,3.54-.48,15.07,15.07,0,0,1,6.31,1.28,15.77,15.77,0,0,1,5.18,3.93l4.64-5.94a18.8,18.8,0,0,0-6.82-4.87A23.67,23.67,0,0,0,89,9.61a21.22,21.22,0,0,0-8.57,1.58,12.48,12.48,0,0,0-5.46,4.31,10.57,10.57,0,0,0-1.87,6.16,9,9,0,0,0,1.36,5.1A9.84,9.84,0,0,0,78.22,30a24.2,24.2,0,0,0,5.66,2L91,33.6a7.14,7.14,0,0,1,3.28,1.45,2.82,2.82,0,0,1,.91,2.12,3.11,3.11,0,0,1-.68,2,4,4,0,0,1-2.09,1.27,12,12,0,0,1-3.46.43,17.77,17.77,0,0,1-9.5-2.8,16.61,16.61,0,0,1-3.46-3l-4.64,6.16a19.54,19.54,0,0,0,4.53,3.6,22.61,22.61,0,0,0,6,2.4,29,29,0,0,0,7.16.85,22,22,0,0,0,8.09-1.38,12.35,12.35,0,0,0,5.52-4.11,10.82,10.82,0,0,0,2-6.62,8.74,8.74,0,0,0-2.55-6.56Q99.55,26.93,94,25.68L87.5,24.21a10.57,10.57,0,0,1-3.68-1.47,2.6,2.6,0,0,1-1.13-2.15,3.34,3.34,0,0,1,.59-1.93A3.94,3.94,0,0,1,85.26,17.33Z">
        </path>
        <path
            d="M127.49,39.35a4.28,4.28,0,0,1-1.67,1.58,5.27,5.27,0,0,1-2.49.54,5.86,5.86,0,0,1-3.08-.79,5,5,0,0,1-2-2.58,12.68,12.68,0,0,1-.71-4.61,14.29,14.29,0,0,1,.65-4.7,5.17,5.17,0,0,1,2-2.66,5.8,5.8,0,0,1,3.22-.84,4.11,4.11,0,0,1,3.17,1.21A6.82,6.82,0,0,1,128,30.15l8.55-2.83a10.35,10.35,0,0,0-2.13-4.3A11.1,11.1,0,0,0,130,19.85a18,18,0,0,0-7-1.19,16.55,16.55,0,0,0-7.7,1.73,12.38,12.38,0,0,0-5.2,5,15.85,15.85,0,0,0-1.87,8,15.9,15.9,0,0,0,1.87,7.95,12.21,12.21,0,0,0,5.29,5,17.57,17.57,0,0,0,8,1.72A17.2,17.2,0,0,0,130,47a11.55,11.55,0,0,0,4.47-3.08,9.59,9.59,0,0,0,2.21-4.39l-8.32-2.66A5.91,5.91,0,0,1,127.49,39.35Z">
        </path>
        <path
            d="M157.69,18.66a8.36,8.36,0,0,0-5.46,1.73,10.41,10.41,0,0,0-3.2,4.84l-.45-6h-8.09v28.3h9.22V33.15a7.19,7.19,0,0,1,.9-3.76A6,6,0,0,1,153,27.12a7.08,7.08,0,0,1,3.2-.76,13.46,13.46,0,0,1,2.09.14,7.42,7.42,0,0,1,1.42.37l1-7.58a4,4,0,0,0-1.22-.46A8.47,8.47,0,0,0,157.69,18.66Z">
        </path>
        <path
            d="M184,20.39a15.18,15.18,0,0,0-7.5-1.73,16.13,16.13,0,0,0-7.67,1.76,12.55,12.55,0,0,0-5.15,5,15.9,15.9,0,0,0-1.84,8,16.11,16.11,0,0,0,1.81,7.95,12.2,12.2,0,0,0,5.24,5,17.31,17.31,0,0,0,8,1.75,18.69,18.69,0,0,0,5.63-.82,12.9,12.9,0,0,0,4.59-2.49,8.58,8.58,0,0,0,2.69-4l-7.25-2.55a6.15,6.15,0,0,1-2.06,2.44,6.35,6.35,0,0,1-3.6.9,6.6,6.6,0,0,1-3.39-.82,5.26,5.26,0,0,1-2.18-2.6,9.31,9.31,0,0,1-.6-2.29h19.42c.07-.53.13-1.12.17-1.78s0-1.35,0-2.07a14.08,14.08,0,0,0-1.64-6.9A11.87,11.87,0,0,0,184,20.39Zm-10.78,5.66a6,6,0,0,1,3.28-.88A4.59,4.59,0,0,1,180.42,27a7.36,7.36,0,0,1,1.24,3.62h-10.9a10.91,10.91,0,0,1,.44-1.81A5.08,5.08,0,0,1,173.21,26.05Z">
        </path>
        <path
            d="M215.93,20.39a15.18,15.18,0,0,0-7.5-1.73,16.13,16.13,0,0,0-7.67,1.76,12.55,12.55,0,0,0-5.15,5,15.9,15.9,0,0,0-1.84,8,16.11,16.11,0,0,0,1.81,7.95,12.2,12.2,0,0,0,5.24,5,17.31,17.31,0,0,0,8,1.75,18.69,18.69,0,0,0,5.63-.82A12.9,12.9,0,0,0,219,44.78a8.58,8.58,0,0,0,2.69-4l-7.25-2.55a6.15,6.15,0,0,1-2.06,2.44,6.35,6.35,0,0,1-3.6.9,6.6,6.6,0,0,1-3.39-.82,5.26,5.26,0,0,1-2.18-2.6,9.31,9.31,0,0,1-.6-2.29h19.42c.07-.53.13-1.12.17-1.78s0-1.35,0-2.07a14.08,14.08,0,0,0-1.64-6.9A11.87,11.87,0,0,0,215.93,20.39Zm-10.78,5.66a6,6,0,0,1,3.28-.88A4.59,4.59,0,0,1,212.36,27a7.36,7.36,0,0,1,1.24,3.62H202.7a10.91,10.91,0,0,1,.44-1.81A5.08,5.08,0,0,1,205.15,26.05Z">
        </path>
        <path
            d="M253.68,23.16a8.1,8.1,0,0,0-3.45-3.36,11.1,11.1,0,0,0-5.15-1.14,11.43,11.43,0,0,0-4.9,1,9.07,9.07,0,0,0-3.59,3,10.9,10.9,0,0,0-1.22,2.24l-.31-5.69h-8.21v28.3h9.23v-15a9.15,9.15,0,0,1,.73-4,4.59,4.59,0,0,1,2-2.15,5.71,5.71,0,0,1,2.66-.65,4.2,4.2,0,0,1,3.12,1.19c.79.79,1.18,2.22,1.18,4.3v16.3h9.17V28.74A11.35,11.35,0,0,0,253.68,23.16Z">
        </path>
        <polygon
            points="286.85 29.53 284.64 37.57 284.53 37.57 282.38 29.53 276.26 10.18 263.02 10.18 263.02 47.53 271.28 47.53 271.28 29.81 271 18.49 271.11 18.49 280.56 47.53 288.09 47.53 297.6 18.49 297.71 18.49 297.43 29.81 297.43 47.53 305.63 47.53 305.63 10.18 292.9 10.18 286.85 29.53">
        </polygon>
        <path
            d="M337.42,40V29.36a10.78,10.78,0,0,0-1.53-5.91,9.18,9.18,0,0,0-4.44-3.6,18.33,18.33,0,0,0-6.93-1.19c-4,0-7.12.81-9.37,2.41a10.19,10.19,0,0,0-4.21,6.31l7.81,2A5.14,5.14,0,0,1,320.67,26a5.81,5.81,0,0,1,3.34-1,4.19,4.19,0,0,1,3.14,1.19,4.5,4.5,0,0,1,1.16,3.28v.87l-9.73,2a10.47,10.47,0,0,0-5.83,2.8,7.19,7.19,0,0,0-1.87,5.12A7.54,7.54,0,0,0,312,44.55a7.12,7.12,0,0,0,3.28,2.64,13,13,0,0,0,5,.9,13.64,13.64,0,0,0,4.7-.82,9.15,9.15,0,0,0,3.7-2.4,5.78,5.78,0,0,0,.74-1,5.24,5.24,0,0,0,.62,1.38,5.72,5.72,0,0,0,2.63,2.12,9.86,9.86,0,0,0,3.8.71,8.89,8.89,0,0,0,4-.8l.51-5.32a4.57,4.57,0,0,1-1.64.23C338.08,42.15,337.42,41.43,337.42,40Zm-9.53-.65a4.28,4.28,0,0,1-1.17,1.53,5,5,0,0,1-1.66.87,6.74,6.74,0,0,1-2,.29,3.83,3.83,0,0,1-2.23-.65,2.25,2.25,0,0,1-.94-2,2.3,2.3,0,0,1,.88-2,7.24,7.24,0,0,1,2.58-1l4.92-1v1.59A5.58,5.58,0,0,1,327.89,39.35Z">
        </path>
        <path
            d="M367.6,19.8a11.07,11.07,0,0,0-5.15-1.14,11.38,11.38,0,0,0-4.89,1,9,9,0,0,0-3.6,3,11.4,11.4,0,0,0-1.22,2.24l-.31-5.69h-8.2v28.3h9.22v-15a9.13,9.13,0,0,1,.74-4,4.59,4.59,0,0,1,2-2.15,5.71,5.71,0,0,1,2.66-.65,4.17,4.17,0,0,1,3.11,1.19c.79.79,1.19,2.22,1.19,4.3v16.3h9.17V28.74a11.34,11.34,0,0,0-1.25-5.58A8.1,8.1,0,0,0,367.6,19.8Z">
        </path>
        <path
            d="M403.13,40V29.36a10.78,10.78,0,0,0-1.53-5.91,9.18,9.18,0,0,0-4.44-3.6,18.37,18.37,0,0,0-6.93-1.19c-4,0-7.13.81-9.37,2.41a10.24,10.24,0,0,0-4.22,6.31l7.81,2A5.11,5.11,0,0,1,386.38,26a5.78,5.78,0,0,1,3.34-1,4.21,4.21,0,0,1,3.14,1.19A4.5,4.5,0,0,1,394,29.53v.87l-9.74,2a10.47,10.47,0,0,0-5.82,2.8,7.19,7.19,0,0,0-1.87,5.12,7.46,7.46,0,0,0,1.13,4.21A7.07,7.07,0,0,0,381,47.19a13,13,0,0,0,5,.9,13.64,13.64,0,0,0,4.7-.82,9.21,9.21,0,0,0,3.7-2.4,5.78,5.78,0,0,0,.74-1,5.24,5.24,0,0,0,.62,1.38,5.67,5.67,0,0,0,2.63,2.12,9.81,9.81,0,0,0,3.79.71,8.93,8.93,0,0,0,4-.8l.51-5.32a4.61,4.61,0,0,1-1.64.23C403.79,42.15,403.13,41.43,403.13,40Zm-9.54-.65a4.15,4.15,0,0,1-1.16,1.53,4.93,4.93,0,0,1-1.67.87,6.62,6.62,0,0,1-1.95.29,3.81,3.81,0,0,1-2.23-.65,2.23,2.23,0,0,1-.94-2,2.28,2.28,0,0,1,.88-2,7.18,7.18,0,0,1,2.57-1l4.93-1v1.59A5.41,5.41,0,0,1,393.59,39.35Z">
        </path>
        <path
            d="M437.49,17.93c.23,0,.44,0,.65,0a2.61,2.61,0,0,1,.65.14l-.85-6.23a2.3,2.3,0,0,0-.45,0h-.4a7.32,7.32,0,0,0-4.44,1.3A7.74,7.74,0,0,0,430,16.51a11.8,11.8,0,0,0-.74,2.89,22.51,22.51,0,0,0-6-.74A20.72,20.72,0,0,0,416,19.8a10,10,0,0,0-4.64,3.28,8.45,8.45,0,0,0-1.61,5.2,8.23,8.23,0,0,0,3.45,7,9.58,9.58,0,0,0,1.12.69A8,8,0,0,0,412,37.28a5.36,5.36,0,0,0-2.15,4.42,5.44,5.44,0,0,0,1.67,4.21,6.79,6.79,0,0,0,2.38,1.38,7.52,7.52,0,0,0-3.4,1.37,4.73,4.73,0,0,0-1.9,3.85c0,2.18,1.13,3.93,3.4,5.23s5.92,1.95,11,1.95a25.51,25.51,0,0,0,8.15-1.16,11.6,11.6,0,0,0,5.37-3.45,8.56,8.56,0,0,0,1.93-5.69,7,7,0,0,0-2.61-5.88q-2.6-2-7.47-2h-8.94A4.56,4.56,0,0,1,417,41a1.68,1.68,0,0,1-.82-1.53,1.93,1.93,0,0,1,.9-1.61,3.34,3.34,0,0,1,1.07-.46,25.05,25.05,0,0,0,5.16.49,20.91,20.91,0,0,0,7.27-1.13,9.81,9.81,0,0,0,4.61-3.29,8.41,8.41,0,0,0,1.58-5.15,8.5,8.5,0,0,0-1.58-5.2,8.66,8.66,0,0,0-2.49-2.23,4,4,0,0,1,1.05-1.71A5.25,5.25,0,0,1,437.49,17.93ZM418.08,48.71h10a4.24,4.24,0,0,1,2.43.51,1.68,1.68,0,0,1,.68,1.42,1.94,1.94,0,0,1-.88,1.53,7.09,7.09,0,0,1-2.72,1.1,21.12,21.12,0,0,1-4.61.42,15.74,15.74,0,0,1-5.49-.76c-1.32-.51-2-1.22-2-2.12a1.84,1.84,0,0,1,.74-1.53A2.86,2.86,0,0,1,418.08,48.71Zm8.38-17.31a4.56,4.56,0,0,1-3.17,1.13,4.62,4.62,0,0,1-3.23-1.13,4,4,0,0,1-1.24-3.12,3.94,3.94,0,0,1,1.24-3.16A4.74,4.74,0,0,1,423.29,24a4.67,4.67,0,0,1,3.17,1.08,4,4,0,0,1,1.24,3.16A4,4,0,0,1,426.46,31.4Z">
        </path>
        <path
            d="M462,20.39a15.11,15.11,0,0,0-7.49-1.73,16.13,16.13,0,0,0-7.67,1.76,12.49,12.49,0,0,0-5.15,5,15.9,15.9,0,0,0-1.84,8,16.11,16.11,0,0,0,1.81,7.95,12.23,12.23,0,0,0,5.23,5,17.38,17.38,0,0,0,8,1.75,18.69,18.69,0,0,0,5.63-.82,12.9,12.9,0,0,0,4.59-2.49,8.56,8.56,0,0,0,2.68-4l-7.24-2.55a6.15,6.15,0,0,1-2.06,2.44,6.35,6.35,0,0,1-3.6.9,6.6,6.6,0,0,1-3.39-.82,5.21,5.21,0,0,1-2.18-2.6,8.89,8.89,0,0,1-.6-2.29h19.42c.07-.53.13-1.12.16-1.78s.06-1.35.06-2.07a14.19,14.19,0,0,0-1.64-6.9A11.83,11.83,0,0,0,462,20.39Zm-10.78,5.66a6,6,0,0,1,3.29-.88A4.59,4.59,0,0,1,458.43,27a7.46,7.46,0,0,1,1.24,3.62h-10.9a12,12,0,0,1,.43-1.81A5.18,5.18,0,0,1,451.21,26.05Z">
        </path>
        <path
            d="M491.9,18.83a8.47,8.47,0,0,0-1.78-.17,8.36,8.36,0,0,0-5.46,1.73,10.41,10.41,0,0,0-3.2,4.84l-.45-6h-8.09v28.3h9.22V33.15a7.1,7.1,0,0,1,.91-3.76,5.88,5.88,0,0,1,2.4-2.27,7.08,7.08,0,0,1,3.2-.76,13.46,13.46,0,0,1,2.09.14,7.42,7.42,0,0,1,1.42.37l1-7.58A4,4,0,0,0,491.9,18.83Z">
        </path>
        <rect x="26.7" y="24.32" width="36.95" height="23.2"></rect>
        <rect x="26.7" y="10.15" width="36.95" height="10.56"></rect>
        <rect x="6.88" y="10.15" width="15.72" height="23.2"></rect>
        <rect x="6.88" y="37.21" width="15.72" height="10.32"></rect>
    </g>
</svg>