<svg xmlns="http://www.w3.org/2000/svg" width="163" height="33" viewBox="0 0 163 33">
    <g fill="#0082C8" fill-rule="nonzero">
        <path d="M1.575 32.993V27.13h15.077c2.418 0 4.03-.242 4.838-.725a3.403 3.403 0 0 0 1.741-3.118c0-1.597-.677-2.765-2.032-3.506-.773-.428-2.007-.642-3.7-.64h-6.127c-3.74 0-6.432-.676-8.078-2.03a8.742 8.742 0 0 1-2.419-3.234A10.02 10.02 0 0 1 0 9.74a10.763 10.763 0 0 1 2.032-6.356C3.35 1.532 5.47.452 8.394.144 9.376.048 10.844 0 12.797 0h16.37v5.874H14.394c-2.207.014-3.669.11-4.403.282-1.48.376-2.222 1.496-2.224 3.361 0 1.58.621 2.642 1.863 3.19.84.375 2.226.563 4.16.563h5.298c2.71 0 4.734.233 6.074.7 2.337.79 3.936 2.175 4.798 4.156a12.446 12.446 0 0 1 1.086 5.124 10.601 10.601 0 0 1-1.377 5.391 7.903 7.903 0 0 1-5.831 4.036 37.486 37.486 0 0 1-5.659.316H1.575zM62.095 0v5.873h-9.373c-2.455 0-4.24.164-5.356.493a5.416 5.416 0 0 0-2.782 1.923 5.63 5.63 0 0 0-1.013 1.957 20.964 20.964 0 0 0-.473 3.383h18.997v5.884H43.098c.248 2.844 1.099 4.818 2.551 5.921 1.453 1.103 3.917 1.667 7.394 1.692h9.052v5.873h-9.373a43.043 43.043 0 0 1-6.712-.474c-3.032-.483-5.447-1.779-7.246-3.888-2.557-3.03-3.835-7.139-3.835-12.327 0-5.751 1.805-10.222 5.416-13.412a10.81 10.81 0 0 1 3.96-2.255C45.706.214 47.586 0 49.942.003L62.095 0zM66.946 0h14.24c3.555 0 6.308.346 8.259 1.038 3.591 1.272 5.982 3.623 7.171 7.053a25.487 25.487 0 0 1 1.377 8.464 26.878 26.878 0 0 1-1.305 8.441c-.87 2.707-2.32 4.697-4.349 5.97a11.666 11.666 0 0 1-4.194 1.622c-1.518.273-3.84.41-6.967.412H66.946V0zm7.132 5.877v21.266h7.108c3.114 0 5.276-.685 6.489-2.057.74-.837 1.334-2.033 1.781-3.588.462-1.618.69-3.291.68-4.971a17.164 17.164 0 0 0-.8-5.344c-.534-1.628-1.243-2.838-2.129-3.628-1.28-1.111-3.287-1.667-6.024-1.667l-7.105-.011zM127.101 27.121v5.872h-11.639a28.745 28.745 0 0 1-5.086-.34c-4.095-.79-7.005-3.053-8.73-6.789-1.14-2.498-1.711-5.591-1.711-9.28 0-4.428.872-8.035 2.615-10.822a11.052 11.052 0 0 1 5.05-4.375C109.709.464 112.444.002 115.804 0h11.297v5.872H116.61c-3.178 0-5.509.837-6.992 2.512-1.225 1.387-1.836 3.9-1.832 7.538 0 4.865.951 8.06 2.853 9.584 1.331 1.062 3.41 1.594 6.239 1.596l10.224.02zM146.794 0c3.243 0 6.278.369 8.73 1.496 2.896 1.335 4.926 3.58 6.091 6.735.923 2.479 1.385 5.39 1.385 8.732 0 3.343-.569 6.253-1.706 8.73-1.377 2.96-3.506 5.02-6.386 6.18-2.154.87-4.788 1.127-7.587 1.127-3.642 0-6.647-.53-9.36-1.913a11.535 11.535 0 0 1-5.187-5.445c-1.196-2.47-1.794-5.467-1.792-8.994 0-6.28 1.535-10.755 4.605-13.425C138.182.986 141.793.03 146.794 0zm.233 5.352c-3.183 0-5.46 1.055-6.834 3.163-1.077 1.642-1.616 4.281-1.618 7.919 0 3.863.682 6.704 2.044 8.524 1.346 1.786 3.49 2.679 6.433 2.679 2.849 0 4.949-.906 6.3-2.716s2.028-4.615 2.03-8.414c0-3.444-.546-6.073-1.637-7.887-1.29-2.156-3.53-3.242-6.718-3.257v-.01z"/>
    </g>
</svg>
