<svg xmlns="http://www.w3.org/2000/svg" width="55.919" height="63.937" viewBox="0 0 55.919 63.937">
  <g id="Groupe_3" data-name="Groupe 3" transform="translate(-393.468 -265.646)">
    <g id="Groupe_2" data-name="Groupe 2">
      <path id="Tracé_1" data-name="Tracé 1" d="M396.687,308.445l11.1-6.3,27.4-5,11.1,6.4a6.019,6.019,0,0,1-.1,10.5l-26.3,14.8a6.113,6.113,0,0,1-6-.1l-17.3-9.9a5.97,5.97,0,0,1,.1-10.4" fill="#fda917"/>
      <path id="Tracé_2" data-name="Tracé 2" d="M393.48,308.661l.12,5.3,2.15-.327-1.491-4.692Z" fill="#fda917"/>
      <path id="Tracé_3" data-name="Tracé 3" d="M449.161,304.535l.15,4.126-3.679-.153-1.532-2.566Z" fill="#fda917"/>
      <path id="Tracé_4" data-name="Tracé 4" d="M396.556,303.742l11.1-6.3,27.4-5,11.1,6.4a6.019,6.019,0,0,1-.1,10.5l-26.3,14.8a6.113,6.113,0,0,1-6-.1l-17.3-9.9a5.97,5.97,0,0,1,.1-10.4" fill="#febc17"/>
      <path id="Tracé_5" data-name="Tracé 5" d="M396.687,285.69l11.1-6.3,27.4-5,11.1,6.4a6.019,6.019,0,0,1-.1,10.5l-26.3,14.8a6.113,6.113,0,0,1-6-.1l-17.3-9.9a5.97,5.97,0,0,1,.1-10.4" fill="#fda917"/>
      <path id="Tracé_6" data-name="Tracé 6" d="M449.313,281.927v4.438h-5.077l-2.972-2.219Z" fill="#fda917"/>
      <path id="Tracé_7" data-name="Tracé 7" d="M393.6,285.865v5.567l14.113-.822-1.311-2.7Z" fill="#fda917"/>
      <g id="Groupe_1" data-name="Groupe 1">
        <path id="Tracé_8" data-name="Tracé 8" d="M446.412,276.409l-17.3-10a6.669,6.669,0,0,0-6-.1l-26.5,14.9a6.056,6.056,0,0,0-.1,10.5l11.2,6.5,15.3-8.6a6.113,6.113,0,0,1,6,.1l6.1,3.5,11.1-6.2A6.107,6.107,0,0,0,446.412,276.409Z" fill="#febc17"/>
      </g>
      <path id="Tracé_9" data-name="Tracé 9" d="M423.056,289.605l-15.3,8.6,6.1,3.5a6.669,6.669,0,0,0,6,.1l15.3-8.6-6.1-3.5a5.653,5.653,0,0,0-6-.1" fill="#ff962e"/>
      <path id="Tracé_10" data-name="Tracé 10" d="M423.08,293.895l-15.368,4.314.068,4.286,6.1,3.5a6.669,6.669,0,0,0,6,.1l15.3-8.6-.069-4.286-6.032.786a5.653,5.653,0,0,0-6-.1" fill="#e0832d"/>
      <path id="Tracé_11" data-name="Tracé 11" d="M423.056,289.605l-15.3,8.6,6.1,3.5a6.669,6.669,0,0,0,6,.1l15.3-8.6-6.1-3.5a5.653,5.653,0,0,0-6-.1" fill="#ff9d2f"/>
    </g>
  </g>
</svg>
