<svg xmlns="http://www.w3.org/2000/svg" data-name="Layer 1" viewBox="0 0 4000 1500"><path fill="#17172b" d="M385.53 869.71 406 818.32q47.29 35 108 35 26.28 0 40.59-8.76t14.3-24.53q0-13.43-9.92-21.32T525.1 785l-49.05-11.1q-80.6-17.52-80.59-82.34 0-26.87 15.18-47.6t42.63-32.41q27.45-11.67 63.66-11.68a192.38 192.38 0 0 1 60.73 9.64 159.45 159.45 0 0 1 51.4 27.74l-21.61 49.64q-44.38-32.7-91.11-32.71-25.11 0-39.12 9.35t-14 25.69q0 12.86 8.47 20.44t28.91 12.85l50.22 11.1q43.8 9.93 64 30.66t20.15 54q0 40.88-32.71 64.82t-89.35 23.94q-80.08.05-127.38-37.32zm388.35-395.95v71.83h-81.17v-71.83zm-76.5 133.73h72.42v294.92h-72.42zm437.41 0v285.58q0 68.89-38 104.53t-111.55 35.63q-68.32 0-120.3-28.62l11.68-55.48q53.73 28 106.87 28 78.84 0 78.84-78.25v-58.4q-13.44 24-39.13 38.83t-57.81 14.9q-38.55 0-68.62-18.4t-46.72-52q-16.65-33.57-16.65-76.79t16.65-76.8q16.63-33.57 46.72-52t68.62-18.4q32.7 0 58.11 13.72a94.38 94.38 0 0 1 38.83 38.26v-44.31zm-93.15 205.57q20.71-23.94 20.73-66t-20.44-66q-20.45-23.94-57.23-24-36.23 0-56.94 24t-20.73 66q0 42 20.73 66T984.7 837q36.2 0 56.94-23.94zm446.46-91.69v181h-73V724.88q0-35-13.43-51.1t-41.47-16.06q-33.29 0-53.72 21.31T1286 735.39v167h-72.42V691q0-46.71-4.67-83.51h68.33l5.25 48.47a106.83 106.83 0 0 1 41.17-41.46q26-14.6 58.7-14.6 105.73 0 105.74 121.47zm359.74-113.88v294.92H1776v-47.3a94.78 94.78 0 0 1-38.54 38.25q-25.12 13.71-57.24 13.72-38.54 0-68.32-18.68t-46.14-53.15q-16.37-34.46-16.35-80t16.64-80.88q16.65-35.33 46.43-54.9t67.74-19.56q32.12 0 57.24 13.72a94.86 94.86 0 0 1 38.54 38.25v-44.39zm-91.69 217.25q19.85-25.11 19.85-70.66 0-46.73-19.86-71.84t-56.64-25.11q-36.23 0-56.36 26T1623 755.24q0 45.56 20.15 70.08t56.94 24.53q36.2 0 56.06-25.11zm456.1-217.25v285.58q0 68.89-38 104.53t-111.54 35.63q-68.32 0-120.31-28.62l11.68-55.48q53.73 28 106.88 28 78.83 0 78.83-78.25v-58.4q-13.44 24-39.12 38.83t-57.82 14.9q-38.54 0-68.62-18.4t-46.72-52q-16.65-33.57-16.64-76.79t16.64-76.8q16.65-33.57 46.72-52t68.62-18.4q32.7 0 58.11 13.72a94.38 94.38 0 0 1 38.83 38.26v-44.31zm-93.15 205.57q20.73-23.94 20.73-66t-20.44-66q-20.44-23.94-57.23-24-36.21 0-56.94 24t-20.73 66q0 42 20.73 66t56.94 23.94q36.21 0 56.94-23.94zm430.11-54.31H2346q2.33 47.29 23.65 69.79T2433 851q48.48 0 89.94-31.54l21 50.23q-21 16.93-51.68 27.15a195.6 195.6 0 0 1-62.2 10.22q-72.42 0-113.88-40.88t-41.46-112.12q0-45 18.1-80t50.81-54.61q32.7-19.56 74.17-19.56 60.74 0 96.07 39.42t35.33 108.33zM2372 669.69q-18.41 17.23-23.66 49.93h137.24q-3.5-33.29-20.14-50.22t-45.85-16.94q-29.23 0-47.59 17.23zm329.84 240.11q-44.67-26-68.91-74.17T2608.69 722q0-64.81 23.95-113t68.62-73.88q44.67-25.69 105.41-25.69t105.41 25.69q44.68 25.71 68.33 73.88t23.65 113q0 65.41-23.94 113.59t-68.33 74.17q-44.39 26-105.12 26-60.16.03-104.83-25.96zm194.77-73.88q32.1-39.7 32.11-113.88 0-73.57-32.11-113t-89.94-39.42q-57.83 0-89.94 39.13T2684.61 722q0 74.18 32.12 113.88t89.94 39.71q57.81.04 89.94-39.67zm235.64 87.02q-41.76-12.84-71-36.79l25.7-54.9q30.36 22.77 63.36 33.58t72.12 10.8q43.22 0 66.87-15.18t23.7-42.63q0-23.36-21.9-35.92t-72.1-23.65q-78.27-16.93-113.88-43.8t-35.62-78.26q0-36.78 19.85-65.4t56.36-45q36.5-16.35 84.39-16.35a261.43 261.43 0 0 1 83.22 13.14q39.42 13.14 64.53 36.5L3352.71 614q-55.5-44.37-122.64-44.38-40.31 0-63.66 16.64t-23.36 45.26q0 24.53 20.73 37.38t71 23.94q52 12.27 84.68 26.57t50.22 36.8q17.52 22.49 17.52 56.35 0 37.38-19.85 65.12t-57.24 42.92q-37.38 15.18-88.18 15.19-47.93 0-89.68-12.85z"/><path fill="#fcc019" d="M3564 1190.53c-1.95 0-3.91-.08-5.86-.24l-783.89-62.71 5.91-73.76 768.73 61.5a14 14 0 0 0 15.12-14V341.58a14 14 0 0 0-15.11-13.95l-1091.62 87.1a14 14 0 0 0-12.89 14v72h-74v-84a75.26 75.26 0 0 1 17.15-48.29 73.82 73.82 0 0 1 51-26.4l1119.65-89.3a74 74 0 0 1 79.81 73.72v790.07a74 74 0 0 1-74 74z"/></svg>