<svg xmlns="http://www.w3.org/2000/svg" width="142" height="24" viewBox="0 0 142 24">
    <path fill="#101010" fill-rule="evenodd" d="M0 14.429c0-.392.034-.77.104-1.136.069-.365.136-.657.201-.875h2.171c0 .652.03 1.2.092 1.638.06.44.16.79.299 1.052.138.261.323.448.555.561.231.113.514.17.848.17.463 0 .8-.14 1.012-.418.211-.279.317-.6.317-.966 0-.191-.024-.375-.073-.549a2.963 2.963 0 0 0-.207-.528 4.18 4.18 0 0 0-.33-.542c-.13-.184-.277-.384-.439-.6L2.293 9.388c-.292-.392-.575-.79-.847-1.195a9.988 9.988 0 0 1-.72-1.253 7.78 7.78 0 0 1-.5-1.352A5.731 5.731 0 0 1 .035 4.1c0-.696.112-1.3.336-1.815.223-.513.525-.94.903-1.28.378-.339.815-.59 1.31-.757A4.95 4.95 0 0 1 4.16 0c.61 0 1.159.078 1.646.235.488.157.907.392 1.257.705.35.313.618.704.805 1.17.187.465.28 1.007.28 1.625 0 .418-.034.822-.103 1.214-.07.392-.137.727-.201 1.005H5.708a20.537 20.537 0 0 0-.072-1.553c-.041-.444-.116-.812-.226-1.104-.11-.292-.26-.511-.451-.66-.192-.147-.441-.221-.75-.221-.269 0-.493.045-.672.137a1.217 1.217 0 0 0-.432.36c-.11.147-.187.313-.233.495-.044.183-.066.37-.066.562 0 .417.093.805.28 1.162.187.357.435.744.745 1.162L6.294 9.39c.18.234.386.52.622.855.237.335.46.705.672 1.11.21.404.39.846.536 1.325.147.478.22.98.22 1.502 0 .635-.094 1.212-.28 1.73-.188.518-.465.959-.83 1.325a3.746 3.746 0 0 1-1.348.848c-.533.201-1.14.3-1.824.3-.561 0-1.09-.067-1.586-.201a3.324 3.324 0 0 1-1.292-.666c-.367-.31-.655-.717-.866-1.221C.106 15.79 0 15.168 0 14.429zm10.82 3.76V7.017h3.086V18.19H10.82zM11.07.665c.159-.162.351-.279.58-.353.227-.073.487-.11.78-.11.61 0 1.073.164 1.391.495.317.331.476.862.476 1.593 0 .68-.16 1.208-.482 1.587-.321.378-.787.568-1.397.568-.569 0-1.02-.183-1.348-.549-.33-.365-.494-.9-.494-1.606L11.07.664zm10.326 14.208c.203 0 .384-.036.543-.11.158-.074.3-.173.427-.294.126-.122.236-.262.33-.418.092-.157.172-.318.237-.483V3.735a2.912 2.912 0 0 0-.616-.934 1.27 1.27 0 0 0-.933-.385c-.228 0-.435.044-.622.13-.187.087-.35.25-.488.49s-.246.57-.324.992c-.076.423-.115.969-.115 1.639v5.915c0 .67.039 1.22.115 1.646.078.426.186.76.324 1.005.138.243.303.411.494.502.191.092.4.137.628.137zm-1.756 4.545c0 .774.134 1.323.402 1.645.269.322.683.483 1.245.483.227 0 .447-.037.658-.111.212-.074.396-.21.555-.405.158-.195.287-.468.384-.816.098-.348.147-.796.147-1.345v-2.834a3.8 3.8 0 0 1-1.068.987c-.435.273-.974.41-1.616.41-.187 0-.407-.019-.659-.058a2.555 2.555 0 0 1-.78-.267 2.948 2.948 0 0 1-.793-.633c-.261-.284-.492-.664-.696-1.143-.203-.48-.367-1.077-.494-1.796-.125-.718-.189-1.586-.189-2.605V6.203c0-.975.064-1.804.189-2.488.127-.684.291-1.255.494-1.717.204-.461.438-.823.702-1.084.264-.261.533-.459.805-.594.272-.135.539-.22.799-.254.26-.035.491-.053.695-.053.407 0 .767.057 1.08.17.313.113.585.264.817.45.232.188.429.398.592.634.162.235.3.47.414.705l.281-1.776h2.403v17.262c0 1-.09 1.904-.268 2.71-.179.805-.46 1.492-.842 2.062a3.88 3.88 0 0 1-1.458 1.313c-.59.305-1.294.457-2.116.457a7.473 7.473 0 0 1-1.561-.157 3.353 3.353 0 0 1-1.282-.555 2.716 2.716 0 0 1-.865-1.084c-.212-.457-.318-1.038-.318-1.743a4.48 4.48 0 0 1 .158-1.044h2.185zM29.24.209h2.378l.281 1.92v.012c.244-.408.506-.75.787-1.025a4.04 4.04 0 0 1 .872-.659c.3-.165.608-.283.92-.352.314-.07.625-.105.934-.105.984 0 1.743.368 2.275 1.104.533.735.8 1.839.8 3.31v13.775H35.4V4.531c0-.792-.114-1.343-.341-1.652-.228-.309-.562-.463-1.001-.463-.31 0-.616.109-.921.326a3.047 3.047 0 0 0-.811.901v14.546H29.24V.21zm16.126 15.63c.26 0 .515-.072.763-.215.248-.144.457-.32.628-.53V9.467c-.163.07-.346.152-.549.248a5.291 5.291 0 0 0-.66.379c-.218.148-.434.326-.645.535-.212.21-.401.457-.568.744-.167.288-.3.612-.402.973a4.448 4.448 0 0 0-.152 1.208c0 .687.126 1.24.378 1.658.252.418.654.627 1.207.627zM44 18.385c-.52 0-.982-.11-1.384-.333a3.074 3.074 0 0 1-1.02-.907 4.18 4.18 0 0 1-.628-1.365 6.584 6.584 0 0 1-.213-1.717c0-.74.085-1.397.256-1.971a5.23 5.23 0 0 1 .75-1.554 6.05 6.05 0 0 1 1.226-1.26A11.66 11.66 0 0 1 44.683 8.2c.31-.165.656-.333 1.043-.502.386-.17.73-.316 1.03-.438V4.884c0-.349-.012-.673-.036-.973a2.517 2.517 0 0 0-.177-.783 1.145 1.145 0 0 0-.42-.523c-.188-.126-.444-.19-.77-.19-.219 0-.432.044-.64.131a1.35 1.35 0 0 0-.548.444c-.159.21-.285.488-.378.836-.094.348-.14.779-.14 1.292v.784h-2.355c-.074-.34-.128-.65-.165-.934a6.54 6.54 0 0 1-.055-.842c0-.67.108-1.262.324-1.776a3.57 3.57 0 0 1 .902-1.292 3.85 3.85 0 0 1 1.385-.79A5.578 5.578 0 0 1 45.45 0c.838 0 1.534.098 2.087.294.553.196.993.49 1.323.881.33.392.56.884.695 1.476.135.592.201 1.284.201 2.076v13.462h-2.293l-.219-1.54a3.87 3.87 0 0 1-1.336 1.253c-.557.321-1.193.483-1.91.483zm13.223-3.513c.203 0 .384-.036.543-.11.158-.074.3-.173.426-.294.126-.122.237-.262.33-.418a3.42 3.42 0 0 0 .238-.483V3.735a2.913 2.913 0 0 0-.616-.934 1.27 1.27 0 0 0-.934-.385c-.227 0-.434.044-.622.13-.187.087-.349.25-.487.49-.139.24-.247.57-.324.992-.077.423-.116.969-.116 1.639v5.915c0 .67.04 1.22.116 1.646.077.426.185.76.324 1.005.138.243.303.411.494.502.19.092.4.137.628.137zm-1.757 4.545c0 .774.134 1.323.403 1.645.268.322.683.483 1.244.483.228 0 .448-.037.659-.111.211-.074.396-.21.555-.405.158-.195.286-.468.384-.816.098-.348.147-.796.147-1.345v-2.834a3.802 3.802 0 0 1-1.068.987c-.435.273-.974.41-1.616.41-.187 0-.407-.019-.659-.058a2.55 2.55 0 0 1-.78-.267 2.952 2.952 0 0 1-.794-.633c-.26-.284-.492-.664-.695-1.143-.203-.48-.368-1.077-.494-1.796-.126-.718-.19-1.586-.19-2.605l.001-4.726c0-.975.063-1.804.19-2.488.125-.684.29-1.255.493-1.717.203-.461.437-.823.701-1.084.265-.261.533-.459.806-.594a2.54 2.54 0 0 1 .799-.254c.26-.035.492-.053.695-.053.406 0 .766.057 1.08.17.312.113.585.264.817.45.232.188.429.398.592.634.163.235.3.47.414.705l.28-1.776h2.404v17.262c0 1-.09 1.904-.268 2.71-.18.805-.46 1.492-.843 2.062a3.87 3.87 0 0 1-1.457 1.313c-.59.305-1.295.457-2.117.457a7.489 7.489 0 0 1-1.561-.157 3.344 3.344 0 0 1-1.28-.555 2.718 2.718 0 0 1-.867-1.084c-.21-.457-.317-1.038-.317-1.743 0-.122.013-.274.037-.457.025-.182.065-.379.122-.587h2.183zM70.824 7.6c.009-.096.017-.225.025-.385a21.801 21.801 0 0 0 .024-1.019V5.76c0-1.184-.13-2.038-.39-2.56-.26-.522-.646-.783-1.159-.783-.268 0-.504.068-.707.202-.204.135-.37.361-.5.679-.13.318-.228.738-.294 1.26-.065.523-.097 1.171-.097 1.946V7.6h3.098zm-1.707 10.785c-.725 0-1.365-.143-1.922-.43-.557-.289-1.026-.737-1.408-1.346-.383-.61-.671-1.39-.867-2.344-.195-.953-.293-2.1-.293-3.44V7.43c0-1.14.08-2.117.238-2.931.16-.814.366-1.498.623-2.05.256-.553.552-.99.89-1.313A4.038 4.038 0 0 1 67.42.398c.357-.169.713-.278 1.068-.326.353-.048.68-.072.981-.072.553 0 1.086.09 1.599.268.512.178.964.483 1.353.914.391.431.702 1.008.933 1.73.232.722.348 1.623.348 2.703 0 .365-.01.736-.03 1.11-.02.374-.047.742-.08 1.103-.032.361-.075.712-.128 1.05-.053.34-.108.655-.164.941h-5.575v1.828c0 .784.028 1.443.085 1.979.058.535.153.966.287 1.292.134.327.317.562.549.706.232.143.522.215.871.215.188 0 .372-.041.55-.124.18-.083.335-.22.47-.412.134-.191.241-.446.323-.763.081-.318.121-.712.121-1.182v-.562h2.575v.692c0 1.707-.38 2.95-1.14 3.728-.761.78-1.861 1.169-3.3 1.169zM81.657.209h2.256l.27 1.828c.34-.679.733-1.188 1.176-1.527.443-.34.896-.51 1.36-.51.886 0 1.541.292 1.964.875.423.583.634 1.458.634 2.625 0 .148-.01.324-.03.528a9.635 9.635 0 0 1-.384 1.913h-2.148v-1.67c0-.367-.022-.667-.067-.902a2.14 2.14 0 0 0-.176-.568.702.702 0 0 0-.257-.3.618.618 0 0 0-.317-.085c-.244 0-.47.085-.677.255-.207.17-.38.407-.518.711V18.19h-3.086V.21zm13.87 15.63c.276 0 .51-.076.7-.229.191-.152.347-.402.465-.75.117-.349.203-.808.256-1.378.052-.57.078-1.278.078-2.122V6.933c0-.844-.026-1.553-.078-2.128-.053-.574-.139-1.038-.256-1.39-.118-.353-.274-.607-.465-.764a1.07 1.07 0 0 0-.7-.235c-.294 0-.54.078-.739.235-.199.157-.364.411-.494.764-.13.352-.223.816-.28 1.39a22.32 22.32 0 0 0-.085 2.128v4.427c0 .844.028 1.552.084 2.122.058.57.151 1.03.281 1.378.13.348.295.598.494.75.2.153.445.229.738.229zm-.025 2.546c-.358 0-.722-.03-1.092-.091a3.31 3.31 0 0 1-1.074-.379 3.61 3.61 0 0 1-.976-.822c-.304-.358-.57-.828-.799-1.41-.227-.584-.406-1.302-.536-2.155-.13-.853-.195-1.872-.195-3.056v-2.82c0-1.167.067-2.166.201-2.997s.317-1.53.549-2.095c.232-.566.502-1.017.811-1.352a3.58 3.58 0 0 1 .982-.77A3.468 3.468 0 0 1 94.44.085 6.995 6.995 0 0 1 95.514 0c.333 0 .68.026 1.037.078.358.052.707.164 1.05.334.34.169.664.422.969.757.305.335.573.786.805 1.351.232.566.415 1.27.548 2.109.135.84.202 1.848.202 3.023v2.82c0 1.167-.069 2.172-.208 3.016-.138.844-.325 1.559-.56 2.142-.236.583-.509 1.056-.818 1.417a3.877 3.877 0 0 1-.976.842c-.341.2-.689.333-1.042.398a5.615 5.615 0 0 1-1.019.098zm11.27 0c-1.414 0-2.493-.622-3.237-1.867-.745-1.245-1.117-3.142-1.117-5.693V7.43c0-1.14.078-2.117.232-2.931.155-.814.36-1.498.616-2.05.256-.553.55-.99.878-1.313.33-.322.669-.568 1.019-.738A3.48 3.48 0 0 1 106.2.072c.342-.048.655-.072.94-.072.568 0 1.089.08 1.561.242.471.161.878.404 1.22.73.342.327.605.739.792 1.235.188.496.281 1.08.281 1.75 0 .418-.019.776-.055 1.077-.036.3-.087.59-.153.868h-2.464v-.6c0-.906-.1-1.613-.298-2.122-.2-.51-.527-.764-.982-.764-.253 0-.472.063-.66.19-.186.125-.343.34-.469.646-.126.304-.22.713-.28 1.227-.061.514-.092 1.158-.092 1.932v5.106c0 .784.024 1.45.073 1.998.05.548.134.994.256 1.338.122.344.285.594.49.75.202.157.453.236.755.236a.903.903 0 0 0 .451-.124c.146-.083.275-.22.384-.412.11-.191.2-.446.27-.763.068-.318.102-.712.102-1.182v-.562h2.66v.692c0 1.707-.352 2.95-1.056 3.728-.703.78-1.754 1.169-3.153 1.169zm6.76-18.113h3.085V8.11h.098l3.367-7.9h2.964l-3.733 8.226 4.087 9.754h-3.147l-3.538-8.918h-.098v8.918h-3.086V.272zM130.73 7.6a21.795 21.795 0 0 0 .05-1.404l-.001-.437c0-1.184-.13-2.038-.39-2.56-.261-.522-.647-.783-1.16-.783-.268 0-.504.068-.707.202-.204.135-.37.361-.5.679-.13.318-.227.738-.294 1.26-.065.523-.096 1.171-.096 1.946V7.6h3.098zm-1.708 10.785c-.724 0-1.364-.143-1.921-.43-.557-.289-1.027-.737-1.409-1.346-.382-.61-.67-1.39-.866-2.344-.195-.953-.293-2.1-.293-3.44V7.43c0-1.14.08-2.117.238-2.931.159-.814.366-1.498.622-2.05.256-.553.552-.99.89-1.313a4.038 4.038 0 0 1 1.043-.738c.358-.169.714-.278 1.068-.326.353-.048.68-.072.982-.072.552 0 1.085.09 1.598.268.512.178.964.483 1.354.914.39.431.701 1.008.933 1.73.232.722.348 1.623.348 2.703 0 .365-.01.736-.03 1.11-.021.374-.048.742-.08 1.103-.033.361-.075.712-.128 1.05-.053.34-.108.655-.165.941h-5.574v1.828c0 .784.028 1.443.085 1.979.057.535.153.966.287 1.292.133.327.317.562.548.706.232.143.523.215.872.215.188 0 .371-.041.55-.124.179-.083.335-.22.47-.412.133-.191.241-.446.322-.763.082-.318.122-.712.122-1.182v-.562h2.574v.692c0 1.707-.38 2.95-1.14 3.728-.76.78-1.86 1.169-3.3 1.169zM136.103.41h3.103v7.092h2.684v2.35h-2.684v4.145c0 .393.035.708.104.947.07.24.165.427.287.562a.867.867 0 0 0 .426.267c.163.044.334.066.513.066.3 0 .567-.039.799-.118.232-.078.453-.187.665-.326v1.828c-.18.235-.372.426-.58.574-.207.149-.42.268-.64.36-.22.091-.443.154-.671.19a4.48 4.48 0 0 1-.671.051c-.43 0-.846-.06-1.244-.183a2.34 2.34 0 0 1-1.062-.698c-.309-.344-.554-.82-.737-1.43-.184-.61-.275-1.401-.275-2.376L136.102.41z"/>
</svg>
