<svg width="120" height="85.658" viewBox="0 0 43.953 22.664">
    <path
        d="M32.207 12.723c-.168-.106-.305-.152-.58-.152-.397 0-.58.35-.58 1.296 0 .885.168 1.282.61 1.282a.688.688 0 00.55-.244zm0 3.646v-.382c-.32.366-.626.55-1.114.55-1.067 0-1.617-.87-1.617-2.64 0-1.753.595-2.684 1.83-2.684.397 0 .687.107.9.244v-.96c0-.58-.167-.794-.61-.794-.396 0-.731.214-1.204.61l-.671-1.19c.564-.518 1.326-.93 2.104-.93 1.358 0 2.044.565 2.044 2.136v6.04zM10.5 16.537c-1.22 0-1.755-.824-2.03-1.998l1.389-.519c.183.747.381 1.144.717 1.144.35 0 .564-.244.564-.64 0-.657-.198-.977-.946-1.526-1.266-.915-1.647-1.647-1.647-2.684 0-1.251.732-2.12 2.013-2.12 1.144 0 1.663.686 1.983 1.8l-1.373.518c-.167-.58-.35-.946-.655-.946-.305 0-.489.229-.489.58 0 .58.23.839.992 1.403 1.327.976 1.632 1.724 1.632 2.837 0 1.373-.9 2.15-2.15 2.15M16.126 16.369l-.823-3.539-.382.793v2.746h-1.617V5.966l1.617-.716v3.904c0 .733-.015 1.632-.046 2.227.168-.534.61-1.662.855-2.242l.335-.778h1.663l-1.312 2.7 1.388 5.308zM18.39 16.369V5.966l1.632-.716v11.119zM23.014 9.566c-.412 0-.595.519-.64 2.029h1.265c-.03-1.342-.213-2.029-.625-2.029m-.656 3.31c.03 1.678.244 2.212.702 2.212.335 0 .457-.26.686-1.084l1.404.473c-.382 1.22-.855 2.06-2.151 2.06-1.602 0-2.197-1.648-2.197-4.119 0-2.715.61-4.225 2.258-4.225 1.449 0 2.135 1.465 2.135 4.195v.488zM29.065 10.1a1.145 1.145 0 00-.809-.29.911.911 0 00-.701.305v6.254h-1.617V8.36h1.617v.397c.274-.336.61-.565 1.037-.565.381 0 .534.061.686.153z"
        fill="#00859f"></path>
    <g>
        <path
            d="M43.46.909C42.994.306 42.243 0 41.227 0H8.555c-.339.003-3.338.12-4.19 3.3L3.106 7.997h.922L5.225 3.53C5.906.988 8.29.893 8.558.89h32.67c.725 0 1.24.19 1.527.563.411.533.33 1.41.216 1.845l-1.26 4.7h.922l1.198-4.472c.07-.266.38-1.646-.371-2.617M35.397 22.664c.339-.003 3.338-.114 4.19-3.3l1.532-5.714h-.922l-1.47 5.484c-.68 2.543-3.065 2.637-3.335 2.64H2.725c-.725 0-1.238-.19-1.526-.562-.412-.532-.33-1.41-.217-1.846l1.531-5.716h-.922l-1.47 5.49c-.07.265-.376 1.648.373 2.617.466.602 1.216.907 2.231.907h32.67"
            fill="#00859f"></path>
    </g>
</svg>