<svg id="SkySignage_logo_without_borders" data-name="SkySignage_logo_without borders" xmlns="http://www.w3.org/2000/svg" xmlns:xlink="http://www.w3.org/1999/xlink" width="241.455" height="40" viewBox="0 0 241.455 40">
  <defs>
    <clipPath id="clip-path">
      <rect id="Rect치ngulo_120" data-name="Rect치ngulo 120" width="241.455" height="40"/>
    </clipPath>
  </defs>
  <g id="SkySignage_logo_without_borders-2" data-name="SkySignage_logo_without borders" clip-path="url(#clip-path)">
    <g id="Grupo_25" data-name="Grupo 25">
      <g id="Grupo_24" data-name="Grupo 24">
        <g id="Grupo_23" data-name="Grupo 23">
          <rect id="Rect치ngulo_119" data-name="Rect치ngulo 119" width="68.121" height="39.758" fill="#4fc3f7"/>
        </g>
        <path id="Trazado_1" data-name="Trazado 1" d="M0,0H68.121V39.758H0ZM2.424,2.424H65.7V37.333H2.424Z" fill-rule="evenodd"/>
      </g>
      <path id="Trazado_2" data-name="Trazado 2" d="M63.416,86.243c1.05.15-.087,2.673,0,2.843,1.734,3.394,10.724,6.577,16.229,6.577s10.473-1.1,16.982-6.577c.237-.2-.931-2.006,0-2.267.69-.193,3.031.645,3.243,1.357.2.684-2.579,1.3-2.652,1.436-3.478,6.559-11.749,8.33-17.573,8.539-7.465.267-16.229-3.512-17.2-8.249-.056-.273-3.216-.668-3.025-1.386C59.713,87.4,62.467,86.108,63.416,86.243Z" transform="translate(-45.007 -65.328)" fill="#fff"/>
      <ellipse id="Elipse_13" data-name="Elipse 13" cx="3.394" cy="6.182" rx="3.394" ry="6.182" transform="translate(24.727 7.515)" fill="#fff"/>
      <ellipse id="Elipse_14" data-name="Elipse 14" cx="3.394" cy="6.182" rx="3.394" ry="6.182" transform="translate(38.545 7.515)" fill="#fff"/>
      <path id="Trazado_3" data-name="Trazado 3" d="M305.264,31.085a8.4,8.4,0,0,0,3.812-.762,2.66,2.66,0,0,0,1.5-2.576,3.716,3.716,0,0,0-.268-1.484,2.922,2.922,0,0,0-.886-1.113A7.606,7.606,0,0,0,307.8,24.2q-1.01-.453-2.493-1.072-1.2-.495-2.267-1.01a9.286,9.286,0,0,1-1.9-1.2,5.217,5.217,0,0,1-1.319-1.628,4.94,4.94,0,0,1-.495-2.308,5.178,5.178,0,0,1,1.958-4.2,8.234,8.234,0,0,1,5.378-1.607,14.612,14.612,0,0,1,3.606.371,11.457,11.457,0,0,1,2,.659l-.618,2.39a16.061,16.061,0,0,0-1.669-.659,10.966,10.966,0,0,0-3.441-.412,7.591,7.591,0,0,0-1.71.185,4.543,4.543,0,0,0-1.422.577,3.094,3.094,0,0,0-.989.989,2.723,2.723,0,0,0-.371,1.463,3.113,3.113,0,0,0,.33,1.484,3.3,3.3,0,0,0,.968,1.092,8.264,8.264,0,0,0,1.566.886q.927.412,2.122.907,1.236.495,2.37,1.01a8.775,8.775,0,0,1,2,1.236,5.716,5.716,0,0,1,1.4,1.731,5.371,5.371,0,0,1,.536,2.535,4.957,4.957,0,0,1-2.164,4.368,10.322,10.322,0,0,1-5.914,1.484A14.854,14.854,0,0,1,300.978,33,16.614,16.614,0,0,1,299,32.28l.7-2.432a4.551,4.551,0,0,0,.536.268,11.244,11.244,0,0,0,1.113.412,12.067,12.067,0,0,0,1.669.392A13.533,13.533,0,0,0,305.264,31.085ZM321.313,21.4a23.272,23.272,0,0,1,2.741,2.225q1.463,1.36,2.885,2.947t2.679,3.256a32.568,32.568,0,0,1,2.122,3.153h-3.173a30.387,30.387,0,0,0-2.246-3.235,36.886,36.886,0,0,0-2.638-2.988q-1.381-1.4-2.761-2.555a24.939,24.939,0,0,0-2.617-1.937V32.981h-2.679V1.495L318.3,1V21.276q1.03-.989,2.308-2.267t2.576-2.6q1.3-1.319,2.452-2.555t1.978-2.184h3.215q-.948.989-2.143,2.225T326.2,16.475q-1.3,1.339-2.576,2.617L321.313,21.4Zm17.615,12.034q-1.36-2.514-2.617-5.234t-2.349-5.5q-1.092-2.782-2-5.564T330.4,11.674h2.844q.453,1.978,1.154,4.265t1.587,4.719q.886,2.432,1.958,4.987t2.308,5.028q.907-2.555,1.607-4.822t1.3-4.513q.6-2.246,1.154-4.6t1.175-5.069h2.679Q346.84,17.65,345.15,23.3a102.289,102.289,0,0,1-3.668,10.344,23.735,23.735,0,0,1-1.607,3.194,9.268,9.268,0,0,1-1.834,2.2,6.5,6.5,0,0,1-2.349,1.278,10.768,10.768,0,0,1-3.153.412,6.663,6.663,0,0,1-1.875-.247,5.952,5.952,0,0,1-1.051-.371l.536-2.225a3.9,3.9,0,0,0,.927.35,5.542,5.542,0,0,0,1.587.227,8.083,8.083,0,0,0,2.081-.247,4.466,4.466,0,0,0,1.669-.845,6.209,6.209,0,0,0,1.339-1.545A14.936,14.936,0,0,0,338.927,33.434Z" transform="translate(-226.515 -0.758)" fill="#4fc3f7"/>
      <path id="Trazado_4" data-name="Trazado 4" d="M506.264,37.9a8.4,8.4,0,0,0,3.812-.762,2.66,2.66,0,0,0,1.5-2.576,3.716,3.716,0,0,0-.268-1.484,2.92,2.92,0,0,0-.886-1.113,7.6,7.6,0,0,0-1.628-.948q-1.01-.453-2.493-1.072-1.2-.495-2.267-1.01a9.291,9.291,0,0,1-1.9-1.2,5.216,5.216,0,0,1-1.319-1.628,4.94,4.94,0,0,1-.495-2.308,5.179,5.179,0,0,1,1.958-4.2A8.234,8.234,0,0,1,507.666,18a14.612,14.612,0,0,1,3.606.371,11.458,11.458,0,0,1,2,.659l-.618,2.39a16.061,16.061,0,0,0-1.669-.659,10.967,10.967,0,0,0-3.441-.412,7.591,7.591,0,0,0-1.71.185,4.542,4.542,0,0,0-1.422.577,3.093,3.093,0,0,0-.989.989,2.723,2.723,0,0,0-.371,1.463,3.113,3.113,0,0,0,.33,1.484,3.3,3.3,0,0,0,.969,1.092,8.262,8.262,0,0,0,1.566.886q.927.412,2.122.907,1.237.495,2.37,1.01a8.775,8.775,0,0,1,2,1.236,5.718,5.718,0,0,1,1.4,1.731,5.371,5.371,0,0,1,.536,2.535,4.957,4.957,0,0,1-2.164,4.368,10.322,10.322,0,0,1-5.914,1.484,14.854,14.854,0,0,1-4.286-.474A16.6,16.6,0,0,1,500,39.1l.7-2.432a4.551,4.551,0,0,0,.536.268,11.24,11.24,0,0,0,1.113.412,12.069,12.069,0,0,0,1.669.392A13.534,13.534,0,0,0,506.264,37.9Zm13.04,1.9h-2.679V18.49H519.3V39.8Zm.618-27.736a1.992,1.992,0,0,1-.577,1.5,2.043,2.043,0,0,1-2.8,0,1.992,1.992,0,0,1-.577-1.5,1.992,1.992,0,0,1,.577-1.5,2.043,2.043,0,0,1,2.8,0A1.992,1.992,0,0,1,519.922,12.061Zm17.45,25.263a4.7,4.7,0,0,1-.742.474,11.719,11.719,0,0,1-1.216.556,9.436,9.436,0,0,1-1.649.474,10.656,10.656,0,0,1-2.081.185,11.261,11.261,0,0,1-3.585-.577,8.008,8.008,0,0,1-3.029-1.813,8.893,8.893,0,0,1-2.081-3.194,12.838,12.838,0,0,1-.783-4.76,12.269,12.269,0,0,1,.7-4.2,9.925,9.925,0,0,1,2-3.359,9.071,9.071,0,0,1,3.173-2.225,10.625,10.625,0,0,1,4.224-.8,23.168,23.168,0,0,1,4.76.392q1.793.392,2.947.762V38.684q0,4.781-2.473,6.821t-7.459,2.04a20.569,20.569,0,0,1-3.73-.309,20.163,20.163,0,0,1-2.864-.721l.536-2.432a12.231,12.231,0,0,0,2.7.783,18.132,18.132,0,0,0,3.441.33q3.792,0,5.5-1.463t1.71-5.007v-1.4Zm-.041-16.238a15.873,15.873,0,0,0-1.813-.392,20.588,20.588,0,0,0-3.173-.185,7.466,7.466,0,0,0-3.07.6,6.493,6.493,0,0,0-2.287,1.69,7.464,7.464,0,0,0-1.442,2.6,10.574,10.574,0,0,0-.495,3.318,10.075,10.075,0,0,0,.577,3.606,7.077,7.077,0,0,0,1.5,2.452,5.616,5.616,0,0,0,2.122,1.381,7.093,7.093,0,0,0,2.432.433A9.83,9.83,0,0,0,535,36.046a7.462,7.462,0,0,0,2.328-1.236V21.086Zm6.858-1.855q1.2-.33,3.214-.742a25.21,25.21,0,0,1,4.945-.412,10.294,10.294,0,0,1,4.059.7,6.236,6.236,0,0,1,2.6,2,8.155,8.155,0,0,1,1.381,3.112,18.057,18.057,0,0,1,.412,4V39.8h-2.679V28.752a20.178,20.178,0,0,0-.309-3.833,6.391,6.391,0,0,0-1.03-2.555,4,4,0,0,0-1.9-1.422,8.61,8.61,0,0,0-2.947-.433,22.531,22.531,0,0,0-3.276.206,10.055,10.055,0,0,0-1.793.371V39.8h-2.679V19.232Zm27.258,18.628q1.566,0,2.741-.1a18.748,18.748,0,0,0,2-.268v-7.5a8.206,8.206,0,0,0-1.443-.433,12.772,12.772,0,0,0-2.72-.227,15.444,15.444,0,0,0-2.061.144,5.951,5.951,0,0,0-1.978.618,4.1,4.1,0,0,0-1.484,1.3,3.735,3.735,0,0,0-.577,2.184,4.685,4.685,0,0,0,.391,2.019,3.263,3.263,0,0,0,1.113,1.319,4.94,4.94,0,0,0,1.731.721A10.491,10.491,0,0,0,571.447,37.859ZM571.2,18a9.438,9.438,0,0,1,3.565.6,6.118,6.118,0,0,1,2.37,1.648,6.486,6.486,0,0,1,1.319,2.493,11.367,11.367,0,0,1,.412,3.132V39.3a12.055,12.055,0,0,1-1.2.268q-.783.144-1.813.309t-2.287.268q-1.257.1-2.576.1a12.308,12.308,0,0,1-3.111-.371A6.877,6.877,0,0,1,565.41,38.7a5.542,5.542,0,0,1-1.648-2.061,7.117,7.117,0,0,1-.6-3.07,6.229,6.229,0,0,1,.659-2.967,5.612,5.612,0,0,1,1.854-2.04,8.319,8.319,0,0,1,2.844-1.175,16.325,16.325,0,0,1,3.585-.371q.577,0,1.216.062t1.236.165q.6.1,1.03.206a3.131,3.131,0,0,1,.6.185V26.32a13.964,13.964,0,0,0-.165-2.164,4.736,4.736,0,0,0-.721-1.9,4,4,0,0,0-1.566-1.36,5.867,5.867,0,0,0-2.658-.515,13.732,13.732,0,0,0-3.5.33q-1.154.33-1.69.536l-.371-2.349a9.93,9.93,0,0,1,2.164-.618A18.508,18.508,0,0,1,571.2,18Zm25.486,19.328a4.691,4.691,0,0,1-.742.474,11.749,11.749,0,0,1-1.216.556,9.434,9.434,0,0,1-1.648.474,10.656,10.656,0,0,1-2.081.185,11.261,11.261,0,0,1-3.585-.577,8.009,8.009,0,0,1-3.029-1.813,8.89,8.89,0,0,1-2.081-3.194,12.836,12.836,0,0,1-.783-4.76,12.272,12.272,0,0,1,.7-4.2,9.926,9.926,0,0,1,2-3.359,9.071,9.071,0,0,1,3.173-2.225,10.625,10.625,0,0,1,4.224-.8,23.169,23.169,0,0,1,4.76.392q1.793.392,2.947.762V38.684q0,4.781-2.473,6.821t-7.459,2.04a20.568,20.568,0,0,1-3.73-.309,20.167,20.167,0,0,1-2.864-.721l.536-2.432a12.229,12.229,0,0,0,2.7.783,18.131,18.131,0,0,0,3.441.33q3.792,0,5.5-1.463t1.71-5.007v-1.4Zm-.041-16.238a15.888,15.888,0,0,0-1.813-.392,20.586,20.586,0,0,0-3.173-.185,7.466,7.466,0,0,0-3.07.6A6.494,6.494,0,0,0,586.3,22.8a7.464,7.464,0,0,0-1.442,2.6,10.574,10.574,0,0,0-.495,3.318,10.078,10.078,0,0,0,.577,3.606,7.075,7.075,0,0,0,1.5,2.452,5.616,5.616,0,0,0,2.122,1.381,7.092,7.092,0,0,0,2.431.433,9.831,9.831,0,0,0,3.318-.536,7.468,7.468,0,0,0,2.328-1.236V21.086Zm5.58,8.036a13.525,13.525,0,0,1,.8-4.884,10.759,10.759,0,0,1,2.1-3.482,8.274,8.274,0,0,1,2.967-2.081,9.04,9.04,0,0,1,3.441-.68,8.034,8.034,0,0,1,6.244,2.555q2.328,2.555,2.328,7.872,0,.33-.021.659t-.062.618h-14.96a9.422,9.422,0,0,0,1.937,6.017q1.813,2.1,5.77,2.1a11.661,11.661,0,0,0,3.462-.412,14.456,14.456,0,0,0,1.854-.7l.495,2.308a11.143,11.143,0,0,1-2.164.783,13.651,13.651,0,0,1-3.73.453,12.416,12.416,0,0,1-4.781-.824,8.558,8.558,0,0,1-3.256-2.308,9.128,9.128,0,0,1-1.854-3.524A16.39,16.39,0,0,1,602.225,29.122Zm15.125-1.69a8.464,8.464,0,0,0-1.566-5.193,5.074,5.074,0,0,0-4.2-1.855,5.6,5.6,0,0,0-2.576.577,6.544,6.544,0,0,0-1.978,1.545,7.183,7.183,0,0,0-1.319,2.246,9.222,9.222,0,0,0-.556,2.679Z" transform="translate(-378.788 -7.576)"/>
    </g>
  </g>
</svg>
