<svg xmlns="http://www.w3.org/2000/svg" id="Smartsign_logotyp" data-name="Smartsign logotyp" viewBox="0 0 386.8 70.31">
    <defs>
        <style>
            .td-logo-1 {
                fill: #4aaf4e;
            }

            .td-logo-1,
            .td-logo-2 {
                stroke-width: 0px;
            }

            .td-logo-2 {
                fill: currentColor;
            }
        </style>
    </defs>
    <g id="Smartsign">
        <g id="Smartsign-2" data-name="Smartsign">
            <path class="td-logo-2"
                d="m385.16,20.58l-.22-4.48c-.02-.56-.05-1.67-.05-1.7-.01.05-.21,1.15-.3,1.59l-1.03,4.59h-1.51l-.9-4.41c-.11-.55-.32-1.49-.33-1.72,0,.08,0,1.27-.02,1.75l-.21,4.39h-1.68l.64-8.42h2.19l.87,4.51c.1.5.18,1.14.24,1.62.06-.46.15-1.08.25-1.61l.92-4.52h2.14l.62,8.42h-1.64Z">
            </path>
            <path class="td-logo-2" d="m377.72,13.61h-1.77v6.97h-1.66v-6.97h-1.76v-1.45h5.38l-.19,1.45Z"></path>
            <path class="td-logo-2"
                d="m100.73,57.75c-5.48,0-11.59-1.6-16.44-4.37l3.61-7.56c4.51,2.36,8.4,3.89,13.25,3.89,5.55,0,8.47-2.29,8.47-6.59,0-3.12-2.01-5.06-6.31-6.24l-5.34-1.46c-4.79-1.32-7.77-3.19-9.51-6.11-1.32-2.15-2.01-4.65-2.01-7.35,0-8.81,7.08-14.92,17.28-14.92,5.9,0,11.86,1.8,16.1,4.86l-4.58,6.94c-4.37-2.64-7.63-3.68-11.24-3.68-3.95,0-6.73,2.29-6.73,5.55,0,2.5,1.32,3.75,5.34,4.86l5.83,1.6c7.91,2.15,12.21,7.22,12.21,14.36,0,9.78-7.91,16.24-19.91,16.24Z">
            </path>
            <path class="td-logo-2"
                d="m160.88,56.71v-23.45c0-4.23-.49-5.06-2.91-5.06-1.74,0-4.16,1.18-6.18,2.98v25.53h-8.81v-23.1c0-4.44-.62-5.48-3.19-5.48-1.73,0-4.09.9-6.11,2.71v25.88h-9.09v-24.77c0-5.13-.35-7.35-1.32-9.09l8.39-2.29c.62.97.9,1.8,1.25,3.61,2.43-2.36,5.41-3.61,8.67-3.61,2.91,0,5.34.97,7.22,2.91.49.49.97,1.11,1.39,1.73,3.26-3.33,6.18-4.65,10.06-4.65,2.78,0,5.41.83,7.01,2.22,2.01,1.74,2.64,3.82,2.64,8.67v25.25h-9.02Z">
            </path>
            <path class="td-logo-2"
                d="m201.02,58.52c-2.15-.9-4.09-2.5-5-4.3-.69.69-1.46,1.39-2.15,1.87-1.73,1.25-4.23,1.94-7.15,1.94-7.91,0-12.21-4.02-12.21-11.1,0-8.33,5.76-12.21,17.07-12.21.69,0,1.32,0,2.08.07v-1.46c0-3.95-.76-5.27-4.16-5.27-2.98,0-6.45,1.46-10.27,4.02l-3.96-6.66c1.87-1.18,3.26-1.87,5.76-2.91,3.47-1.46,6.45-2.08,9.71-2.08,5.97,0,10.06,2.22,11.45,6.17.49,1.46.69,2.57.62,6.38l-.21,11.93c-.07,3.89.21,5.55,3.33,7.91l-4.93,5.69Zm-7.91-17.35c-6.45,0-8.67,1.18-8.67,5.41,0,2.78,1.73,4.65,4.09,4.65,1.73,0,3.47-.9,4.86-2.43l.14-7.63h-.42Z">
            </path>
            <path class="td-logo-2"
                d="m227.18,29.31c-.9-.49-1.67-.69-2.71-.69-2.08,0-3.95.97-5.69,2.98v25.12h-9.3v-23.73c0-4.79-.55-8.4-1.32-10.41l6.3-2.22c.83,1.46,3.34,3.05,3.48,5.06,2.01-2.71,4.86-5.06,8.33-5.06,1.39,0,2.01.14,3.47.76l-2.57,8.19Z">
            </path>
            <path class="td-logo-2"
                d="m245.88,57.55c-4.72,0-8.46-2.08-9.58-5.2-.55-1.53-.62-2.22-.62-5.48v-19.29h-3.54v-6.38h3.54c0-3.47,0-5.76.35-8.39l9.44-2.36c-.35,3.26-.56,7.15-.56,10.75h8.33l-2.36,6.38h-5.97v17.83c0,4.51.83,5.69,4.03,5.69.83,0,1.66-.21,3.33-.69l1.18,5.55c-2.71,1.11-5.13,1.6-7.56,1.6Z">
            </path>
            <path class="td-logo-2"
                d="m269.26,57.82c-4.37,0-9.16-1.39-14.36-4.09l3.33-6.8c2.84,1.74,7.77,4.03,11.8,4.03,2.64,0,4.72-1.74,4.72-4.03,0-2.43-1.73-3.68-5.48-4.37l-4.16-.76c-2.36-.42-5.27-2.08-6.52-3.61-1.25-1.53-2.01-4.09-2.01-6.38,0-6.94,5.48-11.59,13.74-11.59,5.69,0,9.44,1.73,12.7,3.33l-3.05,6.24c-3.54-1.8-6.11-2.57-8.74-2.57s-4.51,1.39-4.51,3.47c0,1.8,1.18,2.78,4.44,3.61l4.3,1.11c4.37,1.11,5.83,2.43,7.08,4.02,1.32,1.66,1.94,3.68,1.94,6.04,0,7.35-6.1,12.35-15.19,12.35Z">
            </path>
            <path class="td-logo-2"
                d="m293.9,17.17c-3.12,0-5.69-2.57-5.69-5.76s2.64-5.76,5.83-5.76,5.62,2.57,5.62,5.76-2.57,5.76-5.76,5.76Zm-4.65,39.55V21.81l9.3-1.46v36.36h-9.3Z">
            </path>
            <path class="td-logo-2"
                d="m334.74,27.71c-.9,0-1.87-.14-2.43-.21,1.39,1.67,2.08,3.47,2.08,5.83,0,6.11-5.55,10.55-13.11,10.55-.42,0-.69,0-1.39-.07-2.36,1.11-3.68,1.94-3.68,2.91,0,.49.55.83,1.53.83l5,.07c5.41.07,8.26.9,10.75,3.19,2.08,1.94,3.05,4.37,3.05,7.56,0,2.98-.9,5.27-2.84,7.35-3.12,3.33-8.46,4.58-14.01,4.58-5.06,0-10.27-.83-13.46-3.82-1.94-1.8-2.91-3.89-2.91-6.31,0-1.94.49-2.91.83-3.61h8.6c-.35.83-.42,1.32-.42,2.29,0,2.84,2.36,4.37,6.66,4.37,2.36,0,4.37-.28,5.83-1.18,1.39-.83,2.29-2.15,2.29-3.61,0-3.19-2.84-4.16-6.52-4.23l-3.95-.07c-4.16-.07-6.87-.42-8.53-1.11-1.67-.62-2.71-2.22-2.71-4.65,0-2.29.69-4.44,6.52-5.97-5.13-1.32-7.63-4.58-7.63-9.85,0-7.29,5.9-12,14.99-12,2.01,0,3.82.28,6.38.9,1.94.49,3.19.76,4.37.76,2.57,0,5.2-1.11,7.35-3.05l3.89,5.9c-2.01,1.87-3.95,2.64-6.52,2.64Zm-15.54-.35c-3.54,0-5.55,1.94-5.55,5.27,0,3.61,2.22,5.06,5.48,5.06,3.68,0,5.69-1.8,5.69-5.06s-2.08-5.27-5.62-5.27Z">
            </path>
            <path class="td-logo-2"
                d="m363.37,56.71v-23.1c0-4.02-.69-5.2-3.12-5.2-1.87,0-4.3,1.25-6.45,3.19v25.12h-9.3v-25.74c0-3.05-.42-5.97-1.25-8.33l8.26-2.36c.83,1.46,1.32,2.98,1.32,4.44,1.39-.97,2.57-1.8,4.09-2.64,1.87-.97,4.3-1.53,6.38-1.53,3.95,0,7.42,2.08,8.53,5.13.49,1.32.69,2.84.69,5.06v25.95h-9.16Z">
            </path>
        </g>
    </g>
    <path id="S-symbol" class="td-logo-1"
        d="m0,0v64.37h64.37V0H0Zm9.02,26.54c.54,1.02,1.16,2,1.89,2.91,2.74,3.53,7.01,5.55,13.82,6.54l7.9,1.13c7.04,1.02,10.61,3.86,11.25,8.93.99,7.95-4.64,9.3-11.53,10.16-.72.09-1.53.14-2.41.14-5.94,0-14.56-2.08-20.92-4.04v-25.77Zm28.84-1.61l-8.61-1.24c-5.48-.8-9-2.27-9.61-7.12-.42-3.39,1.01-7.68,10.25-8.83.98-.12,2.18-.19,3.48-.19,3.38,0,13.75.49,21.98,5.89v23.27c-2.67-6.47-8.6-10.51-17.48-11.77Z">
    </path>
</svg>