<?xml version="1.0" encoding="utf-8"?>
<!-- Generator: Adobe Illustrator 27.1.1, SVG Export Plug-In . SVG Version: 6.00 Build 0)  -->
<svg version="1.1" id="Layer_1" xmlns="http://www.w3.org/2000/svg" xmlns:xlink="http://www.w3.org/1999/xlink" x="0px" y="0px"
	 viewBox="0 0 1894.7661133 358.201416" style="enable-background:new 0 0 1894.7661133 358.201416;" xml:space="preserve">
<style type="text/css">
	.st0{enable-background:new    ;}
	.st1{fill:#FFB95C;}
	.st2{fill:#FF8B00;}
	.st3{fill:#E06A00;}
</style>
<g>
	<g>
		<g>
			<path d="M361.5658569,256.3776245h25.1871338c1.7807617,0,3.241394,1.3278809,3.5257568,3.0858154
				c2.9163208,18.0308838,12.9860229,24.637085,35.5109253,24.637085c22.9146118,0,32.2516479-7.3543701,32.2516479-20.3685303
				c0-11.5992432-7.0748291-17.2547607-31.1205444-21.4996338l-14.9968872-2.8299561
				c-31.4000854-5.6598511-46.3969727-19.8051758-46.3969727-43.5670166c0-25.7445679,20.3729248-42.4359131,56.3017578-42.4359131
				c41.5886841,0,60.8261108,18.1063232,61.6733398,48.9429932h-24.1781616c-1.8475342,0-3.3242798-1.4226074-3.5463257-3.2567749
				c-2.2158203-18.3031006-14.4098511-23.62323-33.9488525-23.62323c-18.3902588,0-28.2906494,7.3587036-28.2906494,19.5213013
				c0,12.4508667,9.9003906,17.2590942,27.1595459,20.6524048l15.2763672,2.5460815
				c35.6449585,6.7909546,50.6419067,19.2418213,50.6419067,43.5714111c0,28.5744629-22.9190063,44.6981201-61.1100464,44.6981201
				C386.4631958,306.4517822,363.548584,291.175354,361.5658569,256.3776245z"/>
			<path d="M631.7285767,204.8885498v94.3231812c0,1.9677124-1.5951538,3.5628662-3.5628052,3.5628662h-24.7277832v-93.9249878
				c0-20.9362793-11.0358887-30.5571899-30.8410645-30.5571899c-17.2547607,0-36.776062,12.7303467-36.776062,42.1563721v78.7629395
				c0,1.9677124-1.5951538,3.5628662-3.5628052,3.5628662h-24.7277832V156.7927246h23.5966797
				c1.9676514,0,3.5628052,1.5951538,3.5628052,3.5628662v18.2207031
				c9.6165771-14.4291992,25.1768188-25.1768188,45.8292236-25.1768188
				C612.2072754,153.3994751,631.7285767,171.5057983,631.7285767,204.8885498z"/>
			<path d="M797.2098999,284.5539551v18.2206421c-4.2405396,0.567749-9.3326416,0.847229-13.8614502,0.847229
				c-18.1063232,0-26.3079224-6.5070801-28.2905884-20.6524048c-9.9003906,15.2807617-26.3123169,23.1984863-47.5280762,23.1984863
				c-31.4044189,0-52.0568237-15.2764282-52.0568237-43.2831421c0-23.4823608,14.1453247-41.3048706,54.8867798-45.2658691
				l21.4996338-2.262207c14.1453247-1.6988525,21.7835083-6.5070801,21.7835083-18.3901978
				c0-13.5819702-7.0704956-20.9362793-29.9894409-20.9362793c-22.9146118,0-32.5311279,6.5070801-33.946106,26.3122559H661.696228
				c1.6987915-29.4260864,18.1063232-48.9429932,61.9572144-48.9429932c41.8725586,0,57.7166748,17.5385742,57.7166748,42.9992676
				v77.2380371c0,4.524353,2.262207,7.3543091,7.9220581,7.3543091h4.3549194
				C795.6147461,280.9910889,797.2098999,282.5862427,797.2098999,284.5539551z M753.6428833,245.0622559v-15.2807617
				c-4.244873,3.397644-10.1842651,5.0921631-18.1063232,5.9437256l-20.3685913,2.262207
				c-23.4822998,2.8299561-30.5527954,11.0358887-30.5527954,24.0501099c0,13.2937012,8.7692871,22.0629883,27.1595459,22.0629883
				C732.427124,284.1005249,753.6428833,272.5012817,753.6428833,245.0622559z"/>
			<path d="M958.4550781,229.7814941c0,46.6808472-26.3122559,76.3864136-66.7698975,76.3864136
				c-20.9362793,0-37.0599365-8.7692871-47.5280762-23.7618408v72.2557983c0,1.9677124-1.5950928,3.5628662-3.5628052,3.5628662
				h-24.7277832V156.7927246h23.5966797c1.9677124,0,3.5628052,1.5951538,3.5628052,3.5628662v18.5045166
				c10.4681396-16.1279907,26.8756714-25.4606323,48.6591797-25.4606323
				C932.1428223,153.3994751,958.4550781,183.1050415,958.4550781,229.7814941z M929.0289307,228.6503906
				c0-33.3827515-16.6912842-50.9213867-42.7197266-50.9213867s-42.7197876,18.6697388-42.7197876,52.0524902
				c0,33.387146,16.6913452,52.0568237,42.7197876,52.0568237S929.0289307,262.0375366,929.0289307,228.6503906z"/>
			<path d="M976.5351562,229.7814941c0-46.6764526,27.7272949-76.382019,69.595459-76.382019
				c36.2126465,0,60.5422363,21.2157593,65.0710449,54.3190308h-26.0246582c-1.6588135,0-3.0452881-1.1681519-3.4580078-2.7747803
				c-4.7380371-18.4475708-19.1330566-26.9351807-35.5883789-26.9351807c-23.1984863,0-40.1737061,16.4118652-40.1737061,51.7729492
				c0,35.3654785,17.5429688,51.7729492,40.1737061,51.7729492c16.7264404,0,31.6505127-8.7421265,35.9447021-27.9487915
				c0.3713379-1.6608887,1.7786865-2.8878784,3.4805908-2.8878784h25.9296875
				c-4.5288086,34.5181885-30.557251,55.4501343-65.3549805,55.4501343
				C1004.8258057,306.1679077,976.5351562,276.4623413,976.5351562,229.7814941z"/>
			<path d="M1127.0239258,229.7814941c0-46.6764526,29.7056885-76.382019,72.425415-76.382019
				c42.4359131,0,72.1414795,29.7055664,72.1414795,76.382019c0,46.6808472-29.7055664,76.3864136-72.1414795,76.3864136
				C1156.7296143,306.1679077,1127.0239258,276.4623413,1127.0239258,229.7814941z M1242.1691895,229.7814941
				c0-33.3827515-16.9753418-52.0524902-42.7198486-52.0524902c-26.0284424,0-43.0036621,18.6697388-43.0036621,52.0524902
				c0,33.387146,16.9752197,52.0568237,43.0036621,52.0568237
				C1225.1938477,281.8383179,1242.1691895,263.1686401,1242.1691895,229.7814941z"/>
			<path d="M1506.3837891,204.8885498v94.3231812c0,1.9677124-1.5952148,3.5628662-3.5628662,3.5628662h-25.0073242v-94.2088623
				c0-20.9362793-9.9047852-30.2733154-28.0111084-30.2733154c-17.2547607,0-34.2299805,12.7303467-34.2299805,44.4185791
				v76.5007324c0,1.9677124-1.5950928,3.5628662-3.5628662,3.5628662h-24.7277832v-94.2088623
				c0-20.9362793-10.1885986-30.2733154-28.2949219-30.2733154c-16.6914062,0-34.2299805,12.7303467-34.2299805,44.4185791
				v76.5007324c0,1.9677124-1.5950928,3.5628662-3.5628662,3.5628662h-24.7277832V156.7927246h23.5966797
				c1.9677734,0,3.5628662,1.5951538,3.5628662,3.5628662v18.2207031
				c8.7692871-14.9925537,22.3469238-25.1768188,42.1520996-25.1768188c22.9145508,0,37.911499,11.0314941,44.9819336,27.4389648
				c9.3370361-16.1235962,24.3339844-27.4389648,45.2658691-27.4389648
				C1489.1290283,153.3994751,1506.3837891,174.8991089,1506.3837891,204.8885498z"/>
			<path d="M1747.9632568,204.8885498v94.3231812c0,1.9677124-1.5952148,3.5628662-3.5628662,3.5628662h-25.0073242v-94.2088623
				c0-20.9362793-9.9046631-30.2733154-28.0111084-30.2733154c-17.2546387,0-34.2299805,12.7303467-34.2299805,44.4185791
				v76.5007324c0,1.9677124-1.5950928,3.5628662-3.5627441,3.5628662h-24.7277832v-94.2088623
				c0-20.9362793-10.1887207-30.2733154-28.2950439-30.2733154c-16.6914062,0-34.2299805,12.7303467-34.2299805,44.4185791
				v76.5007324c0,1.9677124-1.5950928,3.5628662-3.5628662,3.5628662h-24.7277832V156.7927246h23.5966797
				c1.9677734,0,3.5628662,1.5951538,3.5628662,3.5628662v18.2207031
				c8.7692871-14.9925537,22.3469238-25.1768188,42.1520996-25.1768188c22.9145508,0,37.911499,11.0314941,44.9819336,27.4389648
				c9.3370361-16.1235962,24.3339844-27.4389648,45.2658691-27.4389648
				C1730.7084961,153.3994751,1747.9632568,174.8991089,1747.9632568,204.8885498z"/>
			<path d="M1769.7161865,256.3776245h25.1871338c1.7807617,0,3.241333,1.3278809,3.5256348,3.0858154
				c2.9163818,18.0308838,12.986084,24.637085,35.5109863,24.637085c22.9146729,0,32.251709-7.3543701,32.251709-20.3685303
				c0-11.5992432-7.0748291-17.2547607-31.1206055-21.4996338l-14.9968262-2.8299561
				c-31.4001465-5.6598511-46.3969727-19.8051758-46.3969727-43.5670166c0-25.7445679,20.3729248-42.4359131,56.3016357-42.4359131
				c41.5887451,0,60.8261719,18.1063232,61.6734619,48.9429932h-24.1782227c-1.8475342,0-3.3242188-1.4226074-3.5462646-3.2567749
				c-2.2158203-18.3031006-14.4099121-23.62323-33.9489746-23.62323c-18.3901367,0-28.2905273,7.3587036-28.2905273,19.5213013
				c0,12.4508667,9.9003906,17.2590942,27.1595459,20.6524048l15.2763672,2.5460815
				c35.6448975,6.7909546,50.6418457,19.2418213,50.6418457,43.5714111c0,28.5744629-22.9189453,44.6981201-61.1099854,44.6981201
				C1794.6135254,306.4517822,1771.6988525,291.175354,1769.7161865,256.3776245z"/>
		</g>
		<g>
			<g>
				<g>
					<path d="M409.3492432,30.414032c-2.3074951-3.019165-5.2481079-5.4883423-8.7389526-7.325592
						c-3.5024414-1.8372498-7.508606-2.7734375-11.9019775-2.7734375c-4.1703491,0-7.9772949,0.8074341-11.2929077,2.3872375
						c-3.3151245,1.5798035-6.1850586,3.7564087-8.5281982,6.4596252c-2.3425903,2.7030334-4.1584473,5.8629456-5.4234009,9.4204407
						c-1.253418,3.5455017-1.8979492,7.336853-1.8979492,11.2809753c0,4.2825928,0.5974731,8.2732849,1.7808228,11.8543396
						c1.1828003,3.5925293,2.9750977,6.740387,5.3297119,9.3263855c2.3430786,2.5980225,5.2601318,4.6457214,8.6453857,6.0849304
						c3.3857422,1.4397278,7.3217773,2.1653748,11.703064,2.1653748c3.0106812,0,5.939209-0.4216919,8.7155151-1.240448
						c2.7763062-0.8312683,5.3181763-2.0716858,7.5561523-3.6982117c2.2374268-1.6265259,4.1820068-3.6511536,5.7749634-6.0383606
						c1.5934448-2.3871765,2.7297363-5.1369324,3.3737183-8.1560974l0.1521606-0.7140808h-12.616394l-0.1402588,0.3981018
						c-1.0195923,2.9019775-2.5654907,5.1138916-4.6156616,6.5531311c-2.0501709,1.439209-4.8029785,2.1763611-8.2001953,2.1763611
						c-2.4482422,0-4.5805664-0.4211426-6.3258057-1.2634583c-1.7572021-0.842804-3.2214355-1.9895935-4.357666-3.3937683
						c-1.1483154-1.4161682-2.0266724-3.1012878-2.6010742-4.9967041c-0.5268555-1.7321777-0.8197632-3.5344543-0.8668213-5.3948669
						h38.5175781c1.0075073,0,1.8508911-0.7721863,1.9330444-1.7552185c0.315918-3.7217407,0-7.3959045-0.9375-10.9183655
						C413.3439941,36.9437866,411.6453857,33.4333496,409.3492432,30.414032z M374.8970337,44.3862915
						c0.1171265-1.7436829,0.5037231-3.3937683,1.1482544-4.9030762c0.7141113-1.6966248,1.6751099-3.1829529,2.8579712-4.4353638
						c1.1832886-1.2404175,2.6124878-2.2349548,4.2640381-2.9370422c1.6520996-0.7021179,3.5144653-1.0646667,5.5531616-1.0646667
						c2.0380249,0,3.7366943,0.3861084,5.3181152,1.1582947c1.5814209,0.7722168,2.9520874,1.8022766,4.0648193,3.0427246
						c1.1132812,1.2519226,2.0031128,2.7382202,2.647644,4.434845c0.5738525,1.5098267,0.9489746,3.0892639,1.1246948,4.7163086
						h-26.9671631L374.8970337,44.3862915z"/>
					<path d="M468.4377441,21.7895813v0.0233765h-11.0351562l-0.1286621,0.4096069L445.055481,60.3714905
						c-0.1286621,0.3866272-0.456604,0.526825-0.7260742,0.526825c-0.1292114,0-0.5623779-0.0350647-0.7265625-0.526825
						l-12.6987305-38.160614L430.7754517,21.8013h-11.6560669c-0.6324463,0-1.2298584,0.3042297-1.5928955,0.8308105
						c-0.3636475,0.5266418-0.4572754,1.1819458-0.234375,1.7787781l18.977356,52.1216431
						c0.2814331,0.7606506,1.019043,1.2754517,1.8272705,1.2754517h11.6795654c0.8203125,0,1.5579224-0.514801,1.8273315-1.2874756
						l18.6734009-52.1213379c0.2108765-0.5968323,0.1172485-1.263855-0.2463989-1.7787476
						C469.6676025,22.1055298,469.0701904,21.7895813,468.4377441,21.7895813z"/>
					<path d="M518.8451538,30.414032c-2.3080444-3.019165-5.2481079-5.4883423-8.7390137-7.325592
						c-3.5029297-1.8372498-7.5090942-2.7734375-11.9019165-2.7734375c-4.1704102,0-7.9778442,0.8074341-11.2929688,2.3872375
						s-6.1856079,3.7564087-8.5281982,6.4596252c-2.3430786,2.7030334-4.1588745,5.8629456-5.4238281,9.4204407
						c-1.253479,3.5455017-1.8980103,7.336853-1.8980103,11.2809753c0,4.2825928,0.5974731,8.2732849,1.7808228,11.8543396
						c1.1833496,3.5925293,2.9755859,6.740387,5.3302612,9.3263855c2.3425903,2.5980225,5.2595825,4.6457214,8.6453247,6.0849304
						c3.3852539,1.4397278,7.3213501,2.1653748,11.7025757,2.1653748c3.0107422,0,5.939209-0.4216919,8.7154541-1.240448
						c2.7769165-0.8312683,5.3187866-2.0716858,7.5562744-3.6982117c2.2374268-1.6265259,4.1819458-3.6511536,5.7753906-6.0383606
						c1.5930176-2.3871765,2.729187-5.1369324,3.3737793-8.1560974l0.1522217-0.7140808h-12.6165161l-0.1407471,0.3981018
						c-1.019104,2.9019775-2.5654907,5.1138916-4.6156616,6.5531311c-2.0501709,1.439209-4.8029175,2.1763611-8.2001953,2.1763611
						c-2.4483032,0-4.5800781-0.4211426-6.3257446-1.2634583c-1.7572021-0.842804-3.2215576-1.9895935-4.3577271-3.3937683
						c-1.1482544-1.4161682-2.0266724-3.1012878-2.6005249-4.9967041c-0.5273438-1.7321777-0.8202515-3.5344543-0.8668213-5.3948669
						h38.5170898c1.0075073,0,1.8508301-0.7721863,1.9329224-1.7552185c0.3165283-3.7217407,0-7.3959045-0.9369507-10.9183655
						C522.8399048,36.9437866,521.1412354,33.4333496,518.8451538,30.414032z M484.392334,44.3862915
						c0.1172485-1.7436829,0.5038452-3.3937683,1.1482544-4.9030762c0.7146606-1.6966248,1.6751709-3.1829529,2.8584595-4.4353638
						c1.1828613-1.2404175,2.6120605-2.2349548,4.2641602-2.9370422c1.6514893-0.7021179,3.5144043-1.0646667,5.5525513-1.0646667
						s3.7367554,0.3861084,5.3182373,1.1582947c1.5814819,0.7722168,2.9520874,1.8022766,4.0652466,3.0427246
						c1.1127319,1.2519226,2.0031128,2.7382202,2.6471558,4.434845c0.5743408,1.5098267,0.9489746,3.0892639,1.1246948,4.7163086
						h-26.9666748L484.392334,44.3862915z"/>
					<path d="M618.8178101,29.0799866c-2.1674194-2.7031555-4.9321899-4.868103-8.2236328-6.424469
						c-3.291748-1.5563965-7.1811523-2.3404541-11.562439-2.3404541c-1.5929565,0-3.2330322,0.1989441-4.8615112,0.5968018
						c-1.6280518,0.3978577-3.2099609,0.9829712-4.6973877,1.7436523c-1.4877319,0.7606201-2.8703613,1.6968384-4.1002808,2.7851257
						c-0.8553467,0.7489624-1.62854,1.5797729-2.3075562,2.4691467V1.942627c0-1.0766296-0.8787842-1.9425659-1.9450073-1.9425659
						l0.012085-0.0233765h-11.3395386v77.8312988h10.6950073c1.0775757,0,1.944519-0.8778381,1.944519-1.9425049v-4.3181763
						c0.7731934,1.1933289,1.6870728,2.2234497,2.6945801,3.0542297c1.4172363,1.1703186,3.0222778,2.1182556,4.7678833,2.8433838
						c1.7337646,0.725647,3.5845337,1.2174072,5.5056152,1.4747925c1.8979492,0.2458801,3.807373,0.3746033,5.6466675,0.3746033
						c4.1119385,0,7.743042-0.8308105,10.7892456-2.4578247c3.0336304-1.6264954,5.5876465-3.826416,7.5791016-6.5296021
						c1.9796753-2.703186,3.4790649-5.8510742,4.4514771-9.3619995c0.9605103-3.4989014,1.4526978-7.1615906,1.4526978-10.8713074
						c0-4.0722961-0.5388184-7.9457703-1.6165161-11.514801C622.6247559,34.966217,620.9847412,31.7832947,618.8178101,29.0799866z
						 M612.0698242,49.8512268c0,2.4107361-0.2573242,4.6812439-0.784668,6.9162292
						c-0.5153198,2.2113953-1.3706055,4.2124939-2.5654907,5.9562073c-1.1833496,1.7201538-2.7177124,3.1478577-4.5335083,4.2245178
						c-1.8042603,1.0766602-4.0647583,1.6150208-6.7008667,1.6150208l-0.0230103-0.0235596
						c-2.3781738,0-4.4754028-0.4797363-6.2556763-1.4156799c-1.7922974-0.9479675-3.3622437-2.2469788-4.6390991-3.8735046
						c-1.2886353-1.6264954-2.272583-3.6160889-2.9171143-5.8861084c-0.6560669-2.305542-0.9839478-4.8329773-0.9839478-7.5246277
						c0-5.7108459,1.2653809-10.3450012,3.7601929-13.7502441c2.4488525-3.3582458,6.173645-5.0553589,11.0471191-5.0553589
						c2.3547363,0,4.4749756,0.526825,6.2907715,1.5684509c1.8272705,1.0531006,3.3737183,2.4572754,4.592041,4.1774597
						c1.2299194,1.7436829,2.1674194,3.7683411,2.7763672,6.0147705
						C611.7539062,45.0653381,612.0698242,47.4405212,612.0698242,49.8512268z"/>
					<rect x="670.1742554" y="21.801178" width="13.2841187" height="56.0068054"/>
					<path d="M733.7836304,1.9425964v25.9671631c-0.784668-1.018158-1.6865845-1.9425659-2.7056274-2.75
						c-1.4177246-1.1234436-2.975647-2.0596008-4.6392212-2.7851868c-1.6635742-0.7254944-3.4207153-1.2521362-5.2245483-1.5798035
						c-1.7922974-0.3276367-3.5845947-0.4914551-5.3067627-0.4914551c-3.0341187,0-6.0447388,0.561676-8.9733887,1.6851196
						c-2.9405518,1.1234131-5.5880737,2.9021301-7.8606567,5.2893982c-2.2723999,2.3872375-4.123291,5.4533997-5.4824829,9.1040649
						c-1.3585205,3.6511536-2.0496826,8.0394592-2.0496826,13.0366821c0,4.142395,0.5389404,8.0624695,1.6165161,11.6785583
						c1.0777588,3.627594,2.7177124,6.8225403,4.8851318,9.4786682c2.1668091,2.6801453,4.9430542,4.8214417,8.2232056,6.366333
						c3.2800903,1.5444031,7.1694946,2.3401184,11.562439,2.3401184c3.5379028,0,6.9351196-0.7135925,10.1096191-2.1177673
						c2.6945801-1.1938477,4.8734741-3.054718,6.4899902-5.5470886v4.2360535c0,1.0766907,0.8783569,1.9425354,1.9445801,1.9425354
						h10.6954956V0h-11.3395996C734.6505737,0,733.7836304,0.8776855,733.7836304,1.9425964z M734.2288818,49.7460938
						c0,2.3405762-0.2930298,4.657196-0.878418,6.9041748c-0.5858765,2.2234192-1.487793,4.2480469-2.6826172,6.0267944
						c-1.1833496,1.7552185-2.7296753,3.194458-4.5805664,4.2711182s-4.0883789,1.6150208-6.6538696,1.6150208h-0.0234375
						c-2.506958,0-4.6973267-0.514801-6.5131226-1.5213623c-1.8273315-1.0180664-3.350647-2.3756714-4.5220337-4.060791
						c-1.1948242-1.7081299-2.0967407-3.6741943-2.6706543-5.8625488c-0.5858765-2.1999207-0.8787842-4.4704285-0.8787842-6.740448
						c0-2.4222412,0.2579956-4.8214722,0.784668-7.1385498c0.5158081-2.2820435,1.3827515-4.3647461,2.565979-6.1670532
						c1.1828613-1.7902222,2.7293091-3.2650146,4.5915527-4.3767395c1.8394165-1.0997009,4.1590576-1.6615906,6.8651123-1.6615906
						c4.5215454,0,8.0009155,1.5914612,10.6365967,4.868042C732.8933105,39.1787109,734.2288818,43.8249207,734.2288818,49.7460938z
						"/>
					<path d="M796.4561157,28.0501709c-1.5324097-2.410675-3.5605469-4.259613-6.0438843-5.500061
						c-2.9755249-1.486145-6.2791138-2.2351074-9.8171997-2.2351074h-0.0114746
						c-3.9595947,0-7.567749,0.7723389-10.7191162,2.2819519c-3.1393433,1.509552-5.8219604,3.5808716-8.0008545,6.1436157
						c-2.1672974,2.5629883-3.8424072,5.5701294-4.9901733,8.9403381
						c-1.1482544,3.3702087-1.7337646,6.9627686-1.7337646,10.6840515c0,3.9906616,0.4682617,7.7940369,1.4057617,11.2929382
						c0.9368896,3.5224609,2.4482422,6.6818542,4.5100098,9.3735046c2.0616455,2.7147217,4.7091675,4.8795776,7.8485718,6.4244385
						c3.1398926,1.556427,7.0053711,2.3401489,11.456665,2.3401489c3.4794312,0,6.782959-0.8773804,9.7937622-2.6210632
						c2.5308838-1.4627686,4.6390991-3.4288025,6.2766724-5.8746033v6.6352539c0,4.341217-1.0866699,7.7114258-3.2299805,9.9934692
						c-2.1448364,2.2705078-5.600708,3.4172974-10.2979126,3.4172974c-1.5228882,0-2.9991455-0.0821228-4.3812866-0.2574158
						c-1.3355713-0.1637268-2.5775146-0.5383301-3.678772-1.1001892c-1.0891113-0.5618591-2.0380859-1.3455811-2.8348389-2.3406067
						c-0.784668-0.9825439-1.3585815-2.2935791-1.6865845-3.8850098l-0.0936279-0.4682312h-13.2260742l0.0587158,0.6439819
						c0.2929077,3.2765808,1.253418,6.0848999,2.8699341,8.3554382c1.5933838,2.24646,3.6080933,4.0838013,5.9746704,5.4649353
						c2.3425903,1.3691406,4.9787598,2.3521423,7.8250732,2.9370422c2.8233643,0.5733948,5.6697998,0.8543091,8.4460449,0.8543091
						c8.8096924,0,15.6768799-2.1062317,20.4091797-6.2491455c4.7423096-4.1659546,7.1560669-10.5433044,7.1560669-18.9458008
						V20.3150024h-13.2855835V28.0501709z M782.2764893,67.0767212c-2.4221802-0.0007935-4.5176392-0.5039062-6.2264404-1.5091553
						c-1.722168-1.0065613-3.1628418-2.3406372-4.276123-3.9556274c-1.1242065-1.6380615-1.9680176-3.510437-2.5183105-5.5936584
						c-0.550415-2.0947266-0.8318481-4.2711182-0.8318481-6.4830322c0-2.2114258,0.2458496-4.4699097,0.7260742-6.7168884
						c0.4807129-2.2234497,1.2770386-4.2245178,2.3666992-5.9562073c1.0777588-1.7206421,2.5184326-3.1363525,4.2640381-4.2130432
						c1.7337646-1.0651245,3.9125366-1.6029663,6.4900513-1.6029663c2.5769653,0,4.6858521,0.4797363,6.4660645,1.4157104
						c1.7807007,0.9479675,3.2449951,2.2349548,4.3592529,3.8384094c1.1217651,1.6265259,1.9680176,3.5339661,2.5187988,5.6522522
						c0.5509033,2.1412964,0.8313599,4.3647461,0.8313599,6.6347656c0,2.2705078-0.260437,4.575592-0.7862549,6.8110352
						c-0.5158081,2.2234497-1.3470459,4.2245178-2.4738159,5.9677429c-1.1107178,1.7086182-2.5750122,3.1128235-4.3671875,4.1544189
						C787.0514526,66.5612793,784.8395386,67.0759277,782.2764893,67.0767212z"/>
					<path d="M870.8912354,40.8523254c-1.0415649-3.9085388-2.7392578-7.4189758-5.0377197-10.4382935
						c-2.3085938-3.019165-5.24823-5.4883423-8.7385864-7.325592c-3.5004272-1.8372498-7.5066528-2.7734375-11.9034424-2.7734375
						c-4.1663818,0-7.9772949,0.8074341-11.2923584,2.3872375c-3.3151855,1.5798035-6.1846313,3.7564087-8.5281982,6.4596252
						c-2.34375,2.7030334-4.1564941,5.8629456-5.4234619,9.4204407c-1.2519531,3.5455017-1.8979492,7.336853-1.8979492,11.2809753
						c0,4.2825928,0.6008911,8.2732849,1.7827759,11.8543396c1.1818848,3.5925293,2.9746094,6.740387,5.328186,9.3263855
						c2.34375,2.5980225,5.2631836,4.6457214,8.6483765,6.0849304c3.3852539,1.4397278,7.3214111,2.1653748,11.703186,2.1653748
						c3.0096436,0,5.9391479-0.4216919,8.7134399-1.240448c2.774292-0.8312683,5.3182983-2.0716858,7.5567017-3.6982117
						c2.2384644-1.6265259,4.1813965-3.6511536,5.7739868-6.0383606c1.5924072-2.3871765,2.729187-5.1369324,3.3751831-8.1560974
						l0.1502686-0.7140808h-12.614624l-0.1401978,0.3981018c-1.0214844,2.9019775-2.5689087,5.1138916-4.6171265,6.5531311
						c-2.0480957,1.439209-4.8023682,2.1763611-8.1976318,2.1763611c-2.4488525,0-4.5821533-0.4211426-6.329834-1.2634583
						c-1.7577515-0.842804-3.2199707-1.9895935-4.3567505-3.3937683c-1.1467896-1.4161682-2.0281372-3.1012878-2.598999-4.9967041
						c-0.5258179-1.7321777-0.821167-3.5344543-0.866333-5.3948669h38.5145874c1.0065308,0,1.8528442-0.7721863,1.9330444-1.7552185
						C872.1431885,48.0489502,871.8277588,44.3747864,870.8912354,40.8523254z M839.6730347,32.1108093
						c1.6524048-0.7021179,3.5154419-1.0646667,5.5534668-1.0646667c2.038208,0,3.7357788,0.3861084,5.3182983,1.1582947
						c1.5823975,0.7722168,2.9495239,1.8022766,4.0612183,3.0427246c1.1166992,1.2519226,2.0081177,2.7382202,2.6491089,4.434845
						c0.5759888,1.5098267,0.9515381,3.0892639,1.12677,4.7163086h-26.9666748l-0.0150146-0.0120239
						c0.1201782-1.7436829,0.5057983-3.3937683,1.1517944-4.9030762c0.7110596-1.6966248,1.6724854-3.1829529,2.8543701-4.4353638
						C836.5932007,33.8074341,838.0204468,32.8128967,839.6730347,32.1108093z"/>
					<path d="M677.3083496,0.6319885h-0.6675415c-3.8309937,0-6.9353027,3.1127625-6.9353027,6.9276733
						s3.116394,6.9277344,6.9353027,6.9277344h0.6675415c3.8308716,0,6.9351196-3.1128235,6.9351196-6.9277344
						S681.1271973,0.6319885,677.3083496,0.6319885z"/>
					<path d="M562.4942627,21.3012695h-0.0471191c-17.723938,0.4446716-31.0785522,10.9297485-31.0785522,24.3875732v30.1766357
						c0,1.0761414,0.8782959,1.9425049,1.944458,1.9425049h10.6019287V47.6779175
						c0-8.0394287,8.7625732-14.3351746,19.9378052-14.3351746h0.5859375V23.2321777
						C564.4387207,22.1672058,563.5603638,21.3012695,562.4942627,21.3012695z"/>
					<path d="M662.3606567,21.3012695h-0.0470581c-17.723999,0.4446716-31.0786133,10.9297485-31.0786133,24.3875732v30.1766357
						c0,1.0761414,0.878418,1.9425049,1.944519,1.9425049h10.6019897V47.6779175
						c0-8.0394287,8.7619629-14.3351746,19.9378052-14.3351746h0.5858765V23.2321777
						C664.3051758,22.1672058,663.4263916,21.3012695,662.3606567,21.3012695z"/>
				</g>
			</g>
			<g>
				<path d="M871.946167,21.8687134v-1.5537109h7.3198242v1.5537109h-2.7287598v7.3585815h-1.8623047v-7.3585815H871.946167z"/>
				<path d="M880.4755859,20.3150024h2.3239746l2.4543457,5.9880676h0.1043701l2.4543457-5.9880676h2.3238525v8.9122925h-1.8277588
					v-5.8007507h-0.0740967l-2.3063965,5.7573242h-1.244751l-2.3062744-5.7791138h-0.0738525v5.8225403h-1.8277588V20.3150024z"/>
			</g>
		</g>
	</g>
	<g class="st0">
		<path class="st1" d="M281.5728149,162.6004028L281.5728149,162.6004028
			c0-77.6314087-63.1549683-140.7870483-140.786438-140.7870483S0,84.9685669,0,162.5999756h0.0004883L0,162.6004028
			c0,65.4678955,44.9160767,120.6381226,105.5499878,136.3198853c7.3794556,8.619812,16.1787109,17.2927246,26.6399536,25.3093262
			l1.3231812,1.00354l7.269043,5.8311768l7.2084961-5.7865601c11.2290039-8.4313354,20.5380249-17.4822998,28.2456055-26.4185791
			C236.7619019,283.1026001,281.5728149,227.9907837,281.5728149,162.6004028L281.5728149,162.6004028
			C281.5728149,162.6003418,281.5728149,162.6004639,281.5728149,162.6004028L281.5728149,162.6004028z M226.9940796,162.6004028
			L226.9940796,162.6004028c0,47.5348511-38.6728516,86.2077026-86.2077026,86.2077026
			c-47.53479,0-86.2087402-38.6728516-86.2087402-86.2077026l-0.0004883-0.0004272h0.0004883
			c0-47.5350342,38.6739502-86.2081909,86.2087402-86.2081909
			C188.321228,76.3917847,226.9940796,115.0653687,226.9940796,162.6004028L226.9940796,162.6004028L226.9940796,162.6004028
			C226.9940796,162.6004639,226.9940796,162.6003418,226.9940796,162.6004028z"/>
	</g>
	<path class="st2" d="M140.786377,21.8133545C63.1549683,21.8133545,0,84.9685669,0,162.5999756h54.5776367
		c0-47.5350342,38.6739502-86.2081909,86.2087402-86.2081909c47.5348511,0,86.2077026,38.673584,86.2077026,86.2086182l0,0
		h54.5787354l0,0C281.5728149,84.9689941,218.4178467,21.8133545,140.786377,21.8133545z"/>
	<circle class="st2" cx="140.7866211" cy="162.552124" r="30.7376709"/>
	<path class="st3" d="M226.9940796,162.6004028c0,15.0448608,12.2450256,27.1931152,27.2898865,27.1931152
		c15.0448914,0,27.2888489-12.1482544,27.2888489-27.1931152c0-15.0448914-12.2439575-27.2892151-27.2888489-27.2892151
		C239.2391052,135.3111877,226.9940796,147.5555115,226.9940796,162.6004028z"/>
</g>
</svg>
