<?xml version="1.0" encoding="utf-8"?>
<!-- Generator: Adobe Illustrator 23.0.6, SVG Export Plug-In . SVG Version: 6.00 Build 0)  -->
<svg version="1.1" id="Layer_1" xmlns="http://www.w3.org/2000/svg" xmlns:xlink="http://www.w3.org/1999/xlink" x="0px" y="0px"
	 viewBox="0 0 619.91 86.63" style="enable-background:new 0 0 619.91 86.63;" xml:space="preserve">
<style type="text/css">
	.st0{clip-path:url(#SVGID_2_);fill:#3397C1;}
	.st1{clip-path:url(#SVGID_2_);fill:#413960;}
</style>
<g>
	<defs>
		<rect id="SVGID_1_" width="619.91" height="86.63"/>
	</defs>
	<clipPath id="SVGID_2_">
		<use xlink:href="#SVGID_1_"  style="overflow:visible;"/>
	</clipPath>
	<path class="st0" d="M67.12,21.95H47.66L62.5,7.36c1.7-1.7,1.7-4.38,0-6.08c-1.7-1.7-4.38-1.7-6.08,0l-18.48,18l-8.75-9.48
		c-1.7-1.7-4.38-1.95-6.08-0.24c-1.7,1.7-1.7,4.38-0.24,6.08l5.84,6.32H10.46C4.62,21.95,0,26.57,0,32.16v44.26
		c0,5.59,4.62,10.21,10.46,10.21h56.42c5.84,0,10.46-4.62,10.46-10.21v-44.5C77.33,26.32,72.71,21.95,67.12,21.95 M68.82,76.42
		c0,0.97-0.73,1.7-1.95,1.7H10.46c-0.97,0-1.94-0.73-1.94-1.7v-44.5c0-0.97,0.73-1.7,1.94-1.7h56.42c0.97,0,1.95,0.73,1.95,1.7
		V76.42z"/>
	<path class="st1" d="M119.54,64.92h8c1.08,5.51,6.32,6.99,13.18,6.99c8,0,12.64-2.08,12.64-7.53c0-4.5-2.89-5.98-9.21-6.59
		l-7.6-0.67c-10.62-1.01-16.2-5.04-16.2-13.45c0-8.67,6.12-13.72,20.84-13.72c9.55,0,19.43,2.08,20.17,14.12h-8
		c-1.14-5.31-5.51-6.99-12.57-6.99c-7.87,0-11.7,2.08-11.7,6.59c0,4.17,3.23,5.72,9.28,6.32l7.53,0.67
		c10.89,1.01,16.27,4.71,16.27,13.58c0,9.35-6.32,14.79-22.12,14.79h-0.07C131.17,79.04,120.35,77.35,119.54,64.92"/>
	<path class="st1" d="M170.84,60.55c0-10.29,7.06-18.49,19.16-18.49c12.1,0,19.16,8.2,19.16,18.49c0,10.29-7.06,18.49-19.16,18.49
		C177.97,79.04,170.84,70.83,170.84,60.55 M200.9,60.55c0-6.39-3.97-11.03-10.89-11.03c-6.92,0-10.89,4.64-10.89,11.03
		c0,6.32,3.97,11.03,10.89,11.03C196.93,71.57,200.9,66.93,200.9,60.55"/>
	<path class="st1" d="M217.97,60.55c0.07-10.22,6.66-18.49,19.23-18.49c10.29,0,16.61,5.65,17.82,14.05h-8.2
		c-1.21-4.3-4.71-6.59-9.61-6.59c-6.99,0-10.96,4.64-10.96,11.03s3.97,11.03,10.96,11.03c4.91,0,8.4-2.29,9.61-6.59h8.2
		c-1.21,8.4-7.53,14.05-17.82,14.05C224.63,79.04,217.91,70.77,217.97,60.55"/>
	<path class="st1" d="M264.7,34.39c0-2.42,1.68-4.44,4.64-4.44c2.96,0,4.64,2.02,4.64,4.44c0,2.35-1.68,4.37-4.64,4.37
		C266.38,38.76,264.7,36.74,264.7,34.39"/>
	<rect x="265.17" y="43.06" class="st1" width="8.4" height="34.96"/>
	<path class="st1" d="M319.03,53.28v24.74h-7.19l-0.74-3.9l0.87-1.95c-3.5,4.71-9.82,6.86-15.87,6.86
		c-7.93,0-12.44-3.83-12.44-10.96c0-6.52,3.77-10.29,12.64-10.29h14.25v-3.56c0-4.03-2.35-5.78-8.74-5.78c-5.98,0-8.2,1.48-8.61,4.5
		h-7.46c-0.2-8.47,6.79-10.89,16.34-10.89C313.99,42.06,319.03,45.96,319.03,53.28 M299.46,72.58c4.37,0,8.61-1.61,11.09-3.83V63.1
		h-12.91c-3.5,0-5.45,1.48-5.45,4.57c0,3.03,1.95,4.91,6.45,4.91H299.46z"/>
	<rect x="330.73" y="30.29" class="st1" width="8.4" height="47.74"/>
	<path class="st1" d="M349.49,64.92h8c1.08,5.51,6.32,6.99,13.18,6.99c8,0,12.64-2.08,12.64-7.53c0-4.5-2.89-5.98-9.21-6.59
		l-7.6-0.67c-10.62-1.01-16.2-5.04-16.2-13.45c0-8.67,6.12-13.72,20.84-13.72c9.55,0,19.43,2.08,20.17,14.12h-8
		c-1.14-5.31-5.51-6.99-12.57-6.99c-7.87,0-11.7,2.08-11.7,6.59c0,4.17,3.23,5.72,9.28,6.32l7.53,0.67
		c10.89,1.01,16.27,4.71,16.27,13.58c0,9.35-6.32,14.79-22.12,14.79h-0.07C361.12,79.04,350.29,77.35,349.49,64.92"/>
	<path class="st1" d="M400.79,60.55c0.07-10.22,6.66-18.49,19.23-18.49c10.29,0,16.61,5.65,17.82,14.05h-8.2
		c-1.21-4.3-4.71-6.59-9.62-6.59c-6.99,0-10.96,4.64-10.96,11.03s3.97,11.03,10.96,11.03c4.91,0,8.4-2.29,9.62-6.59h8.2
		c-1.21,8.4-7.53,14.05-17.82,14.05C407.45,79.04,400.72,70.77,400.79,60.55"/>
	<path class="st1" d="M480.87,55.84v2.35H473v-0.74c0-4.91-2.35-8-7.73-8c-5.51,0-9.01,3.09-9.01,9.75v18.83h-8.4V43.06h8.14
		l0.27,5.11l-0.61,1.61c2.35-4.51,5.65-7.73,12.3-7.73C476.63,42.06,480.87,47.64,480.87,55.84"/>
	<path class="st1" d="M508.9,72.51c3.97,0,7.19-1.28,8.67-4.44h8.07c-1.75,6.25-8,10.96-17.35,10.96
		c-12.44,0-19.16-8.13-19.16-18.49c0-10.29,6.79-18.49,19.1-18.49c11.97,0,19.5,7.73,18.56,21.31h-29.18
		C498.48,69.02,502.11,72.51,508.9,72.51 M497.54,58.13h21.18c-1.01-6.86-4.64-9.75-10.49-9.75
		C501.71,48.38,498.21,51.94,497.54,58.13"/>
	<path class="st1" d="M555.43,72.51c3.97,0,7.2-1.28,8.67-4.44h8.07c-1.75,6.25-8,10.96-17.35,10.96
		c-12.44,0-19.16-8.13-19.16-18.49c0-10.29,6.79-18.49,19.1-18.49c11.97,0,19.5,7.73,18.56,21.31h-29.18
		C545.01,69.02,548.64,72.51,555.43,72.51 M544.07,58.13h21.18c-1.01-6.86-4.64-9.75-10.49-9.75
		C548.24,48.38,544.74,51.94,544.07,58.13"/>
	<path class="st1" d="M619.91,57.99v20.04h-8.4V59.6c0-6.66-3.09-10.15-9.35-10.15c-6.32,0-10.35,3.5-10.35,10.35v18.22h-8.4V43.06
		h8.14l0.27,5.11l-0.94,2.62c2.42-4.98,6.52-8.74,14.32-8.74C615.07,42.06,619.91,48.04,619.91,57.99"/>
</g>
</svg>
