<svg width="300" height="71" viewBox="0 0 300 71" fill="none" xmlns="http://www.w3.org/2000/svg">
<path d="M47.4511 22.7062V26.8768H20.667V22.7062H47.4511Z" fill="url(#paint0_linear_1612_2)"/>
<path d="M24.7451 26.8768V22.7062L26.784 26.8768H24.7451Z" fill="#681E56"/>
<path d="M20.667 4.07782H24.7448V43.3735H20.667V4.07782Z" fill="url(#paint1_linear_1612_2)"/>
<path fill-rule="evenodd" clip-rule="evenodd" d="M43.3735 4.07785H4.07785V43.3735H43.3735V4.07785ZM4.07785 0C1.82572 0 0 1.82572 0 4.07785V43.3735C0 45.6257 1.82572 47.4513 4.07785 47.4513H43.3735C45.6257 47.4513 47.4513 45.6257 47.4513 43.3735V4.07785C47.4513 1.82572 45.6257 0 43.3735 0H4.07785Z" fill="url(#paint2_linear_1612_2)"/>
<path d="M20.667 4.07782H24.7448L20.667 6.11674V4.07782Z" fill="#681E56"/>
<path d="M196.623 65.4442C196.44 65.4442 196.367 65.3344 196.44 65.1697L197.702 62.0035L194.262 53.3104C194.189 53.1092 194.262 52.9993 194.463 52.9993H195.635C195.781 52.9993 195.872 53.0725 195.927 53.219L198.525 60.1002L201.125 53.219C201.18 53.0725 201.29 52.9993 201.436 52.9993H202.589C202.789 52.9993 202.881 53.1092 202.808 53.3104L198.068 65.2245C198.014 65.371 197.903 65.4442 197.757 65.4442H196.623Z" fill="#2B2B2B"/>
<path d="M188.782 62.1852C187.246 62.1852 186.129 61.4897 185.47 60.3732L185.434 61.7093C185.434 61.874 185.361 61.9655 185.196 61.9655H184.135C183.97 61.9655 183.878 61.874 183.878 61.7093V49.1363C183.878 48.9716 183.97 48.8801 184.135 48.8801H185.288C185.453 48.8801 185.543 48.9716 185.543 49.1363V54.5169C186.184 53.4371 187.301 52.7783 188.782 52.7783C191.364 52.7783 193.157 54.8096 193.157 57.4816C193.157 60.1719 191.364 62.1852 188.782 62.1852ZM185.506 57.5C185.506 59.4033 186.732 60.6661 188.491 60.6661C190.265 60.6661 191.546 59.385 191.546 57.4816C191.546 55.5967 190.265 54.2973 188.491 54.2973C186.732 54.2973 185.506 55.5967 185.506 57.5Z" fill="#2B2B2B"/>
<path d="M215.813 63.3723C214.286 63.3723 212.792 62.9193 211.521 62.0703C210.25 61.2215 209.261 60.0149 208.676 58.6033C208.091 57.1918 207.938 55.6385 208.237 54.1399C208.534 52.6412 209.271 51.2647 210.351 50.1843C211.431 49.1039 212.807 48.3681 214.306 48.0701C215.805 47.772 217.358 47.9249 218.769 48.5097C220.181 49.0944 221.388 50.0845 222.237 51.355C223.086 52.6254 223.539 54.119 223.539 55.647C223.535 57.6948 222.72 59.6578 221.272 61.1058C219.824 62.5538 217.861 63.3689 215.813 63.3723ZM215.813 48.5445C214.409 48.5445 213.035 48.961 211.868 49.7415C210.699 50.5219 209.789 51.6311 209.251 52.929C208.714 54.2268 208.573 55.6549 208.847 57.0326C209.122 58.4104 209.798 59.6759 210.791 60.6692C211.784 61.6626 213.05 62.3389 214.427 62.6131C215.806 62.8871 217.234 62.7464 218.531 62.2088C219.83 61.6713 220.939 60.761 221.719 59.593C222.499 58.4249 222.916 57.0517 222.916 55.647C222.916 54.7143 222.732 53.7906 222.376 52.929C222.018 52.0673 221.495 51.2843 220.835 50.6247C220.176 49.9652 219.393 49.4421 218.531 49.0852C217.669 48.7282 216.746 48.5445 215.813 48.5445Z" fill="#2B2B2B"/>
<path fill-rule="evenodd" clip-rule="evenodd" d="M221.469 59.4356C222.218 58.3143 222.618 56.996 222.618 55.6474C222.618 53.8393 221.899 52.1053 220.621 50.8268C219.342 49.5482 217.608 48.8296 215.799 48.829C214.451 48.829 213.133 49.229 212.012 49.9782C210.89 50.7274 210.016 51.7923 209.5 53.0382C208.984 54.2841 208.85 55.655 209.113 56.9777C209.375 58.3002 210.025 59.5153 210.978 60.4688C211.932 61.4224 213.147 62.0718 214.47 62.3349C215.792 62.5979 217.163 62.4629 218.408 61.9469C219.655 61.4308 220.72 60.5569 221.469 59.4356ZM210.926 52.8712H220.695V55.9198H217.975L213.757 59.635V55.9198H210.926V52.8712Z" fill="#2B2B2B"/>
<path d="M233.242 61.7772C233.331 61.8634 233.401 61.9672 233.448 62.0819C233.495 62.1966 233.517 62.3198 233.515 62.4438V62.4656C233.514 62.7115 233.415 62.947 233.242 63.1212C233.159 63.2116 233.058 63.2834 232.945 63.3324C232.831 63.3813 232.709 63.4061 232.587 63.4053H231.767C231.383 63.4098 231.002 63.3366 230.647 63.1902C230.292 63.0438 229.97 62.827 229.702 62.553C229.426 62.2868 229.21 61.9672 229.063 61.6139C228.917 61.2607 228.844 60.8812 228.849 60.4988V54.1284H227.8C227.554 54.1269 227.319 54.0288 227.145 53.8552C227.056 53.7711 226.986 53.6693 226.938 53.5564C226.892 53.4434 226.869 53.3219 226.871 53.1996V53.1777C226.873 52.9285 226.97 52.6895 227.145 52.5111C227.228 52.4209 227.329 52.349 227.442 52.3C227.555 52.2511 227.678 52.2263 227.8 52.2271H228.849V48.9599C228.851 48.7107 228.948 48.4718 229.122 48.2934C229.207 48.2061 229.31 48.1375 229.423 48.0923C229.536 48.0472 229.656 48.0263 229.778 48.0311H229.811C230.056 48.0285 230.291 48.1227 230.466 48.2934C230.555 48.3802 230.625 48.4841 230.671 48.5986C230.718 48.7133 230.742 48.8361 230.74 48.9599V52.1833H230.816V52.2162H232.587C232.709 52.2163 232.831 52.2417 232.944 52.2906C233.056 52.3394 233.158 52.4108 233.242 52.5003C233.33 52.5871 233.4 52.6909 233.447 52.8055C233.494 52.9201 233.517 53.0429 233.515 53.1668V53.1886C233.514 53.4346 233.415 53.6701 233.242 53.8442C233.158 53.9331 233.056 54.0034 232.943 54.0504C232.831 54.0975 232.708 54.1203 232.587 54.1174H230.816V54.1612H230.74V60.477C230.737 60.6093 230.762 60.7407 230.813 60.863C230.863 60.9853 230.939 61.0957 231.034 61.1871C231.128 61.2845 231.24 61.3618 231.363 61.4145C231.488 61.467 231.621 61.4938 231.755 61.4932H232.575C232.824 61.5055 233.06 61.6063 233.242 61.7772Z" fill="#2B2B2B"/>
<path d="M238.486 53.2212C237.811 53.2175 237.143 53.3476 236.52 53.6039C235.897 53.8601 235.33 54.2374 234.853 54.7141C234.377 55.1906 234 55.7571 233.743 56.3805C233.486 57.0039 233.357 57.6719 233.36 58.3459C233.36 61.1978 235.633 63.3286 238.486 63.3286C239.643 63.3286 240.616 63.0554 241.49 62.3123C241.49 62.8915 242.058 63.3286 242.462 63.3286C242.597 63.3332 242.732 63.31 242.857 63.2605C242.982 63.2111 243.096 63.1364 243.192 63.0411C243.286 62.9459 243.361 62.832 243.41 62.7066C243.46 62.5812 243.484 62.4471 243.479 62.3123V58.335C243.468 55.494 241.337 53.2212 238.486 53.2212ZM238.486 61.3399C236.78 61.3399 235.338 60.0505 235.338 58.335C235.349 57.5039 235.685 56.71 236.272 56.1222C236.86 55.5345 237.654 55.1993 238.486 55.188C240.19 55.188 241.49 56.6413 241.49 58.3459C241.49 60.0505 240.19 61.3399 238.486 61.3399Z" fill="#2B2B2B"/>
<path d="M250.175 53.1771C248.825 53.1771 247.53 53.7136 246.575 54.6685C245.62 55.6235 245.084 56.9186 245.084 58.2691C245.084 59.6196 245.62 60.9148 246.575 61.8696C247.53 62.8246 248.825 63.3611 250.175 63.3611C251.288 63.3459 252.367 62.9787 253.256 62.3121V63.4266C253.242 64.1199 252.996 64.7883 252.556 65.3242C252.116 65.8602 251.508 66.2325 250.83 66.3813C250.153 66.5301 249.445 66.4468 248.822 66.1448C248.197 65.8427 247.693 65.3395 247.389 64.716C247.267 64.4817 247.058 64.304 246.808 64.2204C246.557 64.1368 246.283 64.154 246.045 64.268C245.925 64.3239 245.817 64.4035 245.728 64.502C245.639 64.6003 245.57 64.7155 245.526 64.8408C245.483 64.9661 245.465 65.0989 245.472 65.2313C245.481 65.3638 245.516 65.4932 245.575 65.6121C245.992 66.4728 246.645 67.1977 247.457 67.7024C248.269 68.2072 249.208 68.4713 250.165 68.464C251.513 68.4588 252.806 67.9206 253.76 66.9668C254.713 66.013 255.251 64.7209 255.256 63.372V58.28C255.245 55.4609 252.962 53.1771 250.175 53.1771ZM250.175 61.3396C249.566 61.3396 248.97 61.1589 248.463 60.8202C247.956 60.4817 247.561 60.0004 247.329 59.4374C247.095 58.8743 247.034 58.2548 247.153 57.657C247.272 57.0593 247.566 56.5102 247.996 56.0793C248.427 55.6483 248.976 55.3549 249.574 55.236C250.172 55.1171 250.792 55.1781 251.355 55.4113C251.917 55.6445 252.399 56.0395 252.737 56.5463C253.076 57.053 253.256 57.6487 253.256 58.2581C253.254 59.0745 252.928 59.8566 252.351 60.4338C251.774 61.0111 250.992 61.3367 250.175 61.3396Z" fill="#2B2B2B"/>
<path d="M261.728 53.1432C260.617 53.142 259.536 53.5025 258.648 54.1702V49.122C258.648 48.8554 258.542 48.5997 258.353 48.4112C258.165 48.2227 257.909 48.1168 257.642 48.1168C257.375 48.1168 257.12 48.2227 256.931 48.4112C256.743 48.5997 256.637 48.8554 256.637 49.122V58.2242C256.637 60.9996 258.921 63.3162 261.718 63.3162C262.387 63.3164 263.049 63.185 263.666 62.9291C264.285 62.6733 264.846 62.2983 265.32 61.8254C265.791 61.3525 266.167 60.791 266.423 60.1731C266.678 59.5552 266.81 58.8929 266.81 58.2242C266.816 57.5553 266.689 56.892 266.435 56.2728C266.182 55.6538 265.807 55.0914 265.336 54.6183C264.862 54.1454 264.299 53.7714 263.68 53.5181C263.061 53.2648 262.398 53.1373 261.728 53.1432ZM261.728 61.3056C261.12 61.3056 260.524 61.1249 260.017 60.7863C259.51 60.4477 259.115 59.9664 258.882 59.4034C258.649 58.8403 258.588 58.2208 258.706 57.623C258.826 57.0253 259.12 56.4763 259.55 56.0453C259.981 55.6144 260.53 55.3208 261.128 55.202C261.726 55.0831 262.346 55.1441 262.908 55.3774C263.471 55.6105 263.953 56.0055 264.291 56.5123C264.629 57.019 264.81 57.6147 264.81 58.2242C264.811 58.629 264.731 59.0298 264.576 59.404C264.423 59.7779 264.195 60.1178 263.909 60.4041C263.623 60.6903 263.283 60.9172 262.909 61.0719C262.535 61.2266 262.133 61.306 261.728 61.3056Z" fill="#2B2B2B"/>
<path d="M273.211 53.1771C272.204 53.1771 271.22 53.4757 270.383 54.0352C269.545 54.5948 268.893 55.3901 268.507 56.3205C268.121 57.2509 268.02 58.2747 268.217 59.2625C268.413 60.2502 268.899 61.1576 269.611 61.8696C270.323 62.5818 271.23 63.0667 272.218 63.2632C273.206 63.4597 274.23 63.3589 275.159 62.9734C276.09 62.5881 276.885 61.9354 277.445 61.098C278.005 60.2607 278.303 59.2762 278.303 58.2691C278.301 56.9191 277.765 55.6248 276.81 54.6701C275.855 53.7156 274.562 53.1786 273.211 53.1771ZM273.211 61.3396C272.602 61.3396 272.006 61.1589 271.5 60.8202C270.993 60.4817 270.597 60.0004 270.364 59.4374C270.131 58.8743 270.07 58.2548 270.189 57.657C270.308 57.0593 270.601 56.5102 271.032 56.0793C271.463 55.6483 272.012 55.3549 272.61 55.236C273.208 55.1171 273.827 55.1781 274.39 55.4113C274.954 55.6445 275.435 56.0395 275.774 56.5463C276.112 57.053 276.293 57.6487 276.293 58.2581C276.289 59.0745 275.964 59.8566 275.387 60.4338C274.809 61.0111 274.028 61.3367 273.211 61.3396Z" fill="#2B2B2B"/>
<path d="M284.692 58.2688L287.369 54.7941C287.45 54.6887 287.51 54.5683 287.545 54.4398C287.579 54.3113 287.588 54.1773 287.571 54.0453C287.554 53.9133 287.51 53.7862 287.444 53.6709C287.378 53.5556 287.29 53.4546 287.184 53.3737C287.081 53.2914 286.964 53.2307 286.837 53.1954C286.711 53.1601 286.579 53.1509 286.45 53.1683C286.319 53.1857 286.195 53.2293 286.083 53.2966C285.97 53.3637 285.873 53.4532 285.796 53.5594L283.424 56.6189L281.053 53.5594C280.975 53.4537 280.876 53.3649 280.763 53.2982C280.649 53.2315 280.523 53.1881 280.393 53.1709C280.263 53.1535 280.13 53.1625 280.004 53.1974C279.877 53.2321 279.758 53.2921 279.655 53.3737C279.549 53.4545 279.46 53.5555 279.393 53.6707C279.328 53.786 279.284 53.9133 279.266 54.0452C279.25 54.1773 279.258 54.3114 279.293 54.4399C279.328 54.5684 279.388 54.6888 279.469 54.7941L282.146 58.2688L279.469 61.7436C279.388 61.8469 279.328 61.9656 279.293 62.0924C279.258 62.2193 279.249 62.3519 279.266 62.4822C279.283 62.6127 279.327 62.7383 279.393 62.8517C279.46 62.965 279.549 63.0638 279.655 63.1423C279.757 63.225 279.874 63.2864 280 63.323C280.127 63.3596 280.258 63.3705 280.389 63.3552C280.519 63.3399 280.645 63.2987 280.76 63.234C280.874 63.1693 280.974 63.0825 281.053 62.9785L283.424 59.9189L285.796 62.9785C285.89 63.0967 286.01 63.1925 286.146 63.2586C286.281 63.3248 286.431 63.3598 286.583 63.3609C286.802 63.3599 287.014 63.2827 287.184 63.1423C287.29 63.0638 287.378 62.965 287.444 62.8517C287.511 62.7383 287.555 62.6127 287.572 62.4822C287.589 62.3519 287.581 62.2193 287.545 62.0924C287.51 61.9656 287.451 61.8469 287.369 61.7436L284.692 58.2688Z" fill="#2B2B2B"/>
<path d="M279.863 38.8194C276.426 38.8194 273.935 37.23 272.474 35.4688C272.217 35.168 272.217 34.7385 272.517 34.309L273.634 32.7626C273.935 32.333 274.321 32.3759 274.665 32.6767C276.211 34.0083 277.715 34.8674 279.648 34.8674C281.538 34.8674 282.87 34.0942 282.87 32.4189C282.87 30.9584 281.882 30.2711 280.164 29.5408L277.586 28.5098C274.923 27.436 272.903 25.7177 272.903 22.7538C272.903 18.9736 276.126 16.7399 279.863 16.7399C282.44 16.7399 284.846 17.8137 286.478 19.8327C286.736 20.1334 286.693 20.477 286.435 20.7348L285.104 22.3242C284.76 22.7108 284.46 22.6679 284.072 22.3242C282.741 21.0784 281.452 20.477 280.078 20.477C278.446 20.477 277.329 21.2933 277.329 22.7108C277.329 24.1713 278.446 24.8157 280.078 25.46L282.612 26.4909C285.319 27.5648 287.466 29.3261 287.466 32.5477C287.423 36.6716 283.901 38.8194 279.863 38.8194Z" fill="#2B2B2B"/>
<path d="M263.359 38.3039C262.973 38.3039 262.758 38.0461 262.758 37.6596V8.23456C262.758 7.84795 262.973 7.59021 263.359 7.59021H266.796C267.182 7.59021 267.397 7.84795 267.397 8.23456V37.6596C267.397 38.0461 267.182 38.3039 266.796 38.3039H263.359Z" fill="#2B2B2B"/>
<path d="M252.956 38.3039C252.57 38.3039 252.354 38.0461 252.354 37.6596V8.23456C252.354 7.84795 252.57 7.59021 252.956 7.59021H256.392C256.779 7.59021 256.994 7.84795 256.994 8.23456V37.6596C256.994 38.0461 256.779 38.3039 256.392 38.3039H252.956Z" fill="#2B2B2B"/>
<path d="M234.739 38.8194C228.725 38.8194 224.601 34.0513 224.601 27.7796C224.601 21.551 228.725 16.7399 234.739 16.7399C238.218 16.7399 240.709 18.2863 242.17 20.7348L242.256 17.8996C242.256 17.5131 242.471 17.2553 242.857 17.2553H245.994C246.38 17.2553 246.594 17.5131 246.594 17.8996V37.6595C246.594 38.0462 246.38 38.3039 245.994 38.3039H242.857C242.471 38.3039 242.256 38.0462 242.256 37.6595L242.17 34.8674C240.666 37.3159 238.175 38.8194 234.739 38.8194ZM229.111 27.7796C229.111 31.8604 231.86 34.5667 235.64 34.5667C239.378 34.5667 241.998 31.8604 241.998 27.8225C241.998 23.7417 239.378 20.9925 235.64 20.9925C231.86 20.9925 229.111 23.7417 229.111 27.7796Z" fill="#2B2B2B"/>
<path d="M191.559 38.3028C191.172 38.3028 190.871 38.131 190.786 37.7874L182.066 8.96378C181.937 8.53422 182.108 8.23352 182.581 8.23352H186.233C186.576 8.23352 186.877 8.36239 186.962 8.749L193.664 31.8165L200.923 8.749C201.052 8.36239 201.267 8.23352 201.653 8.23352H205.219C205.605 8.23352 205.82 8.36239 205.949 8.749L213.209 31.8165L219.91 8.749C220.039 8.36239 220.297 8.23352 220.64 8.23352H224.291C224.764 8.23352 224.936 8.53422 224.807 8.96378L216.087 37.7874C216.001 38.131 215.7 38.3028 215.313 38.3028H211.448C211.104 38.3028 210.76 38.131 210.675 37.7874L203.458 14.2474L196.198 37.7874C196.112 38.131 195.768 38.3028 195.425 38.3028H191.559Z" fill="#2B2B2B"/>
<path d="M164.82 38.3039C164.434 38.3039 164.22 38.0461 164.22 37.6596V8.23456C164.22 7.84795 164.434 7.59021 164.82 7.59021H168.257C168.644 7.59021 168.858 7.84795 168.858 8.23456V37.6596C168.858 38.0461 168.644 38.3039 168.257 38.3039H164.82Z" fill="#2B2B2B"/>
<path d="M146.602 38.8194C140.588 38.8194 136.465 34.0513 136.465 27.7796C136.465 21.551 140.588 16.7399 146.602 16.7399C150.082 16.7399 152.573 18.2863 154.034 20.7348L154.12 17.8996C154.12 17.5131 154.334 17.2553 154.721 17.2553H157.857C158.243 17.2553 158.458 17.5131 158.458 17.8996V37.6595C158.458 38.0462 158.243 38.3039 157.857 38.3039H154.721C154.334 38.3039 154.12 38.0462 154.12 37.6595L154.034 34.8674C152.531 37.3159 150.039 38.8194 146.602 38.8194ZM140.976 27.7796C140.976 31.8604 143.724 34.5667 147.505 34.5667C151.241 34.5667 153.862 31.8604 153.862 27.8225C153.862 23.7417 151.241 20.9925 147.505 20.9925C143.724 20.9925 140.976 23.7417 140.976 27.7796Z" fill="#2B2B2B"/>
<path d="M129.456 12.7445C127.91 12.7445 126.75 11.5417 126.75 10.0383C126.75 8.57777 127.91 7.375 129.456 7.375C130.959 7.375 132.12 8.57777 132.12 10.0383C132.12 11.5417 130.959 12.7445 129.456 12.7445ZM127.094 37.6591V17.8993C127.094 17.5126 127.309 17.2549 127.695 17.2549H131.174C131.561 17.2549 131.776 17.5126 131.776 17.8993V37.6591C131.776 38.0457 131.561 38.3034 131.174 38.3034H127.695C127.309 38.3034 127.094 38.0457 127.094 37.6591Z" fill="#2B2B2B"/>
<path d="M114.239 38.8194C107.925 38.8194 103.199 34.0513 103.199 27.7366C103.199 21.4651 107.881 16.7399 114.153 16.7399C117.589 16.7399 120.382 18.1574 122.186 20.3911C122.444 20.7348 122.444 21.0355 122.186 21.2933L120.253 23.1403C119.909 23.484 119.48 23.3981 119.222 23.0974C117.976 21.8516 116.559 21.0355 114.368 21.0355C110.416 21.0355 107.666 23.8706 107.666 27.7366C107.666 31.6027 110.416 34.5237 114.454 34.5237C116.601 34.5237 118.019 33.7076 119.222 32.4618C119.523 32.1612 119.953 32.0753 120.296 32.4189L122.229 34.266C122.487 34.5237 122.487 34.8244 122.229 35.168C120.424 37.4018 117.633 38.8194 114.239 38.8194Z" fill="#2B2B2B"/>
<path d="M88.7312 38.8194C82.4595 38.8194 77.8203 34.0083 77.8203 27.7796C77.8203 21.551 82.4595 16.7399 88.7312 16.7399C94.9596 16.7399 99.5991 21.551 99.5991 27.7796C99.5991 34.0083 94.9596 38.8194 88.7312 38.8194ZM82.2878 27.7796C82.2878 31.8175 85.0799 34.5237 88.7312 34.5237C92.3395 34.5237 95.132 31.8175 95.132 27.7796C95.132 23.7417 92.3395 21.0355 88.7312 21.0355C85.0799 21.0355 82.2878 23.7417 82.2878 27.7796Z" fill="#2B2B2B"/>
<path d="M64.1665 38.8182C59.6562 38.8182 56.5204 36.6704 54.8021 34.2219C54.5873 33.9213 54.5873 33.6206 54.888 33.2769L56.6922 31.215C57.0359 30.8284 57.3795 30.8713 57.6802 31.1721C59.4414 33.191 61.2885 34.3938 64.1236 34.3938C67.2594 34.3938 69.1924 32.8903 69.1924 30.2699C69.1924 27.6926 67.3024 26.6617 64.7679 25.4589L61.1167 23.7407C57.9379 22.2371 55.4035 19.9605 55.4035 15.9226C55.4035 10.8537 59.3555 7.88977 64.2524 7.88977C67.7749 7.88977 70.5241 9.3073 72.7148 11.7988C73.0585 12.1424 73.0156 12.4432 72.7148 12.7868L70.9536 14.8916C70.6529 15.2783 70.3093 15.2783 69.9656 14.9775C68.2044 13.2163 66.5721 12.3142 64.4243 12.3142C61.8899 12.3142 60.0857 13.6029 60.0857 15.9226C60.0857 17.8986 61.2885 18.8865 63.78 20.0893L67.0876 21.6357C70.4811 23.2681 73.8747 25.33 73.8747 30.2699C73.8747 35.8972 69.4072 38.8182 64.1665 38.8182Z" fill="#2B2B2B"/>
<defs>
<linearGradient id="paint0_linear_1612_2" x1="23.7254" y1="2.75506e-05" x2="23.7254" y2="47.4514" gradientUnits="userSpaceOnUse">
<stop stop-color="#9248B2"/>
<stop offset="1" stop-color="#BC5798"/>
</linearGradient>
<linearGradient id="paint1_linear_1612_2" x1="23.7254" y1="1.19713" x2="23.7254" y2="46.2542" gradientUnits="userSpaceOnUse">
<stop stop-color="#9C43AC"/>
<stop offset="1" stop-color="#E4707D"/>
</linearGradient>
<linearGradient id="paint2_linear_1612_2" x1="47.4513" y1="-0.130069" x2="-5.42525e-08" y2="47.3213" gradientUnits="userSpaceOnUse">
<stop stop-color="#4A66D6"/>
<stop offset="0.479167" stop-color="#CE2E93"/>
<stop offset="1" stop-color="#F9B161"/>
</linearGradient>
</defs>
</svg>
