<?xml version="1.0" encoding="UTF-8" standalone="no"?>
<svg xmlns="http://www.w3.org/2000/svg" xmlns:cc="http://creativecommons.org/ns#" xmlns:dc="http://purl.org/dc/elements/1.1/" xmlns:rdf="http://www.w3.org/1999/02/22-rdf-syntax-ns#" xmlns:svg="http://www.w3.org/2000/svg" id="svg2" version="1.1" viewBox="0 0 1692.5 217.5" xml:space="preserve">
    <g id="g10" transform="matrix(1.25,0,0,-1.25,0,217.5)">
        <g id="g16">
            <path id="path22" d="m 278.328,41.4648 4.477,0 0,-40.99605 -3.668,0 -24.711,32.96875 0,-32.96875 -4.477,0 0,40.99605 3.664,0 24.715,-32.98042 0,32.98042" style="fill:#2056ae;fill-opacity:1;fill-rule:nonzero;stroke:none"/>
            <path id="path24" d="m 302.895,29.5703 c 0.906,0.9492 1.367,2.168 1.367,3.6328 0,1.4766 -0.461,2.6875 -1.367,3.6446 -0.915,0.9336 -2.063,1.414 -3.457,1.414 -1.399,0 -2.559,-0.4804 -3.489,-1.414 -0.933,-0.9571 -1.402,-2.168 -1.402,-3.6446 0,-1.4648 0.469,-2.6836 1.402,-3.6328 0.93,-0.957 2.09,-1.4258 3.489,-1.4258 1.394,0 2.542,0.4688 3.457,1.4258 z m -7.821,-3.75 c -1.32,0.7422 -2.355,1.7461 -3.113,3.0469 -0.758,1.3086 -1.129,2.7539 -1.129,4.3359 0,1.6328 0.371,3.0977 1.129,4.3867 0.758,1.2969 1.793,2.3204 3.113,3.0547 1.317,0.7422 2.77,1.1133 4.364,1.1133 1.589,0 3.031,-0.3711 4.324,-1.1133 1.304,-0.7343 2.328,-1.7578 3.086,-3.0547 0.757,-1.289 1.136,-2.7539 1.136,-4.3867 0,-1.582 -0.379,-3.0273 -1.136,-4.3359 -0.758,-1.3008 -1.782,-2.3047 -3.086,-3.0469 -1.293,-0.7305 -2.735,-1.1015 -4.324,-1.1015 -1.594,0 -3.047,0.371 -4.364,1.1015" style="fill:#2056ae;fill-opacity:1;fill-rule:nonzero;stroke:none"/>
            <path id="path26" d="m 329.672,4.48047 9.008,0 0,-4.01172 -22.789,0 0,4.01172 9.011,0 0,31.04683 -7.211,-4.5312 -2.207,3.6602 10.754,6.8085 3.434,0 0,-36.98433" style="fill:#2056ae;fill-opacity:1;fill-rule:nonzero;stroke:none"/>
            <path id="path28" d="m 369.09,0.46875 4.76563,0 0,40.9961 -4.76563,0 0,-40.9961 z" style="fill:#2056ae;fill-opacity:1;fill-rule:nonzero;stroke:none"/>
            <path id="path30" d="m 413.23,41.4648 4.477,0 0,-40.99605 -3.668,0 -24.711,32.96875 0,-32.96875 -4.476,0 0,40.99605 3.66,0 24.718,-32.98042 0,32.98042" style="fill:#2056ae;fill-opacity:1;fill-rule:nonzero;stroke:none"/>
            <path id="path32" d="m 462.707,4.53906 c 10.625,0 15.934,5.48044 15.934,16.45704 0,10.9375 -5.309,16.3984 -15.934,16.3984 l -8.727,0 0,-32.85544 8.727,0 z m -13.492,36.92574 13.785,0 c 6.547,0 11.617,-1.7773 15.203,-5.3203 3.586,-3.5547 5.379,-8.5937 5.379,-15.1484 0,-6.5547 -1.793,-11.60938 -5.379,-15.17579 C 474.617,2.25781 469.547,0.46875 463,0.46875 l -13.785,0 0,40.99605" style="fill:#2056ae;fill-opacity:1;fill-rule:nonzero;stroke:none"/>
            <path id="path34" d="m 493.063,0.46875 4.76563,0 0,40.9961 -4.76563,0 0,-40.9961 z" style="fill:#2056ae;fill-opacity:1;fill-rule:nonzero;stroke:none"/>
            <path id="path36" d="m 541.262,21.8086 0,-18.95704 C 539.637,2.00391 537.512,1.31641 534.895,0.789063 532.281,0.265625 529.637,0 526.961,0 c -4.066,0 -7.578,0.839844 -10.527,2.51172 -2.946,1.66016 -5.207,4.05859 -6.774,7.20703 -1.566,3.13285 -2.351,6.89065 -2.351,11.27735 0,4.3359 0.773,8.0742 2.324,11.2227 1.547,3.1406 3.777,5.5351 6.683,7.207 2.911,1.668 6.34,2.5078 10.293,2.5078 2.871,0 5.508,-0.4414 7.911,-1.3203 2.402,-0.8672 4.457,-2.1563 6.168,-3.8555 l -1.809,-3.6719 c -1.977,1.711 -3.926,2.9297 -5.84,3.6719 -1.926,0.7305 -4.066,1.0938 -6.43,1.0938 -4.617,0 -8.16,-1.4453 -10.64,-4.3555 -2.481,-2.9102 -3.723,-7.0703 -3.723,-12.5 0,-5.5469 1.258,-9.7578 3.781,-12.65626 2.52,-2.8789 6.203,-4.32421 11.051,-4.32421 3.524,0 6.801,0.52343 9.824,1.57031 l 0,12.49996 -10.175,0 0,3.7227 14.535,0" style="fill:#2056ae;fill-opacity:1;fill-rule:nonzero;stroke:none"/>
            <path id="path38" d="m 552.078,0.46875 4.76563,0 0,40.9961 -4.76563,0 0,-40.9961 z" style="fill:#2056ae;fill-opacity:1;fill-rule:nonzero;stroke:none"/>
            <path id="path40" d="m 578.129,0.46875 0,36.92575 -14.25,0 0,4.0703 33.379,0 0,-4.0703 -14.301,0 0,-36.92575 -4.828,0" style="fill:#2056ae;fill-opacity:1;fill-rule:nonzero;stroke:none"/>
            <path id="path42" d="m 605.637,14.9492 18.023,0 -9.015,20.9883 -9.008,-20.9883 z m 24.242,-14.48045 -4.531,10.52735 -21.403,0 -4.535,-10.52735 -4.883,0 18.028,40.99605 4.129,0 18.027,-40.99605 -4.832,0" style="fill:#2056ae;fill-opacity:1;fill-rule:nonzero;stroke:none"/>
            <path id="path44" d="m 640.691,0.46875 0,40.99605 4.77,0 0,-36.92574 20.523,0 0,-4.07031 -25.293,0" style="fill:#2056ae;fill-opacity:1;fill-rule:nonzero;stroke:none"/>
            <path id="path46" d="m 691.746,5.17578 1.859,3.66406 c 2.012,-1.69921 4.083,-2.92187 6.192,-3.66406 2.113,-0.73437 4.566,-1.10547 7.359,-1.10547 3.293,0 5.832,0.64844 7.617,1.92578 1.782,1.27735 2.676,3.07422 2.676,5.41021 0,1.3476 -0.429,2.4492 -1.285,3.3125 -0.848,0.8476 -1.976,1.5312 -3.367,2.0273 -1.399,0.5117 -3.277,1.0273 -5.641,1.5742 -3.183,0.7344 -5.789,1.5156 -7.824,2.3242 -2.035,0.8203 -3.684,1.9727 -4.941,3.4883 -1.262,1.5117 -1.887,3.4844 -1.887,5.9336 0,2.3281 0.605,4.3867 1.828,6.1953 1.223,1.7969 2.965,3.1914 5.234,4.1875 2.266,0.9883 4.895,1.4844 7.879,1.4844 2.832,0 5.477,-0.4492 7.938,-1.3477 2.461,-0.8906 4.547,-2.1679 6.25,-3.8281 l -1.801,-3.6719 c -1.937,1.6719 -3.91,2.8829 -5.902,3.6446 -2,0.75 -4.157,1.1211 -6.485,1.1211 -3.179,0 -5.672,-0.6641 -7.472,-2 -1.809,-1.3399 -2.703,-3.2149 -2.703,-5.6094 0,-2.0586 0.793,-3.6016 2.386,-4.6563 1.586,-1.0468 3.989,-1.9414 7.207,-2.6757 3.532,-0.8477 6.297,-1.6329 8.317,-2.3516 2.015,-0.7148 3.687,-1.7969 5.027,-3.2227 1.34,-1.4375 2.008,-3.3593 2.008,-5.7656 0,-2.32421 -0.61,-4.35155 -1.832,-6.10155 C 719.16,3.72266 717.41,2.38281 715.117,1.42578 712.836,0.480469 710.156,0 707.098,0 700.695,0 695.582,1.73047 691.746,5.17578" style="fill:#2056ae;fill-opacity:1;fill-rule:nonzero;stroke:none"/>
            <path id="path48" d="m 731.168,0.46875 4.76563,0 0,40.9961 -4.76563,0 0,-40.9961 z" style="fill:#2056ae;fill-opacity:1;fill-rule:nonzero;stroke:none"/>
            <path id="path50" d="m 778.738,21.8086 0,-18.95704 C 777.098,2.00391 774.977,1.31641 772.363,0.789063 769.754,0.265625 767.105,0 764.43,0 c -4.067,0 -7.578,0.839844 -10.528,2.51172 -2.941,1.66016 -5.203,4.05859 -6.769,7.20703 -1.574,3.13285 -2.356,6.89065 -2.356,11.27735 0,4.3359 0.774,8.0742 2.325,11.2227 1.546,3.1406 3.781,5.5351 6.683,7.207 2.91,1.668 6.344,2.5078 10.293,2.5078 2.871,0 5.508,-0.4414 7.91,-1.3203 2.403,-0.8672 4.465,-2.1563 6.164,-3.8555 l -1.797,-3.6719 c -1.984,1.711 -3.929,2.9297 -5.851,3.6719 -1.918,0.7305 -4.063,1.0938 -6.426,1.0938 -4.613,0 -8.156,-1.4453 -10.637,-4.3555 -2.48,-2.9102 -3.722,-7.0703 -3.722,-12.5 0,-5.5469 1.254,-9.7578 3.777,-12.65626 2.524,-2.8789 6.203,-4.32421 11.051,-4.32421 3.523,0 6.805,0.52343 9.824,1.57031 l 0,12.49996 -10.176,0 0,3.7227 14.543,0" style="fill:#2056ae;fill-opacity:1;fill-rule:nonzero;stroke:none"/>
            <path id="path52" d="m 817.164,41.4648 4.492,0 0,-40.99605 -3.672,0 -24.714,32.96875 0,-32.96875 -4.473,0 0,40.99605 3.66,0 24.707,-32.98042 0,32.98042" style="fill:#2056ae;fill-opacity:1;fill-rule:nonzero;stroke:none"/>
            <path id="path54" d="m 838.855,14.9492 18.016,0 -9.004,20.9883 -9.012,-20.9883 z m 24.247,-14.48045 -4.539,10.52735 -21.399,0 -4.531,-10.52735 -4.891,0 18.035,40.99605 4.121,0 18.028,-40.99605 -4.824,0" style="fill:#2056ae;fill-opacity:1;fill-rule:nonzero;stroke:none"/>
            <path id="path56" d="m 903.629,21.8086 0,-18.95704 C 902,2.00391 899.879,1.31641 897.262,0.789063 894.645,0.265625 892,0 889.324,0 c -4.062,0 -7.578,0.839844 -10.519,2.51172 -2.95,1.66016 -5.203,4.05859 -6.778,7.20703 -1.57,3.13285 -2.351,6.89065 -2.351,11.27735 0,4.3359 0.769,8.0742 2.324,11.2227 1.551,3.1406 3.777,5.5351 6.688,7.207 2.91,1.668 6.339,2.5078 10.292,2.5078 2.864,0 5.5,-0.4414 7.903,-1.3203 2.41,-0.8672 4.461,-2.1563 6.16,-3.8555 l -1.797,-3.6719 c -1.973,1.711 -3.926,2.9297 -5.84,3.6719 -1.922,0.7305 -4.062,1.0938 -6.426,1.0938 -4.617,0 -8.164,-1.4453 -10.644,-4.3555 -2.481,-2.9102 -3.719,-7.0703 -3.719,-12.5 0,-5.5469 1.258,-9.7578 3.778,-12.65626 2.519,-2.8789 6.203,-4.32421 11.046,-4.32421 3.524,0 6.805,0.52343 9.832,1.57031 l 0,12.49996 -10.175,0 0,3.7227 14.531,0" style="fill:#2056ae;fill-opacity:1;fill-rule:nonzero;stroke:none"/>
            <path id="path58" d="m 914.156,0.46875 0,40.99605 25.938,0 0,-3.9531 -21.231,0 0,-14.25 20.071,0 0,-3.9531 -20.071,0 0,-14.88282 21.231,0 0,-3.95703 -25.938,0" style="fill:#2056ae;fill-opacity:1;fill-rule:nonzero;stroke:none"/>
            <path id="path60" d="m 966.492,5.17578 1.856,3.66406 c 2.019,-1.69921 4.082,-2.92187 6.199,-3.66406 2.101,-0.73437 4.562,-1.10547 7.344,-1.10547 3.3,0 5.839,0.64844 7.629,1.92578 1.785,1.27735 2.664,3.07422 2.664,5.41021 0,1.3476 -0.418,2.4492 -1.27,3.3125 -0.848,0.8476 -1.98,1.5312 -3.379,2.0273 -1.387,0.5117 -3.269,1.0273 -5.644,1.5742 -3.172,0.7344 -5.77,1.5156 -7.813,2.3242 -2.039,0.8203 -3.68,1.9727 -4.941,3.4883 -1.258,1.5117 -1.895,3.4844 -1.895,5.9336 0,2.3281 0.617,4.3867 1.836,6.1953 1.223,1.7969 2.961,3.1914 5.235,4.1875 2.257,0.9883 4.894,1.4844 7.871,1.4844 2.832,0 5.48,-0.4492 7.949,-1.3477 2.453,-0.8906 4.543,-2.1679 6.25,-3.8281 l -1.805,-3.6719 c -1.945,1.6719 -3.906,2.8829 -5.91,3.6446 -1.992,0.75 -4.148,1.1211 -6.484,1.1211 -3.172,0 -5.664,-0.6641 -7.461,-2 -1.805,-1.3399 -2.715,-3.2149 -2.715,-5.6094 0,-2.0586 0.801,-3.6016 2.394,-4.6563 1.59,-1.0468 3.985,-1.9414 7.207,-2.6757 3.524,-0.8477 6.297,-1.6329 8.321,-2.3516 2,-0.7148 3.679,-1.7969 5.027,-3.2227 1.34,-1.4375 2.004,-3.3593 2.004,-5.7656 0,-2.32421 -0.606,-4.35155 -1.828,-6.10155 C 993.902,3.72266 992.145,2.38281 989.871,1.42578 987.574,0.480469 984.91,0 981.832,0 c -6.387,0 -11.504,1.73047 -15.34,5.17578" style="fill:#2056ae;fill-opacity:1;fill-rule:nonzero;stroke:none"/>
            <path id="path62" d="m 1032.17,8.45703 c 2.43,2.94137 3.64,7.10937 3.64,12.53907 0,5.4297 -1.2,9.5898 -3.62,12.5 -2.4,2.9102 -5.79,4.3555 -10.17,4.3555 -4.35,0 -7.73,-1.4532 -10.15,-4.3828 -2.42,-2.9336 -3.63,-7.0821 -3.63,-12.4727 0,-5.3906 1.21,-9.5508 3.63,-12.51172 2.42,-2.9375 5.8,-4.41407 10.15,-4.41407 4.34,0 7.72,1.46485 10.15,4.38672 z m -20.06,-5.89062 c -2.82,1.70312 -4.97,4.12109 -6.48,7.26953 -1.52,3.13286 -2.27,6.83596 -2.27,11.10156 0,4.2969 0.74,8.0273 2.24,11.1914 1.49,3.1641 3.64,5.5742 6.45,7.2656 2.81,1.6914 6.13,2.5391 9.97,2.5391 3.85,0 7.17,-0.8477 9.97,-2.5391 2.81,-1.6914 4.96,-4.1015 6.45,-7.2656 1.5,-3.1641 2.25,-6.875 2.25,-11.1328 0,-4.2656 -0.76,-7.9766 -2.27,-11.14063 -1.52,-3.15625 -3.68,-5.58594 -6.49,-7.28906 C 1029.13,0.859375 1025.83,0 1022.02,0 c -3.8,0 -7.1,0.859375 -9.91,2.56641" style="fill:#2056ae;fill-opacity:1;fill-rule:nonzero;stroke:none"/>
            <path id="path64" d="m 1050.34,0.46875 0,40.99605 4.76,0 0,-36.92574 20.53,0 0,-4.07031 -25.29,0" style="fill:#2056ae;fill-opacity:1;fill-rule:nonzero;stroke:none"/>
            <path id="path66" d="m 1084.41,4.1875 c -2.76,2.79297 -4.13,6.9063 -4.13,12.3359 l 0,24.9414 4.71,0 0,-25.3515 c 0,-3.9961 0.98,-7.00392 2.94,-9.01174 1.96,-2.02343 4.83,-3.03125 8.63,-3.03125 3.8,0 6.67,1.00782 8.61,3.03125 1.93,2.00782 2.9,5.01564 2.9,9.01174 l 0,25.3515 4.77,0 0,-24.9414 c 0,-5.3906 -1.39,-9.49215 -4.15,-12.30465 C 1105.92,1.40625 1101.87,0 1096.56,0 c -5.34,0 -9.4,1.39844 -12.15,4.1875" style="fill:#2056ae;fill-opacity:1;fill-rule:nonzero;stroke:none"/>
            <path id="path68" d="m 1133.25,0.46875 0,36.92575 -14.24,0 0,4.0703 33.37,0 0,-4.0703 -14.31,0 0,-36.92575 -4.82,0" style="fill:#2056ae;fill-opacity:1;fill-rule:nonzero;stroke:none"/>
            <path id="path70" d="m 1159.6,0.46875 4.7578,0 0,40.9961 -4.7578,0 0,-40.9961 z" style="fill:#2056ae;fill-opacity:1;fill-rule:nonzero;stroke:none"/>
            <path id="path72" d="m 1201.36,8.45703 c 2.44,2.94137 3.65,7.10937 3.65,12.53907 0,5.4297 -1.2,9.5898 -3.62,12.5 -2.4,2.9102 -5.79,4.3555 -10.16,4.3555 -4.36,0 -7.74,-1.4532 -10.15,-4.3828 -2.43,-2.9336 -3.64,-7.0821 -3.64,-12.4727 0,-5.3906 1.21,-9.5508 3.64,-12.51172 2.41,-2.9375 5.79,-4.41407 10.15,-4.41407 4.33,0 7.71,1.46485 10.13,4.38672 z m -20.05,-5.89062 c -2.82,1.70312 -4.97,4.12109 -6.48,7.26953 -1.52,3.13286 -2.27,6.83596 -2.27,11.10156 0,4.2969 0.74,8.0273 2.24,11.1914 1.49,3.1641 3.63,5.5742 6.46,7.2656 2.8,1.6914 6.12,2.5391 9.97,2.5391 3.84,0 7.16,-0.8477 9.97,-2.5391 2.8,-1.6914 4.96,-4.1015 6.44,-7.2656 1.5,-3.1641 2.25,-6.875 2.25,-11.1328 0,-4.2656 -0.76,-7.9766 -2.28,-11.14063 -1.5,-3.15625 -3.67,-5.58594 -6.47,-7.28906 C 1198.33,0.859375 1195.03,0 1191.23,0 c -3.81,0 -7.11,0.859375 -9.92,2.56641" style="fill:#2056ae;fill-opacity:1;fill-rule:nonzero;stroke:none"/>
            <path id="path74" d="m 1246.63,41.4648 4.49,0 0,-40.99605 -3.67,0 -24.72,32.96875 0,-32.96875 -4.47,0 0,40.99605 3.66,0 24.71,-32.98042 0,32.98042" style="fill:#2056ae;fill-opacity:1;fill-rule:nonzero;stroke:none"/>
            <path id="path76" d="m 1259.55,5.17578 1.85,3.66406 c 2.02,-1.69921 4.1,-2.92187 6.2,-3.66406 2.11,-0.73437 4.57,-1.10547 7.36,-1.10547 3.29,0 5.84,0.64844 7.62,1.92578 1.78,1.27735 2.67,3.07422 2.67,5.41021 0,1.3476 -0.42,2.4492 -1.28,3.3125 -0.85,0.8476 -1.98,1.5312 -3.37,2.0273 -1.39,0.5117 -3.28,1.0273 -5.64,1.5742 -3.19,0.7344 -5.78,1.5156 -7.82,2.3242 -2.04,0.8203 -3.69,1.9727 -4.95,3.4883 -1.25,1.5117 -1.88,3.4844 -1.88,5.9336 0,2.3281 0.61,4.3867 1.83,6.1953 1.22,1.7969 2.96,3.1914 5.23,4.1875 2.27,0.9883 4.89,1.4844 7.88,1.4844 2.82,0 5.48,-0.4492 7.94,-1.3477 2.46,-0.8906 4.54,-2.1679 6.25,-3.8281 l -1.81,-3.6719 c -1.93,1.6719 -3.9,2.8829 -5.9,3.6446 -1.99,0.75 -4.15,1.1211 -6.48,1.1211 -3.18,0 -5.66,-0.6641 -7.47,-2 -1.8,-1.3399 -2.7,-3.2149 -2.7,-5.6094 0,-2.0586 0.8,-3.6016 2.38,-4.6563 1.59,-1.0468 3.98,-1.9414 7.21,-2.6757 3.52,-0.8477 6.3,-1.6329 8.32,-2.3516 2.01,-0.7148 3.68,-1.7969 5.02,-3.2227 1.34,-1.4375 2.02,-3.3593 2.02,-5.7656 0,-2.32421 -0.62,-4.35155 -1.84,-6.10155 -1.23,-1.74609 -2.98,-3.08594 -5.26,-4.04297 C 1280.64,0.480469 1277.97,0 1274.9,0 c -6.4,0 -11.51,1.73047 -15.35,5.17578" style="fill:#2056ae;fill-opacity:1;fill-rule:nonzero;stroke:none"/>
            <path id="path78" d="m 325.141,149.316 -11.539,0 c 0,7.082 -1.383,11.575 -4.149,13.489 -2.762,1.914 -9.269,2.859 -19.523,2.859 -12.164,0 -20.004,-0.906 -23.528,-2.734 -3.515,-1.817 -5.273,-5.891 -5.273,-12.196 0,-7.082 1.383,-11.406 4.148,-12.949 2.762,-1.543 10.981,-2.597 24.653,-3.156 16.031,-0.594 26.218,-2.344 30.57,-5.215 4.348,-2.883 6.523,-9.316 6.523,-19.316 0,-10.8207 -2.5,-17.8207 -7.5,-20.9964 -5.003,-3.1719 -16.05,-4.7657 -33.14,-4.7657 -14.824,0 -24.688,1.6016 -29.59,4.8047 -4.895,3.1953 -7.352,9.6367 -7.352,19.3474 l -0.074,3.922 11.539,0 0,-2.187 c 0,-7.86 1.407,-12.7308 4.219,-14.6449 2.816,-1.9179 10.027,-2.8711 21.637,-2.8711 13.324,0 21.511,0.9532 24.578,2.8711 3.066,1.9141 4.601,7.0119 4.601,15.2929 0,5.359 -1.046,8.945 -3.132,10.723 -2.082,1.777 -6.446,2.84 -13.079,3.183 l -12.062,0.516 -11.453,0.52 c -17.449,1.023 -26.164,8.75 -26.164,23.183 0,10 2.535,16.668 7.605,20.02 5.086,3.347 15.211,5.027 30.395,5.027 15.375,0 25.398,-1.551 30.07,-4.668 4.676,-3.113 7.02,-9.805 7.02,-20.059" style="fill:#4c5051;fill-opacity:1;fill-rule:nonzero;stroke:none"/>
            <path id="path80" d="m 420.328,128.254 26.293,0 c 10.992,0 18.039,1.016 21.145,3.027 3.097,2.02 4.644,6.66 4.644,13.907 0,8.503 -1.047,13.886 -3.137,16.14 -2.089,2.258 -7.05,3.379 -14.875,3.379 l -4.25,0.059 -29.82,0 0,-36.512 z m -11.09,-43.0196 0,87.9026 45.016,0 c 11.094,0 18.656,-1.907 22.691,-5.723 4.039,-3.828 6.051,-10.976 6.051,-21.445 0,-10.051 -2.101,-16.895 -6.305,-20.547 -4.203,-3.645 -12.086,-5.481 -23.656,-5.481 l -4.328,-0.058 -28.379,0 0,-34.6486 -11.09,0" style="fill:#4c5051;fill-opacity:1;fill-rule:nonzero;stroke:none"/>
            <path id="path82" d="m 742.719,173.145 0,-87.9106 -18.043,0 -40.781,59.8356 -6.633,9.84 -3.282,4.895 -3.277,4.902 -0.285,0 0.07,-3.293 0.071,-3.348 0,-72.8316 -10.981,0 0,87.9106 17.969,0 35.582,-52.422 9.266,-13.778 4.636,-6.836 4.559,-6.8863 0.289,0 -0.07,3.2812 -0.075,3.3516 0,73.2895 10.985,0" style="fill:#4c5051;fill-opacity:1;fill-rule:nonzero;stroke:none"/>
            <path id="path84" d="m 832.234,164.766 0,-29.942 55.996,0 0,-8.379 -55.996,0 0,-32.8395 58.426,0 0,-8.3711 -70.867,0 0,87.9026 70.867,0 0,-8.371 -58.426,0" style="fill:#4c5051;fill-opacity:1;fill-rule:nonzero;stroke:none"/>
            <path id="path86" d="m 1000.02,163.926 0,-78.6916 -11.614,0 0,78.6916 -33.547,0 0,9.211 78.411,0 0,-9.211 -33.25,0" style="fill:#4c5051;fill-opacity:1;fill-rule:nonzero;stroke:none"/>
            <path id="path88" d="m 1287.52,173.137 -31.95,-42.434 34.36,-45.4686 -13.33,0 -23.15,30.7816 -3.67,4.832 c -0.19,0.257 -0.75,1.058 -1.68,2.386 l -1.76,2.45 -0.29,0 -1.76,-2.52 c -0.98,-1.25 -1.59,-2.059 -1.82,-2.441 l -3.82,-4.903 -23.51,-30.5856 -13.85,0 35.75,45.4686 -32.89,42.434 13.63,0 22.19,-29.297 3.07,-4.121 c 0.39,-0.52 0.91,-1.203 1.55,-2.063 l 1.46,-2.058 0.29,0 1.47,1.992 c 0.78,1.16 1.27,1.844 1.46,2.07 l 3,4.051 21.91,29.426 13.34,0" style="fill:#4c5051;fill-opacity:1;fill-rule:nonzero;stroke:none"/>
            <path id="path90" d="m 562.801,85.2344 11.6094,0 0,87.9102 -11.6094,0 0,-87.9102 z" style="fill:#4c5051;fill-opacity:1;fill-rule:nonzero;stroke:none"/>
            <path id="path92" d="m 1110.04,85.2344 11.6094,0 0,87.9102 -11.6094,0 0,-87.9102 z" style="fill:#4c5051;fill-opacity:1;fill-rule:nonzero;stroke:none"/>
            <path id="path94" d="m 1320.76,153.027 0,16.223 -6.21,0 0,3.563 16.79,0 0,-3.563 -6.21,0 0,-16.223 -4.37,0" style="fill:#4c5051;fill-opacity:1;fill-rule:nonzero;stroke:none"/>
            <path id="path96" d="m 1350.59,172.813 3.4,0 0,-19.786 -3.85,0 0,11.731 -4.54,-8.477 -2.81,0 -4.54,8.367 0,-11.621 -3.85,0 0,19.786 3.45,0 6.38,-12.09 6.36,12.09" style="fill:#4c5051;fill-opacity:1;fill-rule:nonzero;stroke:none"/>
            <path id="path98" d="M 51.7617,101.582 C 64.875,90.207 81.8633,84.5625 98.7461,81.2422 117.652,77.5 136.656,75.4609 155.961,75.9375 c 0.336,0.0195 6.019,0.0195 6.019,0.6836 l 0,68.9649 c 0,15.285 -12.007,27.539 -26.984,27.539 l -96.5468,0 c -6.3047,0 -11.8359,-2.52 -16.4414,-6.219 0.0274,-0.742 0.0664,-1.281 0.0899,-2.09 0.6992,-22.472 11.0976,-47.168 29.664,-63.234 M 109.695,60.8516 C 68.6953,63.7891 33.2461,51.9727 0.00390625,29.668 l 0,-3.1758 C 0.00390625,12.0117 12.5898,0.359375 28.1563,0.359375 l 105.7887,0 c 15.543,0 28.039,11.632825 28.039,26.132825 l 0,26.6328 c 0,0 -32.171,6.3008 -52.289,7.7266 M 27.5898,102.773 c -2.6015,5.547 -6.3164,10.899 -10.5937,16.016 -3.8828,4.629 -12.87891,12.004 -16.99219375,16.406 l 0,-87.8395 C 0.0429688,47.3828 0.1875,47.4219 0.269531,47.4609 19.5039,58.3398 37.9023,80.5938 27.5898,102.773" style="fill:#2056ae;fill-opacity:1;fill-rule:nonzero;stroke:none"/>
        </g>
    </g>
</svg>
