<?xml version="1.0" encoding="utf-8"?><!--Generator: Adobe Illustrator 28.2.0, SVG Export Plug-In . SVG Version: 6.00 Build 0)--><svg version="1.1" id="Ebene_1" xmlns="http://www.w3.org/2000/svg" xmlns:xlink="http://www.w3.org/1999/xlink" x="0px" y="0px" width="231px" height="231px" viewBox="0 0 231 231" style="enable-background:new 0 0 231 231" xml:space="preserve"><style type="text/css">.st0{fill-rule:evenodd;clip-rule:evenodd;fill:#3E434A;}
	.st1{fill-rule:evenodd;clip-rule:evenodd;fill:#E1E4E9;}
	.st2{fill:#E1E4E9;}
	.st3{fill-rule:evenodd;clip-rule:evenodd;fill:#BD1332;}</style><path id="Hintergrund" class="st0" d="M0,0h231.4v231.4H0V0z"/><g id="Streifen"><path id="Pfad_266" class="st1" d="M148.2,158.6v-72h51.5v11.5h-38.8l-0.2-0.2v60.9h-12.6L148.2,158.6L148.2,158.6z"/><path id="Pfad_267" class="st1" d="M132.3,158.6V97.9H77.7l38.6,41.1c4.4,4.7,4.3,12.1-0.4,16.6c-2,1.9-4.6,3-7.4,3.2H31.6v-11.3
		h75.9v-0.2L51.2,86.6H145v72.2h-12.8L132.3,158.6z"/><path id="Pfad_268" class="st1" d="M44.1,71.9h155.6v11.4H44.1v0.2l56.2,60.4v0.2H31.6v-11.5H73l-38.3-41
		C28.4,84.6,32.1,71.9,44.1,71.9L44.1,71.9z"/></g><g id="Digital_Pfad__x28_Modifiziert_x29_"><path class="st2" d="M50.4,174.7c-3.1-2.3-6.6-2.8-10.5-2.8h-1.2h-0.1h-7.1v28.4h7h0.1h1.1c4,0,7.1-0.4,10.4-2.7
		c3.7-2.6,5.7-6.7,5.7-11.4S53.9,177.3,50.4,174.7z M47.7,194.2c-2.5,1.8-5.4,2-7.5,2h-1.4h-0.1h-2.7V176h2.7h0.1h1.4
		c2.1,0,5.1,0.2,7.6,2c2,1.5,3.8,4.4,3.8,8.2C51.5,190,49.6,192.7,47.7,194.2z"/><rect x="64.6" y="171.9" class="st2" width="4.3" height="28.4"/><path class="st2" d="M93.8,185.5v4h7.1c-0.2,1.6-0.8,3.3-2.4,4.8c-1.8,1.8-3.9,2.5-6.3,2.5c-2.7,0-5.1-0.8-7.1-2.9
		c-1.9-2-2.9-4.8-2.9-7.7c0-3.1,1.1-6.1,3-8c1.4-1.4,3.8-2.9,7.5-2.9c1.7,0,3.4,0.3,5,1.2c1.4,0.8,2.6,2,3.5,3.2l3.4-2.4
		c-0.8-1.3-2.3-2.9-4.6-4.3c-2.2-1.2-4.8-1.8-7.4-1.8c-4.4,0-8.2,1.8-10.7,4.3c-2.3,2.3-4.1,6.2-4.1,10.6c0,4.1,1.4,7.9,4.2,10.7
		c2.6,2.7,5.5,3.9,9.7,3.9c3.2,0,6.7-0.8,9.7-3.6c2.8-2.7,4.2-6.6,4.2-11.5v-0.2L93.8,185.5L93.8,185.5z"/><rect x="114.2" y="171.9" class="st2" width="4.3" height="28.4"/><polygon class="st2" points="127.1,171.9 127.1,176 134.6,176 134.6,200.3 138.9,200.3 138.9,176 146.2,176 146.2,171.9 	"/><path class="st2" d="M161.8,172.6l-13,27.7h4.7l3.1-6.8h12.1l3,6.8h4.7L164,172.6H161.8z M158.4,189.4l4.4-9.6l4.2,9.6H158.4z"/><polygon class="st2" points="187.6,196.2 187.6,171.9 183.2,171.9 183.2,200.3 199.7,200.3 199.7,196.2 	"/></g><path id="Rahmen_00000111894014873865427620000014727203012484732827_" class="st3" d="M174.7,133.8v25h24.9v-25H174.7z
	 M195.6,154.7h-16.7v-16.8h16.7V154.7z"/></svg>