<?xml version="1.0" encoding="UTF-8"?> <!-- Generator: Adobe Illustrator 23.0.1, SVG Export Plug-In . SVG Version: 6.00 Build 0) --> <svg xmlns="http://www.w3.org/2000/svg" xmlns:xlink="http://www.w3.org/1999/xlink" version="1.1" id="Layer_1" x="0px" y="0px" viewBox="0 0 306.03 55.48" style="enable-background:new 0 0 306.03 55.48;" xml:space="preserve"> <style type="text/css"> .st0{fill:#224192;} </style> <g> <path class="st0" d="M11.85,37.38l4.89-5.05c2.66,2.46,5.44,3.72,8.45,3.72c1.8,0,3.09-0.78,3.09-2.03c0-1.1-0.74-1.6-4.58-3.09 c-4.3-1.68-7.08-3.52-7.08-7.55c0-2.35,0.94-4.42,2.5-5.99c2.07-2.07,5.28-3.33,9.08-3.33c4.81,0,8.61,1.56,11.23,4.07l-4.69,5.2 c-2.07-1.8-4.46-2.97-7.24-2.97c-1.84,0-2.97,0.86-2.97,1.92c0,1.13,0.82,1.53,4.58,3.01c4.23,1.6,7.12,3.52,7.12,7.63 c0,2.46-0.94,4.58-2.54,6.18c-2.07,2.07-5.32,3.29-9.12,3.29C19.2,42.39,14.82,40.55,11.85,37.38z"></path> <path class="st0" d="M47.96,21.18h-8.18l1.76-6.65h23.98l-1.76,6.65h-8.22L50,41.92h-7.59L47.96,21.18z"></path> <path class="st0" d="M73.23,33.62h-0.63h-2.74l-2.23,8.29h-7.63l7.39-27.39h10.33c4.54,0,7.55,0.98,9.39,2.82 c1.45,1.45,2.11,3.44,2.11,5.63c0,2.58-0.82,4.89-2.58,6.61c-1.17,1.17-2.89,2.31-5.67,3.09l4.26,9.23h-8.37L73.23,33.62z M75.78,27.68c2.07,0,3.76-0.55,4.69-1.49c0.63-0.63,0.98-1.41,0.98-2.35c0-0.74-0.23-1.33-0.74-1.8 c-0.63-0.63-1.72-0.98-3.33-0.98h-4.15l-1.8,6.61H75.78z"></path> <path class="st0" d="M104.32,14.34h7.43l4.26,27.58h-7.98l-0.67-4.93H96.81l-3.29,4.93h-8.25L104.32,14.34z M106.79,31.08 l-1.02-7.82l-5.12,7.82H106.79z"></path> <path class="st0" d="M124.52,21.18h-8.18l1.76-6.65h23.98l-1.76,6.65h-8.22l-5.56,20.73h-7.59L124.52,21.18z"></path> <path class="st0" d="M150.07,14.34h7.43l4.26,27.58h-7.98l-0.67-4.93h-10.56l-3.29,4.93h-8.25L150.07,14.34z M152.54,31.08 l-1.02-7.82l-5.12,7.82H152.54z"></path> <path class="st0" d="M162.86,30.45c0-4.15,1.72-8.37,4.93-11.58c2.89-2.89,7.12-4.89,12.21-4.89c5.56,0,9.43,2.7,11.07,6.92 l-6.57,3.52c-1.1-2.27-2.82-3.56-5.48-3.56c-2.11,0-4.03,0.9-5.48,2.35c-1.68,1.72-2.74,4.15-2.74,6.73c0,3.48,2.31,5.63,5.48,5.63 c2.39,0,4.11-1.02,5.87-2.78l5.13,4.54c-2.66,3.01-6.26,5.13-11.46,5.13C168.26,42.46,162.86,37.81,162.86,30.45z"></path> <path class="st0" d="M204.26,14.34h7.43l4.26,27.58h-7.98l-0.67-4.93h-10.56l-3.29,4.93h-8.25L204.26,14.34z M206.72,31.08 l-1.02-7.82l-5.12,7.82H206.72z"></path> <path class="st0" d="M215.95,30.45c0-4.15,1.72-8.37,4.93-11.58c2.89-2.89,7.12-4.89,12.21-4.89c5.56,0,9.43,2.7,11.07,6.92 l-6.57,3.52c-1.1-2.27-2.82-3.56-5.48-3.56c-2.11,0-4.03,0.9-5.48,2.35c-1.68,1.72-2.74,4.15-2.74,6.73c0,3.48,2.31,5.63,5.48,5.63 c2.39,0,4.11-1.02,5.87-2.78l5.13,4.54c-2.66,3.01-6.26,5.13-11.46,5.13C221.35,42.46,215.95,37.81,215.95,30.45z"></path> <path class="st0" d="M247.83,14.53h7.59l-2.78,10.25h9.66l2.78-10.25h7.59l-7.36,27.39h-7.59l2.78-10.41h-9.66l-2.78,10.41h-7.63 L247.83,14.53z"></path> <path class="st0" d="M275.03,14.53h21.91l-1.76,6.42h-14.4l-1.13,4.19h13.07l-1.6,5.95h-13.07l-1.17,4.38h14.63l-1.72,6.46h-22.14 L275.03,14.53z"></path> </g> </svg> 