<?xml version="1.0" encoding="UTF-8"?>
<svg xmlns="http://www.w3.org/2000/svg" xmlns:xlink="http://www.w3.org/1999/xlink" width="258px" height="76px" viewBox="0 0 258 76" version="1.1">
  <title>logo</title>
  <defs>
    <polygon id="path-1" points="0 54.1666667 248.958333 54.1666667 248.958333 0 0 0"></polygon>
  </defs>
  <g id="Symbols" stroke="none" stroke-width="1" fill="none" fill-rule="evenodd">
    <g id="menu" transform="translate(-194, -171)">
      <g id="Group-26" transform="translate(198.4334, 184.0459)">
        <polygon id="Fill-1" fill="#000000" points="0 0 0 12.5667067 13.8047306 12.5667067 13.8047306 54.1666667 28.1846352 54.1666667 28.1846352 12.5667067 42.7083333 12.5667067 42.7083333 0"></polygon>
        <g id="Group-25">
          <path d="M60.8857305,41.6472836 L73.4809074,41.6472836 C78.8066338,41.6472836 80.7498043,38.1218816 80.7498043,32.4375168 L80.7498043,21.1418411 C80.7498043,14.1624307 78.5187567,12.7234912 73.4809074,12.7234912 L60.8857305,12.7234912 L60.8857305,41.6472836 Z M46.4913218,0.204163389 L73.8407538,0.204163389 C88.882886,0.204163389 95.5760287,5.81658118 95.5760287,21.1418411 L95.5760287,32.4375168 C95.5760287,47.1877544 90.8260565,54.1666113 75.7839242,54.1666113 L46.4913218,54.1666113 L46.4913218,0.204163389 Z" id="Fill-2" fill="#000000"></path>
          <polygon id="Fill-4" fill="#000000" points="117.309034 54.1666667 102.914625 54.1666667 102.914625 0.204218732 125.729993 0.204218732 136.022153 34.0929061 136.525938 34.0929061 146.313759 0.204218732 169.704881 0.204218732 169.704881 54.1666667 155.310472 54.1666667 156.749858 12.7954935 156.246073 12.7954935 142.571357 54.1666667 130.120672 54.1666667 116.302018 12.7954935 115.869095 12.7954935"></polygon>
          <path d="M177.797937,6.76284999 L179.831899,6.76284999 C180.692763,6.76284999 181.006106,6.19336198 181.006106,5.27520784 L181.006106,3.4510752 C181.006106,2.32372139 180.646259,2.09183074 179.831899,2.09183074 L177.797937,2.09183074 L177.797937,6.76284999 Z M175.473329,0.0695671942 L179.890028,0.0695671942 C182.319822,0.0695671942 183.400468,0.976099128 183.400468,3.4510752 L183.400468,5.27520784 C183.400468,7.65775972 182.633165,8.78456009 180.203925,8.78456009 L175.473329,8.78456009 L175.473329,0.0695671942 Z" id="Fill-6" fill="#000000"></path>
          <mask id="mask-2" fill="white">
            <use xlink:href="#path-1"></use>
          </mask>
          <g id="Clip-9"></g>
          <polygon id="Fill-8" fill="#000000" mask="url(#mask-2)" points="189.098165 8.78472612 191.422773 8.78472612 191.422773 0.0697332257 189.098165 0.0697332257"></polygon>
          <path d="M202.65308,2.77715339 C202.606577,1.89386586 201.850899,1.90548806 201.153351,1.90548806 C199.479788,1.90548806 199.433285,2.41686505 199.410587,3.82315177 L199.410587,5.24050726 C199.410587,6.78626043 199.944267,6.94897129 201.153351,6.94897129 C202.339737,6.94897129 202.65308,6.68166059 202.65308,5.47295134 L201.049272,5.47295134 L201.049272,3.85801838 L205.012565,3.85801838 L205.012565,5.37997371 C205.012565,8.31983795 204.268513,8.85445935 201.153351,8.85445935 C198.410214,8.85445935 197.015117,8.38957118 197.015117,5.56592898 L197.015117,3.31177478 C197.015117,0.430021559 198.596227,0 201.153351,0 C203.408757,0 205.012565,0.0116222043 205.012565,2.77715339 L202.65308,2.77715339 Z" id="Fill-10" fill="#000000" mask="url(#mask-2)"></path>
          <polygon id="Fill-11" fill="#000000" mask="url(#mask-2)" points="210.676215 8.78472612 213.000822 8.78472612 213.000822 0.0697332257 210.676215 0.0697332257"></polygon>
          <polygon id="Fill-12" fill="#000000" mask="url(#mask-2)" points="222.789585 8.78472612 220.464977 8.78472612 220.464977 2.09144333 218.233376 2.09144333 218.233376 0.0697332257 225.136891 0.0697332257 225.136891 2.09144333 222.789585 2.09144333"></polygon>
          <path d="M233.589294,1.81267646 L233.566596,1.81267646 L232.508648,5.58933942 L234.670494,5.58933942 L233.589294,1.81267646 Z M232.008738,7.2856278 L231.578584,8.78489216 L229.16097,8.78489216 L231.776222,0.0698992572 L235.30936,0.0698992572 L237.960044,8.78489216 L235.58838,8.78489216 L235.135527,7.2856278 L232.008738,7.2856278 Z" id="Fill-13" fill="#000000" mask="url(#mask-2)"></path>
          <polygon id="Fill-14" fill="#000000" mask="url(#mask-2)" points="245.319954 6.76284999 248.958278 6.76284999 248.958278 8.78456009 242.995347 8.78456009 242.995347 0.0695671942 245.319954 0.0695671942"></polygon>
          <path d="M179.55288,17.432753 C182.133809,17.6187083 182.772726,17.94413 182.772726,19.9425957 C182.772726,21.383749 182.831357,22.8011045 178.994841,22.8011045 C176.774866,22.8011045 175.298942,22.7546157 175.298942,19.8961069 L177.531097,19.8961069 C177.531097,20.8026388 177.856619,20.8956164 178.994841,20.8956164 C180.088221,20.8956164 180.448067,20.8258832 180.448067,20.0936843 C180.448067,19.3382411 180.320737,19.3498633 179.227357,19.2806835 L178.715822,19.2452634 C176.565601,19.0947282 175.310568,19.105797 175.310568,16.6075765 C175.310568,14.109356 176.716737,13.9466451 178.994841,13.9466451 C180.901473,13.9466451 182.528533,13.9815118 182.528533,16.3867546 L182.528533,16.7470429 L180.296932,16.7470429 C180.296932,15.8526866 179.924906,15.8526866 178.994841,15.8526866 C177.739808,15.8526866 177.635176,16.1078217 177.635176,16.5959543 C177.635176,17.2932865 177.972324,17.3165309 178.588492,17.3630198 L179.55288,17.432753 Z" id="Fill-15" fill="#000000" mask="url(#mask-2)"></path>
          <polygon id="Fill-16" fill="#000000" mask="url(#mask-2)" points="186.924693 22.7313713 189.2493 22.7313713 189.2493 14.0163784 186.924693 14.0163784"></polygon>
          <path d="M198.99084,16.7241859 C198.944337,15.8408984 198.189213,15.8525206 197.491665,15.8525206 C195.818102,15.8525206 195.771599,16.3638976 195.748348,17.7696309 L195.748348,19.1875398 C195.748348,20.7327395 196.282581,20.8954504 197.491665,20.8954504 C198.677497,20.8954504 198.99084,20.6286931 198.99084,19.4199839 L197.387586,19.4199839 L197.387586,17.8044975 L201.350879,17.8044975 L201.350879,19.3270063 C201.350879,22.2668705 200.606827,22.8009385 197.491665,22.8009385 C194.748528,22.8009385 193.353431,22.3366037 193.353431,19.5129615 L193.353431,17.2582539 C193.353431,14.3765007 194.934541,13.9464791 197.491665,13.9464791 C199.746518,13.9464791 201.350879,13.9581013 201.350879,16.7241859 L198.99084,16.7241859 Z" id="Fill-17" fill="#000000" mask="url(#mask-2)"></path>
          <polygon id="Fill-18" fill="#000000" mask="url(#mask-2)" points="207.838854 22.731482 205.514246 22.731482 205.514246 14.0164891 209.442108 14.0164891 211.941656 20.7097718 212.034662 20.7097718 211.895153 14.0164891 214.21976 14.0164891 214.21976 22.731482 210.256468 22.731482 207.79235 16.0381992 207.699344 16.0381992"></polygon>
          <path d="M222.231103,15.7594323 L222.207852,15.7594323 L221.150457,19.5355418 L223.31175,19.5355418 L222.231103,15.7594323 Z M220.650547,21.2329371 L220.220393,22.731648 L217.802778,22.731648 L220.418031,14.0166551 L223.951169,14.0166551 L226.601853,22.731648 L224.230188,22.731648 L223.776782,21.2329371 L220.650547,21.2329371 Z" id="Fill-19" fill="#000000" mask="url(#mask-2)"></path>
          <path d="M235.483692,16.7241859 C235.437189,15.8408984 234.682065,15.8525206 233.984517,15.8525206 C232.310954,15.8525206 232.264451,16.3638976 232.241199,17.7696309 L232.241199,19.1875398 C232.241199,20.7327395 232.775433,20.8954504 233.984517,20.8954504 C235.170349,20.8954504 235.483692,20.6286931 235.483692,19.4199839 L233.880438,19.4199839 L233.880438,17.8044975 L237.843731,17.8044975 L237.843731,19.3270063 C237.843731,22.2668705 237.099679,22.8009385 233.984517,22.8009385 C231.24138,22.8009385 229.846283,22.3366037 229.846283,19.5129615 L229.846283,17.2582539 C229.846283,14.3765007 231.427393,13.9464791 233.984517,13.9464791 C236.239369,13.9464791 237.843731,13.9581013 237.843731,16.7241859 L235.483692,16.7241859 Z" id="Fill-20" fill="#000000" mask="url(#mask-2)"></path>
          <polygon id="Fill-21" fill="#000000" mask="url(#mask-2)" points="244.366306 17.5143298 248.08601 17.5143298 248.08601 19.1292628 244.366306 19.1292628 244.366306 20.8255511 248.411533 20.8255511 248.411533 22.7315926 242.041698 22.7315926 242.041698 14.0165997 248.330152 14.0165997 248.330152 15.9220878 244.366306 15.9220878"></polygon>
          <line x1="174.868787" y1="29.2621646" x2="248.498893" y2="29.2616111" id="Fill-22" fill="#000000" mask="url(#mask-2)"></line>
          <polygon id="Fill-23" fill="#000000" mask="url(#mask-2)" points="174.868787 30.3690965 174.868787 28.1553433 248.498893 28.1547899 248.498893 30.3685431"></polygon>
          <polyline id="Fill-24" fill="#000000" mask="url(#mask-2)" points="205.870937 33.1360113 205.870937 54.1666667 221.925621 43.651339"></polyline>
        </g>
      </g>
    </g>
  </g>
</svg>
