<svg width="200" height="200" viewBox="0 0 512 508" fill="none" xmlns="http://www.w3.org/2000/svg">
    <g clip-path="url(#clip0_6_8)">
        <path
            d="M133.437 120.916C134.324 120.913 135.212 120.909 136.127 120.905C137.098 120.906 138.069 120.907 139.07 120.908C140.623 120.903 140.623 120.903 142.206 120.899C145.685 120.89 149.164 120.888 152.644 120.887C155.134 120.882 157.624 120.877 160.114 120.872C166.886 120.859 173.659 120.853 180.432 120.848C184.662 120.845 188.892 120.841 193.122 120.837C204.837 120.825 216.552 120.815 228.266 120.811C229.016 120.811 229.766 120.811 230.538 120.81C231.289 120.81 232.041 120.81 232.815 120.81C234.338 120.809 235.86 120.809 237.383 120.809C238.138 120.808 238.893 120.808 239.671 120.808C251.907 120.804 264.142 120.787 276.378 120.764C288.944 120.74 301.51 120.728 314.076 120.726C321.129 120.726 328.183 120.72 335.237 120.702C341.872 120.685 348.507 120.683 355.142 120.692C357.577 120.693 360.012 120.688 362.447 120.679C365.772 120.666 369.097 120.672 372.422 120.682C373.384 120.674 374.347 120.666 375.338 120.658C382.529 120.71 388.271 121.669 393.875 126.504C399.331 132.873 399.148 138.376 399.134 146.361C399.136 147.317 399.138 148.272 399.141 149.257C399.147 152.461 399.146 155.665 399.145 158.87C399.148 161.166 399.152 163.462 399.155 165.759C399.164 171.999 399.167 178.239 399.167 184.479C399.168 189.687 399.172 194.894 399.175 200.102C399.183 211.685 399.186 223.268 399.185 234.851C399.185 235.894 399.185 235.894 399.185 236.957C399.185 237.653 399.185 238.348 399.185 239.065C399.185 250.339 399.194 261.614 399.208 272.888C399.223 284.469 399.23 296.05 399.229 307.631C399.229 314.131 399.231 320.631 399.242 327.131C399.252 333.243 399.252 339.356 399.245 345.469C399.243 347.712 399.246 349.956 399.252 352.199C399.26 355.262 399.255 358.324 399.247 361.387C399.252 362.274 399.258 363.162 399.263 364.076C399.222 371.398 398.463 377.564 393 382.984C388.189 385.769 384.096 387.075 378.563 387.083C377.676 387.087 376.788 387.091 375.873 387.095C374.902 387.094 373.931 387.093 372.93 387.092C371.378 387.097 371.378 387.097 369.794 387.101C366.315 387.11 362.836 387.111 359.356 387.113C356.866 387.118 354.376 387.123 351.886 387.128C345.114 387.141 338.341 387.147 331.568 387.152C327.338 387.154 323.108 387.159 318.878 387.163C307.163 387.175 295.448 387.185 283.734 387.189C282.984 387.189 282.234 387.189 281.462 387.189C280.711 387.19 279.959 387.19 279.185 387.19C277.662 387.191 276.14 387.191 274.617 387.191C273.862 387.192 273.107 387.192 272.329 387.192C260.093 387.196 247.858 387.213 235.622 387.236C223.056 387.26 210.49 387.272 197.924 387.273C190.871 387.274 183.817 387.28 176.763 387.298C170.128 387.315 163.493 387.317 156.858 387.308C154.423 387.307 151.988 387.311 149.553 387.321C146.228 387.334 142.903 387.328 139.578 387.318C138.135 387.33 138.135 387.33 136.662 387.342C129.471 387.29 123.729 386.331 118.125 381.496C112.669 375.127 112.852 369.624 112.866 361.639C112.864 360.683 112.862 359.728 112.859 358.743C112.853 355.539 112.854 352.335 112.855 349.13C112.852 346.834 112.848 344.538 112.845 342.241C112.836 336.001 112.833 329.761 112.833 323.521C112.832 318.313 112.828 313.106 112.825 307.898C112.817 296.315 112.814 284.732 112.815 273.148C112.815 272.454 112.815 271.759 112.815 271.043C112.815 270.347 112.815 269.652 112.815 268.935C112.815 257.661 112.806 246.386 112.792 235.112C112.777 223.531 112.77 211.95 112.771 200.369C112.771 193.869 112.769 187.369 112.758 180.869C112.748 174.757 112.748 168.644 112.755 162.531C112.757 160.288 112.754 158.044 112.748 155.801C112.74 152.738 112.745 149.676 112.753 146.613C112.748 145.726 112.742 144.838 112.737 143.924C112.778 136.602 113.537 130.436 119 125.016C123.811 122.231 127.904 120.925 133.437 120.916ZM148 155.773C148 220.603 148 285.432 148 352.227C219.28 352.227 290.56 352.227 364 352.227C364 287.397 364 222.567 364 155.773C292.72 155.773 221.44 155.773 148 155.773Z"
            fill="black"></path>
        <path
            d="M446.312 150.937C452.063 154.917 454.437 159.021 456 165.695C456.176 168.184 456.257 170.68 456.261 173.175C456.266 174.256 456.266 174.256 456.272 175.36C456.283 177.758 456.279 180.156 456.275 182.554C456.279 184.281 456.284 186.007 456.29 187.734C456.303 192.412 456.304 197.09 456.302 201.768C456.3 205.678 456.305 209.589 456.31 213.499C456.321 222.728 456.322 231.956 456.316 241.184C456.31 250.693 456.322 260.201 456.343 269.71C456.361 277.884 456.367 286.059 456.364 294.233C456.362 299.111 456.364 303.988 456.378 308.866C456.391 313.454 456.389 318.042 456.376 322.63C456.374 324.31 456.376 325.989 456.385 327.668C456.472 346.912 456.472 346.912 451.281 353.374C450.693 353.814 450.106 354.254 449.5 354.707C448.912 355.167 448.324 355.628 447.719 356.102C443.224 358.94 438.129 358.737 433 358.18C428.178 356.519 424.659 353.549 422 349.25C420.425 343.948 419.749 339.343 419.746 333.782C419.743 333.068 419.74 332.353 419.737 331.618C419.729 329.247 419.735 326.877 419.741 324.507C419.738 322.799 419.735 321.09 419.731 319.381C419.721 314.757 419.725 310.132 419.731 305.507C419.736 300.659 419.732 295.811 419.729 290.963C419.725 282.823 419.73 274.682 419.739 266.542C419.75 257.141 419.747 247.74 419.736 238.339C419.726 230.257 419.725 222.174 419.73 214.091C419.734 209.269 419.734 204.446 419.727 199.624C419.722 195.089 419.726 190.555 419.737 186.02C419.74 184.36 419.739 182.699 419.735 181.039C419.729 178.765 419.736 176.492 419.746 174.218C419.747 172.948 419.748 171.678 419.748 170.369C420.243 163.128 421.707 157.929 427 152.797C432.908 148.707 439.644 148.69 446.312 150.937Z"
            fill="black"></path>
        <path
            d="M81.0703 150.533C84.9578 152.604 87.7061 155.041 90 158.75C91.5747 164.052 92.2507 168.657 92.254 174.218C92.2587 175.289 92.2587 175.289 92.2634 176.383C92.2713 178.753 92.2651 181.123 92.2588 183.493C92.2615 185.201 92.2651 186.91 92.2694 188.619C92.2785 193.244 92.275 197.868 92.2687 202.493C92.2636 207.341 92.2683 212.189 92.2714 217.037C92.2751 225.177 92.2703 233.318 92.2607 241.458C92.2499 250.859 92.2534 260.26 92.2644 269.661C92.2735 277.743 92.2748 285.826 92.2695 293.909C92.2664 298.731 92.266 303.554 92.2726 308.376C92.2784 312.911 92.2743 317.445 92.2628 321.98C92.2602 323.64 92.2609 325.301 92.2653 326.961C92.2708 329.235 92.2639 331.508 92.254 333.782C92.2532 335.052 92.2525 336.322 92.2517 337.631C91.7567 344.872 90.2926 350.071 85 355.203C79.9381 358.707 74.9702 358.875 69 358.18C63.8188 356.434 61.0959 353.687 58 349.25C56.2735 344.326 55.7476 340.022 55.7393 334.825C55.7355 334.104 55.7317 333.383 55.7277 332.64C55.7175 330.242 55.7214 327.844 55.7253 325.446C55.721 323.719 55.7158 321.993 55.7099 320.266C55.6965 315.588 55.6959 310.91 55.6984 306.232C55.6995 302.322 55.6946 298.411 55.6898 294.501C55.6787 285.272 55.6783 276.044 55.6843 266.816C55.6904 257.307 55.6781 247.799 55.6568 238.29C55.6391 230.116 55.6331 221.941 55.6364 213.767C55.6382 208.889 55.6356 204.012 55.6217 199.135C55.6091 194.546 55.6111 189.958 55.6241 185.37C55.6265 183.69 55.6237 182.011 55.6155 180.332C55.5275 161.088 55.5275 161.088 60.7188 154.626C61.3066 154.186 61.8944 153.746 62.5 153.293C63.0878 152.833 63.6756 152.372 64.2813 151.898C69.0693 148.875 75.7772 148.71 81.0703 150.533Z"
            fill="black"></path>
        <path
            d="M505.313 180.206C509.295 183.698 511.645 186.945 512.37 192.18C512.521 195.468 512.54 198.735 512.518 202.026C512.525 203.274 512.532 204.522 512.539 205.808C512.557 209.215 512.55 212.622 512.537 216.029C512.527 219.604 512.537 223.178 512.543 226.753C512.55 232.755 512.541 238.757 512.522 244.758C512.5 251.686 512.507 258.613 512.529 265.54C512.547 271.5 512.55 277.46 512.539 283.42C512.533 286.974 512.532 290.528 512.545 294.083C512.559 298.047 512.54 302.01 512.518 305.974C512.526 307.144 512.534 308.314 512.542 309.52C512.474 316.04 511.972 320.16 508 325.438C503.391 329.478 499.006 330.492 493 330.398C487.962 329.482 484.632 328.049 481 324.445C478.039 319.409 476.879 315.281 476.86 309.504C476.854 308.492 476.848 307.479 476.842 306.436C476.841 305.331 476.84 304.226 476.839 303.087C476.834 301.919 476.829 300.75 476.824 299.546C476.812 296.344 476.804 293.142 476.8 289.94C476.797 287.936 476.793 285.933 476.788 283.93C476.775 277.656 476.765 271.381 476.761 265.107C476.757 257.877 476.739 250.648 476.71 243.418C476.688 237.821 476.678 232.224 476.677 226.628C476.676 223.289 476.67 219.95 476.652 216.612C476.635 212.883 476.637 209.155 476.644 205.426C476.634 204.329 476.625 203.232 476.616 202.102C476.657 194.543 477.321 188.596 482.5 182.687C489.5 176.783 497.08 176.199 505.313 180.206Z"
            fill="#B8A709"></path>
        <path
            d="M29.5625 182.105C34.0677 186.648 35.1198 192.387 35.1404 198.496C35.1462 199.508 35.1519 200.521 35.1577 201.564C35.1589 202.669 35.16 203.774 35.1611 204.913C35.1686 206.666 35.1686 206.666 35.1762 208.454C35.1883 211.656 35.1957 214.858 35.2002 218.06C35.2031 220.064 35.2072 222.067 35.2117 224.07C35.2254 230.344 35.235 236.619 35.2389 242.893C35.2434 250.123 35.2609 257.352 35.2899 264.582C35.3116 270.179 35.3216 275.776 35.3229 281.372C35.324 284.711 35.3298 288.05 35.3478 291.388C35.3648 295.117 35.3629 298.845 35.3564 302.574C35.3703 304.219 35.3703 304.219 35.3844 305.898C35.3433 313.457 34.6789 319.404 29.5 325.313C24.6637 329.392 21.2098 330.296 15 330.398C9.40828 329.474 6.62598 327.75 3 323.453C0.466605 319.838 -0.376292 317.44 -0.38768 313.046C-0.397585 311.964 -0.407489 310.881 -0.417694 309.767C-0.413192 308.589 -0.408691 307.412 -0.404053 306.199C-0.410916 304.951 -0.417779 303.704 -0.42485 302.418C-0.442772 299.003 -0.441615 295.588 -0.435907 292.172C-0.432813 289.317 -0.438911 286.462 -0.444946 283.607C-0.458987 276.868 -0.457435 270.13 -0.446045 263.391C-0.43457 256.449 -0.448629 249.508 -0.475441 242.566C-0.497626 236.597 -0.50423 230.629 -0.498365 224.661C-0.495001 221.1 -0.497378 217.539 -0.514616 213.978C-0.533012 210.004 -0.518869 206.031 -0.501709 202.058C-0.511377 200.885 -0.521045 199.711 -0.531006 198.502C-0.472019 191.978 0.00116378 187.831 4 182.563C11.8234 176.287 21.5658 175.75 29.5625 182.105Z"
            fill="#B8A709"></path>
        <path
            d="M321.941 232.806C338.09 241.947 338.207 265.17 322.151 274.463L224.591 330.932C208.638 340.166 188.657 328.709 188.564 310.273L188.001 198.265C187.908 179.83 207.773 168.183 223.819 177.266L321.941 232.806Z"
            fill="#B8A709"></path>
    </g>
    <defs>
        <clipPath id="clip0_6_8">
            <rect width="512" height="508" fill="white"></rect>
        </clipPath>
    </defs>
</svg>