<svg id="Layer_1" data-name="Layer 1" xmlns="http://www.w3.org/2000/svg" xmlns:xlink="http://www.w3.org/1999/xlink" width="2837.62" height="750.87" viewBox="0 0 2837.62 750.87"><defs><style>.cls-1{fill:url(#linear-gradient);}.cls-2{fill:url(#linear-gradient-2);}.cls-3{fill:url(#linear-gradient-3);}.cls-4{fill:url(#linear-gradient-4);}.cls-5{fill:url(#linear-gradient-5);}.cls-6{fill:url(#linear-gradient-6);}.cls-7{fill:url(#linear-gradient-7);}.cls-8{fill:url(#linear-gradient-8);}.cls-9{fill:#13304c;}</style><linearGradient id="linear-gradient" x1="236.99" y1="505.67" x2="787.84" y2="401.35" gradientUnits="userSpaceOnUse"><stop offset="0" stop-color="#5cdd31"/><stop offset="1" stop-color="#08974b"/></linearGradient><linearGradient id="linear-gradient-2" x1="212.03" y1="373.91" x2="762.89" y2="269.58" xlink:href="#linear-gradient"/><linearGradient id="linear-gradient-3" x1="242.99" y1="537.35" x2="793.84" y2="433.02" xlink:href="#linear-gradient"/><linearGradient id="linear-gradient-4" x1="172.93" y1="205.8" x2="834.12" y2="205.8" gradientUnits="userSpaceOnUse"><stop offset="0.07" stop-color="#08974b"/><stop offset="0.93" stop-color="#5cdd31"/></linearGradient><linearGradient id="linear-gradient-5" x1="212.03" y1="373.91" x2="762.89" y2="269.58" gradientUnits="userSpaceOnUse"><stop offset="0.33" stop-color="#5cdd31"/><stop offset="0.63" stop-color="#08974b"/></linearGradient><linearGradient id="linear-gradient-6" x1="242.99" y1="537.35" x2="793.84" y2="433.02" gradientUnits="userSpaceOnUse"><stop offset="0.41" stop-color="#5cdd31"/><stop offset="1" stop-color="#08974b"/></linearGradient><linearGradient id="linear-gradient-7" x1="82.38" y1="721.79" x2="742.69" y2="721.79" gradientUnits="userSpaceOnUse"><stop offset="0.07" stop-color="#08974b"/><stop offset="0.93" stop-color="#5cdd31"/></linearGradient><linearGradient id="linear-gradient-8" x1="501.95" y1="737.43" x2="337.12" y2="386.88" gradientUnits="userSpaceOnUse"><stop offset="0.13" stop-color="#08974b"/><stop offset="1" stop-color="#5cdd31"/></linearGradient></defs><path class="cls-1" d="M615.9,88.4H300.26C180.29,88.4,82.68,186,82.68,306V621.62c0,120,97.61,217.58,217.58,217.58H615.9c120,0,217.58-97.61,217.58-217.58V306C833.48,186,735.87,88.4,615.9,88.4ZM745.27,621.62C745.27,693,687.23,751,615.9,751H300.26c-71.33,0-129.37-58-129.37-129.37V306c0-71.34,58-129.38,129.37-129.38H615.9c71.33,0,129.37,58,129.37,129.38Z" transform="translate(-82.38 -88.36)"/><path class="cls-2" d="M458.08,429.65a44.1,44.1,0,0,0,44.1-44.11V269.07a44.11,44.11,0,0,0-88.21,0V385.54A44.11,44.11,0,0,0,458.08,429.65Z" transform="translate(-82.38 -88.36)"/><path class="cls-3" d="M563.05,332.68a44.1,44.1,0,0,0-5.95,62.09,126.61,126.61,0,0,1,29.24,81.49,128.27,128.27,0,0,1-256.53,0,126.6,126.6,0,0,1,29.26-81.49A44.11,44.11,0,1,0,291,338.64a216.72,216.72,0,0,0-49.41,137.62c0,119.36,97.11,216.47,216.47,216.47s216.47-97.11,216.47-216.47a216.76,216.76,0,0,0-49.41-137.62A44.1,44.1,0,0,0,563.05,332.68Z" transform="translate(-82.38 -88.36)"/><path class="cls-4" d="M768.91,151.45c-66.42-66.93-153-63-153-63H341.08C198.42,88.4,172.93,283,172.93,283c.89-17.39,32.19-106.42,127.33-106.42H615.9s217.58-3.52,217.58,146.63C833.48,323.24,845.19,228.32,768.91,151.45Z" transform="translate(-82.38 -88.36)"/><path class="cls-5" d="M458.08,429.65a44.1,44.1,0,0,0,44.1-44.11V269.07a44.11,44.11,0,0,0-88.21,0V385.54A44.11,44.11,0,0,0,458.08,429.65Z" transform="translate(-82.38 -88.36)"/><path class="cls-6" d="M563.05,332.68a44.1,44.1,0,0,0-5.95,62.09,126.61,126.61,0,0,1,29.24,81.49,128.27,128.27,0,0,1-256.53,0,126.6,126.6,0,0,1,29.26-81.49A44.11,44.11,0,1,0,291,338.64a216.72,216.72,0,0,0-49.41,137.62c0,119.36,97.11,216.47,216.47,216.47s216.47-97.11,216.47-216.47a216.76,216.76,0,0,0-49.41-137.62A44.1,44.1,0,0,0,563.05,332.68Z" transform="translate(-82.38 -88.36)"/><path class="cls-7" d="M147.47,776.14c68,66.56,153,63.05,153,63.05H575.31c140.4,0,167.38-191.8,167.38-191.8C739.83,672.22,702.19,751,616.12,751H300.49S82.91,754.51,82.91,604.36C82.91,604.36,72.19,702.45,147.47,776.14Z" transform="translate(-82.38 -88.36)"/><path class="cls-8" d="M364.72,564.1h0a128,128,0,0,1-5.66-169.32A44.11,44.11,0,1,0,291,338.64a216.72,216.72,0,0,0-49.41,137.62c0,119.36,97.11,216.47,216.47,216.47a215.78,215.78,0,0,0,153.18-63.67C487.13,702.45,364.72,564.1,364.72,564.1Z" transform="translate(-82.38 -88.36)"/><path class="cls-9" d="M1070.47,581v51.7h-31.62q-39.73,0-60.88-19.23t-21.15-64.08V446.84h-32.9V396h32.9V337.46h60.24V396h53v50.85h-53V550.23q0,17.1,6.84,23.93T1047,581Z" transform="translate(-82.38 -88.36)"/><path class="cls-9" d="M1208.89,405.61q21.79-13,48.71-13v64.52h-17.52q-66.22,0-66.22,61.52V632.69h-60.24V396h60.24v45.29A99,99,0,0,1,1208.89,405.61Z" transform="translate(-82.38 -88.36)"/><path class="cls-9" d="M1517.36,396v236.7h-60.24V584.84a75.43,75.43,0,0,1-31,37.38q-21.59,13.46-49.78,13.46-41,0-65.37-26.92t-24.35-75.19V396h59.81V526.73q0,28.2,14.53,43.79t39.31,15.6q26.06,0,41.44-16.66t15.38-47.86V396Z" transform="translate(-82.38 -88.36)"/><path class="cls-9" d="M1818.57,560.48q-18.81,34.18-54.47,53.2t-84.81,19H1572.05V331.05h107.24q49.13,0,84.81,18.59t54.47,52.55q18.79,34,18.8,79.25Q1837.37,526.31,1818.57,560.48Zm-69-7.26q26.7-25.63,26.7-71.78,0-46.56-26.7-72.2t-75.41-25.64h-41.87V578.85h41.87Q1722.87,578.85,1749.57,553.22Z" transform="translate(-82.38 -88.36)"/><path class="cls-9" d="M1942.9,396v236.7h-60.25V396Z" transform="translate(-82.38 -88.36)"/><path class="cls-9" d="M2141.56,407.1a76.76,76.76,0,0,1,30.34,38V396h59.82V633.54q0,32.9-13,59.18A96.24,96.24,0,0,1,2179.81,734q-25.86,14.94-62.6,14.95-51.27,0-82.88-24.35t-38.46-66.23h59.39q5.13,18,19.87,28t37.81,10q26.49,0,42.73-15.6t16.23-47.21V583.13a77.88,77.88,0,0,1-30.34,38.24q-21.36,14.31-51.27,14.31t-53.83-14.53q-23.93-14.52-37.38-42.08t-13.46-64.73q0-37.17,13.46-64.73t37.38-42.08Q2060.38,393,2090.29,393T2141.56,407.1Zm-77.75,56.83q-17.1,18.38-17.09,50.41t17.09,50.2q17.08,18.16,45.28,18.16,27.35,0,45.08-18.58t17.73-49.78q0-31.61-17.73-50.2t-45.08-18.59Q2080.89,445.55,2063.81,463.93Z" transform="translate(-82.38 -88.36)"/><path class="cls-9" d="M2346.64,396v236.7H2286.4V396Z" transform="translate(-82.38 -88.36)"/><path class="cls-9" d="M2527.79,581v51.7h-31.61q-39.73,0-60.89-19.23t-21.14-64.08V446.84h-32.9V396h32.9V337.46h60.24V396h53v50.85h-53V550.23q0,17.1,6.84,23.93t23.06,6.83Z" transform="translate(-82.38 -88.36)"/><path class="cls-9" d="M2714.92,407.1a76.82,76.82,0,0,1,30.34,38V396h59.81v236.7h-59.81V583.13a77.93,77.93,0,0,1-30.34,38.24q-21.36,14.31-51.27,14.31t-53.83-14.53q-23.93-14.52-37.38-42.08T2559,514.34q0-37.17,13.46-64.73t37.38-42.08Q2633.75,393,2663.65,393T2714.92,407.1Zm-77.76,56.83q-17.09,18.38-17.08,50.41t17.08,50.2q17.09,18.16,45.29,18.16,27.35,0,45.08-18.58t17.73-49.78q0-31.61-17.73-50.2t-45.08-18.59Q2654.25,445.55,2637.16,463.93Z" transform="translate(-82.38 -88.36)"/><path class="cls-9" d="M2920,316.52V632.69h-60.24V316.52Z" transform="translate(-82.38 -88.36)"/><circle class="cls-9" cx="1830.39" cy="240.55" r="37.76"/><circle class="cls-9" cx="2234.14" cy="240.55" r="37.76"/></svg>