<svg xmlns="http://www.w3.org/2000/svg" width="37" height="37" viewBox="0 0 37 37">
    <defs>
        <linearGradient id="a" x1="-6.64%" x2="163.943%" y1="34.691%" y2="80.523%">
            <stop offset="0%" stop-color="#3FA0A0"/>
            <stop offset="47%" stop-color="#50B8B4"/>
            <stop offset="100%" stop-color="#53C2BF"/>
        </linearGradient>
        <linearGradient id="b" x1="7.957%" x2="122.151%" y1="19.053%" y2="134.188%">
            <stop offset="0%" stop-color="#CB9698"/>
            <stop offset="23%" stop-color="#E0A5A7"/>
            <stop offset="47%" stop-color="#F2B2B5"/>
            <stop offset="90%" stop-color="#D39C9E"/>
            <stop offset="100%" stop-color="#CB9698"/>
        </linearGradient>
        <linearGradient id="c" x1="-102.996%" x2="92.58%" y1="19.725%" y2="61.655%">
            <stop offset="0%" stop-color="#D1B12B"/>
            <stop offset="47%" stop-color="#E2C025"/>
            <stop offset="100%" stop-color="#D1B12B"/>
        </linearGradient>
    </defs>
    <g fill="none" fill-rule="evenodd">
        <g fill-rule="nonzero">
            <path fill="#FDD204" d="M37 18.5a18.412 18.412 0 0 0-4.19-11.71 21.37 21.37 0 0 1-1.183 7.196c.501 1.452.757 2.978.757 4.514 0 6.819-4.939 12.498-11.426 13.662a19.2 19.2 0 0 1-1.741 4.82C29.087 36.604 37 28.46 37 18.5z"/>
            <path fill="#F7B4B7" d="M29.793 3.862A18.403 18.403 0 0 0 18.5 0C11.571 0 5.523 3.832 2.354 9.485c.812-.1 1.632-.129 2.45-.084.975.053 1.945.181 2.9.382 2.55-3.148 6.44-5.167 10.796-5.167.982 0 1.961.105 2.921.312 4.772 1.026 8.637 4.51 10.206 9.058a21.37 21.37 0 0 0 1.183-7.197 18.668 18.668 0 0 0-3.017-2.927z"/>
            <path fill="#50C1BF" d="M18.5 32.384a13.796 13.796 0 0 1-5.873-1.308c-4.162-1.952-7.202-5.907-7.87-10.618A13.824 13.824 0 0 1 7.704 9.781a19.123 19.123 0 0 0-2.9-.382 13.802 13.802 0 0 0-2.45.084A18.404 18.404 0 0 0 0 18.5c0 9.779 7.63 17.807 17.249 18.453.414.028.83.047 1.251.047.24 0 .479-.009.717-.018a19.2 19.2 0 0 0 1.74-4.82c-.81.147-1.633.221-2.457.222z"/>
        </g>
        <path d="M4.757 20.458c.668 4.711 3.708 8.669 7.87 10.618a13.807 13.807 0 0 0 8.33 1.086c6.488-1.164 11.427-6.843 11.427-13.662 0-1.536-.256-3.062-.757-4.514-1.569-4.546-5.434-8.034-10.206-9.058a13.86 13.86 0 0 0-2.921-.312c-4.356 0-8.246 2.019-10.796 5.167a13.824 13.824 0 0 0-2.947 10.675z"/>
        <path fill="#50C1BF" fill-rule="nonzero" d="M18.5 32.384a13.796 13.796 0 0 1-5.873-1.308c-4.162-1.952-7.202-5.907-7.87-10.618A13.824 13.824 0 0 1 7.704 9.781a19.354 19.354 0 0 0-2.185-.317A15.739 15.739 0 0 0 2.684 18.5c0 8.735 7.082 15.816 15.816 15.816.631 0 1.262-.04 1.888-.116.227-.668.417-1.349.57-2.038-.811.147-1.634.221-2.458.222z"/>
        <path fill="#F7B4B7" fill-rule="nonzero" d="M18.5 2.684c-5.377 0-10.123 2.684-12.981 6.784.734.064 1.463.17 2.185.317 2.55-3.15 6.44-5.169 10.796-5.169.982 0 1.961.105 2.921.312 4.772 1.026 8.637 4.51 10.206 9.058.34-.976.607-1.976.798-2.992-2.673-4.948-7.906-8.31-13.925-8.31z"/>
        <path fill="#FDD204" fill-rule="nonzero" d="M32.384 18.5c0 6.819-4.939 12.498-11.426 13.662a19.465 19.465 0 0 1-.57 2.037c7.845-.934 13.928-7.605 13.928-15.699.004-2.62-.646-5.2-1.891-7.506a20.64 20.64 0 0 1-.798 2.992c.501 1.452.757 2.978.757 4.514z"/>
        <path fill="url(#a)" fill-rule="nonzero" d="M18.5 34.316c-8.736 0-15.816-7.082-15.816-15.816a15.739 15.739 0 0 1 2.835-9.032c-.239-.022-.471-.053-.715-.067a13.808 13.808 0 0 0-2.45.084 18.247 18.247 0 0 0-2.179 6.497l-.03.237a19.22 19.22 0 0 0-.086.872c-.006.097-.017.193-.023.291-.021.366-.036.734-.036 1.105v.013c0 .313.008.623.024.932.006.118.017.234.025.35.013.188.024.377.043.563.016.164.04.326.06.489.017.135.031.271.053.406.028.193.064.384.098.575.018.1.034.202.053.301.043.215.091.428.142.64.017.072.032.145.05.218.058.234.122.465.19.696l.04.14c.075.252.156.5.242.747l.023.069c.094.266.194.53.299.792 2.597 6.414 8.692 11.048 15.906 11.534.412.028.825.047 1.244.047h.008c.24 0 .479-.009.717-.018a18.91 18.91 0 0 0 1.171-2.782c-.626.076-1.257.116-1.888.117z"/>
        <path fill="url(#b)" fill-rule="nonzero" d="M4.804 9.401c.244.013.476.045.715.067 2.858-4.1 7.604-6.784 12.981-6.784 6.02 0 11.252 3.362 13.925 8.31.264-1.386.393-2.794.385-4.204a18.668 18.668 0 0 0-3.017-2.928 18.45 18.45 0 0 0-7.325-3.43l-.109-.026c-.163-.035-.328-.064-.491-.095-.123-.022-.245-.045-.368-.065A18.832 18.832 0 0 0 19.68.04c-.1-.006-.2-.014-.301-.019A18.635 18.635 0 0 0 18.5 0h-.007c-.387 0-.772.016-1.154.04l-.317.024c-.303.024-.604.056-.903.094-.085.01-.17.02-.256.032-.775.111-1.542.272-2.297.481l-.14.04A18.586 18.586 0 0 0 2.356 9.484c.812-.1 1.632-.129 2.45-.084z"/>
        <path fill="url(#c)" fill-rule="nonzero" d="M36.977 17.605c-.004-.101-.013-.202-.02-.303a18.532 18.532 0 0 0-.043-.572c-.012-.129-.028-.257-.043-.384a17.597 17.597 0 0 0-.294-1.778c-.023-.105-.047-.206-.071-.308a18.625 18.625 0 0 0-.134-.545l-.04-.14A18.467 18.467 0 0 0 32.81 6.79a21.766 21.766 0 0 1-.385 4.203 15.747 15.747 0 0 1 1.891 7.506c0 8.096-6.083 14.767-13.928 15.699a18.91 18.91 0 0 1-1.171 2.781c8.325-.317 15.259-6.164 17.224-13.964l.01-.045c.068-.272.13-.546.186-.822.011-.053.019-.109.029-.163.046-.24.09-.48.126-.723.016-.105.026-.208.04-.312.026-.197.053-.393.074-.591.017-.178.028-.358.04-.537.01-.128.023-.255.03-.384a18.525 18.525 0 0 0 .001-1.834z"/>
    </g>
</svg>
