<?xml version="1.0" encoding="utf-8"?>
<!-- Generator: Adobe Illustrator 26.2.1, SVG Export Plug-In . SVG Version: 6.00 Build 0)  -->
<svg version="1.1" id="Uniguest_Group_Logo" xmlns="http://www.w3.org/2000/svg" xmlns:xlink="http://www.w3.org/1999/xlink"
	 x="0px" y="0px" viewBox="0 0 1000 249.7" style="enable-background:new 0 0 1000 249.7;" xml:space="preserve">
<style type="text/css">
	.st0{fill:#454444;}
	.st1{fill:#FFC52B;}
</style>
<g id="Uniguest_Group">
	<g id="Guest">
		<path id="t_00000058583870727063236820000015107731574843692199_" class="st0" d="M995.9,175.3c-4.5,0.8-9.6,1.3-15.2,1.3
			c-7.6,0-13.2-1.9-16.9-5.6c-5.4-5.4-6.5-15-6.5-22.5V95.1V80v-0.3l40.4,0v0h0V64.4h-40.4v-4.9v-22v-2H942v2v22v4.9h-19.7v0.3h0v15
			H942V80v15v54.4c0,5,0.5,9.5,1.4,13.5c4.4,20.4,18.8,29,37.4,29c6.6,0,13.1-0.6,19.3-1.8C999.2,187.1,997.6,181.2,995.9,175.3z"/>
		<path id="s_00000071535363692173914540000010072995424519877270_" class="st0" d="M894.8,88.5c-5.9-13.1-24.6-26.2-52.3-26.2l0,0
			h-0.4c-31.5,0-48.7,15.2-49.4,34.9c-0.1,3.1,0.3,6.6,1.6,10.2c3.1,8.6,11.5,17.5,30.8,22.2c0,0,0.1,0,0.2,0c1,0.2,4.7,1,9.6,1.8
			c1.2,0.2,3.8,0.4,3.8,0.4c1.4,0.1,1.8,0.1,3.5,0.1c0.4,0,0.9,0,1.6,0c0.2,0,0.4,0,0.5,0c1.5,0,3,0,4.4,0.1c4.7,0.2,9.3,1,13.8,2.3
			c1.6,0.5,3.1,1,4.4,1.5c0,0,0.1,0,0.1,0c5.2,2,8.6,4.3,10.7,6.3c3.3,3.2,4.9,6.9,4.9,11.6c0,6.5-2.4,11.3-7.7,15.1
			c-4.7,3.4-13.9,7.5-30.7,7.7c-26.1,0-41-13.9-43.6-20.9L786,161l0,0c1,2.4,1.2,2.8,2.4,4.6l2.1,2.9c9.1,12.3,28.7,23.3,53.8,23.3
			l0.1,0l0.1,0c16.7-0.2,30-3.8,39.4-10.6c9.2-6.6,14.1-16.2,14.1-27.6c0-8.9-3.3-16.5-9.7-22.6l0,0l0,0c-4-3.8-9.3-6.9-15.7-9.4
			l-2.7-1h-0.2c-0.9-0.3-1.8-0.6-2.8-0.9c-5.5-1.6-11.4-2.6-17.4-2.9c-1.6-0.1-3.4-0.1-5.2-0.1l-0.6,0c-0.6,0-1.1,0-1.5,0
			c-1.1,0-1.3,0-2.2-0.1c-1.8-0.2-2.6-0.3-2.9-0.3c-4-0.6-6.9-1.3-8.2-1.6l-0.5-0.1l0,0c-10.7-2.7-17.7-7.1-19.7-12.4
			c-0.5-1.4-0.7-2.9-0.7-4.4c0.5-14.8,17.9-20.1,34.1-20.1h0.4c22.2,0,35,10.2,38.2,17.1"/>
		<path id="e_00000172415930956350433630000004469812257353506232_" class="st0" d="M761.8,127.1c0-4.1-0.3-7.9-0.8-11.6
			c-5.1-37.6-35.3-53.2-60.6-53.2c-27.9,0-61.4,18.9-61.4,64.8c0,45.9,33.6,64.8,61.4,64.8h2.4c20.9,0,44.9-9.8,56.6-32.6l-13.4-7.6
			c-9.5,19.1-29.9,24.9-43.3,24.9c-0.8,0-1.5,0-2.3,0v0c-16.5,0-44.2-9.7-46-45.7h107.4V127.1z M655.3,115.5
			c5.1-29.6,29.9-37.9,45.1-37.9c15.3,0,40,8.3,45.1,37.9H655.3z"/>
		<path id="u_00000114771686535502943620000016267720717386235042_" class="st0" d="M516,64.5v60.8c0,37.4,12.9,52.4,40.7,52.4
			c27.6,0,40.7-15.1,40.7-52.4V64.5h15.3v60.8c0,45.6-19.3,66.7-56.1,66.7c-36.9,0-56.1-21-56.1-66.7V64.5H516z"/>
		<path id="g_00000047044702691949073620000002845039400347253136_" class="st0" d="M410.2,62.3c-39.2,0-62.2,29-62.2,64.8
			s26.3,64.8,62.2,64.8c19.2,0,35.7-8.3,46.9-21.6v14.6c0,34.2-15,49.5-48.8,49.5c-18.7,0-33.6-7.8-41.8-22l-13.3,7.7
			c10.4,17.8,29.3,29.6,55.1,29.6c48.8,0,64.1-29,64.1-64.8v-57.8C472.4,91.3,449.4,62.3,410.2,62.3z M410.2,176.6
			c-26.7,0-46.9-21.3-46.9-49.5c0-14.1,4.4-26.7,12.4-35.5c8.3-9.1,20.2-13.9,34.5-13.9c14.3,0,26.2,4.8,34.5,13.9
			c8,8.8,12.4,21.4,12.4,35.5C457,155.3,436.9,176.6,410.2,176.6z"/>
	</g>
	<g id="Uni">
		<rect id="i" x="297.9" y="64.4" class="st1" width="23.9" height="125.5"/>
		<path id="n" class="st1" d="M172.8,189.9v-56.6c0-34.2,10.6-48.2,36.4-48.2c25.9,0,36.4,14,36.4,48.2v56.6h23.9v-56.6
			c0-47.1-20.3-71-60.3-71c-40,0-60.3,23.9-60.3,71v56.6H172.8z"/>
		<g id="U">
			<path class="st1" d="M60.3,0C49.4,0,40.5,8.9,40.5,19.8s8.9,19.8,19.8,19.8s19.8-8.9,19.8-19.8S71.3,0,60.3,0z"/>
			<path class="st1" d="M96.8,64.4v56.6c0,34.2-10.6,48.2-36.4,48.2c-25.9,0-36.4-14-36.4-48.2V64.4H0v56.6c0,47.1,20.3,71,60.3,71
				c40,0,60.3-23.9,60.3-71V64.4H96.8z"/>
		</g>
	</g>
</g>
</svg>
