<svg xmlns="http://www.w3.org/2000/svg" xmlns:xlink="http://www.w3.org/1999/xlink" id="Group_10936" x="0px" y="0px" viewBox="0 0 329.5 64.6" style="enable-background:new 0 0 329.5 64.6;" xml:space="preserve"><style type="text/css">	.st0{enable-background:new    ;}	.st1{fill:#3C82FF;}	.st2{fill:#FFFFFF;}</style><g id="Group_10432" transform="translate(76.867 3.753)">	<g class="st0">		<path d="M19.2,27.4c0,5.9-2.8,8.8-8.4,8.8c-5.4,0-8-2.8-8-8.5V14.9h3.5V27c0,4.1,1.6,6.2,4.8,6.2c3.1,0,4.6-2,4.6-6V14.9h3.5V27.4   z"></path>		<path d="M40.3,35.9h-4.1l-3.4-5.6c-0.3-0.5-0.6-1-0.9-1.3c-0.3-0.4-0.6-0.7-0.9-0.9s-0.6-0.4-1-0.5s-0.7-0.2-1.2-0.2h-1.4v8.5   h-3.5v-21h6.9c1,0,1.9,0.1,2.7,0.4s1.6,0.6,2.2,1.1c0.6,0.5,1.1,1.1,1.4,1.8c0.3,0.7,0.5,1.5,0.5,2.5c0,0.7-0.1,1.4-0.3,2   s-0.5,1.2-0.9,1.7s-0.9,0.9-1.5,1.2s-1.2,0.6-1.9,0.8v0.1c0.4,0.2,0.7,0.5,1,0.7s0.6,0.5,0.8,0.8s0.5,0.6,0.8,0.9s0.5,0.7,0.8,1.2   L40.3,35.9z M27.6,17.7v6.8h2.9c0.5,0,1-0.1,1.5-0.2c0.5-0.1,0.8-0.4,1.2-0.7s0.6-0.7,0.8-1.1s0.3-1,0.3-1.5c0-1-0.3-1.8-1-2.4   s-1.5-0.8-2.7-0.8L27.6,17.7L27.6,17.7z"></path>		<path d="M59.3,14.9l-7.5,21h-3.9l-7.4-21h3.7l5.2,15.9c0.2,0.5,0.3,1.1,0.4,1.8h0.1c0.1-0.6,0.2-1.2,0.4-1.8l5.3-15.9   C55.6,14.9,59.3,14.9,59.3,14.9z"></path>		<path d="M73.8,35.9H62v-21h11.3v3h-7.8v5.9h7.2v2.9h-7.2V33h8.3C73.8,33,73.8,35.9,73.8,35.9z"></path>	</g>	<g class="st0">		<path d="M85.3,35.2v-1.7c1.5,1,3,1.4,4.6,1.4s2.9-0.3,3.7-1s1.3-1.6,1.3-2.8c0-1.1-0.3-1.9-0.9-2.6s-1.8-1.5-3.7-2.6   c-2.1-1.2-3.5-2.3-4-3.1c-0.6-0.8-0.8-1.8-0.8-2.9c0-1.5,0.6-2.7,1.7-3.8s2.7-1.6,4.6-1.6c1.3,0,2.5,0.2,3.8,0.6v1.5   c-1.2-0.6-2.5-0.8-3.9-0.8s-2.6,0.4-3.4,1.1S87,18.5,87,19.7c0,1.1,0.3,1.9,0.9,2.6s1.8,1.5,3.7,2.6c2,1.1,3.3,2.1,3.9,3   s1,1.9,1,3c0,1.6-0.6,2.9-1.7,3.9s-2.7,1.5-4.7,1.5c-0.7,0-1.6-0.1-2.5-0.3S85.8,35.5,85.3,35.2z"></path>		<path d="M119.4,35.9v-9c0-1.9-0.3-3.2-0.9-4s-1.5-1.1-2.8-1.1c-1.2,0-2.2,0.5-3.1,1.5s-1.3,2.3-1.3,3.8v8.8H110v-9.1   c0-3.3-1.3-5-3.8-5c-1.2,0-2.2,0.5-3,1.5s-1.2,2.3-1.2,4v8.6h-1.3v-15h1.3v2.5h0.1c1-1.9,2.6-2.9,4.6-2.9c1.1,0,2,0.3,2.8,0.9   s1.3,1.5,1.6,2.5c0.5-1.1,1.1-1.9,2-2.5s1.8-0.9,2.8-0.9c3.3,0,4.9,2,4.9,6.1v9.3H119.4z"></path>		<path d="M134.2,35.9v-3h-0.1c-0.5,1-1.2,1.8-2.1,2.5c-0.9,0.6-1.9,0.9-3,0.9c-1.4,0-2.6-0.4-3.4-1.2s-1.2-1.8-1.2-3   c0-2.6,1.7-4.2,5.2-4.7l4.6-0.7c0-3.2-1.2-4.8-3.6-4.8c-1.7,0-3.3,0.7-4.8,2v-1.6c0.6-0.4,1.3-0.8,2.3-1.1c1-0.3,1.8-0.5,2.7-0.5   c1.5,0,2.7,0.5,3.6,1.4s1.3,2.3,1.3,4.2v9.8h-1.5V35.9z M130.1,28.4c-1.6,0.2-2.7,0.6-3.3,1.1s-1,1.3-1,2.5c0,0.9,0.3,1.6,0.9,2.2   s1.4,0.9,2.5,0.9c1.4,0,2.6-0.5,3.6-1.6s1.4-2.4,1.4-4.1v-1.5L130.1,28.4z"></path>		<path d="M147.1,22.3c-0.4-0.3-1-0.5-1.6-0.5c-1.2,0-2.2,0.6-3,1.8s-1.2,3-1.2,5.2v7H140v-15h1.3v3.3h0.1c0.3-1.1,0.9-2,1.6-2.7   s1.6-1,2.6-1c0.6,0,1.1,0.1,1.5,0.3L147.1,22.3L147.1,22.3z"></path>		<path d="M157.2,35.7c-0.7,0.3-1.4,0.5-2,0.5c-2.2,0-3.3-1.3-3.3-4V22.1h-2.7v-1.2h2.7V17c0.2-0.1,0.4-0.2,0.7-0.2   c0.2-0.1,0.5-0.1,0.7-0.2V21h4v1.2h-4V32c0,1,0.2,1.8,0.5,2.2c0.3,0.5,0.9,0.7,1.7,0.7c0.6,0,1.2-0.2,1.8-0.5L157.2,35.7   L157.2,35.7z"></path>		<path d="M177.3,36.3c-3,0-5.3-1-7.1-3s-2.6-4.5-2.6-7.7c0-3.3,0.9-6,2.7-8s4.3-3,7.4-3c2.8,0,5.1,1,6.9,2.9s2.6,4.5,2.6,7.6   c0,3.5-0.9,6.2-2.7,8.2S180.3,36.3,177.3,36.3z M177.5,15.9c-2.4,0-4.5,0.9-6,2.7s-2.4,4.1-2.4,6.9c0,2.9,0.7,5.2,2.2,6.9   s3.5,2.6,6,2.6c2.6,0,4.7-0.8,6.2-2.5s2.3-4.1,2.3-7.1s-0.7-5.3-2.2-7S180,15.9,177.5,15.9z"></path>		<path d="M197.8,15.1c-0.4-0.3-0.9-0.4-1.6-0.4c-1.8,0-2.8,1.2-2.8,3.7v2.5h4v1.2h-4v13.8h-1.3V22.1h-2.7v-1.2h2.7v-2.6   c0-1.6,0.4-2.8,1.2-3.6s1.8-1.2,3-1.2c0.6,0,1.2,0.1,1.6,0.3L197.8,15.1L197.8,15.1z"></path>		<path d="M206.1,15.1c-0.4-0.3-0.9-0.4-1.6-0.4c-1.8,0-2.8,1.2-2.8,3.7v2.5h4v1.2h-4v13.8h-1.3V22.1h-2.7v-1.2h2.7v-2.6   c0-1.6,0.4-2.8,1.2-3.6s1.8-1.2,3-1.2c0.6,0,1.2,0.1,1.6,0.3L206.1,15.1L206.1,15.1z"></path>		<path d="M208.4,17.1c-0.3,0-0.6-0.1-0.8-0.3s-0.3-0.5-0.3-0.8c0-0.3,0.1-0.6,0.3-0.8s0.5-0.3,0.8-0.3s0.6,0.1,0.8,0.3   s0.3,0.5,0.3,0.8c0,0.3-0.1,0.6-0.3,0.8S208.7,17.1,208.4,17.1z M207.8,35.9v-15h1.3v15H207.8z"></path>		<path d="M223.6,35.2c-1.1,0.7-2.4,1-4,1c-2,0-3.7-0.7-4.9-2.1c-1.3-1.4-1.9-3.2-1.9-5.5c0-2.4,0.7-4.3,2.1-5.9s3.2-2.3,5.4-2.3   c1.1,0,2.3,0.2,3.3,0.7v1.5c-1.1-0.7-2.3-1-3.5-1c-1.8,0-3.2,0.6-4.3,1.9s-1.6,2.9-1.6,4.9c0,1.9,0.5,3.5,1.5,4.7   c1,1.2,2.3,1.8,4,1.8c1.5,0,2.8-0.4,3.9-1.2V35.2z"></path>		<path d="M227.6,28.5c0,2.1,0.5,3.7,1.4,4.8s2.3,1.7,3.9,1.7c1.7,0,3.3-0.6,4.9-1.9v1.4c-1.6,1.1-3.3,1.7-5.2,1.7s-3.5-0.7-4.7-2.1   s-1.8-3.3-1.8-5.9c0-2.2,0.6-4,1.9-5.5s2.9-2.2,4.9-2.2c1.9,0,3.3,0.7,4.3,2s1.5,3.1,1.5,5.4v0.6   C238.7,28.5,227.6,28.5,227.6,28.5z M237.3,27.2c-0.1-1.7-0.5-3.1-1.2-4s-1.8-1.4-3.2-1.4s-2.6,0.5-3.5,1.4s-1.5,2.3-1.7,4.1h9.6   V27.2z"></path>	</g></g><ellipse id="Ellipse_1" class="st1" cx="26.2" cy="29.7" rx="25.8" ry="25.8"></ellipse><path id="Path_3" class="st1" d="M26.2,60.7l-4.4-5.8l4.3-5.8l4.4,5.8L26.2,60.7z"></path><path id="Path_460" class="st2" d="M34.3,31.9l0.7-0.1c0.7-0.1,1.4-0.3,2.1-0.6c0.5-0.2,1-0.6,1.4-1c0.3-0.4,0.6-0.8,0.8-1.3 s0.2-1,0.2-1.5v-2.3c0-1.3-0.5-2.5-1.4-3.3c-0.9-0.9-2.1-1.4-3.4-1.4H12.5v3.9h20.1v4.1h-6.9l7,10.7h7L34.3,31.9z"></path></svg>