<?xml version="1.0" encoding="UTF-8"?>
<svg xmlns="http://www.w3.org/2000/svg" width="116" height="32" viewBox="0 0 116 32" fill="none">
  <path fill-rule="evenodd" clip-rule="evenodd" d="M19.5317 30.7989C17.5325 31.9552 14.976 31.2656 13.8197 29.2664L0.918892 6.91292C-0.237448 4.91369 0.452175 2.35721 2.45138 1.20087C4.45059 0.0445361 7.00706 0.734158 8.16341 2.73337L21.0712 25.0869C22.2206 27.0931 21.531 29.6496 19.5317 30.7989ZM30.099 9.00265C32.4073 9.00265 34.2785 7.13141 34.2785 4.82313C34.2785 2.51484 32.4073 0.643605 30.099 0.643605C27.7907 0.643605 25.9194 2.51484 25.9194 4.82313C25.9194 7.13141 27.7907 9.00265 30.099 9.00265ZM61.2045 10.9618H62.9709V8.70388H61.2045V10.9618ZM61.2045 30.8991H62.9709V14.3103H61.2045V30.8991ZM50.5395 30.8991H52.4134L58.4345 14.3103H56.5913L51.4765 28.4876L46.3462 14.3103H44.5184L50.5395 30.8991ZM77.0029 30.4844C76.0608 31.068 74.9446 31.3599 73.6544 31.3599C72.0979 31.3599 70.7718 30.9759 69.6761 30.2079C68.5907 29.4296 67.7664 28.38 67.2032 27.0591C66.64 25.7279 66.3584 24.2328 66.3584 22.574C66.3584 20.9356 66.64 19.461 67.2032 18.1503C67.7664 16.8293 68.5753 15.7848 69.6301 15.0168C70.695 14.2386 71.9801 13.8495 73.4854 13.8495C74.7654 13.8495 75.8816 14.1157 76.8339 14.6482C77.7862 15.1704 78.5593 15.8975 79.1533 16.8293V8.78067H80.9197V30.8991H79.3069V28.0882C78.7232 29.0917 77.9552 29.8904 77.0029 30.4844ZM70.7053 28.7333C71.5245 29.358 72.5433 29.6703 73.7619 29.6703C75.0009 29.6703 76.0301 29.3631 76.8493 28.7487C77.6685 28.124 78.2829 27.2792 78.6925 26.2143C79.1021 25.1391 79.3069 23.9256 79.3069 22.574C79.3069 21.2018 79.1021 19.9884 78.6925 18.9336C78.2829 17.8789 77.6685 17.0495 76.8493 16.4453C76.0301 15.8412 75.0112 15.5391 73.7926 15.5391C72.5331 15.5391 71.4937 15.8514 70.6745 16.476C69.8553 17.0904 69.2461 17.9301 68.8467 18.9951C68.4473 20.0498 68.2477 21.2428 68.2477 22.574C68.2477 23.9154 68.4525 25.1237 68.8621 26.1989C69.2717 27.2639 69.8861 28.1087 70.7053 28.7333ZM91.7478 31.3599C93.3658 31.3599 94.8045 30.9708 96.064 30.1925C97.3235 29.4041 98.2861 28.2981 98.9517 26.8748L97.3542 26.1682C96.791 27.2844 96.0282 28.1445 95.0656 28.7487C94.1133 29.3426 92.9971 29.6396 91.7171 29.6396C89.9354 29.6396 88.5376 29.0713 87.5238 27.9346C86.5101 26.7877 85.9674 25.1801 85.8957 23.1116H99.305C99.3459 20.2034 98.6957 17.9353 97.3542 16.3071C96.0128 14.6687 94.1338 13.8495 91.7171 13.8495C90.1299 13.8495 88.7578 14.2079 87.6006 14.9247C86.4435 15.6313 85.5526 16.6399 84.928 17.9506C84.3034 19.2613 83.991 20.8229 83.991 22.6354C83.991 24.4172 84.3034 25.9634 84.928 27.2741C85.5629 28.5746 86.4589 29.5833 87.616 30.3001C88.7834 31.0066 90.1606 31.3599 91.7478 31.3599ZM91.7478 15.5237C93.4272 15.5237 94.743 16.0357 95.6954 17.0597C96.6579 18.0837 97.2262 19.5685 97.4003 21.5141H85.9264C86.0902 19.5993 86.6688 18.1247 87.6621 17.0905C88.6656 16.046 90.0275 15.5237 91.7478 15.5237ZM104.177 30.8991H102.395V14.3103H104.008V16.9215C104.346 16.3276 104.735 15.8412 105.176 15.4623C105.841 14.8582 106.655 14.4639 107.618 14.2796C108.591 14.0953 109.441 14.1055 110.168 14.3103V15.9846C109.512 15.831 108.811 15.8002 108.063 15.8924C107.326 15.9846 106.64 16.302 106.005 16.8447C105.442 17.3362 105.027 17.9097 104.761 18.565C104.505 19.2102 104.341 19.8911 104.269 20.6079C104.208 21.3145 104.177 22.0057 104.177 22.6815V30.8991ZM113.076 10.9618H114.842V8.70388H113.076V10.9618ZM113.076 30.8991H114.842V14.3103H113.076V30.8991Z" fill="#212121"></path>
</svg>
