<svg width="183" height="32" fill="none" xmlns="http://www.w3.org/2000/svg"><path d="M11.433 26.788l-7.15-21.51h1.595l3.798 11.52c1.051 3.127 1.915 5.844 2.522 8.235h.095c.64-2.424 1.629-5.204 2.746-8.235l4.178-11.52h1.63l-7.978 21.51h-1.436zM31.27 5.278h-1.498v21.51h1.498V5.278zm31.779-4.062h-1.504v26.127h1.504V1.216zM41.218 24.397a8.57 8.57 0 004.723 1.435c3.193 0 5.173-1.822 5.173-4.472 0-2.425-1.246-3.827-4.34-5.04-3.481-1.213-5.556-3.002-5.556-5.935 0-3.162 2.617-5.462 6.256-5.462 2.007 0 3.544.544 4.275 1.024l-.573 1.276c-.574-.411-1.947-1.022-3.798-1.022-3.477 0-4.659 2.237-4.659 3.928 0 2.391 1.37 3.609 4.468 4.815 3.542 1.437 5.424 3.033 5.424 6.257 0 3.128-2.233 5.935-6.828 5.935-1.851 0-4.022-.636-5.137-1.469l.572-1.27zm31.932-8.201c0 4.848 2.808 9.668 7.914 9.668s7.948-4.633 7.948-9.96c0-4.53-2.491-9.703-7.884-9.703-5.457 0-7.979 4.982-7.979 9.994m17.432-.385c0 7.599-4.63 11.328-9.61 11.328-5.299 0-9.383-4.18-9.383-10.881 0-7.055 4.244-11.332 9.641-11.332 5.422 0 9.352 4.215 9.352 10.885zm7.455 10.978V5.278h1.437l8.394 12.7c1.723 2.682 2.967 4.695 4.02 6.766l.06-.03c-.222-2.905-.249-5.363-.249-8.749V5.278h1.496v21.51h-1.434l-8.201-12.511c-1.597-2.491-3.064-4.757-4.183-6.957l-.063.033c.16 2.647.191 4.978.191 8.553v10.883h-1.468zm35.256-10.691h-8.615v9.415h9.637v1.277h-11.139V5.28H133.8v1.275h-9.123v8.268h8.615v1.275zm23.128 9.924c-1.084.574-3.159 1.116-5.777 1.116-5.201 0-10.181-3.35-10.181-10.976 0-6.384 4.12-11.237 10.885-11.237 2.742 0 4.34.609 5.009.96l-.509 1.276c-1.084-.543-2.649-.925-4.47-.925-5.807 0-9.349 3.764-9.349 9.96 0 5.836 3.351 9.605 9.093 9.605 1.853 0 3.642-.382 4.851-.989l.448 1.21zm13.478-19.466h-7.021V5.279h15.576v1.276h-7.024v20.233h-1.531V6.555z" fill="#181818"/></svg>