<svg id="logo_menu_waapiti" width="151" height="44" viewBox="0 0 151 44" fill="none" xmlns="http://www.w3.org/2000/svg">
    <path
        d="M88.6489 25.9874H91.8301C95.2233 25.9874 97.9803 23.2355 97.9803 19.637C97.9803 16.2501 95.2233 13.2867 91.8301 13.2867H85.4677V31.491H88.6489V25.9874ZM88.6489 16.2502H91.8301C93.7388 16.2502 95.2233 17.7319 95.2233 19.637C95.2233 21.5421 93.7388 23.0239 91.8301 23.0239H88.6489V16.2502ZM0 0.585938V43.5567H151V0.585938H0ZM148.243 40.5932H2.9691V3.54944H148.243V40.5932ZM107.1 13.2867H103.919V31.491H107.1V13.2867ZM117.704 31.491H120.885V16.6735H125.763V13.2867H120.885H117.704H112.826V16.4618H117.704V31.491ZM134.67 13.2867H131.489V31.491H134.67V13.2867ZM43.4761 31.491L44.9607 28.5275H54.7163L56.2008 31.491H59.5941L49.8385 12.6516L40.0829 31.491H43.4761ZM49.8385 19.2136L53.0197 25.3523H46.6573L49.8385 19.2136ZM24.389 31.491L28.4185 23.8706L32.448 31.491L42.2037 12.8633H38.8104L32.448 24.929L26.0857 12.8633H22.6924L26.7219 20.6954L24.389 24.929L18.0267 12.8633H14.6334L24.389 31.491ZM67.2289 28.5275H76.9846L78.4691 31.491H81.8624L72.1067 12.6516L62.3511 31.491H65.7444L67.2289 28.5275ZM72.1067 19.2136L75.2879 25.3523H68.9256L72.1067 19.2136Z"
        fill="#3F203A"></path>
</svg>