<svg xmlns="http://www.w3.org/2000/svg" width="140" height="17" viewBox="0 0 140 17">
  <g id="Group_6" data-name="Group 6" transform="translate(-2285.652 -10.051)">
    <g id="Group_5" data-name="Group 5" transform="translate(2285.652 10.051)">
      <path id="Path_13" data-name="Path 13" d="M2309.362,10.78,2305,26.713h-4.632l-2.9-10.379-2.833,10.379h-4.621l-4.364-15.933h4.362l2.485,10.969,2.99-10.969h4.167l2.837,10.969,2.61-10.969Z" transform="translate(-2285.652 -10.051)" fill="#696057"/>
      <path id="Path_14" data-name="Path 14" d="M2315.967,12.974h-4.146V10.051h4.146Zm-.11,13.739h-3.927V14.687h3.927Z" transform="translate(-2285.832 -10.051)" fill="#696057"/>
      <path id="Path_15" data-name="Path 15" d="M2327.088,27.029a10.216,10.216,0,0,1-3.335-.525,7.126,7.126,0,0,1-2.628-1.564,6.97,6.97,0,0,1-1.7-2.591,9.864,9.864,0,0,1-.6-3.587,9.739,9.739,0,0,1,.577-3.437,7.332,7.332,0,0,1,1.675-2.644,7.107,7.107,0,0,1,2.617-1.638,9.746,9.746,0,0,1,3.412-.579,13.529,13.529,0,0,1,1.843.113,12.824,12.824,0,0,1,1.519.294,11,11,0,0,1,1.321.455q.594.252,1.039.465v3.866h-.478q-.3-.257-.767-.607a9.874,9.874,0,0,0-1.051-.693,7.311,7.311,0,0,0-1.294-.576,4.635,4.635,0,0,0-1.491-.234,5.12,5.12,0,0,0-1.676.273,4.1,4.1,0,0,0-1.468.9,4.428,4.428,0,0,0-1.039,1.614,6.632,6.632,0,0,0-.4,2.437,6.383,6.383,0,0,0,.43,2.5,4.354,4.354,0,0,0,1.083,1.581,3.969,3.969,0,0,0,1.479.838,5.462,5.462,0,0,0,1.611.251,5.212,5.212,0,0,0,1.508-.223,5.891,5.891,0,0,0,1.376-.607,9.171,9.171,0,0,0,.99-.66q.456-.351.751-.607h.434v3.811q-.609.267-1.164.5a9.78,9.78,0,0,1-1.164.406,14.268,14.268,0,0,1-1.49.342A12.087,12.087,0,0,1,2327.088,27.029Z" transform="translate(-2285.898 -10.051)" fill="#696057"/>
      <path id="Path_16" data-name="Path 16" d="M2343.071,25.687c-.211.159-.471.352-.784.576a4.956,4.956,0,0,1-2.078.92,6.906,6.906,0,0,1-1.359.125,4.147,4.147,0,0,1-2.916-1.078,3.56,3.56,0,0,1-1.176-2.752,3.707,3.707,0,0,1,.6-2.187,4.01,4.01,0,0,1,1.7-1.338,9.579,9.579,0,0,1,2.7-.7q1.611-.207,3.341-.305v-.065a1.409,1.409,0,0,0-.827-1.4,5.974,5.974,0,0,0-2.438-.386,6.974,6.974,0,0,0-2.067.342q-1.1.344-1.577.528h-.36V15.023q.621-.162,2.019-.386a17.711,17.711,0,0,1,2.8-.223,8.705,8.705,0,0,1,4.826,1.028,3.652,3.652,0,0,1,1.484,3.226v8.313h-3.884Zm0-1.9V21.247q-.8.066-1.719.179a8.35,8.35,0,0,0-1.4.266,1.932,1.932,0,0,0-.9.537,1.351,1.351,0,0,0-.311.927,2.382,2.382,0,0,0,.066.618.931.931,0,0,0,.326.456,1.587,1.587,0,0,0,.6.32,4.162,4.162,0,0,0,1.088.1,3.23,3.23,0,0,0,1.192-.238A3.717,3.717,0,0,0,2343.071,23.785Z" transform="translate(-2286.01 -10.319)" fill="#696057"/>
      <path id="Path_17" data-name="Path 17" d="M2362.83,26.981H2358.9v-6.06a14.236,14.236,0,0,0-.076-1.475,3.117,3.117,0,0,0-.261-1.082,1.308,1.308,0,0,0-.636-.588,2.98,2.98,0,0,0-1.17-.185,3.571,3.571,0,0,0-1.083.174,5.85,5.85,0,0,0-1.192.555v8.661h-3.927V14.762h3.927v1.349a10.024,10.024,0,0,1,2.005-1.251,5.13,5.13,0,0,1,2.136-.435,4.1,4.1,0,0,1,3.092,1.153,4.789,4.789,0,0,1,1.113,3.449Z" transform="translate(-2286.126 -10.319)" fill="#696057"/>
      <path id="Path_18" data-name="Path 18" d="M2378.738,14.762l-4.712,12.219h-4.439l-4.679-12.219h4.137l2.835,8.411,2.8-8.411Z" transform="translate(-2286.238 -10.319)" fill="#696057"/>
      <path id="Path_19" data-name="Path 19" d="M2388.313,25.687c-.21.159-.471.352-.784.576a5.585,5.585,0,0,1-.881.533,5.523,5.523,0,0,1-1.2.387,6.9,6.9,0,0,1-1.359.125,4.148,4.148,0,0,1-2.916-1.078A3.564,3.564,0,0,1,2380,23.478a3.7,3.7,0,0,1,.6-2.187,4,4,0,0,1,1.7-1.338,9.579,9.579,0,0,1,2.7-.7q1.611-.207,3.341-.305v-.065a1.407,1.407,0,0,0-.827-1.4,5.97,5.97,0,0,0-2.438-.386,6.976,6.976,0,0,0-2.067.342q-1.1.344-1.577.528h-.36V15.023q.621-.162,2.019-.386a17.722,17.722,0,0,1,2.8-.223,8.7,8.7,0,0,1,4.826,1.028,3.652,3.652,0,0,1,1.484,3.226v8.313h-3.884Zm0-1.9V21.247q-.8.066-1.719.179a8.37,8.37,0,0,0-1.4.266,1.933,1.933,0,0,0-.9.537,1.351,1.351,0,0,0-.311.927,2.37,2.37,0,0,0,.066.618.929.929,0,0,0,.326.456,1.584,1.584,0,0,0,.6.32,4.153,4.153,0,0,0,1.088.1,3.224,3.224,0,0,0,1.191-.238A3.717,3.717,0,0,0,2388.313,23.785Z" transform="translate(-2286.341 -10.319)" fill="#696057"/>
      <path id="Path_20" data-name="Path 20" d="M2406.42,23.108a3.543,3.543,0,0,1-1.7,3.052,8.138,8.138,0,0,1-4.647,1.159,13.266,13.266,0,0,1-2.96-.305,11.279,11.279,0,0,1-2.133-.675v-3.22h.36q.294.207.68.451a6.869,6.869,0,0,0,1.093.528,9.029,9.029,0,0,0,1.382.43,7.335,7.335,0,0,0,1.654.18,4.308,4.308,0,0,0,1.708-.256.815.815,0,0,0,.555-.757.7.7,0,0,0-.326-.647,4.261,4.261,0,0,0-1.24-.386q-.435-.1-1.181-.212a12.631,12.631,0,0,1-1.355-.278,4.785,4.785,0,0,1-2.469-1.355,3.347,3.347,0,0,1-.806-2.29,3.476,3.476,0,0,1,1.67-2.932,7.841,7.841,0,0,1,4.565-1.17,12.148,12.148,0,0,1,2.627.278,10.552,10.552,0,0,1,1.964.592v3.091h-.337a7.964,7.964,0,0,0-1.985-.974,7.045,7.045,0,0,0-2.258-.376,4.3,4.3,0,0,0-1.595.261c-.431.175-.647.421-.647.741a.791.791,0,0,0,.294.663,3.973,3.973,0,0,0,1.382.457q.6.12,1.29.234t1.387.288a4.36,4.36,0,0,1,2.285,1.268A3.208,3.208,0,0,1,2406.42,23.108Z" transform="translate(-2286.592 -10.319)" fill="#696057"/>
      <path id="Path_21" data-name="Path 21" d="M2415.342,12.488h-2.253v6.17h-2.121v-6.17h-2.253V10.78h6.627Zm11.25,6.17h-2.111V12.5h-.228l-1.937,4.309h-1.48l-1.958-4.385h-.283v6.235h-2V10.78h3.428l1.587,3.852,1.655-3.852h3.329Z" transform="translate(-2286.592 -10.051)" fill="#696057"/>
    </g>
  </g>
</svg>
