<svg xmlns="http://www.w3.org/2000/svg" width="100.829" height="50" viewBox="0 0 100.829 50">
  <defs>
    <clipPath id="clip-path">
      <rect id="Rectangle_1" data-name="Rectangle 1" width="100.829" height="50" fill="none"/>
    </clipPath>
  </defs>
  <g id="Group_1" data-name="Group 1" clip-path="url(#clip-path)">
    <path id="Path_1" data-name="Path 1" d="M2.348,59.762h0A2.344,2.344,0,0,1,.419,56.087l9.9-14.35L1.135,28.258a2.323,2.323,0,0,1,1.92-3.631h.29a2.322,2.322,0,0,1,1.939,1.044l8.176,12.4,8.106-12.391a2.323,2.323,0,1,1,3.864,2.579L16.253,41.737,25.992,56.1a2.344,2.344,0,0,1-1.94,3.659H23.86a2.343,2.343,0,0,1-1.967-1.069L13.225,45.316,4.3,58.718a2.345,2.345,0,0,1-1.951,1.044" transform="translate(0 -10.671)" fill="#eb7857"/>
    <path id="Path_2" data-name="Path 2" d="M57.888,26.355h0a2.1,2.1,0,0,1,2.189,1.994v.457a2.2,2.2,0,0,1-4.377,0v-.457a2.1,2.1,0,0,1,2.189-1.994" transform="translate(-24.133 -11.419)" fill="#0e70f6"/>
    <path id="Path_3" data-name="Path 3" d="M57.888,41.635h0a2.189,2.189,0,0,1,2.189,2.189V64.943a2.189,2.189,0,0,1-4.377,0V43.824a2.189,2.189,0,0,1,2.189-2.189" transform="translate(-24.133 -18.04)" fill="#0e70f6"/>
    <path id="Path_4" data-name="Path 4" d="M77.529,24.416h0a2.093,2.093,0,0,1,2.092,2.093V37.164a9.43,9.43,0,0,1,7.66-3.779,10.039,10.039,0,0,1,7.791,3.288q2.989,3.289,2.989,9.7a16.588,16.588,0,0,1-2.954,10.093,9.59,9.59,0,0,1-8.187,4.018,8.413,8.413,0,0,1-4.946-1.411,11.907,11.907,0,0,1-2.569-2.679v1.292a1.985,1.985,0,1,1-3.97,0V26.509a2.093,2.093,0,0,1,2.093-2.093M91.9,53.906a13.622,13.622,0,0,0,1.74-7.319,11.98,11.98,0,0,0-1.74-6.7,5.736,5.736,0,0,0-5.124-2.655A7.159,7.159,0,0,0,81.6,39.413q-2.22,2.176-2.22,7.175a15.809,15.809,0,0,0,.912,5.86,6.3,6.3,0,0,0,6.36,4.233A5.777,5.777,0,0,0,91.9,53.906" transform="translate(-32.685 -10.579)" fill="#0e70f6"/>
    <path id="Path_5" data-name="Path 5" d="M143.394,43.413q3.4,3.3,3.4,9.7A16.718,16.718,0,0,1,143.8,63.343q-2.992,4.039-9.286,4.038a10.453,10.453,0,0,1-8.336-3.573q-3.087-3.572-3.087-9.595,0-6.452,3.254-10.275a10.89,10.89,0,0,1,8.74-3.824,11.481,11.481,0,0,1,8.313,3.3m-2.673,17.024a16.262,16.262,0,0,0,1.573-7.2,12.939,12.939,0,0,0-1.135-5.829,6.377,6.377,0,0,0-6.2-3.536,6.094,6.094,0,0,0-5.676,3.01,14.06,14.06,0,0,0-1.774,7.262,12.225,12.225,0,0,0,1.774,6.808,6.225,6.225,0,0,0,5.629,2.724q4.233,0,5.805-3.237" transform="translate(-53.331 -17.381)" fill="#0e70f6"/>
    <path id="Path_6" data-name="Path 6" d="M121.943,5.269A4.769,4.769,0,1,1,117.174.5a4.769,4.769,0,0,1,4.769,4.769" transform="translate(-48.703 -0.217)" fill="#f7f7f7"/>
    <circle id="Ellipse_1" data-name="Ellipse 1" cx="4.769" cy="4.769" r="4.769" transform="translate(63.702 0.283)" fill="none" stroke="#0e70f6" stroke-miterlimit="10" stroke-width="1"/>
    <path id="Path_7" data-name="Path 7" d="M170.125,5.269A4.769,4.769,0,1,1,165.356.5a4.769,4.769,0,0,1,4.769,4.769" transform="translate(-69.579 -0.217)" fill="#f7f7f7"/>
    <circle id="Ellipse_2" data-name="Ellipse 2" cx="4.769" cy="4.769" r="4.769" transform="translate(91.008 0.283)" fill="none" stroke="#0e70f6" stroke-miterlimit="10" stroke-width="1"/>
    <path id="Path_8" data-name="Path 8" d="M133.831,28.08a3.664,3.664,0,1,1-3.664-3.664,3.664,3.664,0,0,1,3.664,3.664" transform="translate(-54.811 -10.579)" fill="#f7f7f7"/>
    <path id="Path_9" data-name="Path 9" d="M133.831,28.08a3.664,3.664,0,1,1-3.664-3.664A3.664,3.664,0,0,1,133.831,28.08Z" transform="translate(-54.811 -10.579)" fill="none" stroke="#0e70f6" stroke-miterlimit="10" stroke-width="1"/>
    <path id="Path_10" data-name="Path 10" d="M157.158,28.08a3.664,3.664,0,1,1-3.664-3.664,3.664,3.664,0,0,1,3.664,3.664" transform="translate(-64.918 -10.579)" fill="#f7f7f7"/>
    <path id="Path_11" data-name="Path 11" d="M157.158,28.08a3.664,3.664,0,1,1-3.664-3.664A3.664,3.664,0,0,1,157.158,28.08Z" transform="translate(-64.918 -10.579)" fill="none" stroke="#0e70f6" stroke-miterlimit="10" stroke-width="1"/>
  </g>
</svg>
