<?xml version="1.0" encoding="UTF-8"?> <!-- Generator: Adobe Illustrator 25.0.1, SVG Export Plug-In . SVG Version: 6.00 Build 0) --> <svg xmlns="http://www.w3.org/2000/svg" xmlns:xlink="http://www.w3.org/1999/xlink" version="1.1" id="Layer_1" x="0px" y="0px" viewBox="0 0 146 44" style="enable-background:new 0 0 146 44;" xml:space="preserve"> <style type="text/css"> .st0{fill:#F36F26;} </style> <g> <g> <g> <polygon class="st0" points="24.6,15.4 24.6,24.2 29,24.2 29,28.6 31.2,28.6 31.2,26.4 33.3,26.4 33.3,24.2 33.3,19.8 33.3,15.4 "></polygon> <rect x="26.8" y="28.6" class="st0" width="2.2" height="2.2"></rect> <rect x="40.2" y="28.6" class="st0" width="2.2" height="2.2"></rect> <polygon class="st0" points="38,15.4 38,24.2 42.4,24.2 42.4,28.6 44.6,28.6 44.6,26.4 46.8,26.4 46.8,24.2 46.8,19.8 46.8,15.4 "></polygon> </g> <path class="st0" d="M71.4,44H0V0h71.4V44z M4.4,39.6h62.5V4.4H4.4V39.6z"></path> </g> <g> <polygon class="st0" points="89.2,23.2 87.2,17.6 84.5,17.6 87.9,26.2 86.6,29.5 88.6,30.8 93.9,17.6 91.3,17.6 "></polygon> <path class="st0" d="M99.6,17.4c-1.6,0-2.7,0.4-3.4,1.3c-0.7,0.9-1.1,2.1-1.1,3.7c0,3.3,1.5,4.9,4.5,4.9c1.5,0,2.7-0.4,3.4-1.3 c0.7-0.9,1.1-2.1,1.1-3.6c0-1.6-0.4-2.8-1.1-3.7C102.3,17.8,101.1,17.4,99.6,17.4z M101,24.4c-0.3,0.4-0.8,0.6-1.4,0.6 c-0.7,0-1.2-0.2-1.5-0.6c-0.3-0.4-0.5-1.1-0.5-2.1c0-0.9,0.2-1.6,0.5-2.1c0.3-0.4,0.8-0.6,1.5-0.6c0.7,0,1.2,0.2,1.4,0.6 c0.3,0.4,0.4,1.1,0.4,2.1C101.5,23.3,101.3,24,101,24.4z"></path> <path class="st0" d="M112.3,18.1c-0.3-0.2-0.6-0.4-0.9-0.5c-0.5-0.2-0.9-0.3-1.4-0.3c-1.2,0-2.2,0.4-2.9,1.3c-0.7,0.9-1,2.1-1,3.7 c0,1.5,0.3,2.7,0.9,3.6c0.6,0.9,1.6,1.3,2.7,1.3c0.6,0,1.2-0.1,1.6-0.3c0.4-0.2,0.8-0.4,1.1-0.7V27h2.3V13.8h-2.5V18.1z M111.5,19.9c0.3,0.1,0.6,0.3,0.8,0.5v3.8c-0.2,0.2-0.6,0.4-0.9,0.6c-0.4,0.2-0.7,0.2-1.1,0.2c-0.6,0-1-0.2-1.3-0.7 c-0.3-0.5-0.4-1.1-0.4-2c0-0.8,0.2-1.5,0.5-2c0.3-0.5,0.8-0.7,1.3-0.7C110.8,19.6,111.1,19.7,111.5,19.9z"></path> <path class="st0" d="M121.5,17.4c-3,0-4.5,1.7-4.5,5c0,1.6,0.4,2.8,1.1,3.7c0.8,0.8,1.9,1.2,3.5,1.2c1,0,1.8-0.1,2.4-0.4 c0.6-0.3,1.1-0.7,1.5-1.2l0.1-0.1l-1.9-1.3l-0.1,0.1c-0.2,0.3-0.5,0.5-0.8,0.6c-0.3,0.1-0.7,0.2-1.1,0.2c-0.7,0-1.2-0.2-1.6-0.5 c-0.3-0.3-0.5-0.8-0.5-1.5h6v-1.2c0-1.4-0.4-2.5-1.1-3.3C123.9,17.8,122.8,17.4,121.5,17.4z M121.5,19.4c1.1,0,1.6,0.6,1.7,1.8 h-3.4c0.1-0.5,0.2-0.8,0.3-1c0.1-0.2,0.3-0.4,0.6-0.5C120.8,19.5,121.1,19.4,121.5,19.4z"></path> <path class="st0" d="M133.8,24.3c-0.2,0.3-0.5,0.5-0.8,0.6c-0.3,0.1-0.6,0.1-0.9,0.1c-0.7,0-1.3-0.2-1.6-0.6 c-0.3-0.4-0.5-1.1-0.5-2.1c0-0.9,0.2-1.6,0.5-2.1c0.3-0.4,0.8-0.6,1.5-0.6c0.4,0,0.7,0.1,1,0.2c0.2,0.1,0.5,0.3,0.7,0.6l0.1,0.1 l1.9-1.3l-0.1-0.1c-0.3-0.6-0.8-1-1.5-1.2c-0.6-0.3-1.3-0.4-2.1-0.4c-1.5,0-2.6,0.4-3.4,1.3c-0.7,0.9-1.1,2.1-1.1,3.7 c0,1.6,0.4,2.8,1.2,3.6c0.8,0.8,1.9,1.2,3.4,1.2c0.9,0,1.6-0.1,2.2-0.4c0.6-0.3,1.1-0.7,1.4-1.2l0.1-0.1l-1.9-1.3L133.8,24.3z"></path> <polygon class="st0" points="142.3,21.6 145.9,17.6 142.9,17.6 140,20.9 140,13.8 137.5,13.8 137.5,27 140,27 140,24.1 140.7,23.3 143.1,27 146,27 "></polygon> </g> </g> </svg> 