<?xml version="1.0" encoding="utf-8"?>
<!-- Generator: Adobe Illustrator 27.1.1, SVG Export Plug-In . SVG Version: 6.00 Build 0)  -->
<svg version="1.1" id="Capa_1" xmlns="http://www.w3.org/2000/svg" xmlns:xlink="http://www.w3.org/1999/xlink" x="0px" y="0px"
	 viewBox="0 0 841.9 145.5" style="enable-background:new 0 0 841.9 145.5;" xml:space="preserve">
<style type="text/css">
	.st0{fill:url(#SVGID_1_);}
	.st1{fill:url(#SVGID_00000119090873042139532000000007030174581152660354_);}
	.st2{fill:url(#SVGID_00000070817473062394224200000011127437706866309260_);}
	.st3{fill:url(#SVGID_00000160888663112853091610000001085644462186395322_);}
	.st4{fill:url(#SVGID_00000050654702017641660730000012772355897876149665_);}
</style>
<g id="Capa_1_00000121962370915964470970000004656710016215110303_">
</g>
<path d="M839.7,14.8c0,5.2-4.1,9.3-9.4,9.3c-5.3,0-9.5-4.1-9.5-9.3c0-5.1,4.2-9.2,9.5-9.2C835.6,5.6,839.7,9.7,839.7,14.8z
	 M823.1,14.8c0,4.1,3,7.4,7.2,7.4c4,0,7-3.3,7-7.3c0-4.1-3-7.4-7.1-7.4C826.1,7.4,823.1,10.7,823.1,14.8z M828.8,19.6h-2.1v-9.2
	c0.8-0.2,2-0.3,3.5-0.3c1.7,0,2.5,0.3,3.2,0.7c0.5,0.4,0.9,1.1,0.9,2c0,1-0.8,1.8-1.9,2.1V15c0.9,0.3,1.4,1,1.7,2.2
	c0.3,1.4,0.5,2,0.7,2.3h-2.3c-0.3-0.3-0.4-1.2-0.7-2.2c-0.2-1-0.7-1.5-1.9-1.5h-1v3.8H828.8z M828.8,14.4h1c1.2,0,2.1-0.4,2.1-1.3
	c0-0.8-0.6-1.4-2-1.4c-0.6,0-1,0.1-1.2,0.1v2.6H828.8z"/>
<linearGradient id="SVGID_1_" gradientUnits="userSpaceOnUse" x1="56.45" y1="137.052" x2="56.45" y2="0.5997" gradientTransform="matrix(1 0 0 -1 0 148)">
	<stop  offset="0" style="stop-color:#000000"/>
	<stop  offset="4.091471e-02" style="stop-color:#180306"/>
	<stop  offset="0.1286" style="stop-color:#470910"/>
	<stop  offset="0.222" style="stop-color:#700F1A"/>
	<stop  offset="0.3197" style="stop-color:#921322"/>
	<stop  offset="0.4228" style="stop-color:#AE1729"/>
	<stop  offset="0.5332" style="stop-color:#C4192E"/>
	<stop  offset="0.6546" style="stop-color:#D31B31"/>
	<stop  offset="0.7952" style="stop-color:#DC1D33"/>
	<stop  offset="1" style="stop-color:#DF1D34"/>
</linearGradient>
<polygon class="st0" points="91.3,14.4 5.8,14.4 5.8,4.4 109.4,4.4 109.4,14.4 18,89.1 110.6,89.1 110.6,98.6 2.3,98.6 2.3,89.1 "/>
<linearGradient id="SVGID_00000030466227918828755340000004350042434055764887_" gradientUnits="userSpaceOnUse" x1="224.7" y1="137.052" x2="224.7" y2="0.5997" gradientTransform="matrix(1 0 0 -1 0 148)">
	<stop  offset="0" style="stop-color:#000000"/>
	<stop  offset="4.091471e-02" style="stop-color:#180306"/>
	<stop  offset="0.1286" style="stop-color:#470910"/>
	<stop  offset="0.222" style="stop-color:#700F1A"/>
	<stop  offset="0.3197" style="stop-color:#921322"/>
	<stop  offset="0.4228" style="stop-color:#AE1729"/>
	<stop  offset="0.5332" style="stop-color:#C4192E"/>
	<stop  offset="0.6546" style="stop-color:#D31B31"/>
	<stop  offset="0.7952" style="stop-color:#DC1D33"/>
	<stop  offset="1" style="stop-color:#DF1D34"/>
</linearGradient>
<path style="fill:url(#SVGID_00000030466227918828755340000004350042434055764887_);" d="M275.4,4.4c-28.1,0-56.6-1.8-56.6,22.7
	c0,11.1,0,37.3,0,45c0,12.6-1.5,17-41.7,17s-45.6-3.3-45.6-16.8s0-67.9,0-67.9h-10.6c0,0,0,55.6,0,69c0,19.3,7,25.2,56.6,25.2
	c34.5,0,40.9-4.6,40.9-4.6v47.9h12.1c0,0,0-105.1,0-113.1s2.4-14.4,22.9-14.4s35.3,0,46.1,0c10.8,0,17.2,3.4,17.2,10.6
	s0,73.6,0,73.6h11.8c0,0,0-63.3,0-74.9S316.6,4.4,301.7,4.4S275.4,4.4,275.4,4.4z"/>
<linearGradient id="SVGID_00000180366973490010977950000016522424978047168416_" gradientUnits="userSpaceOnUse" x1="399.55" y1="137.052" x2="399.55" y2="0.5997" gradientTransform="matrix(1 0 0 -1 0 148)">
	<stop  offset="0" style="stop-color:#000000"/>
	<stop  offset="4.091471e-02" style="stop-color:#180306"/>
	<stop  offset="0.1286" style="stop-color:#470910"/>
	<stop  offset="0.222" style="stop-color:#700F1A"/>
	<stop  offset="0.3197" style="stop-color:#921322"/>
	<stop  offset="0.4228" style="stop-color:#AE1729"/>
	<stop  offset="0.5332" style="stop-color:#C4192E"/>
	<stop  offset="0.6546" style="stop-color:#D31B31"/>
	<stop  offset="0.7952" style="stop-color:#DC1D33"/>
	<stop  offset="1" style="stop-color:#DF1D34"/>
</linearGradient>
<path style="fill:url(#SVGID_00000180366973490010977950000016522424978047168416_);" d="M383.5,4.4c-26.8,0-38.9,0.5-38.9,47.6
	c0,32.5-0.2,46.6,43.2,46.6c19.1,0,17.3,0,30.1,0c22.1,0,36.6-1,36.6-32h-10.6c0,0,0,3.8,0,8.2s1.3,14.4-24,14.4
	c-7.8,0-29.6,0-38.3,0s-22.9-1.3-25-14.6c-1-6-1.8-32.5,0.2-47.3c0.8-5.9,4.1-12.9,19.5-12.9s40.9,0,50,0s16.5,2.5,16.5,8.3
	s0,11.3,0,11.3h11.1c0,0-0.2-11.1-1.6-17.5s-9.8-12.1-23.5-12.1C414.9,4.4,383.5,4.4,383.5,4.4z"/>
<linearGradient id="SVGID_00000125571672683876318040000008259243950837347739_" gradientUnits="userSpaceOnUse" x1="574.25" y1="137.052" x2="574.25" y2="0.5997" gradientTransform="matrix(1 0 0 -1 0 148)">
	<stop  offset="0" style="stop-color:#000000"/>
	<stop  offset="4.091471e-02" style="stop-color:#180306"/>
	<stop  offset="0.1286" style="stop-color:#470910"/>
	<stop  offset="0.222" style="stop-color:#700F1A"/>
	<stop  offset="0.3197" style="stop-color:#921322"/>
	<stop  offset="0.4228" style="stop-color:#AE1729"/>
	<stop  offset="0.5332" style="stop-color:#C4192E"/>
	<stop  offset="0.6546" style="stop-color:#D31B31"/>
	<stop  offset="0.7952" style="stop-color:#DC1D33"/>
	<stop  offset="1" style="stop-color:#DF1D34"/>
</linearGradient>
<path style="fill:url(#SVGID_00000125571672683876318040000008259243950837347739_);" d="M676.8,41.2c0-11.9,0-14.9,0-19.9
	s-5.7-16.8-22.7-16.8s-84.2,0-84.2,0v46.9h-87.1v-47h-11.1v94.2h11.1V59.3H570v39.2h10.8V59.7c0,0,59.5,0,68.7,0s14.7,5.9,14.7,12.3
	s0,26.7,0,26.7h11.3c0,0,0-19.3,0-30.4S662.3,56,662.3,56S676.8,53.1,676.8,41.2z M654.2,50.8c-9.6,0-73.9-0.3-73.9-0.3V14.4
	c0,0,60.3,0,72.6,0s13.2,8.5,13.2,17C666.2,39.9,663.9,50.8,654.2,50.8z"/>
<linearGradient id="SVGID_00000012472144071737608510000002257105960870145983_" gradientUnits="userSpaceOnUse" x1="753.1207" y1="21.1553" x2="753.1207" y2="98.0979">
	<stop  offset="0" style="stop-color:#000000"/>
	<stop  offset="4.091471e-02" style="stop-color:#180306"/>
	<stop  offset="0.1286" style="stop-color:#470910"/>
	<stop  offset="0.222" style="stop-color:#700F1A"/>
	<stop  offset="0.3197" style="stop-color:#921322"/>
	<stop  offset="0.4228" style="stop-color:#AE1729"/>
	<stop  offset="0.5332" style="stop-color:#C4192E"/>
	<stop  offset="0.6546" style="stop-color:#D31B31"/>
	<stop  offset="0.7952" style="stop-color:#DC1D33"/>
	<stop  offset="1" style="stop-color:#DF1D34"/>
</linearGradient>
<path style="fill:url(#SVGID_00000012472144071737608510000002257105960870145983_);" d="M810.9,21.8c-0.5-1.6-1.5-4.3-3.7-7.2h0
	c-3.8-4.9-11.1-10-25.4-10h-27.8c-7.2,0-18.5-0.9-29.4,0h-0.1C714.4,5.5,704.6,8,699,14.5h-0.1c-2.9,3.5-4.7,8-4.7,14.1
	c0,7,0,35.2,0,45.5c0,12.6,9,24.7,37.8,24.7c9.5,0,42.2,0,51.8,0s27.4-5.9,28.1-23.5C812.1,70.9,812.3,26.2,810.9,21.8z M721.5,14.6
	h65.1c10.1,2.7,12.7,9.7,13.6,12.5c1.1,3.6,1,40,0.8,43.6c-0.6,14.4-15.1,19.2-22.9,19.2s-34.5,0-42.2,0c-23.5,0-30.8-9.9-30.8-20.1
	c0-8.4,0-31.3,0-37c0-10.8,7-15.9,16-18.2H721.5"/>
</svg>
