<svg xmlns="http://www.w3.org/2000/svg" viewBox="0 0 211 22.67"><defs><style>.cls-1{fill:#fff;}</style></defs><title>Element 1</title><g id="Ebene_2" data-name="Ebene 2"><g id="Ebene_1-2" data-name="Ebene 1"><polygon class="cls-1" points="17.19 21.57 19.96 21.57 10.08 0 1.35 19.07 1.35 19.07 0 22.01 11.71 19.41 10.77 17.3 4.24 18.75 10.08 5.65 17.19 21.57"/><path class="cls-1" d="M29.41.88h4.28C40,.88,45.3,4.23,45.3,11.12c0,7.05-5.16,10.45-11.69,10.45h-4.2ZM32,19.21h.9c5.27,0,9.83-2,9.83-8s-4.56-8-9.83-8H32Z"/><path class="cls-1" d="M61.08,16.19,67.23.88h2.83l-9,21.79L52.08.88h2.83Z"/><path class="cls-1" d="M79.75.88H90.86V3.24H82.33V9h8.29v2.36H82.33v7.82h8.53v2.36H79.75Z"/><path class="cls-1" d="M129.84,21.57h-2.58V3.24h-4.91V.88h12.4V3.24h-4.91Z"/><path class="cls-1" d="M148.78,21.57H146.2V.88h2.58Z"/><path class="cls-1" d="M164.61,7.9h-.05l-2.42,13.67h-2.66L163.71,0l7.11,16.3L177.92,0l4.23,21.57h-2.66L177.07,7.9h0L170.82,22Z"/><path class="cls-1" d="M107.24,12.73a8.18,8.18,0,0,0,3.33-.9,5.77,5.77,0,0,0,2.72-5,5.72,5.72,0,0,0-2.72-4.94,11,11,0,0,0-5.46-1H102v2.3h3.27c2.54,0,5.6.65,5.62,3.87s-3.08,3.62-5.62,3.62h-2.31l7.59,10.9h3.12Z"/><polygon class="cls-1" points="208.23 21.57 211 21.57 201.12 0 192.38 19.07 192.38 19.07 191.04 22.01 202.75 19.41 201.8 17.3 195.27 18.75 201.12 5.65 208.23 21.57"/></g></g></svg>