<svg width="225" height="46" viewBox="0 0 225 46" fill="none" xmlns="http://www.w3.org/2000/svg">
<path d="M9.6635 13.5125L0.721191 32.0562H5.33658L6.20196 29.7562H12.8366L13.8462 32.0562H18.6058L9.6635 13.5125ZM7.64427 26.4499L9.51927 22.1374L11.3943 26.4499H7.64427Z" fill="white"/>
<path d="M18.606 13.7998V17.6811H23.5098V32.0561H28.2694V17.6811H33.1733V13.7998H18.606Z" fill="white"/>
<path d="M55.2402 13.5125L46.4422 23.5749L37.4999 13.5125L36.4902 32.0562H41.1056L41.5383 24.0062L46.5864 29.6124L51.4902 24.0062L51.9229 32.0562H56.5383L55.5287 13.5125H55.2402Z" fill="white"/>
<path d="M69.952 13.7998C64.4712 13.7998 60.1443 17.8248 60.1443 23.1436C60.1443 28.4623 64.4712 32.4873 69.952 32.4873C75.4327 32.4873 79.7597 28.3186 79.7597 23.1436C79.7597 17.9686 75.4327 13.7998 69.952 13.7998ZM69.952 28.3186C66.9231 28.3186 64.9039 26.1623 64.9039 22.9998C64.9039 19.8373 66.9231 17.6811 69.952 17.6811C72.9808 17.6811 75.0001 19.8373 75.0001 22.9998C75.0001 26.1623 72.9808 28.3186 69.952 28.3186Z" fill="white"/>
<path d="M92.0191 21.2748L89.5672 20.4123C88.7018 20.1248 88.1249 19.8373 88.1249 18.9748C88.1249 18.1123 88.5576 17.5373 89.9999 17.5373C91.4422 17.5373 92.3076 17.9686 93.173 18.8311L95.7691 16.0998C94.7595 15.0936 93.0287 13.7998 89.5672 13.7998C86.1057 13.7998 83.3653 16.5311 83.3653 19.1186C83.3653 21.7061 84.8076 23.5748 87.8364 24.5811L89.9999 25.2998C91.1537 25.7311 91.8749 26.1623 91.8749 27.0248C91.8749 27.8873 91.0095 28.6061 89.423 28.6061C87.8364 28.6061 86.2499 27.5998 85.5287 26.5936L82.2114 29.1811C83.221 30.4748 85.3845 32.4873 89.7114 32.4873C94.0384 32.4873 96.6345 28.8936 96.6345 26.7373C96.6345 24.5811 95.1922 22.4248 91.7307 21.2748H92.0191Z" fill="white"/>
<path d="M108.75 13.7998H101.394V32.0561H106.154V26.7373H108.75C113.077 26.7373 115.961 24.1498 115.961 20.2686C115.961 16.3873 113.077 13.7998 108.75 13.7998ZM108.461 22.8561H106.009V17.6811H108.461C110.192 17.6811 111.202 18.6873 111.202 20.2686C111.202 21.8498 110.192 22.8561 108.461 22.8561Z" fill="white"/>
<path d="M131.394 13.7998V20.8436H124.76V13.7998H120V32.0561H124.76V24.8686H131.394V32.0561H136.154V13.7998H131.394Z" fill="white"/>
<path d="M146.25 28.3186V24.8686H152.885V21.1311H146.25V17.8249H154.327V13.9436H141.635V32.1999H154.76V28.3186H146.25Z" fill="white"/>
<path d="M170.625 25.5873C172.788 24.5811 173.942 22.7123 173.942 20.2686C173.942 16.3873 171.058 13.7998 166.731 13.7998H159.375V32.0561H164.135V26.3061H166.01L169.327 32.0561H174.375L170.625 25.5873ZM166.587 22.7123H164.135V17.6811H166.587C168.317 17.6811 169.327 18.5436 169.327 20.1248C169.327 21.7061 168.317 22.5686 166.587 22.5686V22.7123Z" fill="white"/>
<path d="M183.606 28.3186V24.8686H190.24V21.1311H183.606V17.8249H191.683V13.9436H178.99V32.1999H192.115V28.3186H183.606Z" fill="white"/>
<path d="M221.394 13.7998L216.346 26.1623L211.154 13.7998H195.721V16.3873H201.202V32.0561H204.087V16.3873H209.135L216.202 32.4873H216.346L224.279 13.7998H221.394Z" fill="#8766FF"/>
</svg>
