<?xml version="1.0" encoding="UTF-8"?> <svg xmlns="http://www.w3.org/2000/svg" xmlns:xlink="http://www.w3.org/1999/xlink" version="1.1" id="Ebene_1" x="0px" y="0px" viewBox="0 0 1900 300" style="enable-background:new 0 0 1900 300;" xml:space="preserve"> <style type="text/css"> .st0{fill:url(#SVGID_1_);} .st1{fill:url(#SVGID_00000103248334506125644380000009102922969510949799_);} .st2{fill:url(#SVGID_00000183229644320753232220000002307318369033480378_);} .st3{fill:url(#SVGID_00000028282634643778906800000015373854417780245393_);} .st4{fill:url(#SVGID_00000146460158801961387650000007325962395310560398_);} .st5{fill:url(#SVGID_00000144322591733401027240000016570209182886893753_);} .st6{fill:url(#SVGID_00000035502223533350838130000016072441493916191669_);} .st7{fill:url(#SVGID_00000085971917614169532680000012048807767359387287_);} </style> <g> <g> <linearGradient id="SVGID_1_" gradientUnits="userSpaceOnUse" x1="964.1924" y1="110.3373" x2="964.1924" y2="189.5591"> <stop offset="0" style="stop-color:#FFFFFF"></stop> <stop offset="1" style="stop-color:#C6C6C6"></stop> <stop offset="1" style="stop-color:#000000"></stop> </linearGradient> <path class="st0" d="M943.7,112.2c-6.3-4-11.5-1.2-11.5,6.3v63c0,7.5,5.1,10.3,11.5,6.3l47.7-30.4c6.3-4,6.3-10.6,0-14.7 L943.7,112.2z"></path> <linearGradient id="SVGID_00000151519174467854868660000012791433500754990001_" gradientUnits="userSpaceOnUse" x1="953.9651" y1="280.3459" x2="953.9651" y2="-29.044"> <stop offset="0" style="stop-color:#F05A28"></stop> <stop offset="1" style="stop-color:#FAAF40"></stop> </linearGradient> <path style="fill:url(#SVGID_00000151519174467854868660000012791433500754990001_);" d="M1060.6,203.7l-20.1-11.4 c-5.7-3.3-15.1-3.3-20.7,0.1l-58.7,33.9c-2.3,1.3-7.4,1.3-9.7,0l-58.7-33.9c-2.5-1.4-4.8-5.5-4.8-8.4V116c0-2.9,2.3-7,4.8-8.4 l58.7-33.9c2.3-1.3,7.4-1.3,9.7,0l58.4,33.7c5.6,3.3,15,3.3,20.7,0.1l20.3-11.6c3.8-2.2,5.9-5.5,5.9-9.1c0-3.7-2.1-7-5.9-9.2 l-93.9-54.3c-5.7-3.3-15-3.3-20.7,0l-94.1,54.3c-5.9,3.4-10.4,11.1-10.4,17.9v108.6c0,6.8,4.4,14.5,10.4,18l94.1,54.3 c2.8,1.6,6.5,2.5,10.3,2.5c3.8,0,7.5-0.9,10.4-2.6l94-54.3c3.8-2.2,5.9-5.5,5.9-9.3C1066.5,209.2,1064.4,205.9,1060.6,203.7z"></path> </g> <g> <g> <g> <linearGradient id="SVGID_00000067917070807271338650000002879626486761342113_" gradientUnits="userSpaceOnUse" x1="459.0578" y1="96.8971" x2="459.0578" y2="201.6604"> <stop offset="0" style="stop-color:#FFFFFF"></stop> <stop offset="1" style="stop-color:#C6C6C6"></stop> <stop offset="1" style="stop-color:#000000"></stop> </linearGradient> <path style="fill:url(#SVGID_00000067917070807271338650000002879626486761342113_);" d="M425,165.1c0.4,3.2,1.3,5.5,2.9,6.9 c2,1.9,4.5,3,7.4,3.3c0,0,79.8,0,85.5,0c5.7,0,4.7,5.5,4,7.6c-1.1,3.9-3.8,8-7.9,12.3c-4.5,4.3-11.9,6.5-22.3,6.6l-67.1-0.1 c-11.6-0.4-20.3-3-26-8c-5.9-5.2-8.9-12.4-8.9-21.4v-46c0-8.9,3-16.1,9-21.4c6-5.1,14.6-7.7,25.7-7.9h67.8 c7.8,0,15,2.9,21.6,8.6c3.2,2.8,5.8,6.6,7.6,11.6c0.9,3.2,2.3,6.1-3.9,6.1c-4.4,0-85.4,0-85.4,0c-3,0-5.5,1-7.4,3 c-1.7,2-2.6,4.6-2.7,7.7c0,0-0.1,4.7,2.6,4.7c1.1,0,2,0,3.8,0c18.4,0,70.6,0,75.2,0c5.6,0,5.5,4.8,5.5,4.8v12.1 c0,0-0.1,5.2-5.5,5.2c-4.7,0-63.8,0-78.3,0C424.2,160.7,425,165.1,425,165.1z"></path> </g> </g> <g> <g> <linearGradient id="SVGID_00000124147226033604957020000009302824699734236347_" gradientUnits="userSpaceOnUse" x1="703.4583" y1="96.8971" x2="703.4583" y2="201.6604"> <stop offset="0" style="stop-color:#FFFFFF"></stop> <stop offset="1" style="stop-color:#C6C6C6"></stop> <stop offset="1" style="stop-color:#000000"></stop> </linearGradient> <path style="fill:url(#SVGID_00000124147226033604957020000009302824699734236347_);" d="M669.4,165.1c0.4,3.2,1.3,5.5,2.9,6.9 c2,1.9,4.5,3,7.4,3.3c0,0,79.7,0,85.5,0c5.7,0,4.7,5.5,4,7.6c-1.1,3.9-3.8,8-7.8,12.3c-4.5,4.3-11.9,6.5-22.3,6.6l-67.1-0.1 c-11.6-0.4-20.3-3-26-8c-5.9-5.2-8.8-12.4-8.8-21.4v-46c0-8.9,3-16.1,9-21.4c6-5.1,14.6-7.7,25.7-7.9h67.8 c7.8,0,15,2.9,21.6,8.6c3.2,2.8,5.8,6.6,7.6,11.6c0.9,3.2,2.3,6.1-3.9,6.1c-4.4,0-85.4,0-85.4,0c-3,0-5.5,1-7.4,3 c-1.7,2-2.6,4.6-2.7,7.7c0,0-0.2,4.7,2.6,4.7c1.1,0,2,0,3.8,0c18.4,0,70.6,0,75.2,0c5.6,0,5.5,4.8,5.5,4.8v12.1 c0,0-0.1,5.2-5.5,5.2c-4.7,0-63.8,0-78.3,0C668.6,160.7,669.4,165.1,669.4,165.1z"></path> </g> </g> <g> <g> <linearGradient id="SVGID_00000036244602841020589590000017525890377210823074_" gradientUnits="userSpaceOnUse" x1="1192.2555" y1="96.8971" x2="1192.2555" y2="201.6604"> <stop offset="0" style="stop-color:#FFFFFF"></stop> <stop offset="1" style="stop-color:#C6C6C6"></stop> <stop offset="1" style="stop-color:#000000"></stop> </linearGradient> <path style="fill:url(#SVGID_00000036244602841020589590000017525890377210823074_);" d="M1158.2,165.1c0.4,3.2,1.3,5.5,2.9,6.9 c2,1.9,4.5,3,7.4,3.3c0,0,79.8,0,85.5,0c5.7,0,4.7,5.5,4,7.6c-1.1,3.9-3.7,8-7.8,12.3c-4.5,4.3-11.9,6.5-22.3,6.6l-67.1-0.1 c-11.6-0.4-20.3-3-26-8c-5.9-5.2-8.8-12.4-8.8-21.4v-46c0-8.9,3-16.1,9-21.4c6-5.1,14.6-7.7,25.7-7.9h67.8 c7.8,0,15,2.9,21.6,8.6c3.2,2.8,5.8,6.6,7.6,11.6c0.9,3.2,2.3,6.1-3.9,6.1c-4.4,0-85.4,0-85.4,0c-3,0-5.5,1-7.4,3 c-1.7,2-2.6,4.6-2.7,7.7c0,0-0.1,4.7,2.6,4.7c1.1,0,2,0,3.8,0c18.4,0,70.6,0,75.2,0c5.6,0,5.5,4.8,5.5,4.8v12.1 c0,0-0.1,5.2-5.5,5.2c-4.7,0-63.8,0-78.3,0C1157.4,160.7,1158.2,165.1,1158.2,165.1z"></path> </g> </g> <g> <g> <linearGradient id="SVGID_00000091695306373106948600000009948849820298077626_" gradientUnits="userSpaceOnUse" x1="1436.6516" y1="96.8971" x2="1436.6516" y2="201.6604"> <stop offset="0" style="stop-color:#FFFFFF"></stop> <stop offset="1" style="stop-color:#C6C6C6"></stop> <stop offset="1" style="stop-color:#000000"></stop> </linearGradient> <path style="fill:url(#SVGID_00000091695306373106948600000009948849820298077626_);" d="M1402.6,165.1c0.4,3.2,1.3,5.5,2.8,6.9 c2,1.9,4.5,3,7.4,3.3c0,0,79.8,0,85.5,0c5.7,0,4.7,5.5,4,7.6c-1.1,3.9-3.8,8-7.9,12.3c-4.5,4.3-11.9,6.5-22.3,6.6l-67.1-0.1 c-11.6-0.4-20.3-3-26-8c-5.9-5.2-8.9-12.4-8.9-21.4v-46c0-8.9,3-16.1,9-21.4c6-5.1,14.6-7.7,25.7-7.9h67.8 c7.8,0,15,2.9,21.6,8.6c3.2,2.8,5.7,6.6,7.6,11.6c0.9,3.2,2.3,6.1-3.9,6.1c-4.4,0-85.4,0-85.4,0c-3,0-5.5,1-7.4,3 c-1.7,2-2.6,4.6-2.7,7.7c0,0-0.2,4.7,2.6,4.7c1.1,0,2,0,3.8,0c18.4,0,70.6,0,75.2,0c5.6,0,5.5,4.8,5.5,4.8v12.1 c0,0-0.1,5.2-5.5,5.2c-4.7,0-63.8,0-78.4,0C1401.8,160.7,1402.6,165.1,1402.6,165.1z"></path> </g> </g> <linearGradient id="SVGID_00000180331746962625321930000012697731386161085064_" gradientUnits="userSpaceOnUse" x1="214.6615" y1="98.3109" x2="214.6615" y2="201.6693"> <stop offset="0" style="stop-color:#FFFFFF"></stop> <stop offset="1" style="stop-color:#C6C6C6"></stop> <stop offset="1" style="stop-color:#000000"></stop> </linearGradient> <path style="fill:url(#SVGID_00000180331746962625321930000012697731386161085064_);" d="M263.4,149.6v-0.4c9.2-3,13.9-11.7,14-26 c0-16.6-9.1-24.8-27.4-24.8h-92.3c0,0-9,0.2-9,10.2s0,70.4,0,82.2c0,11.8,9.8,10.9,9.8,10.9H250c20.5,0,30.7-8.4,30.7-25.3 C280.7,160.1,274.9,151.2,263.4,149.6z M186.2,123.1h8.6h38.3h6.6c4,0,6,2.7,6,8.1c0,5.3-2,8-6,8h-6.6h-38.3h-8.6c-4,0-6-2.7-6-8 C180.2,125.9,182.2,123.1,186.2,123.1z M240.4,176.8h-7.3h-38.3h-9.3c-5.3,0-8-3.1-8-9.4c0-5.7,2.7-8.6,8.1-8.6h9.2h38.3h7.2 c5.4,0,8.1,2.9,8.1,8.6C248.4,173.7,245.8,176.8,240.4,176.8z"></path> <g> <linearGradient id="SVGID_00000141418310654835307480000018254996801662538934_" gradientUnits="userSpaceOnUse" x1="1681.0519" y1="98.3292" x2="1681.0519" y2="201.6678"> <stop offset="0" style="stop-color:#FFFFFF"></stop> <stop offset="1" style="stop-color:#C6C6C6"></stop> <stop offset="1" style="stop-color:#000000"></stop> </linearGradient> <path style="fill:url(#SVGID_00000141418310654835307480000018254996801662538934_);" d="M1610.8,104.4c0-3.3,2.7-6.1,6.1-6.1 h36.9c3.3,0,7.8,2.1,9.8,4.7l52.3,65.6c2.1,2.6,3.8,2,3.8-1.3v-62.9c0-3.3,2.7-6.1,6.1-6.1h19.6c3.3,0,6.1,2.7,6.1,6.1v91.2 c0,3.3-2.7,6.1-6.1,6.1h-37c-3.3,0-7.8-2.1-9.8-4.7l-52.2-65.6c-2.1-2.6-3.8-2-3.8,1.3v62.9c0,3.3-2.7,6.1-6.1,6.1h-19.5 c-3.3,0-6.1-2.7-6.1-6.1V104.4z"></path> </g> </g> </g> </svg> 