<?xml version="1.0" encoding="iso-8859-1"?>
<!-- Generator: Adobe Illustrator 17.1.0, SVG Export Plug-In . SVG Version: 6.00 Build 0)  -->
<!DOCTYPE svg PUBLIC "-//W3C//DTD SVG 1.1//EN" "http://www.w3.org/Graphics/SVG/1.1/DTD/svg11.dtd">
<svg version="1.1" id="Layer_1" xmlns="http://www.w3.org/2000/svg" xmlns:xlink="http://www.w3.org/1999/xlink" x="0px" y="0px"
	 viewBox="0 0 100 18" style="enable-background:new 0 0 100 18;" xml:space="preserve">
<g>
	<path style="fill:#FFFFFF;" d="M9.553,0.098c-1.93,0-4.126,0.376-5.976,1.202C1.855,2.07,0.438,3.306,0.438,5.372
		c0,1.845,1.179,2.931,1.141,2.894c0.506,0.466,1.313,1.253,3.422,1.708c0.94,0.208,2.948,0.517,4.962,0.741
		c1.986,0.208,3.952,0.408,4.75,0.604c0.636,0.166,1.692,0.388,1.692,1.577c0,1.196-1.12,1.555-1.315,1.632
		c-0.201,0.079-1.54,0.695-3.965,0.695c-1.788,0-3.931-0.539-4.716-0.809c-0.894-0.323-1.839-0.756-2.726-1.835
		c-0.218-0.267-0.551-1.006-0.551-1.729H0.924v6.13H3.36v-0.827c0-0.083,0.128-0.482,0.527-0.288
		c0.507,0.238,1.999,0.823,3.568,1.143c1.272,0.266,2.098,0.459,3.684,0.459c2.597,0,3.993-0.421,4.949-0.695
		c0.924-0.27,2.046-0.736,2.944-1.451c0.496-0.387,1.569-1.403,1.569-3.225c0-1.759-0.934-2.854-1.272-3.177
		c-0.449-0.456-0.992-0.805-1.568-1.074c-0.511-0.231-1.295-0.519-1.94-0.671c-1.262-0.319-4.096-0.694-5.443-0.831
		C8.96,6.188,6.486,5.987,5.507,5.68C5.205,5.592,4.593,5.293,4.593,4.592c0-0.5,0.288-0.931,0.834-1.283
		C6.294,2.766,8.073,2.432,9.9,2.432c2.181-0.004,4.022,0.478,5.19,1.007c0.398,0.192,0.862,0.438,1.237,0.739
		c0.42,0.341,1.001,1.05,1.213,2.035h1.969V0.876h-2.191v0.618c0,0.203-0.205,0.458-0.604,0.252
		C15.734,1.223,12.959,0.113,9.553,0.098"/>
	<path style="fill:#FFFFFF;" d="M35.905,17.633c-3.603,0-6.94-1.086-9.185-3.096c-1.678-1.517-2.502-3.574-2.502-5.686
		c0-2.086,0.853-4.173,2.502-5.68c2.079-1.885,5.745-3.076,9.185-3.076c3.834,0,6.882,0.968,9.212,3.085
		c1.662,1.515,2.465,3.574,2.465,5.671c0,2.03-0.847,4.194-2.465,5.686C42.949,16.565,39.528,17.633,35.905,17.633 M35.905,15.322
		c1.93,0,3.698-0.673,4.934-1.899c1.234-1.231,1.806-2.73,1.806-4.571c0-1.774-0.618-3.412-1.806-4.583
		c-1.219-1.202-3.042-1.89-4.934-1.89c-1.893,0-3.706,0.678-4.938,1.89c-1.174,1.171-1.795,2.82-1.795,4.583
		c0,1.752,0.629,3.396,1.795,4.571C32.198,14.647,34.012,15.322,35.905,15.322"/>
	<path style="fill:#FFFFFF;" d="M49.98,1.088v1.941h1.705c1.229,0,1.318,0.688,1.318,1.279v9.114c0,0.548,0.035,1.292-0.755,1.292
		h-2.106v1.949h8.991v-1.949h-2.189c-0.872,0-0.922-0.391-0.938-1.251V5.661l12.337,11.002h3.129L71.308,4.235
		c0.023-0.9,0.069-1.21,1.008-1.21h1.962V1.088h-9.151v1.937h2.013c0.917,0,1.082,0.365,1.09,1.21l0.112,6.501L57.64,1.088H49.98"/>
	<path style="fill:#FFFFFF;" d="M82.835,14.714v1.949h10.676V14.71H91.49l-0.529-0.034c-0.212-0.054-0.36-0.203-0.418-0.362
		l-0.039-0.43v-3.071l0.076-0.293c0.142-0.17,5.67-6.476,5.923-6.751c0.53-0.613,0.824-0.744,1.535-0.744H100V1.088h-8.797v1.937
		h1.32c0.389,0,0.5,0.397,0.334,0.606l-3.742,4.368l-0.107-0.011l-3.643-4.357c-0.262-0.325-0.045-0.606,0.239-0.606h1.295V1.088
		H76.161v1.937h1.916c0.828,0,1.367,0.525,1.682,0.87c0.252,0.271,5.715,6.469,5.844,6.646c0.139,0.169,0.139,0.196,0.139,0.272
		v3.071l-0.037,0.43c-0.085,0.159-0.215,0.307-0.425,0.362l-0.534,0.038H82.835"/>
</g>
</svg>
