<svg width="138" height="31" viewBox="0 0 138 31" fill="none" xmlns="http://www.w3.org/2000/svg">
<g clip-path="url(#clip0_1299_2260)">
<path d="M48.7605 13.2628C48.4447 11.4566 47.0087 10.4177 45.1719 10.4177C42.7037 10.4177 40.9655 12.3122 40.9655 15.714C40.9655 19.1158 42.7173 21.0102 45.1651 21.0102C46.9713 21.0102 48.4142 20.0155 48.7605 18.2467L51.5173 18.2603C51.0963 21.1393 48.7164 23.4615 45.1312 23.4615C41.1522 23.4615 38.2223 20.5825 38.2223 15.7106C38.2223 10.8387 41.1896 7.95972 45.1312 7.95972C48.4753 7.95972 51.0555 9.90507 51.5173 13.256H48.7605V13.2628Z" fill="white"/>
<path d="M52.6071 17.6695C52.6071 14.1794 54.7222 11.7995 57.9611 11.7995C60.745 11.7995 63.1317 13.5445 63.1317 17.5167V18.3349H55.2485C55.2688 20.2735 56.413 21.4074 58.1376 21.4074C59.2852 21.4074 60.1713 20.905 60.5312 19.9476L63.0197 20.226C62.5478 22.1917 60.7348 23.4818 58.0969 23.4818C54.6849 23.4818 52.6003 21.2207 52.6003 17.6695H52.6071ZM60.5787 16.5322C60.5651 14.9908 59.533 13.8738 58.0018 13.8738C56.4707 13.8738 55.3435 15.0893 55.2621 16.5322H60.5821H60.5787Z" fill="white"/>
<path d="M67.647 23.2578H64.9819V11.9421H67.5316V13.8637H67.664C68.1801 12.6042 69.3446 11.7928 71.0387 11.7928C73.3745 11.7928 74.9226 13.3409 74.9124 16.0501V23.2544H72.2439V16.4609C72.2439 14.9501 71.4189 14.0437 70.0405 14.0437C68.6622 14.0437 67.647 14.9875 67.647 16.6205V23.251V23.2578Z" fill="white"/>
<path d="M77.0174 10.6689L79.6825 7.99365V11.9455H81.913V14.0097H79.6825V19.8593C79.6825 20.9355 80.2189 21.1698 80.8911 21.1698C81.2239 21.1698 81.526 21.1019 81.672 21.0679L82.1201 23.1525C81.8316 23.2476 81.3087 23.3969 80.5516 23.4173C78.5486 23.475 77.0004 22.4294 77.014 20.3007V10.6689H77.0174Z" fill="white"/>
<path d="M82.7651 17.6456C82.7651 14.1386 84.8735 11.796 88.187 11.796C91.5006 11.796 93.6089 14.1386 93.6089 17.6456C93.6089 21.1527 91.5006 23.4783 88.187 23.4783C84.8735 23.4783 82.7651 21.1425 82.7651 17.6456ZM90.9064 17.6389C90.9064 15.5679 90.0068 13.9111 88.204 13.9111C86.4012 13.9111 85.471 15.5679 85.471 17.6389C85.471 19.7098 86.3707 21.3428 88.204 21.3428C90.0373 21.3428 90.9064 19.7064 90.9064 17.6389Z" fill="white"/>
<path d="M100.589 23.2576H97.6422L93.6123 11.9419H96.4573L99.0579 20.348H99.1768L101.784 11.9419H104.619L100.589 23.2576Z" fill="white"/>
<path d="M105.933 14.5629L108.598 11.9419V23.2576H105.933V14.5629Z" fill="white"/>
<path d="M105.933 11.9012H108.598V9.49069H105.933V11.9012Z" fill="white"/>
<path d="M110.404 17.6695C110.404 14.1794 112.519 11.7995 115.758 11.7995C118.542 11.7995 120.929 13.5445 120.929 17.5167V18.3349H113.046C113.066 20.2735 114.21 21.4074 115.935 21.4074C117.082 21.4074 117.968 20.905 118.328 19.9476L120.817 20.226C120.345 22.1917 118.532 23.4818 115.894 23.4818C112.482 23.4818 110.397 21.2207 110.397 17.6695H110.404ZM118.376 16.5322C118.362 14.9908 117.33 13.8738 115.799 13.8738C114.268 13.8738 113.141 15.0893 113.059 16.5322H118.379H118.376Z" fill="white"/>
<path d="M121.139 11.9454H123.859L125.848 19.9H125.95L127.984 11.9454H130.673L132.706 19.8558H132.818L134.777 11.9454H137.503L134.298 23.2611H131.521L129.399 15.6154H129.243L127.121 23.2611H124.337L121.139 11.9454Z" fill="white"/>
</g>
<path d="M30.665 9.80303C30.6049 9.02227 30.4948 8.50623 30.298 8.06726C29.9211 7.22284 29.3139 6.50574 28.55 5.99306C28.153 5.72834 27.6626 5.53063 26.9053 5.34298C26.1414 5.15533 25.1606 4.98779 23.7995 4.75992L10.4988 2.53158C8.66067 2.22329 7.33294 1.99878 6.28877 1.91836C5.99186 1.8949 5.72832 1.8815 5.48479 1.8815C4.8743 1.8815 4.41727 1.95522 4.02362 2.10266C2.95276 2.50142 2.05537 3.26542 1.48825 4.25729C1.19468 4.76998 1.02121 5.42675 0.931137 6.47224C0.841064 7.52442 0.841064 8.87483 0.841064 10.748V20.794C0.841064 22.6671 0.841064 24.0176 0.931137 25.0697C1.02121 26.1119 1.19468 26.772 1.48825 27.2847C2.05537 28.2799 2.95276 29.0406 4.02362 29.4393C4.41727 29.5868 4.8743 29.6605 5.48479 29.6605C5.72832 29.6605 5.99186 29.6504 6.28877 29.6236C7.33627 29.5398 8.664 29.3187 10.5021 29.0104L19.416 27.5159L26.4049 30.6825C26.6017 30.7696 26.8119 30.5887 26.7552 30.3809L25.6576 26.4604C26.1313 26.3732 26.545 26.2895 26.9053 26.199C27.6626 26.0113 28.153 25.8136 28.55 25.5489C29.3172 25.0362 29.9211 24.3191 30.298 23.4747C30.4948 23.0357 30.6049 22.5197 30.665 21.7389C30.725 20.9481 30.725 19.9529 30.725 18.5656V12.9797C30.725 11.5924 30.725 10.5938 30.665 9.80638V9.80303Z" fill="url(#paint0_radial_1299_2260)"/>
<path d="M21.3443 16.9571L14.5822 21.568C13.7115 22.1912 12.5605 21.5076 12.5605 20.365V11.1433C12.5605 10.0007 13.7148 9.31707 14.5822 9.94034L21.3443 14.5512C22.1349 15.1175 22.1349 16.3908 21.3443 16.9571Z" fill="white"/>
<path opacity="0.12" d="M17.6446 19.4805L20.6537 17.4297C20.6537 17.4297 21.134 17.1014 21.2975 16.9908C21.4476 16.8936 21.5377 16.7931 21.5377 16.7931H21.5444C20.647 17.2387 18.8489 17.1315 17.8681 15.9419L17.0675 14.9836C15.9265 13.6164 13.0109 13.3852 12.5538 14.9668L12.5605 15.054V18.6997C12.5705 18.9477 13.0309 19.2761 13.4312 19.2627L17.6446 19.4872V19.4805Z" fill="url(#paint1_linear_1299_2260)"/>
<defs>
<radialGradient id="paint0_radial_1299_2260" cx="0" cy="0" r="1" gradientUnits="userSpaceOnUse" gradientTransform="translate(3.59327 4.51531) scale(31.3184 31.4583)">
<stop stop-color="#FC7B00"/>
<stop offset="0.51" stop-color="#CD176F"/>
<stop offset="1" stop-color="#375AE7"/>
</radialGradient>
<linearGradient id="paint1_linear_1299_2260" x1="17.1675" y1="13.7538" x2="16.9185" y2="18.0328" gradientUnits="userSpaceOnUse">
<stop/>
<stop offset="0.99" stop-opacity="0"/>
</linearGradient>
<clipPath id="clip0_1299_2260">
<rect width="137" height="29.4893" fill="white" transform="translate(0.5 0.752014)"/>
</clipPath>
</defs>
</svg>
