<svg width="131" height="50" viewBox="0 0 131 50" fill="none" xmlns="http://www.w3.org/2000/svg">
<g clip-path="url(#clip0_104_513)">
<path d="M61.6977 21.6954C64.3963 23.4673 66.1762 26.5043 66.1762 29.9549V38.6399C66.1762 39.3087 65.7504 39.8521 65.0764 39.8521H63.0406C62.3665 39.8521 61.6977 39.3094 61.6977 38.6399V38.2152C60.1216 39.249 58.3537 39.8521 56.3224 39.8521C50.814 39.8521 46.3475 35.4207 46.3475 29.9557C46.3475 24.4906 50.6929 20.0593 56.2013 20.0593C58.2318 20.0593 60.1216 20.6616 61.6977 21.6961M56.2013 35.4081C59.2369 35.4081 61.6977 32.9666 61.6977 29.9549C61.6977 26.9432 59.2369 24.5018 56.2013 24.5018C53.1657 24.5018 50.826 26.9432 50.826 29.9549C50.826 32.9666 53.1657 35.4081 56.2013 35.4081ZM95.6264 20.4108C92.0386 20.6355 90.23 21.8931 88.3793 24.5406V21.2699C88.3793 20.6004 87.8324 20.0578 87.1575 20.0578H85.1218C84.447 20.0578 83.9 20.6004 83.9 21.2699V38.6392C83.9 39.3087 84.5681 39.8513 85.2429 39.8513H87.2787C87.9535 39.8513 88.3786 39.3087 88.3786 38.6392V32.3844C88.3786 29.1981 90.2142 27.1142 92.0867 26.011C93.2009 25.3549 94.6897 25.19 95.7129 25.1646C96.3689 25.1482 96.8895 24.5443 96.8895 23.8144V21.761C96.8895 20.993 96.3147 20.3675 95.6256 20.4108H95.6264ZM34.3473 20.0585C39.855 20.0585 44.3215 24.4891 44.3215 29.9549C44.3215 35.4207 39.8558 39.8513 34.3473 39.8513C28.8389 39.8513 24.3724 35.4207 24.3724 29.9549C24.3724 24.4891 28.8381 20.0585 34.3473 20.0585ZM39.8437 29.9549C39.8437 26.9425 37.3829 24.5025 34.3481 24.5025C31.3132 24.5025 28.8509 26.9432 28.8509 29.9549C28.8509 32.9666 31.3117 35.4088 34.3481 35.4088C37.3844 35.4088 39.8437 32.9673 39.8437 29.9549ZM106.906 20.0585C112.414 20.0585 116.88 24.4891 116.88 29.9549C116.88 35.4207 112.535 39.8513 107.027 39.8513C101.518 39.8513 96.9301 35.4207 96.9301 29.9549C96.9301 24.4891 101.396 20.0585 106.905 20.0585H106.906ZM112.401 29.9549C112.401 26.9425 109.941 24.5025 106.906 24.5025C103.871 24.5025 101.409 26.9432 101.409 29.9549C101.409 32.9666 103.869 35.4088 106.906 35.4088C109.942 35.4088 112.401 32.9673 112.401 29.9549ZM119.891 23.4516V20.6086H118.897V20.0846H121.53V20.6086H120.541V23.4516H119.891ZM121.995 23.4516V20.0846H122.776L123.813 22.1865L124.841 20.0846H125.622V23.4516H124.967V21.1908L124.071 22.9799H123.552L122.65 21.1908V23.4516H121.995ZM80.9096 23.3956V21.1124C80.9096 20.531 80.4341 20.0593 79.8481 20.0593H74.2358C73.6497 20.0593 73.1743 19.5875 73.1743 19.0061V12.3587C73.1743 11.1384 72.1767 10.1487 70.9467 10.1487H69.8716C69.2209 10.1487 68.6882 10.6771 68.6882 11.3228V29.9572C68.6882 29.9803 68.6882 30.0019 68.6897 30.0243C68.7251 35.4588 73.2992 39.8528 78.785 39.8528C79.183 39.8528 79.575 39.8297 79.9609 39.7849C80.4838 39.7244 80.9103 39.243 80.9103 38.7213V37.2419C80.9103 36.185 80.0173 35.3476 78.9536 35.4021C78.858 35.4073 78.761 35.4095 78.6639 35.4095C75.6509 35.4095 73.2029 33.0039 73.1667 30.0243V29.9572C73.1667 29.8631 73.169 29.7691 73.1743 29.6765V25.5034C73.1743 24.922 73.6497 24.4503 74.2358 24.4503H79.8481C80.4341 24.4503 80.9096 23.9786 80.9096 23.3971V23.3956ZM19.9345 34.0937C18.9662 34.9192 17.7039 35.4163 16.3241 35.4088C13.4051 35.3931 10.9759 33.0666 10.8623 30.1729C10.7404 27.0627 13.2464 24.5025 16.355 24.5025C17.7196 24.5025 18.967 24.9959 19.9277 25.8117C20.5875 26.3722 21.5835 26.2872 22.1478 25.6318L23.2018 24.407C23.6441 23.8927 23.6012 23.121 23.0987 22.6634C21.3232 21.0467 18.9549 20.0593 16.355 20.0593C10.7653 20.0593 6.24911 24.6197 6.38227 30.196C6.50941 35.5028 10.9165 39.8058 16.2669 39.8513C18.9045 39.8737 21.3074 38.881 23.1032 37.2427C23.6058 36.7844 23.6494 36.0119 23.2055 35.4976L22.1387 34.2608C21.5768 33.6092 20.5897 33.5354 19.9345 34.0937Z" fill="white"/>
</g>
<defs>
<clipPath id="clip0_104_513">
<rect width="130" height="50" fill="white" transform="translate(0.391602)"/>
</clipPath>
</defs>
</svg>
