<svg width="194.62019px" height="39.9888388px" viewBox="0 0 194.62019 39.9888388" version="1.1"
    xmlns="http://www.w3.org/2000/svg" xmlns:xlink="http://www.w3.org/1999/xlink">
    <g id="Page-1" stroke="none" stroke-width="1" fill="none" fill-rule="evenodd">
        <g id="vistar-header-logo" fill="#F4FFEB" fill-rule="nonzero">
            <g id="Group" transform="translate(91.0564, 0)">
                <path
                    d="M5.1810138,6.12727 L8.1542138,15.6313 L11.0756138,6.12727 C11.1166138,5.99537 11.1996138,5.88007 11.3106138,5.79804 C11.4216138,5.71602 11.5566138,5.67151 11.6946138,5.67097 L15.5156138,5.67097 C15.6226138,5.66489 15.7296138,5.68537 15.8266138,5.73057 C15.9246138,5.77576 16.0096138,5.84429 16.0736138,5.93005 C16.1386138,6.01582 16.1806138,6.11616 16.1966138,6.2222 C16.2136138,6.32824 16.2036138,6.43671 16.1676138,6.53794 L11.3686138,20.129 C11.3246138,20.2563 11.2416138,20.3665 11.1316138,20.4447 C11.0216138,20.523 10.8906138,20.5653 10.7556138,20.5658 L5.4679138,20.5658 C5.3331138,20.5653 5.2018138,20.523 5.0921138,20.4447 C4.9823138,20.3665 4.8995138,20.2563 4.8550138,20.129 L0.0365138028,6.53794 C0.00221380282,6.43989 -0.00808619718,6.33505 0.00631380282,6.23219 C0.0208138028,6.12932 0.0596138028,6.03143 0.119613803,5.9466 C0.179613803,5.86178 0.258913803,5.79251 0.351113803,5.74457 C0.443213803,5.69663 0.545513803,5.67138 0.649413803,5.67097 L4.5616138,5.67097 C4.6999138,5.67151 4.8344138,5.71602 4.9458138,5.79804 C5.0571138,5.88007 5.1395138,5.99537 5.1810138,6.12727 Z"
                    id="Path"></path>
                <path
                    d="M21.6756138,5.66406 L17.9586138,5.66406 C17.5986138,5.66406 17.3066138,5.95591 17.3066138,6.31591 L17.3066138,19.907 C17.3066138,20.267 17.5986138,20.5589 17.9586138,20.5589 L21.6756138,20.5589 C22.0356138,20.5589 22.3276138,20.267 22.3276138,19.907 L22.3276138,6.31591 C22.3276138,5.95591 22.0356138,5.66406 21.6756138,5.66406 Z"
                    id="Path"></path>
                <path
                    d="M29.6186138,16.869 C30.1696138,17.2111 30.8096138,17.3813 31.4576138,17.3579 C32.0686138,17.3875 32.6786138,17.2807 33.2436138,17.045 C33.4386138,16.9653 33.6056138,16.8287 33.7216138,16.6532 C33.8376138,16.4777 33.8986138,16.2712 33.8956138,16.0607 C33.9036138,15.945 33.8816138,15.8293 33.8346138,15.7236 C33.7866138,15.6179 33.7136138,15.5255 33.6216138,15.4545 C33.3596138,15.2902 33.0626138,15.1877 32.7546138,15.1546 C32.3566138,15.0829 31.6726138,14.9852 30.6876138,14.8483 C29.0536138,14.7198 27.4596138,14.2772 25.9936138,13.5446 C25.4716138,13.2374 25.0466138,12.7911 24.7636138,12.2558 C24.4816138,11.7204 24.3546138,11.1171 24.3956138,10.5134 C24.3746138,9.79442 24.5306138,9.08125 24.8506138,8.43673 C25.1696138,7.79221 25.6426138,7.23612 26.2276138,6.81745 C27.6606138,5.8288 29.3796138,5.34072 31.1186138,5.429 C32.9706138,5.33983 34.8076138,5.79292 36.4066138,6.7327 C36.9196138,7.03884 37.3656138,7.44641 37.7166138,7.93058 C38.0676138,8.41474 38.3156138,8.96533 38.4466138,9.54871 C38.4616138,9.64213 38.4546138,9.73754 38.4286138,9.82828 C38.4016138,9.91903 38.3566138,10.0029 38.2946138,10.0742 C38.2326138,10.1455 38.1556138,10.2025 38.0696138,10.2412 C37.9826138,10.2799 37.8896138,10.2994 37.7946138,10.2984 L34.3136138,10.2984 C34.1856138,10.2941 34.0616138,10.2523 33.9566138,10.1781 C33.8526138,10.1039 33.7726138,10.0006 33.7266138,9.88116 C33.5786138,9.60358 33.3516138,9.37652 33.0746138,9.22931 C32.5286138,8.92712 31.9106138,8.78053 31.2876138,8.80559 C30.7396138,8.78016 30.1926138,8.88984 29.6966138,9.12499 C29.5216138,9.20745 29.3736138,9.33853 29.2706138,9.50264 C29.1676138,9.66674 29.1146138,9.85699 29.1166138,10.0506 C29.1256138,10.2087 29.1886138,10.359 29.2936138,10.4773 C29.3986138,10.5956 29.5406138,10.6749 29.6966138,10.7025 C30.3876138,10.8776 31.0926138,10.9888 31.8026138,11.0349 L32.3836138,11.0936 C34.0106138,11.2016 35.5976138,11.6455 37.0446138,12.3973 C38.1536138,13.0448 38.7076138,14.1464 38.7076138,15.7022 C38.7266138,16.6645 38.4086138,17.6031 37.8076138,18.3552 C37.1426138,19.1576 36.2696138,19.7619 35.2846138,20.1022 C34.0706138,20.5498 32.7836138,20.7707 31.4896138,20.7541 C29.6346138,20.8387 27.7976138,20.3517 26.2276138,19.3591 C25.1696138,18.6677 24.4286138,17.5846 24.1676138,16.3475 C24.1526138,16.2563 24.1576138,16.1629 24.1816138,16.0737 C24.2056138,15.9844 24.2486138,15.9013 24.3066138,15.8298 C24.3656138,15.7583 24.4386138,15.7 24.5216138,15.6589 C24.6036138,15.6178 24.6946138,15.5948 24.7866138,15.5914 L28.2496138,15.5914 C28.3736138,15.5953 28.4946138,15.6347 28.5976138,15.7052 C28.7006138,15.7757 28.7806138,15.8742 28.8296138,15.989 C28.9956138,16.3567 29.2706138,16.664 29.6186138,16.869 Z"
                    id="Path"></path>
                <path
                    d="M39.1626138,9.14559 L39.1626138,6.32306 C39.1626138,6.15018 39.2306138,5.98439 39.3526138,5.86214 C39.4756138,5.7399 39.6416138,5.67121 39.8146138,5.67121 L41.5026138,5.67121 L41.5026138,2.13818 C41.5026138,1.9653 41.5716138,1.79951 41.6936138,1.67726 C41.8166138,1.55501 41.9816138,1.48633 42.1546138,1.48633 L45.8456138,1.48633 C46.0186138,1.48633 46.1836138,1.55501 46.3066138,1.67726 C46.4286138,1.79951 46.4976138,1.9653 46.4976138,2.13818 L46.4976138,5.67121 L49.0466138,5.67121 C49.2196138,5.67121 49.3856138,5.7399 49.5076138,5.86214 C49.6306138,5.98439 49.6986138,6.15018 49.6986138,6.32306 L49.6986138,9.14559 C49.6986138,9.31847 49.6306138,9.48427 49.5076138,9.60651 C49.3856138,9.72876 49.2196138,9.79745 49.0466138,9.79745 L46.4976138,9.79745 L46.4976138,15.0774 C46.4606138,15.2636 46.4706138,15.4558 46.5256138,15.6373 C46.5806138,15.8188 46.6796138,15.9841 46.8136138,16.1185 C46.9476138,16.253 47.1126138,16.3525 47.2936138,16.4086 C47.4746138,16.4646 47.6676138,16.4753 47.8536138,16.4398 L49.0466138,16.4398 C49.2196138,16.4398 49.3856138,16.5085 49.5076138,16.6308 C49.6306138,16.753 49.6986138,16.9188 49.6986138,17.0917 L49.6986138,19.9142 C49.6986138,20.0871 49.6306138,20.2529 49.5076138,20.3751 C49.3856138,20.4974 49.2196138,20.5661 49.0466138,20.5661 L45.9756138,20.5661 C45.3766138,20.6025 44.7766138,20.5205 44.2096138,20.3248 C43.6416138,20.129 43.1186138,19.8234 42.6696138,19.4253 C42.2586138,18.9775 41.9436138,18.4506 41.7426138,17.8768 C41.5416138,17.3029 41.4606138,16.6942 41.5026138,16.0878 L41.5026138,9.79745 L39.8146138,9.79745 C39.7286138,9.79745 39.6436138,9.78059 39.5646138,9.74783 C39.4856138,9.71507 39.4136138,9.66704 39.3526138,9.60651 C39.2926138,9.54598 39.2446138,9.47414 39.2116138,9.39505 C39.1786138,9.31596 39.1626138,9.2312 39.1626138,9.14559 Z"
                    id="Path"></path>
                <path
                    d="M65.6806138,20.565 L62.1666138,20.565 C61.9936138,20.565 61.8276138,20.4963 61.7056138,20.3741 C61.5826138,20.2518 61.5146138,20.0861 61.5146138,19.9132 L61.5146138,18.6095 C61.0006138,19.2404 60.3606138,19.7576 59.6366138,20.1283 C58.8646138,20.5105 58.0136138,20.7027 57.1526138,20.6889 C55.9276138,20.7139 54.7216138,20.3837 53.6796138,19.7382 C52.6386138,19.0927 51.8066138,18.1596 51.2846138,17.0515 C50.6856138,15.8106 50.3886138,14.446 50.4166138,13.0687 C50.3876138,11.6767 50.6846138,10.2971 51.2846138,9.04024 C51.8096138,7.93162 52.6456138,6.99887 53.6896138,6.35461 C54.7406138,5.72329 55.9466138,5.39816 57.1716138,5.41594 C58.0066138,5.39362 58.8356138,5.57061 59.5886138,5.93224 C60.3406138,6.29387 60.9966138,6.82971 61.5016138,7.49535 L61.5016138,6.30249 C61.5016138,6.12961 61.5696138,5.96378 61.6926138,5.84153 C61.8146138,5.71928 61.9806138,5.65064 62.1536138,5.65064 L65.7006138,5.65064 C65.8736138,5.65064 66.0396138,5.71928 66.1616138,5.84153 C66.2836138,5.96378 66.3526138,6.12961 66.3526138,6.30249 L66.3526138,19.8936 C66.3556138,19.9825 66.3396138,20.071 66.3066138,20.1537 C66.2736138,20.2364 66.2246138,20.3115 66.1616138,20.3744 C66.0986138,20.4373 66.0236138,20.4866 65.9406138,20.5194 C65.8586138,20.5522 65.7696138,20.5677 65.6806138,20.565 Z M61.3966138,13.1469 C61.4416138,12.1988 61.1686138,11.263 60.6216138,10.4874 C60.3666138,10.1587 60.0376138,9.89557 59.6616138,9.71982 C59.2846138,9.54407 58.8716138,9.46083 58.4566138,9.47701 C58.0406138,9.46297 57.6276138,9.54714 57.2496138,9.72269 C56.8726138,9.89823 56.5426138,10.1602 56.2856138,10.4874 C55.7616138,11.2721 55.4826138,12.1941 55.4826138,13.1372 C55.4826138,14.0802 55.7616138,15.0022 56.2856138,15.7869 C56.5426138,16.116 56.8756138,16.3783 57.2556138,16.5519 C57.6356138,16.7254 58.0516138,16.8051 58.4696138,16.7842 C58.8836138,16.8019 59.2956138,16.7207 59.6726138,16.5473 C60.0486138,16.3738 60.3786138,16.1132 60.6346138,15.7869 C61.1776138,15.0174 61.4466138,14.0876 61.3966138,13.1469 Z"
                    id="Shape"></path>
                <path
                    d="M78.5516138,9.42532 C78.5516138,9.59821 78.4826138,9.764 78.3606138,9.88624 C78.2386138,10.0085 78.0726138,10.0772 77.8996138,10.0772 L76.6736138,10.0772 C74.6526138,10.0772 73.6416138,11.1853 73.6416138,13.4016 L73.6416138,20.572 L69.2996138,20.572 C69.1266138,20.572 68.9606138,20.5033 68.8386138,20.3811 C68.7166138,20.2588 68.6476138,20.093 68.6476138,19.9201 L68.6476138,6.3225 C68.6476138,6.14962 68.7166138,5.98383 68.8386138,5.86158 C68.9606138,5.73933 69.1266138,5.67065 69.2996138,5.67065 L72.9896138,5.67065 C73.1626138,5.67065 73.3286138,5.73933 73.4506138,5.86158 C73.5736138,5.98383 73.6416138,6.14962 73.6416138,6.3225 L73.6416138,7.86086 C74.0216138,7.18462 74.5766138,6.62386 75.2496138,6.23819 C75.9226138,5.85253 76.6876138,5.65638 77.4626138,5.67065 L77.8996138,5.67065 C78.0726138,5.67065 78.2386138,5.73933 78.3606138,5.86158 C78.4826138,5.98383 78.5516138,6.14962 78.5516138,6.3225 L78.5516138,9.42532 Z"
                    id="Path"></path>
                <path
                    d="M44.4116138,31.8161 L44.4116138,39.1625 C44.4116138,39.3353 44.3426138,39.5011 44.2206138,39.6234 C44.0986138,39.7456 43.9326138,39.8143 43.7596138,39.8143 L40.0696138,39.8143 C39.8966138,39.8143 39.7306138,39.7456 39.6086138,39.6234 C39.4856138,39.5011 39.4176138,39.3353 39.4176138,39.1625 L39.4176138,31.5293 C39.4686138,30.7873 39.2966138,30.0469 38.9216138,29.4043 C38.7386138,29.1625 38.4976138,28.9712 38.2206138,28.848 C37.9426138,28.7249 37.6396138,28.6741 37.3376138,28.7002 C37.0116138,28.6881 36.6876138,28.7478 36.3876138,28.8751 C36.0876138,29.0024 35.8196138,29.1942 35.6026138,29.4368 C35.1306138,30.0277 34.8976138,30.7747 34.9506138,31.5293 L34.9506138,39.1625 C34.9506138,39.3353 34.8826138,39.5011 34.7596138,39.6234 C34.6376138,39.7456 34.4716138,39.8143 34.2986138,39.8143 L30.6086138,39.8143 C30.4356138,39.8143 30.2696138,39.7456 30.1476138,39.6234 C30.0246138,39.5011 29.9566138,39.3353 29.9566138,39.1625 L29.9566138,31.5293 C30.0106138,30.7853 29.8456138,30.0419 29.4806138,29.3912 C29.2936138,29.1498 29.0476138,28.9599 28.7676138,28.839 C28.4866138,28.7182 28.1806138,28.6704 27.8766138,28.7002 C27.5486138,28.6852 27.2216138,28.7436 26.9196138,28.871 C26.6166138,28.9984 26.3466138,29.1918 26.1286138,29.4368 C25.6616138,30.0304 25.4296138,30.7753 25.4766138,31.5293 L25.4766138,39.1625 C25.4766138,39.3353 25.4086138,39.5011 25.2856138,39.6234 C25.1636138,39.7456 24.9976138,39.8143 24.8246138,39.8143 L21.1346138,39.8143 C20.9616138,39.8143 20.7956138,39.7456 20.6736138,39.6234 C20.5516138,39.5011 20.4826138,39.3353 20.4826138,39.1625 L20.4826138,25.5387 C20.4826138,25.3658 20.5516138,25.2001 20.6736138,25.0778 C20.7956138,24.9556 20.9616138,24.8869 21.1346138,24.8869 L24.5906138,24.8869 C24.7636138,24.8869 24.9286138,24.9556 25.0516138,25.0778 C25.1736138,25.2001 25.2426138,25.3658 25.2426138,25.5387 L25.2426138,26.6795 C25.7356138,26.0649 26.3626138,25.5701 27.0746138,25.2324 C27.8986138,24.8804 28.7866138,24.705 29.6826138,24.7174 C31.7426138,24.7174 33.1906138,25.5062 34.0116138,27.0837 C34.5626138,26.3191 35.3046138,25.7122 36.1636138,25.3236 C37.0846138,24.9077 38.0866138,24.7007 39.0976138,24.7174 C39.8126138,24.6944 40.5246138,24.8251 41.1846138,25.1006 C41.8446138,25.3761 42.4386138,25.79 42.9246138,26.3144 C43.9166138,27.3835 44.4116138,29.2174 44.4116138,31.8161 Z"
                    id="Path"></path>
                <path
                    d="M49.5026138,25.6577 C50.7576138,25.0116 52.1536138,24.6889 53.5646138,24.719 C55.0066138,24.6873 56.4356138,24.9931 57.7376138,25.6121 C58.8976138,26.1683 59.8746138,27.0434 60.5546138,28.1347 C61.2426138,29.2691 61.5936138,30.576 61.5656138,31.9024 C61.5726138,32.4448 61.5246138,32.9865 61.4216138,33.519 L51.0216138,33.519 L51.0216138,33.5777 C51.2696138,35.4246 52.2326138,36.3481 53.9106138,36.3481 C55.1626138,36.3481 55.9776138,35.9244 56.3556138,35.0444 C56.4086138,34.9356 56.4916138,34.8439 56.5936138,34.7794 C56.6966138,34.7149 56.8146138,34.6803 56.9356138,34.6793 L60.5546138,34.6793 C60.6566138,34.6758 60.7576138,34.6962 60.8506138,34.739 C60.9426138,34.7818 61.0246138,34.8457 61.0876138,34.9256 C61.1516138,35.0054 61.1946138,35.0991 61.2156138,35.199 C61.2366138,35.2988 61.2326138,35.4022 61.2066138,35.5007 C61.0116138,36.1594 60.6946138,36.7761 60.2746138,37.3193 C59.6306138,38.1501 58.7866138,38.8049 57.8226138,39.2228 C56.6996138,39.7168 55.4826138,39.9593 54.2556138,39.9332 C52.6836138,39.9794 51.1216138,39.6627 49.6916138,39.0076 C48.4816138,38.4549 47.4686138,37.545 46.7906138,36.4002 C46.1026138,35.1782 45.7576138,33.793 45.7926138,32.3913 C45.7566138,30.9727 46.0896138,29.569 46.7576138,28.3172 C47.3916138,27.1808 48.3466138,26.2559 49.5026138,25.6577 Z M55.6836138,28.8322 C55.1446138,28.4377 54.4866138,28.2378 53.8186138,28.2651 C53.1526138,28.2329 52.4956138,28.4334 51.9606138,28.8322 C51.4706138,29.2434 51.1556138,29.8263 51.0806138,30.4619 L56.6426138,30.4619 C56.5446138,29.8157 56.2006138,29.2321 55.6836138,28.8322 Z"
                    id="Shape"></path>
                <path
                    d="M77.9456138,39.7818 L74.4316138,39.7818 C74.2586138,39.7818 74.0926138,39.7131 73.9696138,39.5908 C73.8476138,39.4686 73.7796138,39.3028 73.7796138,39.1299 L73.7796138,37.8262 C73.2776138,38.5048 72.6186138,39.0516 71.8586138,39.4194 C71.0986138,39.7873 70.2606138,39.9653 69.4176138,39.9382 C68.1906138,39.9645 66.9826138,39.6334 65.9406138,38.9852 C64.8986138,38.3371 64.0676138,37.3999 63.5486138,36.2878 C62.9776138,35.0298 62.6816138,33.664 62.6816138,32.2822 C62.6816138,30.9004 62.9776138,29.5346 63.5486138,28.2765 C64.0756138,27.175 64.9116138,26.2508 65.9546138,25.617 C67.0096138,24.9976 68.2136138,24.6797 69.4366138,24.6979 C70.2256138,24.6689 71.0106138,24.8166 71.7346138,25.1302 C72.4596138,25.4437 73.1046138,25.9152 73.6226138,26.5101 L73.6226138,20.5391 L77.9656138,20.5391 C78.1376138,20.5391 78.3036138,20.6077 78.4266138,20.73 C78.5486138,20.8522 78.6176138,21.018 78.6176138,21.1909 L78.6176138,39.1103 C78.6196138,39.1992 78.6046138,39.2878 78.5716138,39.3705 C78.5386138,39.4531 78.4896138,39.5282 78.4266138,39.5911 C78.3636138,39.654 78.2886138,39.7034 78.2056138,39.7362 C78.1226138,39.7689 78.0346138,39.7845 77.9456138,39.7818 Z M73.6616138,32.3376 C73.7076138,31.3884 73.4316138,30.4515 72.8796138,29.678 C72.6256138,29.3494 72.2956138,29.0862 71.9196138,28.9105 C71.5426138,28.7347 71.1296138,28.6515 70.7146138,28.6677 C70.2996138,28.6547 69.8876138,28.7393 69.5116138,28.9148 C69.1356138,29.0903 68.8066138,29.3518 68.5496138,29.678 C68.0236138,30.4638 67.7416138,31.3884 67.7416138,32.3344 C67.7416138,33.2803 68.0236138,34.2048 68.5496138,34.9906 C68.8066138,35.3169 69.1356138,35.5783 69.5116138,35.7538 C69.8876138,35.9293 70.2996138,36.014 70.7146138,36.001 C71.1296138,36.0172 71.5426138,35.9339 71.9196138,35.7582 C72.2956138,35.5824 72.6256138,35.3193 72.8796138,34.9906 C73.4316138,34.2196 73.7076138,33.2848 73.6616138,32.3376 Z"
                    id="Shape"></path>
                <path
                    d="M85.2546138,24.8887 L81.5646138,24.8887 C81.2036138,24.8887 80.9126138,25.1805 80.9126138,25.5405 L80.9126138,39.1316 C80.9126138,39.4917 81.2036138,39.7835 81.5646138,39.7835 L85.2546138,39.7835 C85.6146138,39.7835 85.9066138,39.4917 85.9066138,39.1316 L85.9066138,25.5405 C85.9066138,25.1805 85.6146138,24.8887 85.2546138,24.8887 Z"
                    id="Path"></path>
                <path
                    d="M102.891614,39.7817 L99.3776138,39.7817 C99.2046138,39.7817 99.0386138,39.713 98.9166138,39.5907 C98.7936138,39.4685 98.7256138,39.3027 98.7256138,39.1298 L98.7256138,37.8261 C98.2126138,38.4586 97.5736138,38.9761 96.8476138,39.3449 C96.0766138,39.7301 95.2246138,39.9225 94.3636138,39.9055 C93.1386138,39.9305 91.9326138,39.6003 90.8906138,38.9548 C89.8496138,38.3094 89.0176138,37.3762 88.4946138,36.2682 C87.8966138,35.0273 87.5996138,33.6627 87.6276138,32.2854 C87.5986138,30.8933 87.8956138,29.5138 88.4946138,28.2569 C89.0236138,27.1494 89.8616138,26.2188 90.9076138,25.5778 C91.9546138,24.9451 93.1596138,24.6198 94.3826138,24.6392 C95.2186138,24.6136 96.0476138,24.7891 96.8016138,25.151 C97.5546138,25.5129 98.2106138,26.0505 98.7126138,26.7186 L98.7126138,25.5191 C98.7126138,25.3463 98.7806138,25.1805 98.9036138,25.0582 C99.0256138,24.936 99.1916138,24.8673 99.3646138,24.8673 L102.911614,24.8673 C103.084614,24.8673 103.249614,24.936 103.372614,25.0582 C103.494614,25.1805 103.563614,25.3463 103.563614,25.5191 L103.563614,39.1103 C103.565614,39.1992 103.550614,39.2877 103.517614,39.3704 C103.484614,39.4531 103.435614,39.5282 103.372614,39.5911 C103.309614,39.654 103.234614,39.7033 103.151614,39.7361 C103.069614,39.7689 102.980614,39.7844 102.891614,39.7817 Z M98.6076138,32.3636 C98.6526138,31.4175 98.3796138,30.4838 97.8316138,29.7106 C97.5776138,29.3819 97.2486138,29.1187 96.8726138,28.943 C96.4956138,28.7673 96.0826138,28.684 95.6676138,28.7002 C95.2506138,28.683 94.8366138,28.7657 94.4586138,28.9415 C94.0816138,29.1173 93.7506138,29.381 93.4966138,29.7106 C92.9736138,30.4943 92.6946138,31.4152 92.6946138,32.3571 C92.6946138,33.299 92.9736138,34.2198 93.4966138,35.0036 C93.7536138,35.3326 94.0866138,35.5949 94.4666138,35.7685 C94.8466138,35.9421 95.2626138,36.0218 95.6806138,36.0009 C96.0946138,36.0186 96.5066138,35.9374 96.8836138,35.7639 C97.2596138,35.5905 97.5896138,35.3298 97.8446138,35.0036 C98.3886138,34.2341 98.6576138,33.3042 98.6076138,32.3636 Z"
                    id="Shape"></path>
                <path
                    d="M21.6756138,0 L17.9586138,0 C17.5986138,0 17.3066138,0.291844 17.3066138,0.651852 L17.3066138,3.95023 C17.3066138,4.31023 17.5986138,4.60208 17.9586138,4.60208 L21.6756138,4.60208 C22.0356138,4.60208 22.3276138,4.31023 22.3276138,3.95023 L22.3276138,0.651852 C22.3276138,0.291844 22.0356138,0 21.6756138,0 Z"
                    id="Path"></path>
                <path
                    d="M85.2676138,19.2168 L81.5516138,19.2168 C81.1916138,19.2168 80.8996138,19.5086 80.8996138,19.8686 L80.8996138,23.167 C80.8996138,23.527 81.1916138,23.8189 81.5516138,23.8189 L85.2676138,23.8189 C85.6276138,23.8189 85.9196138,23.527 85.9196138,23.167 L85.9196138,19.8686 C85.9196138,19.5086 85.6276138,19.2168 85.2676138,19.2168 Z"
                    id="Path"></path>
            </g>
            <g id="Group-21" transform="translate(0, 3.05)">
                <path
                    d="M38.347596,36.9384039 L54.0258201,36.9384039 C54.3932375,36.9384039 54.7456465,36.7924211 55.0054631,36.5326045 C55.2652797,36.272788 55.4111805,35.920461 55.4111805,35.5530436 L55.4111805,27.5003702 C55.4111805,21.9298143 59.244213,18.4432039 64.4740876,18.4432039 L69.8425639,18.4432039 C70.9142253,18.4432039 71.9420097,18.0174754 72.6998081,17.2597591 C73.4576064,16.5019608 73.8833349,15.4741763 73.8833349,14.4024329 L73.8833349,1.38540953 C73.8833349,1.01797576 73.7373521,0.665589691 73.4775355,0.405775582 C73.2177189,0.145961472 72.8653099,0 72.4978925,0 L56.7966228,0 C56.4292054,0 56.0767964,0.145961472 55.8169798,0.405775582 C55.5571633,0.665589691 55.4111805,1.01797576 55.4111805,1.38540953 L55.4111805,9.05708426 C55.4111805,14.6449448 51.5551844,18.4836362 46.307923,18.4605086 C41.0607437,18.437463 36.9506719,14.9970258 36.9506719,8.90125993 L36.9506719,1.39694873 C36.9506719,1.02951496 36.8046891,0.677137094 36.5448725,0.417322985 C36.2850559,0.157508875 35.9327289,0.0115431385 35.5652295,0.0115431385 L19.8755236,0.0115431385 C19.6936192,0.0115431385 19.5134371,0.0473802744 19.3453928,0.11700357 C19.1772666,0.186626702 19.0245587,0.288676057 18.8958806,0.417322985 C18.7672845,0.545969913 18.6651786,0.69869252 18.5955497,0.866776947 C18.5259209,1.03486219 18.4901633,1.21501972 18.4901633,1.39694873 L18.4901633,14.4313014 C18.4901633,15.5030448 18.9158097,16.5308293 19.6736081,17.2885456 C20.4314064,18.0463439 21.4591909,18.4720724 22.5309342,18.4720724 L27.9051514,18.4720724 C34.0297858,18.4720724 36.9622357,22.5128434 36.9622357,27.5291567 L36.9622357,35.5819121 C36.9697809,35.9442447 37.1190442,36.2892725 37.3780406,36.5429382 C37.637037,36.7965218 37.9850994,36.9384039 38.347596,36.9384039 Z"
                    id="Path"></path>
                <path
                    d="M1.40849498,18.4723184 L14.4313495,18.4723184 C15.5030108,18.4723184 16.5307953,18.8980469 17.2885937,19.6558452 C18.046392,20.4135616 18.4721205,21.4414281 18.4721205,22.5130894 L18.4721205,35.5532076 C18.4721205,35.920625 18.3261377,36.273034 18.0663211,36.5328506 C17.8065045,36.7926671 17.4540955,36.9386499 17.0866781,36.9386499 L1.40849498,36.9386499 C1.22463047,36.9416844 1.04198795,36.9081412 0.871229091,36.8398245 C0.700471867,36.7715899 0.545008392,36.670058 0.413906,36.5411339 C0.282802788,36.4121277 0.178685071,36.2583537 0.107622614,36.0887512 C0.0365596657,35.9191488 0,35.7370803 0,35.5532076 L0,19.8519379 C0.00073871911,19.6685572 0.0378874531,19.4870629 0.109291575,19.3181165 C0.180695204,19.1492521 0.284933481,18.9961342 0.415957961,18.8677842 C0.54698326,18.7394341 0.702187575,18.6383944 0.8725659,18.5704878 C1.0429475,18.5026632 1.22511435,18.469202 1.40849498,18.4723184 Z"
                    id="Path"></path>
                <path
                    d="M77.9290266,18.4720724 L90.9748037,18.4720724 C91.3422211,18.4720724 91.6948761,18.6180552 91.9548567,18.8778718 C92.2140172,19.1376883 92.36,19.4900974 92.36,19.8575147 L92.36,35.5530436 C92.36,35.920461 92.2140172,36.27287 91.9548567,36.5326866 C91.6948761,36.7925031 91.3422211,36.9384039 90.9748037,36.9384039 L75.2794389,36.9384039 C74.9120215,36.9384039 74.5596125,36.7925031 74.2997959,36.5326866 C74.0399793,36.27287 73.8939965,35.920461 73.8939965,35.5530436 L73.8939965,22.5128434 C73.8939965,21.4421662 74.3189869,20.4152838 75.075473,19.6576495 C75.8320412,18.9000152 76.8583494,18.4736306 77.9290266,18.4720724 Z"
                    id="Path"></path>
            </g>
        </g>
    </g>
</svg>