<svg width="184" height="27" viewBox="0 0 184 27" fill="none" xmlns="http://www.w3.org/2000/svg">
    <path
        d="M10.6542 25.432C10.3082 26.0888 9.62696 26.5 8.88462 26.5H3.31222C1.80732 26.5 0.841537 24.9006 1.54226 23.5687L11.8886 3.90419C12.6367 2.48243 14.671 2.47833 15.4248 3.89707L18.2286 9.17438C18.5392 9.75889 18.5404 10.4592 18.232 11.0448L10.6542 25.432Z"
        fill="#F32F31"></path>
    <path
        d="M18.0156 26.387C16.5099 26.387 15.5442 24.786 16.2465 23.4541L26.5823 3.85233C27.3323 2.43001 29.369 2.42931 30.12 3.85112L32.934 9.17904C33.2414 9.76105 33.2427 10.4571 32.9376 11.0403L25.4696 25.3141C25.1246 25.9736 24.4418 26.387 23.6975 26.387H18.0156Z"
        fill="white"></path>
    <path
        d="M32.5872 26.387C31.0843 26.387 30.1183 24.7913 30.8152 23.4597L33.8275 17.7031C34.5728 16.279 36.6085 16.2713 37.3645 17.6897L40.4327 23.4463C41.1427 24.7785 40.1773 26.387 38.6677 26.387H32.5872Z"
        fill="#FDBB15"></path>
    <path
        d="M50 20.6026V6.33775H56.9903L61.0473 15.2185L65.0852 6.33775H72.0564V20.6026H67.5804V10.7682L63.1234 20.6026H58.9521L54.476 10.7682V20.6026H50Z"
        fill="white"></path>
    <path
        d="M74.6644 20.6026V6.33775H88.6449V9.8543H79.1404V11.8609H88.264V15.0596H79.1404V17.0861H88.6449V20.6026H74.6644Z"
        fill="white"></path>
    <path
        d="M90.7167 20.6026V6.33775H101.859C105.611 6.33775 107.478 7.82781 107.478 10.7086C107.478 12.6755 106.45 13.9669 104.602 14.543C106.354 14.6623 107.459 15.7152 107.459 17.4636V20.6026H102.983V18.2185C102.983 16.947 102.64 16.5695 101.421 16.5695H95.1927V20.6026H90.7167ZM95.1927 12.8344H100.793C101.993 12.8344 102.812 12.596 102.812 11.4437C102.812 10.2914 101.993 10.0728 100.793 10.0728H95.1927V12.8344Z"
        fill="white"></path>
    <path
        d="M118.194 21C112.708 21 109.108 18.0397 109.108 13.4702C109.108 8.9404 112.708 6 118.194 6C123.26 6 126.822 8.44371 127.184 12.0993H122.422C122.194 10.8675 120.555 9.91391 118.194 9.91391C115.508 9.91391 113.775 11.3444 113.775 13.4702C113.775 15.6159 115.508 17.0662 118.194 17.0662C120.555 17.0662 122.194 16.1126 122.422 14.8609H127.184C126.822 18.5563 123.26 21 118.194 21Z"
        fill="white"></path>
    <path
        d="M137.395 21C131.528 21 129.071 18.4172 129.071 13.6291V6.33775H133.547V13.4702C133.547 15.2583 134.309 17.0662 137.395 17.0662C140.48 17.0662 141.223 15.2384 141.223 13.4702V6.33775H145.718V13.6291C145.718 18.4172 143.242 21 137.395 21Z"
        fill="white"></path>
    <path
        d="M147.765 20.6026V6.33775H158.907C162.659 6.33775 164.526 7.82781 164.526 10.7086C164.526 12.6755 163.498 13.9669 161.65 14.543C163.402 14.6623 164.507 15.7152 164.507 17.4636V20.6026H160.031V18.2185C160.031 16.947 159.688 16.5695 158.469 16.5695H152.241V20.6026H147.765ZM152.241 12.8344H157.841C159.041 12.8344 159.86 12.596 159.86 11.4437C159.86 10.2914 159.041 10.0728 157.841 10.0728H152.241V12.8344Z"
        fill="white"></path>
    <path
        d="M172.115 20.6026V15.8344L164.705 6.33775H170.267L174.343 11.9205L178.438 6.33775H184L176.591 15.8344V20.6026H172.115Z"
        fill="white"></path>
</svg>