<?xml version="1.0" encoding="UTF-8"?>
<svg id="Layer_2" data-name="Layer 2" xmlns="http://www.w3.org/2000/svg" viewBox="0 0 176.14 30.09">
  <defs>
    <style>
      .cls-1 {
        fill: #fff;
      }

      .cls-2 {
        fill: #ffb727;
      }
    </style>
  </defs>
  <g id="Layer_2-2" data-name="Layer 2">
    <g>
      <g>
        <path class="cls-1" d="M132.69,20.66h-6.5v-2.44l1.1-.1c.11-.01,.17-.04,.19-.06,0-.01,.01-.07,.01-.19v-5.8c0-.09-.01-.13-.01-.17-.02,0-.06-.01-.1-.01l-1.3-.09v-2.56h4.43v.67c.14-.13,.31-.25,.47-.37,.61-.41,1.3-.61,2.08-.61s1.49,.17,2.18,.51l.25,.12v.99s-.62,.74-.88,1.41c-.26,.67-.44,1.52-.44,1.52l-1.52,.11v-1.44c0-.07,0-.11-.01-.14-.08-.02-.19-.04-.32-.04-.43,0-.77,.14-1.03,.45-.29,.32-.42,.72-.42,1.22v4.42l1.82,.09v2.51Z"/>
        <path class="cls-1" d="M83.47,11.69c-.78,0-1.33,.3-1.68,.92-.39,.69-.57,1.63-.57,2.79,0,2.99,1.34,2.99,1.78,2.99,.52,0,.91-.14,1.23-.44,.31-.3,.46-.62,.46-.98v-5.15c-.33-.09-.74-.14-1.22-.14m-1.02,9.29c-1.55,0-2.72-.51-3.48-1.52-.74-.97-1.1-2.31-1.1-3.96,0-1.99,.5-3.56,1.47-4.7,.99-1.14,2.49-1.73,4.44-1.73,1.23,0,2.53,.25,3.86,.76l.25,.1v8.05c0,.11,.01,.17,.02,.2,.01-.01,.06,.01,.13,.01l1.03,.07v2.44h-4.13v-.65c-.68,.62-1.53,.92-2.52,.92"/>
        <path class="cls-1" d="M94.39,25.18c-1.71,0-3.07-.24-4.04-.74l-.22-.11v-3.01l2.78-.23v.94c0,.21,.08,.32,.26,.4,.3,.11,.74,.18,1.3,.18,1.57,0,2.3-.85,2.3-2.67v-.56c-.78,.66-1.78,1-2.99,1-1.66,0-3.64-.69-3.64-4.02v-4.38s-1.2-.07-1.2-.07v-2.49h4.48v6.4c0,.81,.27,1.84,1.46,1.84,1.34,0,1.53-1.2,1.53-1.67v-4.01s-1.19-.07-1.19-.07v-2.49h4.48v10.52c0,1.79-.45,3.14-1.34,3.99-.89,.84-2.22,1.27-3.97,1.27"/>
        <path class="cls-1" d="M111.32,20.93c-1.78,0-3.11-.23-4.05-.69l-.25-.12v-3.1l2.78-.22v.99c0,.4,.72,.47,1.31,.47,1.31,0,1.31-.56,1.31-.83,0-.19-.06-.32-.17-.43-.15-.15-.3-.25-.44-.3-.19-.07-.41-.13-.66-.2-.28-.07-.54-.14-.8-.21-.28-.08-.57-.18-.88-.3-.32-.12-.68-.31-1.07-.55-.85-.55-1.28-1.45-1.28-2.7s.45-2.18,1.33-2.86c.85-.65,1.91-.97,3.17-.97s2.45,.3,3.65,.88l.25,.12v2.71l-2.78,.22v-.87c0-.17-.04-.23-.2-.3-.29-.11-.64-.15-1.06-.15-.37,0-.66,.08-.87,.23-.22,.17-.25,.32-.25,.44,0,.3,.06,.44,.09,.51,.07,.11,.18,.21,.33,.29,.31,.15,.69,.31,1.16,.43,.5,.13,.87,.24,1.11,.32,.26,.09,.57,.22,.96,.42,.41,.21,.72,.44,.94,.69,.55,.58,.85,1.35,.85,2.28,0,1.19-.44,2.13-1.31,2.82-.84,.64-1.9,.98-3.17,.98"/>
        <path class="cls-1" d="M121.89,20.94c-.68,0-1.27-.09-1.75-.26-.5-.19-.86-.39-1.11-.63-.26-.25-.47-.61-.61-1.06-.12-.41-.19-.74-.21-.99-.01-.22-.02-.55-.02-.98v-5.14h-1.55l.33-2.39,.35-.03c.53-.04,.91-.22,1.18-.54,.3-.37,.58-.91,.85-1.62l.11-.3h2.12v2.22h2.84l-.32,2.65h-2.52v5.05c0,.65,.13,.89,.22,.98,.13,.14,.37,.22,.7,.22,.39,0,.78-.12,1.18-.37l.46-.29,.95,2.44-.29,.2c-.77,.56-1.75,.83-2.92,.83"/>
        <path class="cls-1" d="M140.91,11.6c-.63,0-1.09,.24-1.43,.74-.29,.43-.47,.94-.56,1.51h0c.4-.02,.77-.07,1.11-.13h0c.44-.08,.85-.25,1.23-.53,.42-.3,.46-.57,.46-.76-.01-.61-.23-.83-.81-.83m-.09,9.33c-1.84,0-3.2-.53-4.08-1.57-.86-1.02-1.3-2.42-1.3-4.17s.5-3.23,1.46-4.42c.99-1.22,2.39-1.84,4.16-1.84,1.14,0,2.08,.3,2.77,.87,.72,.59,1.08,1.43,1.08,2.49,0,.69-.15,1.31-.45,1.84-.3,.53-.67,.95-1.12,1.24-.43,.29-.95,.53-1.54,.7-.84,.25-1.77,.4-2.78,.43h0c.09,.42,.25,.76,.52,1.05,.33,.35,.87,.54,1.6,.54,.77,0,1.55-.29,2.33-.84l.44-.31,1.17,2.49-.25,.22c-.32,.29-.83,.57-1.54,.86-.73,.28-1.54,.43-2.45,.43"/>
        <path class="cls-1" d="M151.29,11.64c-.78,0-1.3,.29-1.64,.9-.37,.68-.57,1.62-.57,2.77,0,2.64,.99,2.94,1.73,2.94,.5,0,.89-.14,1.2-.43,.3-.29,.45-.59,.45-.94v-5.1c-.31-.09-.7-.14-1.17-.14m-1.02,9.3c-1.56,0-2.75-.52-3.52-1.54-.74-.98-1.11-2.32-1.11-3.99,0-2,.51-3.59,1.49-4.73,1-1.16,2.51-1.75,4.48-1.75,1.23,0,2.54,.25,3.88,.76l.29,.11v8.09c0,.07,0,.12,.01,.14,.02,0,.06,.01,.1,.01l1.09,.07v2.54h-4.22v-.59c-.68,.59-1.51,.89-2.48,.89"/>
        <path class="cls-1" d="M36.57,11.69c-.77,0-1.32,.3-1.67,.91-.39,.67-.58,1.56-.58,2.63,0,3.11,1.4,3.11,1.86,3.11s.86-.13,1.16-.4c.29-.25,.43-.55,.43-.9v-5.15c-.37-.14-.77-.21-1.19-.21m-1,9.29c-1.73,0-2.97-.59-3.69-1.78-.62-1.02-.94-2.28-.94-3.74,0-1.9,.48-3.44,1.44-4.6,.97-1.18,2.34-1.77,4.06-1.77,.45,0,.89,.04,1.32,.13v-1.6s-.01-.07-.01-.07c-.01-.01-.06-.03-.17-.04l-1.27-.09v-2.42h4.69v13.11s.01,.07,.01,.07c0,0,.03,.01,.11,.01l1.13,.07v2.44h-4.18v-.62c-.66,.59-1.51,.89-2.52,.89"/>
        <path class="cls-1" d="M48.95,20.71h-5.78v-2.35l1.06-.1c.2-.02,.24-.07,.24-.28v-5.81c0-.1-.01-.17-.02-.2-.02,0-.06-.01-.11-.01l-1.13-.07v-2.51s1.16,.79,2.34,.77c1.2-.02,2.19-.77,2.19-.77v8.8l1.19,.07v2.45h.02Z"/>
        <path class="cls-1" d="M54.34,20.98c-1.78,0-3.09-.23-4.03-.69l-.22-.11v-3.03l2.67-.21v.94c0,.43,.74,.52,1.36,.52,1.36,0,1.36-.59,1.36-.88,0-.2-.06-.34-.19-.46-.15-.15-.31-.25-.45-.31-.19-.07-.41-.13-.66-.2-.28-.07-.54-.14-.8-.21-.28-.08-.57-.18-.88-.3-.32-.12-.67-.31-1.06-.54-.84-.54-1.25-1.43-1.25-2.65s.44-2.16,1.31-2.82c.84-.64,1.89-.96,3.14-.96s2.44,.3,3.64,.88l.22,.11v2.63l-2.68,.21v-.81c0-.19-.06-.28-.22-.34-.29-.11-.65-.17-1.07-.17-.39,0-.68,.08-.9,.24-.24,.18-.28,.35-.28,.47,0,.3,.06,.45,.1,.53,.07,.11,.19,.22,.34,.31,.31,.17,.7,.31,1.17,.43,.5,.13,.87,.24,1.1,.32,.25,.09,.57,.22,.95,.41,.41,.21,.7,.43,.92,.68,.55,.57,.83,1.34,.83,2.24,0,1.17-.43,2.1-1.3,2.77-.8,.67-1.86,.99-3.12,.99"/>
        <path class="cls-1" d="M64.18,17.88c.43,.23,.95,.35,1.54,.35s1.05-.26,1.36-.84c.35-.64,.53-1.44,.53-2.4,0-3.09-1.29-3.09-1.72-3.09-.5,0-.89,.14-1.23,.44-.32,.28-.48,.59-.48,.97,0,0,0,4.57,0,4.57Zm1.69,7.15h-6.19v-2.35l1.06-.1c.15-.02,.21-.06,.22-.07,0,0,.02-.07,.02-.22V12.17c0-.13-.01-.2-.02-.23h-.1l-1.28-.09v-2.46h4.1c.13,0,.23,.1,.23,.23,0,.19,.21,.3,.36,.19,.08-.06,.17-.11,.25-.15,.65-.39,1.42-.58,2.3-.58,2.77,0,4.18,1.93,4.18,5.71,0,1.97-.44,3.51-1.32,4.58-.9,1.1-2.12,1.65-3.65,1.65-.66,0-1.28-.12-1.84-.35v1.86l1.69,.09v2.43h-.02Z"/>
        <path class="cls-1" d="M77.21,20.71h-5.78v-2.35l1.06-.1c.2-.02,.24-.07,.24-.28V7.67c0-.06-.01-.07-.01-.07,0,0-.03-.02-.14-.03l-1.1-.07v-2.51h4.54v13.19l1.19,.07s0,2.45,0,2.45Z"/>
        <path class="cls-1" d="M176.11,20.66h-5.38v-2.37l.58-.18c.12-.02,.18-.04,.19-.06,0-.01,.02-.07,.03-.2v-4.3c0-.87-.12-1.3-.22-1.52-.09-.2-.36-.3-.81-.3-.51,0-.88,.14-1.13,.43-.28,.31-.4,.73-.4,1.28v4.29c0,.18,.13,.33,.32,.35h.02c.18,.02,.32,.17,.32,.35v2.21h-4.84v-2.37l.58-.18c.13-.02,.19-.04,.21-.06,0-.01,.01-.07,.01-.19v-4.31c0-.87-.12-1.3-.22-1.52-.09-.2-.37-.3-.83-.3-.52,0-.88,.14-1.13,.44-.26,.32-.4,.73-.4,1.22v4.33c0,.18,.13,.33,.32,.35,.18,.02,.32,.17,.32,.35v2.21h-5.34v-2.44l1.1-.1c.11-.01,.17-.04,.19-.06,0-.01,.01-.07,.01-.19l.02-5.78c0-.1-.01-.15-.01-.19-.02,0-.06-.01-.09-.01l-1.3-.09v-2.56h4.43v.65c.76-.64,1.68-.96,2.76-.96,1.28,0,2.22,.44,2.83,1.32,.81-.88,1.86-1.32,3.1-1.32,1.13,0,2.02,.35,2.65,1.06,.62,.69,.94,1.71,.94,3.03v5.04l1.19,.07v2.53h-.03Z"/>
        <path class="cls-1" d="M45.56,8.81c-.58,0-1.06-.19-1.43-.54-.37-.36-.56-.83-.56-1.39s.19-1.02,.55-1.4c.37-.37,.85-.57,1.43-.57s1.07,.19,1.44,.56,.57,.85,.57,1.4-.2,1.02-.57,1.39c-.37,.36-.86,.55-1.43,.55"/>
        <path class="cls-2" d="M105.41,18.82c0,1.21-.98,2.2-2.2,2.2s-2.2-.98-2.2-2.2,.98-2.2,2.2-2.2,2.2,.99,2.2,2.2"/>
      </g>
      <g>
        <circle class="cls-2" cx="4.28" cy="15.05" r="4.28"/>
        <path class="cls-1" d="M19.33,15.05c0,8.31-6.74,15.05-15.05,15.05v-5.11c5.49,0,9.93-4.45,9.93-9.93S9.77,5.11,4.28,5.11V0c8.31,0,15.05,6.73,15.05,15.05Z"/>
      </g>
    </g>
  </g>
</svg>