<svg preserveAspectRatio="xMidYMid meet" data-bbox="15.44 10.57 700.01 208.79" viewBox="15.44 10.57 700.01 208.79"
    xmlns="http://www.w3.org/2000/svg" data-type="color" role="presentation" aria-hidden="true" aria-label="">
    <g>
        <path
            d="M127.9 14.31c2.81 2.5 4.21 5.77 4.21 9.82v139.82c0 4.21-1.33 7.56-3.98 10.05-2.65 2.5-6.16 3.74-10.52 3.74s-7.87-1.25-10.52-3.74c-2.65-2.49-3.97-5.85-3.97-10.05v-5.85c-3.43 6.39-8.38 11.38-14.85 14.96-6.47 3.58-13.83 5.38-22.1 5.38-9.82 0-18.59-2.49-26.3-7.48-7.72-4.99-13.72-12.04-18-21.16-4.29-9.12-6.43-19.6-6.43-31.45s2.14-22.21 6.43-31.1c4.29-8.88 10.25-15.74 17.89-20.58 7.64-4.83 16.44-7.25 26.42-7.25 8.26 0 15.58 1.72 21.98 5.14 6.39 3.43 11.3 8.26 14.73 14.5v-55.4c0-3.89 1.29-7.05 3.86-9.47 2.57-2.42 6.04-3.62 10.41-3.62s7.95 1.25 10.75 3.74ZM95.52 146.18c5.06-6.39 7.6-15.51 7.6-27.36s-2.54-20.93-7.6-27.24c-5.07-6.31-12.2-9.47-21.39-9.47s-16.6 3.12-21.75 9.35c-5.14 6.24-7.72 15.2-7.72 26.89s2.57 21.04 7.72 27.59 12.31 9.82 21.51 9.82 16.56-3.19 21.63-9.59Z"
            fill="#ffffff" data-color="1"></path>
        <path
            d="M183.66 171.2c-8.81-4.83-15.63-11.77-20.46-20.81s-7.25-19.56-7.25-31.56 2.42-22.48 7.25-31.45c4.83-8.96 11.65-15.86 20.46-20.69 8.8-4.83 19.06-7.25 30.75-7.25s21.94 2.42 30.75 7.25c8.8 4.83 15.58 11.73 20.34 20.69 4.75 8.97 7.13 19.45 7.13 31.45s-2.38 22.53-7.13 31.56c-4.76 9.04-11.54 15.98-20.34 20.81-8.81 4.83-19.06 7.25-30.75 7.25s-21.94-2.42-30.75-7.25Zm52.26-24.78c4.99-6.23 7.48-15.43 7.48-27.59s-2.5-21.16-7.48-27.47c-4.99-6.31-12.16-9.47-21.51-9.47s-16.56 3.16-21.63 9.47c-5.07 6.31-7.6 15.47-7.6 27.47s2.49 21.36 7.48 27.59c4.99 6.24 12.16 9.35 21.51 9.35s16.75-3.12 21.74-9.35Z"
            fill="#ffffff" data-color="1"></path>
        <path
            d="M318.1 171.2c-8.81-4.83-15.63-11.77-20.46-20.81s-7.25-19.56-7.25-31.56 2.42-22.48 7.25-31.45c4.83-8.96 11.65-15.86 20.46-20.69 8.8-4.83 19.06-7.25 30.75-7.25s21.94 2.42 30.75 7.25c8.8 4.83 15.58 11.73 20.34 20.69 4.75 8.97 7.13 19.45 7.13 31.45s-2.38 22.53-7.13 31.56c-4.76 9.04-11.54 15.98-20.34 20.81-8.81 4.83-19.06 7.25-30.75 7.25s-21.94-2.42-30.75-7.25Zm52.26-24.78c4.99-6.23 7.48-15.43 7.48-27.59s-2.5-21.16-7.48-27.47c-4.99-6.31-12.16-9.47-21.51-9.47s-16.56 3.16-21.63 9.47c-5.07 6.31-7.6 15.47-7.6 27.47s2.49 21.36 7.48 27.59c4.99 6.24 12.16 9.35 21.51 9.35s16.75-3.12 21.74-9.35Z"
            fill="#ffffff" data-color="1"></path>
        <path
            d="M538.23 106.43v57.52c0 4.37-1.29 7.8-3.86 10.29-2.57 2.49-6.12 3.74-10.64 3.74s-8.11-1.25-10.75-3.74c-2.65-2.49-3.97-5.92-3.97-10.29v-57.52c0-8.26-1.68-14.3-5.03-18.12-3.35-3.82-8.61-5.73-15.78-5.73-8.42 0-15.16 2.65-20.22 7.95-5.07 5.3-7.6 12.39-7.6 21.28v52.14c0 4.37-1.33 7.8-3.98 10.29-2.65 2.49-6.24 3.74-10.75 3.74s-8.07-1.25-10.64-3.74c-2.57-2.49-3.86-5.92-3.86-10.29V24.13c0-4.05 1.36-7.32 4.09-9.82 2.73-2.49 6.27-3.74 10.64-3.74s7.87 1.17 10.52 3.51c2.65 2.34 3.98 5.53 3.98 9.59v54.48c3.89-6.08 9.08-10.72 15.55-13.91 6.47-3.19 13.83-4.79 22.1-4.79 26.81 0 40.22 15.67 40.22 47Z"
            fill="#ffffff" data-color="1"></path>
        <path
            d="M573.89 176.34c-.86-.94-1.29-2.26-1.29-3.97V15.95c0-1.71.43-3.04 1.29-3.97.85-.94 2.06-1.4 3.62-1.4 1.4 0 2.57.51 3.51 1.52.94 1.02 1.4 2.3 1.4 3.86v156.42c0 1.56-.47 2.85-1.4 3.86-.93 1.01-2.1 1.52-3.51 1.52-1.56 0-2.77-.47-3.62-1.4Z"
            fill="#ffffff" data-color="1"></path>
        <path
            d="M710.78 61.07c1.25 0 2.34.43 3.27 1.29.93.86 1.4 1.99 1.4 3.39 0 .47-.16 1.17-.47 2.1l-67.1 148.7c-.94 1.87-2.34 2.81-4.21 2.81-1.25 0-2.3-.39-3.16-1.17-.86-.78-1.29-1.79-1.29-3.04l.47-1.87 16.83-36.94-49.1-108.49c-.31-.94-.47-1.64-.47-2.1 0-1.4.54-2.57 1.64-3.51 1.09-.94 2.34-1.4 3.74-1.4 1.71 0 3.04.94 3.97 2.81l45.13 101.71.47-1.17 44.42-99.84c.93-2.18 2.41-3.27 4.44-3.27Z"
            fill="#ffffff" data-color="1"></path>
    </g>
</svg>