<?xml version="1.0" encoding="UTF-8"?>
<svg width="180px" height="38px" viewBox="0 0 180 38" version="1.1" xmlns="http://www.w3.org/2000/svg" xmlns:xlink="http://www.w3.org/1999/xlink">
    <title>Footer logo</title>
    <g id="Page-1" stroke="none" stroke-width="1" fill="none" fill-rule="evenodd">
        <g id="Home" transform="translate(-80.000000, -7524.000000)">
            <g id="Footer-logo" transform="translate(80.000000, 7524.000000)">
                <path d="M19.0750662,4.18036222 C18.3371325,4.21525144 17.71008,3.64814312 17.6743941,2.91293222 C17.6393454,2.17835567 18.2096828,1.55415591 18.9476165,1.5192667 C19.6855502,1.48437748 20.3126027,2.0514858 20.3482886,2.78606235 C20.3489258,2.80699588 20.3495636,2.82729506 20.3495636,2.84822859 C20.3502003,3.55996856 19.7894217,4.14674171 19.0750662,4.18036222 M19.0750662,0 C17.49469,0 16.2138206,1.2750422 16.2138206,2.84822859 C16.2138206,4.42141498 17.49469,5.69645717 19.0750662,5.69645717 C20.6554423,5.69645717 21.9363117,4.42141498 21.9363117,2.84822859 L21.9363117,2.84822859 C21.9324882,1.27694524 20.6535306,0.00317174676 19.0750662,0 M28.0411519,14.0635251 C26.9234181,15.1755395 25.112358,15.1755395 23.9946242,14.0635251 C22.8775277,12.9508764 22.8775277,11.1474211 23.9946242,10.0354067 C25.112358,8.92339232 26.9240554,8.92339232 28.0411519,10.0354067 C29.1588857,11.1429807 29.1627092,12.9419955 28.0500734,14.0546442 C28.0475244,14.0571816 28.0443382,14.0603534 28.0411519,14.0635251 M15.2515755,32.2947255 C9.97260927,32.2947255 5.69284866,28.0344352 5.69284866,22.7794852 C5.69284866,17.5245352 9.97260927,13.2642449 15.2515755,13.2642449 C20.5305416,13.2642449 24.8103023,17.5245352 24.8103023,22.7794852 C24.8103023,28.0344352 20.5305416,32.2947255 15.2515755,32.2947255 M30.067602,16.0807561 C32.4388035,13.9899406 32.658017,10.3817615 30.5576461,8.02134755 C28.4566379,5.66156796 24.8319687,5.44335178 22.4614045,7.53416724 C22.2893474,7.68577674 22.126849,7.84753582 21.9745466,8.0181758 C21.7202845,8.27191554 21.4902378,8.54785751 21.2863183,8.84282996 C13.5405634,5.53279504 4.5661934,9.10037579 1.24166822,16.8102578 C-2.08349421,24.5207742 1.49975384,33.4543161 9.24550879,36.764351 C16.9912637,40.0737516 25.9656337,36.5068052 29.2901589,28.7962888 C30.9470049,24.9546691 30.9399951,20.6023982 29.2710414,16.7658534 C29.554617,16.5590555 29.8209868,16.3300553 30.067602,16.0807561" id="The-bubbles" fill="#FE3500"></path>
                <path d="M168.397925,29.5153765 C168.823398,30.7879109 169.97281,31.5577943 172.239882,31.5577943 C174.506954,31.5577943 175.186441,30.8324496 175.186441,29.9925769 C175.186441,29.038176 174.468852,28.5418876 171.128572,28.0837752 C164.994142,27.2248144 164.143196,24.9660657 164.143196,22.9936373 C164.143196,20.5758218 165.984795,17.8144221 171.566746,17.8144221 C177.282054,17.8144221 179.244309,20.5376458 179.472922,22.8282078 L174.60856,22.8282078 C174.379947,22.0392365 173.789365,21.0911983 171.357184,21.0911983 C169.306024,21.0911983 168.931354,21.892895 168.931354,22.5100742 C168.931354,23.2417815 169.477483,23.6871686 172.5701,24.1389183 C179.104602,25.1124072 180,27.3202545 180,29.5662778 C180,32.5312831 177.758329,34.9490986 171.909664,34.9490986 C167.464425,34.9490986 164.04159,33.0402969 163.527213,29.5217391 L168.397925,29.5153765 Z M158.116721,26.2704136 C158.116721,23.9289502 156.878404,21.6447508 153.957247,21.6447508 C151.03609,21.6447508 149.708868,23.5535525 149.708868,26.359491 C149.708868,29.0572641 151.163096,31.048837 153.912795,31.048837 C156.751398,31.0615058 158.09767,28.9236479 158.09767,26.2831389 L158.116721,26.2704136 Z M144.927061,11 L149.842225,11 L149.842225,20.0986214 C150.655069,19.0933192 152.166451,17.8207847 155.290819,17.8207847 C159.736058,17.8207847 163.171593,21.2439024 163.171593,26.0922587 C163.171593,31.6532344 159.545548,35 154.966951,35 C151.79178,35 150.432807,33.8229056 149.658065,32.6521739 C149.658065,33.1102863 149.658065,34.1537646 149.594562,34.5609756 L144.901659,34.5609756 L144.901659,29.1208908 L144.927061,11 Z M137.579715,27.3393425 L134.214033,27.3393425 C131.489737,27.3393425 130.403828,28.0392365 130.403828,29.4135737 C130.403828,30.533404 131.292876,31.4432662 133.242431,31.4432662 C136.214391,31.4432662 137.598766,30.0180276 137.598766,27.6638388 L137.579715,27.3393425 Z M142.380573,29.9989396 C142.380573,32.0540827 142.475828,34.1410392 142.513931,34.4973489 L137.87183,34.4973489 C137.760064,33.8668081 137.698466,33.228632 137.68767,32.5885472 C136.817674,34.0265111 134.950673,34.9236479 131.858056,34.9236479 C127.412817,34.9236479 125.628371,32.2067869 125.628371,29.6299046 C125.628371,25.3732768 129.356022,24.1898197 134.125129,24.1898197 L137.579715,24.1898197 L137.579715,23.6426299 C137.579715,22.2746554 136.989133,21.1484624 134.493448,21.1484624 C132.181924,21.1484624 131.667546,22.0392365 131.445284,23.0572641 L126.53647,23.0572641 C126.682528,21.0402969 128.098654,17.8207847 134.423595,17.8207847 C141.345468,17.8207847 142.380573,21.097561 142.380573,23.8080594 L142.380573,29.9989396 Z M118.973212,34.4973489 L118.973212,11.019088 L123.882027,11.019088 L123.882027,34.5164369 L118.973212,34.4973489 Z M104.63414,11 L104.63414,20.3913043 C105.269174,19.4496288 106.653549,17.8462354 110.076383,17.8462354 C114.051697,17.8462354 116.426725,20.1304348 116.426725,24.7815483 L116.426725,34.5164369 L111.467108,34.5164369 L111.467108,25.3160127 C111.467108,23.1654295 110.863825,21.6574761 108.457046,21.6574761 C105.916909,21.6574761 104.64684,23.5662778 104.64684,26.6903499 L104.64684,34.5164369 L99.738026,34.5164369 L99.738026,11.019088 L104.63414,11 Z M84.6940656,26.359491 C84.6940656,28.9490986 86.1546442,31.2078473 88.9297438,31.2078473 C91.7048433,31.2078473 93.1146192,29 93.1146192,26.4358431 C93.1146192,23.8716861 91.8445508,21.5302227 88.8852914,21.5302227 C85.9260319,21.5302227 84.6750145,23.795334 84.6750145,26.378579 L84.6940656,26.359491 Z M98.1631412,26.359491 C98.1631412,31.3160127 94.7657082,34.9427359 88.7646349,34.9427359 C82.7635616,34.9427359 79.6963463,30.8706257 79.6963463,26.3658537 C79.6963463,21.8610817 82.8715174,17.8080594 88.9678458,17.8080594 C95.2292831,17.8207847 98.1440902,22.3128314 98.1440902,26.3722163 L98.1631412,26.359491 Z M65.6303385,26.359491 C65.6303385,28.9490986 67.0909172,31.2078473 69.8660167,31.2078473 C72.6411162,31.2078473 74.0508922,29 74.0508922,26.4358431 C74.0508922,23.8716861 72.749072,21.5302227 69.8215643,21.5302227 C66.8940566,21.5302227 65.6112875,23.795334 65.6112875,26.378579 L65.6303385,26.359491 Z M79.0994142,26.359491 C79.0994142,31.3160127 75.7019811,34.9427359 69.7009078,34.9427359 C63.6998345,34.9427359 60.6326193,30.8706257 60.6326193,26.3658537 C60.6326193,21.8610817 63.8077903,17.8080594 69.9041188,17.8080594 C76.1338044,17.8207847 79.0803631,22.3128314 79.0803631,26.3722163 L79.0994142,26.359491 Z M43.1564778,30.495228 L47.1381423,30.495228 C51.6468852,30.495228 54.0473145,27.911983 54.0473145,23.1463415 C54.0473145,18.921527 51.7675417,16.3064687 47.2270471,16.2555673 L43.1564778,16.2555673 L43.1564778,30.495228 Z M38,12.2916225 L47.9319351,12.2916225 C55.3681857,12.2916225 59.4705067,17.1272534 59.4705067,23.019088 C59.4705067,30.1325557 54.2695765,34.5164369 47.8176289,34.5164369 L38,34.5164369 L38,12.2916225 Z" id="logotype" fill="#FFFFFF"></path>
            </g>
        </g>
    </g>
</svg>