<?xml version="1.0" encoding="utf-8"?>
<!-- Generator: Adobe Illustrator 25.0.1, SVG Export Plug-In . SVG Version: 6.00 Build 0)  -->
<svg version="1.1" id="Layer_1" xmlns="http://www.w3.org/2000/svg" xmlns:xlink="http://www.w3.org/1999/xlink" x="0px" y="0px"
	 viewBox="0 0 504.5 68.2" style="enable-background:new 0 0 504.5 68.2;" xml:space="preserve">
<style type="text/css">
	.st0{fill:none;}
	.st1{fill:#F2C019;}
	.st2{fill:#FFFFFF;}
</style>
<g>
	<rect x="2.1" y="1.1" class="st0" width="500" height="65"/>
	<g>
		<path class="st1" d="M39.9,15.6V65H25.2V15.6H2.1V1.9h61v13.7C63.1,15.6,39.9,15.6,39.9,15.6z"/>
		<path class="st1" d="M142.5,33.5c0,5.4-0.9,10.2-2.6,14.4c-1.7,4.2-4.2,7.6-7.4,10.4c-3.2,2.8-7.1,4.9-11.6,6.3
			c-4.6,1.4-9.7,2.1-15.4,2.1c-5.7,0-10.8-0.7-15.4-2.1s-8.5-3.5-11.7-6.3s-5.7-6.3-7.5-10.4c-1.7-4.2-2.6-8.9-2.6-14.4
			c0-5.4,0.9-10.2,2.6-14.4s4.2-7.6,7.5-10.4c3.2-2.8,7.1-4.9,11.7-6.3s9.7-2.1,15.4-2.1c5.7,0,10.8,0.7,15.4,2.1s8.4,3.5,11.6,6.3
			s5.7,6.3,7.4,10.4C141.6,23.3,142.5,28.1,142.5,33.5z M127.6,33.5c0-2.4-0.3-4.7-1-7.1c-0.6-2.3-1.8-4.5-3.4-6.3
			c-1.7-1.9-3.9-3.4-6.8-4.6s-6.5-1.7-10.9-1.7c-3,0-5.6,0.3-7.8,0.8c-2.2,0.5-4.2,1.3-5.8,2.2c-1.6,1-3,2.1-4.1,3.3
			c-1.1,1.3-2,2.6-2.7,4.1s-1.1,3-1.4,4.6s-0.4,3.1-0.4,4.7c0,1.6,0.1,3.1,0.4,4.7c0.3,1.6,0.7,3.1,1.4,4.6c0.7,1.5,1.5,2.8,2.7,4.1
			c1.1,1.3,2.5,2.4,4.1,3.3c1.6,0.9,3.6,1.7,5.8,2.2c2.2,0.5,4.8,0.8,7.8,0.8c4.4,0,8-0.6,10.9-1.7c2.9-1.2,5.1-2.7,6.8-4.6
			c1.7-1.9,2.8-4,3.4-6.3C127.3,38.2,127.6,35.9,127.6,33.5z"/>
		<path class="st1" d="M217.1,23.4c0,3.2-0.4,6.1-1.2,8.7c-0.8,2.7-2.1,4.9-3.8,6.9c-1.8,1.9-4,3.4-6.8,4.5s-6.2,1.6-10.2,1.6h-24.4
			v20H156V1.9h39.1c4,0,7.4,0.5,10.2,1.6s5.1,2.5,6.8,4.5c1.8,1.9,3,4.2,3.8,6.8S217.1,20.3,217.1,23.4z M202.2,23.7
			c0-1.5-0.2-2.7-0.5-3.8c-0.4-1.1-0.9-1.9-1.8-2.6c-0.8-0.7-1.9-1.2-3.2-1.5c-1.3-0.3-2.9-0.5-4.9-0.5h-21.2v16.3h21.2
			c1.9,0,3.6-0.1,4.9-0.4c1.3-0.3,2.4-0.7,3.2-1.3c0.8-0.6,1.4-1.4,1.8-2.5C202,26.4,202.2,25.2,202.2,23.7z"/>
		<path class="st1" d="M265.8,65h-17.1L221.1,1.9h16.4l19.8,47.5l19.8-47.5h16.4L265.8,65z"/>
		<path class="st2" d="M303.1,65V1.9h5V65H303.1z"/>
		<path class="st2" d="M370.4,11.2c-1-0.6-2.2-1.2-3.6-1.9c-1.3-0.7-2.9-1.2-4.6-1.8c-1.7-0.5-3.7-1-5.9-1.3
			c-2.2-0.4-4.6-0.5-7.2-0.5c-3.2,0-6.1,0.2-8.5,0.6c-2.5,0.4-4.6,1.1-6.3,2c-1.7,0.9-3.1,2-4,3.4s-1.4,3-1.4,4.9
			c0,1.6,0.4,3,1.3,4.2s2,2.3,3.5,3.2c1.5,0.9,3.2,1.8,5.2,2.5c2,0.8,4.1,1.5,6.3,2.1c2.2,0.7,4.5,1.3,6.8,2s4.6,1.4,6.8,2.2
			c2.2,0.8,4.3,1.7,6.3,2.6c2,1,3.7,2.1,5.2,3.4c1.5,1.3,2.6,2.8,3.5,4.4c0.9,1.7,1.3,3.6,1.3,5.7c0,2.4-0.4,4.4-1.1,6.2
			c-0.8,1.8-1.8,3.3-3.1,4.6c-1.3,1.3-2.8,2.3-4.6,3.2c-1.8,0.8-3.6,1.5-5.6,2s-4.1,0.8-6.2,1s-4.2,0.3-6.3,0.3
			c-4.7,0-9-0.4-12.9-1.2c-3.8-0.8-7.5-1.9-11-3.3v-7c3.6,2.5,7.4,4.2,11.4,5.1c4,0.9,8.2,1.4,12.6,1.4c3.1,0,6-0.2,8.6-0.6
			c2.6-0.4,4.9-1.1,6.9-2c1.9-0.9,3.4-2.2,4.5-3.7s1.6-3.3,1.6-5.5c0-1.7-0.4-3.3-1.3-4.6s-2-2.5-3.5-3.5s-3.2-1.9-5.2-2.6
			c-2-0.8-4-1.5-6.2-2.1c-2.2-0.7-4.5-1.3-6.8-1.9c-2.3-0.6-4.6-1.3-6.8-2c-2.2-0.7-4.3-1.6-6.2-2.5c-2-0.9-3.7-2-5.2-3.2
			s-2.6-2.7-3.5-4.3c-0.9-1.6-1.3-3.5-1.3-5.7c0-2.1,0.3-4,1-5.6s1.6-3.1,2.8-4.3c1.2-1.2,2.6-2.2,4.2-3s3.3-1.5,5.2-1.9
			c1.8-0.5,3.7-0.8,5.7-1s3.9-0.3,5.9-0.3c2.1,0,4.1,0.1,6,0.3s3.7,0.5,5.5,0.9s3.5,0.8,5.2,1.2c1.7,0.5,3.4,1,5.1,1.5L370.4,11.2
			L370.4,11.2z"/>
		<path class="st2" d="M412.4,7.1V65h-4.9V7.1h-24.8V1.9h54.5v5.2H412.4z"/>
		<path class="st2" d="M497.2,65v-7c-1.9,1.2-4.1,2.3-6.5,3.3s-5,1.9-7.7,2.6c-2.7,0.7-5.4,1.3-8.3,1.7c-2.8,0.4-5.6,0.6-8.3,0.6
			c-3.5,0-6.7-0.4-9.5-1.1s-5.2-1.8-7.2-3.3s-3.5-3.3-4.5-5.4c-1.1-2.2-1.6-4.7-1.6-7.5s0.6-5.3,1.8-7.5c1.2-2.2,3-4,5.3-5.7
			c2.3-1.6,5-3,8.2-4.1s6.8-2.1,10.8-2.9s8.3-1.4,12.9-1.9s9.5-0.9,14.6-1.3v-4.8c0-2-0.3-3.7-1-5.2c-0.6-1.5-1.5-2.8-2.7-3.9
			c-1.1-1.1-2.5-2.1-4-2.8c-1.5-0.8-3.2-1.4-5-1.8c-1.8-0.5-3.7-0.8-5.6-1c-2-0.2-3.9-0.3-5.9-0.3c-2.7,0-5.1,0.2-7.3,0.5
			c-2.2,0.3-4.2,0.7-6.1,1.3c-1.9,0.5-3.7,1.2-5.5,1.9c-1.7,0.7-3.5,1.5-5.3,2.3V4.9c3.7-1.1,7.6-2.1,11.8-3s8.6-1.3,13.3-1.3
			c4,0,7.7,0.4,11.1,1.2s6.4,2,9,3.7c2.5,1.7,4.5,3.9,6,6.6s2.2,6,2.2,9.9v43H497.2z M497.2,30.8c-8.6,0.6-16,1.3-22.2,2.3
			c-6.1,1-11.1,2.3-15,3.7c-3.9,1.5-6.7,3.2-8.5,5.1c-1.8,2-2.7,4.2-2.7,6.7c0,2,0.4,3.8,1.3,5.4c0.9,1.6,2.2,2.9,3.8,3.9
			c1.7,1.1,3.7,1.9,6.1,2.4s5.1,0.8,8,0.8c1.7,0,3.6-0.1,5.4-0.3c1.9-0.2,3.7-0.6,5.6-1s3.7-0.9,5.5-1.5s3.5-1.2,5.1-1.9
			s3-1.4,4.3-2.2s2.4-1.5,3.3-2.3L497.2,30.8L497.2,30.8z"/>
	</g>
</g>
</svg>
