<?xml version="1.0" encoding="utf-8"?>
<!-- Generator: Adobe Illustrator 26.0.1, SVG Export Plug-In . SVG Version: 6.00 Build 0)  -->
<svg version="1.1" id="Layer_1" xmlns="http://www.w3.org/2000/svg" xmlns:xlink="http://www.w3.org/1999/xlink" x="0px" y="0px"
	 viewBox="0 0 790.5 213.1" style="enable-background:new 0 0 790.5 213.1;" xml:space="preserve">
<style type="text/css">
	.st0{fill:#FFFFFF;}
</style>
<g>
	<g>
		<path class="st0" d="M147.2,80.6h70.2v14.1H164v43.4h49.3V152H164v59.1h-16.8L147.2,80.6L147.2,80.6z"/>
		<path class="st0" d="M237.5,73.6h17v137.6h-17L237.5,73.6L237.5,73.6z"/>
		<path class="st0" d="M292.7,167.4c0.4,23.1,15.1,32.5,32.1,32.5c12.2,0,19.5-2.1,25.9-4.8l2.9,12.2c-6,2.7-16.2,5.8-31.1,5.8
			c-28.8,0-46-19-46-47.3s16.6-50.6,43.9-50.6c30.6,0,38.7,26.9,38.7,44.2c0,3.5-0.4,6.2-0.6,7.9h-65.8L292.7,167.4L292.7,167.4z
			 M342.6,155.2c0.2-10.8-4.4-27.7-23.6-27.7c-17.2,0-24.8,15.9-26.1,27.7H342.6z"/>
		<path class="st0" d="M387.4,117.4l13.3,20.1c3.5,5.2,6.4,10.1,9.5,15.3h0.6c3.1-5.6,6.2-10.5,9.3-15.5l13.2-20h18.4l-31.9,45.3
			l32.9,48.4h-19.3l-13.7-21.1c-3.7-5.4-6.8-10.7-10.1-16.3h-0.4c-3.1,5.6-6.4,10.7-9.9,16.3L385.8,211H367l33.3-47.9l-31.7-45.9
			h18.8L387.4,117.4L387.4,117.4z"/>
		<path class="st0" d="M488,91.1c0.2,5.8-4.1,10.5-10.8,10.5c-6,0-10.3-4.6-10.3-10.5c0-6,4.4-10.7,10.6-10.7
			C483.9,80.4,488,85.1,488,91.1z M469,211.2v-93.8h17v93.8H469z"/>
		<path class="st0" d="M534.8,90.5v26.9h24.4v13h-24.4V181c0,11.6,3.3,18.2,12.8,18.2c4.4,0,7.7-0.6,9.9-1.2l0.8,12.8
			c-3.3,1.4-8.5,2.3-15.1,2.3c-7.9,0-14.3-2.5-18.4-7.2c-4.8-5-6.6-13.4-6.6-24.4v-51.1h-14.5v-13h14.5V94.9L534.8,90.5z"/>
		<path class="st0" d="M597.3,91.1c0.2,5.8-4.1,10.5-10.8,10.5c-6,0-10.3-4.6-10.3-10.5c0-6,4.4-10.7,10.6-10.7
			C593.2,80.4,597.3,85.1,597.3,91.1z M578.3,211.2v-93.8h17v93.8H578.3z"/>
		<path class="st0" d="M630.1,117.4l18.4,52.7c3.1,8.5,5.6,16.3,7.5,24h0.6c2.1-7.7,4.8-15.5,7.9-24l18.2-52.7h17.8l-36.7,93.8
			h-16.2L612,117.4C612,117.4,630.1,117.4,630.1,117.4z"/>
		<path class="st0" d="M724.1,167.4c0.4,23.1,15.1,32.5,32.1,32.5c12.2,0,19.5-2.1,25.9-4.8l2.9,12.2c-6,2.7-16.2,5.8-31.1,5.8
			c-28.8,0-46-19-46-47.3s16.6-50.6,43.9-50.6c30.6,0,38.7,26.9,38.7,44.2c0,3.5-0.4,6.2-0.6,7.9h-65.8L724.1,167.4L724.1,167.4z
			 M774,155.2c0.2-10.8-4.4-27.7-23.6-27.7c-17.2,0-24.8,15.9-26.1,27.7H774z"/>
	</g>
	<g>
		<rect x="31" y="110.4" class="st0" width="36.8" height="36.8"/>
		<polygon class="st0" points="48.4,48.4 73.6,48.4 73.6,0 0,0 0,73.6 48.4,73.6 		"/>
		<polygon class="st0" points="62,62 62,98.8 79.4,98.8 79.4,116.3 116.2,116.3 116.2,62 		"/>
	</g>
</g>
</svg>
