<svg xmlns="http://www.w3.org/2000/svg" viewBox="0 0 239 51">
    <defs>
        <linearGradient id="gradient-header-a" x1="26.34" y1="51.01" x2="41.63" y2="21.99"
            gradientTransform="matrix(1 0 0 -1 0 52)" gradientUnits="userSpaceOnUse">
            <stop offset=".24" stop-color="#2edf7f"></stop>
            <stop offset=".66" stop-color="#01ab6c"></stop>
            <stop offset="1" stop-color="#125448"></stop>
        </linearGradient>
        <linearGradient id="gradient-header-b" x1="19.94" y1="1.99" x2="4.65" y2="31.02"
            gradientTransform="matrix(1 0 0 -1 0 52)" gradientUnits="userSpaceOnUse">
            <stop offset=".24" stop-color="#2edf7f"></stop>
            <stop offset=".67" stop-color="#01ab6c"></stop>
            <stop offset="1" stop-color="#125448"></stop>
        </linearGradient>
        <linearGradient id="gradient-header-c" x1="46.51" y1="22.93" x2="17.34" y2="9.48"
            gradientTransform="matrix(1 0 0 -1 0 52)" gradientUnits="userSpaceOnUse">
            <stop offset=".24" stop-color="#4e9fff"></stop>
            <stop offset=".59" stop-color="#1b79e8"></stop>
            <stop offset=".95" stop-color="#00315f"></stop>
        </linearGradient>
        <linearGradient id="gradient-header-d" x1="-.23" y1="30.08" x2="28.94" y2="43.53"
            gradientTransform="matrix(1 0 0 -1 0 52)" gradientUnits="userSpaceOnUse">
            <stop offset=".24" stop-color="#4e9fff"></stop>
            <stop offset=".58" stop-color="#1b79e8"></stop>
            <stop offset=".95" stop-color="#00315f"></stop>
        </linearGradient>
    </defs>
    <path
        d="M160.7 12.44c0-1.96 1.46-3.4 3.46-3.4s3.46 1.43 3.46 3.4-1.46 3.43-3.46 3.43-3.46-1.47-3.46-3.43zm.61 5.4h5.7v22.52h-5.7V17.84zm-76.15 7.5H71.93v4.72h7.58c-.86 2.49-3.99 5.4-8.84 5.4s-8.43-3.44-8.43-9.38 3.91-9.5 8.59-9.46c4.32.04 7.17 2.38 8.19 5.81l4.88-2.82c-1.59-4.27-5.86-8.52-12.99-8.52-8.71 0-14.78 6.67-14.78 14.99s5.74 14.9 14.54 14.9c5.5 0 8.39-3.73 9.41-6.84v6.22h5.09V25.33zm15.47-8.15c-6.97 0-12.01 4.99-12.01 11.83s5.05 11.92 12.01 11.92 11.97-5.04 11.97-11.92-5.05-11.83-11.97-11.83zm0 5.12c3.58 0 6.11 2.83 6.11 6.72s-2.52 6.8-6.11 6.8-6.15-2.87-6.15-6.8 2.53-6.72 6.15-6.72zm37.38 9.38c0 5.61-3.67 8.68-9.57 8.68h-12.17V11.7H128c5.05 0 8.75 2.45 8.75 6.72 0 2.91-1.18 4.79-3.99 5.89 3.26.79 5.25 3.86 5.25 7.38zm-15.84-14.86v6.59h4.32c3.05 0 4.48-1.23 4.48-3.52 0-2.05-1.46-3.07-4.48-3.07h-4.32zm9.85 14.82c0-2.42-1.91-3.52-5.05-3.52-2 0-3.71 0-4.81.04v7.08h4.81c3.13 0 5.05-1.11 5.05-3.6zm22.43-6.88l5.01-2.91c-.93-2.46-3.25-4.67-6.23-4.67-2.48 0-4.67 1.43-5.85 4.09v-3.43h-5.7v22.53h5.7V27.11c0-3.4 1.71-4.79 3.74-4.79 1.59 0 2.81 1.23 3.34 2.45zm39.67-6.92h-5.7v3.23c-1.1-2.01-3.87-3.89-7.21-3.89-5.95 0-10.34 4.83-10.34 11.42s4.4 11.51 10.34 11.51c3.54 0 6.15-2.01 7.21-4.14v2.5c0 5.37-3.1 7-6.56 7-2.49 0-4.4-1.19-5.66-3.07l-4.97 2.91c2.04 3.16 6.35 5.28 10.71 5.28 6.76 0 12.18-3.73 12.18-12.65v-20.1zm-11.48 4.59c3.71 0 6.07 2.62 6.07 6.18 0 3.61-2.32 6.27-6.07 6.27-3.5 0-5.94-2.67-5.94-6.27s2.44-6.18 5.94-6.18zm37.5 5.16v12.78h-5.71V28.79c0-3.81-1.51-6.35-4.8-6.35-3.46 0-4.93 2.78-4.93 6.8v11.14h-5.69V9.66h5.69v11.6c1.34-2.37 3.79-4.05 7.09-4.05 5.54 0 8.35 4.29 8.35 10.39zm18.85 12.2v-5.28c-1.18.86-2.36 1.27-3.72 1.27-1.83 0-3.41-.82-3.41-3.89v-8.72h6.72v-5.32h-6.72v-6.14h-5.69v6.14h-3.25v5.32h3.25v10.15c0 5.24 3.26 7.7 7.78 7.7 1.91 0 3.75-.41 5.05-1.23z"
        fill="#fff"></path>
    <path
        d="M45.1 38.24a68.757 68.757 0 000-25.5A67.898 67.898 0 0023.15 0 67.922 67.922 0 001.19 12.76a68.703 68.703 0 000 25.49A68.076 68.076 0 0023.15 51c8.05-2.83 15.5-7.16 21.96-12.76z"
        fill="#fff"></path>
    <path
        d="M23.14 7.44c2.52 8.2 3.65 11.94 4.97 13.04 1.37 1.14 5.14 2.66 10.59 4.55 4.15-1.1 4.99-3.78 3.66-10.66v-.02l-.02-.02A59.41 59.41 0 0023.15 3.2c-1.28.45-2.56.96-3.83 1.5 2.07.03 3.36 1.22 3.83 2.75z"
        fill="url(#gradient-header-a)"></path>
    <path
        d="M23.14 43.56c-2.52-8.2-3.65-11.94-4.97-13.04-1.37-1.14-5.14-2.66-10.59-4.55-4.15 1.1-5 3.78-3.66 10.66v.02l.02.02a59.436 59.436 0 0019.19 11.14c1.28-.45 2.56-.96 3.83-1.5-2.07-.03-3.36-1.22-3.83-2.75z"
        fill="url(#gradient-header-b)"></path>
    <path
        d="M27.39 45.39c1.04 0 2.51-.27 5.87-2.24 3.22-1.89 6.26-4.06 9.1-6.49v-.02a60.164 60.164 0 00.96-14.23c-.29 1.08-1.32 2.39-3.27 3.09-8.36 2.97-10.89 4-11.99 5.07-1.1 1.07-1.83 2.87-4.45 11.43.6 2.78 2.04 3.39 3.78 3.39z"
        fill="url(#gradient-header-c)"></path>
    <path
        d="M18.9 5.61c-1.04 0-2.51.27-5.87 2.24a63.192 63.192 0 00-9.1 6.49v.02a60.164 60.164 0 00-.96 14.23c.29-1.08 1.32-2.39 3.27-3.09 8.37-2.98 10.89-4 11.99-5.07 1.1-1.07 1.83-2.87 4.45-11.43-.6-2.78-2.04-3.39-3.78-3.39z"
        fill="url(#gradient-header-d)"></path>
</svg>