<?xml version="1.0" encoding="utf-8"?>
<!-- Generator: Adobe Illustrator 22.1.0, SVG Export Plug-In . SVG Version: 6.00 Build 0)  -->
<svg version="1.1" id="Layer_1" xmlns="http://www.w3.org/2000/svg" xmlns:xlink="http://www.w3.org/1999/xlink" x="0px" y="0px"
	 viewBox="0 0 462 89.6" style="enable-background:new 0 0 462 89.6;" xml:space="preserve">
<style type="text/css">
	.st0{fill:#FFFFFF;}
</style>
<g>
	<g>
		<polygon class="st0" points="138.2,33.4 151.2,33.4 142.3,72.8 129.4,72.8 		"/>
		<polygon class="st0" points="158.4,33.4 171.4,33.4 162.5,72.8 149.5,72.8 		"/>
		<path class="st0" d="M168.2,14.5c-2.2,0-4.3,0.8-6.1,2.2l-5.9,4.6c-0.1-3.8-2.9-6.7-7-6.7c-4.5,0-8.8,3.5-9.8,7.9
			c-1.1,4.7,2,8.7,6.8,8.7c2.2,0,4.3-0.8,6.1-2.2l5.9-4.6c0.1,3.8,2.9,6.7,7,6.7c4.5,0,8.8-3.5,9.8-7.9
			C176.1,18.6,173,14.5,168.2,14.5 M152.2,22.8c-0.6,2.5-3.1,4.5-5.6,4.5s-4.1-2-3.5-4.5s3.1-4.5,5.6-4.5S152.8,20.3,152.2,22.8
			 M171.2,22.8c-0.6,2.5-3.1,4.5-5.6,4.5s-4.1-2-3.5-4.5s3.1-4.5,5.6-4.5S171.7,20.3,171.2,22.8"/>
	</g>
	<g>
		<path class="st0" d="M178.7,55.7c0,0,5.1,5.2,13.4,5.2c2.7,0,6.9-1.2,7.1-5.1c0.2-6-21.2-7.5-20.6-23.4
			c0.4-11.3,11.3-17.9,22-17.9c13.5,0,19.4,6.7,19.4,6.7l-7.9,10.4c0,0-4.9-4.1-12.1-4.1c-2.8,0-7.1,1.4-7.2,5
			c-0.2,6.3,21.3,7.3,20.8,23.4c-0.3,9.9-9.6,18-22,18c-14.7,0-21.4-8.2-21.4-8.2L178.7,55.7z"/>
		<path class="st0" d="M223.6,31.5h13.9L228,72.8h-13.8L223.6,31.5z"/>
		<path class="st0" d="M250.6,78.1c4.9,0,10.1-1.8,11.4-7.9l0.3-1.4c0.1-0.5,0.4-1.5,0.4-1.5h-0.1c-2.8,2.9-5.8,4.3-10.1,4.3
			c-10.9,0-15.8-7.8-15.4-17.3c0.4-11.6,8.9-23.8,22.9-23.8c3.8,0,8.5,1,10.9,4.4h0.2c0,0,0.1-0.8,0.2-1.3l0.5-2.2h13L276,69.8
			c-3.5,15-15.1,19.8-25.4,19.8c-11.3,0-16.9-4.3-16.9-4.3l5.8-10C239.4,75.5,243.3,78.1,250.6,78.1z M257.2,60.1
			c6.1,0,9.8-6.7,10-12c0.2-4.8-2.9-6-6.5-6c-5.8,0-9.4,5-9.6,11C250.9,57,252.7,60.1,257.2,60.1z"/>
		<path class="st0" d="M291.7,31.5h13.4l-0.5,2.1c-0.5,2.1-1.2,4.1-1.2,4.1h0.2c2.5-3.7,8.4-7.1,14.1-7.1c7.1,0,12.9,3.1,12.6,11.7
			c0,1.4-0.3,2.9-0.7,4.6l-6,26h-13.9l5.5-23.8c0.2-1,0.3-1.8,0.3-2.4c0.1-2.5-1.1-3.5-3.6-3.5c-5.5,0-10.3,5.4-11.6,11.4l-4.2,18.3
			h-13.9L291.7,31.5z"/>
		<path class="st0" d="M356.6,47.1h0.6c0.1-0.6,0.2-1.3,0.2-1.5c0.1-2.7-1.8-3.8-5.1-3.8c-5.2,0-12.1,3.8-12.1,3.8l-2.6-10.4
			c0,0,8.7-4.6,17.8-4.6c7,0,16.3,2.7,15.9,13.2c0,1.2-0.2,2.6-0.5,4l-5.7,25.1h-12.7l0.6-2.5c0.3-1.4,0.8-2.6,0.8-2.6h-0.2
			c0,0-4.7,6-12.4,6c-6.2,0-12-3.7-11.7-10.7C329.9,50.6,346,47.1,356.6,47.1z M346.8,63.2c3.6,0,7.7-3.9,8.4-7.3l0.2-0.9h-1.3
			c-3,0-10.5,0.6-10.6,5.5C343.5,62.1,344.5,63.2,346.8,63.2z"/>
		<path class="st0" d="M387,78.1c4.9,0,10.1-1.8,11.4-7.9l0.3-1.4c0.1-0.5,0.4-1.5,0.4-1.5H399c-2.8,2.9-5.8,4.3-10.1,4.3
			c-10.9,0-15.8-7.8-15.4-17.3c0.4-11.6,8.9-23.8,22.9-23.8c3.8,0,8.5,1,10.9,4.4h0.2c0,0,0.1-0.8,0.2-1.3l0.5-2.2h13l-8.8,38.4
			c-3.5,15-15.1,19.8-25.4,19.8c-11.3,0-16.9-4.3-16.9-4.3l5.8-10C375.8,75.5,379.7,78.1,387,78.1z M393.6,60.1c6.1,0,9.8-6.7,10-12
			c0.2-4.8-2.9-6-6.5-6c-5.8,0-9.4,5-9.6,11C387.4,57,389.1,60.1,393.6,60.1z"/>
		<path class="st0" d="M444.9,30.5c11.7,0,17.4,6.7,17.1,16.2c-0.1,3.8-1.8,8.1-1.8,8.1h-26.1c-0.2,4.7,2.7,7.4,7.8,7.4
			c6,0,12.4-4.2,12.4-4.2l3.2,10.4c0,0-7.5,5.4-16.9,5.4c-14.1,0-20.8-8.3-20.5-18.1C420.7,41.4,431.2,30.5,444.9,30.5z M448.4,46.9
			c0,0,0.1-1,0.1-1.4c0.1-2.6-1.5-4.5-4.3-4.5c-4,0-6.7,2.6-8.1,5.9H448.4z"/>
	</g>
	<g>
		<path class="st0" d="M102.6,8.4V0H27.8v26H8c-4.4,0-8,3.6-8,8v42c0,4.4,3.6,8,8,8h76.7c4.4,0,8-3.6,8-8V60.9h9.9V11.7l0,0V8.4
			L102.6,8.4z M86.1,75.9c0,0.8-0.6,1.4-1.4,1.4H8c-0.8,0-1.4-0.6-1.4-1.4v-42c0-0.8,0.6-1.4,1.4-1.4h19.8v17.3L16.6,61l-3.8-3.8
			v14.5h14.5L23.6,68l7.3-7.3h55.3v15.2H86.1z M99.3,57.6H87.4l5.4-24.1h-13l-5.4,24.1h-7.1l5.4-24.1h-13l-5.4,24.1H34.1l11.1-11.1
			l3.7,3.7V35.7H34.4l3.7,3.7L31,46.5V11.6h68.2v46H99.3z M99.3,8.4H31V3.3h68.2L99.3,8.4L99.3,8.4z"/>
		<path class="st0" d="M40.8,32.6h7.7c3.1,0,5.6-2.5,5.6-5.6v-7.7c0-3.1-2.5-5.6-5.6-5.6h-7.7c-3.1,0-5.6,2.5-5.6,5.6V27
			C35.2,30.1,37.7,32.6,40.8,32.6z M38.5,19.3c0-1.2,1-2.3,2.3-2.3h7.7c0.7,0,1.3,0.3,1.8,0.9l-5.6,5.6l-2-2l-2.3,2.3l4.3,4.3
			l6.1-6.1v5c0,1.2-1,2.3-2.3,2.3h-7.7c-1.2,0-2.3-1-2.3-2.3V19.3z"/>
		<path class="st0" d="M67.6,31.1c2.2,0,4.3-0.8,6.1-2.2l5.9-4.6c0.1,3.8,2.9,6.7,7,6.7c4.5,0,8.8-3.5,9.8-7.9
			c1.1-4.7-2-8.7-6.8-8.7c-2.2,0-4.3,0.8-6.1,2.2l-5.9,4.6c-0.1-3.8-2.9-6.7-7-6.7c-4.5,0-8.8,3.5-9.8,7.9
			C59.7,27,62.7,31.1,67.6,31.1z M83.6,22.8c0.6-2.5,3.1-4.5,5.6-4.5s4.1,2,3.5,4.5s-3.1,4.5-5.6,4.5C84.5,27.3,83,25.3,83.6,22.8z
			 M64.6,22.8c0.6-2.5,3.1-4.5,5.6-4.5s4.1,2,3.5,4.5s-3.1,4.5-5.6,4.5S64,25.3,64.6,22.8z"/>
	</g>
</g>
</svg>
