<svg xmlns="http://www.w3.org/2000/svg" width="127" height="24" viewBox="0 0 165000 31800" shape-rendering="geometricPrecision" text-rendering="geometricPrecision" image-rendering="optimizeQuality" fill-rule="evenodd" clip-rule="evenodd">
  <defs>
    <style>
      .fil0{fill:#fff;fill-rule:nonzero}
    </style>
  </defs>
  <g id="MainDesign">
    <path class="fil0" d="M3000 23000H1500V6800h1500v16200zm25700 0V12300c0-1500-300-2700-900-3400-700-700-1600-1100-2900-1100-1600 0-2900 500-3700 1400s-1100 2300-1100 4300v9500h-1600V11900c0-2700-1200-4100-3700-4100-1700 0-2900 500-3700 1500s-1200 2600-1200 4700v9000H8400V6800h1300l300 2200h100c400-800 1000-1400 1900-1900 800-400 1700-600 2700-600 2600 0 4200 900 4900 2800h100c500-900 1200-1600 2100-2100s1900-700 3000-700c1800 0 3100 400 4000 1400 900 900 1300 2400 1300 4500v10600h-1400zm13600 300c-2500 0-4300-1000-5400-2800h-100v1200c0 800 100 1600 100 2400v6200h-1500V6800h1200l300 2300h100c1100-1800 2900-2600 5300-2600 2200 0 3900 700 5000 2100 1200 1400 1800 3500 1800 6300 0 2600-600 4700-1800 6200-1300 1400-2900 2200-5000 2200zm0-1300c1600 0 2900-600 3800-1900 900-1200 1400-2900 1400-5100 0-4800-1700-7200-5200-7200-1800 0-3200 500-4100 1600-900 1000-1300 2700-1300 5000v500c0 2600 400 4400 1200 5500 900 1000 2300 1600 4200 1600zM59900 6500c700 0 1400 0 2200 200l-300 1400c-600-200-1300-300-2100-300-1300 0-2500 600-3300 1800-900 1200-1400 2600-1400 4400v9000h-1400V6800h1200l100 2900h200c600-1200 1300-2000 2100-2500 700-500 1700-700 2700-700zm11500 16800c-2400 0-4200-800-5500-2200-1400-1500-2000-3500-2000-6100s600-4700 1900-6200c1300-1600 3000-2300 5100-2300 1900 0 3400 600 4600 1900 1100 1400 1600 3200 1600 5400v1200H65400c100 2300 600 4000 1600 5200 1000 1100 2500 1700 4400 1700 900 0 1700 0 2400-200 700-100 1600-400 2700-800v1300c-1000 400-1800 700-2600 900-700 100-1600 200-2500 200zm-500-15600c-1500 0-2800 600-3700 1600-1000 1000-1500 2500-1700 4400h10000c0-1800-400-3300-1200-4400-800-1000-1900-1600-3400-1600zm20700 11100c0 1400-500 2500-1600 3300s-2700 1200-4700 1200c-2200 0-3900-400-5200-1000v-1600c1600 800 3400 1200 5200 1200 1600 0 2800-300 3600-800s1300-1200 1300-2100c0-800-400-1500-1000-2100-700-500-1800-1100-3300-1600-1600-600-2700-1100-3400-1500-700-500-1200-900-1500-1500-300-500-500-1100-500-1900 0-1200 500-2200 1500-2900 1100-700 2500-1000 4300-1000s3400 300 5000 900l-600 1400c-1500-700-3000-1000-4400-1000-1300 0-2400 200-3100 700-800 400-1200 1000-1200 1800s300 1500 900 2000 1800 1100 3500 1700c1500 500 2600 1000 3200 1400 700 400 1200 900 1500 1500 400 500 500 1100 500 1900zm14200 0c0 1400-500 2500-1600 3300s-2700 1200-4700 1200c-2200 0-3900-400-5200-1000v-1600c1700 800 3400 1200 5200 1200 1600 0 2800-300 3600-800 900-500 1300-1200 1300-2100 0-800-300-1500-1000-2100-700-500-1800-1100-3300-1600-1600-600-2700-1100-3400-1500-600-500-1100-900-1500-1500-300-500-500-1100-500-1900 0-1200 500-2200 1600-2900 1000-700 2400-1000 4200-1000s3400 300 5000 900l-500 1400c-1600-700-3100-1000-4500-1000-1300 0-2300 200-3100 700-800 400-1200 1000-1200 1800s300 1500 900 2000 1800 1100 3600 1700c1400 500 2500 1000 3100 1400 700 400 1200 900 1500 1500 400 500 500 1100 500 1900zM111400 1600h6800c3100 0 5300 500 6700 1400 1400 800 2100 2200 2100 4200 0 1300-300 2300-900 3200-600 800-1400 1300-2400 1500v100c1400 300 2300 900 3000 1700 600 900 900 2000 900 3400 0 2000-700 3600-2200 4700-1400 1100-3400 1600-5800 1600h-8200V1600zm4600 8700h2700c1300 0 2200-200 2700-600 600-400 900-1000 900-1900s-300-1500-900-1800c-600-400-1600-600-2900-600h-2500v4900zm0 3600v5700h3000c1300 0 2300-200 2900-700s900-1200 900-2200c0-1900-1300-2800-3900-2800h-2900z"/>
    <path id="1" class="fil0" d="M135200 15100c0 1600 300 2900 800 3700 500 900 1400 1300 2600 1300 1300 0 2100-400 2700-1300 500-800 700-2100 700-3700 0-1700-200-2900-800-3700-500-900-1400-1300-2600-1300s-2100 400-2600 1300c-500 800-800 2000-800 3700zm11500 0c0 2700-700 4800-2100 6300-1500 1600-3500 2300-6000 2300-1600 0-3000-300-4300-1000-1200-700-2100-1700-2800-3000-600-1300-900-2900-900-4600 0-2700 700-4900 2100-6400s3400-2200 6000-2200c1600 0 3000 300 4200 1000s2200 1700 2800 3000c700 1300 1000 2800 1000 4600z"/>
    <path id="2" class="fil0" d="M153300 14900l-5400-8100h5200l3200 5300 3200-5300h5200l-5400 8100 5700 8500h-5200l-3500-5700-3500 5700h-5200z"/>
    <path fill="#fff" d="M1500 1500h1500v1900H1500z"/>
  </g>
</svg>
