<svg xmlns="http://www.w3.org/2000/svg" xmlns:xlink="http://www.w3.org/1999/xlink" width="223.274" height="67.492" viewBox="0 0 223.274 67.492">
  <defs>
    <clipPath id="clip-path">
      <rect id="Rechteck_1503" data-name="Rechteck 1503" width="223.274" height="67.492" fill="none"/>
    </clipPath>
  </defs>
  <g id="Logo" transform="translate(111.637 33.746)">
    <g id="Gruppe_1379" data-name="Gruppe 1379" transform="translate(-111.637 -33.746)" clip-path="url(#clip-path)">
      <path id="Pfad_2565" data-name="Pfad 2565" d="M7.641,0V26.094L40.035,0H50.848L16.666,27.971,55.048,56.924H41.911L7.641,31.1V56.969H0V0ZM124.528,0V26.094L156.877,0H167.69L133.554,27.971l38.382,28.954H158.8L124.528,31.1V56.969h-7.641V0Zm98.21,0V6.836H182.48V24.262h23.771v6.747H182.48V50.133H223.1v6.836H174.839V0Z" fill="#fff"/>
      <path id="Pfad_2566" data-name="Pfad 2566" d="M180.049,111.143l.983-.715-1.474-1.653-1.206-1.3.045-.045.983-.67-3.306-3.619-2.457-2.592-.313.179-.67.357-.313-.357-.4-.447-.268.179-.76.4.268.268,2.011,2.234-1.162.67-2.994-3.441-2.189,1.117,2.189,2.592-1.117.67-2.9-3.53-2.189,1.162,2.77,3.619-.581.313-.67.4L158.379,98.9,156.1,99.972l4.289,6.166,4.334,6.166-1.251.76-2.145-3.083-1.34.715-.268-.447-.4-.626-2.636,1.43,1.3,2.1,1.385-.76.67,1.072,1.34-.76,1.474,2.279,1.34-.8,1.653,2.413.536-.313.8-.536,1.653,2.368,1.385-.849,1.921,2.636,9.875-6.524Z" transform="translate(-86.352 -54.71)" fill="#fff"/>
      <path id="Pfad_2567" data-name="Pfad 2567" d="M176.195,0H129.949A5.049,5.049,0,0,0,124.9,5.049V51.92a5.049,5.049,0,0,0,5.049,5.049h8.221l-.67-1.117,3.843-2.1.626.983,1.3-.715-2.681-3.887h-8.043V6.836h41.107v43.3H162.165l1.117,1.162-.983.67,2.815,2.994-1.117.76,1.117,1.251h11.081a5.049,5.049,0,0,0,5.049-5.049V5.049A5.049,5.049,0,0,0,176.195,0Z" transform="translate(-69.093 0)" fill="#fff"/>
      <rect id="Rechteck_1502" data-name="Rechteck 1502" width="223.274" height="67.492" fill="none"/>
    </g>
  </g>
</svg>
