<?xml version="1.0" encoding="UTF-8" standalone="no"?>
<!-- Generator: Adobe Illustrator 15.0.2, SVG Export Plug-In . SVG Version: 6.00 Build 0)  -->

<svg
   version="1.1"
   id="Laag_1"
   x="0px"
   y="0px"
   width="1166.786"
   height="407.15799"
   viewBox="0 0 1166.786 407.15798"
   enable-background="new 0 0 1190.551 841.89"
   xml:space="preserve"
   sodipodi:docname="logo-white-transparent.svg"
   inkscape:version="1.1.2 (0a00cf5339, 2022-02-04)"
   xmlns:inkscape="http://www.inkscape.org/namespaces/inkscape"
   xmlns:sodipodi="http://sodipodi.sourceforge.net/DTD/sodipodi-0.dtd"
   xmlns="http://www.w3.org/2000/svg"
   xmlns:svg="http://www.w3.org/2000/svg"
   xmlns:rdf="http://www.w3.org/1999/02/22-rdf-syntax-ns#"
   xmlns:cc="http://creativecommons.org/ns#"
   xmlns:dc="http://purl.org/dc/elements/1.1/"><metadata
   id="metadata38"><rdf:RDF><cc:Work
       rdf:about=""><dc:format>image/svg+xml</dc:format><dc:type
         rdf:resource="http://purl.org/dc/dcmitype/StillImage" /><dc:title /></cc:Work></rdf:RDF></metadata><defs
   id="defs36" /><sodipodi:namedview
   pagecolor="#ffffff"
   bordercolor="#666666"
   borderopacity="1"
   objecttolerance="10"
   gridtolerance="10"
   guidetolerance="10"
   inkscape:pageopacity="0"
   inkscape:pageshadow="2"
   inkscape:window-width="1920"
   inkscape:window-height="1011"
   id="namedview34"
   showgrid="false"
   inkscape:zoom="0.98715688"
   inkscape:cx="431.03585"
   inkscape:cy="420.39924"
   inkscape:window-x="0"
   inkscape:window-y="0"
   inkscape:window-maximized="1"
   inkscape:current-layer="g56"
   inkscape:pagecheckerboard="0" />


<g
   id="g56"
   transform="matrix(3.8719023,0,0,3.8719023,-1721.2525,-1421.9378)"><g
     id="g27">
	<path
   id="path2"
   d="m 444.575,384.582 h 9.5 v 34.125 h 16.75 v 8 h -26.25 z"
   inkscape:connector-curvature="0"
   style="fill:#ffffff" />
	<path
   id="path4"
   d="m 482.888,414.457 c 0.312,3.938 4.188,5.812 8.625,5.812 3.25,0 5.875,-0.438 8.438,-1.312 l 1.25,6.437 c -3.125,1.312 -6.938,1.938 -11.062,1.938 -10.375,0 -16.312,-6 -16.312,-15.562 0,-7.75 4.875,-16.312 15.438,-16.312 9.875,0 13.625,7.688 13.625,15.25 0,1.625 -0.188,3.062 -0.312,3.75 h -19.69 z m 11.187,-6.5 c 0,-2.312 -1,-6.188 -5.312,-6.188 -4.062,0 -5.688,3.688 -5.938,6.188 z"
   inkscape:connector-curvature="0"
   style="fill:#ffffff" />
	<path
   id="path6"
   d="m 509.7,426.706 v -23.562 h -4.062 v -7 h 4.062 v -1.188 c 0,-3.688 1.125,-7.75 3.812,-10.25 2.438,-2.25 5.688,-3.062 8.5,-3.062 2.062,0 3.688,0.312 5,0.625 l -0.375,7.312 c -0.812,-0.25 -1.812,-0.438 -3.062,-0.438 -3.125,0 -4.438,2.438 -4.438,5.438 v 1.562 h 6.125 v 7 H 519.2 v 23.562 h -9.5 z"
   inkscape:connector-curvature="0"
   style="fill:#ffffff" />
	<path
   id="path8"
   d="m 541.449,387.832 v 8.312 h 6.812 v 7 h -6.812 v 11.062 c 0,3.688 0.938,5.375 3.75,5.375 1.312,0 1.938,-0.062 2.812,-0.25 l 0.062,7.187 c -1.188,0.438 -3.5,0.812 -6.125,0.812 -3.062,0 -5.625,-1.062 -7.188,-2.625 -1.75,-1.812 -2.625,-4.75 -2.625,-9.062 v -12.5 h -4.062 v -7 h 4.062 v -5.75 z"
   inkscape:connector-curvature="0"
   style="fill:#ffffff" />
	<g
   id="XMLID_1_">
		<g
   id="g22"
   style="fill:#16a34a;fill-opacity:1">
			<path
   id="path10"
   d="m 671.95,408.52 12.5,18.19 h -11.69 l -7.439,-12.57 -2.37,3 v 9.57 h -9.5 v -44.44 h 9.5 v 26.75 h 0.12 c 0.689,-1.31 1.439,-2.56 2.189,-3.69 l 6.19,-9.19 h 11.43 z"
   inkscape:connector-curvature="0"
   style="fill:#16a34a;fill-opacity:1" />
			<path
   id="path12"
   d="m 648.26,396.71 -1.5,7.06 c -1.13,-0.5 -2.81,-0.94 -5.31,-0.94 -5,0 -8.25,3.56 -8.19,8.5 0,5.63 3.75,8.56 8.37,8.56 2.25,0 4,-0.37 5.44,-1 l 1.13,7 c -1.69,0.82 -4.88,1.44 -8.5,1.44 -9.88,0 -16.19,-6.06 -16.19,-15.62 0,-8.88 6.12,-16.19 17.5,-16.19 2.5,0 5.25,0.44 7.25,1.19 z"
   inkscape:connector-curvature="0"
   style="fill:#16a34a;fill-opacity:1" />
			<rect
   id="rect14"
   height="30.57"
   width="9.5"
   y="396.14001"
   x="608.13"
   style="fill:#16a34a;fill-opacity:1" />
			<path
   id="path16"
   d="m 617.95,387.64 c 0,2.63 -1.94,4.75 -5.07,4.75 h -0.06 c -3,0 -4.94,-2.12 -4.94,-4.75 0,-2.68 2,-4.75 5.07,-4.75 3.06,0 4.93,2.07 5,4.75 z"
   inkscape:connector-curvature="0"
   style="fill:#16a34a;fill-opacity:1" />
			<rect
   id="rect18"
   height="44.439999"
   width="9.5"
   y="382.26999"
   x="590.95001"
   style="fill:#16a34a;fill-opacity:1" />
			<path
   id="path20"
   d="m 585.51,385.77 -2,7.56 c -1.87,-0.81 -4.56,-1.56 -8,-1.56 -7.5,0 -13.37,4.56 -13.37,13.94 0,8.37 5,13.68 13.43,13.68 2.94,0 6.07,-0.56 8,-1.37 l 1.38,7.5 c -1.69,0.811 -5.69,1.811 -10.75,1.811 -14.56,0 -22.06,-9.12 -22.06,-21.12 0,-14.32 10.25,-22.25 23,-22.25 4.93,-0.001 8.68,0.999 10.37,1.809 z"
   inkscape:connector-curvature="0"
   style="fill:#16a34a;fill-opacity:1" />
		</g>
		<g
   id="g24">
		</g>
	</g>
</g><path
     id="path29"
     d="m 716.765,414.686 -1.154,3.648 29.157,9.232 1.154,-3.648 z m -30.956,-46.346 8.28,29.442 3.684,-1.036 -8.28,-29.442 z m 45.951,9.952 -21.975,21.272 2.662,2.75 21.975,-21.272 z"
     inkscape:connector-curvature="0"
     style="fill:#cfd1d2" /><path
     id="path31"
     d="m 725.313,446.775 -30.179,-27.746 0.086,3.341 0.979,37.772 9.471,-8.385 9.33,20.704 7.646,-3.475 -9.291,-20.5 z m -6.418,20.802 -2.476,1.126 -9.746,-21.621 -7.796,6.904 -0.736,-28.344 20.852,19.174 -9.773,1.399 z"
     inkscape:connector-curvature="0"
     style="fill:#f9f9f9" /></g>
</svg>
