<svg width="800" height="96" viewBox="0 0 800 96" fill="none" xmlns="http://www.w3.org/2000/svg">
<path d="M69.2812 1.03601H86.7688V90.1466H69.2812V1.03601Z" fill="white" style="fill:white;fill-opacity:1;"/>
<path d="M96.125 1.03601H113.983L137.259 69.5326L160.781 1.03601H178.515L145.756 90.1466H128.946L96.1866 1.03601H96.125Z" fill="white" style="fill:white;fill-opacity:1;"/>
<path d="M291.625 75.083C300.923 75.083 307.573 71.1188 307.573 64.4085C307.573 45.3781 260.406 56.1145 260.406 24.1529C260.406 10.0634 273.769 0 291.257 0C308.744 0 321.49 8.90507 324.261 22.2617L308.744 28.5446C306.958 20.005 300.492 14.5768 291.193 14.5768C282.698 14.5768 277.462 18.2375 277.462 24.1529C277.462 40.1338 325.001 28.3009 325.001 64.043C325.001 79.6563 311.577 90.0873 291.502 90.0873" fill="white" style="fill:white;fill-opacity:1;"/>
<path d="M338.297 1.03601H355.785V90.1466H338.297V1.03601Z" fill="white" style="fill:white;fill-opacity:1;"/>
<path d="M368.714 45.5619C368.714 15.126 390.452 0 413.913 0C435.526 0 450.797 11.2216 454.245 29.643L437.005 33.1798C434.849 21.9582 425.796 14.8824 413.727 14.8824C397.657 14.8824 386.202 26.1041 386.202 45.5619C386.202 65.0176 397.657 76.1195 413.419 76.1195C427.027 76.1195 436.142 68.1291 437.065 56.5399H410.342V42.5122H453.261V90.0873H437.434V79.2909C433.432 86.5487 423.58 91.1239 412.619 91.1239C389.775 91.1239 368.531 75.9977 368.531 45.5619H368.714Z" fill="white" style="fill:white;fill-opacity:1;"/>
<path d="M469.344 1.03601H487.077L525.625 62.8842V1.03601H541.942V90.1466H524.209L485.783 28.4222V91.1848H469.344V1.09794V1.03601Z" fill="white" style="fill:white;fill-opacity:1;"/>
<path d="M594.219 23.6655L569.401 90.0874H551.422L585.966 0.97644H602.285L636.829 90.0874H618.848L594.156 23.6655L569.341 90.0874L594.219 23.6655Z" fill="white" style="fill:white;fill-opacity:1;"/>
<path d="M638.558 45.5619C638.558 15.126 660.296 0 683.757 0C705.369 0 720.64 11.2216 724.09 29.643L706.849 33.1798C704.692 21.9582 695.64 14.8824 683.571 14.8824C667.5 14.8824 656.048 26.1041 656.048 45.5619C656.048 65.0176 667.5 76.1195 683.265 76.1195C696.873 76.1195 705.985 68.1291 706.909 56.5399H680.185V42.5122H723.105V90.0873H707.28V79.2909C703.277 86.5487 693.423 91.1239 682.463 91.1239C659.619 91.1239 638.375 75.9977 638.375 45.5619H638.558Z" fill="white" style="fill:white;fill-opacity:1;"/>
<path d="M187.625 1.03637H247.786V15.9187H205.113V35.4983H239.288V50.5025H205.113V75.0828H276.357V90.0874H187.625V0.97644V1.03637Z" fill="white" style="fill:white;fill-opacity:1;"/>
<path d="M17.4878 1.03601H0V18.5405H17.4878V1.03601Z" fill="white" style="fill:white;fill-opacity:1;"/>
<path d="M17.4878 75.0833V35.9861H0V90.0873H59.237V75.0833H17.4878Z" fill="white" style="fill:white;fill-opacity:1;"/>
<path d="M798.961 1.03601H783.812V15.9183H798.961V1.03601Z" fill="white" style="fill:white;fill-opacity:1;"/>
<path d="M756.583 75.0824V50.5022H790.759V35.4979H756.583V15.9183H768.59V1.03601H739.156V90.0866H799.995V75.0824H756.583Z" fill="white" style="fill:white;fill-opacity:1;"/>
</svg>
