<svg width="119" height="28" viewBox="0 0 119 28" fill="none" xmlns="http://www.w3.org/2000/svg">
<path d="M52.9343 0.000191472H42C40.1599 -0.00561146 38.3368 0.352546 36.6356 1.05405C34.9344 1.75556 33.3888 2.78657 32.0876 4.08774C30.7864 5.38891 29.7554 6.93455 29.0539 8.63572C28.3524 10.3369 27.9943 12.16 28.0001 14.0001V24.9344C28.0025 25.7467 28.3263 26.5251 28.9007 27.0995C29.4751 27.6739 30.2534 27.9976 31.0657 28.0001H42C43.8401 28.0059 45.6632 27.6477 47.3644 26.9462C49.0656 26.2447 50.6112 25.2137 51.9124 23.9125C53.2136 22.6113 54.2446 21.0657 54.9461 19.3645C55.6476 17.6634 56.0057 15.8402 55.9999 14.0001V3.06587C55.9975 2.25355 55.6737 1.47519 55.0993 0.900788C54.5249 0.326387 53.7466 0.00261754 52.9343 0.000191472ZM42 24.5256C39.9183 24.5256 37.8833 23.9083 36.1523 22.7518C34.4214 21.5952 33.0724 19.9513 32.2757 18.0281C31.4791 16.1048 31.2706 13.9884 31.6767 11.9467C32.0829 9.90495 33.0853 8.02949 34.5573 6.55747C36.0294 5.08546 37.9048 4.083 39.9466 3.67687C41.9883 3.27074 44.1047 3.47918 46.0279 4.27583C47.9512 5.07248 49.5951 6.42156 50.7516 8.15247C51.9082 9.88338 52.5255 11.9184 52.5255 14.0001C52.5275 15.3829 52.2566 16.7525 51.7284 18.0304C51.2002 19.3084 50.4249 20.4695 49.4471 21.4473C48.4694 22.4251 47.3082 23.2003 46.0303 23.7285C44.7524 24.2568 43.3828 24.5276 42 24.5256Z" fill="#05CD7D"/>
<path d="M42 7.00012C40.6155 7.00012 39.2622 7.41066 38.111 8.17983C36.9599 8.949 36.0627 10.0423 35.5328 11.3213C35.003 12.6004 34.8644 14.0079 35.1345 15.3658C35.4046 16.7236 36.0713 17.9709 37.0503 18.9499C38.0292 19.9288 39.2765 20.5955 40.6344 20.8656C41.9922 21.1357 43.3997 20.9971 44.6788 20.4673C45.9579 19.9375 47.0511 19.0403 47.8203 17.8891C48.5895 16.738 49 15.3846 49 14.0001C48.9981 12.1442 48.26 10.3648 46.9476 9.05248C45.6353 7.74014 43.8559 7.00203 42 7.00012ZM45.6029 15.3384C45.439 15.3449 45.2754 15.3174 45.1226 15.2576C44.9698 15.1978 44.831 15.1071 44.715 14.9911C44.5989 14.875 44.5082 14.7362 44.4484 14.5834C44.3886 14.4306 44.3611 14.267 44.3676 14.1031C44.3623 13.5041 44.1219 12.9312 43.6984 12.5076C43.2748 12.0841 42.7019 11.8437 42.1029 11.8384C41.7753 11.8384 41.4611 11.7082 41.2295 11.4765C40.9978 11.2449 40.8676 10.9307 40.8676 10.6031C40.8676 10.2754 40.9978 9.96124 41.2295 9.72958C41.4611 9.49792 41.7753 9.36777 42.1029 9.36777C43.3544 9.38194 44.5506 9.88539 45.4356 10.7704C46.3206 11.6554 46.8241 12.8516 46.8382 14.1031C46.834 14.4294 46.7025 14.7411 46.4717 14.9718C46.241 15.2026 45.9292 15.3341 45.6029 15.3384Z" fill="#05CD7D"/>
<path d="M83.8322 2.04398C84.1032 2.04398 84.3631 2.15164 84.5548 2.34328C84.7464 2.53492 84.8541 2.79485 84.8541 3.06587V14.0001C84.85 17.1698 83.5891 20.2086 81.3477 22.4499C79.1064 24.6912 76.0677 25.9522 72.8979 25.9563H62.0659C61.7948 25.9563 61.5349 25.8486 61.3433 25.657C61.1516 25.4653 61.044 25.2054 61.044 24.9344V14.0001C61.0373 12.4282 61.3421 10.8705 61.9406 9.41688C62.5391 7.9633 63.4195 6.64263 64.5311 5.53108C65.6426 4.41953 66.9633 3.5391 68.4169 2.94059C69.8705 2.34208 71.4282 2.03735 73.0001 2.04398H83.8322ZM83.8322 0.000191472H73.0001C71.16 -0.00561146 69.3369 0.352546 67.6357 1.05405C65.9346 1.75556 64.3889 2.78657 63.0877 4.08774C61.7866 5.38891 60.7556 6.93455 60.0541 8.63572C59.3525 10.3369 58.9944 12.16 59.0002 14.0001V24.9344C59.0026 25.7467 59.3264 26.5251 59.9008 27.0995C60.4752 27.6739 61.2535 27.9976 62.0659 28.0001H73.0001C74.8402 28.0059 76.6634 27.6477 78.3645 26.9462C80.0657 26.2447 81.6113 25.2137 82.9125 23.9125C84.2137 22.6113 85.2447 21.0657 85.9462 19.3645C86.6477 17.6634 87.0059 15.8402 87.0001 14.0001V3.06587C86.9735 2.24354 86.6281 1.46379 86.0368 0.891622C85.4456 0.319456 84.6549 -0.000236712 83.8322 0.000191472Z" fill="white"/>
<path d="M7.00013 2.00013C7.67657 2.01942 8.34257 2.17185 8.96006 2.44872C9.57754 2.72559 10.1344 3.12146 10.5988 3.61369C11.0631 4.10593 11.4259 4.68488 11.6664 5.31743C11.9068 5.94998 12.0203 6.62372 12.0001 7.30013V14.0001C12.0017 14.5301 12.2129 15.0379 12.5877 15.4126C12.9624 15.7873 13.4702 15.9986 14.0001 16.0001H17.7001C19.046 15.972 20.3503 16.4669 21.3388 17.3808C22.3272 18.2946 22.9228 19.5562 23.0001 20.9001C23.009 22.2346 22.5083 23.5222 21.6001 24.5001C21.1402 24.9905 20.5816 25.3777 19.961 25.6363C19.3405 25.8948 18.6721 26.0189 18.0001 26.0001H3.00013C2.73492 26.0001 2.48056 25.8948 2.29303 25.7072C2.10549 25.5197 2.00013 25.2654 2.00013 25.0001V7.00013C1.99158 6.34429 2.12066 5.69395 2.37903 5.09109C2.6374 4.48822 3.01932 3.94624 3.50013 3.50013C3.94624 3.01932 4.48822 2.6374 5.09109 2.37903C5.69395 2.12066 6.34429 1.99158 7.00013 2.00013ZM7.00013 0.000133728C6.07929 -0.00557568 5.16647 0.171587 4.31461 0.521348C3.46275 0.871109 2.68881 1.38651 2.03766 2.03766C1.38651 2.68881 0.871109 3.46275 0.521348 4.31461C0.171587 5.16647 -0.00557568 6.07929 0.000133728 7.00013V25.0001C0.00250782 25.7951 0.319341 26.5567 0.881436 27.1188C1.44353 27.6809 2.20521 27.9978 3.00013 28.0001H18.0001C18.9287 28.0031 19.8484 27.8207 20.7056 27.4637C21.5628 27.1066 22.3401 26.5822 22.992 25.9209C23.6439 25.2597 24.1573 24.4751 24.5021 23.6129C24.8469 22.7508 25.0162 21.8285 25.0001 20.9001C24.9222 19.0256 24.1156 17.2556 22.7521 15.9668C21.3887 14.6781 19.5761 13.9725 17.7001 14.0001H14.0001V7.30013C14.0278 5.42421 13.3222 3.61157 12.0334 2.24812C10.7447 0.884668 8.97464 0.0781016 7.10013 0.000133728H7.00013Z" fill="white"/>
<path d="M96.3179 2.04388C96.8773 2.03772 97.4323 2.14188 97.9503 2.35025C98.4684 2.55862 98.939 2.867 99.3345 3.25728C99.7301 3.64756 100.043 4.11188 100.254 4.62298C100.465 5.13407 100.571 5.68165 100.564 6.23356V6.74449C100.568 7.13714 100.687 7.52029 100.908 7.847C101.129 8.17372 101.441 8.4298 101.807 8.58386C102.069 8.69956 102.35 8.76875 102.636 8.78824C103.162 8.77441 103.67 8.59543 104.086 8.2773L109.368 3.37231C110.199 2.57439 111.316 2.1335 112.475 2.14606C113.051 2.12066 113.627 2.2169 114.163 2.42836C114.698 2.63982 115.182 2.96163 115.582 3.37231C116.019 3.71114 116.368 4.14684 116.602 4.644C116.836 5.14116 116.948 5.68576 116.929 6.23356C116.935 6.78467 116.828 7.33129 116.614 7.84056C116.4 8.34983 116.085 8.81122 115.686 9.19699L112.268 12.5692C112.071 12.7537 111.915 12.9756 111.808 13.2215C111.701 13.4674 111.646 13.7322 111.646 13.9998C111.646 14.2674 111.701 14.5321 111.808 14.7781C111.915 15.024 112.071 15.2459 112.268 15.4304L115.686 18.8026C116.08 19.1918 116.393 19.6538 116.606 20.1622C116.82 20.6707 116.93 21.2157 116.93 21.766C116.93 22.3164 116.82 22.8614 116.606 23.3698C116.393 23.8783 116.08 24.3403 115.686 24.7295C115.291 25.1186 114.823 25.4273 114.308 25.6379C113.792 25.8486 113.24 25.957 112.682 25.957C112.124 25.957 111.572 25.8486 111.057 25.6379C110.541 25.4273 110.073 25.1186 109.679 24.7295L106.261 21.3573C106.074 21.1635 105.849 21.0092 105.6 20.9038C105.35 20.7984 105.082 20.744 104.811 20.744C104.54 20.744 104.271 20.7984 104.022 20.9038C103.773 21.0092 103.548 21.1635 103.361 21.3573L99.8394 24.7295C98.993 25.5032 97.886 25.9401 96.7322 25.9557C95.5748 25.961 94.4588 25.5306 93.612 24.752C92.7652 23.9735 92.2513 22.9056 92.1751 21.766V6.23356C92.1484 5.68503 92.2364 5.13695 92.4338 4.62347C92.6312 4.11 92.9336 3.64214 93.3223 3.24906C93.711 2.85598 94.1776 2.54611 94.693 2.33876C95.2084 2.13141 95.7615 2.03103 96.3179 2.04388ZM96.3179 0.000129063C95.4868 -0.0051649 94.6628 0.152453 93.8939 0.463837C93.125 0.775221 92.4264 1.23417 91.8386 1.81406C91.2509 2.39394 90.7857 3.08321 90.4701 3.84188C90.1545 4.60054 89.9948 5.41349 90.0001 6.23356V21.766C90.0601 23.4537 90.7874 25.051 92.0263 26.2161C93.2652 27.3812 94.9173 28.0213 96.6287 27.9995C98.364 27.9996 100.033 27.3409 101.289 26.1601L104.811 22.7879L108.229 26.1601C108.81 26.7427 109.504 27.2053 110.268 27.5211C111.033 27.8369 111.853 27.9995 112.682 27.9995C113.511 27.9995 114.332 27.8369 115.096 27.5211C115.861 27.2053 116.554 26.7427 117.136 26.1601C117.726 25.5862 118.195 24.9021 118.515 24.1478C118.835 23.3934 119 22.5838 119 21.766C119 20.9482 118.835 20.1386 118.515 19.3843C118.195 18.6299 117.726 17.9459 117.136 17.372L113.718 13.9998L117.136 10.6276C117.726 10.0537 118.195 9.36967 118.515 8.61532C118.835 7.86096 119 7.05134 119 6.23356C119 5.41577 118.835 4.60615 118.515 3.85179C118.195 3.09744 117.726 2.41341 117.136 1.8395C116.536 1.25218 115.825 0.787387 115.043 0.471751C114.261 0.156116 113.423 -0.00415354 112.579 0.000129063C110.841 -0.00925366 109.169 0.650701 107.918 1.8395L102.636 6.74449V6.23356C102.629 4.58234 101.961 3.00059 100.778 1.83299C99.5947 0.665396 97.9915 0.00658762 96.3179 0.000129063Z" fill="white"/>
</svg>
