<svg width="596" height="294" viewBox="0 0 596 294" fill="none" xmlns="http://www.w3.org/2000/svg">
<path d="M245.652 75.6323C207.3 75.6323 175.618 100.272 165.216 134.344C154.813 100.272 123.132 75.6323 84.7798 75.6323C37.7424 75.6323 0.710938 112.691 0.710938 158.762C0.710938 204.833 37.7424 241.892 84.7798 241.892C119.43 241.892 148.593 221.751 161.575 192.743V237.882H193.6V158.762C193.6 126.714 213.619 103.678 245.644 103.678C277.669 103.678 297.688 126.714 297.688 158.762V237.882H329.713V158.762C329.713 112.691 292.681 75.6323 245.644 75.6323H245.652ZM84.7798 213.846C52.755 213.846 32.7357 190.81 32.7357 158.762C32.7357 126.714 52.755 103.678 84.7798 103.678C116.805 103.678 136.824 126.714 136.824 158.762C136.824 190.81 116.805 213.846 84.7798 213.846Z" fill="white"/>
<path d="M462.425 237.485C395.231 237.485 342.592 185.662 342.592 119.504C342.592 53.3449 393.972 0.880859 462.097 0.880859C530.222 0.880859 580.007 51.5729 580.007 116.296C580.007 147.175 568.719 175.702 549.051 194.553L536.152 206.91H595.439V237.485H462.418H462.425ZM461.135 33.3797C415.083 33.3797 379.005 70.0793 379.005 116.937C379.005 167.133 414.312 204.986 461.135 204.986C484.23 204.986 505.265 196.126 520.361 180.041C535.336 164.078 543.586 141.898 543.586 117.579C543.586 69.5829 508.142 33.3873 461.135 33.3873V33.3797Z" fill="white"/>
<path d="M367.038 281.501C367.038 288.268 361.84 292.462 353.704 292.462H342.592V270.541H353.704C361.84 270.541 367.038 274.734 367.038 281.501ZM363.191 281.501C363.191 276.43 359.184 273.825 353.43 273.825H346.355V289.17H353.43C359.184 289.17 363.191 286.573 363.191 281.494V281.501Z" fill="white"/>
<path d="M389.344 292.462V270.542H393.099V292.462H389.344Z" fill="white"/>
<path d="M441.538 287.543C439.539 290.767 435.181 293.119 429.174 293.119C420.534 293.119 415.375 288.735 415.375 281.502C415.375 274.269 420.542 269.885 429.113 269.885C434.494 269.885 438.188 271.886 440.378 274.238L437.31 276.43C435.371 274.238 432.799 273.177 429.143 273.177C422.977 273.177 419.191 275.995 419.191 281.509C419.191 287.024 423.038 289.842 429.334 289.842C433.181 289.842 436.31 288.842 437.905 286.337V283.831H428.77V280.608H441.538V287.559V287.543Z" fill="white"/>
<path d="M463.805 292.462V270.541H467.56V292.462H463.805Z" fill="white"/>
<path d="M512.338 273.826H502.355V292.462H498.6V273.826H488.678V270.534H512.338V273.826Z" fill="white"/>
<path d="M547.821 287.169H533.77L530.984 292.462H526.916L538.777 270.541H542.906L554.735 292.462H550.637L547.821 287.169ZM546.164 283.976L540.814 273.833L535.464 283.976H546.164Z" fill="white"/>
<path d="M595.45 289.139V292.462H575.545V270.541H579.3V289.147H595.45V289.139Z" fill="white"/>
</svg>
