<?xml version="1.0" encoding="UTF-8"?>
<svg id="Layer_1" xmlns="http://www.w3.org/2000/svg" version="1.1" viewBox="0 0 345.4 78.2">
  <!-- Generator: Adobe Illustrator 29.1.0, SVG Export Plug-In . SVG Version: 2.1.0 Build 142)  -->
  <defs>
    <style>
      .st0 {
        fill: #fff;
      }
    </style>
  </defs>
  <path class="st0" d="M97,25V0h-50.5v12.6H14.9v12.4H0v53.2h111.9V25h-14.9ZM51.4,5h40.5v20h-26.5v-12.4h-14v-7.6ZM19.9,30h26.5v14.9h14v7.6H19.9v-22.6ZM51.4,40v-9.9h9v9.9h-9ZM60.5,25h-9v-7.4h9v7.4ZM65.5,30h26.5v9.9h-26.5v-9.9ZM19.9,17.6h26.5v7.4h-26.5v-7.4ZM106.9,73.2H5V30h9.9v27.6h50.5v-12.6h31.5v-14.9h9.9v43.2Z"/>
  <g>
    <path class="st0" d="M135.7,53c-.4.7-1,1.2-1.8,1.6-.8.4-1.8.6-2.9.6s-2.1-.2-3-.6c-.9-.4-1.6-.9-2.1-1.7-.5-.7-.8-1.6-.9-2.5h3.4c0,.6.3,1.2.8,1.6.4.4,1,.6,1.8.6s1.2-.2,1.5-.5c.4-.4.5-.8.5-1.4s-.1-.9-.4-1.2-.6-.6-1.1-.8c-.4-.2-1-.4-1.8-.7-1-.3-1.8-.7-2.4-1-.6-.3-1.2-.8-1.6-1.4-.4-.6-.7-1.4-.7-2.4s.5-2.5,1.5-3.2c1-.8,2.3-1.2,3.9-1.2s3,.4,4,1.2c1,.8,1.6,1.9,1.7,3.3h-3.4c0-.6-.3-1-.7-1.4-.4-.4-.9-.6-1.6-.6s-1.1.2-1.4.5c-.4.3-.5.8-.5,1.3s.1.9.4,1.2c.3.3.6.6,1.1.8.4.2,1,.4,1.8.7,1,.4,1.9.7,2.5,1,.6.3,1.2.8,1.6,1.4.5.6.7,1.5.7,2.5s-.2,1.6-.6,2.2Z"/>
    <path class="st0" d="M151.3,40.5c1.3,1,2.2,2.4,2.6,4.2h-3.3c-.3-.9-.9-1.5-1.6-2s-1.6-.7-2.6-.7-1.6.2-2.3.6-1.2,1-1.6,1.8c-.4.8-.6,1.7-.6,2.8s.2,2,.6,2.7c.4.8.9,1.4,1.6,1.8.7.4,1.4.6,2.3.6s1.9-.2,2.6-.7,1.3-1.2,1.6-2h3.3c-.4,1.8-1.3,3.2-2.6,4.2-1.3,1-3,1.5-4.9,1.5s-2.9-.3-4-1-2.1-1.6-2.7-2.9c-.6-1.2-1-2.6-1-4.2s.3-3,1-4.2c.6-1.2,1.5-2.2,2.7-2.9,1.2-.7,2.5-1,4-1s3.6.5,4.9,1.5Z"/>
    <path class="st0" d="M164.8,55.1l-3.7-6.2h-1.4v6.2h-3.2v-15.9h6.1c1.9,0,3.3.5,4.2,1.4,1,.9,1.5,2.1,1.5,3.6s-.3,2.2-1,3c-.7.8-1.6,1.4-2.9,1.6l4,6.4h-3.5ZM159.6,46.7h2.6c1.8,0,2.7-.8,2.7-2.4s-.2-1.4-.7-1.8-1.1-.6-2.1-.6h-2.6v4.9Z"/>
    <path class="st0" d="M174.1,41.7v4.1h5.6v2.4h-5.6v4.3h6.3v2.6h-9.5v-15.9h9.5v2.5h-6.3Z"/>
    <path class="st0" d="M186.1,41.7v4.1h5.6v2.4h-5.6v4.3h6.3v2.6h-9.5v-15.9h9.5v2.5h-6.3Z"/>
    <path class="st0" d="M208.5,55.1h-3.2l-7.1-10.8v10.8h-3.2v-15.9h3.2l7.1,10.9v-10.9h3.2v15.9Z"/>
    <path class="st0" d="M220.1,49.2v5.9h-3.2v-15.9h5.8c1.9,0,3.3.5,4.3,1.4,1,.9,1.4,2.1,1.4,3.7s-.5,2.7-1.5,3.6c-1,.9-2.4,1.4-4.2,1.4h-2.6ZM225.2,44.2c0-.8-.2-1.4-.7-1.8-.4-.4-1.2-.6-2.1-.6h-2.3v4.9h2.3c1.9,0,2.8-.8,2.8-2.4Z"/>
    <path class="st0" d="M233.8,39.1v9.4c0,1.2.3,2.2.8,2.8.5.6,1.3.9,2.4.9s1.8-.3,2.4-.9c.5-.6.8-1.6.8-2.8v-9.4h3.2v9.4c0,1.5-.3,2.7-.8,3.7-.5,1-1.3,1.8-2.3,2.3-1,.5-2.1.7-3.3.7-1.9,0-3.4-.6-4.6-1.7-1.1-1.1-1.7-2.8-1.7-5v-9.4h3.2Z"/>
    <path class="st0" d="M257.6,48.2c.6.7.9,1.6.9,2.5s-.4,2.4-1.3,3.2c-.9.8-2.2,1.2-3.9,1.2h-6.8v-15.9h6.7c1.6,0,2.8.4,3.7,1.1.9.7,1.3,1.7,1.3,3s-.3,1.8-.8,2.4-1.2,1-2,1.2c1,.2,1.7.7,2.3,1.4ZM249.6,45.8h2.9c.8,0,1.4-.2,1.8-.5.4-.4.6-.9.6-1.5s-.2-1.2-.6-1.5c-.4-.4-1-.5-1.9-.5h-2.8v4.1ZM254.6,51.9c.5-.4.7-.9.7-1.6s-.2-1.3-.7-1.6c-.5-.4-1.1-.6-2-.6h-3v4.4h3c.8,0,1.5-.2,1.9-.6Z"/>
    <path class="st0" d="M264.1,52.6h5.4v2.4h-8.5v-15.9h3.2v13.5Z"/>
    <path class="st0" d="M274.5,39.1v15.9h-3.2v-15.9h3.2Z"/>
    <path class="st0" d="M287.9,53c-.4.7-1,1.2-1.8,1.6-.8.4-1.8.6-2.9.6s-2.1-.2-3-.6c-.9-.4-1.6-.9-2.1-1.7-.5-.7-.8-1.6-.9-2.5h3.4c0,.6.3,1.2.8,1.6.4.4,1,.6,1.8.6s1.2-.2,1.5-.5c.4-.4.5-.8.5-1.4s-.1-.9-.4-1.2-.6-.6-1.1-.8c-.4-.2-1-.4-1.8-.7-1-.3-1.8-.7-2.4-1-.6-.3-1.2-.8-1.6-1.4-.4-.6-.7-1.4-.7-2.4s.5-2.5,1.5-3.2c1-.8,2.3-1.2,3.9-1.2s3,.4,4,1.2c1,.8,1.6,1.9,1.7,3.3h-3.4c0-.6-.3-1-.7-1.4-.4-.4-.9-.6-1.6-.6s-1.1.2-1.4.5c-.4.3-.5.8-.5,1.3s.1.9.4,1.2c.3.3.6.6,1.1.8.4.2,1,.4,1.8.7,1,.4,1.9.7,2.5,1,.6.3,1.2.8,1.6,1.4.5.6.7,1.5.7,2.5s-.2,1.6-.6,2.2Z"/>
    <path class="st0" d="M304.6,39.1v15.9h-3.2v-6.9h-6.8v6.9h-3.2v-15.9h3.2v6.5h6.8v-6.5h3.2Z"/>
    <path class="st0" d="M310.7,39.1v15.9h-3.2v-15.9h3.2Z"/>
    <path class="st0" d="M327.3,55.1h-3.2l-7.1-10.8v10.8h-3.2v-15.9h3.2l7.1,10.9v-10.9h3.2v15.9Z"/>
    <path class="st0" d="M342.6,40.4c1.3,1,2.1,2.2,2.5,3.9h-3.3c-.3-.7-.8-1.3-1.5-1.7-.7-.4-1.5-.6-2.4-.6s-1.7.2-2.4.6-1.3,1-1.6,1.8c-.4.8-.6,1.7-.6,2.8,0,1.7.4,3,1.3,3.9.9.9,2.1,1.4,3.7,1.4s2.1-.3,2.9-1c.8-.7,1.4-1.6,1.6-2.8h-5.4v-2.3h8.1v3.1c-.2,1.1-.7,2-1.3,2.9s-1.5,1.6-2.6,2.1c-1.1.5-2.3.8-3.6.8s-2.9-.3-4.1-1c-1.2-.7-2.1-1.6-2.8-2.9-.7-1.2-1-2.6-1-4.2s.3-3,1-4.2c.7-1.2,1.6-2.2,2.8-2.9,1.2-.7,2.6-1,4.1-1s3.6.5,4.8,1.4Z"/>
  </g>
</svg>