<svg width="1649" height="371" viewBox="0 0 1649 371" fill="none" xmlns="http://www.w3.org/2000/svg">
<path fill-rule="evenodd" clip-rule="evenodd" d="M59.5202 249.468L10.5041 221.165C7.41476 219.378 4.73276 216.788 2.81727 213.473C0.901774 210.158 0 206.536 0 202.964V144.354C0 132.606 2.96341 120.707 9.25717 109.811C15.5463 98.9152 24.3728 90.3888 34.5348 84.5257L175.538 3.08002C179.039 1.06036 183.02 0 187.068 0C190.974 0 194.935 0.988842 198.558 3.08002L268.578 43.5277C264.947 41.4365 260.993 40.4352 257.083 40.4352C253.041 40.4352 249.062 41.508 245.561 43.5277L104.554 124.961C94.3924 130.824 85.5705 139.35 79.2815 150.246C72.983 161.144 70.0289 173.041 70.0289 184.789V243.404C70.0289 245.82 68.768 248.174 66.5229 249.468C64.2778 250.766 61.6114 250.678 59.5202 249.468ZM262.57 53.9292C260.872 52.9481 259.02 52.4521 257.078 52.4521C255.146 52.4521 253.225 52.9606 251.557 53.9292L198.059 84.8289L257.579 119.2C259.67 120.41 262.336 120.499 264.577 119.2C266.822 117.907 268.078 115.553 268.078 113.137V63.4802C268.078 59.5559 265.97 55.8913 262.57 53.9292ZM219.013 136.958L258.08 159.524C261.027 161.224 263.586 163.69 265.403 166.849C267.227 170.003 268.082 173.45 268.082 176.852V186.147V229.107C268.082 239.115 265.433 248.98 260.433 257.648C255.437 266.313 248.221 273.536 239.558 278.54L98.5379 359.973C96.8681 360.942 94.9573 361.45 93.0169 361.45C91.0796 361.45 89.2326 360.954 87.5239 359.973C84.136 358.012 82.0277 354.36 82.0277 350.438V300.195C82.0277 296.79 81.1679 293.346 79.3457 290.187L169.529 238.103C178.2 233.1 185.418 225.875 190.418 217.211C192.187 214.139 193.661 210.925 194.833 207.604C196.962 201.541 198.063 195.126 198.063 188.67V136.992C198.063 134.576 199.32 132.222 201.564 130.929C203.811 129.635 206.472 129.719 208.568 130.929L219.013 136.958ZM70.0305 307.136V350.446C70.0305 358.398 74.1528 366.117 81.5142 370.37L11.5054 329.941C4.13261 325.677 0 317.951 0 310.001V267.274C0 264.86 1.26093 262.504 3.50137 261.207C5.74647 259.912 8.41448 260.001 10.5041 261.207L60.0208 289.803C62.964 291.502 65.5232 293.968 67.3454 297.128C69.1707 300.287 70.0305 303.734 70.0305 307.136Z" fill="url(#paint0_linear_3049_10715)"/>
<path d="M410.955 193L448.622 193.667C450.622 221 472.288 239.333 504.955 239.333C532.622 239.333 552.622 227 552.622 204.667C552.622 180 528.288 174.667 491.288 168C452.622 161.333 415.955 149 415.955 102.667C415.955 62.3333 449.955 34 498.955 34C549.955 34 584.955 64.3333 586.955 106.333H549.288C546.622 82.6667 526.955 66.3333 498.955 66.3333C472.622 66.3333 454.288 78 454.288 100C454.288 124 478.288 129 514.955 135.333C553.622 142.333 591.288 154.667 590.955 200.667C590.955 242 554.955 271.667 504.622 271.667C448.288 271.667 411.955 239 410.955 193Z" fill="white"/>
<path d="M769.107 208.333C762.441 247.333 734.107 271.667 690.441 271.667C639.107 271.667 605.441 236.667 605.441 184C605.441 131.667 639.441 97 691.441 97C734.441 97 762.441 121.333 769.107 159.667H732.107C727.441 140.333 712.107 127.667 690.441 127.667C661.441 127.667 642.441 150.667 642.441 184C642.441 217.667 661.441 241 690.441 241C712.774 241 728.107 228.333 732.441 208.333H769.107Z" fill="white"/>
<path d="M875.046 99H883.046V132.667H867.046C835.046 132.667 824.713 157.667 824.713 184V269.667H788.713V99H820.713L824.713 124.667C833.379 110.333 847.046 99 875.046 99Z" fill="white"/>
<path d="M882.169 184.667C882.169 131.667 915.836 97 965.169 97C1014.5 97 1048.5 128.333 1049.5 178.333C1049.5 182.667 1049.17 187.333 1048.5 192H919.836V194C921.503 223.333 939.17 242.333 967.503 242.333C989.503 242.333 1005.5 231.333 1010.5 212.333H1046.5C1040.5 246 1012.17 271.667 970.169 271.667C916.169 271.667 882.169 237 882.169 184.667ZM921.169 165.667H1012.84C1009.84 140.333 991.503 126 966.503 126C943.503 126 923.836 141.333 921.169 165.667Z" fill="white"/>
<path d="M1063.01 184.667C1063.01 131.667 1096.68 97 1146.01 97C1195.35 97 1229.35 128.333 1230.35 178.333C1230.35 182.667 1230.01 187.333 1229.35 192H1100.68V194C1102.35 223.333 1120.01 242.333 1148.35 242.333C1170.35 242.333 1186.35 231.333 1191.35 212.333H1227.35C1221.35 246 1193.01 271.667 1151.01 271.667C1097.01 271.667 1063.01 237 1063.01 184.667ZM1102.01 165.667H1193.68C1190.68 140.333 1172.35 126 1147.35 126C1124.35 126 1104.68 141.333 1102.01 165.667Z" fill="white"/>
<path d="M1340.19 97C1376.86 97 1408.86 116.667 1408.86 175.667V269.667H1372.53V177.667C1372.53 145.333 1358.86 128 1331.86 128C1303.19 128 1286.19 149 1286.19 183.667V269.667H1250.19V99H1281.53L1285.53 121.333C1296.19 108 1312.53 97 1340.19 97Z" fill="white"/>
<path d="M1432.34 36.3333H1468.34V269.667H1432.34V36.3333Z" fill="white"/>
<path d="M1477.37 99H1515.7L1563.37 230.667L1609.7 99H1648.04L1570.7 296.333C1560.04 324 1552.7 336.333 1527.7 336.333H1489.04V304.667H1514.37C1528.37 304.667 1531.37 301.333 1537.04 287.333L1544.04 271L1477.37 99Z" fill="white"/>
<defs>
<linearGradient id="paint0_linear_3049_10715" x1="96.4125" y1="93.5882" x2="267.744" y2="117.593" gradientUnits="userSpaceOnUse">
<stop stop-color="#972EFF"/>
<stop offset="1" stop-color="#3153FC"/>
</linearGradient>
</defs>
</svg>
