<svg width="370" height="66" viewBox="0 0 370 66" fill="none" xmlns="http://www.w3.org/2000/svg">
<path d="M103.94 25.4093H96.2324C96.2324 21.7873 94.0165 19.7046 89.8736 19.7046C86.5016 19.7046 84.2856 21.244 84.2856 23.5077C84.2856 26.1337 86.5016 27.0392 92.2822 28.3974C99.2191 30.0273 105.192 31.6572 105.192 39.1728C105.192 45.6924 99.4118 50.0388 90.8371 50.0388C81.6843 50.0388 76 45.783 76 37.9957H83.8039C83.8039 42.161 86.2125 44.3342 90.9334 44.3342C94.7872 44.3342 97.2922 42.6137 97.2922 39.8972C97.2922 36.8185 94.8835 36.2752 89.6809 35.0075C82.7441 33.3776 76.4817 31.8383 76.4817 24.2321C76.4817 18.1653 81.9734 14 89.97 14C99.2191 14.0905 103.94 17.9842 103.94 25.4093Z" fill="white"/>
<path d="M133.518 33.8304H126.003C125.714 30.9329 123.883 29.1219 121.089 29.1219C117.621 29.1219 115.501 32.11 115.501 36.9997C115.501 41.7988 117.621 44.8775 121.089 44.8775C123.883 44.8775 125.714 42.8854 125.906 39.7162H133.518C132.94 45.9641 128.219 50.1294 121.186 50.1294C113.189 50.1294 107.986 44.9681 107.986 37.0902C107.986 29.1219 113.189 24.0511 121.186 24.0511C128.219 23.9605 132.94 28.1258 133.518 33.8304Z" fill="white"/>
<path d="M153.75 24.5944V30.4802C152.883 30.2991 152.209 30.2085 151.438 30.2085C147.006 30.2085 144.597 32.8345 144.597 37.6336V49.224H137.372V24.685H144.019V28.1259H144.116C145.85 25.4999 148.162 24.2322 151.245 24.2322C152.112 24.3228 153.076 24.4133 153.75 24.5944Z" fill="white"/>
<path d="M173.404 41.8894H180.727C179.667 46.4169 175.139 50.1294 168.202 50.1294C160.013 50.1294 155.195 44.6964 155.195 36.9092C155.195 29.6652 160.013 24.0511 168.202 24.0511C174.272 24.0511 178.607 27.2203 180.341 32.2006C180.919 33.921 181.208 35.8226 181.208 38.4485H162.421C162.614 43.5193 165.215 45.3303 168.298 45.3303C171.189 45.2397 173.019 43.7909 173.404 41.8894ZM162.518 34.1927H173.983C173.501 30.4801 171.189 28.7597 168.298 28.7597C165.312 28.7597 163.096 30.3896 162.518 34.1927Z" fill="white"/>
<path d="M202.019 41.8894H209.341C208.281 46.4169 203.753 50.1294 196.816 50.1294C188.627 50.1294 183.81 44.6964 183.81 36.9092C183.81 29.6652 188.627 24.0511 196.816 24.0511C202.886 24.0511 207.221 27.2203 208.956 32.2006C209.534 33.921 209.823 35.8226 209.823 38.4485H191.035C191.228 43.5193 193.829 45.3303 196.912 45.3303C199.803 45.2397 201.633 43.7909 202.019 41.8894ZM191.132 34.1927H202.597C202.115 30.4801 199.803 28.7597 196.912 28.7597C193.926 28.7597 191.71 30.3896 191.132 34.1927Z" fill="white"/>
<path d="M238.052 34.1927V49.3145H230.826V34.9171C230.826 31.2045 229.092 29.4841 226.201 29.4841C223.215 29.4841 221.095 31.7478 221.095 36.1848V49.3145H213.869V24.6849H220.613V27.7636H220.71C222.444 25.5904 225.045 24.0511 228.417 24.0511C234.294 24.1416 238.052 27.492 238.052 34.1927Z" fill="white"/>
<path d="M250.769 27.6729C252.407 25.3186 255.201 24.0509 258.188 24.0509C264.739 24.0509 268.979 29.1217 268.979 36.9995C268.979 44.8773 264.739 49.9481 258.092 49.9481C255.009 49.9481 252.215 48.5899 250.577 46.0545H250.48V49.3143H243.447V14.9054H250.673V27.7634H250.769V27.6729ZM250.384 36.9995C250.384 41.8892 252.6 44.6962 255.876 44.6962C259.344 44.6962 261.56 41.6175 261.56 36.9995C261.56 32.2909 259.344 29.3028 255.876 29.3028C252.6 29.3028 250.384 32.1098 250.384 36.9995Z" fill="white"/>
<path d="M289.982 41.8894H297.304C296.244 46.4169 291.716 50.1294 284.779 50.1294C276.59 50.1294 271.772 44.6964 271.772 36.9092C271.772 29.6652 276.59 24.0511 284.779 24.0511C290.849 24.0511 295.184 27.2203 296.918 32.2006C297.496 33.921 297.786 35.8226 297.786 38.4485H278.998C279.191 43.5193 281.792 45.3303 284.875 45.3303C287.766 45.2397 289.596 43.7909 289.982 41.8894ZM279.095 34.1927H290.56C290.078 30.4801 287.766 28.7597 284.875 28.7597C281.889 28.7597 279.673 30.3896 279.095 34.1927Z" fill="white"/>
<path d="M318.114 24.5944V30.4802C317.247 30.2991 316.572 30.2085 315.802 30.2085C311.37 30.2085 308.961 32.8345 308.961 37.6336V49.224H301.735V24.685H308.383V28.1259H308.479C310.214 25.4999 312.526 24.2322 315.609 24.2322C316.476 24.3228 317.44 24.4133 318.114 24.5944Z" fill="white"/>
<path d="M337.19 24.5944V30.4802C336.323 30.2991 335.649 30.2085 334.878 30.2085C330.446 30.2085 328.037 32.8345 328.037 37.6336V49.224H320.812V24.685H327.459V28.1259H327.556C329.29 25.4999 331.602 24.2322 334.685 24.2322C335.552 24.3228 336.516 24.4133 337.19 24.5944Z" fill="white"/>
<path d="M355.689 49.405C353.087 56.2868 349.812 58.46 343.26 58.46C342.008 58.46 340.563 58.2789 339.503 58.0978V52.6648C340.177 52.9365 341.237 53.027 342.297 53.027C345.187 53.027 347.114 51.4877 347.114 49.0428C347.114 48.1373 346.921 47.3224 345.862 44.6059L338.347 24.6849H346.054L348.752 32.925C349.812 36.2753 350.775 39.8067 351.642 43.2476H351.739C352.606 39.8067 353.569 36.3659 354.822 32.925L357.616 24.6849H365.034L355.689 49.405Z" fill="white"/>
<path d="M0 55L32 66L64 55L31.9999 44L0 55Z" fill="url(#paint0_linear_234_765)"/>
<path d="M0 33L31.9999 44L64 33L31.9999 22L0 33Z" fill="url(#paint1_linear_234_765)"/>
<path d="M0 11L31.9999 22L64 11L31.9999 0L0 11Z" fill="url(#paint2_linear_234_765)"/>
<path d="M31.9999 44L64 55V33L31.9999 44Z" fill="url(#paint3_linear_234_765)"/>
<path d="M31.9999 22L0 33V11L31.9999 22Z" fill="url(#paint4_linear_234_765)"/>
<defs>
<linearGradient id="paint0_linear_234_765" x1="0.000438689" y1="33.016" x2="63.9675" y2="33.016" gradientUnits="userSpaceOnUse">
<stop stop-color="#0AA7FF"/>
<stop offset="1" stop-color="#003498"/>
</linearGradient>
<linearGradient id="paint1_linear_234_765" x1="0.000438691" y1="33.043" x2="63.9677" y2="33.043" gradientUnits="userSpaceOnUse">
<stop stop-color="#FF9400"/>
<stop offset="0.3696" stop-color="#FA602F"/>
<stop offset="1" stop-color="#F10085"/>
</linearGradient>
<linearGradient id="paint2_linear_234_765" x1="0.000438691" y1="33.098" x2="63.9677" y2="33.098" gradientUnits="userSpaceOnUse">
<stop stop-color="#FFFF00"/>
<stop offset="0.8426" stop-color="#9DCB3B"/>
<stop offset="1" stop-color="#9DCB3B"/>
</linearGradient>
<linearGradient id="paint3_linear_234_765" x1="21.782" y1="63.9609" x2="80.0733" y2="22.8117" gradientUnits="userSpaceOnUse">
<stop stop-color="#19A7FF"/>
<stop offset="0.2877" stop-color="#297FE3"/>
<stop offset="1" stop-color="#511FA1"/>
</linearGradient>
<linearGradient id="paint4_linear_234_765" x1="32.7446" y1="11.6865" x2="12.1571" y2="33.46" gradientUnits="userSpaceOnUse">
<stop stop-color="#FF9400"/>
<stop offset="0.2046" stop-color="#FFA403"/>
<stop offset="0.6048" stop-color="#FFCF0C"/>
<stop offset="1" stop-color="#FFFF16"/>
</linearGradient>
</defs>
</svg>
