<?xml version="1.0" encoding="UTF-8"?><svg id="a" xmlns="http://www.w3.org/2000/svg" viewBox="0 0 174 44"><path d="M119.7,24.9h-4.4l-5.1-7.4,4-3.6,2.3,2.8-1.6,1.3,4.8,6.9Zm-2.5-13.6l-1.9,1.6,4,5,1.9-1.6-4-5Zm27.8,6.7c0,2.8-1.1,7.1-6.7,7.1-4.7,0-6.6-3.5-6.6-7.1,0-2.8,1.1-7.1,6.7-7.1,4.7,0,6.6,3.5,6.6,7.1Zm-3.8,0c0-2.9-1-4.1-2.8-4.1-1.9,0-2.8,1.2-2.8,4.1s1,4.1,2.8,4.1,2.8-1.2,2.8-4.1Zm12-1.5c-.8-.3-1.6-.7-2.3-1.1-.8-.5-1-1.8,1.1-1.8,.6,0,1.2,.1,1.8,.3,.6,.2,1.2,.4,1.9,.7l1.2-2.6c-4.4-2-10.3-1.2-10.3,2.7-.1,1.2,.4,2.4,1.4,3.1,1.3,.8,2.7,1.5,4.1,2,2,1.1,1.4,2.5-.8,2.5-1.6-.1-3.2-.5-4.6-1.1v3.1c1.4,.6,3,.8,4.5,.8,5.6,0,5.8-3.2,5.8-4.3,0-2.1-1.5-3.3-3.8-4.3Zm9.6-9.5h-3.7V24.9h3.7V7Zm.5,9.9l5.5,8h4.3l-5.6-7.7,5.2-5.9h-4.1l-5.3,5.6Zm-98.3-3.6c-1.8-1.3-1.3-4.3,3.1-3.2,.8,.2,1.6,.5,2.4,.8l1.2-3c-1.7-.8-3.5-1.2-5.3-1.3-3.4,0-6.1,1.6-6.1,5.1,0,3.2,2.5,4.5,4.3,5.3,1.9,.9,2.7,1.3,3.2,2,.4,.8,.7,3-2.4,3-1.9-.1-3.7-.6-5.4-1.5v3.5c1.6,.7,3.3,1.1,5.1,1.1,5,0,6.6-2.7,6.6-5.2,0-4.4-4.5-5.1-6.7-6.6Zm13-.9h-3.7v12.4h3.7V12.4Zm6.8,8.2v-6.6h2.8v-2.6h-2.8v-3.8l-3.7,1.7v11.3c0,3.7,2,4.5,4.3,4.5,1.2,0,2.3-.2,3.4-.6v-2.8c-.8,.3-1.5,.4-2.3,.4-.8,.1-1.5-.5-1.6-1.3-.1,0-.1-.1-.1-.2h0Zm17.9-1.6h-8.8c-.1,1.8,1.2,3.3,3,3.4h.4c1.6,0,3.2-.4,4.6-1.1v2.9c-1.5,.7-3.2,1-4.8,1-2.1,0-7-.7-7-7,0-3.5,1.6-7.2,6.5-7.2,5.5,0,6.1,4.4,6.1,6.2v1.8Zm-3.5-2.5c0-2.5-1.8-2.9-2.6-2.9-.6,0-2.4,.1-2.6,2.9h5.2Zm-23.1-9.6c-1.1,0-2.1,.9-2.1,2.1s1,2,2.1,2,2.1-.9,2.1-2.1-.9-2-2.1-2h0Zm33.1,.1h-3.8V24.9h3.8V7Z" fill="#fff"/><path d="M129.7,8.9c0,1.2-.9,2.1-2.1,2.1-1.1,0-2-.9-2-2.1s.9-2.1,2.1-2.1c1.1,.1,2,1,2,2.1Zm-9.7,3.5l2.7,3.2h3.1v9.2h3.7V12.4h-9.5Z" fill="#e37225"/><path d="M91.9,35.7v.8c-.3,.1-.6,.2-.9,.2h0c-1.1,0-1.6-.6-1.6-1.7v-3h-.8v-.6l.8-.3,.3-1.2h.6v1.2h1.5v.8h-1.5v3c0,.9,.7,1,1.6,.8Zm-27.4,0h0l-.1,.2c-.7,.7-1.8,1-2.7,.6-.2-.1-.4-.2-.6-.4v2.9h-1v-7.8h.8l.1,.6c.2-.2,.4-.4,.6-.5,.9-.4,2-.2,2.7,.5,.8,1.1,.9,2.7,.2,3.9Zm-3.4-1.9c-.2,2.1,1.7,2.5,2.5,1.5,.7-1.2,.6-3.4-1.1-3.4-1.1,0-1.5,.9-1.4,1.9Zm104.3,0c0,.7-.2,2.8-2.5,2.8-1.5,0-2.5-1.1-2.5-2.8,0-1.8,.9-2.8,2.5-2.8,1.5,0,2.5,1.1,2.5,2.8Zm-2.5-1.9c-1.1,0-1.5,.8-1.5,1.9,0,1.3,.5,2,1.5,2,1.2,0,1.5-1.1,1.5-2,0-1.3-.5-1.9-1.5-1.9Zm-76.1,0h0c.2,0,.6,0,1.2,.3l.3-.9c-.8-.3-1.3-.3-1.4-.3-.7,0-2.6,.2-2.6,2.9,0,.8,.2,2.8,2.5,2.8,.3,0,.8,0,1.4-.3v-.9c-.8,.3-1.2,.3-1.5,.3-1.2,0-1.5-1-1.5-1.9,.1-1.2,.5-2,1.6-2Zm-3.3,1.6v.6h-3.6c0,.8,.4,1.7,1.6,1.7,.6,0,1.1-.1,1.6-.3l.1-.1v.9c-.2,.1-.9,.4-1.9,.4-.8,0-1.5-.3-2-.9-.4-.5-.6-1.2-.6-1.9,0-1.7,.9-2.9,2.4-2.9,1.3-.1,2.6,1,2.4,2.5Zm-1-.3c0-.3-.1-.8-.4-1.1-.2-.2-.5-.3-.8-.3h0c-1,0-1.3,.9-1.3,1.4h2.5Zm-5.7,1.7v-3h1.5v-.8h-1.5v-1.2h-.6l-.3,1.1-.8,.3v.6h.8v3c0,1.1,.5,1.7,1.6,1.7h0c.3,0,.6-.1,.9-.2h.1v-.8h-.1c-.3,.1-1.6,.5-1.6-.7Zm-8.3-3.9c-.6,0-1.2,.4-1.6,.9l-.1-.8h-.8v5.5h1v-2.9c0-1,.6-1.7,1.5-1.8,.3,0,.6,.1,.7,.1l.1-.9c-.1-.1-.2-.1-.8-.1Zm104,.1s-1,4-1.1,4.1c-.5-2.1-1-3.5-1.2-4.1h-1c-1.1,3.4-1.1,3.5-1.3,4.1-.1-.3-.1-.7-.2-1l-.8-3.1h-1.1l1.5,5.5h1.1s.9-2.8,1.3-4.1c.2,.7,1.3,4.1,1.3,4.1h1.1l1.5-5.5h-1.1Zm-97.8,2.7c0,.7-.2,2.8-2.5,2.8-1.5,0-2.5-1.1-2.5-2.8,0-1.8,.9-2.8,2.5-2.8,1.5,0,2.5,1.1,2.5,2.8Zm-2.5-1.9h-.1c-.9,0-1.4,.7-1.4,1.9,0,1.3,.5,2,1.5,2,1.2,0,1.5-1.1,1.5-2,0-1.3-.5-1.9-1.5-1.9Zm37.4-.9c-.7,0-1.3,.3-1.7,.8-.5-.9-1.3-.8-1.8-.8-.6,0-1.1,.3-1.5,.7v-.6h-.8v5.5h1v-2.9c0-.9,.2-1.8,1.4-1.8,.8-.1,1,.6,1,1.2v3.5h1v-3c0-1.1,.4-1.6,1.4-1.6,.9,0,1,.7,1,1.2v3.5h1v-3.7c-.2-.5-.2-2-2-2Zm41.5,2c-.5-.2-.8-1.1,.6-1.1,.8,0,1.3,.3,1.5,.4l.4-.8c-.2-.1-.8-.4-1.8-.4-.9-.1-2.1,.4-2.1,1.5,0,.5,.2,.9,.7,1.2,.6,.4,1.6,.6,2.1,1,.4,.3,.4,1.2-1,1.1-.9,0-1.6-.4-1.8-.5v1c.7,.4,1.2,.4,1.9,.4,.5,0,1-.1,1.4-.4,.7-.5,.8-1.4,.3-2.1,0-.4-1.1-1-2.2-1.3Zm-23.1-.2v3.7h-.8l-.1-.6c-.6,.8-1.4,.8-1.9,.8-1,0-1.6-.8-1.6-1.7,0-1.1,.9-1.7,2.7-1.8h.8c0-.8-.1-1.3-1-1.3-.2,0-.8,0-1.5,.4l-.3-.8c.2-.1,.9-.5,1.9-.5,1.6,0,1.8,1,1.8,1.8Zm-2.3,3c.8,0,1.3-.7,1.3-1.4v-.4c-.9,0-1.4,0-2,.3-.3,.1-.4,.4-.4,.7,0,.5,.3,.8,1.1,.8Zm-28.6-5.5v6.7h.8v-6.8h-.8v.1Zm34.8,.8h1.9v.7l-.9,.1c.2,.3,.3,.6,.3,1,0,1.5-1.4,2-2.5,1.8-.5,.3-.5,.7-.3,.8,.5,.1,1,.2,1.5,.1h0c1.6,0,1.9,.9,1.9,1.5,0,.7-.4,1.9-2.9,1.9-2,0-2.3-1.1-2.3-1.6,0-.6,.4-1.2,1-1.4-.1-.1-.8-.9,.2-1.6-.5-.3-.9-.9-.8-1.5,0-1.1,.9-2.1,2.1-1.9,.3,0,.6,0,.8,.1Zm-2,5.6c-.2,.2-.2,.5-.2,.6,0,.6,.7,.8,1.3,.8,1.2,0,1.9-.4,1.9-1,0-.5-.2-.7-1.2-.7-1.1,0-1.5,0-1.8,.3Zm2.3-4.1c-.1-.8-.9-.9-1.3-.8-.1,0-1,.2-.9,1.3,.1,.9,1.2,.9,1.3,.9,1.1-.2,.9-1.3,.9-1.4Zm11.9,4.4h.8v-6.8h-.8v6.8Zm-5.1-3.5v.6h-3.6c0,.8,.4,1.7,1.6,1.7,.9,0,1.6-.3,1.8-.4v.9c-.7,.3-1.2,.4-1.9,.4-1.9,0-2.7-1.7-2.6-2.8,0-1.7,.9-2.9,2.4-2.9,1.3,0,2.3,.9,2.3,2.5Zm-1.1-.3c0-.6-.3-1.4-1.2-1.4-1,0-1.3,.9-1.3,1.4h2.5Zm-21.1-.4v3.7h-.8l-.1-.6c-.6,.8-1.4,.8-1.9,.8-1,0-1.6-.8-1.6-1.7,0-1.1,.9-1.7,2.7-1.8h.8c0-.8-.1-1.3-1-1.3-.8,0-1.4,.4-1.5,.4l-.3-.8c.2-.1,.9-.5,1.9-.5,1.6,0,1.8,1,1.8,1.8Zm-1,1.2h-.7c-1.5,.1-1.7,.5-1.7,1-.1,.9,1.3,1,2,.4,.4-.4,.4-.9,.4-1.4Zm5.4-3c-1.4-.2-2,.5-2.2,.7l-.1-.6h-.8v5.5h1v-2.9c0-.3,0-1.9,1.5-1.8,.8,0,1.1,.4,1.1,1.2v3.5h1v-3.5c0-1-.6-2-1.5-2.1Zm36.6,0c-.2,0-1.4-.1-2.1,.7v-2.8h-1v7.7h1v-2.9c0-.5,.1-1,.4-1.4s2.3-1,2.3,.8v3.5h1v-3.5c.1-1.1-.6-2-1.6-2.1Z" fill="#fff"/><path d="M91.9,35.7v.8c-.3,.1-.6,.2-.9,.2h0c-1.1,0-1.6-.6-1.6-1.7v-3h-.8v-.6l.8-.3,.3-1.2h.6v1.2h1.5v.8h-1.5v3c0,.9,.7,1,1.6,.8Zm-27.4,0h0l-.1,.2c-.7,.7-1.8,1-2.7,.6-.2-.1-.4-.2-.6-.4v2.9h-1v-7.8h.8l.1,.6c.2-.2,.4-.4,.6-.5,.9-.4,2-.2,2.7,.5,.8,1.1,.9,2.7,.2,3.9Zm-3.4-1.9c-.2,2.1,1.7,2.5,2.5,1.5,.7-1.2,.6-3.4-1.1-3.4-1.1,0-1.5,.9-1.4,1.9Zm104.3,0c0,.7-.2,2.8-2.5,2.8-1.5,0-2.5-1.1-2.5-2.8,0-1.8,.9-2.8,2.5-2.8,1.5,0,2.5,1.1,2.5,2.8Zm-2.5-1.9c-1.1,0-1.5,.8-1.5,1.9,0,1.3,.5,2,1.5,2,1.2,0,1.5-1.1,1.5-2,0-1.3-.5-1.9-1.5-1.9Zm-76.1,0h0c.2,0,.6,0,1.2,.3l.3-.9c-.8-.3-1.3-.3-1.4-.3-.7,0-2.6,.2-2.6,2.9,0,.8,.2,2.8,2.5,2.8,.3,0,.8,0,1.4-.3v-.9c-.8,.3-1.2,.3-1.5,.3-1.2,0-1.5-1-1.5-1.9,.1-1.2,.5-2,1.6-2Zm-3.3,1.6v.6h-3.6c0,.8,.4,1.7,1.6,1.7,.6,0,1.1-.1,1.6-.3l.1-.1v.9c-.2,.1-.9,.4-1.9,.4-.8,0-1.5-.3-2-.9-.4-.5-.6-1.2-.6-1.9,0-1.7,.9-2.9,2.4-2.9,1.3-.1,2.6,1,2.4,2.5Zm-1-.3c0-.3-.1-.8-.4-1.1-.2-.2-.5-.3-.8-.3h0c-1,0-1.3,.9-1.3,1.4h2.5Zm-5.7,1.7v-3h1.5v-.8h-1.5v-1.2h-.6l-.3,1.1-.8,.3v.6h.8v3c0,1.1,.5,1.7,1.6,1.7h0c.3,0,.6-.1,.9-.2h.1v-.8h-.1c-.3,.1-1.6,.5-1.6-.7Zm-8.3-3.9c-.6,0-1.2,.4-1.6,.9l-.1-.8h-.8v5.5h1v-2.9c0-1,.6-1.7,1.5-1.8,.3,0,.6,.1,.7,.1l.1-.9c-.1-.1-.2-.1-.8-.1Zm104,.1s-1,4-1.1,4.1c-.5-2.1-1-3.5-1.2-4.1h-1c-1.1,3.4-1.1,3.5-1.3,4.1-.1-.3-.1-.7-.2-1l-.8-3.1h-1.1l1.5,5.5h1.1s.9-2.8,1.3-4.1c.2,.7,1.3,4.1,1.3,4.1h1.1l1.5-5.5h-1.1Zm-97.8,2.7c0,.7-.2,2.8-2.5,2.8-1.5,0-2.5-1.1-2.5-2.8,0-1.8,.9-2.8,2.5-2.8,1.5,0,2.5,1.1,2.5,2.8Zm-2.5-1.9h-.1c-.9,0-1.4,.7-1.4,1.9,0,1.3,.5,2,1.5,2,1.2,0,1.5-1.1,1.5-2,0-1.3-.5-1.9-1.5-1.9Zm37.4-.9c-.7,0-1.3,.3-1.7,.8-.5-.9-1.3-.8-1.8-.8-.6,0-1.1,.3-1.5,.7v-.6h-.8v5.5h1v-2.9c0-.9,.2-1.8,1.4-1.8,.8-.1,1,.6,1,1.2v3.5h1v-3c0-1.1,.4-1.6,1.4-1.6,.9,0,1,.7,1,1.2v3.5h1v-3.7c-.2-.5-.2-2-2-2Zm41.5,2c-.5-.2-.8-1.1,.6-1.1,.8,0,1.3,.3,1.5,.4l.4-.8c-.2-.1-.8-.4-1.8-.4-.9-.1-2.1,.4-2.1,1.5,0,.5,.2,.9,.7,1.2,.6,.4,1.6,.6,2.1,1,.4,.3,.4,1.2-1,1.1-.9,0-1.6-.4-1.8-.5v1c.7,.4,1.2,.4,1.9,.4,.5,0,1-.1,1.4-.4,.7-.5,.8-1.4,.3-2.1,0-.4-1.1-1-2.2-1.3Zm-23.1-.2v3.7h-.8l-.1-.6c-.6,.8-1.4,.8-1.9,.8-1,0-1.6-.8-1.6-1.7,0-1.1,.9-1.7,2.7-1.8h.8c0-.8-.1-1.3-1-1.3-.2,0-.8,0-1.5,.4l-.3-.8c.2-.1,.9-.5,1.9-.5,1.6,0,1.8,1,1.8,1.8Zm-2.3,3c.8,0,1.3-.7,1.3-1.4v-.4c-.9,0-1.4,0-2,.3-.3,.1-.4,.4-.4,.7,0,.5,.3,.8,1.1,.8Zm-28.6-5.5v6.7h.8v-6.8h-.8v.1Zm34.8,.8h1.9v.7l-.9,.1c.2,.3,.3,.6,.3,1,0,1.5-1.4,2-2.5,1.8-.5,.3-.5,.7-.3,.8,.5,.1,1,.2,1.5,.1h0c1.6,0,1.9,.9,1.9,1.5,0,.7-.4,1.9-2.9,1.9-2,0-2.3-1.1-2.3-1.6,0-.6,.4-1.2,1-1.4-.1-.1-.8-.9,.2-1.6-.5-.3-.9-.9-.8-1.5,0-1.1,.9-2.1,2.1-1.9,.3,0,.6,0,.8,.1Zm-2,5.6c-.2,.2-.2,.5-.2,.6,0,.6,.7,.8,1.3,.8,1.2,0,1.9-.4,1.9-1,0-.5-.2-.7-1.2-.7-1.1,0-1.5,0-1.8,.3Zm2.3-4.1c-.1-.8-.9-.9-1.3-.8-.1,0-1,.2-.9,1.3,.1,.9,1.2,.9,1.3,.9,1.1-.2,.9-1.3,.9-1.4Zm11.9,4.4h.8v-6.8h-.8v6.8Zm-5.1-3.5v.6h-3.6c0,.8,.4,1.7,1.6,1.7,.9,0,1.6-.3,1.8-.4v.9c-.7,.3-1.2,.4-1.9,.4-1.9,0-2.7-1.7-2.6-2.8,0-1.7,.9-2.9,2.4-2.9,1.3,0,2.3,.9,2.3,2.5Zm-1.1-.3c0-.6-.3-1.4-1.2-1.4-1,0-1.3,.9-1.3,1.4h2.5Zm-21.1-.4v3.7h-.8l-.1-.6c-.6,.8-1.4,.8-1.9,.8-1,0-1.6-.8-1.6-1.7,0-1.1,.9-1.7,2.7-1.8h.8c0-.8-.1-1.3-1-1.3-.8,0-1.4,.4-1.5,.4l-.3-.8c.2-.1,.9-.5,1.9-.5,1.6,0,1.8,1,1.8,1.8Zm-1,1.2h-.7c-1.5,.1-1.7,.5-1.7,1-.1,.9,1.3,1,2,.4,.4-.4,.4-.9,.4-1.4Zm5.4-3c-1.4-.2-2,.5-2.2,.7l-.1-.6h-.8v5.5h1v-2.9c0-.3,0-1.9,1.5-1.8,.8,0,1.1,.4,1.1,1.2v3.5h1v-3.5c0-1-.6-2-1.5-2.1Zm36.6,0c-.2,0-1.4-.1-2.1,.7v-2.8h-1v7.7h1v-2.9c0-.5,.1-1,.4-1.4s2.3-1,2.3,.8v3.5h1v-3.5c.1-1.1-.6-2-1.6-2.1Z" fill="#fff" opacity=".6"/><path d="M38.844,0H5.156C2.309,0,0,2.309,0,5.156V38.844c0,2.848,2.309,5.156,5.156,5.156H38.844c2.848,0,5.156-2.309,5.156-5.156V5.156c0-2.848-2.309-5.156-5.156-5.156ZM14.111,35.278l-7.74-11.203,6.134-5.475,3.463,4.233-2.464,2.105,7.325,10.339h-6.717Zm6.201-10.633l-6.108-7.517,2.861-2.416,6.108,7.517-2.861,2.416Zm15.364,10.633h-5.658v-13.917h-4.626l-4.049-4.924h14.334v18.841Zm-2.829-21.046c-1.723,0-3.119-1.396-3.119-3.119s1.396-3.119,3.119-3.119,3.119,1.396,3.119,3.119-1.396,3.119-3.119,3.119Z" fill="#fff"/></svg>