<svg xmlns="http://www.w3.org/2000/svg" viewBox="0 0 426.95 111.41" class="hidden sm:block" height="42" width="161"
    alt="Telemetry logo">
    <title>TelemetryTV</title>
    <g id="TelemetryLogo_L2" data-name="Layer 2">
        <g id="TelemetryLogo_L1" data-name="Layer 1">
            <path class="logo-main-color" d="M130.05,44.22v-6.7h28v6.7h-10.5v31.1h-7.2V44.22Z" fill="#fff"></path>
            <path class="logo-main-color"
                d="M180.25,65.62V34.92h7.2v29.5a8.47,8.47,0,0,0,.6,3.8,3.35,3.35,0,0,0,1.8,1.5,29.62,29.62,0,0,0,3.5,1.1v4.4h-6a6.39,6.39,0,0,1-5.3-2.2C180.85,71.52,180.25,69.12,180.25,65.62Z"
                fill="#fff"></path>
            <path class="logo-main-color"
                d="M239.45,57.12c0-2.5-1.2-3.7-3.2-3.7a10.62,10.62,0,0,0-3.4.5,9.89,9.89,0,0,0-3,1.8v19.7h-7.2V47.92h5.8l1.4,2.9a10.59,10.59,0,0,1,1-.7c.6-.4,1.2-.8,1.7-1.1a9.56,9.56,0,0,1,2.4-1,12.13,12.13,0,0,1,3.4-.5c3.5,0,5.9,1.2,7.1,3.6a16.32,16.32,0,0,1,9.9-3.6c5.4,0,8.2,3.2,8.2,9.6v18.2h-7.2V57.12c0-1.9-.6-3-1.8-3.5a5.07,5.07,0,0,0-1.3-.2,9.67,9.67,0,0,0-6.7,2.2l.1,1.6v18.2h-7.2V57.12Z"
                fill="#fff"></path>
            <path class="logo-main-color"
                d="M275.85,75.72c-3.4,0-5.8-1.1-7.1-3.2s-2-5.6-2-10.4.5-8.2,1.6-10.2a8.6,8.6,0,0,1,6.2-3.9,25.42,25.42,0,0,1,4.1-.3,35.47,35.47,0,0,1,3.6.1l2.6.3a5.17,5.17,0,0,1,2.1.7,8.35,8.35,0,0,1,1.6,1.2,5.67,5.67,0,0,1,1.2,1.8,14.35,14.35,0,0,1,.9,5.3,9.62,9.62,0,0,1-.9,4.6c-1.1,2-3.4,2.9-6.8,2.9h-8.7a11.19,11.19,0,0,0,.3,2.9,3.09,3.09,0,0,0,1.1,1.6,4.92,4.92,0,0,0,1.7.6c.6.1,2.2.1,4.9.1a47.15,47.15,0,0,0,7.7-.6v4.9c-1.5.6-12.62,1.46-14.1,1.6m7.7-18.4c0-1.7-.2-2.8-.7-3.3a3.94,3.94,0,0,0-2.8-.7,20.31,20.31,0,0,0-2.9.1,3.4,3.4,0,0,0-1.5.7,3.17,3.17,0,0,0-1,1.8,18,18,0,0,0-.2,2.2v1.3h6.9C282.85,59.42,283.55,58.72,283.55,57.32Z"
                fill="#fff"></path>
            <path class="logo-main-color"
                d="M293.15,53.42v-4l4.4-1.5,1.2-7.6h6v7.6h6.1v5.5h-6.1v11a9,9,0,0,0,.6,3.9,3.35,3.35,0,0,0,1.8,1.5,29.62,29.62,0,0,0,3.5,1.1v4.4h-6.3c-4.5,0-6.7-3.3-6.7-9.8V53.42Z"
                fill="#fff"></path>
            <path class="logo-main-color"
                d="M314.35,75.32V47.92h6.1l1.1,3.5c2.6-2.5,5.2-3.7,7.8-3.7a9.62,9.62,0,0,1,3,.3v7a38.44,38.44,0,0,0-3.9-.2,11.84,11.84,0,0,0-4.1.6,6.46,6.46,0,0,0-2.9,2.4v17.5Z"
                fill="#fff"></path>
            <path class="logo-main-color"
                d="M334.35,47.92H342l4.7,19.2a2.69,2.69,0,0,0,2.7,2.1h0l5.5-21.2h7.5l-9.5,36.1-1.5,5.3h-7.5l3.9-13.9c-4.2,0-6.9-2.3-8.2-7Z"
                fill="#fff"></path>
            <path class="logo-main-color" d="M365.45,42.22v-4.6h26.6v4.6h-11v33.2h-4.7V42.22Z" fill="#fff"></path>
            <path class="logo-main-color" d="M395.55,37.62h5.1l10.4,30.7,10.8-30.7H427l-13.5,37.8h-5.1Z" fill="#fff">
            </path>
            <path class="logo-main-color"
                d="M203.65,75.72c-3.4,0-5.8-1.1-7.1-3.2s-2-5.6-2-10.4.5-8.2,1.6-10.2a8.6,8.6,0,0,1,6.2-3.9,25.42,25.42,0,0,1,4.1-.3,35.47,35.47,0,0,1,3.6.1l2.6.3a5.17,5.17,0,0,1,2.1.7,8.35,8.35,0,0,1,1.6,1.2,5.67,5.67,0,0,1,1.2,1.8,14.35,14.35,0,0,1,.9,5.3,9.62,9.62,0,0,1-.9,4.6c-1.1,2-3.4,2.9-6.8,2.9h-8.7a11.19,11.19,0,0,0,.3,2.9,3.09,3.09,0,0,0,1.1,1.6,4.92,4.92,0,0,0,1.7.6c.6.1,2.2.1,4.9.1a47.15,47.15,0,0,0,7.7-.6v4.9c-1.5.6-12.62,1.46-14.1,1.6m7.7-18.4c0-1.7-.2-2.8-.7-3.3a3.94,3.94,0,0,0-2.8-.7,20.31,20.31,0,0,0-2.9.1,3.4,3.4,0,0,0-1.5.7,3.17,3.17,0,0,0-1,1.8,18,18,0,0,0-.2,2.2v1.3h6.9C210.65,59.42,211.35,58.72,211.35,57.32Z"
                fill="#fff"></path>
            <path class="logo-main-color"
                d="M161.55,75.72c-3.4,0-5.8-1.1-7.1-3.2s-2-5.6-2-10.4.5-8.2,1.6-10.2a8.6,8.6,0,0,1,6.2-3.9,25.42,25.42,0,0,1,4.1-.3,35.47,35.47,0,0,1,3.6.1l2.6.3a5.17,5.17,0,0,1,2.1.7,8.35,8.35,0,0,1,1.6,1.2,5.67,5.67,0,0,1,1.2,1.8,14.35,14.35,0,0,1,.9,5.3,9.62,9.62,0,0,1-.9,4.6c-1.1,2-3.4,2.9-6.8,2.9H160a11.19,11.19,0,0,0,.3,2.9,3.09,3.09,0,0,0,1.1,1.6,4.92,4.92,0,0,0,1.7.6c.6.1,2.2.1,4.9.1a47.15,47.15,0,0,0,7.7-.6v4.9c-1.5.6-12.62,1.46-14.1,1.6m7.7-18.4c0-1.7-.2-2.8-.7-3.3a3.94,3.94,0,0,0-2.8-.7,20.31,20.31,0,0,0-2.9.1,3.4,3.4,0,0,0-1.5.7,3.17,3.17,0,0,0-1,1.8,18,18,0,0,0-.2,2.2v1.3h6.9C168.55,59.42,169.25,58.72,169.25,57.32Z"
                fill="#fff"></path>
            <circle class="circle-1" cx="55.7" cy="55.7" r="55.7" fill="#353635" opacity="0.5"></circle>
            <circle class="circle-2" cx="55.7" cy="55.7" r="46.18" fill="#353635"></circle>
            <path class="part-lt"
                d="M55.65,4.35a51.38,51.38,0,0,0-51.4,51.4V56h10.3v-.2a41.1,41.1,0,0,1,41.1-41.1h.5V4.35C56,4.45,55.85,4.35,55.65,4.35Z"
                fill="#3e6fb6"></path>
            <path class="logo-main-color" d="M38.85,44.65v-8.3h34.6v8.3h-13v38.6h-9V44.65Z" fill="#fff"></path>
            <path class="part-rt"
                d="M56.15,4.35v10.3a41.14,41.14,0,0,1,40.7,41.1V56h10.3v-.2A51.36,51.36,0,0,0,56.15,4.35Z"
                fill="#f9b335"></path>
            <path class="part-rb" d="M96.85,56a41.23,41.23,0,0,1-40.7,40.9v10.3a51.45,51.45,0,0,0,51-51.2Z"
                fill="#fc5543"></path>
            <path class="part-lb" d="M55.65,96.85A41.12,41.12,0,0,1,14.55,56H4.25a51.41,51.41,0,0,0,51.4,51.2h.5V96.85Z"
                fill="#68bd5d"></path>
        </g>
    </g>
</svg>