<svg xmlns="http://www.w3.org/2000/svg" viewBox="0 0 166.01 53.91"><defs><style>.cls-1,.cls-2{fill:#fff;}.cls-1{opacity:0.5;}</style></defs><g id="Layer_2" data-name="Layer 2"><g id="design"><polygon class="cls-1" points="49.87 32.65 25.55 18.61 1.24 32.65 25.55 46.91 49.87 32.65"/><polygon class="cls-1" points="12.63 42.11 36.95 28.08 36.95 0 12.63 14.04 12.63 42.11"/><polygon class="cls-1" points="24.31 53.91 0 39.87 0 11.79 24.31 25.83 24.31 53.91"/><path class="cls-2" d="M77.16,14.07v2.48H71.8V40.9H68.91V16.55H63.55V14.07Z"/><path class="cls-2" d="M105,40.9H92.84V14.07h11.77v2.48H95.73V26H103v2.48H95.73v9.9H105Z"/><path class="cls-2" d="M134.94,19.23V35.74A5.32,5.32,0,0,1,133.18,40a7.88,7.88,0,0,1-5.24,1.51A8,8,0,0,1,122.68,40a5.3,5.3,0,0,1-1.77-4.27V19.23A5.33,5.33,0,0,1,122.66,15a9.94,9.94,0,0,1,10.5,0A5.32,5.32,0,0,1,134.94,19.23Zm-2.89,16.51V19.23q0-3.3-4.13-3.3t-4.13,3.3V35.74q0,3.3,4.13,3.3T132.05,35.74Z"/><path class="cls-2" d="M166,35.74q0,5.77-7,5.78t-7-5.78V32.23H155V35.9a2.79,2.79,0,0,0,1,2.32,6.1,6.1,0,0,0,6.11,0,2.72,2.72,0,0,0,1-2.25,6.67,6.67,0,0,0-.31-2.27,5,5,0,0,0-1.26-1.8l-7.26-7.1a7.4,7.4,0,0,1-1.75-2.49,8.47,8.47,0,0,1-.48-3.08A5.37,5.37,0,0,1,153.78,15a7.65,7.65,0,0,1,5.17-1.5q6.65,0,6.65,5.77v3.51h-2.89V19.07a2.86,2.86,0,0,0-1-2.31,5.52,5.52,0,0,0-5.82,0A2.8,2.8,0,0,0,155,19a7.19,7.19,0,0,0,.29,2.27A4.52,4.52,0,0,0,156.52,23l7.39,7.1a8.29,8.29,0,0,1,1.65,2.54A8.93,8.93,0,0,1,166,35.74Z"/></g></g></svg>