<?xml version="1.0" encoding="utf-8"?>
<!-- Generator: Adobe Illustrator 21.0.0, SVG Export Plug-In . SVG Version: 6.00 Build 0)  -->
<svg version="1.1" xmlns="http://www.w3.org/2000/svg" xmlns:xlink="http://www.w3.org/1999/xlink" x="0px" y="0px"
	 viewBox="0 0 135.1 20.2" style="enable-background:new 0 0 135.1 20.2;" xml:space="preserve">
<style type="text/css">
	.st0{fill:#FFFFFF;}
	.st1{fill:#EDF1F5;}
	.st2{fill:#C1C8D3;}
	.st3{fill:#D8DDE5;}
	.st4{fill:#F7CC09;}
	.st5{fill:#F2F4F7;}
	.st6{fill:#E9ECF2;}
	.st7{enable-background:new    ;}
	.st8{opacity:0.68;}
	.st9{fill:#9FA9B9;}
	.st10{fill:#FFFFFF;stroke:#C1C8D3;stroke-width:4;stroke-miterlimit:10;}
	.st11{fill:#A0AAB9;}
	.st12{fill-rule:evenodd;clip-rule:evenodd;fill:#BBC5D5;}
	.st13{fill:#00B6F0;}
	.st14{fill:#C3C9D1;}
	.st15{fill:#8D97A0;}
	.st16{fill:#FFFFFF;stroke:#F7CC09;stroke-width:2;stroke-miterlimit:10;}
	.st17{fill:#C4CBD6;}
	.st18{fill:#FFCF00;}
	.st19{fill:#FF5A5A;}
	.st20{fill:#FF7878;}
	.st21{fill:#FFAE02;}
	.st22{fill:#D7DCE2;}
</style>
<g id="Слой_1">
</g>
<g id="Слой_2">
	<g>
		<polygon class="st0" points="134.8,0.3 128.2,9.9 135.1,19.9 131,19.9 126,12.6 120.9,19.9 116.9,19.9 123.8,9.9 117.2,0.3 
			121.2,0.3 126,7.4 130.8,0.3 		"/>
		<path class="st0" d="M112.4,2.8C110.5,0.9,108,0,105.1,0c-3,0-5.4,1-7.3,2.9c-1.9,1.9-2.9,4.3-2.9,7.2c0,3,1,5.4,2.9,7.3
			c1.9,1.9,4.4,2.8,7.3,2.8c2.9,0,5.4-1,7.3-2.9c1.9-1.9,2.9-4.3,2.9-7.3C115.3,7.1,114.4,4.7,112.4,2.8z M109.9,15
			c-1.2,1.3-2.8,2-4.8,2c-1.8,0-3.4-0.7-4.7-2c-1.3-1.3-1.9-3-1.9-4.9c0-2,0.6-3.7,1.9-5c1.2-1.3,2.8-1.9,4.7-1.9
			c1.9,0,3.4,0.6,4.7,1.9c1.3,1.3,1.9,2.9,1.9,5C111.7,12.1,111.1,13.7,109.9,15z"/>
		<path class="st0" d="M90.9,11.1c-0.6-0.8-1.5-1.3-2.5-1.5V9.5c1.9-0.9,2.8-2.4,2.8-4.5c0-1.5-0.5-2.6-1.6-3.5
			c-1-0.9-2.7-1.3-4.9-1.3c-1.9,0-3.8,0-5.7,0.1l0,19.5c1.3,0.1,3.1,0.1,5.5,0.1c2.2,0,3.9-0.5,5.3-1.5c1.3-1,2-2.5,2-4.4
			C91.8,12.9,91.5,11.9,90.9,11.1z M82.5,3.5c0.6-0.1,1.3-0.1,2.2-0.1c1,0,1.7,0.2,2.3,0.6c0.6,0.4,0.8,1,0.8,1.8
			c0,0.9-0.3,1.5-0.8,1.9s-1.2,0.7-2.1,0.7h-2.3L82.5,3.5z M84.8,16.8c-0.7,0-1.5,0-2.3-0.1v-5.2h2.4c1.1,0,1.9,0.2,2.5,0.6
			c0.6,0.4,0.9,1,0.9,1.9C88.4,15.9,87.2,16.8,84.8,16.8z"/>
		<path class="st0" d="M72.2,2.8C70.2,0.9,67.8,0,64.8,0c-3,0-5.4,1-7.3,2.9c-1.9,1.9-2.9,4.3-2.9,7.2c0,3,1,5.4,2.9,7.3
			c1.9,1.9,4.4,2.8,7.3,2.8c2.9,0,5.4-1,7.3-2.9c1.9-1.9,2.9-4.3,2.9-7.3C75.1,7.1,74.1,4.7,72.2,2.8z M69.6,15
			c-1.2,1.3-2.8,2-4.8,2c-1.8,0-3.4-0.7-4.7-2c-1.3-1.3-1.9-3-1.9-4.9c0-2,0.6-3.7,1.9-5c1.2-1.3,2.8-1.9,4.7-1.9
			c1.9,0,3.4,0.6,4.7,1.9c1.3,1.3,1.9,2.9,1.9,5C71.4,12.1,70.8,13.7,69.6,15z"/>
		<polygon class="st0" points="46.8,19.9 46.8,0.3 50.2,0.3 50.2,19.9 		"/>
		<path class="st0" d="M38.8,14.7c0-0.5-0.2-1-0.5-1.4c-0.3-0.4-0.8-0.8-1.3-1c-0.5-0.3-1.1-0.6-1.7-0.8c-0.6-0.3-1.3-0.6-1.9-0.9
			c-0.6-0.3-1.2-0.7-1.7-1.1c-0.5-0.4-0.9-1-1.3-1.7C30,7,29.9,6.3,29.9,5.4c0-1.5,0.6-2.8,1.7-3.8C32.7,0.5,34.1,0,36,0
			c2.5,0,4.3,0.7,5.6,2.1l-1.8,2.6c-1-1-2.2-1.5-3.5-1.5c-0.8,0-1.5,0.2-2,0.6c-0.5,0.4-0.7,0.9-0.7,1.6c0,0.6,0.2,1.2,0.7,1.7
			c0.4,0.5,1,0.8,1.6,1.1c0.7,0.3,1.4,0.6,2.1,1c0.8,0.4,1.5,0.8,2.1,1.2c0.7,0.4,1.2,1,1.6,1.7c0.4,0.8,0.7,1.7,0.7,2.7
			c0,1.6-0.6,3-1.9,4c-1.3,1-2.8,1.6-4.7,1.6c-1.3,0-2.6-0.3-3.9-0.8s-2.1-1.3-2.5-2.3l2-2.4c0.5,0.7,1.2,1.3,2.1,1.6
			c0.8,0.4,1.6,0.6,2.4,0.6c0.8,0,1.5-0.2,2.1-0.6C38.5,16,38.8,15.4,38.8,14.7z"/>
		<rect x="21.6" y="0.3" class="st0" width="3.4" height="19.6"/>
		<polygon class="st0" points="18.5,0.3 10.7,20 8.1,20 0,0.3 3.7,0.3 9.5,14.8 15.1,0.3 		"/>
	</g>
</g>
</svg>
