<?xml version="1.0" encoding="UTF-8"?>
<svg id="Ebene_2" data-name="Ebene 2" xmlns="http://www.w3.org/2000/svg" viewBox="0 0 731.12 188.89">
  <defs>
    <style>
      .cls-1, .cls-2, .cls-3 {
        fill-rule: evenodd;
      }

      .cls-1, .cls-4 {
        fill: #fff;
      }

      .cls-2, .cls-5 {
        fill: #f08c1e;
      }

      .cls-3 {
        fill: #f0be8c;
      }
    </style>
  </defs>
  <g id="Ebene_2-2" data-name="Ebene 2">
    <g>
      <g id="Ebene_2-3" data-name="Ebene 2">
        <g>
          <g>
            <path class="cls-3" d="M228.96,39.76c-.31-.47-.74-.71-1.3-.71h-30.33c-.64,0-1.16.33-1.42.92l-45.24,101.71c-.3.67-.92,1.07-1.65,1.07-.73,0-1.35-.4-1.65-1.07l-15.58-34.51c-.05-.11-.04-.21-.07-.32l-17.94,39.77c.28-.18.61-.28.97-.28.73,0,1.35.4,1.65,1.06l18.35,40.48c.26.58.77.91,1.42.91h25.82c.64,0,1.16-.33,1.42-.92L229.07,41.24c.23-.51.19-1.01-.11-1.48Z"/>
            <path class="cls-2" d="M95.29,187.89L160.96,41.24c.23-.51.19-1.01-.11-1.48-.3-.47-.74-.71-1.3-.71h-30.33c-.64,0-1.16.33-1.42.92l-45.24,101.71c-.3.67-.92,1.07-1.65,1.07-.73,0-1.35-.4-1.65-1.07L33.33,39.96c-.26-.58-.77-.92-1.42-.92H1.57c-.56,0-1,.24-1.31.71-.3.47-.34.97-.11,1.48l66.49,146.65c.26.58.77.91,1.41.91h25.82c.64,0,1.16-.33,1.42-.92Z"/>
          </g>
          <g>
            <path class="cls-5" d="M246.33,188.61h-9.59v-27.36h9.84c1.84,0,3.57.28,5.18.85,1.61.57,3.01,1.42,4.21,2.56,1.19,1.14,2.13,2.57,2.83,4.29.69,1.72,1.04,3.72,1.04,6s-.36,4.1-1.08,5.79c-.72,1.69-1.69,3.12-2.91,4.29-1.22,1.17-2.65,2.05-4.29,2.66-1.64.61-3.38.91-5.22.91ZM245.92,166.45h-3.5l-.16,16.71h3.42c1.11,0,2.18-.22,3.19-.65,1.02-.43,1.91-1.03,2.68-1.79.77-.76,1.38-1.65,1.83-2.66.45-1.02.67-2.11.67-3.27s-.21-2.25-.63-3.25c-.42-1-1-1.88-1.73-2.64-.73-.76-1.59-1.35-2.58-1.79-.99-.43-2.05-.65-3.19-.65Z"/>
            <path class="cls-5" d="M273.4,188.57v-27.32h5.73v27.32h-5.73Z"/>
            <path class="cls-5" d="M317.02,185.64c-1.46,1.11-2.97,1.93-4.51,2.46-1.54.53-3.36.79-5.45.79-1.84,0-3.58-.37-5.22-1.1-1.64-.73-3.08-1.73-4.31-2.99-1.23-1.26-2.21-2.73-2.93-4.41-.72-1.68-1.08-3.46-1.08-5.33s.37-3.7,1.1-5.41c.73-1.71,1.71-3.21,2.95-4.51,1.23-1.3,2.67-2.33,4.31-3.09,1.64-.76,3.38-1.14,5.22-1.14s3.47.35,4.96,1.06c1.49.71,2.85,1.67,4.07,2.89l-4.35,3.09c-.68-.54-1.4-.97-2.15-1.28-.76-.31-1.61-.47-2.56-.47-1.14,0-2.18.25-3.13.75-.95.5-1.77,1.16-2.46,1.97s-1.23,1.75-1.63,2.83c-.39,1.07-.59,2.17-.59,3.31,0,1.9.38,3.5,1.14,4.8.76,1.3,1.73,2.29,2.91,2.97,1.18.68,2.48,1.04,3.9,1.1,1.42.05,2.81-.23,4.17-.85v-7.24h5.73l-.08,9.8Z"/>
            <path class="cls-5" d="M331.21,188.57v-27.32h5.73v27.32h-5.73Z"/>
            <path class="cls-5" d="M363.08,166.13l-.04,22.48-5.73-.04v-22.44h-7.36v-4.88l20.61.04v4.84h-7.48Z"/>
            <path class="cls-5" d="M397.15,188.61l-.85-2.24-11.79-.08-1.3,2.32h-5.81l11.59-27.4h4.23l10.73,27.4h-6.79ZM390.73,170.64l-4.59,10.65,9.03.16-4.43-10.81Z"/>
            <path class="cls-5" d="M416.99,188.61v-27.32l5.73-.04v22.08h11.75v5.29h-17.48Z"/>
            <path class="cls-5" d="M477.93,188.61l-6.46-.04.04-4.88h5.49c.51,0,1.06-.04,1.63-.12.57-.08,1.09-.24,1.57-.49.47-.24.87-.57,1.18-.98.31-.41.47-.92.47-1.54,0-1-.25-1.76-.75-2.28-.5-.51-1.13-.94-1.89-1.26s-1.59-.62-2.48-.89c-.89-.27-1.72-.66-2.48-1.18-.76-.51-1.39-1.21-1.89-2.09s-.75-2.09-.75-3.64c0-1.11.19-2.15.57-3.11.38-.96.9-1.8,1.57-2.52.66-.72,1.46-1.28,2.4-1.69.93-.41,1.97-.61,3.11-.61h7.2v4.84l-6.42.04c-.84,0-1.58.23-2.22.69-.64.46-.96,1.14-.96,2.03,0,.95.26,1.66.79,2.13.53.47,1.19.86,1.99,1.16.8.3,1.66.58,2.58.85.92.27,1.78.67,2.58,1.2.8.53,1.46,1.26,1.99,2.2.53.94.79,2.22.79,3.84,0,1.49-.24,2.76-.71,3.82s-1.14,1.92-1.99,2.58c-.85.66-1.87,1.15-3.05,1.46s-2.47.47-3.88.47Z"/>
            <path class="cls-5" d="M501.84,188.57v-27.32h5.73v27.32h-5.73Z"/>
            <path class="cls-5" d="M545.46,185.64c-1.46,1.11-2.97,1.93-4.51,2.46-1.54.53-3.36.79-5.45.79-1.84,0-3.58-.37-5.22-1.1-1.64-.73-3.08-1.73-4.31-2.99s-2.21-2.73-2.93-4.41c-.72-1.68-1.08-3.46-1.08-5.33s.37-3.7,1.1-5.41c.73-1.71,1.71-3.21,2.95-4.51,1.23-1.3,2.67-2.33,4.31-3.09,1.64-.76,3.38-1.14,5.22-1.14s3.47.35,4.96,1.06c1.49.71,2.85,1.67,4.07,2.89l-4.35,3.09c-.68-.54-1.4-.97-2.16-1.28-.76-.31-1.61-.47-2.56-.47-1.14,0-2.18.25-3.13.75-.95.5-1.77,1.16-2.46,1.97-.69.81-1.23,1.75-1.63,2.83s-.59,2.17-.59,3.31c0,1.9.38,3.5,1.14,4.8s1.73,2.29,2.91,2.97c1.18.68,2.48,1.04,3.9,1.1,1.42.05,2.81-.23,4.17-.85v-7.24h5.73l-.08,9.8Z"/>
            <path class="cls-5" d="M578.84,188.61l-8.94-10.65-4.15-5h-.33v15.61l-5.73.04v-27.32h3.05l9.03,10.49,3.62,4.76h.29v-15.25h5.73v27.32h-2.56Z"/>
            <path class="cls-5" d="M614.2,188.61l-.85-2.24-11.79-.08-1.3,2.32h-5.81l11.59-27.4h4.23l10.73,27.4h-6.79ZM607.78,170.64l-4.59,10.65,9.03.16-4.43-10.81Z"/>
            <path class="cls-5" d="M655.06,185.64c-1.46,1.11-2.97,1.93-4.51,2.46-1.54.53-3.36.79-5.45.79-1.84,0-3.58-.37-5.22-1.1-1.64-.73-3.08-1.73-4.31-2.99s-2.21-2.73-2.93-4.41c-.72-1.68-1.08-3.46-1.08-5.33s.37-3.7,1.1-5.41c.73-1.71,1.71-3.21,2.95-4.51,1.23-1.3,2.67-2.33,4.31-3.09,1.64-.76,3.38-1.14,5.22-1.14s3.47.35,4.96,1.06c1.49.71,2.85,1.67,4.07,2.89l-4.35,3.09c-.68-.54-1.4-.97-2.16-1.28-.76-.31-1.61-.47-2.56-.47-1.14,0-2.18.25-3.13.75-.95.5-1.77,1.16-2.46,1.97-.69.81-1.23,1.75-1.63,2.83s-.59,2.17-.59,3.31c0,1.9.38,3.5,1.14,4.8s1.73,2.29,2.91,2.97c1.18.68,2.48,1.04,3.9,1.1,1.42.05,2.81-.23,4.17-.85v-7.24h5.73l-.08,9.8Z"/>
            <path class="cls-5" d="M670.39,188.61v-27.36h16.87v4.8h-11.14v5.98h10.61v4.88h-10.77v6.83h11.42v4.88h-16.99Z"/>
          </g>
          <path class="cls-1" d="M639.63,40.97c-21.24,2.62-37.19,20.74-37.19,42.12s15.95,39.5,37.19,42.12c1.74.22,3.5.32,5.26.32s3.51-.11,5.26-.32c21.24-2.62,37.19-20.74,37.19-42.12s-15.95-39.5-37.19-42.12c-1.74-.22-3.5-.32-5.26-.32s-3.51.11-5.26.32h0ZM649.45,57.9c12.18,2.17,21.05,12.84,21.05,25.2s-9.05,23.21-21.38,25.26c-1.4.23-2.81.35-4.23.35s-2.83-.12-4.22-.35l-.36-.06c-12.17-2.18-21.03-12.85-21.03-25.2s9.05-23.21,21.38-25.26c1.4-.23,2.81-.35,4.23-.35s2.83.12,4.22.35l.33.06h0Z"/>
          <path class="cls-1" d="M549.6,71.16V20.94c0-.47-.38-.85-.85-.85h-15.14c-.47,0-.85.38-.85.85v103.75c0,.47.38.85.85.85h15.14c.47,0,.85-.38.85-.85v-25.98c0-.43.26-.79.66-.94.4-.14.83-.02,1.1.31l21.26,26.13.79,1.01c.17.22.39.33.67.33h19.7c.34,0,.62-.17.77-.48.15-.31.12-.63-.1-.9l-30.64-39.13c-.29-.36-.29-.86,0-1.23l30.64-39.13c.21-.27.25-.59.1-.9-.15-.31-.42-.48-.77-.48h-19.7c-.28,0-.5.11-.67.33l-22.03,28.13c-.27.34-.7.47-1.11.33-.41-.14-.67-.51-.67-.94h0Z"/>
          <path class="cls-1" d="M371.87,40.97c-21.24,2.62-37.19,20.74-37.19,42.12s15.95,39.5,37.19,42.12c1.74.22,3.5.32,5.26.32s3.51-.11,5.26-.32c21.24-2.62,37.19-20.74,37.19-42.12V18.83c0-.47-.38-.85-.85-.85h-15.14c-.47,0-.85.38-.85.85v64.27c0,12.49-9.05,23.21-21.38,25.26-1.4.23-2.81.35-4.23.35s-2.83-.12-4.23-.35l-.35-.06c-12.17-2.18-21.03-12.85-21.03-25.2s9.05-23.21,21.38-25.26c1.4-.23,2.81-.35,4.23-.35s2.83.12,4.22.35l.33.06c3.96.71,7.7,2.35,10.91,4.79.27.21.59.24.9.09.31-.15.47-.42.47-.77v-17.32c0-.36-.19-.65-.53-.79-3.53-1.47-7.26-2.45-11.05-2.92-1.74-.22-3.5-.32-5.26-.32s-3.51.11-5.26.32h0Z"/>
          <path class="cls-1" d="M298.65,101.21c-2.79,2.79-6.13,4.86-9.78,6.11-.08.03-.16.05-.23.08-2.55.85-5.27,1.31-8.1,1.31-5.91,0-11.51-2.04-15.96-5.58-3.33-2.65-6.02-6.14-7.71-10.23-.01-.03-.03-.07-.04-.1-1.22-2.99-1.9-6.26-1.9-9.69s.67-6.7,1.9-9.69c0-.03.02-.06.03-.1,1.68-4.07,4.34-7.54,7.64-10.18,0,0,0,0,0,0,4.39-3.52,9.96-5.63,16.02-5.63s11.56,2.06,16.02,5.63c3.31,2.65,5.97,6.12,7.65,10.19.01.03.02.06.03.1.17.42.33.84.48,1.28h-34.31c-.92,2.64-1.42,5.47-1.42,8.42s.5,5.78,1.42,8.42h51.1c.44,0,.79-.32.85-.75l.3-2.41c.22-1.74.32-3.5.32-5.26s-.11-3.51-.32-5.26c-2.63-21.24-20.74-37.19-42.13-37.19s-39.5,15.96-42.13,37.19c-.22,1.74-.32,3.5-.32,5.26s.11,3.51.32,5.26c2.63,21.24,20.74,37.19,42.13,37.19,11.29,0,22.03-4.45,30.01-12.43l1.95-1.95c.33-.33.33-.87,0-1.21l-10.7-10.7c-.33-.33-.88-.33-1.21,0l-1.95,1.95h0Z"/>
          <path class="cls-1" d="M494.02,101.21c-2.79,2.79-6.13,4.86-9.78,6.11-.08.03-.16.05-.23.08-2.55.85-5.27,1.31-8.1,1.31-5.91,0-11.51-2.04-15.96-5.58-3.33-2.65-6.02-6.14-7.71-10.23-.01-.03-.03-.07-.04-.1-1.22-2.99-1.9-6.26-1.9-9.69s.67-6.7,1.9-9.69c0-.03.02-.06.03-.1,1.68-4.07,4.34-7.54,7.64-10.18,0,0,0,0,0,0,4.39-3.52,9.96-5.63,16.02-5.63s11.56,2.06,16.02,5.63c3.31,2.65,5.97,6.12,7.65,10.19.01.03.02.06.03.1.17.42.33.84.48,1.28h-34.31c-.92,2.64-1.42,5.47-1.42,8.42s.5,5.78,1.42,8.42h51.1c.44,0,.79-.32.85-.75l.3-2.41c.22-1.74.32-3.5.32-5.26s-.11-3.51-.32-5.26c-2.63-21.24-20.74-37.19-42.13-37.19s-39.5,15.96-42.13,37.19c-.22,1.74-.32,3.5-.32,5.26s.11,3.51.32,5.26c2.63,21.24,20.74,37.19,42.13,37.19,11.29,0,22.03-4.45,30.01-12.43l1.95-1.95c.33-.33.33-.87,0-1.21l-10.7-10.7c-.33-.33-.88-.33-1.21,0l-1.95,1.95h0Z"/>
        </g>
      </g>
      <path class="cls-4" d="M729.75,20.31c-.85,2.07-2.28,3.11-4.27,3.11h-10.44c-.5,3.69-2.4,6.4-5.7,8.14-2.42,1.28-5.25,1.91-8.49,1.91h-3.52c-.63,0-1.19-.15-1.66-.46-.63-.41-.95-1.04-.95-1.87,0-.48.09-1.02.28-1.63l6.02-19.38h6.86l-6.27,20.19c2.81.07,4.81-1.04,6-3.32-1.21-.75-1.81-1.76-1.81-3.05,0-1,.39-1.86,1.17-2.57.78-.71,1.71-1.06,2.79-1.06h19.99ZM731.12,21.8c0-12.04-9.76-21.8-21.8-21.8s-21.8,9.76-21.8,21.8,9.76,21.8,21.8,21.8,21.8-9.76,21.8-21.8"/>
    </g>
  </g>
</svg>