<svg class="h-3.5" xmlns="http://www.w3.org/2000/svg" fill="none" viewBox="0 0 121 14">
	<path fill="currentColor"
		d="M7.644 13.937H5.167L0 0h2.788l3.61 10.268L10.022 0h2.797L7.644 13.937ZM19.64 0H17.01v13.937h2.631V0ZM29.526 14c-.735 0-1.406-.098-1.993-.289a4.424 4.424 0 0 1-1.55-.863 4.358 4.358 0 0 1-1.059-1.399 6.032 6.032 0 0 1-.532-1.879l-.031-.248h2.61l.031.182c.07.4.184.737.34 1.002.154.26.342.473.56.631.22.16.466.274.736.341.556.138 1.217.14 1.785-.005.275-.069.519-.18.724-.327.2-.144.36-.333.48-.563.118-.23.178-.51.178-.838 0-.28-.046-.515-.137-.694a1.223 1.223 0 0 0-.42-.46 3.34 3.34 0 0 0-.794-.372 16.317 16.317 0 0 0-1.196-.344 17.653 17.653 0 0 1-1.66-.496 5.679 5.679 0 0 1-1.436-.739 3.501 3.501 0 0 1-1.016-1.144c-.254-.458-.383-1.03-.383-1.702 0-.655.146-1.233.434-1.716.284-.476.66-.874 1.118-1.182A4.97 4.97 0 0 1 27.85.217a6.82 6.82 0 0 1 3.327-.022A4.223 4.223 0 0 1 32.63.86c.434.311.802.726 1.097 1.233.294.507.486 1.14.57 1.88l.028.245h-2.614l-.025-.191a1.914 1.914 0 0 0-.235-.728 1.67 1.67 0 0 0-.455-.504 2.025 2.025 0 0 0-.646-.302c-.444-.121-.945-.139-1.525-.031a2.385 2.385 0 0 0-.688.239 1.45 1.45 0 0 0-.498.434c-.122.169-.183.391-.183.66 0 .236.046.436.135.596.092.163.235.308.424.432.203.134.464.254.776.356.323.106.712.213 1.157.317.37.083.741.177 1.101.28.364.106.717.234 1.05.381.335.15.65.327.936.529.296.207.553.458.766.746.212.29.38.627.5 1.005.119.377.18.816.18 1.308 0 .655-.13 1.255-.387 1.78a4.004 4.004 0 0 1-1.058 1.345c-.444.366-.973.649-1.574.842a6.32 6.32 0 0 1-1.936.288M44.318 13.937c-.677 0-1.339-.101-1.969-.301a4.577 4.577 0 0 1-1.712-.987c-.499-.452-.902-1.051-1.2-1.778-.295-.723-.445-1.614-.445-2.648V0h2.632v8.223c0 .65.077 1.196.229 1.62.15.416.349.752.593.996.242.242.526.416.844.516a3.443 3.443 0 0 0 2.043 0c.315-.1.598-.274.84-.516.244-.244.444-.58.593-.997.153-.423.229-.968.229-1.62V0h2.65v8.223c0 1.034-.152 1.926-.45 2.649-.301.726-.706 1.325-1.204 1.777a4.581 4.581 0 0 1-1.712.987c-.63.2-1.29.3-1.96.3M76.974 13.937h-8.357V.024h2.632v11.442h5.725v2.47ZM98.691 6.028h2.124c.357 0 .685-.035.974-.104.277-.066.514-.172.707-.315a1.37 1.37 0 0 0 .432-.543c.104-.226.156-.51.156-.845 0-.336-.052-.62-.156-.846a1.388 1.388 0 0 0-.426-.544 1.777 1.777 0 0 0-.686-.309 4.215 4.215 0 0 0-.95-.1h-2.175v3.606Zm7.821 7.909h-3.071l-3.318-5.511h-1.432v5.51h-2.597V.025h4.755c.791 0 1.498.097 2.102.288.611.194 1.132.475 1.548.837.421.366.741.815.953 1.336.21.516.317 1.1.317 1.736 0 1.018-.279 1.875-.829 2.547-.489.6-1.17 1.039-2.025 1.305l3.597 5.864ZM116.389 13.937h-2.632V2.505h-4.174V.025h10.973v2.48h-4.167v11.432ZM65.472 13.937h-2.787l-3.61-10.268-3.626 10.268h-2.796L57.828 0h2.478l5.166 13.937ZM92.453 13.937h-2.788l-3.61-10.268-3.626 10.268h-2.796L84.808 0h2.478l.053.145 5.114 13.792Z">
	</path>
</svg>