<svg xmlns="http://www.w3.org/2000/svg" xmlns:xlink="http://www.w3.org/1999/xlink" width="143.865" height="55.889" viewBox="0 0 143.865 55.889"><defs><clipPath id="a"><rect width="143.865" height="55.889" fill="none"/></clipPath></defs><g clip-path="url(#a)"><path d="M24.46,130.145h3.415a5.334,5.334,0,0,1,1.653.258,4.044,4.044,0,0,1,1.407.786,3.86,3.86,0,0,1,.98,1.326,4.451,4.451,0,0,1,.367,1.878,3.988,3.988,0,0,1-.422,1.889,4.076,4.076,0,0,1-1.09,1.32,4.678,4.678,0,0,1-1.482.779,5.275,5.275,0,0,1-1.6.258H24.46Zm2.692,7.126a5.586,5.586,0,0,0,1.365-.161,3.286,3.286,0,0,0,1.121-.5,2.409,2.409,0,0,0,.752-.888,2.916,2.916,0,0,0,.276-1.325,3.24,3.24,0,0,0-.245-1.32,2.3,2.3,0,0,0-.679-.894,2.879,2.879,0,0,0-1.029-.5,4.955,4.955,0,0,0-1.3-.161H26v5.758Z" transform="translate(-15.593 -82.965)" fill="#fff"/><rect width="1.542" height="8.494" transform="translate(19.59 47.179)" fill="#fff"/><path d="M74.464,137.634a7.612,7.612,0,0,1-3.587.84,5.159,5.159,0,0,1-1.842-.318,4.228,4.228,0,0,1-1.445-.9,4.136,4.136,0,0,1-.948-1.4,4.647,4.647,0,0,1-.342-1.811,4.851,4.851,0,0,1,.342-1.854,4.065,4.065,0,0,1,2.393-2.327,5.135,5.135,0,0,1,1.842-.319,7.177,7.177,0,0,1,1.862.234,3.848,3.848,0,0,1,1.554.835l-1.138,1.127a2.86,2.86,0,0,0-1.01-.612,3.633,3.633,0,0,0-1.254-.216,3.051,3.051,0,0,0-1.218.234,2.769,2.769,0,0,0-.936.647,2.945,2.945,0,0,0-.606.966,3.258,3.258,0,0,0-.214,1.188,3.581,3.581,0,0,0,.214,1.259,2.949,2.949,0,0,0,.606,1,2.8,2.8,0,0,0,.936.659,2.979,2.979,0,0,0,1.218.24A5.483,5.483,0,0,0,72,137a3.182,3.182,0,0,0,.924-.337v-2H71.147v-1.367h3.317Z" transform="translate(-42.264 -82.585)" fill="#fff"/><rect width="1.542" height="8.494" transform="translate(35.456 47.179)" fill="#fff"/><path d="M111.568,131.512h-2.657v-1.368h6.856v1.368h-2.657v7.126h-1.543Z" transform="translate(-69.429 -82.965)" fill="#fff"/><path d="M132.776,130.144h1.334l3.734,8.494h-1.763l-.808-1.943h-3.758l-.784,1.943h-1.726Zm1.959,5.255-1.334-3.455-1.359,3.455Z" transform="translate(-82.239 -82.965)" fill="#fff"/><path d="M160.105,130.144h1.542v7.126h3.685v1.368h-5.227Z" transform="translate(-102.064 -82.965)" fill="#fff"/><path d="M198.945,131.588a1.414,1.414,0,0,0-.655-.51,2.318,2.318,0,0,0-.863-.162,2.217,2.217,0,0,0-.52.06,1.424,1.424,0,0,0-.452.192,1.012,1.012,0,0,0-.324.341.971.971,0,0,0-.123.5.771.771,0,0,0,.306.66,3.011,3.011,0,0,0,.759.4q.452.168.991.324a4.07,4.07,0,0,1,.992.432,2.419,2.419,0,0,1,.759.732,2.139,2.139,0,0,1,.306,1.212,2.614,2.614,0,0,1-.257,1.194,2.434,2.434,0,0,1-.692.845,3.012,3.012,0,0,1-1.009.5,4.323,4.323,0,0,1-1.213.168,4.635,4.635,0,0,1-1.554-.264,3,3,0,0,1-1.286-.888l1.163-1.1a1.925,1.925,0,0,0,.741.653,2.107,2.107,0,0,0,.973.234,2.086,2.086,0,0,0,.539-.072,1.7,1.7,0,0,0,.49-.216,1.125,1.125,0,0,0,.354-.365.966.966,0,0,0,.135-.51.88.88,0,0,0-.306-.719,2.719,2.719,0,0,0-.759-.426q-.453-.174-.991-.331a4.208,4.208,0,0,1-.992-.425,2.389,2.389,0,0,1-.758-.72,2.114,2.114,0,0,1-.307-1.206,2.256,2.256,0,0,1,.276-1.14,2.485,2.485,0,0,1,.722-.8,3.17,3.17,0,0,1,1.022-.474,4.451,4.451,0,0,1,1.175-.156,4.36,4.36,0,0,1,1.328.2,3.091,3.091,0,0,1,1.157.672Z" transform="translate(-123.741 -82.585)" fill="#fff"/><rect width="1.542" height="8.494" transform="translate(79.415 47.179)" fill="#fff"/><path d="M239.486,137.634a7.611,7.611,0,0,1-3.587.84,5.159,5.159,0,0,1-1.842-.318,4.225,4.225,0,0,1-1.445-.9,4.142,4.142,0,0,1-.949-1.4,4.647,4.647,0,0,1-.342-1.811,4.851,4.851,0,0,1,.342-1.854,4.067,4.067,0,0,1,2.394-2.327,5.135,5.135,0,0,1,1.842-.319,7.176,7.176,0,0,1,1.862.234,3.852,3.852,0,0,1,1.554.835l-1.138,1.127a2.858,2.858,0,0,0-1.01-.612,3.63,3.63,0,0,0-1.254-.216,3.052,3.052,0,0,0-1.218.234,2.773,2.773,0,0,0-.936.647,2.939,2.939,0,0,0-.606.966,3.259,3.259,0,0,0-.215,1.188,3.581,3.581,0,0,0,.215,1.259,2.942,2.942,0,0,0,.606,1,2.8,2.8,0,0,0,.936.659,2.98,2.98,0,0,0,1.218.24,5.48,5.48,0,0,0,1.107-.107,3.184,3.184,0,0,0,.925-.337v-2h-1.775v-1.367h3.317Z" transform="translate(-147.463 -82.585)" fill="#fff"/><path d="M262.929,130.144h2.044l4.2,6.31h.025v-6.31h1.542v8.494H268.78l-4.284-6.514h-.025v6.514h-1.542Z" transform="translate(-167.613 -82.965)" fill="#fff"/><path d="M294.963,130.144H296.3l3.734,8.494h-1.763l-.808-1.943H293.7l-.784,1.943h-1.726Zm1.959,5.255-1.334-3.455-1.359,3.455Z" transform="translate(-185.631 -82.965)" fill="#fff"/><path d="M329.173,137.634a7.611,7.611,0,0,1-3.587.84,5.159,5.159,0,0,1-1.842-.318,4.225,4.225,0,0,1-1.445-.9,4.142,4.142,0,0,1-.949-1.4,4.647,4.647,0,0,1-.342-1.811,4.852,4.852,0,0,1,.342-1.854,4.067,4.067,0,0,1,2.394-2.327,5.135,5.135,0,0,1,1.842-.319,7.176,7.176,0,0,1,1.862.234,3.852,3.852,0,0,1,1.554.835l-1.138,1.127a2.858,2.858,0,0,0-1.01-.612,3.63,3.63,0,0,0-1.254-.216,3.052,3.052,0,0,0-1.218.234,2.773,2.773,0,0,0-.936.647,2.938,2.938,0,0,0-.606.966,3.259,3.259,0,0,0-.215,1.188,3.581,3.581,0,0,0,.215,1.259,2.942,2.942,0,0,0,.606,1,2.8,2.8,0,0,0,.936.659,2.98,2.98,0,0,0,1.218.24,5.48,5.48,0,0,0,1.107-.107,3.184,3.184,0,0,0,.925-.337v-2h-1.775v-1.367h3.317Z" transform="translate(-204.637 -82.585)" fill="#fff"/><path d="M352.616,130.144h5.741v1.368h-4.2V133.6h3.978v1.368h-3.978v2.3h4.419v1.368h-5.961Z" transform="translate(-224.787 -82.965)" fill="#fff"/><path d="M207.53,5.119v17.8q0,3.808,1.244,5.568a6.654,6.654,0,0,0,10.467,0q1.244-1.7,1.244-5.568V5.119h4.459V24.14a10.643,10.643,0,0,1-2.909,7.693,11.25,11.25,0,0,1-16.054,0,10.641,10.641,0,0,1-2.908-7.693V5.119Z" transform="translate(-129.455 -3.263)" fill="#1065b0"/><path d="M291.684,5.119V30.474h12.292l-2.4,4.19H287.226V5.119Z" transform="translate(-183.101 -3.264)" fill="#1065b0"/><path d="M340.883,21.9,331.239,5.12h5.128l6.755,11.807L349.9,5.12h5.129L345.342,21.9V34.665h-4.459Z" transform="translate(-211.159 -3.264)" fill="#1065b0"/><path d="M20.2,2.526H15.4l4.368,9.381L14.543,23.938,4.8,2.526H0l14.62,31.4L22.181,17.09l7.838,16.837,2.219-4.941Z" transform="translate(0 -1.61)" fill="#1065b0"/><path d="M91.9,2.526h4.88L84.893,28.985l-2.3-5.047Z" transform="translate(-52.654 -1.61)" fill="#009cdc"/><path d="M148.448,0l-2.284,4.906,2.207,5.082,9.3,21.412h4.88Z" transform="translate(-93.177 0)" fill="#1065b0"/><path d="M116.941,40.029h-4.8l12.335-26.495,2.208,5.082Z" transform="translate(-71.486 -8.627)" fill="#009cdc"/></g></svg>